G04 #@! TF.FileFunction,Legend,Top*
%FSLAX46Y46*%
G04 Gerber Fmt 4.6, Leading zero omitted, Abs format (unit mm)*
G04 Created by KiCad (PCBNEW 4.0.7-e2-6376~58~ubuntu16.04.1) date Thu Feb 15 14:57:13 2018*
%MOMM*%
%LPD*%
G01*
G04 APERTURE LIST*
%ADD10C,0.100000*%
%ADD11C,0.150000*%
%ADD12C,0.120000*%
%ADD13C,0.205000*%
G04 APERTURE END LIST*
D10*
D11*
X153836714Y-107346571D02*
X154503381Y-107108476D01*
X153836714Y-106870380D01*
X153503381Y-106298952D02*
X153503381Y-106203713D01*
X153551000Y-106108475D01*
X153598619Y-106060856D01*
X153693857Y-106013237D01*
X153884333Y-105965618D01*
X154122429Y-105965618D01*
X154312905Y-106013237D01*
X154408143Y-106060856D01*
X154455762Y-106108475D01*
X154503381Y-106203713D01*
X154503381Y-106298952D01*
X154455762Y-106394190D01*
X154408143Y-106441809D01*
X154312905Y-106489428D01*
X154122429Y-106537047D01*
X153884333Y-106537047D01*
X153693857Y-106489428D01*
X153598619Y-106441809D01*
X153551000Y-106394190D01*
X153503381Y-106298952D01*
X154408143Y-105537047D02*
X154455762Y-105489428D01*
X154503381Y-105537047D01*
X154455762Y-105584666D01*
X154408143Y-105537047D01*
X154503381Y-105537047D01*
X153503381Y-105156095D02*
X153503381Y-104489428D01*
X154503381Y-104918000D01*
D12*
X141408190Y-117290972D02*
X141370095Y-117405258D01*
X141370095Y-117595734D01*
X141408190Y-117671924D01*
X141446286Y-117710020D01*
X141522476Y-117748115D01*
X141598667Y-117748115D01*
X141674857Y-117710020D01*
X141712952Y-117671924D01*
X141751048Y-117595734D01*
X141789143Y-117443353D01*
X141827238Y-117367162D01*
X141865333Y-117329067D01*
X141941524Y-117290972D01*
X142017714Y-117290972D01*
X142093905Y-117329067D01*
X142132000Y-117367162D01*
X142170095Y-117443353D01*
X142170095Y-117633829D01*
X142132000Y-117748115D01*
X141370095Y-118090972D02*
X142170095Y-118090972D01*
X142170095Y-118281448D01*
X142132000Y-118395734D01*
X142055810Y-118471925D01*
X141979619Y-118510020D01*
X141827238Y-118548115D01*
X141712952Y-118548115D01*
X141560571Y-118510020D01*
X141484381Y-118471925D01*
X141408190Y-118395734D01*
X141370095Y-118281448D01*
X141370095Y-118090972D01*
X141598667Y-118852877D02*
X141598667Y-119233829D01*
X141370095Y-118776686D02*
X142170095Y-119043353D01*
X141370095Y-119310020D01*
X141408190Y-114770019D02*
X141370095Y-114884305D01*
X141370095Y-115074781D01*
X141408190Y-115150971D01*
X141446286Y-115189067D01*
X141522476Y-115227162D01*
X141598667Y-115227162D01*
X141674857Y-115189067D01*
X141712952Y-115150971D01*
X141751048Y-115074781D01*
X141789143Y-114922400D01*
X141827238Y-114846209D01*
X141865333Y-114808114D01*
X141941524Y-114770019D01*
X142017714Y-114770019D01*
X142093905Y-114808114D01*
X142132000Y-114846209D01*
X142170095Y-114922400D01*
X142170095Y-115112876D01*
X142132000Y-115227162D01*
X141446286Y-116027162D02*
X141408190Y-115989067D01*
X141370095Y-115874781D01*
X141370095Y-115798591D01*
X141408190Y-115684305D01*
X141484381Y-115608114D01*
X141560571Y-115570019D01*
X141712952Y-115531924D01*
X141827238Y-115531924D01*
X141979619Y-115570019D01*
X142055810Y-115608114D01*
X142132000Y-115684305D01*
X142170095Y-115798591D01*
X142170095Y-115874781D01*
X142132000Y-115989067D01*
X142093905Y-116027162D01*
X141370095Y-116750972D02*
X141370095Y-116370019D01*
X142170095Y-116370019D01*
X142170095Y-112293524D02*
X142170095Y-112788762D01*
X141865333Y-112522095D01*
X141865333Y-112636381D01*
X141827238Y-112712571D01*
X141789143Y-112750667D01*
X141712952Y-112788762D01*
X141522476Y-112788762D01*
X141446286Y-112750667D01*
X141408190Y-112712571D01*
X141370095Y-112636381D01*
X141370095Y-112407809D01*
X141408190Y-112331619D01*
X141446286Y-112293524D01*
X142170095Y-113017333D02*
X141370095Y-113284000D01*
X142170095Y-113550667D01*
X142170095Y-113741143D02*
X142170095Y-114236381D01*
X141865333Y-113969714D01*
X141865333Y-114084000D01*
X141827238Y-114160190D01*
X141789143Y-114198286D01*
X141712952Y-114236381D01*
X141522476Y-114236381D01*
X141446286Y-114198286D01*
X141408190Y-114160190D01*
X141370095Y-114084000D01*
X141370095Y-113855428D01*
X141408190Y-113779238D01*
X141446286Y-113741143D01*
X142132000Y-110134477D02*
X142170095Y-110058286D01*
X142170095Y-109944001D01*
X142132000Y-109829715D01*
X142055810Y-109753524D01*
X141979619Y-109715429D01*
X141827238Y-109677334D01*
X141712952Y-109677334D01*
X141560571Y-109715429D01*
X141484381Y-109753524D01*
X141408190Y-109829715D01*
X141370095Y-109944001D01*
X141370095Y-110020191D01*
X141408190Y-110134477D01*
X141446286Y-110172572D01*
X141712952Y-110172572D01*
X141712952Y-110020191D01*
X141370095Y-110515429D02*
X142170095Y-110515429D01*
X141370095Y-110972572D01*
X142170095Y-110972572D01*
X141370095Y-111353524D02*
X142170095Y-111353524D01*
X142170095Y-111544000D01*
X142132000Y-111658286D01*
X142055810Y-111734477D01*
X141979619Y-111772572D01*
X141827238Y-111810667D01*
X141712952Y-111810667D01*
X141560571Y-111772572D01*
X141484381Y-111734477D01*
X141408190Y-111658286D01*
X141370095Y-111544000D01*
X141370095Y-111353524D01*
D13*
X148240905Y-113990381D02*
X148240905Y-112990381D01*
X148574239Y-113704667D01*
X148907572Y-112990381D01*
X148907572Y-113990381D01*
X149383762Y-113990381D02*
X149383762Y-112990381D01*
X149764715Y-112990381D01*
X149859953Y-113038000D01*
X149907572Y-113085619D01*
X149955191Y-113180857D01*
X149955191Y-113323714D01*
X149907572Y-113418952D01*
X149859953Y-113466571D01*
X149764715Y-113514190D01*
X149383762Y-113514190D01*
X150859953Y-113990381D02*
X150383762Y-113990381D01*
X150383762Y-112990381D01*
X148312333Y-118578381D02*
X148883762Y-118578381D01*
X148598047Y-119578381D02*
X148598047Y-118578381D01*
X149169476Y-119530762D02*
X149312333Y-119578381D01*
X149550429Y-119578381D01*
X149645667Y-119530762D01*
X149693286Y-119483143D01*
X149740905Y-119387905D01*
X149740905Y-119292667D01*
X149693286Y-119197429D01*
X149645667Y-119149810D01*
X149550429Y-119102190D01*
X149359952Y-119054571D01*
X149264714Y-119006952D01*
X149217095Y-118959333D01*
X149169476Y-118864095D01*
X149169476Y-118768857D01*
X149217095Y-118673619D01*
X149264714Y-118626000D01*
X149359952Y-118578381D01*
X149598048Y-118578381D01*
X149740905Y-118626000D01*
X150645667Y-119578381D02*
X150169476Y-119578381D01*
X150169476Y-118578381D01*
X148288524Y-125118762D02*
X148431381Y-125166381D01*
X148669477Y-125166381D01*
X148764715Y-125118762D01*
X148812334Y-125071143D01*
X148859953Y-124975905D01*
X148859953Y-124880667D01*
X148812334Y-124785429D01*
X148764715Y-124737810D01*
X148669477Y-124690190D01*
X148479000Y-124642571D01*
X148383762Y-124594952D01*
X148336143Y-124547333D01*
X148288524Y-124452095D01*
X148288524Y-124356857D01*
X148336143Y-124261619D01*
X148383762Y-124214000D01*
X148479000Y-124166381D01*
X148717096Y-124166381D01*
X148859953Y-124214000D01*
X149288524Y-125166381D02*
X149288524Y-124166381D01*
X149288524Y-124642571D02*
X149859953Y-124642571D01*
X149859953Y-125166381D02*
X149859953Y-124166381D01*
X150193286Y-124166381D02*
X150764715Y-124166381D01*
X150479000Y-125166381D02*
X150479000Y-124166381D01*
D12*
X143196000Y-112014000D02*
X143196000Y-124774000D01*
X143196000Y-124774000D02*
X145856000Y-124774000D01*
X145856000Y-124774000D02*
X145856000Y-112014000D01*
X145856000Y-112014000D02*
X143196000Y-112014000D01*
X143196000Y-110744000D02*
X143196000Y-109414000D01*
X143196000Y-109414000D02*
X144526000Y-109414000D01*
X144876000Y-108042000D02*
X144176000Y-108042000D01*
X144176000Y-106842000D02*
X144876000Y-106842000D01*
X144876000Y-106264000D02*
X144176000Y-106264000D01*
X144176000Y-105064000D02*
X144876000Y-105064000D01*
X153127000Y-116871000D02*
X153127000Y-117571000D01*
X151927000Y-117571000D02*
X151927000Y-116871000D01*
X150018000Y-105064000D02*
X150718000Y-105064000D01*
X150718000Y-106264000D02*
X150018000Y-106264000D01*
X152054000Y-122905000D02*
X152054000Y-122205000D01*
X153254000Y-122205000D02*
X153254000Y-122905000D01*
X147854100Y-106979400D02*
X152299100Y-106979400D01*
X147854100Y-112440400D02*
X152299100Y-112440400D01*
D11*
X148496355Y-121493000D02*
G75*
G03X148496355Y-121493000I-35355J0D01*
G01*
X148261000Y-121293000D02*
X150761000Y-121293000D01*
X150761000Y-121293000D02*
X150761000Y-123793000D01*
X150761000Y-123793000D02*
X148261000Y-123793000D01*
X148261000Y-123793000D02*
X148261000Y-121293000D01*
X148720000Y-117899600D02*
X150170000Y-117899600D01*
X148352800Y-115707400D02*
X150527800Y-115707400D01*
M02*
