G04 #@! TF.FileFunction,Legend,Bot*
%FSLAX46Y46*%
G04 Gerber Fmt 4.6, Leading zero omitted, Abs format (unit mm)*
G04 Created by KiCad (PCBNEW 4.0.7-e2-6376~58~ubuntu16.04.1) date Thu Feb 15 14:57:13 2018*
%MOMM*%
%LPD*%
G01*
G04 APERTURE LIST*
%ADD10C,0.100000*%
%ADD11C,0.010000*%
G04 APERTURE END LIST*
D10*
D11*
G36*
X147590033Y-108600309D02*
X147590629Y-108656187D01*
X147591847Y-108704299D01*
X147593871Y-108747112D01*
X147596883Y-108787090D01*
X147601067Y-108826701D01*
X147606607Y-108868409D01*
X147613685Y-108914680D01*
X147621860Y-108964271D01*
X147656912Y-109134626D01*
X147703926Y-109301536D01*
X147762488Y-109464412D01*
X147832186Y-109622666D01*
X147912607Y-109775708D01*
X148003337Y-109922949D01*
X148103963Y-110063800D01*
X148214073Y-110197671D01*
X148333253Y-110323973D01*
X148461090Y-110442117D01*
X148597171Y-110551513D01*
X148741084Y-110651573D01*
X148852097Y-110719099D01*
X149010365Y-110802704D01*
X149172149Y-110874127D01*
X149337499Y-110933382D01*
X149506469Y-110980481D01*
X149679110Y-111015436D01*
X149855475Y-111038260D01*
X150035617Y-111048967D01*
X150210488Y-111047918D01*
X150385368Y-111035157D01*
X150558419Y-111010005D01*
X150729002Y-110972715D01*
X150896478Y-110923541D01*
X151060207Y-110862734D01*
X151219551Y-110790549D01*
X151373871Y-110707238D01*
X151522526Y-110613055D01*
X151664878Y-110508253D01*
X151748880Y-110438754D01*
X151790310Y-110401435D01*
X151836940Y-110356884D01*
X151886318Y-110307641D01*
X151935990Y-110256249D01*
X151983504Y-110205247D01*
X152026407Y-110157177D01*
X152062245Y-110114581D01*
X152064529Y-110111742D01*
X152171386Y-109968523D01*
X152267532Y-109819078D01*
X152352589Y-109664097D01*
X152426175Y-109504265D01*
X152483478Y-109353350D01*
X152535765Y-109181264D01*
X152575652Y-109007085D01*
X152603076Y-108831298D01*
X152617971Y-108654389D01*
X152620271Y-108476845D01*
X152615296Y-108365925D01*
X152597112Y-108188887D01*
X152566661Y-108014496D01*
X152524208Y-107843332D01*
X152470017Y-107675978D01*
X152404353Y-107513016D01*
X152327480Y-107355027D01*
X152239662Y-107202594D01*
X152141165Y-107056298D01*
X152032252Y-106916722D01*
X151913187Y-106784447D01*
X151882389Y-106753110D01*
X151752468Y-106632016D01*
X151615465Y-106521214D01*
X151471979Y-106420881D01*
X151322609Y-106331195D01*
X151167953Y-106252334D01*
X151008611Y-106184475D01*
X150886453Y-106142109D01*
X150886453Y-106389840D01*
X150895242Y-106391094D01*
X150913715Y-106396921D01*
X150940015Y-106406588D01*
X150972290Y-106419361D01*
X151008684Y-106434506D01*
X151047343Y-106451289D01*
X151086315Y-106468932D01*
X151122077Y-106486526D01*
X151165339Y-106509449D01*
X151213055Y-106535950D01*
X151262181Y-106564281D01*
X151309671Y-106592691D01*
X151352479Y-106619433D01*
X151380675Y-106638017D01*
X151499751Y-106725234D01*
X151615152Y-106821851D01*
X151725006Y-106926001D01*
X151827435Y-107035815D01*
X151920566Y-107149425D01*
X151987889Y-107242938D01*
X152023018Y-107303649D01*
X152054303Y-107375681D01*
X152081497Y-107458174D01*
X152104352Y-107550268D01*
X152122618Y-107651104D01*
X152135388Y-107753150D01*
X152137536Y-107786395D01*
X152138476Y-107828204D01*
X152138253Y-107874502D01*
X152136915Y-107921213D01*
X152134509Y-107964263D01*
X152132697Y-107985409D01*
X152120718Y-108069043D01*
X152102402Y-108146487D01*
X152078245Y-108216304D01*
X152048745Y-108277056D01*
X152014646Y-108327003D01*
X151984001Y-108359785D01*
X151951501Y-108384278D01*
X151914062Y-108402170D01*
X151868600Y-108415151D01*
X151845441Y-108419711D01*
X151784615Y-108433511D01*
X151734262Y-108451979D01*
X151692708Y-108476074D01*
X151658280Y-108506751D01*
X151630868Y-108542529D01*
X151611575Y-108576136D01*
X151595031Y-108613528D01*
X151581080Y-108655739D01*
X151569567Y-108703800D01*
X151560336Y-108758742D01*
X151553230Y-108821597D01*
X151548095Y-108893397D01*
X151544775Y-108975174D01*
X151543112Y-109067959D01*
X151542848Y-109125406D01*
X151541111Y-109274490D01*
X151536091Y-109411485D01*
X151527789Y-109536352D01*
X151516210Y-109649053D01*
X151501356Y-109749550D01*
X151488066Y-109816900D01*
X151454662Y-109942396D01*
X151411761Y-110062009D01*
X151359835Y-110174882D01*
X151299357Y-110280158D01*
X151230799Y-110376981D01*
X151154635Y-110464495D01*
X151103362Y-110514098D01*
X151077631Y-110537344D01*
X151111022Y-110470809D01*
X151127414Y-110436885D01*
X151144335Y-110399773D01*
X151159300Y-110365014D01*
X151166321Y-110347556D01*
X151182245Y-110301839D01*
X151198492Y-110247205D01*
X151214145Y-110187375D01*
X151228283Y-110126069D01*
X151239989Y-110067010D01*
X151247946Y-110016925D01*
X151252581Y-109972260D01*
X151256041Y-109918180D01*
X151258298Y-109857916D01*
X151259324Y-109794700D01*
X151259094Y-109731765D01*
X151257578Y-109672342D01*
X151254750Y-109619664D01*
X151251592Y-109585125D01*
X151226478Y-109417057D01*
X151189837Y-109246343D01*
X151142096Y-109074622D01*
X151083682Y-108903533D01*
X151053235Y-108825220D01*
X151042513Y-108798848D01*
X151032251Y-108774043D01*
X151021793Y-108749338D01*
X151010481Y-108723265D01*
X150997660Y-108694355D01*
X150982672Y-108661140D01*
X150964862Y-108622152D01*
X150943571Y-108575922D01*
X150918144Y-108520983D01*
X150891127Y-108462762D01*
X150818344Y-108294469D01*
X150756780Y-108127404D01*
X150706460Y-107961944D01*
X150667407Y-107798466D01*
X150639647Y-107637346D01*
X150623206Y-107478962D01*
X150618107Y-107323690D01*
X150624376Y-107171908D01*
X150642037Y-107023992D01*
X150671116Y-106880319D01*
X150711638Y-106741267D01*
X150763627Y-106607212D01*
X150767831Y-106597724D01*
X150782329Y-106566827D01*
X150799206Y-106533332D01*
X150817318Y-106499240D01*
X150835526Y-106466551D01*
X150852687Y-106437265D01*
X150867659Y-106413383D01*
X150879303Y-106396905D01*
X150886453Y-106389840D01*
X150886453Y-106142109D01*
X150845181Y-106127795D01*
X150678263Y-106082473D01*
X150508455Y-106048686D01*
X150336356Y-106026611D01*
X150162564Y-106016427D01*
X150034590Y-106017804D01*
X150034590Y-106248601D01*
X150109682Y-106248635D01*
X150186688Y-106250440D01*
X150262384Y-106253921D01*
X150333542Y-106258986D01*
X150396938Y-106265540D01*
X150425150Y-106269412D01*
X150468074Y-106276386D01*
X150513403Y-106284552D01*
X150559539Y-106293540D01*
X150604883Y-106302979D01*
X150647837Y-106312499D01*
X150686804Y-106321731D01*
X150720184Y-106330305D01*
X150746379Y-106337851D01*
X150763791Y-106343999D01*
X150770822Y-106348379D01*
X150770607Y-106349358D01*
X150764645Y-106352601D01*
X150748100Y-106361227D01*
X150721709Y-106374858D01*
X150686208Y-106393119D01*
X150642332Y-106415632D01*
X150590819Y-106442021D01*
X150532404Y-106471908D01*
X150467824Y-106504917D01*
X150397815Y-106540670D01*
X150323113Y-106578792D01*
X150244454Y-106618904D01*
X150162575Y-106660631D01*
X150159852Y-106662018D01*
X150077902Y-106703805D01*
X149999176Y-106744023D01*
X149924409Y-106782295D01*
X149854334Y-106818240D01*
X149789685Y-106851480D01*
X149731197Y-106881636D01*
X149679603Y-106908329D01*
X149635637Y-106931179D01*
X149600034Y-106949807D01*
X149573527Y-106963835D01*
X149556851Y-106972883D01*
X149550739Y-106976572D01*
X149550726Y-106976599D01*
X149555922Y-106980374D01*
X149571411Y-106989580D01*
X149596263Y-107003707D01*
X149629546Y-107022243D01*
X149670331Y-107044677D01*
X149717685Y-107070498D01*
X149770679Y-107099196D01*
X149828382Y-107130258D01*
X149889863Y-107163174D01*
X149911001Y-107174451D01*
X149973571Y-107207870D01*
X150032713Y-107239586D01*
X150087492Y-107269090D01*
X150136971Y-107295871D01*
X150180215Y-107319419D01*
X150216290Y-107339226D01*
X150244260Y-107354780D01*
X150263189Y-107365572D01*
X150272143Y-107371093D01*
X150272750Y-107371671D01*
X150267231Y-107375131D01*
X150251169Y-107384028D01*
X150225304Y-107397972D01*
X150190380Y-107416574D01*
X150147136Y-107439444D01*
X150096314Y-107466192D01*
X150038656Y-107496429D01*
X149974902Y-107529765D01*
X149905795Y-107565811D01*
X149832076Y-107604177D01*
X149754486Y-107644474D01*
X149686962Y-107679478D01*
X149606606Y-107721117D01*
X149529425Y-107761147D01*
X149456168Y-107799177D01*
X149387583Y-107834818D01*
X149324419Y-107867678D01*
X149267423Y-107897368D01*
X149217344Y-107923499D01*
X149174931Y-107945679D01*
X149140931Y-107963519D01*
X149116093Y-107976629D01*
X149101165Y-107984619D01*
X149096836Y-107987083D01*
X149101673Y-107990612D01*
X149116952Y-107999678D01*
X149141900Y-108013859D01*
X149175743Y-108032731D01*
X149217708Y-108055872D01*
X149267022Y-108082859D01*
X149322913Y-108113269D01*
X149384607Y-108146679D01*
X149451331Y-108182667D01*
X149522312Y-108220809D01*
X149596776Y-108260683D01*
X149609531Y-108267500D01*
X149684594Y-108307636D01*
X149756384Y-108346089D01*
X149824119Y-108382436D01*
X149887019Y-108416254D01*
X149944303Y-108447123D01*
X149995189Y-108474620D01*
X150038898Y-108498322D01*
X150074647Y-108517808D01*
X150101657Y-108532656D01*
X150119145Y-108542443D01*
X150126332Y-108546748D01*
X150126474Y-108546900D01*
X150120991Y-108550359D01*
X150105308Y-108559048D01*
X150080519Y-108572388D01*
X150047720Y-108589801D01*
X150008004Y-108610708D01*
X149962466Y-108634531D01*
X149912200Y-108660692D01*
X149858302Y-108688613D01*
X149856667Y-108689458D01*
X149802671Y-108717448D01*
X149752281Y-108743738D01*
X149706591Y-108767744D01*
X149666696Y-108788883D01*
X149633690Y-108806572D01*
X149608668Y-108820227D01*
X149592724Y-108829266D01*
X149586954Y-108833106D01*
X149586950Y-108833133D01*
X149592421Y-108836694D01*
X149608305Y-108845792D01*
X149633804Y-108859995D01*
X149668122Y-108878870D01*
X149710461Y-108901984D01*
X149760024Y-108928904D01*
X149816016Y-108959197D01*
X149877638Y-108992431D01*
X149944094Y-109028172D01*
X150014587Y-109065988D01*
X150083837Y-109103049D01*
X150158034Y-109142721D01*
X150229416Y-109180905D01*
X150297134Y-109217144D01*
X150360339Y-109250985D01*
X150418183Y-109281973D01*
X150469817Y-109309652D01*
X150514394Y-109333569D01*
X150551065Y-109353268D01*
X150578982Y-109368294D01*
X150597296Y-109378194D01*
X150604812Y-109382313D01*
X150628900Y-109395953D01*
X150376212Y-109526623D01*
X150324032Y-109553722D01*
X150275529Y-109579134D01*
X150231828Y-109602254D01*
X150194056Y-109622475D01*
X150163338Y-109639192D01*
X150140800Y-109651798D01*
X150127569Y-109659686D01*
X150124432Y-109662167D01*
X150130049Y-109666173D01*
X150145633Y-109675428D01*
X150169931Y-109689233D01*
X150201689Y-109706893D01*
X150239653Y-109727709D01*
X150282569Y-109750984D01*
X150329087Y-109775970D01*
X150375472Y-109800920D01*
X150417949Y-109824060D01*
X150455301Y-109844706D01*
X150486311Y-109862170D01*
X150509761Y-109875768D01*
X150524433Y-109884813D01*
X150529111Y-109888620D01*
X150529100Y-109888632D01*
X150522990Y-109892081D01*
X150506478Y-109900892D01*
X150480449Y-109914604D01*
X150445788Y-109932756D01*
X150403378Y-109954888D01*
X150354105Y-109980537D01*
X150298853Y-110009244D01*
X150238506Y-110040546D01*
X150173950Y-110073984D01*
X150106068Y-110109096D01*
X150103894Y-110110221D01*
X150036030Y-110145341D01*
X149971554Y-110178790D01*
X149911339Y-110210111D01*
X149856258Y-110238845D01*
X149807187Y-110264532D01*
X149765000Y-110286714D01*
X149730571Y-110304933D01*
X149704773Y-110318730D01*
X149688482Y-110327647D01*
X149682572Y-110331224D01*
X149682564Y-110331250D01*
X149687947Y-110334865D01*
X149703464Y-110344298D01*
X149728240Y-110359038D01*
X149761398Y-110378571D01*
X149802064Y-110402387D01*
X149849361Y-110429973D01*
X149902414Y-110460818D01*
X149960346Y-110494409D01*
X150022283Y-110530234D01*
X150073001Y-110559509D01*
X150137338Y-110596712D01*
X150198235Y-110632120D01*
X150254831Y-110665221D01*
X150306262Y-110695499D01*
X150351666Y-110722441D01*
X150390181Y-110745534D01*
X150420944Y-110764264D01*
X150443094Y-110778118D01*
X150455767Y-110786582D01*
X150458510Y-110789120D01*
X150448020Y-110793344D01*
X150426499Y-110797570D01*
X150395618Y-110801670D01*
X150357044Y-110805517D01*
X150312448Y-110808982D01*
X150263498Y-110811939D01*
X150211864Y-110814258D01*
X150159214Y-110815812D01*
X150107218Y-110816473D01*
X150101300Y-110816486D01*
X149992085Y-110814830D01*
X149891480Y-110809352D01*
X149795864Y-110799651D01*
X149701615Y-110785320D01*
X149605113Y-110765958D01*
X149564725Y-110756631D01*
X149403256Y-110711993D01*
X149247821Y-110656511D01*
X149097448Y-110589759D01*
X148951165Y-110511311D01*
X148824950Y-110432197D01*
X148758968Y-110386694D01*
X148699270Y-110342508D01*
X148642933Y-110297216D01*
X148587036Y-110248393D01*
X148528656Y-110193614D01*
X148481777Y-110147456D01*
X148400865Y-110063426D01*
X148329047Y-109981966D01*
X148263989Y-109900112D01*
X148203352Y-109814902D01*
X148144801Y-109723371D01*
X148136158Y-109709088D01*
X148054821Y-109561673D01*
X147985190Y-109410035D01*
X147927245Y-109254834D01*
X147880970Y-109096730D01*
X147846346Y-108936385D01*
X147823355Y-108774457D01*
X147811980Y-108611609D01*
X147812202Y-108448501D01*
X147824003Y-108285794D01*
X147847366Y-108124147D01*
X147882272Y-107964222D01*
X147928704Y-107806679D01*
X147986643Y-107652178D01*
X148056071Y-107501381D01*
X148136971Y-107354948D01*
X148203050Y-107251500D01*
X148303211Y-107114766D01*
X148412364Y-106986703D01*
X148529935Y-106867648D01*
X148655350Y-106757937D01*
X148788036Y-106657908D01*
X148927417Y-106567896D01*
X149072920Y-106488240D01*
X149223971Y-106419274D01*
X149379996Y-106361337D01*
X149540421Y-106314765D01*
X149704671Y-106279895D01*
X149872173Y-106257062D01*
X149903055Y-106254220D01*
X149964639Y-106250431D01*
X150034590Y-106248601D01*
X150034590Y-106017804D01*
X149987680Y-106018310D01*
X149812301Y-106032439D01*
X149637027Y-106058991D01*
X149580167Y-106070329D01*
X149409090Y-106112825D01*
X149242898Y-106166740D01*
X149082031Y-106231619D01*
X148926926Y-106307007D01*
X148778021Y-106392449D01*
X148635756Y-106487491D01*
X148500567Y-106591678D01*
X148372894Y-106704555D01*
X148253173Y-106825667D01*
X148141845Y-106954560D01*
X148039346Y-107090778D01*
X147946115Y-107233868D01*
X147862590Y-107383374D01*
X147789210Y-107538842D01*
X147726412Y-107699817D01*
X147674635Y-107865843D01*
X147634317Y-108036467D01*
X147622095Y-108102400D01*
X147613360Y-108154632D01*
X147606339Y-108200389D01*
X147600849Y-108242110D01*
X147596708Y-108282232D01*
X147593735Y-108323191D01*
X147591747Y-108367427D01*
X147590563Y-108417375D01*
X147590000Y-108475473D01*
X147589875Y-108534200D01*
X147590033Y-108600309D01*
X147590033Y-108600309D01*
G37*
X147590033Y-108600309D02*
X147590629Y-108656187D01*
X147591847Y-108704299D01*
X147593871Y-108747112D01*
X147596883Y-108787090D01*
X147601067Y-108826701D01*
X147606607Y-108868409D01*
X147613685Y-108914680D01*
X147621860Y-108964271D01*
X147656912Y-109134626D01*
X147703926Y-109301536D01*
X147762488Y-109464412D01*
X147832186Y-109622666D01*
X147912607Y-109775708D01*
X148003337Y-109922949D01*
X148103963Y-110063800D01*
X148214073Y-110197671D01*
X148333253Y-110323973D01*
X148461090Y-110442117D01*
X148597171Y-110551513D01*
X148741084Y-110651573D01*
X148852097Y-110719099D01*
X149010365Y-110802704D01*
X149172149Y-110874127D01*
X149337499Y-110933382D01*
X149506469Y-110980481D01*
X149679110Y-111015436D01*
X149855475Y-111038260D01*
X150035617Y-111048967D01*
X150210488Y-111047918D01*
X150385368Y-111035157D01*
X150558419Y-111010005D01*
X150729002Y-110972715D01*
X150896478Y-110923541D01*
X151060207Y-110862734D01*
X151219551Y-110790549D01*
X151373871Y-110707238D01*
X151522526Y-110613055D01*
X151664878Y-110508253D01*
X151748880Y-110438754D01*
X151790310Y-110401435D01*
X151836940Y-110356884D01*
X151886318Y-110307641D01*
X151935990Y-110256249D01*
X151983504Y-110205247D01*
X152026407Y-110157177D01*
X152062245Y-110114581D01*
X152064529Y-110111742D01*
X152171386Y-109968523D01*
X152267532Y-109819078D01*
X152352589Y-109664097D01*
X152426175Y-109504265D01*
X152483478Y-109353350D01*
X152535765Y-109181264D01*
X152575652Y-109007085D01*
X152603076Y-108831298D01*
X152617971Y-108654389D01*
X152620271Y-108476845D01*
X152615296Y-108365925D01*
X152597112Y-108188887D01*
X152566661Y-108014496D01*
X152524208Y-107843332D01*
X152470017Y-107675978D01*
X152404353Y-107513016D01*
X152327480Y-107355027D01*
X152239662Y-107202594D01*
X152141165Y-107056298D01*
X152032252Y-106916722D01*
X151913187Y-106784447D01*
X151882389Y-106753110D01*
X151752468Y-106632016D01*
X151615465Y-106521214D01*
X151471979Y-106420881D01*
X151322609Y-106331195D01*
X151167953Y-106252334D01*
X151008611Y-106184475D01*
X150886453Y-106142109D01*
X150886453Y-106389840D01*
X150895242Y-106391094D01*
X150913715Y-106396921D01*
X150940015Y-106406588D01*
X150972290Y-106419361D01*
X151008684Y-106434506D01*
X151047343Y-106451289D01*
X151086315Y-106468932D01*
X151122077Y-106486526D01*
X151165339Y-106509449D01*
X151213055Y-106535950D01*
X151262181Y-106564281D01*
X151309671Y-106592691D01*
X151352479Y-106619433D01*
X151380675Y-106638017D01*
X151499751Y-106725234D01*
X151615152Y-106821851D01*
X151725006Y-106926001D01*
X151827435Y-107035815D01*
X151920566Y-107149425D01*
X151987889Y-107242938D01*
X152023018Y-107303649D01*
X152054303Y-107375681D01*
X152081497Y-107458174D01*
X152104352Y-107550268D01*
X152122618Y-107651104D01*
X152135388Y-107753150D01*
X152137536Y-107786395D01*
X152138476Y-107828204D01*
X152138253Y-107874502D01*
X152136915Y-107921213D01*
X152134509Y-107964263D01*
X152132697Y-107985409D01*
X152120718Y-108069043D01*
X152102402Y-108146487D01*
X152078245Y-108216304D01*
X152048745Y-108277056D01*
X152014646Y-108327003D01*
X151984001Y-108359785D01*
X151951501Y-108384278D01*
X151914062Y-108402170D01*
X151868600Y-108415151D01*
X151845441Y-108419711D01*
X151784615Y-108433511D01*
X151734262Y-108451979D01*
X151692708Y-108476074D01*
X151658280Y-108506751D01*
X151630868Y-108542529D01*
X151611575Y-108576136D01*
X151595031Y-108613528D01*
X151581080Y-108655739D01*
X151569567Y-108703800D01*
X151560336Y-108758742D01*
X151553230Y-108821597D01*
X151548095Y-108893397D01*
X151544775Y-108975174D01*
X151543112Y-109067959D01*
X151542848Y-109125406D01*
X151541111Y-109274490D01*
X151536091Y-109411485D01*
X151527789Y-109536352D01*
X151516210Y-109649053D01*
X151501356Y-109749550D01*
X151488066Y-109816900D01*
X151454662Y-109942396D01*
X151411761Y-110062009D01*
X151359835Y-110174882D01*
X151299357Y-110280158D01*
X151230799Y-110376981D01*
X151154635Y-110464495D01*
X151103362Y-110514098D01*
X151077631Y-110537344D01*
X151111022Y-110470809D01*
X151127414Y-110436885D01*
X151144335Y-110399773D01*
X151159300Y-110365014D01*
X151166321Y-110347556D01*
X151182245Y-110301839D01*
X151198492Y-110247205D01*
X151214145Y-110187375D01*
X151228283Y-110126069D01*
X151239989Y-110067010D01*
X151247946Y-110016925D01*
X151252581Y-109972260D01*
X151256041Y-109918180D01*
X151258298Y-109857916D01*
X151259324Y-109794700D01*
X151259094Y-109731765D01*
X151257578Y-109672342D01*
X151254750Y-109619664D01*
X151251592Y-109585125D01*
X151226478Y-109417057D01*
X151189837Y-109246343D01*
X151142096Y-109074622D01*
X151083682Y-108903533D01*
X151053235Y-108825220D01*
X151042513Y-108798848D01*
X151032251Y-108774043D01*
X151021793Y-108749338D01*
X151010481Y-108723265D01*
X150997660Y-108694355D01*
X150982672Y-108661140D01*
X150964862Y-108622152D01*
X150943571Y-108575922D01*
X150918144Y-108520983D01*
X150891127Y-108462762D01*
X150818344Y-108294469D01*
X150756780Y-108127404D01*
X150706460Y-107961944D01*
X150667407Y-107798466D01*
X150639647Y-107637346D01*
X150623206Y-107478962D01*
X150618107Y-107323690D01*
X150624376Y-107171908D01*
X150642037Y-107023992D01*
X150671116Y-106880319D01*
X150711638Y-106741267D01*
X150763627Y-106607212D01*
X150767831Y-106597724D01*
X150782329Y-106566827D01*
X150799206Y-106533332D01*
X150817318Y-106499240D01*
X150835526Y-106466551D01*
X150852687Y-106437265D01*
X150867659Y-106413383D01*
X150879303Y-106396905D01*
X150886453Y-106389840D01*
X150886453Y-106142109D01*
X150845181Y-106127795D01*
X150678263Y-106082473D01*
X150508455Y-106048686D01*
X150336356Y-106026611D01*
X150162564Y-106016427D01*
X150034590Y-106017804D01*
X150034590Y-106248601D01*
X150109682Y-106248635D01*
X150186688Y-106250440D01*
X150262384Y-106253921D01*
X150333542Y-106258986D01*
X150396938Y-106265540D01*
X150425150Y-106269412D01*
X150468074Y-106276386D01*
X150513403Y-106284552D01*
X150559539Y-106293540D01*
X150604883Y-106302979D01*
X150647837Y-106312499D01*
X150686804Y-106321731D01*
X150720184Y-106330305D01*
X150746379Y-106337851D01*
X150763791Y-106343999D01*
X150770822Y-106348379D01*
X150770607Y-106349358D01*
X150764645Y-106352601D01*
X150748100Y-106361227D01*
X150721709Y-106374858D01*
X150686208Y-106393119D01*
X150642332Y-106415632D01*
X150590819Y-106442021D01*
X150532404Y-106471908D01*
X150467824Y-106504917D01*
X150397815Y-106540670D01*
X150323113Y-106578792D01*
X150244454Y-106618904D01*
X150162575Y-106660631D01*
X150159852Y-106662018D01*
X150077902Y-106703805D01*
X149999176Y-106744023D01*
X149924409Y-106782295D01*
X149854334Y-106818240D01*
X149789685Y-106851480D01*
X149731197Y-106881636D01*
X149679603Y-106908329D01*
X149635637Y-106931179D01*
X149600034Y-106949807D01*
X149573527Y-106963835D01*
X149556851Y-106972883D01*
X149550739Y-106976572D01*
X149550726Y-106976599D01*
X149555922Y-106980374D01*
X149571411Y-106989580D01*
X149596263Y-107003707D01*
X149629546Y-107022243D01*
X149670331Y-107044677D01*
X149717685Y-107070498D01*
X149770679Y-107099196D01*
X149828382Y-107130258D01*
X149889863Y-107163174D01*
X149911001Y-107174451D01*
X149973571Y-107207870D01*
X150032713Y-107239586D01*
X150087492Y-107269090D01*
X150136971Y-107295871D01*
X150180215Y-107319419D01*
X150216290Y-107339226D01*
X150244260Y-107354780D01*
X150263189Y-107365572D01*
X150272143Y-107371093D01*
X150272750Y-107371671D01*
X150267231Y-107375131D01*
X150251169Y-107384028D01*
X150225304Y-107397972D01*
X150190380Y-107416574D01*
X150147136Y-107439444D01*
X150096314Y-107466192D01*
X150038656Y-107496429D01*
X149974902Y-107529765D01*
X149905795Y-107565811D01*
X149832076Y-107604177D01*
X149754486Y-107644474D01*
X149686962Y-107679478D01*
X149606606Y-107721117D01*
X149529425Y-107761147D01*
X149456168Y-107799177D01*
X149387583Y-107834818D01*
X149324419Y-107867678D01*
X149267423Y-107897368D01*
X149217344Y-107923499D01*
X149174931Y-107945679D01*
X149140931Y-107963519D01*
X149116093Y-107976629D01*
X149101165Y-107984619D01*
X149096836Y-107987083D01*
X149101673Y-107990612D01*
X149116952Y-107999678D01*
X149141900Y-108013859D01*
X149175743Y-108032731D01*
X149217708Y-108055872D01*
X149267022Y-108082859D01*
X149322913Y-108113269D01*
X149384607Y-108146679D01*
X149451331Y-108182667D01*
X149522312Y-108220809D01*
X149596776Y-108260683D01*
X149609531Y-108267500D01*
X149684594Y-108307636D01*
X149756384Y-108346089D01*
X149824119Y-108382436D01*
X149887019Y-108416254D01*
X149944303Y-108447123D01*
X149995189Y-108474620D01*
X150038898Y-108498322D01*
X150074647Y-108517808D01*
X150101657Y-108532656D01*
X150119145Y-108542443D01*
X150126332Y-108546748D01*
X150126474Y-108546900D01*
X150120991Y-108550359D01*
X150105308Y-108559048D01*
X150080519Y-108572388D01*
X150047720Y-108589801D01*
X150008004Y-108610708D01*
X149962466Y-108634531D01*
X149912200Y-108660692D01*
X149858302Y-108688613D01*
X149856667Y-108689458D01*
X149802671Y-108717448D01*
X149752281Y-108743738D01*
X149706591Y-108767744D01*
X149666696Y-108788883D01*
X149633690Y-108806572D01*
X149608668Y-108820227D01*
X149592724Y-108829266D01*
X149586954Y-108833106D01*
X149586950Y-108833133D01*
X149592421Y-108836694D01*
X149608305Y-108845792D01*
X149633804Y-108859995D01*
X149668122Y-108878870D01*
X149710461Y-108901984D01*
X149760024Y-108928904D01*
X149816016Y-108959197D01*
X149877638Y-108992431D01*
X149944094Y-109028172D01*
X150014587Y-109065988D01*
X150083837Y-109103049D01*
X150158034Y-109142721D01*
X150229416Y-109180905D01*
X150297134Y-109217144D01*
X150360339Y-109250985D01*
X150418183Y-109281973D01*
X150469817Y-109309652D01*
X150514394Y-109333569D01*
X150551065Y-109353268D01*
X150578982Y-109368294D01*
X150597296Y-109378194D01*
X150604812Y-109382313D01*
X150628900Y-109395953D01*
X150376212Y-109526623D01*
X150324032Y-109553722D01*
X150275529Y-109579134D01*
X150231828Y-109602254D01*
X150194056Y-109622475D01*
X150163338Y-109639192D01*
X150140800Y-109651798D01*
X150127569Y-109659686D01*
X150124432Y-109662167D01*
X150130049Y-109666173D01*
X150145633Y-109675428D01*
X150169931Y-109689233D01*
X150201689Y-109706893D01*
X150239653Y-109727709D01*
X150282569Y-109750984D01*
X150329087Y-109775970D01*
X150375472Y-109800920D01*
X150417949Y-109824060D01*
X150455301Y-109844706D01*
X150486311Y-109862170D01*
X150509761Y-109875768D01*
X150524433Y-109884813D01*
X150529111Y-109888620D01*
X150529100Y-109888632D01*
X150522990Y-109892081D01*
X150506478Y-109900892D01*
X150480449Y-109914604D01*
X150445788Y-109932756D01*
X150403378Y-109954888D01*
X150354105Y-109980537D01*
X150298853Y-110009244D01*
X150238506Y-110040546D01*
X150173950Y-110073984D01*
X150106068Y-110109096D01*
X150103894Y-110110221D01*
X150036030Y-110145341D01*
X149971554Y-110178790D01*
X149911339Y-110210111D01*
X149856258Y-110238845D01*
X149807187Y-110264532D01*
X149765000Y-110286714D01*
X149730571Y-110304933D01*
X149704773Y-110318730D01*
X149688482Y-110327647D01*
X149682572Y-110331224D01*
X149682564Y-110331250D01*
X149687947Y-110334865D01*
X149703464Y-110344298D01*
X149728240Y-110359038D01*
X149761398Y-110378571D01*
X149802064Y-110402387D01*
X149849361Y-110429973D01*
X149902414Y-110460818D01*
X149960346Y-110494409D01*
X150022283Y-110530234D01*
X150073001Y-110559509D01*
X150137338Y-110596712D01*
X150198235Y-110632120D01*
X150254831Y-110665221D01*
X150306262Y-110695499D01*
X150351666Y-110722441D01*
X150390181Y-110745534D01*
X150420944Y-110764264D01*
X150443094Y-110778118D01*
X150455767Y-110786582D01*
X150458510Y-110789120D01*
X150448020Y-110793344D01*
X150426499Y-110797570D01*
X150395618Y-110801670D01*
X150357044Y-110805517D01*
X150312448Y-110808982D01*
X150263498Y-110811939D01*
X150211864Y-110814258D01*
X150159214Y-110815812D01*
X150107218Y-110816473D01*
X150101300Y-110816486D01*
X149992085Y-110814830D01*
X149891480Y-110809352D01*
X149795864Y-110799651D01*
X149701615Y-110785320D01*
X149605113Y-110765958D01*
X149564725Y-110756631D01*
X149403256Y-110711993D01*
X149247821Y-110656511D01*
X149097448Y-110589759D01*
X148951165Y-110511311D01*
X148824950Y-110432197D01*
X148758968Y-110386694D01*
X148699270Y-110342508D01*
X148642933Y-110297216D01*
X148587036Y-110248393D01*
X148528656Y-110193614D01*
X148481777Y-110147456D01*
X148400865Y-110063426D01*
X148329047Y-109981966D01*
X148263989Y-109900112D01*
X148203352Y-109814902D01*
X148144801Y-109723371D01*
X148136158Y-109709088D01*
X148054821Y-109561673D01*
X147985190Y-109410035D01*
X147927245Y-109254834D01*
X147880970Y-109096730D01*
X147846346Y-108936385D01*
X147823355Y-108774457D01*
X147811980Y-108611609D01*
X147812202Y-108448501D01*
X147824003Y-108285794D01*
X147847366Y-108124147D01*
X147882272Y-107964222D01*
X147928704Y-107806679D01*
X147986643Y-107652178D01*
X148056071Y-107501381D01*
X148136971Y-107354948D01*
X148203050Y-107251500D01*
X148303211Y-107114766D01*
X148412364Y-106986703D01*
X148529935Y-106867648D01*
X148655350Y-106757937D01*
X148788036Y-106657908D01*
X148927417Y-106567896D01*
X149072920Y-106488240D01*
X149223971Y-106419274D01*
X149379996Y-106361337D01*
X149540421Y-106314765D01*
X149704671Y-106279895D01*
X149872173Y-106257062D01*
X149903055Y-106254220D01*
X149964639Y-106250431D01*
X150034590Y-106248601D01*
X150034590Y-106017804D01*
X149987680Y-106018310D01*
X149812301Y-106032439D01*
X149637027Y-106058991D01*
X149580167Y-106070329D01*
X149409090Y-106112825D01*
X149242898Y-106166740D01*
X149082031Y-106231619D01*
X148926926Y-106307007D01*
X148778021Y-106392449D01*
X148635756Y-106487491D01*
X148500567Y-106591678D01*
X148372894Y-106704555D01*
X148253173Y-106825667D01*
X148141845Y-106954560D01*
X148039346Y-107090778D01*
X147946115Y-107233868D01*
X147862590Y-107383374D01*
X147789210Y-107538842D01*
X147726412Y-107699817D01*
X147674635Y-107865843D01*
X147634317Y-108036467D01*
X147622095Y-108102400D01*
X147613360Y-108154632D01*
X147606339Y-108200389D01*
X147600849Y-108242110D01*
X147596708Y-108282232D01*
X147593735Y-108323191D01*
X147591747Y-108367427D01*
X147590563Y-108417375D01*
X147590000Y-108475473D01*
X147589875Y-108534200D01*
X147590033Y-108600309D01*
G36*
X149536224Y-123948993D02*
X149536435Y-123994248D01*
X149536765Y-124033688D01*
X149537196Y-124065817D01*
X149537708Y-124089139D01*
X149538284Y-124102157D01*
X149538653Y-124104400D01*
X149545883Y-124102183D01*
X149564105Y-124095752D01*
X149592456Y-124085436D01*
X149630068Y-124071563D01*
X149676076Y-124054463D01*
X149729613Y-124034463D01*
X149789813Y-124011894D01*
X149855811Y-123987083D01*
X149926741Y-123960359D01*
X150001736Y-123932051D01*
X150079930Y-123902489D01*
X150160458Y-123872000D01*
X150242453Y-123840914D01*
X150325049Y-123809559D01*
X150407380Y-123778264D01*
X150488581Y-123747358D01*
X150567785Y-123717170D01*
X150644126Y-123688028D01*
X150716738Y-123660262D01*
X150784755Y-123634199D01*
X150847311Y-123610170D01*
X150903540Y-123588502D01*
X150952576Y-123569524D01*
X150993554Y-123553566D01*
X151025606Y-123540955D01*
X151047867Y-123532022D01*
X151059471Y-123527094D01*
X151060150Y-123526765D01*
X151130392Y-123486808D01*
X151188673Y-123443309D01*
X151235325Y-123395895D01*
X151270685Y-123344195D01*
X151295087Y-123287837D01*
X151303533Y-123256675D01*
X151311082Y-123210846D01*
X151315635Y-123158246D01*
X151316928Y-123104506D01*
X151314695Y-123055257D01*
X151313528Y-123044082D01*
X151301860Y-122977837D01*
X151282139Y-122911594D01*
X151274705Y-122891550D01*
X151263729Y-122864751D01*
X151251752Y-122838159D01*
X151240059Y-122814324D01*
X151229932Y-122795797D01*
X151222652Y-122785128D01*
X151220396Y-122783533D01*
X151212492Y-122786108D01*
X151195409Y-122793303D01*
X151171056Y-122804202D01*
X151141341Y-122817891D01*
X151108172Y-122833457D01*
X151073458Y-122849986D01*
X151039108Y-122866563D01*
X151007031Y-122882275D01*
X150979135Y-122896207D01*
X150957329Y-122907446D01*
X150943522Y-122915076D01*
X150939500Y-122918051D01*
X150942179Y-122926476D01*
X150949074Y-122942144D01*
X150955427Y-122955154D01*
X150976586Y-123006720D01*
X150987570Y-123056946D01*
X150988072Y-123103889D01*
X150983212Y-123129675D01*
X150973537Y-123150360D01*
X150957282Y-123172066D01*
X150937909Y-123191064D01*
X150918881Y-123203629D01*
X150912322Y-123205976D01*
X150903775Y-123204244D01*
X150883454Y-123197754D01*
X150851360Y-123186507D01*
X150807495Y-123170505D01*
X150751859Y-123149747D01*
X150684455Y-123124234D01*
X150605284Y-123093966D01*
X150514345Y-123058945D01*
X150411642Y-123019169D01*
X150297175Y-122974641D01*
X150222996Y-122945700D01*
X150134564Y-122911183D01*
X150049411Y-122877986D01*
X149968287Y-122846397D01*
X149891941Y-122816707D01*
X149821123Y-122789207D01*
X149756583Y-122764185D01*
X149699070Y-122741934D01*
X149649334Y-122722741D01*
X149608123Y-122706899D01*
X149576188Y-122694697D01*
X149554279Y-122686425D01*
X149543144Y-122682373D01*
X149541872Y-122682000D01*
X149540319Y-122688180D01*
X149539072Y-122706052D01*
X149538149Y-122734608D01*
X149537573Y-122772842D01*
X149537363Y-122819749D01*
X149537540Y-122874323D01*
X149537650Y-122889435D01*
X149539325Y-123096870D01*
X150452345Y-123401206D01*
X150129185Y-123505009D01*
X150062288Y-123526486D01*
X149994603Y-123548197D01*
X149927948Y-123569560D01*
X149864137Y-123589993D01*
X149804986Y-123608916D01*
X149752312Y-123625747D01*
X149707929Y-123639906D01*
X149673655Y-123650810D01*
X149671087Y-123651626D01*
X149536150Y-123694439D01*
X149536150Y-123899419D01*
X149536224Y-123948993D01*
X149536224Y-123948993D01*
G37*
X149536224Y-123948993D02*
X149536435Y-123994248D01*
X149536765Y-124033688D01*
X149537196Y-124065817D01*
X149537708Y-124089139D01*
X149538284Y-124102157D01*
X149538653Y-124104400D01*
X149545883Y-124102183D01*
X149564105Y-124095752D01*
X149592456Y-124085436D01*
X149630068Y-124071563D01*
X149676076Y-124054463D01*
X149729613Y-124034463D01*
X149789813Y-124011894D01*
X149855811Y-123987083D01*
X149926741Y-123960359D01*
X150001736Y-123932051D01*
X150079930Y-123902489D01*
X150160458Y-123872000D01*
X150242453Y-123840914D01*
X150325049Y-123809559D01*
X150407380Y-123778264D01*
X150488581Y-123747358D01*
X150567785Y-123717170D01*
X150644126Y-123688028D01*
X150716738Y-123660262D01*
X150784755Y-123634199D01*
X150847311Y-123610170D01*
X150903540Y-123588502D01*
X150952576Y-123569524D01*
X150993554Y-123553566D01*
X151025606Y-123540955D01*
X151047867Y-123532022D01*
X151059471Y-123527094D01*
X151060150Y-123526765D01*
X151130392Y-123486808D01*
X151188673Y-123443309D01*
X151235325Y-123395895D01*
X151270685Y-123344195D01*
X151295087Y-123287837D01*
X151303533Y-123256675D01*
X151311082Y-123210846D01*
X151315635Y-123158246D01*
X151316928Y-123104506D01*
X151314695Y-123055257D01*
X151313528Y-123044082D01*
X151301860Y-122977837D01*
X151282139Y-122911594D01*
X151274705Y-122891550D01*
X151263729Y-122864751D01*
X151251752Y-122838159D01*
X151240059Y-122814324D01*
X151229932Y-122795797D01*
X151222652Y-122785128D01*
X151220396Y-122783533D01*
X151212492Y-122786108D01*
X151195409Y-122793303D01*
X151171056Y-122804202D01*
X151141341Y-122817891D01*
X151108172Y-122833457D01*
X151073458Y-122849986D01*
X151039108Y-122866563D01*
X151007031Y-122882275D01*
X150979135Y-122896207D01*
X150957329Y-122907446D01*
X150943522Y-122915076D01*
X150939500Y-122918051D01*
X150942179Y-122926476D01*
X150949074Y-122942144D01*
X150955427Y-122955154D01*
X150976586Y-123006720D01*
X150987570Y-123056946D01*
X150988072Y-123103889D01*
X150983212Y-123129675D01*
X150973537Y-123150360D01*
X150957282Y-123172066D01*
X150937909Y-123191064D01*
X150918881Y-123203629D01*
X150912322Y-123205976D01*
X150903775Y-123204244D01*
X150883454Y-123197754D01*
X150851360Y-123186507D01*
X150807495Y-123170505D01*
X150751859Y-123149747D01*
X150684455Y-123124234D01*
X150605284Y-123093966D01*
X150514345Y-123058945D01*
X150411642Y-123019169D01*
X150297175Y-122974641D01*
X150222996Y-122945700D01*
X150134564Y-122911183D01*
X150049411Y-122877986D01*
X149968287Y-122846397D01*
X149891941Y-122816707D01*
X149821123Y-122789207D01*
X149756583Y-122764185D01*
X149699070Y-122741934D01*
X149649334Y-122722741D01*
X149608123Y-122706899D01*
X149576188Y-122694697D01*
X149554279Y-122686425D01*
X149543144Y-122682373D01*
X149541872Y-122682000D01*
X149540319Y-122688180D01*
X149539072Y-122706052D01*
X149538149Y-122734608D01*
X149537573Y-122772842D01*
X149537363Y-122819749D01*
X149537540Y-122874323D01*
X149537650Y-122889435D01*
X149539325Y-123096870D01*
X150452345Y-123401206D01*
X150129185Y-123505009D01*
X150062288Y-123526486D01*
X149994603Y-123548197D01*
X149927948Y-123569560D01*
X149864137Y-123589993D01*
X149804986Y-123608916D01*
X149752312Y-123625747D01*
X149707929Y-123639906D01*
X149673655Y-123650810D01*
X149671087Y-123651626D01*
X149536150Y-123694439D01*
X149536150Y-123899419D01*
X149536224Y-123948993D01*
G36*
X149514466Y-112246310D02*
X149527143Y-112333412D01*
X149548647Y-112413155D01*
X149579481Y-112486861D01*
X149620148Y-112555855D01*
X149671150Y-112621459D01*
X149701619Y-112654362D01*
X149740971Y-112694650D01*
X149779848Y-112657172D01*
X149797273Y-112640521D01*
X149821647Y-112617432D01*
X149850623Y-112590117D01*
X149881855Y-112560790D01*
X149909084Y-112535315D01*
X149999444Y-112450937D01*
X149960007Y-112407427D01*
X149919442Y-112358542D01*
X149889296Y-112312045D01*
X149868327Y-112265296D01*
X149855292Y-112215656D01*
X149849848Y-112173430D01*
X149850391Y-112109126D01*
X149862849Y-112049208D01*
X149887179Y-111993794D01*
X149923334Y-111943000D01*
X149948382Y-111916944D01*
X150000346Y-111875631D01*
X150057358Y-111845294D01*
X150120270Y-111825616D01*
X150189931Y-111816282D01*
X150221950Y-111815370D01*
X150293774Y-111820905D01*
X150360545Y-111837293D01*
X150421320Y-111864167D01*
X150475155Y-111901162D01*
X150498439Y-111922594D01*
X150536914Y-111968303D01*
X150564598Y-112017467D01*
X150582158Y-112071822D01*
X150590261Y-112133104D01*
X150591000Y-112163430D01*
X150585831Y-112224254D01*
X150570419Y-112282280D01*
X150544116Y-112339146D01*
X150506270Y-112396490D01*
X150490551Y-112416518D01*
X150474911Y-112435893D01*
X150461938Y-112452302D01*
X150454180Y-112462516D01*
X150453725Y-112463166D01*
X150453568Y-112467921D01*
X150458158Y-112476203D01*
X150468309Y-112488919D01*
X150484836Y-112506975D01*
X150508553Y-112531276D01*
X150540274Y-112562728D01*
X150564439Y-112586335D01*
X150681504Y-112700247D01*
X150718819Y-112663511D01*
X150767021Y-112611061D01*
X150811424Y-112553080D01*
X150850048Y-112492598D01*
X150880914Y-112432649D01*
X150898072Y-112388989D01*
X150912341Y-112335476D01*
X150923065Y-112273552D01*
X150929981Y-112207075D01*
X150932827Y-112139902D01*
X150931339Y-112075892D01*
X150925254Y-112018901D01*
X150923861Y-112010825D01*
X150901240Y-111919781D01*
X150867912Y-111833255D01*
X150824632Y-111752509D01*
X150772156Y-111678803D01*
X150711241Y-111613397D01*
X150659425Y-111569759D01*
X150582019Y-111519011D01*
X150500079Y-111479346D01*
X150414744Y-111450642D01*
X150327153Y-111432775D01*
X150238446Y-111425620D01*
X150149764Y-111429055D01*
X150062245Y-111442956D01*
X149977030Y-111467198D01*
X149895257Y-111501659D01*
X149818068Y-111546214D01*
X149746601Y-111600740D01*
X149681997Y-111665112D01*
X149671833Y-111676961D01*
X149617521Y-111750753D01*
X149574500Y-111829280D01*
X149542581Y-111913097D01*
X149521573Y-112002759D01*
X149511289Y-112098819D01*
X149510112Y-112150525D01*
X149514466Y-112246310D01*
X149514466Y-112246310D01*
G37*
X149514466Y-112246310D02*
X149527143Y-112333412D01*
X149548647Y-112413155D01*
X149579481Y-112486861D01*
X149620148Y-112555855D01*
X149671150Y-112621459D01*
X149701619Y-112654362D01*
X149740971Y-112694650D01*
X149779848Y-112657172D01*
X149797273Y-112640521D01*
X149821647Y-112617432D01*
X149850623Y-112590117D01*
X149881855Y-112560790D01*
X149909084Y-112535315D01*
X149999444Y-112450937D01*
X149960007Y-112407427D01*
X149919442Y-112358542D01*
X149889296Y-112312045D01*
X149868327Y-112265296D01*
X149855292Y-112215656D01*
X149849848Y-112173430D01*
X149850391Y-112109126D01*
X149862849Y-112049208D01*
X149887179Y-111993794D01*
X149923334Y-111943000D01*
X149948382Y-111916944D01*
X150000346Y-111875631D01*
X150057358Y-111845294D01*
X150120270Y-111825616D01*
X150189931Y-111816282D01*
X150221950Y-111815370D01*
X150293774Y-111820905D01*
X150360545Y-111837293D01*
X150421320Y-111864167D01*
X150475155Y-111901162D01*
X150498439Y-111922594D01*
X150536914Y-111968303D01*
X150564598Y-112017467D01*
X150582158Y-112071822D01*
X150590261Y-112133104D01*
X150591000Y-112163430D01*
X150585831Y-112224254D01*
X150570419Y-112282280D01*
X150544116Y-112339146D01*
X150506270Y-112396490D01*
X150490551Y-112416518D01*
X150474911Y-112435893D01*
X150461938Y-112452302D01*
X150454180Y-112462516D01*
X150453725Y-112463166D01*
X150453568Y-112467921D01*
X150458158Y-112476203D01*
X150468309Y-112488919D01*
X150484836Y-112506975D01*
X150508553Y-112531276D01*
X150540274Y-112562728D01*
X150564439Y-112586335D01*
X150681504Y-112700247D01*
X150718819Y-112663511D01*
X150767021Y-112611061D01*
X150811424Y-112553080D01*
X150850048Y-112492598D01*
X150880914Y-112432649D01*
X150898072Y-112388989D01*
X150912341Y-112335476D01*
X150923065Y-112273552D01*
X150929981Y-112207075D01*
X150932827Y-112139902D01*
X150931339Y-112075892D01*
X150925254Y-112018901D01*
X150923861Y-112010825D01*
X150901240Y-111919781D01*
X150867912Y-111833255D01*
X150824632Y-111752509D01*
X150772156Y-111678803D01*
X150711241Y-111613397D01*
X150659425Y-111569759D01*
X150582019Y-111519011D01*
X150500079Y-111479346D01*
X150414744Y-111450642D01*
X150327153Y-111432775D01*
X150238446Y-111425620D01*
X150149764Y-111429055D01*
X150062245Y-111442956D01*
X149977030Y-111467198D01*
X149895257Y-111501659D01*
X149818068Y-111546214D01*
X149746601Y-111600740D01*
X149681997Y-111665112D01*
X149671833Y-111676961D01*
X149617521Y-111750753D01*
X149574500Y-111829280D01*
X149542581Y-111913097D01*
X149521573Y-112002759D01*
X149511289Y-112098819D01*
X149510112Y-112150525D01*
X149514466Y-112246310D01*
G36*
X149511350Y-113553477D02*
X149515325Y-113603190D01*
X149520323Y-113637642D01*
X149544097Y-113733182D01*
X149578152Y-113822457D01*
X149621937Y-113904809D01*
X149674899Y-113979581D01*
X149736486Y-114046112D01*
X149806146Y-114103746D01*
X149883326Y-114151823D01*
X149967474Y-114189686D01*
X149990175Y-114197692D01*
X150075917Y-114220079D01*
X150164806Y-114231626D01*
X150254803Y-114232474D01*
X150343868Y-114222763D01*
X150429963Y-114202633D01*
X150511049Y-114172223D01*
X150535850Y-114160219D01*
X150618882Y-114110740D01*
X150693052Y-114052251D01*
X150758096Y-113985086D01*
X150813751Y-113909580D01*
X150859753Y-113826069D01*
X150895838Y-113734889D01*
X150911002Y-113682992D01*
X150917893Y-113654391D01*
X150922840Y-113628114D01*
X150926235Y-113600697D01*
X150928471Y-113568679D01*
X150929941Y-113528597D01*
X150930334Y-113512600D01*
X150930799Y-113454611D01*
X150929256Y-113407400D01*
X150925628Y-113369189D01*
X150923591Y-113356114D01*
X150900846Y-113260771D01*
X150867650Y-113171643D01*
X150824652Y-113089352D01*
X150772504Y-113014518D01*
X150711858Y-112947761D01*
X150643363Y-112889704D01*
X150567671Y-112840965D01*
X150485434Y-112802166D01*
X150397300Y-112773927D01*
X150303923Y-112756870D01*
X150293972Y-112755766D01*
X150227664Y-112753346D01*
X150227664Y-113142230D01*
X150293430Y-113149117D01*
X150356423Y-113166072D01*
X150414833Y-113192877D01*
X150466845Y-113229313D01*
X150476382Y-113237794D01*
X150513668Y-113275986D01*
X150541989Y-113314183D01*
X150564353Y-113356614D01*
X150569470Y-113368633D01*
X150583097Y-113414645D01*
X150590183Y-113467218D01*
X150590677Y-113522000D01*
X150584530Y-113574636D01*
X150572370Y-113619006D01*
X150543555Y-113678592D01*
X150505869Y-113729604D01*
X150459885Y-113771393D01*
X150411275Y-113800878D01*
X150363187Y-113821572D01*
X150317400Y-113834675D01*
X150268817Y-113841337D01*
X150225125Y-113842800D01*
X150152950Y-113837701D01*
X150087841Y-113822247D01*
X150029189Y-113796201D01*
X149976386Y-113759326D01*
X149951754Y-113736519D01*
X149909045Y-113684853D01*
X149877569Y-113628134D01*
X149857493Y-113567547D01*
X149848986Y-113504274D01*
X149852217Y-113439499D01*
X149867353Y-113374405D01*
X149891842Y-113315444D01*
X149909652Y-113288298D01*
X149935657Y-113258635D01*
X149966625Y-113229483D01*
X149999327Y-113203871D01*
X150030531Y-113184828D01*
X150031860Y-113184169D01*
X150095066Y-113159537D01*
X150160939Y-113145631D01*
X150227664Y-113142230D01*
X150227664Y-112753346D01*
X150203543Y-112752465D01*
X150112820Y-112760927D01*
X150023747Y-112780669D01*
X149938270Y-112811209D01*
X149858332Y-112852064D01*
X149827961Y-112871445D01*
X149792858Y-112897962D01*
X149754227Y-112931566D01*
X149715649Y-112968821D01*
X149680708Y-113006291D01*
X149656332Y-113036025D01*
X149614484Y-113099689D01*
X149577570Y-113172007D01*
X149547136Y-113249392D01*
X149524728Y-113328257D01*
X149519438Y-113353576D01*
X149513792Y-113395330D01*
X149510571Y-113445358D01*
X149509761Y-113499470D01*
X149511350Y-113553477D01*
X149511350Y-113553477D01*
G37*
X149511350Y-113553477D02*
X149515325Y-113603190D01*
X149520323Y-113637642D01*
X149544097Y-113733182D01*
X149578152Y-113822457D01*
X149621937Y-113904809D01*
X149674899Y-113979581D01*
X149736486Y-114046112D01*
X149806146Y-114103746D01*
X149883326Y-114151823D01*
X149967474Y-114189686D01*
X149990175Y-114197692D01*
X150075917Y-114220079D01*
X150164806Y-114231626D01*
X150254803Y-114232474D01*
X150343868Y-114222763D01*
X150429963Y-114202633D01*
X150511049Y-114172223D01*
X150535850Y-114160219D01*
X150618882Y-114110740D01*
X150693052Y-114052251D01*
X150758096Y-113985086D01*
X150813751Y-113909580D01*
X150859753Y-113826069D01*
X150895838Y-113734889D01*
X150911002Y-113682992D01*
X150917893Y-113654391D01*
X150922840Y-113628114D01*
X150926235Y-113600697D01*
X150928471Y-113568679D01*
X150929941Y-113528597D01*
X150930334Y-113512600D01*
X150930799Y-113454611D01*
X150929256Y-113407400D01*
X150925628Y-113369189D01*
X150923591Y-113356114D01*
X150900846Y-113260771D01*
X150867650Y-113171643D01*
X150824652Y-113089352D01*
X150772504Y-113014518D01*
X150711858Y-112947761D01*
X150643363Y-112889704D01*
X150567671Y-112840965D01*
X150485434Y-112802166D01*
X150397300Y-112773927D01*
X150303923Y-112756870D01*
X150293972Y-112755766D01*
X150227664Y-112753346D01*
X150227664Y-113142230D01*
X150293430Y-113149117D01*
X150356423Y-113166072D01*
X150414833Y-113192877D01*
X150466845Y-113229313D01*
X150476382Y-113237794D01*
X150513668Y-113275986D01*
X150541989Y-113314183D01*
X150564353Y-113356614D01*
X150569470Y-113368633D01*
X150583097Y-113414645D01*
X150590183Y-113467218D01*
X150590677Y-113522000D01*
X150584530Y-113574636D01*
X150572370Y-113619006D01*
X150543555Y-113678592D01*
X150505869Y-113729604D01*
X150459885Y-113771393D01*
X150411275Y-113800878D01*
X150363187Y-113821572D01*
X150317400Y-113834675D01*
X150268817Y-113841337D01*
X150225125Y-113842800D01*
X150152950Y-113837701D01*
X150087841Y-113822247D01*
X150029189Y-113796201D01*
X149976386Y-113759326D01*
X149951754Y-113736519D01*
X149909045Y-113684853D01*
X149877569Y-113628134D01*
X149857493Y-113567547D01*
X149848986Y-113504274D01*
X149852217Y-113439499D01*
X149867353Y-113374405D01*
X149891842Y-113315444D01*
X149909652Y-113288298D01*
X149935657Y-113258635D01*
X149966625Y-113229483D01*
X149999327Y-113203871D01*
X150030531Y-113184828D01*
X150031860Y-113184169D01*
X150095066Y-113159537D01*
X150160939Y-113145631D01*
X150227664Y-113142230D01*
X150227664Y-112753346D01*
X150203543Y-112752465D01*
X150112820Y-112760927D01*
X150023747Y-112780669D01*
X149938270Y-112811209D01*
X149858332Y-112852064D01*
X149827961Y-112871445D01*
X149792858Y-112897962D01*
X149754227Y-112931566D01*
X149715649Y-112968821D01*
X149680708Y-113006291D01*
X149656332Y-113036025D01*
X149614484Y-113099689D01*
X149577570Y-113172007D01*
X149547136Y-113249392D01*
X149524728Y-113328257D01*
X149519438Y-113353576D01*
X149513792Y-113395330D01*
X149510571Y-113445358D01*
X149509761Y-113499470D01*
X149511350Y-113553477D01*
G36*
X149512752Y-117798101D02*
X149516479Y-117849496D01*
X149522216Y-117895214D01*
X149529142Y-117929025D01*
X149557526Y-118012320D01*
X149596425Y-118088787D01*
X149645428Y-118158062D01*
X149704122Y-118219786D01*
X149772092Y-118273596D01*
X149848926Y-118319131D01*
X149934211Y-118356031D01*
X150027534Y-118383932D01*
X150056624Y-118390409D01*
X150080938Y-118394378D01*
X150112749Y-118398057D01*
X150149637Y-118401327D01*
X150189179Y-118404066D01*
X150228953Y-118406154D01*
X150266538Y-118407469D01*
X150299511Y-118407892D01*
X150325451Y-118407300D01*
X150341935Y-118405574D01*
X150344765Y-118404783D01*
X150346751Y-118403267D01*
X150348473Y-118399786D01*
X150349948Y-118393491D01*
X150351196Y-118383537D01*
X150352235Y-118369075D01*
X150353085Y-118349259D01*
X150353764Y-118323242D01*
X150354290Y-118290175D01*
X150354683Y-118249214D01*
X150354961Y-118199509D01*
X150355142Y-118140214D01*
X150355247Y-118070482D01*
X150355292Y-117989466D01*
X150355300Y-117928345D01*
X150355320Y-117852145D01*
X150355380Y-117779754D01*
X150355477Y-117712157D01*
X150355606Y-117650342D01*
X150355764Y-117595292D01*
X150355948Y-117547993D01*
X150356156Y-117509431D01*
X150356383Y-117480592D01*
X150356626Y-117462460D01*
X150356881Y-117456021D01*
X150356887Y-117456018D01*
X150369777Y-117458876D01*
X150390326Y-117465798D01*
X150414760Y-117475322D01*
X150439302Y-117485984D01*
X150458442Y-117495384D01*
X150507969Y-117528642D01*
X150548457Y-117570502D01*
X150579607Y-117620354D01*
X150601123Y-117677586D01*
X150612707Y-117741589D01*
X150614061Y-117811753D01*
X150613912Y-117814456D01*
X150604485Y-117883771D01*
X150584127Y-117949492D01*
X150552269Y-118013001D01*
X150508343Y-118075682D01*
X150504401Y-118080565D01*
X150475243Y-118116360D01*
X150572434Y-118227028D01*
X150600343Y-118258506D01*
X150625706Y-118286541D01*
X150647264Y-118309786D01*
X150663755Y-118326896D01*
X150673921Y-118336523D01*
X150676413Y-118338148D01*
X150684228Y-118333853D01*
X150698384Y-118321695D01*
X150717097Y-118303572D01*
X150738583Y-118281380D01*
X150761057Y-118257018D01*
X150782735Y-118232382D01*
X150801833Y-118209371D01*
X150816567Y-118189881D01*
X150818577Y-118186954D01*
X150862463Y-118110564D01*
X150896351Y-118026973D01*
X150919811Y-117937332D01*
X150926578Y-117897275D01*
X150930181Y-117859849D01*
X150931965Y-117814204D01*
X150931987Y-117764680D01*
X150930304Y-117715619D01*
X150926972Y-117671362D01*
X150923250Y-117642875D01*
X150901812Y-117549825D01*
X150869836Y-117463710D01*
X150827064Y-117384009D01*
X150773238Y-117310201D01*
X150740764Y-117273946D01*
X150672645Y-117211746D01*
X150597488Y-117160068D01*
X150515601Y-117119075D01*
X150427291Y-117088928D01*
X150361650Y-117074335D01*
X150323735Y-117069610D01*
X150277380Y-117066860D01*
X150226528Y-117066049D01*
X150175123Y-117067143D01*
X150127106Y-117070106D01*
X150107650Y-117072400D01*
X150107650Y-117450788D01*
X150107650Y-117735944D01*
X150107625Y-117803641D01*
X150107523Y-117859724D01*
X150107300Y-117905280D01*
X150106916Y-117941392D01*
X150106327Y-117969149D01*
X150105491Y-117989635D01*
X150104366Y-118003936D01*
X150102909Y-118013138D01*
X150101078Y-118018328D01*
X150098832Y-118020591D01*
X150096537Y-118021024D01*
X150078014Y-118018494D01*
X150052126Y-118011926D01*
X150023051Y-118002579D01*
X149994967Y-117991711D01*
X149985975Y-117987702D01*
X149933805Y-117957795D01*
X149892290Y-117921390D01*
X149860796Y-117877809D01*
X149840411Y-117831639D01*
X149833807Y-117809384D01*
X149830026Y-117788184D01*
X149828603Y-117763669D01*
X149829076Y-117731467D01*
X149829252Y-117726497D01*
X149830844Y-117694913D01*
X149833466Y-117671804D01*
X149838025Y-117652942D01*
X149845428Y-117634104D01*
X149852073Y-117620114D01*
X149881868Y-117573737D01*
X149922299Y-117533165D01*
X149972385Y-117499075D01*
X150031142Y-117472143D01*
X150093362Y-117453966D01*
X150107650Y-117450788D01*
X150107650Y-117072400D01*
X150086422Y-117074904D01*
X150075302Y-117076879D01*
X149981247Y-117101339D01*
X149893863Y-117135837D01*
X149813752Y-117179796D01*
X149741516Y-117232640D01*
X149677758Y-117293795D01*
X149623080Y-117362684D01*
X149578083Y-117438733D01*
X149543369Y-117521366D01*
X149519993Y-117607750D01*
X149514656Y-117645856D01*
X149511738Y-117692682D01*
X149511137Y-117744630D01*
X149512752Y-117798101D01*
X149512752Y-117798101D01*
G37*
X149512752Y-117798101D02*
X149516479Y-117849496D01*
X149522216Y-117895214D01*
X149529142Y-117929025D01*
X149557526Y-118012320D01*
X149596425Y-118088787D01*
X149645428Y-118158062D01*
X149704122Y-118219786D01*
X149772092Y-118273596D01*
X149848926Y-118319131D01*
X149934211Y-118356031D01*
X150027534Y-118383932D01*
X150056624Y-118390409D01*
X150080938Y-118394378D01*
X150112749Y-118398057D01*
X150149637Y-118401327D01*
X150189179Y-118404066D01*
X150228953Y-118406154D01*
X150266538Y-118407469D01*
X150299511Y-118407892D01*
X150325451Y-118407300D01*
X150341935Y-118405574D01*
X150344765Y-118404783D01*
X150346751Y-118403267D01*
X150348473Y-118399786D01*
X150349948Y-118393491D01*
X150351196Y-118383537D01*
X150352235Y-118369075D01*
X150353085Y-118349259D01*
X150353764Y-118323242D01*
X150354290Y-118290175D01*
X150354683Y-118249214D01*
X150354961Y-118199509D01*
X150355142Y-118140214D01*
X150355247Y-118070482D01*
X150355292Y-117989466D01*
X150355300Y-117928345D01*
X150355320Y-117852145D01*
X150355380Y-117779754D01*
X150355477Y-117712157D01*
X150355606Y-117650342D01*
X150355764Y-117595292D01*
X150355948Y-117547993D01*
X150356156Y-117509431D01*
X150356383Y-117480592D01*
X150356626Y-117462460D01*
X150356881Y-117456021D01*
X150356887Y-117456018D01*
X150369777Y-117458876D01*
X150390326Y-117465798D01*
X150414760Y-117475322D01*
X150439302Y-117485984D01*
X150458442Y-117495384D01*
X150507969Y-117528642D01*
X150548457Y-117570502D01*
X150579607Y-117620354D01*
X150601123Y-117677586D01*
X150612707Y-117741589D01*
X150614061Y-117811753D01*
X150613912Y-117814456D01*
X150604485Y-117883771D01*
X150584127Y-117949492D01*
X150552269Y-118013001D01*
X150508343Y-118075682D01*
X150504401Y-118080565D01*
X150475243Y-118116360D01*
X150572434Y-118227028D01*
X150600343Y-118258506D01*
X150625706Y-118286541D01*
X150647264Y-118309786D01*
X150663755Y-118326896D01*
X150673921Y-118336523D01*
X150676413Y-118338148D01*
X150684228Y-118333853D01*
X150698384Y-118321695D01*
X150717097Y-118303572D01*
X150738583Y-118281380D01*
X150761057Y-118257018D01*
X150782735Y-118232382D01*
X150801833Y-118209371D01*
X150816567Y-118189881D01*
X150818577Y-118186954D01*
X150862463Y-118110564D01*
X150896351Y-118026973D01*
X150919811Y-117937332D01*
X150926578Y-117897275D01*
X150930181Y-117859849D01*
X150931965Y-117814204D01*
X150931987Y-117764680D01*
X150930304Y-117715619D01*
X150926972Y-117671362D01*
X150923250Y-117642875D01*
X150901812Y-117549825D01*
X150869836Y-117463710D01*
X150827064Y-117384009D01*
X150773238Y-117310201D01*
X150740764Y-117273946D01*
X150672645Y-117211746D01*
X150597488Y-117160068D01*
X150515601Y-117119075D01*
X150427291Y-117088928D01*
X150361650Y-117074335D01*
X150323735Y-117069610D01*
X150277380Y-117066860D01*
X150226528Y-117066049D01*
X150175123Y-117067143D01*
X150127106Y-117070106D01*
X150107650Y-117072400D01*
X150107650Y-117450788D01*
X150107650Y-117735944D01*
X150107625Y-117803641D01*
X150107523Y-117859724D01*
X150107300Y-117905280D01*
X150106916Y-117941392D01*
X150106327Y-117969149D01*
X150105491Y-117989635D01*
X150104366Y-118003936D01*
X150102909Y-118013138D01*
X150101078Y-118018328D01*
X150098832Y-118020591D01*
X150096537Y-118021024D01*
X150078014Y-118018494D01*
X150052126Y-118011926D01*
X150023051Y-118002579D01*
X149994967Y-117991711D01*
X149985975Y-117987702D01*
X149933805Y-117957795D01*
X149892290Y-117921390D01*
X149860796Y-117877809D01*
X149840411Y-117831639D01*
X149833807Y-117809384D01*
X149830026Y-117788184D01*
X149828603Y-117763669D01*
X149829076Y-117731467D01*
X149829252Y-117726497D01*
X149830844Y-117694913D01*
X149833466Y-117671804D01*
X149838025Y-117652942D01*
X149845428Y-117634104D01*
X149852073Y-117620114D01*
X149881868Y-117573737D01*
X149922299Y-117533165D01*
X149972385Y-117499075D01*
X150031142Y-117472143D01*
X150093362Y-117453966D01*
X150107650Y-117450788D01*
X150107650Y-117072400D01*
X150086422Y-117074904D01*
X150075302Y-117076879D01*
X149981247Y-117101339D01*
X149893863Y-117135837D01*
X149813752Y-117179796D01*
X149741516Y-117232640D01*
X149677758Y-117293795D01*
X149623080Y-117362684D01*
X149578083Y-117438733D01*
X149543369Y-117521366D01*
X149519993Y-117607750D01*
X149514656Y-117645856D01*
X149511738Y-117692682D01*
X149511137Y-117744630D01*
X149512752Y-117798101D01*
G36*
X149514592Y-116450467D02*
X149524203Y-116538408D01*
X149543438Y-116629259D01*
X149572482Y-116722242D01*
X149573743Y-116725700D01*
X149584434Y-116752425D01*
X149598065Y-116782921D01*
X149613401Y-116814813D01*
X149629209Y-116845723D01*
X149644257Y-116873279D01*
X149657311Y-116895104D01*
X149667137Y-116908823D01*
X149670404Y-116911869D01*
X149678271Y-116911305D01*
X149695045Y-116904965D01*
X149721188Y-116892630D01*
X149757159Y-116874081D01*
X149803420Y-116849100D01*
X149809287Y-116845878D01*
X149846197Y-116825554D01*
X149879266Y-116807294D01*
X149906912Y-116791976D01*
X149927548Y-116780480D01*
X149939591Y-116773685D01*
X149942037Y-116772228D01*
X149940367Y-116766089D01*
X149934006Y-116750555D01*
X149923838Y-116727643D01*
X149910745Y-116699368D01*
X149902884Y-116682820D01*
X149886456Y-116647451D01*
X149870590Y-116611390D01*
X149856858Y-116578330D01*
X149846827Y-116551965D01*
X149845003Y-116546614D01*
X149829367Y-116489680D01*
X149820787Y-116436749D01*
X149819031Y-116388874D01*
X149823865Y-116347108D01*
X149835056Y-116312507D01*
X149852370Y-116286122D01*
X149875575Y-116269009D01*
X149904436Y-116262221D01*
X149907994Y-116262150D01*
X149933467Y-116265812D01*
X149954026Y-116277969D01*
X149971433Y-116297759D01*
X149990600Y-116329381D01*
X150011603Y-116372997D01*
X150034521Y-116428773D01*
X150059429Y-116496871D01*
X150066081Y-116516150D01*
X150093452Y-116592810D01*
X150119469Y-116658174D01*
X150144720Y-116713493D01*
X150169793Y-116760021D01*
X150195277Y-116799011D01*
X150204841Y-116811668D01*
X150248961Y-116860484D01*
X150296064Y-116897761D01*
X150347661Y-116924218D01*
X150405262Y-116940570D01*
X150470378Y-116947538D01*
X150491571Y-116947905D01*
X150568389Y-116942432D01*
X150638466Y-116926265D01*
X150701578Y-116899608D01*
X150757498Y-116862671D01*
X150805999Y-116815660D01*
X150846857Y-116758781D01*
X150879844Y-116692243D01*
X150904734Y-116616252D01*
X150917111Y-116558180D01*
X150920786Y-116528671D01*
X150923547Y-116490505D01*
X150925308Y-116447562D01*
X150925985Y-116403726D01*
X150925492Y-116362879D01*
X150923744Y-116328902D01*
X150922427Y-116316125D01*
X150909097Y-116240771D01*
X150888775Y-116161893D01*
X150863048Y-116084883D01*
X150834391Y-116016988D01*
X150821830Y-115992428D01*
X150805938Y-115963941D01*
X150788156Y-115933824D01*
X150769926Y-115904376D01*
X150752689Y-115877896D01*
X150737887Y-115856682D01*
X150726962Y-115843033D01*
X150723117Y-115839577D01*
X150716657Y-115841983D01*
X150701424Y-115850253D01*
X150679237Y-115863238D01*
X150651912Y-115879788D01*
X150621267Y-115898754D01*
X150589117Y-115918988D01*
X150557281Y-115939341D01*
X150527574Y-115958662D01*
X150501814Y-115975804D01*
X150481817Y-115989618D01*
X150469401Y-115998954D01*
X150466311Y-116001984D01*
X150468299Y-116008974D01*
X150475973Y-116024300D01*
X150488091Y-116045654D01*
X150502385Y-116069094D01*
X150544792Y-116144084D01*
X150579391Y-116220954D01*
X150604447Y-116295852D01*
X150604494Y-116296026D01*
X150611153Y-116324034D01*
X150615447Y-116351845D01*
X150617806Y-116383529D01*
X150618660Y-116423158D01*
X150618685Y-116430425D01*
X150618529Y-116465346D01*
X150617677Y-116490390D01*
X150615759Y-116508378D01*
X150612405Y-116522128D01*
X150607245Y-116534460D01*
X150604281Y-116540211D01*
X150583025Y-116568529D01*
X150555677Y-116586115D01*
X150523252Y-116592322D01*
X150522474Y-116592326D01*
X150499692Y-116588933D01*
X150479302Y-116578049D01*
X150460574Y-116558678D01*
X150442782Y-116529824D01*
X150425199Y-116490494D01*
X150407096Y-116439692D01*
X150404101Y-116430425D01*
X150384605Y-116369516D01*
X150368452Y-116319346D01*
X150355169Y-116278539D01*
X150344284Y-116245721D01*
X150335326Y-116219518D01*
X150327821Y-116198553D01*
X150321299Y-116181452D01*
X150315286Y-116166840D01*
X150309311Y-116153342D01*
X150307892Y-116150250D01*
X150270104Y-116081122D01*
X150225452Y-116022670D01*
X150197022Y-115994214D01*
X150152195Y-115958994D01*
X150105332Y-115933494D01*
X150054060Y-115916877D01*
X149996007Y-115908305D01*
X149949153Y-115906643D01*
X149886515Y-115909714D01*
X149831956Y-115919181D01*
X149782219Y-115935712D01*
X149761638Y-115945092D01*
X149701011Y-115981735D01*
X149648509Y-116027514D01*
X149604318Y-116081651D01*
X149568626Y-116143368D01*
X149541620Y-116211886D01*
X149523487Y-116286427D01*
X149514415Y-116366214D01*
X149514592Y-116450467D01*
X149514592Y-116450467D01*
G37*
X149514592Y-116450467D02*
X149524203Y-116538408D01*
X149543438Y-116629259D01*
X149572482Y-116722242D01*
X149573743Y-116725700D01*
X149584434Y-116752425D01*
X149598065Y-116782921D01*
X149613401Y-116814813D01*
X149629209Y-116845723D01*
X149644257Y-116873279D01*
X149657311Y-116895104D01*
X149667137Y-116908823D01*
X149670404Y-116911869D01*
X149678271Y-116911305D01*
X149695045Y-116904965D01*
X149721188Y-116892630D01*
X149757159Y-116874081D01*
X149803420Y-116849100D01*
X149809287Y-116845878D01*
X149846197Y-116825554D01*
X149879266Y-116807294D01*
X149906912Y-116791976D01*
X149927548Y-116780480D01*
X149939591Y-116773685D01*
X149942037Y-116772228D01*
X149940367Y-116766089D01*
X149934006Y-116750555D01*
X149923838Y-116727643D01*
X149910745Y-116699368D01*
X149902884Y-116682820D01*
X149886456Y-116647451D01*
X149870590Y-116611390D01*
X149856858Y-116578330D01*
X149846827Y-116551965D01*
X149845003Y-116546614D01*
X149829367Y-116489680D01*
X149820787Y-116436749D01*
X149819031Y-116388874D01*
X149823865Y-116347108D01*
X149835056Y-116312507D01*
X149852370Y-116286122D01*
X149875575Y-116269009D01*
X149904436Y-116262221D01*
X149907994Y-116262150D01*
X149933467Y-116265812D01*
X149954026Y-116277969D01*
X149971433Y-116297759D01*
X149990600Y-116329381D01*
X150011603Y-116372997D01*
X150034521Y-116428773D01*
X150059429Y-116496871D01*
X150066081Y-116516150D01*
X150093452Y-116592810D01*
X150119469Y-116658174D01*
X150144720Y-116713493D01*
X150169793Y-116760021D01*
X150195277Y-116799011D01*
X150204841Y-116811668D01*
X150248961Y-116860484D01*
X150296064Y-116897761D01*
X150347661Y-116924218D01*
X150405262Y-116940570D01*
X150470378Y-116947538D01*
X150491571Y-116947905D01*
X150568389Y-116942432D01*
X150638466Y-116926265D01*
X150701578Y-116899608D01*
X150757498Y-116862671D01*
X150805999Y-116815660D01*
X150846857Y-116758781D01*
X150879844Y-116692243D01*
X150904734Y-116616252D01*
X150917111Y-116558180D01*
X150920786Y-116528671D01*
X150923547Y-116490505D01*
X150925308Y-116447562D01*
X150925985Y-116403726D01*
X150925492Y-116362879D01*
X150923744Y-116328902D01*
X150922427Y-116316125D01*
X150909097Y-116240771D01*
X150888775Y-116161893D01*
X150863048Y-116084883D01*
X150834391Y-116016988D01*
X150821830Y-115992428D01*
X150805938Y-115963941D01*
X150788156Y-115933824D01*
X150769926Y-115904376D01*
X150752689Y-115877896D01*
X150737887Y-115856682D01*
X150726962Y-115843033D01*
X150723117Y-115839577D01*
X150716657Y-115841983D01*
X150701424Y-115850253D01*
X150679237Y-115863238D01*
X150651912Y-115879788D01*
X150621267Y-115898754D01*
X150589117Y-115918988D01*
X150557281Y-115939341D01*
X150527574Y-115958662D01*
X150501814Y-115975804D01*
X150481817Y-115989618D01*
X150469401Y-115998954D01*
X150466311Y-116001984D01*
X150468299Y-116008974D01*
X150475973Y-116024300D01*
X150488091Y-116045654D01*
X150502385Y-116069094D01*
X150544792Y-116144084D01*
X150579391Y-116220954D01*
X150604447Y-116295852D01*
X150604494Y-116296026D01*
X150611153Y-116324034D01*
X150615447Y-116351845D01*
X150617806Y-116383529D01*
X150618660Y-116423158D01*
X150618685Y-116430425D01*
X150618529Y-116465346D01*
X150617677Y-116490390D01*
X150615759Y-116508378D01*
X150612405Y-116522128D01*
X150607245Y-116534460D01*
X150604281Y-116540211D01*
X150583025Y-116568529D01*
X150555677Y-116586115D01*
X150523252Y-116592322D01*
X150522474Y-116592326D01*
X150499692Y-116588933D01*
X150479302Y-116578049D01*
X150460574Y-116558678D01*
X150442782Y-116529824D01*
X150425199Y-116490494D01*
X150407096Y-116439692D01*
X150404101Y-116430425D01*
X150384605Y-116369516D01*
X150368452Y-116319346D01*
X150355169Y-116278539D01*
X150344284Y-116245721D01*
X150335326Y-116219518D01*
X150327821Y-116198553D01*
X150321299Y-116181452D01*
X150315286Y-116166840D01*
X150309311Y-116153342D01*
X150307892Y-116150250D01*
X150270104Y-116081122D01*
X150225452Y-116022670D01*
X150197022Y-115994214D01*
X150152195Y-115958994D01*
X150105332Y-115933494D01*
X150054060Y-115916877D01*
X149996007Y-115908305D01*
X149949153Y-115906643D01*
X149886515Y-115909714D01*
X149831956Y-115919181D01*
X149782219Y-115935712D01*
X149761638Y-115945092D01*
X149701011Y-115981735D01*
X149648509Y-116027514D01*
X149604318Y-116081651D01*
X149568626Y-116143368D01*
X149541620Y-116211886D01*
X149523487Y-116286427D01*
X149514415Y-116366214D01*
X149514592Y-116450467D01*
G36*
X149572662Y-120959468D02*
X149583415Y-120955309D01*
X149605184Y-120946844D01*
X149637157Y-120934390D01*
X149678522Y-120918263D01*
X149728466Y-120898782D01*
X149786178Y-120876262D01*
X149850845Y-120851021D01*
X149921654Y-120823376D01*
X149997794Y-120793644D01*
X150078452Y-120762142D01*
X150162816Y-120729187D01*
X150250073Y-120695096D01*
X150260050Y-120691197D01*
X150910925Y-120436876D01*
X150912611Y-120257526D01*
X150913058Y-120204963D01*
X150913246Y-120163697D01*
X150913102Y-120132328D01*
X150912554Y-120109455D01*
X150911529Y-120093675D01*
X150909954Y-120083589D01*
X150907757Y-120077796D01*
X150904864Y-120074893D01*
X150903086Y-120074070D01*
X150895801Y-120071261D01*
X150877447Y-120064128D01*
X150848781Y-120052967D01*
X150810564Y-120038075D01*
X150763556Y-120019747D01*
X150708515Y-119998280D01*
X150646202Y-119973971D01*
X150577376Y-119947115D01*
X150502795Y-119918009D01*
X150423221Y-119886949D01*
X150339413Y-119854231D01*
X150252129Y-119820152D01*
X150219808Y-119807532D01*
X150131586Y-119773102D01*
X150046644Y-119739991D01*
X149965735Y-119708491D01*
X149889609Y-119678891D01*
X149819019Y-119651482D01*
X149754715Y-119626557D01*
X149697448Y-119604404D01*
X149647970Y-119585316D01*
X149607033Y-119569583D01*
X149575387Y-119557495D01*
X149553784Y-119549345D01*
X149542975Y-119545421D01*
X149541859Y-119545100D01*
X149540316Y-119551277D01*
X149539074Y-119569129D01*
X149538154Y-119597630D01*
X149537578Y-119635757D01*
X149537365Y-119682486D01*
X149537536Y-119736795D01*
X149537650Y-119752535D01*
X149539325Y-119959970D01*
X149986315Y-120108965D01*
X150067451Y-120136110D01*
X150141947Y-120161234D01*
X150209164Y-120184114D01*
X150268461Y-120204524D01*
X150319200Y-120222241D01*
X150360741Y-120237040D01*
X150392445Y-120248697D01*
X150413672Y-120256988D01*
X150423784Y-120261688D01*
X150424465Y-120262626D01*
X150417133Y-120265366D01*
X150398729Y-120271814D01*
X150370220Y-120281639D01*
X150332576Y-120294514D01*
X150286765Y-120310108D01*
X150233755Y-120328093D01*
X150174516Y-120348139D01*
X150110016Y-120369917D01*
X150041223Y-120393098D01*
X149975887Y-120415075D01*
X149536150Y-120562858D01*
X149536150Y-120973417D01*
X149572662Y-120959468D01*
X149572662Y-120959468D01*
G37*
X149572662Y-120959468D02*
X149583415Y-120955309D01*
X149605184Y-120946844D01*
X149637157Y-120934390D01*
X149678522Y-120918263D01*
X149728466Y-120898782D01*
X149786178Y-120876262D01*
X149850845Y-120851021D01*
X149921654Y-120823376D01*
X149997794Y-120793644D01*
X150078452Y-120762142D01*
X150162816Y-120729187D01*
X150250073Y-120695096D01*
X150260050Y-120691197D01*
X150910925Y-120436876D01*
X150912611Y-120257526D01*
X150913058Y-120204963D01*
X150913246Y-120163697D01*
X150913102Y-120132328D01*
X150912554Y-120109455D01*
X150911529Y-120093675D01*
X150909954Y-120083589D01*
X150907757Y-120077796D01*
X150904864Y-120074893D01*
X150903086Y-120074070D01*
X150895801Y-120071261D01*
X150877447Y-120064128D01*
X150848781Y-120052967D01*
X150810564Y-120038075D01*
X150763556Y-120019747D01*
X150708515Y-119998280D01*
X150646202Y-119973971D01*
X150577376Y-119947115D01*
X150502795Y-119918009D01*
X150423221Y-119886949D01*
X150339413Y-119854231D01*
X150252129Y-119820152D01*
X150219808Y-119807532D01*
X150131586Y-119773102D01*
X150046644Y-119739991D01*
X149965735Y-119708491D01*
X149889609Y-119678891D01*
X149819019Y-119651482D01*
X149754715Y-119626557D01*
X149697448Y-119604404D01*
X149647970Y-119585316D01*
X149607033Y-119569583D01*
X149575387Y-119557495D01*
X149553784Y-119549345D01*
X149542975Y-119545421D01*
X149541859Y-119545100D01*
X149540316Y-119551277D01*
X149539074Y-119569129D01*
X149538154Y-119597630D01*
X149537578Y-119635757D01*
X149537365Y-119682486D01*
X149537536Y-119736795D01*
X149537650Y-119752535D01*
X149539325Y-119959970D01*
X149986315Y-120108965D01*
X150067451Y-120136110D01*
X150141947Y-120161234D01*
X150209164Y-120184114D01*
X150268461Y-120204524D01*
X150319200Y-120222241D01*
X150360741Y-120237040D01*
X150392445Y-120248697D01*
X150413672Y-120256988D01*
X150423784Y-120261688D01*
X150424465Y-120262626D01*
X150417133Y-120265366D01*
X150398729Y-120271814D01*
X150370220Y-120281639D01*
X150332576Y-120294514D01*
X150286765Y-120310108D01*
X150233755Y-120328093D01*
X150174516Y-120348139D01*
X150110016Y-120369917D01*
X150041223Y-120393098D01*
X149975887Y-120415075D01*
X149536150Y-120562858D01*
X149536150Y-120973417D01*
X149572662Y-120959468D01*
G36*
X149514110Y-115252686D02*
X149514843Y-115284203D01*
X149516386Y-115308530D01*
X149519002Y-115328417D01*
X149522954Y-115346619D01*
X149528505Y-115365889D01*
X149528789Y-115366800D01*
X149550094Y-115423833D01*
X149576516Y-115472453D01*
X149610398Y-115516642D01*
X149628225Y-115535656D01*
X149683578Y-115582736D01*
X149747113Y-115620205D01*
X149818563Y-115647932D01*
X149892942Y-115665033D01*
X149907484Y-115666327D01*
X149934157Y-115667498D01*
X149972394Y-115668541D01*
X150021624Y-115669447D01*
X150081281Y-115670210D01*
X150150796Y-115670822D01*
X150229599Y-115671276D01*
X150317124Y-115671565D01*
X150412802Y-115671681D01*
X150415625Y-115671682D01*
X150898225Y-115671792D01*
X150899902Y-115474846D01*
X150901580Y-115277900D01*
X150486899Y-115277900D01*
X150400326Y-115277881D01*
X150325459Y-115277785D01*
X150261303Y-115277548D01*
X150206864Y-115277111D01*
X150161148Y-115276411D01*
X150123161Y-115275387D01*
X150091907Y-115273976D01*
X150066394Y-115272118D01*
X150045626Y-115269750D01*
X150028610Y-115266812D01*
X150014351Y-115263241D01*
X150001854Y-115258976D01*
X149990126Y-115253955D01*
X149978173Y-115248118D01*
X149974274Y-115246137D01*
X149938203Y-115221193D01*
X149907045Y-115186722D01*
X149886165Y-115151449D01*
X149878417Y-115133411D01*
X149873504Y-115116739D01*
X149870803Y-115097617D01*
X149869695Y-115072231D01*
X149869535Y-115049300D01*
X149869914Y-115017401D01*
X149871465Y-114994383D01*
X149874803Y-114976441D01*
X149880546Y-114959768D01*
X149886047Y-114947410D01*
X149911171Y-114904363D01*
X149941937Y-114871502D01*
X149972750Y-114850731D01*
X149985762Y-114843747D01*
X149997959Y-114837719D01*
X150010341Y-114832578D01*
X150023910Y-114828252D01*
X150039668Y-114824671D01*
X150058614Y-114821764D01*
X150081750Y-114819462D01*
X150110077Y-114817694D01*
X150144596Y-114816389D01*
X150186309Y-114815477D01*
X150236215Y-114814888D01*
X150295317Y-114814551D01*
X150364614Y-114814396D01*
X150445109Y-114814352D01*
X150489984Y-114814350D01*
X150901400Y-114814350D01*
X150901400Y-114420650D01*
X149536150Y-114420650D01*
X149536150Y-114814350D01*
X149623462Y-114814338D01*
X149710775Y-114814327D01*
X149650450Y-114876504D01*
X149613212Y-114916814D01*
X149584303Y-114953069D01*
X149561613Y-114988451D01*
X149543032Y-115026140D01*
X149530938Y-115056700D01*
X149524647Y-115074694D01*
X149520129Y-115090612D01*
X149517093Y-115107101D01*
X149515247Y-115126810D01*
X149514299Y-115152385D01*
X149513959Y-115186474D01*
X149513925Y-115211225D01*
X149514110Y-115252686D01*
X149514110Y-115252686D01*
G37*
X149514110Y-115252686D02*
X149514843Y-115284203D01*
X149516386Y-115308530D01*
X149519002Y-115328417D01*
X149522954Y-115346619D01*
X149528505Y-115365889D01*
X149528789Y-115366800D01*
X149550094Y-115423833D01*
X149576516Y-115472453D01*
X149610398Y-115516642D01*
X149628225Y-115535656D01*
X149683578Y-115582736D01*
X149747113Y-115620205D01*
X149818563Y-115647932D01*
X149892942Y-115665033D01*
X149907484Y-115666327D01*
X149934157Y-115667498D01*
X149972394Y-115668541D01*
X150021624Y-115669447D01*
X150081281Y-115670210D01*
X150150796Y-115670822D01*
X150229599Y-115671276D01*
X150317124Y-115671565D01*
X150412802Y-115671681D01*
X150415625Y-115671682D01*
X150898225Y-115671792D01*
X150899902Y-115474846D01*
X150901580Y-115277900D01*
X150486899Y-115277900D01*
X150400326Y-115277881D01*
X150325459Y-115277785D01*
X150261303Y-115277548D01*
X150206864Y-115277111D01*
X150161148Y-115276411D01*
X150123161Y-115275387D01*
X150091907Y-115273976D01*
X150066394Y-115272118D01*
X150045626Y-115269750D01*
X150028610Y-115266812D01*
X150014351Y-115263241D01*
X150001854Y-115258976D01*
X149990126Y-115253955D01*
X149978173Y-115248118D01*
X149974274Y-115246137D01*
X149938203Y-115221193D01*
X149907045Y-115186722D01*
X149886165Y-115151449D01*
X149878417Y-115133411D01*
X149873504Y-115116739D01*
X149870803Y-115097617D01*
X149869695Y-115072231D01*
X149869535Y-115049300D01*
X149869914Y-115017401D01*
X149871465Y-114994383D01*
X149874803Y-114976441D01*
X149880546Y-114959768D01*
X149886047Y-114947410D01*
X149911171Y-114904363D01*
X149941937Y-114871502D01*
X149972750Y-114850731D01*
X149985762Y-114843747D01*
X149997959Y-114837719D01*
X150010341Y-114832578D01*
X150023910Y-114828252D01*
X150039668Y-114824671D01*
X150058614Y-114821764D01*
X150081750Y-114819462D01*
X150110077Y-114817694D01*
X150144596Y-114816389D01*
X150186309Y-114815477D01*
X150236215Y-114814888D01*
X150295317Y-114814551D01*
X150364614Y-114814396D01*
X150445109Y-114814352D01*
X150489984Y-114814350D01*
X150901400Y-114814350D01*
X150901400Y-114420650D01*
X149536150Y-114420650D01*
X149536150Y-114814350D01*
X149623462Y-114814338D01*
X149710775Y-114814327D01*
X149650450Y-114876504D01*
X149613212Y-114916814D01*
X149584303Y-114953069D01*
X149561613Y-114988451D01*
X149543032Y-115026140D01*
X149530938Y-115056700D01*
X149524647Y-115074694D01*
X149520129Y-115090612D01*
X149517093Y-115107101D01*
X149515247Y-115126810D01*
X149514299Y-115152385D01*
X149513959Y-115186474D01*
X149513925Y-115211225D01*
X149514110Y-115252686D01*
G36*
X149508103Y-119427471D02*
X149512126Y-119443500D01*
X149915403Y-119443500D01*
X149919752Y-119389898D01*
X149930911Y-119313876D01*
X149951415Y-119246438D01*
X149981363Y-119187463D01*
X150020853Y-119136829D01*
X150069986Y-119094412D01*
X150128861Y-119060091D01*
X150197577Y-119033743D01*
X150212425Y-119029443D01*
X150224373Y-119026277D01*
X150236085Y-119023615D01*
X150248767Y-119021404D01*
X150263629Y-119019590D01*
X150281880Y-119018121D01*
X150304727Y-119016944D01*
X150333380Y-119016005D01*
X150369048Y-119015252D01*
X150412938Y-119014632D01*
X150466259Y-119014090D01*
X150530220Y-119013575D01*
X150582312Y-119013199D01*
X150901400Y-119010952D01*
X150901400Y-118618000D01*
X149536150Y-118618000D01*
X149536150Y-119011700D01*
X149661562Y-119011844D01*
X149786975Y-119011988D01*
X149747990Y-119033003D01*
X149687981Y-119070178D01*
X149635007Y-119112739D01*
X149590393Y-119159254D01*
X149555465Y-119208290D01*
X149531548Y-119258416D01*
X149527309Y-119271410D01*
X149520811Y-119297794D01*
X149515086Y-119328798D01*
X149510565Y-119360917D01*
X149507678Y-119390646D01*
X149506858Y-119414480D01*
X149508103Y-119427471D01*
X149508103Y-119427471D01*
G37*
X149508103Y-119427471D02*
X149512126Y-119443500D01*
X149915403Y-119443500D01*
X149919752Y-119389898D01*
X149930911Y-119313876D01*
X149951415Y-119246438D01*
X149981363Y-119187463D01*
X150020853Y-119136829D01*
X150069986Y-119094412D01*
X150128861Y-119060091D01*
X150197577Y-119033743D01*
X150212425Y-119029443D01*
X150224373Y-119026277D01*
X150236085Y-119023615D01*
X150248767Y-119021404D01*
X150263629Y-119019590D01*
X150281880Y-119018121D01*
X150304727Y-119016944D01*
X150333380Y-119016005D01*
X150369048Y-119015252D01*
X150412938Y-119014632D01*
X150466259Y-119014090D01*
X150530220Y-119013575D01*
X150582312Y-119013199D01*
X150901400Y-119010952D01*
X150901400Y-118618000D01*
X149536150Y-118618000D01*
X149536150Y-119011700D01*
X149661562Y-119011844D01*
X149786975Y-119011988D01*
X149747990Y-119033003D01*
X149687981Y-119070178D01*
X149635007Y-119112739D01*
X149590393Y-119159254D01*
X149555465Y-119208290D01*
X149531548Y-119258416D01*
X149527309Y-119271410D01*
X149520811Y-119297794D01*
X149515086Y-119328798D01*
X149510565Y-119360917D01*
X149507678Y-119390646D01*
X149506858Y-119414480D01*
X149508103Y-119427471D01*
G36*
X150217187Y-121508896D02*
X150898225Y-121507368D01*
X150899902Y-121310459D01*
X150901580Y-121113550D01*
X149536150Y-121113550D01*
X149536149Y-121311987D01*
X149536149Y-121510425D01*
X150217187Y-121508896D01*
X150217187Y-121508896D01*
G37*
X150217187Y-121508896D02*
X150898225Y-121507368D01*
X150899902Y-121310459D01*
X150901580Y-121113550D01*
X149536150Y-121113550D01*
X149536149Y-121311987D01*
X149536149Y-121510425D01*
X150217187Y-121508896D01*
G36*
X149025887Y-122313700D02*
X149026308Y-122363084D01*
X149027692Y-122403168D01*
X149030434Y-122437337D01*
X149034929Y-122468978D01*
X149041573Y-122501478D01*
X149050760Y-122538222D01*
X149053122Y-122547062D01*
X149060389Y-122574050D01*
X149225924Y-122574050D01*
X149276029Y-122574003D01*
X149314817Y-122573800D01*
X149343668Y-122573346D01*
X149363965Y-122572544D01*
X149377090Y-122571300D01*
X149384424Y-122569518D01*
X149387349Y-122567103D01*
X149387248Y-122563958D01*
X149386867Y-122562937D01*
X149375894Y-122529744D01*
X149366591Y-122489220D01*
X149359983Y-122446720D01*
X149357108Y-122407991D01*
X149359558Y-122361609D01*
X149369538Y-122324937D01*
X149387840Y-122297130D01*
X149415252Y-122277343D01*
X149452566Y-122264731D01*
X149496709Y-122258708D01*
X149548624Y-122254970D01*
X149550324Y-122411573D01*
X149552025Y-122568176D01*
X149869525Y-122568176D01*
X149872925Y-122262900D01*
X150901400Y-122262900D01*
X150901400Y-121869200D01*
X149872700Y-121869200D01*
X149872700Y-121710450D01*
X149548850Y-121710450D01*
X149548850Y-121867474D01*
X149455187Y-121870770D01*
X149414223Y-121872918D01*
X149374373Y-121876271D01*
X149339520Y-121880438D01*
X149313900Y-121884950D01*
X149246065Y-121905931D01*
X149187214Y-121935879D01*
X149137225Y-121974907D01*
X149095978Y-122023133D01*
X149063351Y-122080671D01*
X149039224Y-122147638D01*
X149039210Y-122147688D01*
X149034222Y-122167369D01*
X149030619Y-122186725D01*
X149028192Y-122208350D01*
X149026733Y-122234838D01*
X149026034Y-122268785D01*
X149025886Y-122312785D01*
X149025887Y-122313700D01*
X149025887Y-122313700D01*
G37*
X149025887Y-122313700D02*
X149026308Y-122363084D01*
X149027692Y-122403168D01*
X149030434Y-122437337D01*
X149034929Y-122468978D01*
X149041573Y-122501478D01*
X149050760Y-122538222D01*
X149053122Y-122547062D01*
X149060389Y-122574050D01*
X149225924Y-122574050D01*
X149276029Y-122574003D01*
X149314817Y-122573800D01*
X149343668Y-122573346D01*
X149363965Y-122572544D01*
X149377090Y-122571300D01*
X149384424Y-122569518D01*
X149387349Y-122567103D01*
X149387248Y-122563958D01*
X149386867Y-122562937D01*
X149375894Y-122529744D01*
X149366591Y-122489220D01*
X149359983Y-122446720D01*
X149357108Y-122407991D01*
X149359558Y-122361609D01*
X149369538Y-122324937D01*
X149387840Y-122297130D01*
X149415252Y-122277343D01*
X149452566Y-122264731D01*
X149496709Y-122258708D01*
X149548624Y-122254970D01*
X149550324Y-122411573D01*
X149552025Y-122568176D01*
X149869525Y-122568176D01*
X149872925Y-122262900D01*
X150901400Y-122262900D01*
X150901400Y-121869200D01*
X149872700Y-121869200D01*
X149872700Y-121710450D01*
X149548850Y-121710450D01*
X149548850Y-121867474D01*
X149455187Y-121870770D01*
X149414223Y-121872918D01*
X149374373Y-121876271D01*
X149339520Y-121880438D01*
X149313900Y-121884950D01*
X149246065Y-121905931D01*
X149187214Y-121935879D01*
X149137225Y-121974907D01*
X149095978Y-122023133D01*
X149063351Y-122080671D01*
X149039224Y-122147638D01*
X149039210Y-122147688D01*
X149034222Y-122167369D01*
X149030619Y-122186725D01*
X149028192Y-122208350D01*
X149026733Y-122234838D01*
X149026034Y-122268785D01*
X149025886Y-122312785D01*
X149025887Y-122313700D01*
G36*
X149390100Y-121519950D02*
X149390100Y-121107200D01*
X149040850Y-121107200D01*
X149040850Y-121519950D01*
X149390100Y-121519950D01*
X149390100Y-121519950D01*
G37*
X149390100Y-121519950D02*
X149390100Y-121107200D01*
X149040850Y-121107200D01*
X149040850Y-121519950D01*
X149390100Y-121519950D01*
G36*
X148315260Y-108585629D02*
X148330134Y-108654727D01*
X148357010Y-108725490D01*
X148365250Y-108742891D01*
X148381407Y-108773764D01*
X148397538Y-108799076D01*
X148416767Y-108823103D01*
X148442217Y-108850120D01*
X148447365Y-108855296D01*
X148473913Y-108880927D01*
X148496538Y-108899974D01*
X148519556Y-108915513D01*
X148547287Y-108930624D01*
X148565789Y-108939712D01*
X148609209Y-108959455D01*
X148646170Y-108973159D01*
X148680808Y-108981789D01*
X148717257Y-108986313D01*
X148759652Y-108987696D01*
X148770975Y-108987669D01*
X148792328Y-108987286D01*
X148812322Y-108986197D01*
X148831902Y-108984008D01*
X148852015Y-108980328D01*
X148873605Y-108974766D01*
X148897619Y-108966931D01*
X148925004Y-108956430D01*
X148956704Y-108942873D01*
X148993666Y-108925866D01*
X149036837Y-108905020D01*
X149087161Y-108879942D01*
X149145586Y-108850241D01*
X149213056Y-108815525D01*
X149290519Y-108775403D01*
X149317075Y-108761616D01*
X149379649Y-108729058D01*
X149439063Y-108698028D01*
X149494324Y-108669052D01*
X149544443Y-108642653D01*
X149588427Y-108619359D01*
X149625285Y-108599694D01*
X149654026Y-108584184D01*
X149673659Y-108573353D01*
X149683193Y-108567727D01*
X149683787Y-108567284D01*
X149692675Y-108552290D01*
X149694264Y-108533171D01*
X149688309Y-108516264D01*
X149685879Y-108513387D01*
X149677310Y-108507469D01*
X149658609Y-108496359D01*
X149630941Y-108480671D01*
X149595470Y-108461019D01*
X149553358Y-108438016D01*
X149505770Y-108412278D01*
X149453868Y-108384418D01*
X149398818Y-108355051D01*
X149341782Y-108324791D01*
X149283924Y-108294252D01*
X149226408Y-108264049D01*
X149170397Y-108234795D01*
X149117055Y-108207105D01*
X149067545Y-108181593D01*
X149023032Y-108158873D01*
X148984679Y-108139561D01*
X148953649Y-108124269D01*
X148931106Y-108113612D01*
X148918403Y-108108268D01*
X148842003Y-108088174D01*
X148766435Y-108080284D01*
X148754642Y-108080960D01*
X148754642Y-108217722D01*
X148813924Y-108220798D01*
X148869941Y-108234460D01*
X148921667Y-108257681D01*
X148968076Y-108289433D01*
X149008141Y-108328687D01*
X149040835Y-108374417D01*
X149065132Y-108425594D01*
X149080006Y-108481190D01*
X149084430Y-108540178D01*
X149077377Y-108601529D01*
X149075643Y-108609288D01*
X149055315Y-108669733D01*
X149025019Y-108722740D01*
X148985586Y-108767551D01*
X148937850Y-108803410D01*
X148882640Y-108829563D01*
X148820789Y-108845252D01*
X148815177Y-108846089D01*
X148753846Y-108848884D01*
X148695343Y-108840375D01*
X148640717Y-108821656D01*
X148591015Y-108793822D01*
X148547286Y-108757967D01*
X148510578Y-108715187D01*
X148481940Y-108666575D01*
X148462420Y-108613228D01*
X148453066Y-108556239D01*
X148454928Y-108496704D01*
X148458745Y-108473875D01*
X148477477Y-108410464D01*
X148505748Y-108355088D01*
X148543097Y-108308234D01*
X148589064Y-108270387D01*
X148643190Y-108242034D01*
X148693122Y-108226260D01*
X148754642Y-108217722D01*
X148754642Y-108080960D01*
X148692532Y-108084526D01*
X148621129Y-108100832D01*
X148553059Y-108129129D01*
X148531838Y-108140871D01*
X148471867Y-108183263D01*
X148420293Y-108234383D01*
X148378198Y-108292918D01*
X148346666Y-108357555D01*
X148341575Y-108371527D01*
X148321088Y-108445709D01*
X148312280Y-108516517D01*
X148315260Y-108585629D01*
X148315260Y-108585629D01*
G37*
X148315260Y-108585629D02*
X148330134Y-108654727D01*
X148357010Y-108725490D01*
X148365250Y-108742891D01*
X148381407Y-108773764D01*
X148397538Y-108799076D01*
X148416767Y-108823103D01*
X148442217Y-108850120D01*
X148447365Y-108855296D01*
X148473913Y-108880927D01*
X148496538Y-108899974D01*
X148519556Y-108915513D01*
X148547287Y-108930624D01*
X148565789Y-108939712D01*
X148609209Y-108959455D01*
X148646170Y-108973159D01*
X148680808Y-108981789D01*
X148717257Y-108986313D01*
X148759652Y-108987696D01*
X148770975Y-108987669D01*
X148792328Y-108987286D01*
X148812322Y-108986197D01*
X148831902Y-108984008D01*
X148852015Y-108980328D01*
X148873605Y-108974766D01*
X148897619Y-108966931D01*
X148925004Y-108956430D01*
X148956704Y-108942873D01*
X148993666Y-108925866D01*
X149036837Y-108905020D01*
X149087161Y-108879942D01*
X149145586Y-108850241D01*
X149213056Y-108815525D01*
X149290519Y-108775403D01*
X149317075Y-108761616D01*
X149379649Y-108729058D01*
X149439063Y-108698028D01*
X149494324Y-108669052D01*
X149544443Y-108642653D01*
X149588427Y-108619359D01*
X149625285Y-108599694D01*
X149654026Y-108584184D01*
X149673659Y-108573353D01*
X149683193Y-108567727D01*
X149683787Y-108567284D01*
X149692675Y-108552290D01*
X149694264Y-108533171D01*
X149688309Y-108516264D01*
X149685879Y-108513387D01*
X149677310Y-108507469D01*
X149658609Y-108496359D01*
X149630941Y-108480671D01*
X149595470Y-108461019D01*
X149553358Y-108438016D01*
X149505770Y-108412278D01*
X149453868Y-108384418D01*
X149398818Y-108355051D01*
X149341782Y-108324791D01*
X149283924Y-108294252D01*
X149226408Y-108264049D01*
X149170397Y-108234795D01*
X149117055Y-108207105D01*
X149067545Y-108181593D01*
X149023032Y-108158873D01*
X148984679Y-108139561D01*
X148953649Y-108124269D01*
X148931106Y-108113612D01*
X148918403Y-108108268D01*
X148842003Y-108088174D01*
X148766435Y-108080284D01*
X148754642Y-108080960D01*
X148754642Y-108217722D01*
X148813924Y-108220798D01*
X148869941Y-108234460D01*
X148921667Y-108257681D01*
X148968076Y-108289433D01*
X149008141Y-108328687D01*
X149040835Y-108374417D01*
X149065132Y-108425594D01*
X149080006Y-108481190D01*
X149084430Y-108540178D01*
X149077377Y-108601529D01*
X149075643Y-108609288D01*
X149055315Y-108669733D01*
X149025019Y-108722740D01*
X148985586Y-108767551D01*
X148937850Y-108803410D01*
X148882640Y-108829563D01*
X148820789Y-108845252D01*
X148815177Y-108846089D01*
X148753846Y-108848884D01*
X148695343Y-108840375D01*
X148640717Y-108821656D01*
X148591015Y-108793822D01*
X148547286Y-108757967D01*
X148510578Y-108715187D01*
X148481940Y-108666575D01*
X148462420Y-108613228D01*
X148453066Y-108556239D01*
X148454928Y-108496704D01*
X148458745Y-108473875D01*
X148477477Y-108410464D01*
X148505748Y-108355088D01*
X148543097Y-108308234D01*
X148589064Y-108270387D01*
X148643190Y-108242034D01*
X148693122Y-108226260D01*
X148754642Y-108217722D01*
X148754642Y-108080960D01*
X148692532Y-108084526D01*
X148621129Y-108100832D01*
X148553059Y-108129129D01*
X148531838Y-108140871D01*
X148471867Y-108183263D01*
X148420293Y-108234383D01*
X148378198Y-108292918D01*
X148346666Y-108357555D01*
X148341575Y-108371527D01*
X148321088Y-108445709D01*
X148312280Y-108516517D01*
X148315260Y-108585629D01*
M02*
