G04 #@! TF.GenerationSoftware,KiCad,Pcbnew,5.0.0-fee4fd1~65~ubuntu16.04.1*
G04 #@! TF.CreationDate,2018-07-27T11:23:51-07:00*
G04 #@! TF.ProjectId,fk-weather-sensors,666B2D776561746865722D73656E736F,rev?*
G04 #@! TF.SameCoordinates,Original*
G04 #@! TF.FileFunction,Legend,Top*
G04 #@! TF.FilePolarity,Positive*
%FSLAX46Y46*%
G04 Gerber Fmt 4.6, Leading zero omitted, Abs format (unit mm)*
G04 Created by KiCad (PCBNEW 5.0.0-fee4fd1~65~ubuntu16.04.1) date Fri Jul 27 11:23:51 2018*
%MOMM*%
%LPD*%
G01*
G04 APERTURE LIST*
%ADD10C,0.150000*%
%ADD11C,0.205000*%
%ADD12C,0.120000*%
G04 APERTURE END LIST*
D10*
X154090714Y-107092571D02*
X154757380Y-106854476D01*
X154090714Y-106616380D01*
X153757380Y-106044952D02*
X153757380Y-105949714D01*
X153805000Y-105854476D01*
X153852619Y-105806857D01*
X153947857Y-105759238D01*
X154138333Y-105711619D01*
X154376428Y-105711619D01*
X154566904Y-105759238D01*
X154662142Y-105806857D01*
X154709761Y-105854476D01*
X154757380Y-105949714D01*
X154757380Y-106044952D01*
X154709761Y-106140190D01*
X154662142Y-106187809D01*
X154566904Y-106235428D01*
X154376428Y-106283047D01*
X154138333Y-106283047D01*
X153947857Y-106235428D01*
X153852619Y-106187809D01*
X153805000Y-106140190D01*
X153757380Y-106044952D01*
X154662142Y-105283047D02*
X154709761Y-105235428D01*
X154757380Y-105283047D01*
X154709761Y-105330666D01*
X154662142Y-105283047D01*
X154757380Y-105283047D01*
X154757380Y-104759238D02*
X154757380Y-104568761D01*
X154709761Y-104473523D01*
X154662142Y-104425904D01*
X154519285Y-104330666D01*
X154328809Y-104283047D01*
X153947857Y-104283047D01*
X153852619Y-104330666D01*
X153805000Y-104378285D01*
X153757380Y-104473523D01*
X153757380Y-104664000D01*
X153805000Y-104759238D01*
X153852619Y-104806857D01*
X153947857Y-104854476D01*
X154185952Y-104854476D01*
X154281190Y-104806857D01*
X154328809Y-104759238D01*
X154376428Y-104664000D01*
X154376428Y-104473523D01*
X154328809Y-104378285D01*
X154281190Y-104330666D01*
X154185952Y-104283047D01*
D11*
X148240904Y-113990380D02*
X148240904Y-112990380D01*
X148574238Y-113704666D01*
X148907571Y-112990380D01*
X148907571Y-113990380D01*
X149383761Y-113990380D02*
X149383761Y-112990380D01*
X149764714Y-112990380D01*
X149859952Y-113038000D01*
X149907571Y-113085619D01*
X149955190Y-113180857D01*
X149955190Y-113323714D01*
X149907571Y-113418952D01*
X149859952Y-113466571D01*
X149764714Y-113514190D01*
X149383761Y-113514190D01*
X150859952Y-113990380D02*
X150383761Y-113990380D01*
X150383761Y-112990380D01*
X148312333Y-118578380D02*
X148883761Y-118578380D01*
X148598047Y-119578380D02*
X148598047Y-118578380D01*
X149169476Y-119530761D02*
X149312333Y-119578380D01*
X149550428Y-119578380D01*
X149645666Y-119530761D01*
X149693285Y-119483142D01*
X149740904Y-119387904D01*
X149740904Y-119292666D01*
X149693285Y-119197428D01*
X149645666Y-119149809D01*
X149550428Y-119102190D01*
X149359952Y-119054571D01*
X149264714Y-119006952D01*
X149217095Y-118959333D01*
X149169476Y-118864095D01*
X149169476Y-118768857D01*
X149217095Y-118673619D01*
X149264714Y-118626000D01*
X149359952Y-118578380D01*
X149598047Y-118578380D01*
X149740904Y-118626000D01*
X150645666Y-119578380D02*
X150169476Y-119578380D01*
X150169476Y-118578380D01*
X148288523Y-125118761D02*
X148431380Y-125166380D01*
X148669476Y-125166380D01*
X148764714Y-125118761D01*
X148812333Y-125071142D01*
X148859952Y-124975904D01*
X148859952Y-124880666D01*
X148812333Y-124785428D01*
X148764714Y-124737809D01*
X148669476Y-124690190D01*
X148479000Y-124642571D01*
X148383761Y-124594952D01*
X148336142Y-124547333D01*
X148288523Y-124452095D01*
X148288523Y-124356857D01*
X148336142Y-124261619D01*
X148383761Y-124214000D01*
X148479000Y-124166380D01*
X148717095Y-124166380D01*
X148859952Y-124214000D01*
X149288523Y-125166380D02*
X149288523Y-124166380D01*
X149288523Y-124642571D02*
X149859952Y-124642571D01*
X149859952Y-125166380D02*
X149859952Y-124166380D01*
X150193285Y-124166380D02*
X150764714Y-124166380D01*
X150479000Y-125166380D02*
X150479000Y-124166380D01*
D12*
G04 #@! TO.C,U1*
X147854100Y-106979400D02*
X152299100Y-106979400D01*
X147854100Y-112440400D02*
X152299100Y-112440400D01*
D10*
G04 #@! TO.C,U3*
X148496355Y-121493000D02*
G75*
G03X148496355Y-121493000I-35355J0D01*
G01*
X148261000Y-121293000D02*
X150761000Y-121293000D01*
X150761000Y-121293000D02*
X150761000Y-123793000D01*
X150761000Y-123793000D02*
X148261000Y-123793000D01*
X148261000Y-123793000D02*
X148261000Y-121293000D01*
G04 #@! TO.C,U2*
X148720000Y-117899600D02*
X150170000Y-117899600D01*
X148352800Y-115707400D02*
X150527800Y-115707400D01*
G04 #@! TO.C,C1*
X146126000Y-108142000D02*
X146126000Y-106742000D01*
X142926000Y-108142000D02*
X142926000Y-106742000D01*
X146126000Y-108142000D02*
X142926000Y-108142000D01*
X142926000Y-106742000D02*
X146126000Y-106742000D01*
G04 #@! TO.C,C2*
X146126000Y-106364000D02*
X146126000Y-104964000D01*
X142926000Y-106364000D02*
X142926000Y-104964000D01*
X146126000Y-106364000D02*
X142926000Y-106364000D01*
X142926000Y-104964000D02*
X146126000Y-104964000D01*
G04 #@! TO.C,C3*
X153354000Y-115621000D02*
X151954000Y-115621000D01*
X153354000Y-118821000D02*
X151954000Y-118821000D01*
X153354000Y-115621000D02*
X153354000Y-118821000D01*
X151954000Y-118821000D02*
X151954000Y-115621000D01*
G04 #@! TO.C,C4*
X148768000Y-104964000D02*
X148768000Y-106364000D01*
X151968000Y-104964000D02*
X151968000Y-106364000D01*
X148768000Y-104964000D02*
X151968000Y-104964000D01*
X151968000Y-106364000D02*
X148768000Y-106364000D01*
G04 #@! TO.C,C5*
X151954000Y-124155000D02*
X153354000Y-124155000D01*
X151954000Y-120955000D02*
X153354000Y-120955000D01*
X151954000Y-124155000D02*
X151954000Y-120955000D01*
X153354000Y-120955000D02*
X153354000Y-124155000D01*
G04 #@! TD*
M02*
