G04 #@! TF.GenerationSoftware,KiCad,Pcbnew,5.0.0-fee4fd1~65~ubuntu16.04.1*
G04 #@! TF.CreationDate,2018-07-27T11:23:51-07:00*
G04 #@! TF.ProjectId,fk-weather-sensors,666B2D776561746865722D73656E736F,rev?*
G04 #@! TF.SameCoordinates,Original*
G04 #@! TF.FileFunction,Legend,Bot*
G04 #@! TF.FilePolarity,Positive*
%FSLAX46Y46*%
G04 Gerber Fmt 4.6, Leading zero omitted, Abs format (unit mm)*
G04 Created by KiCad (PCBNEW 5.0.0-fee4fd1~65~ubuntu16.04.1) date Fri Jul 27 11:23:51 2018*
%MOMM*%
%LPD*%
G01*
G04 APERTURE LIST*
%ADD10C,0.010000*%
%ADD11C,0.120000*%
G04 APERTURE END LIST*
D10*
G04 #@! TO.C,G\002A\002A\002A*
G36*
X147844033Y-108600309D02*
X147844629Y-108656187D01*
X147845847Y-108704299D01*
X147847871Y-108747112D01*
X147850883Y-108787090D01*
X147855067Y-108826701D01*
X147860607Y-108868409D01*
X147867685Y-108914680D01*
X147875860Y-108964271D01*
X147910912Y-109134626D01*
X147957926Y-109301536D01*
X148016488Y-109464412D01*
X148086186Y-109622666D01*
X148166607Y-109775708D01*
X148257337Y-109922949D01*
X148357963Y-110063800D01*
X148468073Y-110197671D01*
X148587253Y-110323973D01*
X148715090Y-110442117D01*
X148851171Y-110551513D01*
X148995084Y-110651573D01*
X149106097Y-110719099D01*
X149264365Y-110802704D01*
X149426149Y-110874127D01*
X149591499Y-110933382D01*
X149760469Y-110980481D01*
X149933110Y-111015436D01*
X150109475Y-111038260D01*
X150289617Y-111048967D01*
X150464488Y-111047918D01*
X150639368Y-111035157D01*
X150812419Y-111010005D01*
X150983002Y-110972715D01*
X151150478Y-110923541D01*
X151314207Y-110862734D01*
X151473551Y-110790549D01*
X151627871Y-110707238D01*
X151776526Y-110613055D01*
X151918878Y-110508253D01*
X152002880Y-110438754D01*
X152044310Y-110401435D01*
X152090940Y-110356884D01*
X152140318Y-110307641D01*
X152189990Y-110256249D01*
X152237504Y-110205247D01*
X152280407Y-110157177D01*
X152316245Y-110114581D01*
X152318529Y-110111742D01*
X152425386Y-109968523D01*
X152521532Y-109819078D01*
X152606589Y-109664097D01*
X152680175Y-109504265D01*
X152737478Y-109353350D01*
X152789765Y-109181264D01*
X152829652Y-109007085D01*
X152857076Y-108831298D01*
X152871971Y-108654389D01*
X152874271Y-108476845D01*
X152869296Y-108365925D01*
X152851112Y-108188887D01*
X152820661Y-108014496D01*
X152778208Y-107843332D01*
X152724017Y-107675978D01*
X152658353Y-107513016D01*
X152581480Y-107355027D01*
X152493662Y-107202594D01*
X152395165Y-107056298D01*
X152286252Y-106916722D01*
X152167187Y-106784447D01*
X152136389Y-106753110D01*
X152006468Y-106632016D01*
X151869465Y-106521214D01*
X151725979Y-106420881D01*
X151576609Y-106331195D01*
X151421953Y-106252334D01*
X151262611Y-106184475D01*
X151140453Y-106142109D01*
X151140453Y-106389840D01*
X151149242Y-106391094D01*
X151167715Y-106396921D01*
X151194015Y-106406588D01*
X151226290Y-106419361D01*
X151262684Y-106434506D01*
X151301343Y-106451289D01*
X151340315Y-106468932D01*
X151376077Y-106486526D01*
X151419339Y-106509449D01*
X151467055Y-106535950D01*
X151516181Y-106564281D01*
X151563671Y-106592691D01*
X151606479Y-106619433D01*
X151634675Y-106638017D01*
X151753751Y-106725234D01*
X151869152Y-106821851D01*
X151979006Y-106926001D01*
X152081435Y-107035815D01*
X152174566Y-107149425D01*
X152241889Y-107242938D01*
X152277018Y-107303649D01*
X152308303Y-107375681D01*
X152335497Y-107458174D01*
X152358352Y-107550268D01*
X152376618Y-107651104D01*
X152389388Y-107753150D01*
X152391536Y-107786395D01*
X152392476Y-107828204D01*
X152392253Y-107874502D01*
X152390915Y-107921213D01*
X152388509Y-107964263D01*
X152386697Y-107985409D01*
X152374718Y-108069043D01*
X152356402Y-108146487D01*
X152332245Y-108216304D01*
X152302745Y-108277056D01*
X152268646Y-108327003D01*
X152238001Y-108359785D01*
X152205501Y-108384278D01*
X152168062Y-108402170D01*
X152122600Y-108415151D01*
X152099441Y-108419711D01*
X152038615Y-108433511D01*
X151988262Y-108451979D01*
X151946708Y-108476074D01*
X151912280Y-108506751D01*
X151884868Y-108542529D01*
X151865575Y-108576136D01*
X151849031Y-108613528D01*
X151835080Y-108655739D01*
X151823567Y-108703800D01*
X151814336Y-108758742D01*
X151807230Y-108821597D01*
X151802095Y-108893397D01*
X151798775Y-108975174D01*
X151797112Y-109067959D01*
X151796848Y-109125406D01*
X151795111Y-109274490D01*
X151790091Y-109411485D01*
X151781789Y-109536352D01*
X151770210Y-109649053D01*
X151755356Y-109749550D01*
X151742066Y-109816900D01*
X151708662Y-109942396D01*
X151665761Y-110062009D01*
X151613835Y-110174882D01*
X151553357Y-110280158D01*
X151484799Y-110376981D01*
X151408635Y-110464495D01*
X151357362Y-110514098D01*
X151331631Y-110537344D01*
X151365022Y-110470809D01*
X151381414Y-110436885D01*
X151398335Y-110399773D01*
X151413300Y-110365014D01*
X151420321Y-110347556D01*
X151436245Y-110301839D01*
X151452492Y-110247205D01*
X151468145Y-110187375D01*
X151482283Y-110126069D01*
X151493989Y-110067010D01*
X151501946Y-110016925D01*
X151506581Y-109972260D01*
X151510041Y-109918180D01*
X151512298Y-109857916D01*
X151513324Y-109794700D01*
X151513094Y-109731765D01*
X151511578Y-109672342D01*
X151508750Y-109619664D01*
X151505592Y-109585125D01*
X151480478Y-109417057D01*
X151443837Y-109246343D01*
X151396096Y-109074622D01*
X151337682Y-108903533D01*
X151307235Y-108825220D01*
X151296513Y-108798848D01*
X151286251Y-108774043D01*
X151275793Y-108749338D01*
X151264481Y-108723265D01*
X151251660Y-108694355D01*
X151236672Y-108661140D01*
X151218862Y-108622152D01*
X151197571Y-108575922D01*
X151172144Y-108520983D01*
X151145127Y-108462762D01*
X151072344Y-108294469D01*
X151010780Y-108127404D01*
X150960460Y-107961944D01*
X150921407Y-107798466D01*
X150893647Y-107637346D01*
X150877206Y-107478962D01*
X150872107Y-107323690D01*
X150878376Y-107171908D01*
X150896037Y-107023992D01*
X150925116Y-106880319D01*
X150965638Y-106741267D01*
X151017627Y-106607212D01*
X151021831Y-106597724D01*
X151036329Y-106566827D01*
X151053206Y-106533332D01*
X151071318Y-106499240D01*
X151089526Y-106466551D01*
X151106687Y-106437265D01*
X151121659Y-106413383D01*
X151133303Y-106396905D01*
X151140453Y-106389840D01*
X151140453Y-106142109D01*
X151099181Y-106127795D01*
X150932263Y-106082473D01*
X150762455Y-106048686D01*
X150590356Y-106026611D01*
X150416564Y-106016427D01*
X150288590Y-106017804D01*
X150288590Y-106248601D01*
X150363682Y-106248635D01*
X150440688Y-106250440D01*
X150516384Y-106253921D01*
X150587542Y-106258986D01*
X150650938Y-106265540D01*
X150679150Y-106269412D01*
X150722074Y-106276386D01*
X150767403Y-106284552D01*
X150813539Y-106293540D01*
X150858883Y-106302979D01*
X150901837Y-106312499D01*
X150940804Y-106321731D01*
X150974184Y-106330305D01*
X151000379Y-106337851D01*
X151017791Y-106343999D01*
X151024822Y-106348379D01*
X151024607Y-106349358D01*
X151018645Y-106352601D01*
X151002100Y-106361227D01*
X150975709Y-106374858D01*
X150940208Y-106393119D01*
X150896332Y-106415632D01*
X150844819Y-106442021D01*
X150786404Y-106471908D01*
X150721824Y-106504917D01*
X150651815Y-106540670D01*
X150577113Y-106578792D01*
X150498454Y-106618904D01*
X150416575Y-106660631D01*
X150413852Y-106662018D01*
X150331902Y-106703805D01*
X150253176Y-106744023D01*
X150178409Y-106782295D01*
X150108334Y-106818240D01*
X150043685Y-106851480D01*
X149985197Y-106881636D01*
X149933603Y-106908329D01*
X149889637Y-106931179D01*
X149854034Y-106949807D01*
X149827527Y-106963835D01*
X149810851Y-106972883D01*
X149804739Y-106976572D01*
X149804726Y-106976599D01*
X149809922Y-106980374D01*
X149825411Y-106989580D01*
X149850263Y-107003707D01*
X149883546Y-107022243D01*
X149924331Y-107044677D01*
X149971685Y-107070498D01*
X150024679Y-107099196D01*
X150082382Y-107130258D01*
X150143863Y-107163174D01*
X150165001Y-107174451D01*
X150227571Y-107207870D01*
X150286713Y-107239586D01*
X150341492Y-107269090D01*
X150390971Y-107295871D01*
X150434215Y-107319419D01*
X150470290Y-107339226D01*
X150498260Y-107354780D01*
X150517189Y-107365572D01*
X150526143Y-107371093D01*
X150526750Y-107371671D01*
X150521231Y-107375131D01*
X150505169Y-107384028D01*
X150479304Y-107397972D01*
X150444380Y-107416574D01*
X150401136Y-107439444D01*
X150350314Y-107466192D01*
X150292656Y-107496429D01*
X150228902Y-107529765D01*
X150159795Y-107565811D01*
X150086076Y-107604177D01*
X150008486Y-107644474D01*
X149940962Y-107679478D01*
X149860606Y-107721117D01*
X149783425Y-107761147D01*
X149710168Y-107799177D01*
X149641583Y-107834818D01*
X149578419Y-107867678D01*
X149521423Y-107897368D01*
X149471344Y-107923499D01*
X149428931Y-107945679D01*
X149394931Y-107963519D01*
X149370093Y-107976629D01*
X149355165Y-107984619D01*
X149350836Y-107987083D01*
X149355673Y-107990612D01*
X149370952Y-107999678D01*
X149395900Y-108013859D01*
X149429743Y-108032731D01*
X149471708Y-108055872D01*
X149521022Y-108082859D01*
X149576913Y-108113269D01*
X149638607Y-108146679D01*
X149705331Y-108182667D01*
X149776312Y-108220809D01*
X149850776Y-108260683D01*
X149863531Y-108267500D01*
X149938594Y-108307636D01*
X150010384Y-108346089D01*
X150078119Y-108382436D01*
X150141019Y-108416254D01*
X150198303Y-108447123D01*
X150249189Y-108474620D01*
X150292898Y-108498322D01*
X150328647Y-108517808D01*
X150355657Y-108532656D01*
X150373145Y-108542443D01*
X150380332Y-108546748D01*
X150380474Y-108546900D01*
X150374991Y-108550359D01*
X150359308Y-108559048D01*
X150334519Y-108572388D01*
X150301720Y-108589801D01*
X150262004Y-108610708D01*
X150216466Y-108634531D01*
X150166200Y-108660692D01*
X150112302Y-108688613D01*
X150110667Y-108689458D01*
X150056671Y-108717448D01*
X150006281Y-108743738D01*
X149960591Y-108767744D01*
X149920696Y-108788883D01*
X149887690Y-108806572D01*
X149862668Y-108820227D01*
X149846724Y-108829266D01*
X149840954Y-108833106D01*
X149840950Y-108833133D01*
X149846421Y-108836694D01*
X149862305Y-108845792D01*
X149887804Y-108859995D01*
X149922122Y-108878870D01*
X149964461Y-108901984D01*
X150014024Y-108928904D01*
X150070016Y-108959197D01*
X150131638Y-108992431D01*
X150198094Y-109028172D01*
X150268587Y-109065988D01*
X150337837Y-109103049D01*
X150412034Y-109142721D01*
X150483416Y-109180905D01*
X150551134Y-109217144D01*
X150614339Y-109250985D01*
X150672183Y-109281973D01*
X150723817Y-109309652D01*
X150768394Y-109333569D01*
X150805065Y-109353268D01*
X150832982Y-109368294D01*
X150851296Y-109378194D01*
X150858812Y-109382313D01*
X150882900Y-109395953D01*
X150630212Y-109526623D01*
X150578032Y-109553722D01*
X150529529Y-109579134D01*
X150485828Y-109602254D01*
X150448056Y-109622475D01*
X150417338Y-109639192D01*
X150394800Y-109651798D01*
X150381569Y-109659686D01*
X150378432Y-109662167D01*
X150384049Y-109666173D01*
X150399633Y-109675428D01*
X150423931Y-109689233D01*
X150455689Y-109706893D01*
X150493653Y-109727709D01*
X150536569Y-109750984D01*
X150583087Y-109775970D01*
X150629472Y-109800920D01*
X150671949Y-109824060D01*
X150709301Y-109844706D01*
X150740311Y-109862170D01*
X150763761Y-109875768D01*
X150778433Y-109884813D01*
X150783111Y-109888620D01*
X150783100Y-109888632D01*
X150776990Y-109892081D01*
X150760478Y-109900892D01*
X150734449Y-109914604D01*
X150699788Y-109932756D01*
X150657378Y-109954888D01*
X150608105Y-109980537D01*
X150552853Y-110009244D01*
X150492506Y-110040546D01*
X150427950Y-110073984D01*
X150360068Y-110109096D01*
X150357894Y-110110221D01*
X150290030Y-110145341D01*
X150225554Y-110178790D01*
X150165339Y-110210111D01*
X150110258Y-110238845D01*
X150061187Y-110264532D01*
X150019000Y-110286714D01*
X149984571Y-110304933D01*
X149958773Y-110318730D01*
X149942482Y-110327647D01*
X149936572Y-110331224D01*
X149936564Y-110331250D01*
X149941947Y-110334865D01*
X149957464Y-110344298D01*
X149982240Y-110359038D01*
X150015398Y-110378571D01*
X150056064Y-110402387D01*
X150103361Y-110429973D01*
X150156414Y-110460818D01*
X150214346Y-110494409D01*
X150276283Y-110530234D01*
X150327001Y-110559509D01*
X150391338Y-110596712D01*
X150452235Y-110632120D01*
X150508831Y-110665221D01*
X150560262Y-110695499D01*
X150605666Y-110722441D01*
X150644181Y-110745534D01*
X150674944Y-110764264D01*
X150697094Y-110778118D01*
X150709767Y-110786582D01*
X150712510Y-110789120D01*
X150702020Y-110793344D01*
X150680499Y-110797570D01*
X150649618Y-110801670D01*
X150611044Y-110805517D01*
X150566448Y-110808982D01*
X150517498Y-110811939D01*
X150465864Y-110814258D01*
X150413214Y-110815812D01*
X150361218Y-110816473D01*
X150355300Y-110816486D01*
X150246085Y-110814830D01*
X150145480Y-110809352D01*
X150049864Y-110799651D01*
X149955615Y-110785320D01*
X149859113Y-110765958D01*
X149818725Y-110756631D01*
X149657256Y-110711993D01*
X149501821Y-110656511D01*
X149351448Y-110589759D01*
X149205165Y-110511311D01*
X149078950Y-110432197D01*
X149012968Y-110386694D01*
X148953270Y-110342508D01*
X148896933Y-110297216D01*
X148841036Y-110248393D01*
X148782656Y-110193614D01*
X148735777Y-110147456D01*
X148654865Y-110063426D01*
X148583047Y-109981966D01*
X148517989Y-109900112D01*
X148457352Y-109814902D01*
X148398801Y-109723371D01*
X148390158Y-109709088D01*
X148308821Y-109561673D01*
X148239190Y-109410035D01*
X148181245Y-109254834D01*
X148134970Y-109096730D01*
X148100346Y-108936385D01*
X148077355Y-108774457D01*
X148065980Y-108611609D01*
X148066202Y-108448501D01*
X148078003Y-108285794D01*
X148101366Y-108124147D01*
X148136272Y-107964222D01*
X148182704Y-107806679D01*
X148240643Y-107652178D01*
X148310071Y-107501381D01*
X148390971Y-107354948D01*
X148457050Y-107251500D01*
X148557211Y-107114766D01*
X148666364Y-106986703D01*
X148783935Y-106867648D01*
X148909350Y-106757937D01*
X149042036Y-106657908D01*
X149181417Y-106567896D01*
X149326920Y-106488240D01*
X149477971Y-106419274D01*
X149633996Y-106361337D01*
X149794421Y-106314765D01*
X149958671Y-106279895D01*
X150126173Y-106257062D01*
X150157055Y-106254220D01*
X150218639Y-106250431D01*
X150288590Y-106248601D01*
X150288590Y-106017804D01*
X150241680Y-106018310D01*
X150066301Y-106032439D01*
X149891027Y-106058991D01*
X149834167Y-106070329D01*
X149663090Y-106112825D01*
X149496898Y-106166740D01*
X149336031Y-106231619D01*
X149180926Y-106307007D01*
X149032021Y-106392449D01*
X148889756Y-106487491D01*
X148754567Y-106591678D01*
X148626894Y-106704555D01*
X148507173Y-106825667D01*
X148395845Y-106954560D01*
X148293346Y-107090778D01*
X148200115Y-107233868D01*
X148116590Y-107383374D01*
X148043210Y-107538842D01*
X147980412Y-107699817D01*
X147928635Y-107865843D01*
X147888317Y-108036467D01*
X147876095Y-108102400D01*
X147867360Y-108154632D01*
X147860339Y-108200389D01*
X147854849Y-108242110D01*
X147850708Y-108282232D01*
X147847735Y-108323191D01*
X147845747Y-108367427D01*
X147844563Y-108417375D01*
X147844000Y-108475473D01*
X147843875Y-108534200D01*
X147844033Y-108600309D01*
X147844033Y-108600309D01*
G37*
X147844033Y-108600309D02*
X147844629Y-108656187D01*
X147845847Y-108704299D01*
X147847871Y-108747112D01*
X147850883Y-108787090D01*
X147855067Y-108826701D01*
X147860607Y-108868409D01*
X147867685Y-108914680D01*
X147875860Y-108964271D01*
X147910912Y-109134626D01*
X147957926Y-109301536D01*
X148016488Y-109464412D01*
X148086186Y-109622666D01*
X148166607Y-109775708D01*
X148257337Y-109922949D01*
X148357963Y-110063800D01*
X148468073Y-110197671D01*
X148587253Y-110323973D01*
X148715090Y-110442117D01*
X148851171Y-110551513D01*
X148995084Y-110651573D01*
X149106097Y-110719099D01*
X149264365Y-110802704D01*
X149426149Y-110874127D01*
X149591499Y-110933382D01*
X149760469Y-110980481D01*
X149933110Y-111015436D01*
X150109475Y-111038260D01*
X150289617Y-111048967D01*
X150464488Y-111047918D01*
X150639368Y-111035157D01*
X150812419Y-111010005D01*
X150983002Y-110972715D01*
X151150478Y-110923541D01*
X151314207Y-110862734D01*
X151473551Y-110790549D01*
X151627871Y-110707238D01*
X151776526Y-110613055D01*
X151918878Y-110508253D01*
X152002880Y-110438754D01*
X152044310Y-110401435D01*
X152090940Y-110356884D01*
X152140318Y-110307641D01*
X152189990Y-110256249D01*
X152237504Y-110205247D01*
X152280407Y-110157177D01*
X152316245Y-110114581D01*
X152318529Y-110111742D01*
X152425386Y-109968523D01*
X152521532Y-109819078D01*
X152606589Y-109664097D01*
X152680175Y-109504265D01*
X152737478Y-109353350D01*
X152789765Y-109181264D01*
X152829652Y-109007085D01*
X152857076Y-108831298D01*
X152871971Y-108654389D01*
X152874271Y-108476845D01*
X152869296Y-108365925D01*
X152851112Y-108188887D01*
X152820661Y-108014496D01*
X152778208Y-107843332D01*
X152724017Y-107675978D01*
X152658353Y-107513016D01*
X152581480Y-107355027D01*
X152493662Y-107202594D01*
X152395165Y-107056298D01*
X152286252Y-106916722D01*
X152167187Y-106784447D01*
X152136389Y-106753110D01*
X152006468Y-106632016D01*
X151869465Y-106521214D01*
X151725979Y-106420881D01*
X151576609Y-106331195D01*
X151421953Y-106252334D01*
X151262611Y-106184475D01*
X151140453Y-106142109D01*
X151140453Y-106389840D01*
X151149242Y-106391094D01*
X151167715Y-106396921D01*
X151194015Y-106406588D01*
X151226290Y-106419361D01*
X151262684Y-106434506D01*
X151301343Y-106451289D01*
X151340315Y-106468932D01*
X151376077Y-106486526D01*
X151419339Y-106509449D01*
X151467055Y-106535950D01*
X151516181Y-106564281D01*
X151563671Y-106592691D01*
X151606479Y-106619433D01*
X151634675Y-106638017D01*
X151753751Y-106725234D01*
X151869152Y-106821851D01*
X151979006Y-106926001D01*
X152081435Y-107035815D01*
X152174566Y-107149425D01*
X152241889Y-107242938D01*
X152277018Y-107303649D01*
X152308303Y-107375681D01*
X152335497Y-107458174D01*
X152358352Y-107550268D01*
X152376618Y-107651104D01*
X152389388Y-107753150D01*
X152391536Y-107786395D01*
X152392476Y-107828204D01*
X152392253Y-107874502D01*
X152390915Y-107921213D01*
X152388509Y-107964263D01*
X152386697Y-107985409D01*
X152374718Y-108069043D01*
X152356402Y-108146487D01*
X152332245Y-108216304D01*
X152302745Y-108277056D01*
X152268646Y-108327003D01*
X152238001Y-108359785D01*
X152205501Y-108384278D01*
X152168062Y-108402170D01*
X152122600Y-108415151D01*
X152099441Y-108419711D01*
X152038615Y-108433511D01*
X151988262Y-108451979D01*
X151946708Y-108476074D01*
X151912280Y-108506751D01*
X151884868Y-108542529D01*
X151865575Y-108576136D01*
X151849031Y-108613528D01*
X151835080Y-108655739D01*
X151823567Y-108703800D01*
X151814336Y-108758742D01*
X151807230Y-108821597D01*
X151802095Y-108893397D01*
X151798775Y-108975174D01*
X151797112Y-109067959D01*
X151796848Y-109125406D01*
X151795111Y-109274490D01*
X151790091Y-109411485D01*
X151781789Y-109536352D01*
X151770210Y-109649053D01*
X151755356Y-109749550D01*
X151742066Y-109816900D01*
X151708662Y-109942396D01*
X151665761Y-110062009D01*
X151613835Y-110174882D01*
X151553357Y-110280158D01*
X151484799Y-110376981D01*
X151408635Y-110464495D01*
X151357362Y-110514098D01*
X151331631Y-110537344D01*
X151365022Y-110470809D01*
X151381414Y-110436885D01*
X151398335Y-110399773D01*
X151413300Y-110365014D01*
X151420321Y-110347556D01*
X151436245Y-110301839D01*
X151452492Y-110247205D01*
X151468145Y-110187375D01*
X151482283Y-110126069D01*
X151493989Y-110067010D01*
X151501946Y-110016925D01*
X151506581Y-109972260D01*
X151510041Y-109918180D01*
X151512298Y-109857916D01*
X151513324Y-109794700D01*
X151513094Y-109731765D01*
X151511578Y-109672342D01*
X151508750Y-109619664D01*
X151505592Y-109585125D01*
X151480478Y-109417057D01*
X151443837Y-109246343D01*
X151396096Y-109074622D01*
X151337682Y-108903533D01*
X151307235Y-108825220D01*
X151296513Y-108798848D01*
X151286251Y-108774043D01*
X151275793Y-108749338D01*
X151264481Y-108723265D01*
X151251660Y-108694355D01*
X151236672Y-108661140D01*
X151218862Y-108622152D01*
X151197571Y-108575922D01*
X151172144Y-108520983D01*
X151145127Y-108462762D01*
X151072344Y-108294469D01*
X151010780Y-108127404D01*
X150960460Y-107961944D01*
X150921407Y-107798466D01*
X150893647Y-107637346D01*
X150877206Y-107478962D01*
X150872107Y-107323690D01*
X150878376Y-107171908D01*
X150896037Y-107023992D01*
X150925116Y-106880319D01*
X150965638Y-106741267D01*
X151017627Y-106607212D01*
X151021831Y-106597724D01*
X151036329Y-106566827D01*
X151053206Y-106533332D01*
X151071318Y-106499240D01*
X151089526Y-106466551D01*
X151106687Y-106437265D01*
X151121659Y-106413383D01*
X151133303Y-106396905D01*
X151140453Y-106389840D01*
X151140453Y-106142109D01*
X151099181Y-106127795D01*
X150932263Y-106082473D01*
X150762455Y-106048686D01*
X150590356Y-106026611D01*
X150416564Y-106016427D01*
X150288590Y-106017804D01*
X150288590Y-106248601D01*
X150363682Y-106248635D01*
X150440688Y-106250440D01*
X150516384Y-106253921D01*
X150587542Y-106258986D01*
X150650938Y-106265540D01*
X150679150Y-106269412D01*
X150722074Y-106276386D01*
X150767403Y-106284552D01*
X150813539Y-106293540D01*
X150858883Y-106302979D01*
X150901837Y-106312499D01*
X150940804Y-106321731D01*
X150974184Y-106330305D01*
X151000379Y-106337851D01*
X151017791Y-106343999D01*
X151024822Y-106348379D01*
X151024607Y-106349358D01*
X151018645Y-106352601D01*
X151002100Y-106361227D01*
X150975709Y-106374858D01*
X150940208Y-106393119D01*
X150896332Y-106415632D01*
X150844819Y-106442021D01*
X150786404Y-106471908D01*
X150721824Y-106504917D01*
X150651815Y-106540670D01*
X150577113Y-106578792D01*
X150498454Y-106618904D01*
X150416575Y-106660631D01*
X150413852Y-106662018D01*
X150331902Y-106703805D01*
X150253176Y-106744023D01*
X150178409Y-106782295D01*
X150108334Y-106818240D01*
X150043685Y-106851480D01*
X149985197Y-106881636D01*
X149933603Y-106908329D01*
X149889637Y-106931179D01*
X149854034Y-106949807D01*
X149827527Y-106963835D01*
X149810851Y-106972883D01*
X149804739Y-106976572D01*
X149804726Y-106976599D01*
X149809922Y-106980374D01*
X149825411Y-106989580D01*
X149850263Y-107003707D01*
X149883546Y-107022243D01*
X149924331Y-107044677D01*
X149971685Y-107070498D01*
X150024679Y-107099196D01*
X150082382Y-107130258D01*
X150143863Y-107163174D01*
X150165001Y-107174451D01*
X150227571Y-107207870D01*
X150286713Y-107239586D01*
X150341492Y-107269090D01*
X150390971Y-107295871D01*
X150434215Y-107319419D01*
X150470290Y-107339226D01*
X150498260Y-107354780D01*
X150517189Y-107365572D01*
X150526143Y-107371093D01*
X150526750Y-107371671D01*
X150521231Y-107375131D01*
X150505169Y-107384028D01*
X150479304Y-107397972D01*
X150444380Y-107416574D01*
X150401136Y-107439444D01*
X150350314Y-107466192D01*
X150292656Y-107496429D01*
X150228902Y-107529765D01*
X150159795Y-107565811D01*
X150086076Y-107604177D01*
X150008486Y-107644474D01*
X149940962Y-107679478D01*
X149860606Y-107721117D01*
X149783425Y-107761147D01*
X149710168Y-107799177D01*
X149641583Y-107834818D01*
X149578419Y-107867678D01*
X149521423Y-107897368D01*
X149471344Y-107923499D01*
X149428931Y-107945679D01*
X149394931Y-107963519D01*
X149370093Y-107976629D01*
X149355165Y-107984619D01*
X149350836Y-107987083D01*
X149355673Y-107990612D01*
X149370952Y-107999678D01*
X149395900Y-108013859D01*
X149429743Y-108032731D01*
X149471708Y-108055872D01*
X149521022Y-108082859D01*
X149576913Y-108113269D01*
X149638607Y-108146679D01*
X149705331Y-108182667D01*
X149776312Y-108220809D01*
X149850776Y-108260683D01*
X149863531Y-108267500D01*
X149938594Y-108307636D01*
X150010384Y-108346089D01*
X150078119Y-108382436D01*
X150141019Y-108416254D01*
X150198303Y-108447123D01*
X150249189Y-108474620D01*
X150292898Y-108498322D01*
X150328647Y-108517808D01*
X150355657Y-108532656D01*
X150373145Y-108542443D01*
X150380332Y-108546748D01*
X150380474Y-108546900D01*
X150374991Y-108550359D01*
X150359308Y-108559048D01*
X150334519Y-108572388D01*
X150301720Y-108589801D01*
X150262004Y-108610708D01*
X150216466Y-108634531D01*
X150166200Y-108660692D01*
X150112302Y-108688613D01*
X150110667Y-108689458D01*
X150056671Y-108717448D01*
X150006281Y-108743738D01*
X149960591Y-108767744D01*
X149920696Y-108788883D01*
X149887690Y-108806572D01*
X149862668Y-108820227D01*
X149846724Y-108829266D01*
X149840954Y-108833106D01*
X149840950Y-108833133D01*
X149846421Y-108836694D01*
X149862305Y-108845792D01*
X149887804Y-108859995D01*
X149922122Y-108878870D01*
X149964461Y-108901984D01*
X150014024Y-108928904D01*
X150070016Y-108959197D01*
X150131638Y-108992431D01*
X150198094Y-109028172D01*
X150268587Y-109065988D01*
X150337837Y-109103049D01*
X150412034Y-109142721D01*
X150483416Y-109180905D01*
X150551134Y-109217144D01*
X150614339Y-109250985D01*
X150672183Y-109281973D01*
X150723817Y-109309652D01*
X150768394Y-109333569D01*
X150805065Y-109353268D01*
X150832982Y-109368294D01*
X150851296Y-109378194D01*
X150858812Y-109382313D01*
X150882900Y-109395953D01*
X150630212Y-109526623D01*
X150578032Y-109553722D01*
X150529529Y-109579134D01*
X150485828Y-109602254D01*
X150448056Y-109622475D01*
X150417338Y-109639192D01*
X150394800Y-109651798D01*
X150381569Y-109659686D01*
X150378432Y-109662167D01*
X150384049Y-109666173D01*
X150399633Y-109675428D01*
X150423931Y-109689233D01*
X150455689Y-109706893D01*
X150493653Y-109727709D01*
X150536569Y-109750984D01*
X150583087Y-109775970D01*
X150629472Y-109800920D01*
X150671949Y-109824060D01*
X150709301Y-109844706D01*
X150740311Y-109862170D01*
X150763761Y-109875768D01*
X150778433Y-109884813D01*
X150783111Y-109888620D01*
X150783100Y-109888632D01*
X150776990Y-109892081D01*
X150760478Y-109900892D01*
X150734449Y-109914604D01*
X150699788Y-109932756D01*
X150657378Y-109954888D01*
X150608105Y-109980537D01*
X150552853Y-110009244D01*
X150492506Y-110040546D01*
X150427950Y-110073984D01*
X150360068Y-110109096D01*
X150357894Y-110110221D01*
X150290030Y-110145341D01*
X150225554Y-110178790D01*
X150165339Y-110210111D01*
X150110258Y-110238845D01*
X150061187Y-110264532D01*
X150019000Y-110286714D01*
X149984571Y-110304933D01*
X149958773Y-110318730D01*
X149942482Y-110327647D01*
X149936572Y-110331224D01*
X149936564Y-110331250D01*
X149941947Y-110334865D01*
X149957464Y-110344298D01*
X149982240Y-110359038D01*
X150015398Y-110378571D01*
X150056064Y-110402387D01*
X150103361Y-110429973D01*
X150156414Y-110460818D01*
X150214346Y-110494409D01*
X150276283Y-110530234D01*
X150327001Y-110559509D01*
X150391338Y-110596712D01*
X150452235Y-110632120D01*
X150508831Y-110665221D01*
X150560262Y-110695499D01*
X150605666Y-110722441D01*
X150644181Y-110745534D01*
X150674944Y-110764264D01*
X150697094Y-110778118D01*
X150709767Y-110786582D01*
X150712510Y-110789120D01*
X150702020Y-110793344D01*
X150680499Y-110797570D01*
X150649618Y-110801670D01*
X150611044Y-110805517D01*
X150566448Y-110808982D01*
X150517498Y-110811939D01*
X150465864Y-110814258D01*
X150413214Y-110815812D01*
X150361218Y-110816473D01*
X150355300Y-110816486D01*
X150246085Y-110814830D01*
X150145480Y-110809352D01*
X150049864Y-110799651D01*
X149955615Y-110785320D01*
X149859113Y-110765958D01*
X149818725Y-110756631D01*
X149657256Y-110711993D01*
X149501821Y-110656511D01*
X149351448Y-110589759D01*
X149205165Y-110511311D01*
X149078950Y-110432197D01*
X149012968Y-110386694D01*
X148953270Y-110342508D01*
X148896933Y-110297216D01*
X148841036Y-110248393D01*
X148782656Y-110193614D01*
X148735777Y-110147456D01*
X148654865Y-110063426D01*
X148583047Y-109981966D01*
X148517989Y-109900112D01*
X148457352Y-109814902D01*
X148398801Y-109723371D01*
X148390158Y-109709088D01*
X148308821Y-109561673D01*
X148239190Y-109410035D01*
X148181245Y-109254834D01*
X148134970Y-109096730D01*
X148100346Y-108936385D01*
X148077355Y-108774457D01*
X148065980Y-108611609D01*
X148066202Y-108448501D01*
X148078003Y-108285794D01*
X148101366Y-108124147D01*
X148136272Y-107964222D01*
X148182704Y-107806679D01*
X148240643Y-107652178D01*
X148310071Y-107501381D01*
X148390971Y-107354948D01*
X148457050Y-107251500D01*
X148557211Y-107114766D01*
X148666364Y-106986703D01*
X148783935Y-106867648D01*
X148909350Y-106757937D01*
X149042036Y-106657908D01*
X149181417Y-106567896D01*
X149326920Y-106488240D01*
X149477971Y-106419274D01*
X149633996Y-106361337D01*
X149794421Y-106314765D01*
X149958671Y-106279895D01*
X150126173Y-106257062D01*
X150157055Y-106254220D01*
X150218639Y-106250431D01*
X150288590Y-106248601D01*
X150288590Y-106017804D01*
X150241680Y-106018310D01*
X150066301Y-106032439D01*
X149891027Y-106058991D01*
X149834167Y-106070329D01*
X149663090Y-106112825D01*
X149496898Y-106166740D01*
X149336031Y-106231619D01*
X149180926Y-106307007D01*
X149032021Y-106392449D01*
X148889756Y-106487491D01*
X148754567Y-106591678D01*
X148626894Y-106704555D01*
X148507173Y-106825667D01*
X148395845Y-106954560D01*
X148293346Y-107090778D01*
X148200115Y-107233868D01*
X148116590Y-107383374D01*
X148043210Y-107538842D01*
X147980412Y-107699817D01*
X147928635Y-107865843D01*
X147888317Y-108036467D01*
X147876095Y-108102400D01*
X147867360Y-108154632D01*
X147860339Y-108200389D01*
X147854849Y-108242110D01*
X147850708Y-108282232D01*
X147847735Y-108323191D01*
X147845747Y-108367427D01*
X147844563Y-108417375D01*
X147844000Y-108475473D01*
X147843875Y-108534200D01*
X147844033Y-108600309D01*
G36*
X149790224Y-123948993D02*
X149790435Y-123994248D01*
X149790765Y-124033688D01*
X149791196Y-124065817D01*
X149791708Y-124089139D01*
X149792284Y-124102157D01*
X149792653Y-124104400D01*
X149799883Y-124102183D01*
X149818105Y-124095752D01*
X149846456Y-124085436D01*
X149884068Y-124071563D01*
X149930076Y-124054463D01*
X149983613Y-124034463D01*
X150043813Y-124011894D01*
X150109811Y-123987083D01*
X150180741Y-123960359D01*
X150255736Y-123932051D01*
X150333930Y-123902489D01*
X150414458Y-123872000D01*
X150496453Y-123840914D01*
X150579049Y-123809559D01*
X150661380Y-123778264D01*
X150742581Y-123747358D01*
X150821785Y-123717170D01*
X150898126Y-123688028D01*
X150970738Y-123660262D01*
X151038755Y-123634199D01*
X151101311Y-123610170D01*
X151157540Y-123588502D01*
X151206576Y-123569524D01*
X151247554Y-123553566D01*
X151279606Y-123540955D01*
X151301867Y-123532022D01*
X151313471Y-123527094D01*
X151314150Y-123526765D01*
X151384392Y-123486808D01*
X151442673Y-123443309D01*
X151489325Y-123395895D01*
X151524685Y-123344195D01*
X151549087Y-123287837D01*
X151557533Y-123256675D01*
X151565082Y-123210846D01*
X151569635Y-123158246D01*
X151570928Y-123104506D01*
X151568695Y-123055257D01*
X151567528Y-123044082D01*
X151555860Y-122977837D01*
X151536139Y-122911594D01*
X151528705Y-122891550D01*
X151517729Y-122864751D01*
X151505752Y-122838159D01*
X151494059Y-122814324D01*
X151483932Y-122795797D01*
X151476652Y-122785128D01*
X151474396Y-122783533D01*
X151466492Y-122786108D01*
X151449409Y-122793303D01*
X151425056Y-122804202D01*
X151395341Y-122817891D01*
X151362172Y-122833457D01*
X151327458Y-122849986D01*
X151293108Y-122866563D01*
X151261031Y-122882275D01*
X151233135Y-122896207D01*
X151211329Y-122907446D01*
X151197522Y-122915076D01*
X151193500Y-122918051D01*
X151196179Y-122926476D01*
X151203074Y-122942144D01*
X151209427Y-122955154D01*
X151230586Y-123006720D01*
X151241570Y-123056946D01*
X151242072Y-123103889D01*
X151237212Y-123129675D01*
X151227537Y-123150360D01*
X151211282Y-123172066D01*
X151191909Y-123191064D01*
X151172881Y-123203629D01*
X151166322Y-123205976D01*
X151157775Y-123204244D01*
X151137454Y-123197754D01*
X151105360Y-123186507D01*
X151061495Y-123170505D01*
X151005859Y-123149747D01*
X150938455Y-123124234D01*
X150859284Y-123093966D01*
X150768345Y-123058945D01*
X150665642Y-123019169D01*
X150551175Y-122974641D01*
X150476996Y-122945700D01*
X150388564Y-122911183D01*
X150303411Y-122877986D01*
X150222287Y-122846397D01*
X150145941Y-122816707D01*
X150075123Y-122789207D01*
X150010583Y-122764185D01*
X149953070Y-122741934D01*
X149903334Y-122722741D01*
X149862123Y-122706899D01*
X149830188Y-122694697D01*
X149808279Y-122686425D01*
X149797144Y-122682373D01*
X149795872Y-122682000D01*
X149794319Y-122688180D01*
X149793072Y-122706052D01*
X149792149Y-122734608D01*
X149791573Y-122772842D01*
X149791363Y-122819749D01*
X149791540Y-122874323D01*
X149791650Y-122889435D01*
X149793325Y-123096870D01*
X150706345Y-123401206D01*
X150383185Y-123505009D01*
X150316288Y-123526486D01*
X150248603Y-123548197D01*
X150181948Y-123569560D01*
X150118137Y-123589993D01*
X150058986Y-123608916D01*
X150006312Y-123625747D01*
X149961929Y-123639906D01*
X149927655Y-123650810D01*
X149925087Y-123651626D01*
X149790150Y-123694439D01*
X149790150Y-123899419D01*
X149790224Y-123948993D01*
X149790224Y-123948993D01*
G37*
X149790224Y-123948993D02*
X149790435Y-123994248D01*
X149790765Y-124033688D01*
X149791196Y-124065817D01*
X149791708Y-124089139D01*
X149792284Y-124102157D01*
X149792653Y-124104400D01*
X149799883Y-124102183D01*
X149818105Y-124095752D01*
X149846456Y-124085436D01*
X149884068Y-124071563D01*
X149930076Y-124054463D01*
X149983613Y-124034463D01*
X150043813Y-124011894D01*
X150109811Y-123987083D01*
X150180741Y-123960359D01*
X150255736Y-123932051D01*
X150333930Y-123902489D01*
X150414458Y-123872000D01*
X150496453Y-123840914D01*
X150579049Y-123809559D01*
X150661380Y-123778264D01*
X150742581Y-123747358D01*
X150821785Y-123717170D01*
X150898126Y-123688028D01*
X150970738Y-123660262D01*
X151038755Y-123634199D01*
X151101311Y-123610170D01*
X151157540Y-123588502D01*
X151206576Y-123569524D01*
X151247554Y-123553566D01*
X151279606Y-123540955D01*
X151301867Y-123532022D01*
X151313471Y-123527094D01*
X151314150Y-123526765D01*
X151384392Y-123486808D01*
X151442673Y-123443309D01*
X151489325Y-123395895D01*
X151524685Y-123344195D01*
X151549087Y-123287837D01*
X151557533Y-123256675D01*
X151565082Y-123210846D01*
X151569635Y-123158246D01*
X151570928Y-123104506D01*
X151568695Y-123055257D01*
X151567528Y-123044082D01*
X151555860Y-122977837D01*
X151536139Y-122911594D01*
X151528705Y-122891550D01*
X151517729Y-122864751D01*
X151505752Y-122838159D01*
X151494059Y-122814324D01*
X151483932Y-122795797D01*
X151476652Y-122785128D01*
X151474396Y-122783533D01*
X151466492Y-122786108D01*
X151449409Y-122793303D01*
X151425056Y-122804202D01*
X151395341Y-122817891D01*
X151362172Y-122833457D01*
X151327458Y-122849986D01*
X151293108Y-122866563D01*
X151261031Y-122882275D01*
X151233135Y-122896207D01*
X151211329Y-122907446D01*
X151197522Y-122915076D01*
X151193500Y-122918051D01*
X151196179Y-122926476D01*
X151203074Y-122942144D01*
X151209427Y-122955154D01*
X151230586Y-123006720D01*
X151241570Y-123056946D01*
X151242072Y-123103889D01*
X151237212Y-123129675D01*
X151227537Y-123150360D01*
X151211282Y-123172066D01*
X151191909Y-123191064D01*
X151172881Y-123203629D01*
X151166322Y-123205976D01*
X151157775Y-123204244D01*
X151137454Y-123197754D01*
X151105360Y-123186507D01*
X151061495Y-123170505D01*
X151005859Y-123149747D01*
X150938455Y-123124234D01*
X150859284Y-123093966D01*
X150768345Y-123058945D01*
X150665642Y-123019169D01*
X150551175Y-122974641D01*
X150476996Y-122945700D01*
X150388564Y-122911183D01*
X150303411Y-122877986D01*
X150222287Y-122846397D01*
X150145941Y-122816707D01*
X150075123Y-122789207D01*
X150010583Y-122764185D01*
X149953070Y-122741934D01*
X149903334Y-122722741D01*
X149862123Y-122706899D01*
X149830188Y-122694697D01*
X149808279Y-122686425D01*
X149797144Y-122682373D01*
X149795872Y-122682000D01*
X149794319Y-122688180D01*
X149793072Y-122706052D01*
X149792149Y-122734608D01*
X149791573Y-122772842D01*
X149791363Y-122819749D01*
X149791540Y-122874323D01*
X149791650Y-122889435D01*
X149793325Y-123096870D01*
X150706345Y-123401206D01*
X150383185Y-123505009D01*
X150316288Y-123526486D01*
X150248603Y-123548197D01*
X150181948Y-123569560D01*
X150118137Y-123589993D01*
X150058986Y-123608916D01*
X150006312Y-123625747D01*
X149961929Y-123639906D01*
X149927655Y-123650810D01*
X149925087Y-123651626D01*
X149790150Y-123694439D01*
X149790150Y-123899419D01*
X149790224Y-123948993D01*
G36*
X149768466Y-112246310D02*
X149781143Y-112333412D01*
X149802647Y-112413155D01*
X149833481Y-112486861D01*
X149874148Y-112555855D01*
X149925150Y-112621459D01*
X149955619Y-112654362D01*
X149994971Y-112694650D01*
X150033848Y-112657172D01*
X150051273Y-112640521D01*
X150075647Y-112617432D01*
X150104623Y-112590117D01*
X150135855Y-112560790D01*
X150163084Y-112535315D01*
X150253444Y-112450937D01*
X150214007Y-112407427D01*
X150173442Y-112358542D01*
X150143296Y-112312045D01*
X150122327Y-112265296D01*
X150109292Y-112215656D01*
X150103848Y-112173430D01*
X150104391Y-112109126D01*
X150116849Y-112049208D01*
X150141179Y-111993794D01*
X150177334Y-111943000D01*
X150202382Y-111916944D01*
X150254346Y-111875631D01*
X150311358Y-111845294D01*
X150374270Y-111825616D01*
X150443931Y-111816282D01*
X150475950Y-111815370D01*
X150547774Y-111820905D01*
X150614545Y-111837293D01*
X150675320Y-111864167D01*
X150729155Y-111901162D01*
X150752439Y-111922594D01*
X150790914Y-111968303D01*
X150818598Y-112017467D01*
X150836158Y-112071822D01*
X150844261Y-112133104D01*
X150845000Y-112163430D01*
X150839831Y-112224254D01*
X150824419Y-112282280D01*
X150798116Y-112339146D01*
X150760270Y-112396490D01*
X150744551Y-112416518D01*
X150728911Y-112435893D01*
X150715938Y-112452302D01*
X150708180Y-112462516D01*
X150707725Y-112463166D01*
X150707568Y-112467921D01*
X150712158Y-112476203D01*
X150722309Y-112488919D01*
X150738836Y-112506975D01*
X150762553Y-112531276D01*
X150794274Y-112562728D01*
X150818439Y-112586335D01*
X150935504Y-112700247D01*
X150972819Y-112663511D01*
X151021021Y-112611061D01*
X151065424Y-112553080D01*
X151104048Y-112492598D01*
X151134914Y-112432649D01*
X151152072Y-112388989D01*
X151166341Y-112335476D01*
X151177065Y-112273552D01*
X151183981Y-112207075D01*
X151186827Y-112139902D01*
X151185339Y-112075892D01*
X151179254Y-112018901D01*
X151177861Y-112010825D01*
X151155240Y-111919781D01*
X151121912Y-111833255D01*
X151078632Y-111752509D01*
X151026156Y-111678803D01*
X150965241Y-111613397D01*
X150913425Y-111569759D01*
X150836019Y-111519011D01*
X150754079Y-111479346D01*
X150668744Y-111450642D01*
X150581153Y-111432775D01*
X150492446Y-111425620D01*
X150403764Y-111429055D01*
X150316245Y-111442956D01*
X150231030Y-111467198D01*
X150149257Y-111501659D01*
X150072068Y-111546214D01*
X150000601Y-111600740D01*
X149935997Y-111665112D01*
X149925833Y-111676961D01*
X149871521Y-111750753D01*
X149828500Y-111829280D01*
X149796581Y-111913097D01*
X149775573Y-112002759D01*
X149765289Y-112098819D01*
X149764112Y-112150525D01*
X149768466Y-112246310D01*
X149768466Y-112246310D01*
G37*
X149768466Y-112246310D02*
X149781143Y-112333412D01*
X149802647Y-112413155D01*
X149833481Y-112486861D01*
X149874148Y-112555855D01*
X149925150Y-112621459D01*
X149955619Y-112654362D01*
X149994971Y-112694650D01*
X150033848Y-112657172D01*
X150051273Y-112640521D01*
X150075647Y-112617432D01*
X150104623Y-112590117D01*
X150135855Y-112560790D01*
X150163084Y-112535315D01*
X150253444Y-112450937D01*
X150214007Y-112407427D01*
X150173442Y-112358542D01*
X150143296Y-112312045D01*
X150122327Y-112265296D01*
X150109292Y-112215656D01*
X150103848Y-112173430D01*
X150104391Y-112109126D01*
X150116849Y-112049208D01*
X150141179Y-111993794D01*
X150177334Y-111943000D01*
X150202382Y-111916944D01*
X150254346Y-111875631D01*
X150311358Y-111845294D01*
X150374270Y-111825616D01*
X150443931Y-111816282D01*
X150475950Y-111815370D01*
X150547774Y-111820905D01*
X150614545Y-111837293D01*
X150675320Y-111864167D01*
X150729155Y-111901162D01*
X150752439Y-111922594D01*
X150790914Y-111968303D01*
X150818598Y-112017467D01*
X150836158Y-112071822D01*
X150844261Y-112133104D01*
X150845000Y-112163430D01*
X150839831Y-112224254D01*
X150824419Y-112282280D01*
X150798116Y-112339146D01*
X150760270Y-112396490D01*
X150744551Y-112416518D01*
X150728911Y-112435893D01*
X150715938Y-112452302D01*
X150708180Y-112462516D01*
X150707725Y-112463166D01*
X150707568Y-112467921D01*
X150712158Y-112476203D01*
X150722309Y-112488919D01*
X150738836Y-112506975D01*
X150762553Y-112531276D01*
X150794274Y-112562728D01*
X150818439Y-112586335D01*
X150935504Y-112700247D01*
X150972819Y-112663511D01*
X151021021Y-112611061D01*
X151065424Y-112553080D01*
X151104048Y-112492598D01*
X151134914Y-112432649D01*
X151152072Y-112388989D01*
X151166341Y-112335476D01*
X151177065Y-112273552D01*
X151183981Y-112207075D01*
X151186827Y-112139902D01*
X151185339Y-112075892D01*
X151179254Y-112018901D01*
X151177861Y-112010825D01*
X151155240Y-111919781D01*
X151121912Y-111833255D01*
X151078632Y-111752509D01*
X151026156Y-111678803D01*
X150965241Y-111613397D01*
X150913425Y-111569759D01*
X150836019Y-111519011D01*
X150754079Y-111479346D01*
X150668744Y-111450642D01*
X150581153Y-111432775D01*
X150492446Y-111425620D01*
X150403764Y-111429055D01*
X150316245Y-111442956D01*
X150231030Y-111467198D01*
X150149257Y-111501659D01*
X150072068Y-111546214D01*
X150000601Y-111600740D01*
X149935997Y-111665112D01*
X149925833Y-111676961D01*
X149871521Y-111750753D01*
X149828500Y-111829280D01*
X149796581Y-111913097D01*
X149775573Y-112002759D01*
X149765289Y-112098819D01*
X149764112Y-112150525D01*
X149768466Y-112246310D01*
G36*
X149765350Y-113553477D02*
X149769325Y-113603190D01*
X149774323Y-113637642D01*
X149798097Y-113733182D01*
X149832152Y-113822457D01*
X149875937Y-113904809D01*
X149928899Y-113979581D01*
X149990486Y-114046112D01*
X150060146Y-114103746D01*
X150137326Y-114151823D01*
X150221474Y-114189686D01*
X150244175Y-114197692D01*
X150329917Y-114220079D01*
X150418806Y-114231626D01*
X150508803Y-114232474D01*
X150597868Y-114222763D01*
X150683963Y-114202633D01*
X150765049Y-114172223D01*
X150789850Y-114160219D01*
X150872882Y-114110740D01*
X150947052Y-114052251D01*
X151012096Y-113985086D01*
X151067751Y-113909580D01*
X151113753Y-113826069D01*
X151149838Y-113734889D01*
X151165002Y-113682992D01*
X151171893Y-113654391D01*
X151176840Y-113628114D01*
X151180235Y-113600697D01*
X151182471Y-113568679D01*
X151183941Y-113528597D01*
X151184334Y-113512600D01*
X151184799Y-113454611D01*
X151183256Y-113407400D01*
X151179628Y-113369189D01*
X151177591Y-113356114D01*
X151154846Y-113260771D01*
X151121650Y-113171643D01*
X151078652Y-113089352D01*
X151026504Y-113014518D01*
X150965858Y-112947761D01*
X150897363Y-112889704D01*
X150821671Y-112840965D01*
X150739434Y-112802166D01*
X150651300Y-112773927D01*
X150557923Y-112756870D01*
X150547972Y-112755766D01*
X150481664Y-112753346D01*
X150481664Y-113142230D01*
X150547430Y-113149117D01*
X150610423Y-113166072D01*
X150668833Y-113192877D01*
X150720845Y-113229313D01*
X150730382Y-113237794D01*
X150767668Y-113275986D01*
X150795989Y-113314183D01*
X150818353Y-113356614D01*
X150823470Y-113368633D01*
X150837097Y-113414645D01*
X150844183Y-113467218D01*
X150844677Y-113522000D01*
X150838530Y-113574636D01*
X150826370Y-113619006D01*
X150797555Y-113678592D01*
X150759869Y-113729604D01*
X150713885Y-113771393D01*
X150665275Y-113800878D01*
X150617187Y-113821572D01*
X150571400Y-113834675D01*
X150522817Y-113841337D01*
X150479125Y-113842800D01*
X150406950Y-113837701D01*
X150341841Y-113822247D01*
X150283189Y-113796201D01*
X150230386Y-113759326D01*
X150205754Y-113736519D01*
X150163045Y-113684853D01*
X150131569Y-113628134D01*
X150111493Y-113567547D01*
X150102986Y-113504274D01*
X150106217Y-113439499D01*
X150121353Y-113374405D01*
X150145842Y-113315444D01*
X150163652Y-113288298D01*
X150189657Y-113258635D01*
X150220625Y-113229483D01*
X150253327Y-113203871D01*
X150284531Y-113184828D01*
X150285860Y-113184169D01*
X150349066Y-113159537D01*
X150414939Y-113145631D01*
X150481664Y-113142230D01*
X150481664Y-112753346D01*
X150457543Y-112752465D01*
X150366820Y-112760927D01*
X150277747Y-112780669D01*
X150192270Y-112811209D01*
X150112332Y-112852064D01*
X150081961Y-112871445D01*
X150046858Y-112897962D01*
X150008227Y-112931566D01*
X149969649Y-112968821D01*
X149934708Y-113006291D01*
X149910332Y-113036025D01*
X149868484Y-113099689D01*
X149831570Y-113172007D01*
X149801136Y-113249392D01*
X149778728Y-113328257D01*
X149773438Y-113353576D01*
X149767792Y-113395330D01*
X149764571Y-113445358D01*
X149763761Y-113499470D01*
X149765350Y-113553477D01*
X149765350Y-113553477D01*
G37*
X149765350Y-113553477D02*
X149769325Y-113603190D01*
X149774323Y-113637642D01*
X149798097Y-113733182D01*
X149832152Y-113822457D01*
X149875937Y-113904809D01*
X149928899Y-113979581D01*
X149990486Y-114046112D01*
X150060146Y-114103746D01*
X150137326Y-114151823D01*
X150221474Y-114189686D01*
X150244175Y-114197692D01*
X150329917Y-114220079D01*
X150418806Y-114231626D01*
X150508803Y-114232474D01*
X150597868Y-114222763D01*
X150683963Y-114202633D01*
X150765049Y-114172223D01*
X150789850Y-114160219D01*
X150872882Y-114110740D01*
X150947052Y-114052251D01*
X151012096Y-113985086D01*
X151067751Y-113909580D01*
X151113753Y-113826069D01*
X151149838Y-113734889D01*
X151165002Y-113682992D01*
X151171893Y-113654391D01*
X151176840Y-113628114D01*
X151180235Y-113600697D01*
X151182471Y-113568679D01*
X151183941Y-113528597D01*
X151184334Y-113512600D01*
X151184799Y-113454611D01*
X151183256Y-113407400D01*
X151179628Y-113369189D01*
X151177591Y-113356114D01*
X151154846Y-113260771D01*
X151121650Y-113171643D01*
X151078652Y-113089352D01*
X151026504Y-113014518D01*
X150965858Y-112947761D01*
X150897363Y-112889704D01*
X150821671Y-112840965D01*
X150739434Y-112802166D01*
X150651300Y-112773927D01*
X150557923Y-112756870D01*
X150547972Y-112755766D01*
X150481664Y-112753346D01*
X150481664Y-113142230D01*
X150547430Y-113149117D01*
X150610423Y-113166072D01*
X150668833Y-113192877D01*
X150720845Y-113229313D01*
X150730382Y-113237794D01*
X150767668Y-113275986D01*
X150795989Y-113314183D01*
X150818353Y-113356614D01*
X150823470Y-113368633D01*
X150837097Y-113414645D01*
X150844183Y-113467218D01*
X150844677Y-113522000D01*
X150838530Y-113574636D01*
X150826370Y-113619006D01*
X150797555Y-113678592D01*
X150759869Y-113729604D01*
X150713885Y-113771393D01*
X150665275Y-113800878D01*
X150617187Y-113821572D01*
X150571400Y-113834675D01*
X150522817Y-113841337D01*
X150479125Y-113842800D01*
X150406950Y-113837701D01*
X150341841Y-113822247D01*
X150283189Y-113796201D01*
X150230386Y-113759326D01*
X150205754Y-113736519D01*
X150163045Y-113684853D01*
X150131569Y-113628134D01*
X150111493Y-113567547D01*
X150102986Y-113504274D01*
X150106217Y-113439499D01*
X150121353Y-113374405D01*
X150145842Y-113315444D01*
X150163652Y-113288298D01*
X150189657Y-113258635D01*
X150220625Y-113229483D01*
X150253327Y-113203871D01*
X150284531Y-113184828D01*
X150285860Y-113184169D01*
X150349066Y-113159537D01*
X150414939Y-113145631D01*
X150481664Y-113142230D01*
X150481664Y-112753346D01*
X150457543Y-112752465D01*
X150366820Y-112760927D01*
X150277747Y-112780669D01*
X150192270Y-112811209D01*
X150112332Y-112852064D01*
X150081961Y-112871445D01*
X150046858Y-112897962D01*
X150008227Y-112931566D01*
X149969649Y-112968821D01*
X149934708Y-113006291D01*
X149910332Y-113036025D01*
X149868484Y-113099689D01*
X149831570Y-113172007D01*
X149801136Y-113249392D01*
X149778728Y-113328257D01*
X149773438Y-113353576D01*
X149767792Y-113395330D01*
X149764571Y-113445358D01*
X149763761Y-113499470D01*
X149765350Y-113553477D01*
G36*
X149766752Y-117798101D02*
X149770479Y-117849496D01*
X149776216Y-117895214D01*
X149783142Y-117929025D01*
X149811526Y-118012320D01*
X149850425Y-118088787D01*
X149899428Y-118158062D01*
X149958122Y-118219786D01*
X150026092Y-118273596D01*
X150102926Y-118319131D01*
X150188211Y-118356031D01*
X150281534Y-118383932D01*
X150310624Y-118390409D01*
X150334938Y-118394378D01*
X150366749Y-118398057D01*
X150403637Y-118401327D01*
X150443179Y-118404066D01*
X150482953Y-118406154D01*
X150520538Y-118407469D01*
X150553511Y-118407892D01*
X150579451Y-118407300D01*
X150595935Y-118405574D01*
X150598765Y-118404783D01*
X150600751Y-118403267D01*
X150602473Y-118399786D01*
X150603948Y-118393491D01*
X150605196Y-118383537D01*
X150606235Y-118369075D01*
X150607085Y-118349259D01*
X150607764Y-118323242D01*
X150608290Y-118290175D01*
X150608683Y-118249214D01*
X150608961Y-118199509D01*
X150609142Y-118140214D01*
X150609247Y-118070482D01*
X150609292Y-117989466D01*
X150609300Y-117928345D01*
X150609320Y-117852145D01*
X150609380Y-117779754D01*
X150609477Y-117712157D01*
X150609606Y-117650342D01*
X150609764Y-117595292D01*
X150609948Y-117547993D01*
X150610156Y-117509431D01*
X150610383Y-117480592D01*
X150610626Y-117462460D01*
X150610881Y-117456021D01*
X150610887Y-117456018D01*
X150623777Y-117458876D01*
X150644326Y-117465798D01*
X150668760Y-117475322D01*
X150693302Y-117485984D01*
X150712442Y-117495384D01*
X150761969Y-117528642D01*
X150802457Y-117570502D01*
X150833607Y-117620354D01*
X150855123Y-117677586D01*
X150866707Y-117741589D01*
X150868061Y-117811753D01*
X150867912Y-117814456D01*
X150858485Y-117883771D01*
X150838127Y-117949492D01*
X150806269Y-118013001D01*
X150762343Y-118075682D01*
X150758401Y-118080565D01*
X150729243Y-118116360D01*
X150826434Y-118227028D01*
X150854343Y-118258506D01*
X150879706Y-118286541D01*
X150901264Y-118309786D01*
X150917755Y-118326896D01*
X150927921Y-118336523D01*
X150930413Y-118338148D01*
X150938228Y-118333853D01*
X150952384Y-118321695D01*
X150971097Y-118303572D01*
X150992583Y-118281380D01*
X151015057Y-118257018D01*
X151036735Y-118232382D01*
X151055833Y-118209371D01*
X151070567Y-118189881D01*
X151072577Y-118186954D01*
X151116463Y-118110564D01*
X151150351Y-118026973D01*
X151173811Y-117937332D01*
X151180578Y-117897275D01*
X151184181Y-117859849D01*
X151185965Y-117814204D01*
X151185987Y-117764680D01*
X151184304Y-117715619D01*
X151180972Y-117671362D01*
X151177250Y-117642875D01*
X151155812Y-117549825D01*
X151123836Y-117463710D01*
X151081064Y-117384009D01*
X151027238Y-117310201D01*
X150994764Y-117273946D01*
X150926645Y-117211746D01*
X150851488Y-117160068D01*
X150769601Y-117119075D01*
X150681291Y-117088928D01*
X150615650Y-117074335D01*
X150577735Y-117069610D01*
X150531380Y-117066860D01*
X150480528Y-117066049D01*
X150429123Y-117067143D01*
X150381106Y-117070106D01*
X150361650Y-117072400D01*
X150361650Y-117450788D01*
X150361650Y-117735944D01*
X150361625Y-117803641D01*
X150361523Y-117859724D01*
X150361300Y-117905280D01*
X150360916Y-117941392D01*
X150360327Y-117969149D01*
X150359491Y-117989635D01*
X150358366Y-118003936D01*
X150356909Y-118013138D01*
X150355078Y-118018328D01*
X150352832Y-118020591D01*
X150350537Y-118021024D01*
X150332014Y-118018494D01*
X150306126Y-118011926D01*
X150277051Y-118002579D01*
X150248967Y-117991711D01*
X150239975Y-117987702D01*
X150187805Y-117957795D01*
X150146290Y-117921390D01*
X150114796Y-117877809D01*
X150094411Y-117831639D01*
X150087807Y-117809384D01*
X150084026Y-117788184D01*
X150082603Y-117763669D01*
X150083076Y-117731467D01*
X150083252Y-117726497D01*
X150084844Y-117694913D01*
X150087466Y-117671804D01*
X150092025Y-117652942D01*
X150099428Y-117634104D01*
X150106073Y-117620114D01*
X150135868Y-117573737D01*
X150176299Y-117533165D01*
X150226385Y-117499075D01*
X150285142Y-117472143D01*
X150347362Y-117453966D01*
X150361650Y-117450788D01*
X150361650Y-117072400D01*
X150340422Y-117074904D01*
X150329302Y-117076879D01*
X150235247Y-117101339D01*
X150147863Y-117135837D01*
X150067752Y-117179796D01*
X149995516Y-117232640D01*
X149931758Y-117293795D01*
X149877080Y-117362684D01*
X149832083Y-117438733D01*
X149797369Y-117521366D01*
X149773993Y-117607750D01*
X149768656Y-117645856D01*
X149765738Y-117692682D01*
X149765137Y-117744630D01*
X149766752Y-117798101D01*
X149766752Y-117798101D01*
G37*
X149766752Y-117798101D02*
X149770479Y-117849496D01*
X149776216Y-117895214D01*
X149783142Y-117929025D01*
X149811526Y-118012320D01*
X149850425Y-118088787D01*
X149899428Y-118158062D01*
X149958122Y-118219786D01*
X150026092Y-118273596D01*
X150102926Y-118319131D01*
X150188211Y-118356031D01*
X150281534Y-118383932D01*
X150310624Y-118390409D01*
X150334938Y-118394378D01*
X150366749Y-118398057D01*
X150403637Y-118401327D01*
X150443179Y-118404066D01*
X150482953Y-118406154D01*
X150520538Y-118407469D01*
X150553511Y-118407892D01*
X150579451Y-118407300D01*
X150595935Y-118405574D01*
X150598765Y-118404783D01*
X150600751Y-118403267D01*
X150602473Y-118399786D01*
X150603948Y-118393491D01*
X150605196Y-118383537D01*
X150606235Y-118369075D01*
X150607085Y-118349259D01*
X150607764Y-118323242D01*
X150608290Y-118290175D01*
X150608683Y-118249214D01*
X150608961Y-118199509D01*
X150609142Y-118140214D01*
X150609247Y-118070482D01*
X150609292Y-117989466D01*
X150609300Y-117928345D01*
X150609320Y-117852145D01*
X150609380Y-117779754D01*
X150609477Y-117712157D01*
X150609606Y-117650342D01*
X150609764Y-117595292D01*
X150609948Y-117547993D01*
X150610156Y-117509431D01*
X150610383Y-117480592D01*
X150610626Y-117462460D01*
X150610881Y-117456021D01*
X150610887Y-117456018D01*
X150623777Y-117458876D01*
X150644326Y-117465798D01*
X150668760Y-117475322D01*
X150693302Y-117485984D01*
X150712442Y-117495384D01*
X150761969Y-117528642D01*
X150802457Y-117570502D01*
X150833607Y-117620354D01*
X150855123Y-117677586D01*
X150866707Y-117741589D01*
X150868061Y-117811753D01*
X150867912Y-117814456D01*
X150858485Y-117883771D01*
X150838127Y-117949492D01*
X150806269Y-118013001D01*
X150762343Y-118075682D01*
X150758401Y-118080565D01*
X150729243Y-118116360D01*
X150826434Y-118227028D01*
X150854343Y-118258506D01*
X150879706Y-118286541D01*
X150901264Y-118309786D01*
X150917755Y-118326896D01*
X150927921Y-118336523D01*
X150930413Y-118338148D01*
X150938228Y-118333853D01*
X150952384Y-118321695D01*
X150971097Y-118303572D01*
X150992583Y-118281380D01*
X151015057Y-118257018D01*
X151036735Y-118232382D01*
X151055833Y-118209371D01*
X151070567Y-118189881D01*
X151072577Y-118186954D01*
X151116463Y-118110564D01*
X151150351Y-118026973D01*
X151173811Y-117937332D01*
X151180578Y-117897275D01*
X151184181Y-117859849D01*
X151185965Y-117814204D01*
X151185987Y-117764680D01*
X151184304Y-117715619D01*
X151180972Y-117671362D01*
X151177250Y-117642875D01*
X151155812Y-117549825D01*
X151123836Y-117463710D01*
X151081064Y-117384009D01*
X151027238Y-117310201D01*
X150994764Y-117273946D01*
X150926645Y-117211746D01*
X150851488Y-117160068D01*
X150769601Y-117119075D01*
X150681291Y-117088928D01*
X150615650Y-117074335D01*
X150577735Y-117069610D01*
X150531380Y-117066860D01*
X150480528Y-117066049D01*
X150429123Y-117067143D01*
X150381106Y-117070106D01*
X150361650Y-117072400D01*
X150361650Y-117450788D01*
X150361650Y-117735944D01*
X150361625Y-117803641D01*
X150361523Y-117859724D01*
X150361300Y-117905280D01*
X150360916Y-117941392D01*
X150360327Y-117969149D01*
X150359491Y-117989635D01*
X150358366Y-118003936D01*
X150356909Y-118013138D01*
X150355078Y-118018328D01*
X150352832Y-118020591D01*
X150350537Y-118021024D01*
X150332014Y-118018494D01*
X150306126Y-118011926D01*
X150277051Y-118002579D01*
X150248967Y-117991711D01*
X150239975Y-117987702D01*
X150187805Y-117957795D01*
X150146290Y-117921390D01*
X150114796Y-117877809D01*
X150094411Y-117831639D01*
X150087807Y-117809384D01*
X150084026Y-117788184D01*
X150082603Y-117763669D01*
X150083076Y-117731467D01*
X150083252Y-117726497D01*
X150084844Y-117694913D01*
X150087466Y-117671804D01*
X150092025Y-117652942D01*
X150099428Y-117634104D01*
X150106073Y-117620114D01*
X150135868Y-117573737D01*
X150176299Y-117533165D01*
X150226385Y-117499075D01*
X150285142Y-117472143D01*
X150347362Y-117453966D01*
X150361650Y-117450788D01*
X150361650Y-117072400D01*
X150340422Y-117074904D01*
X150329302Y-117076879D01*
X150235247Y-117101339D01*
X150147863Y-117135837D01*
X150067752Y-117179796D01*
X149995516Y-117232640D01*
X149931758Y-117293795D01*
X149877080Y-117362684D01*
X149832083Y-117438733D01*
X149797369Y-117521366D01*
X149773993Y-117607750D01*
X149768656Y-117645856D01*
X149765738Y-117692682D01*
X149765137Y-117744630D01*
X149766752Y-117798101D01*
G36*
X149768592Y-116450467D02*
X149778203Y-116538408D01*
X149797438Y-116629259D01*
X149826482Y-116722242D01*
X149827743Y-116725700D01*
X149838434Y-116752425D01*
X149852065Y-116782921D01*
X149867401Y-116814813D01*
X149883209Y-116845723D01*
X149898257Y-116873279D01*
X149911311Y-116895104D01*
X149921137Y-116908823D01*
X149924404Y-116911869D01*
X149932271Y-116911305D01*
X149949045Y-116904965D01*
X149975188Y-116892630D01*
X150011159Y-116874081D01*
X150057420Y-116849100D01*
X150063287Y-116845878D01*
X150100197Y-116825554D01*
X150133266Y-116807294D01*
X150160912Y-116791976D01*
X150181548Y-116780480D01*
X150193591Y-116773685D01*
X150196037Y-116772228D01*
X150194367Y-116766089D01*
X150188006Y-116750555D01*
X150177838Y-116727643D01*
X150164745Y-116699368D01*
X150156884Y-116682820D01*
X150140456Y-116647451D01*
X150124590Y-116611390D01*
X150110858Y-116578330D01*
X150100827Y-116551965D01*
X150099003Y-116546614D01*
X150083367Y-116489680D01*
X150074787Y-116436749D01*
X150073031Y-116388874D01*
X150077865Y-116347108D01*
X150089056Y-116312507D01*
X150106370Y-116286122D01*
X150129575Y-116269009D01*
X150158436Y-116262221D01*
X150161994Y-116262150D01*
X150187467Y-116265812D01*
X150208026Y-116277969D01*
X150225433Y-116297759D01*
X150244600Y-116329381D01*
X150265603Y-116372997D01*
X150288521Y-116428773D01*
X150313429Y-116496871D01*
X150320081Y-116516150D01*
X150347452Y-116592810D01*
X150373469Y-116658174D01*
X150398720Y-116713493D01*
X150423793Y-116760021D01*
X150449277Y-116799011D01*
X150458841Y-116811668D01*
X150502961Y-116860484D01*
X150550064Y-116897761D01*
X150601661Y-116924218D01*
X150659262Y-116940570D01*
X150724378Y-116947538D01*
X150745571Y-116947905D01*
X150822389Y-116942432D01*
X150892466Y-116926265D01*
X150955578Y-116899608D01*
X151011498Y-116862671D01*
X151059999Y-116815660D01*
X151100857Y-116758781D01*
X151133844Y-116692243D01*
X151158734Y-116616252D01*
X151171111Y-116558180D01*
X151174786Y-116528671D01*
X151177547Y-116490505D01*
X151179308Y-116447562D01*
X151179985Y-116403726D01*
X151179492Y-116362879D01*
X151177744Y-116328902D01*
X151176427Y-116316125D01*
X151163097Y-116240771D01*
X151142775Y-116161893D01*
X151117048Y-116084883D01*
X151088391Y-116016988D01*
X151075830Y-115992428D01*
X151059938Y-115963941D01*
X151042156Y-115933824D01*
X151023926Y-115904376D01*
X151006689Y-115877896D01*
X150991887Y-115856682D01*
X150980962Y-115843033D01*
X150977117Y-115839577D01*
X150970657Y-115841983D01*
X150955424Y-115850253D01*
X150933237Y-115863238D01*
X150905912Y-115879788D01*
X150875267Y-115898754D01*
X150843117Y-115918988D01*
X150811281Y-115939341D01*
X150781574Y-115958662D01*
X150755814Y-115975804D01*
X150735817Y-115989618D01*
X150723401Y-115998954D01*
X150720311Y-116001984D01*
X150722299Y-116008974D01*
X150729973Y-116024300D01*
X150742091Y-116045654D01*
X150756385Y-116069094D01*
X150798792Y-116144084D01*
X150833391Y-116220954D01*
X150858447Y-116295852D01*
X150858494Y-116296026D01*
X150865153Y-116324034D01*
X150869447Y-116351845D01*
X150871806Y-116383529D01*
X150872660Y-116423158D01*
X150872685Y-116430425D01*
X150872529Y-116465346D01*
X150871677Y-116490390D01*
X150869759Y-116508378D01*
X150866405Y-116522128D01*
X150861245Y-116534460D01*
X150858281Y-116540211D01*
X150837025Y-116568529D01*
X150809677Y-116586115D01*
X150777252Y-116592322D01*
X150776474Y-116592326D01*
X150753692Y-116588933D01*
X150733302Y-116578049D01*
X150714574Y-116558678D01*
X150696782Y-116529824D01*
X150679199Y-116490494D01*
X150661096Y-116439692D01*
X150658101Y-116430425D01*
X150638605Y-116369516D01*
X150622452Y-116319346D01*
X150609169Y-116278539D01*
X150598284Y-116245721D01*
X150589326Y-116219518D01*
X150581821Y-116198553D01*
X150575299Y-116181452D01*
X150569286Y-116166840D01*
X150563311Y-116153342D01*
X150561892Y-116150250D01*
X150524104Y-116081122D01*
X150479452Y-116022670D01*
X150451022Y-115994214D01*
X150406195Y-115958994D01*
X150359332Y-115933494D01*
X150308060Y-115916877D01*
X150250007Y-115908305D01*
X150203153Y-115906643D01*
X150140515Y-115909714D01*
X150085956Y-115919181D01*
X150036219Y-115935712D01*
X150015638Y-115945092D01*
X149955011Y-115981735D01*
X149902509Y-116027514D01*
X149858318Y-116081651D01*
X149822626Y-116143368D01*
X149795620Y-116211886D01*
X149777487Y-116286427D01*
X149768415Y-116366214D01*
X149768592Y-116450467D01*
X149768592Y-116450467D01*
G37*
X149768592Y-116450467D02*
X149778203Y-116538408D01*
X149797438Y-116629259D01*
X149826482Y-116722242D01*
X149827743Y-116725700D01*
X149838434Y-116752425D01*
X149852065Y-116782921D01*
X149867401Y-116814813D01*
X149883209Y-116845723D01*
X149898257Y-116873279D01*
X149911311Y-116895104D01*
X149921137Y-116908823D01*
X149924404Y-116911869D01*
X149932271Y-116911305D01*
X149949045Y-116904965D01*
X149975188Y-116892630D01*
X150011159Y-116874081D01*
X150057420Y-116849100D01*
X150063287Y-116845878D01*
X150100197Y-116825554D01*
X150133266Y-116807294D01*
X150160912Y-116791976D01*
X150181548Y-116780480D01*
X150193591Y-116773685D01*
X150196037Y-116772228D01*
X150194367Y-116766089D01*
X150188006Y-116750555D01*
X150177838Y-116727643D01*
X150164745Y-116699368D01*
X150156884Y-116682820D01*
X150140456Y-116647451D01*
X150124590Y-116611390D01*
X150110858Y-116578330D01*
X150100827Y-116551965D01*
X150099003Y-116546614D01*
X150083367Y-116489680D01*
X150074787Y-116436749D01*
X150073031Y-116388874D01*
X150077865Y-116347108D01*
X150089056Y-116312507D01*
X150106370Y-116286122D01*
X150129575Y-116269009D01*
X150158436Y-116262221D01*
X150161994Y-116262150D01*
X150187467Y-116265812D01*
X150208026Y-116277969D01*
X150225433Y-116297759D01*
X150244600Y-116329381D01*
X150265603Y-116372997D01*
X150288521Y-116428773D01*
X150313429Y-116496871D01*
X150320081Y-116516150D01*
X150347452Y-116592810D01*
X150373469Y-116658174D01*
X150398720Y-116713493D01*
X150423793Y-116760021D01*
X150449277Y-116799011D01*
X150458841Y-116811668D01*
X150502961Y-116860484D01*
X150550064Y-116897761D01*
X150601661Y-116924218D01*
X150659262Y-116940570D01*
X150724378Y-116947538D01*
X150745571Y-116947905D01*
X150822389Y-116942432D01*
X150892466Y-116926265D01*
X150955578Y-116899608D01*
X151011498Y-116862671D01*
X151059999Y-116815660D01*
X151100857Y-116758781D01*
X151133844Y-116692243D01*
X151158734Y-116616252D01*
X151171111Y-116558180D01*
X151174786Y-116528671D01*
X151177547Y-116490505D01*
X151179308Y-116447562D01*
X151179985Y-116403726D01*
X151179492Y-116362879D01*
X151177744Y-116328902D01*
X151176427Y-116316125D01*
X151163097Y-116240771D01*
X151142775Y-116161893D01*
X151117048Y-116084883D01*
X151088391Y-116016988D01*
X151075830Y-115992428D01*
X151059938Y-115963941D01*
X151042156Y-115933824D01*
X151023926Y-115904376D01*
X151006689Y-115877896D01*
X150991887Y-115856682D01*
X150980962Y-115843033D01*
X150977117Y-115839577D01*
X150970657Y-115841983D01*
X150955424Y-115850253D01*
X150933237Y-115863238D01*
X150905912Y-115879788D01*
X150875267Y-115898754D01*
X150843117Y-115918988D01*
X150811281Y-115939341D01*
X150781574Y-115958662D01*
X150755814Y-115975804D01*
X150735817Y-115989618D01*
X150723401Y-115998954D01*
X150720311Y-116001984D01*
X150722299Y-116008974D01*
X150729973Y-116024300D01*
X150742091Y-116045654D01*
X150756385Y-116069094D01*
X150798792Y-116144084D01*
X150833391Y-116220954D01*
X150858447Y-116295852D01*
X150858494Y-116296026D01*
X150865153Y-116324034D01*
X150869447Y-116351845D01*
X150871806Y-116383529D01*
X150872660Y-116423158D01*
X150872685Y-116430425D01*
X150872529Y-116465346D01*
X150871677Y-116490390D01*
X150869759Y-116508378D01*
X150866405Y-116522128D01*
X150861245Y-116534460D01*
X150858281Y-116540211D01*
X150837025Y-116568529D01*
X150809677Y-116586115D01*
X150777252Y-116592322D01*
X150776474Y-116592326D01*
X150753692Y-116588933D01*
X150733302Y-116578049D01*
X150714574Y-116558678D01*
X150696782Y-116529824D01*
X150679199Y-116490494D01*
X150661096Y-116439692D01*
X150658101Y-116430425D01*
X150638605Y-116369516D01*
X150622452Y-116319346D01*
X150609169Y-116278539D01*
X150598284Y-116245721D01*
X150589326Y-116219518D01*
X150581821Y-116198553D01*
X150575299Y-116181452D01*
X150569286Y-116166840D01*
X150563311Y-116153342D01*
X150561892Y-116150250D01*
X150524104Y-116081122D01*
X150479452Y-116022670D01*
X150451022Y-115994214D01*
X150406195Y-115958994D01*
X150359332Y-115933494D01*
X150308060Y-115916877D01*
X150250007Y-115908305D01*
X150203153Y-115906643D01*
X150140515Y-115909714D01*
X150085956Y-115919181D01*
X150036219Y-115935712D01*
X150015638Y-115945092D01*
X149955011Y-115981735D01*
X149902509Y-116027514D01*
X149858318Y-116081651D01*
X149822626Y-116143368D01*
X149795620Y-116211886D01*
X149777487Y-116286427D01*
X149768415Y-116366214D01*
X149768592Y-116450467D01*
G36*
X149826662Y-120959468D02*
X149837415Y-120955309D01*
X149859184Y-120946844D01*
X149891157Y-120934390D01*
X149932522Y-120918263D01*
X149982466Y-120898782D01*
X150040178Y-120876262D01*
X150104845Y-120851021D01*
X150175654Y-120823376D01*
X150251794Y-120793644D01*
X150332452Y-120762142D01*
X150416816Y-120729187D01*
X150504073Y-120695096D01*
X150514050Y-120691197D01*
X151164925Y-120436876D01*
X151166611Y-120257526D01*
X151167058Y-120204963D01*
X151167246Y-120163697D01*
X151167102Y-120132328D01*
X151166554Y-120109455D01*
X151165529Y-120093675D01*
X151163954Y-120083589D01*
X151161757Y-120077796D01*
X151158864Y-120074893D01*
X151157086Y-120074070D01*
X151149801Y-120071261D01*
X151131447Y-120064128D01*
X151102781Y-120052967D01*
X151064564Y-120038075D01*
X151017556Y-120019747D01*
X150962515Y-119998280D01*
X150900202Y-119973971D01*
X150831376Y-119947115D01*
X150756795Y-119918009D01*
X150677221Y-119886949D01*
X150593413Y-119854231D01*
X150506129Y-119820152D01*
X150473808Y-119807532D01*
X150385586Y-119773102D01*
X150300644Y-119739991D01*
X150219735Y-119708491D01*
X150143609Y-119678891D01*
X150073019Y-119651482D01*
X150008715Y-119626557D01*
X149951448Y-119604404D01*
X149901970Y-119585316D01*
X149861033Y-119569583D01*
X149829387Y-119557495D01*
X149807784Y-119549345D01*
X149796975Y-119545421D01*
X149795859Y-119545100D01*
X149794316Y-119551277D01*
X149793074Y-119569129D01*
X149792154Y-119597630D01*
X149791578Y-119635757D01*
X149791365Y-119682486D01*
X149791536Y-119736795D01*
X149791650Y-119752535D01*
X149793325Y-119959970D01*
X150240315Y-120108965D01*
X150321451Y-120136110D01*
X150395947Y-120161234D01*
X150463164Y-120184114D01*
X150522461Y-120204524D01*
X150573200Y-120222241D01*
X150614741Y-120237040D01*
X150646445Y-120248697D01*
X150667672Y-120256988D01*
X150677784Y-120261688D01*
X150678465Y-120262626D01*
X150671133Y-120265366D01*
X150652729Y-120271814D01*
X150624220Y-120281639D01*
X150586576Y-120294514D01*
X150540765Y-120310108D01*
X150487755Y-120328093D01*
X150428516Y-120348139D01*
X150364016Y-120369917D01*
X150295223Y-120393098D01*
X150229887Y-120415075D01*
X149790150Y-120562858D01*
X149790150Y-120973417D01*
X149826662Y-120959468D01*
X149826662Y-120959468D01*
G37*
X149826662Y-120959468D02*
X149837415Y-120955309D01*
X149859184Y-120946844D01*
X149891157Y-120934390D01*
X149932522Y-120918263D01*
X149982466Y-120898782D01*
X150040178Y-120876262D01*
X150104845Y-120851021D01*
X150175654Y-120823376D01*
X150251794Y-120793644D01*
X150332452Y-120762142D01*
X150416816Y-120729187D01*
X150504073Y-120695096D01*
X150514050Y-120691197D01*
X151164925Y-120436876D01*
X151166611Y-120257526D01*
X151167058Y-120204963D01*
X151167246Y-120163697D01*
X151167102Y-120132328D01*
X151166554Y-120109455D01*
X151165529Y-120093675D01*
X151163954Y-120083589D01*
X151161757Y-120077796D01*
X151158864Y-120074893D01*
X151157086Y-120074070D01*
X151149801Y-120071261D01*
X151131447Y-120064128D01*
X151102781Y-120052967D01*
X151064564Y-120038075D01*
X151017556Y-120019747D01*
X150962515Y-119998280D01*
X150900202Y-119973971D01*
X150831376Y-119947115D01*
X150756795Y-119918009D01*
X150677221Y-119886949D01*
X150593413Y-119854231D01*
X150506129Y-119820152D01*
X150473808Y-119807532D01*
X150385586Y-119773102D01*
X150300644Y-119739991D01*
X150219735Y-119708491D01*
X150143609Y-119678891D01*
X150073019Y-119651482D01*
X150008715Y-119626557D01*
X149951448Y-119604404D01*
X149901970Y-119585316D01*
X149861033Y-119569583D01*
X149829387Y-119557495D01*
X149807784Y-119549345D01*
X149796975Y-119545421D01*
X149795859Y-119545100D01*
X149794316Y-119551277D01*
X149793074Y-119569129D01*
X149792154Y-119597630D01*
X149791578Y-119635757D01*
X149791365Y-119682486D01*
X149791536Y-119736795D01*
X149791650Y-119752535D01*
X149793325Y-119959970D01*
X150240315Y-120108965D01*
X150321451Y-120136110D01*
X150395947Y-120161234D01*
X150463164Y-120184114D01*
X150522461Y-120204524D01*
X150573200Y-120222241D01*
X150614741Y-120237040D01*
X150646445Y-120248697D01*
X150667672Y-120256988D01*
X150677784Y-120261688D01*
X150678465Y-120262626D01*
X150671133Y-120265366D01*
X150652729Y-120271814D01*
X150624220Y-120281639D01*
X150586576Y-120294514D01*
X150540765Y-120310108D01*
X150487755Y-120328093D01*
X150428516Y-120348139D01*
X150364016Y-120369917D01*
X150295223Y-120393098D01*
X150229887Y-120415075D01*
X149790150Y-120562858D01*
X149790150Y-120973417D01*
X149826662Y-120959468D01*
G36*
X149768110Y-115252686D02*
X149768843Y-115284203D01*
X149770386Y-115308530D01*
X149773002Y-115328417D01*
X149776954Y-115346619D01*
X149782505Y-115365889D01*
X149782789Y-115366800D01*
X149804094Y-115423833D01*
X149830516Y-115472453D01*
X149864398Y-115516642D01*
X149882225Y-115535656D01*
X149937578Y-115582736D01*
X150001113Y-115620205D01*
X150072563Y-115647932D01*
X150146942Y-115665033D01*
X150161484Y-115666327D01*
X150188157Y-115667498D01*
X150226394Y-115668541D01*
X150275624Y-115669447D01*
X150335281Y-115670210D01*
X150404796Y-115670822D01*
X150483599Y-115671276D01*
X150571124Y-115671565D01*
X150666802Y-115671681D01*
X150669625Y-115671682D01*
X151152225Y-115671792D01*
X151153902Y-115474846D01*
X151155580Y-115277900D01*
X150740899Y-115277900D01*
X150654326Y-115277881D01*
X150579459Y-115277785D01*
X150515303Y-115277548D01*
X150460864Y-115277111D01*
X150415148Y-115276411D01*
X150377161Y-115275387D01*
X150345907Y-115273976D01*
X150320394Y-115272118D01*
X150299626Y-115269750D01*
X150282610Y-115266812D01*
X150268351Y-115263241D01*
X150255854Y-115258976D01*
X150244126Y-115253955D01*
X150232173Y-115248118D01*
X150228274Y-115246137D01*
X150192203Y-115221193D01*
X150161045Y-115186722D01*
X150140165Y-115151449D01*
X150132417Y-115133411D01*
X150127504Y-115116739D01*
X150124803Y-115097617D01*
X150123695Y-115072231D01*
X150123535Y-115049300D01*
X150123914Y-115017401D01*
X150125465Y-114994383D01*
X150128803Y-114976441D01*
X150134546Y-114959768D01*
X150140047Y-114947410D01*
X150165171Y-114904363D01*
X150195937Y-114871502D01*
X150226750Y-114850731D01*
X150239762Y-114843747D01*
X150251959Y-114837719D01*
X150264341Y-114832578D01*
X150277910Y-114828252D01*
X150293668Y-114824671D01*
X150312614Y-114821764D01*
X150335750Y-114819462D01*
X150364077Y-114817694D01*
X150398596Y-114816389D01*
X150440309Y-114815477D01*
X150490215Y-114814888D01*
X150549317Y-114814551D01*
X150618614Y-114814396D01*
X150699109Y-114814352D01*
X150743984Y-114814350D01*
X151155400Y-114814350D01*
X151155400Y-114420650D01*
X149790150Y-114420650D01*
X149790150Y-114814350D01*
X149877462Y-114814338D01*
X149964775Y-114814327D01*
X149904450Y-114876504D01*
X149867212Y-114916814D01*
X149838303Y-114953069D01*
X149815613Y-114988451D01*
X149797032Y-115026140D01*
X149784938Y-115056700D01*
X149778647Y-115074694D01*
X149774129Y-115090612D01*
X149771093Y-115107101D01*
X149769247Y-115126810D01*
X149768299Y-115152385D01*
X149767959Y-115186474D01*
X149767925Y-115211225D01*
X149768110Y-115252686D01*
X149768110Y-115252686D01*
G37*
X149768110Y-115252686D02*
X149768843Y-115284203D01*
X149770386Y-115308530D01*
X149773002Y-115328417D01*
X149776954Y-115346619D01*
X149782505Y-115365889D01*
X149782789Y-115366800D01*
X149804094Y-115423833D01*
X149830516Y-115472453D01*
X149864398Y-115516642D01*
X149882225Y-115535656D01*
X149937578Y-115582736D01*
X150001113Y-115620205D01*
X150072563Y-115647932D01*
X150146942Y-115665033D01*
X150161484Y-115666327D01*
X150188157Y-115667498D01*
X150226394Y-115668541D01*
X150275624Y-115669447D01*
X150335281Y-115670210D01*
X150404796Y-115670822D01*
X150483599Y-115671276D01*
X150571124Y-115671565D01*
X150666802Y-115671681D01*
X150669625Y-115671682D01*
X151152225Y-115671792D01*
X151153902Y-115474846D01*
X151155580Y-115277900D01*
X150740899Y-115277900D01*
X150654326Y-115277881D01*
X150579459Y-115277785D01*
X150515303Y-115277548D01*
X150460864Y-115277111D01*
X150415148Y-115276411D01*
X150377161Y-115275387D01*
X150345907Y-115273976D01*
X150320394Y-115272118D01*
X150299626Y-115269750D01*
X150282610Y-115266812D01*
X150268351Y-115263241D01*
X150255854Y-115258976D01*
X150244126Y-115253955D01*
X150232173Y-115248118D01*
X150228274Y-115246137D01*
X150192203Y-115221193D01*
X150161045Y-115186722D01*
X150140165Y-115151449D01*
X150132417Y-115133411D01*
X150127504Y-115116739D01*
X150124803Y-115097617D01*
X150123695Y-115072231D01*
X150123535Y-115049300D01*
X150123914Y-115017401D01*
X150125465Y-114994383D01*
X150128803Y-114976441D01*
X150134546Y-114959768D01*
X150140047Y-114947410D01*
X150165171Y-114904363D01*
X150195937Y-114871502D01*
X150226750Y-114850731D01*
X150239762Y-114843747D01*
X150251959Y-114837719D01*
X150264341Y-114832578D01*
X150277910Y-114828252D01*
X150293668Y-114824671D01*
X150312614Y-114821764D01*
X150335750Y-114819462D01*
X150364077Y-114817694D01*
X150398596Y-114816389D01*
X150440309Y-114815477D01*
X150490215Y-114814888D01*
X150549317Y-114814551D01*
X150618614Y-114814396D01*
X150699109Y-114814352D01*
X150743984Y-114814350D01*
X151155400Y-114814350D01*
X151155400Y-114420650D01*
X149790150Y-114420650D01*
X149790150Y-114814350D01*
X149877462Y-114814338D01*
X149964775Y-114814327D01*
X149904450Y-114876504D01*
X149867212Y-114916814D01*
X149838303Y-114953069D01*
X149815613Y-114988451D01*
X149797032Y-115026140D01*
X149784938Y-115056700D01*
X149778647Y-115074694D01*
X149774129Y-115090612D01*
X149771093Y-115107101D01*
X149769247Y-115126810D01*
X149768299Y-115152385D01*
X149767959Y-115186474D01*
X149767925Y-115211225D01*
X149768110Y-115252686D01*
G36*
X149762103Y-119427471D02*
X149766126Y-119443500D01*
X150169403Y-119443500D01*
X150173752Y-119389898D01*
X150184911Y-119313876D01*
X150205415Y-119246438D01*
X150235363Y-119187463D01*
X150274853Y-119136829D01*
X150323986Y-119094412D01*
X150382861Y-119060091D01*
X150451577Y-119033743D01*
X150466425Y-119029443D01*
X150478373Y-119026277D01*
X150490085Y-119023615D01*
X150502767Y-119021404D01*
X150517629Y-119019590D01*
X150535880Y-119018121D01*
X150558727Y-119016944D01*
X150587380Y-119016005D01*
X150623048Y-119015252D01*
X150666938Y-119014632D01*
X150720259Y-119014090D01*
X150784220Y-119013575D01*
X150836312Y-119013199D01*
X151155400Y-119010952D01*
X151155400Y-118618000D01*
X149790150Y-118618000D01*
X149790150Y-119011700D01*
X149915562Y-119011844D01*
X150040975Y-119011988D01*
X150001990Y-119033003D01*
X149941981Y-119070178D01*
X149889007Y-119112739D01*
X149844393Y-119159254D01*
X149809465Y-119208290D01*
X149785548Y-119258416D01*
X149781309Y-119271410D01*
X149774811Y-119297794D01*
X149769086Y-119328798D01*
X149764565Y-119360917D01*
X149761678Y-119390646D01*
X149760858Y-119414480D01*
X149762103Y-119427471D01*
X149762103Y-119427471D01*
G37*
X149762103Y-119427471D02*
X149766126Y-119443500D01*
X150169403Y-119443500D01*
X150173752Y-119389898D01*
X150184911Y-119313876D01*
X150205415Y-119246438D01*
X150235363Y-119187463D01*
X150274853Y-119136829D01*
X150323986Y-119094412D01*
X150382861Y-119060091D01*
X150451577Y-119033743D01*
X150466425Y-119029443D01*
X150478373Y-119026277D01*
X150490085Y-119023615D01*
X150502767Y-119021404D01*
X150517629Y-119019590D01*
X150535880Y-119018121D01*
X150558727Y-119016944D01*
X150587380Y-119016005D01*
X150623048Y-119015252D01*
X150666938Y-119014632D01*
X150720259Y-119014090D01*
X150784220Y-119013575D01*
X150836312Y-119013199D01*
X151155400Y-119010952D01*
X151155400Y-118618000D01*
X149790150Y-118618000D01*
X149790150Y-119011700D01*
X149915562Y-119011844D01*
X150040975Y-119011988D01*
X150001990Y-119033003D01*
X149941981Y-119070178D01*
X149889007Y-119112739D01*
X149844393Y-119159254D01*
X149809465Y-119208290D01*
X149785548Y-119258416D01*
X149781309Y-119271410D01*
X149774811Y-119297794D01*
X149769086Y-119328798D01*
X149764565Y-119360917D01*
X149761678Y-119390646D01*
X149760858Y-119414480D01*
X149762103Y-119427471D01*
G36*
X150471187Y-121508896D02*
X151152225Y-121507368D01*
X151153902Y-121310459D01*
X151155580Y-121113550D01*
X149790150Y-121113550D01*
X149790149Y-121311987D01*
X149790149Y-121510425D01*
X150471187Y-121508896D01*
X150471187Y-121508896D01*
G37*
X150471187Y-121508896D02*
X151152225Y-121507368D01*
X151153902Y-121310459D01*
X151155580Y-121113550D01*
X149790150Y-121113550D01*
X149790149Y-121311987D01*
X149790149Y-121510425D01*
X150471187Y-121508896D01*
G36*
X149279887Y-122313700D02*
X149280308Y-122363084D01*
X149281692Y-122403168D01*
X149284434Y-122437337D01*
X149288929Y-122468978D01*
X149295573Y-122501478D01*
X149304760Y-122538222D01*
X149307122Y-122547062D01*
X149314389Y-122574050D01*
X149479924Y-122574050D01*
X149530029Y-122574003D01*
X149568817Y-122573800D01*
X149597668Y-122573346D01*
X149617965Y-122572544D01*
X149631090Y-122571300D01*
X149638424Y-122569518D01*
X149641349Y-122567103D01*
X149641248Y-122563958D01*
X149640867Y-122562937D01*
X149629894Y-122529744D01*
X149620591Y-122489220D01*
X149613983Y-122446720D01*
X149611108Y-122407991D01*
X149613558Y-122361609D01*
X149623538Y-122324937D01*
X149641840Y-122297130D01*
X149669252Y-122277343D01*
X149706566Y-122264731D01*
X149750709Y-122258708D01*
X149802624Y-122254970D01*
X149804324Y-122411573D01*
X149806025Y-122568176D01*
X150123525Y-122568176D01*
X150126925Y-122262900D01*
X151155400Y-122262900D01*
X151155400Y-121869200D01*
X150126700Y-121869200D01*
X150126700Y-121710450D01*
X149802850Y-121710450D01*
X149802850Y-121867474D01*
X149709187Y-121870770D01*
X149668223Y-121872918D01*
X149628373Y-121876271D01*
X149593520Y-121880438D01*
X149567900Y-121884950D01*
X149500065Y-121905931D01*
X149441214Y-121935879D01*
X149391225Y-121974907D01*
X149349978Y-122023133D01*
X149317351Y-122080671D01*
X149293224Y-122147638D01*
X149293210Y-122147688D01*
X149288222Y-122167369D01*
X149284619Y-122186725D01*
X149282192Y-122208350D01*
X149280733Y-122234838D01*
X149280034Y-122268785D01*
X149279886Y-122312785D01*
X149279887Y-122313700D01*
X149279887Y-122313700D01*
G37*
X149279887Y-122313700D02*
X149280308Y-122363084D01*
X149281692Y-122403168D01*
X149284434Y-122437337D01*
X149288929Y-122468978D01*
X149295573Y-122501478D01*
X149304760Y-122538222D01*
X149307122Y-122547062D01*
X149314389Y-122574050D01*
X149479924Y-122574050D01*
X149530029Y-122574003D01*
X149568817Y-122573800D01*
X149597668Y-122573346D01*
X149617965Y-122572544D01*
X149631090Y-122571300D01*
X149638424Y-122569518D01*
X149641349Y-122567103D01*
X149641248Y-122563958D01*
X149640867Y-122562937D01*
X149629894Y-122529744D01*
X149620591Y-122489220D01*
X149613983Y-122446720D01*
X149611108Y-122407991D01*
X149613558Y-122361609D01*
X149623538Y-122324937D01*
X149641840Y-122297130D01*
X149669252Y-122277343D01*
X149706566Y-122264731D01*
X149750709Y-122258708D01*
X149802624Y-122254970D01*
X149804324Y-122411573D01*
X149806025Y-122568176D01*
X150123525Y-122568176D01*
X150126925Y-122262900D01*
X151155400Y-122262900D01*
X151155400Y-121869200D01*
X150126700Y-121869200D01*
X150126700Y-121710450D01*
X149802850Y-121710450D01*
X149802850Y-121867474D01*
X149709187Y-121870770D01*
X149668223Y-121872918D01*
X149628373Y-121876271D01*
X149593520Y-121880438D01*
X149567900Y-121884950D01*
X149500065Y-121905931D01*
X149441214Y-121935879D01*
X149391225Y-121974907D01*
X149349978Y-122023133D01*
X149317351Y-122080671D01*
X149293224Y-122147638D01*
X149293210Y-122147688D01*
X149288222Y-122167369D01*
X149284619Y-122186725D01*
X149282192Y-122208350D01*
X149280733Y-122234838D01*
X149280034Y-122268785D01*
X149279886Y-122312785D01*
X149279887Y-122313700D01*
G36*
X149644100Y-121519950D02*
X149644100Y-121107200D01*
X149294850Y-121107200D01*
X149294850Y-121519950D01*
X149644100Y-121519950D01*
X149644100Y-121519950D01*
G37*
X149644100Y-121519950D02*
X149644100Y-121107200D01*
X149294850Y-121107200D01*
X149294850Y-121519950D01*
X149644100Y-121519950D01*
G36*
X148569260Y-108585629D02*
X148584134Y-108654727D01*
X148611010Y-108725490D01*
X148619250Y-108742891D01*
X148635407Y-108773764D01*
X148651538Y-108799076D01*
X148670767Y-108823103D01*
X148696217Y-108850120D01*
X148701365Y-108855296D01*
X148727913Y-108880927D01*
X148750538Y-108899974D01*
X148773556Y-108915513D01*
X148801287Y-108930624D01*
X148819789Y-108939712D01*
X148863209Y-108959455D01*
X148900170Y-108973159D01*
X148934808Y-108981789D01*
X148971257Y-108986313D01*
X149013652Y-108987696D01*
X149024975Y-108987669D01*
X149046328Y-108987286D01*
X149066322Y-108986197D01*
X149085902Y-108984008D01*
X149106015Y-108980328D01*
X149127605Y-108974766D01*
X149151619Y-108966931D01*
X149179004Y-108956430D01*
X149210704Y-108942873D01*
X149247666Y-108925866D01*
X149290837Y-108905020D01*
X149341161Y-108879942D01*
X149399586Y-108850241D01*
X149467056Y-108815525D01*
X149544519Y-108775403D01*
X149571075Y-108761616D01*
X149633649Y-108729058D01*
X149693063Y-108698028D01*
X149748324Y-108669052D01*
X149798443Y-108642653D01*
X149842427Y-108619359D01*
X149879285Y-108599694D01*
X149908026Y-108584184D01*
X149927659Y-108573353D01*
X149937193Y-108567727D01*
X149937787Y-108567284D01*
X149946675Y-108552290D01*
X149948264Y-108533171D01*
X149942309Y-108516264D01*
X149939879Y-108513387D01*
X149931310Y-108507469D01*
X149912609Y-108496359D01*
X149884941Y-108480671D01*
X149849470Y-108461019D01*
X149807358Y-108438016D01*
X149759770Y-108412278D01*
X149707868Y-108384418D01*
X149652818Y-108355051D01*
X149595782Y-108324791D01*
X149537924Y-108294252D01*
X149480408Y-108264049D01*
X149424397Y-108234795D01*
X149371055Y-108207105D01*
X149321545Y-108181593D01*
X149277032Y-108158873D01*
X149238679Y-108139561D01*
X149207649Y-108124269D01*
X149185106Y-108113612D01*
X149172403Y-108108268D01*
X149096003Y-108088174D01*
X149020435Y-108080284D01*
X149008642Y-108080960D01*
X149008642Y-108217722D01*
X149067924Y-108220798D01*
X149123941Y-108234460D01*
X149175667Y-108257681D01*
X149222076Y-108289433D01*
X149262141Y-108328687D01*
X149294835Y-108374417D01*
X149319132Y-108425594D01*
X149334006Y-108481190D01*
X149338430Y-108540178D01*
X149331377Y-108601529D01*
X149329643Y-108609288D01*
X149309315Y-108669733D01*
X149279019Y-108722740D01*
X149239586Y-108767551D01*
X149191850Y-108803410D01*
X149136640Y-108829563D01*
X149074789Y-108845252D01*
X149069177Y-108846089D01*
X149007846Y-108848884D01*
X148949343Y-108840375D01*
X148894717Y-108821656D01*
X148845015Y-108793822D01*
X148801286Y-108757967D01*
X148764578Y-108715187D01*
X148735940Y-108666575D01*
X148716420Y-108613228D01*
X148707066Y-108556239D01*
X148708928Y-108496704D01*
X148712745Y-108473875D01*
X148731477Y-108410464D01*
X148759748Y-108355088D01*
X148797097Y-108308234D01*
X148843064Y-108270387D01*
X148897190Y-108242034D01*
X148947122Y-108226260D01*
X149008642Y-108217722D01*
X149008642Y-108080960D01*
X148946532Y-108084526D01*
X148875129Y-108100832D01*
X148807059Y-108129129D01*
X148785838Y-108140871D01*
X148725867Y-108183263D01*
X148674293Y-108234383D01*
X148632198Y-108292918D01*
X148600666Y-108357555D01*
X148595575Y-108371527D01*
X148575088Y-108445709D01*
X148566280Y-108516517D01*
X148569260Y-108585629D01*
X148569260Y-108585629D01*
G37*
X148569260Y-108585629D02*
X148584134Y-108654727D01*
X148611010Y-108725490D01*
X148619250Y-108742891D01*
X148635407Y-108773764D01*
X148651538Y-108799076D01*
X148670767Y-108823103D01*
X148696217Y-108850120D01*
X148701365Y-108855296D01*
X148727913Y-108880927D01*
X148750538Y-108899974D01*
X148773556Y-108915513D01*
X148801287Y-108930624D01*
X148819789Y-108939712D01*
X148863209Y-108959455D01*
X148900170Y-108973159D01*
X148934808Y-108981789D01*
X148971257Y-108986313D01*
X149013652Y-108987696D01*
X149024975Y-108987669D01*
X149046328Y-108987286D01*
X149066322Y-108986197D01*
X149085902Y-108984008D01*
X149106015Y-108980328D01*
X149127605Y-108974766D01*
X149151619Y-108966931D01*
X149179004Y-108956430D01*
X149210704Y-108942873D01*
X149247666Y-108925866D01*
X149290837Y-108905020D01*
X149341161Y-108879942D01*
X149399586Y-108850241D01*
X149467056Y-108815525D01*
X149544519Y-108775403D01*
X149571075Y-108761616D01*
X149633649Y-108729058D01*
X149693063Y-108698028D01*
X149748324Y-108669052D01*
X149798443Y-108642653D01*
X149842427Y-108619359D01*
X149879285Y-108599694D01*
X149908026Y-108584184D01*
X149927659Y-108573353D01*
X149937193Y-108567727D01*
X149937787Y-108567284D01*
X149946675Y-108552290D01*
X149948264Y-108533171D01*
X149942309Y-108516264D01*
X149939879Y-108513387D01*
X149931310Y-108507469D01*
X149912609Y-108496359D01*
X149884941Y-108480671D01*
X149849470Y-108461019D01*
X149807358Y-108438016D01*
X149759770Y-108412278D01*
X149707868Y-108384418D01*
X149652818Y-108355051D01*
X149595782Y-108324791D01*
X149537924Y-108294252D01*
X149480408Y-108264049D01*
X149424397Y-108234795D01*
X149371055Y-108207105D01*
X149321545Y-108181593D01*
X149277032Y-108158873D01*
X149238679Y-108139561D01*
X149207649Y-108124269D01*
X149185106Y-108113612D01*
X149172403Y-108108268D01*
X149096003Y-108088174D01*
X149020435Y-108080284D01*
X149008642Y-108080960D01*
X149008642Y-108217722D01*
X149067924Y-108220798D01*
X149123941Y-108234460D01*
X149175667Y-108257681D01*
X149222076Y-108289433D01*
X149262141Y-108328687D01*
X149294835Y-108374417D01*
X149319132Y-108425594D01*
X149334006Y-108481190D01*
X149338430Y-108540178D01*
X149331377Y-108601529D01*
X149329643Y-108609288D01*
X149309315Y-108669733D01*
X149279019Y-108722740D01*
X149239586Y-108767551D01*
X149191850Y-108803410D01*
X149136640Y-108829563D01*
X149074789Y-108845252D01*
X149069177Y-108846089D01*
X149007846Y-108848884D01*
X148949343Y-108840375D01*
X148894717Y-108821656D01*
X148845015Y-108793822D01*
X148801286Y-108757967D01*
X148764578Y-108715187D01*
X148735940Y-108666575D01*
X148716420Y-108613228D01*
X148707066Y-108556239D01*
X148708928Y-108496704D01*
X148712745Y-108473875D01*
X148731477Y-108410464D01*
X148759748Y-108355088D01*
X148797097Y-108308234D01*
X148843064Y-108270387D01*
X148897190Y-108242034D01*
X148947122Y-108226260D01*
X149008642Y-108217722D01*
X149008642Y-108080960D01*
X148946532Y-108084526D01*
X148875129Y-108100832D01*
X148807059Y-108129129D01*
X148785838Y-108140871D01*
X148725867Y-108183263D01*
X148674293Y-108234383D01*
X148632198Y-108292918D01*
X148600666Y-108357555D01*
X148595575Y-108371527D01*
X148575088Y-108445709D01*
X148566280Y-108516517D01*
X148569260Y-108585629D01*
D11*
G04 #@! TO.C,J1*
X143758000Y-120109000D02*
X141958000Y-120109000D01*
X141958000Y-120109000D02*
X141958000Y-118259000D01*
X141958000Y-118259000D02*
X141218000Y-118259000D01*
X143758000Y-111539000D02*
X141958000Y-111539000D01*
X141958000Y-111539000D02*
X141958000Y-113389000D01*
X147078000Y-120109000D02*
X147628000Y-120109000D01*
X147628000Y-120109000D02*
X147628000Y-111539000D01*
X147628000Y-111539000D02*
X147078000Y-111539000D01*
G04 #@! TD*
M02*
