G04 #@! TF.GenerationSoftware,KiCad,Pcbnew,5.0.0-fee4fd1~66~ubuntu16.04.1*
G04 #@! TF.CreationDate,2018-09-07T15:40:04-07:00*
G04 #@! TF.ProjectId,fk-weather-sensors,666B2D776561746865722D73656E736F,rev?*
G04 #@! TF.SameCoordinates,Original*
G04 #@! TF.FileFunction,Copper,L2,Bot,Signal*
G04 #@! TF.FilePolarity,Positive*
%FSLAX46Y46*%
G04 Gerber Fmt 4.6, Leading zero omitted, Abs format (unit mm)*
G04 Created by KiCad (PCBNEW 5.0.0-fee4fd1~66~ubuntu16.04.1) date Fri Sep  7 15:40:04 2018*
%MOMM*%
%LPD*%
G01*
G04 APERTURE LIST*
G04 #@! TA.AperFunction,SMDPad,CuDef*
%ADD10R,1.700000X0.600000*%
G04 #@! TD*
G04 #@! TA.AperFunction,SMDPad,CuDef*
%ADD11R,2.800000X1.000000*%
G04 #@! TD*
G04 #@! TA.AperFunction,ViaPad*
%ADD12C,0.600000*%
G04 #@! TD*
G04 #@! TA.AperFunction,Conductor*
%ADD13C,0.250000*%
G04 #@! TD*
G04 #@! TA.AperFunction,Conductor*
%ADD14C,0.203000*%
G04 #@! TD*
G04 APERTURE END LIST*
D10*
G04 #@! TO.P,J1,1*
G04 #@! TO.N,3V3*
X142068000Y-117699000D03*
G04 #@! TO.P,J1,2*
G04 #@! TO.N,GND*
X142068000Y-116449000D03*
G04 #@! TO.P,J1,3*
G04 #@! TO.N,/SCL*
X142068000Y-115199000D03*
G04 #@! TO.P,J1,4*
G04 #@! TO.N,/SDA*
X142068000Y-113949000D03*
D11*
G04 #@! TO.P,J1,*
G04 #@! TO.N,*
X145418000Y-119549000D03*
X145418000Y-112099000D03*
G04 #@! TD*
D12*
G04 #@! TO.N,GND*
X152654000Y-119888000D03*
X144780000Y-116449000D03*
X144780000Y-118110000D03*
X145796000Y-118110000D03*
X145796000Y-116967000D03*
G04 #@! TO.N,3V3*
X142113000Y-118745000D03*
G04 #@! TO.N,/SCL*
X145415000Y-115199000D03*
X153162000Y-107950000D03*
G04 #@! TO.N,/SDA*
X148336000Y-119804264D03*
X144399000Y-114046000D03*
X153924000Y-108204000D03*
X151384000Y-115062000D03*
G04 #@! TD*
D13*
G04 #@! TO.N,GND*
X142068000Y-116449000D02*
X144780000Y-116449000D01*
X144780000Y-116449000D02*
X145278000Y-116449000D01*
X145796000Y-118110000D02*
X144780000Y-118110000D01*
X145278000Y-116449000D02*
X145796000Y-116967000D01*
G04 #@! TO.N,3V3*
X142113000Y-118745000D02*
X142113000Y-117744000D01*
X142113000Y-117744000D02*
X142068000Y-117699000D01*
G04 #@! TO.N,/SCL*
X152898001Y-114436999D02*
X153162000Y-114173000D01*
X153162000Y-114173000D02*
X153162000Y-109728000D01*
X145415000Y-115199000D02*
X146177001Y-114436999D01*
X146177001Y-114436999D02*
X152898001Y-114436999D01*
X145415000Y-115199000D02*
X142068000Y-115199000D01*
X153162000Y-107950000D02*
X153162000Y-109728000D01*
G04 #@! TO.N,/SDA*
X153924000Y-109602410D02*
X153924000Y-114300000D01*
X153924000Y-114300000D02*
X153162000Y-115062000D01*
X153162000Y-115062000D02*
X151384000Y-115062000D01*
X148336000Y-119804264D02*
X148336000Y-115190410D01*
X142068000Y-113949000D02*
X144302000Y-113949000D01*
X144302000Y-113949000D02*
X144399000Y-114046000D01*
X153924000Y-108204000D02*
X153924000Y-109602410D01*
X151384000Y-115062000D02*
X148464410Y-115062000D01*
X148464410Y-115062000D02*
X148337410Y-115189000D01*
G04 #@! TD*
D14*
G04 #@! TO.N,GND*
G36*
X154874501Y-125509500D02*
X140633500Y-125509500D01*
X140633500Y-116563375D01*
X140862500Y-116563375D01*
X140862500Y-116784014D01*
X140876162Y-116852696D01*
X140902960Y-116917393D01*
X140941865Y-116975618D01*
X140991382Y-117025135D01*
X141049608Y-117064040D01*
X141114305Y-117090838D01*
X141156944Y-117099320D01*
X141100909Y-117116318D01*
X141048011Y-117144593D01*
X141001644Y-117182644D01*
X140963593Y-117229011D01*
X140935318Y-117281909D01*
X140917906Y-117339308D01*
X140912027Y-117399000D01*
X140912027Y-117999000D01*
X140917906Y-118058692D01*
X140935318Y-118116091D01*
X140963593Y-118168989D01*
X141001644Y-118215356D01*
X141048011Y-118253407D01*
X141100909Y-118281682D01*
X141158308Y-118299094D01*
X141218000Y-118304973D01*
X141683500Y-118304973D01*
X141683500Y-118319608D01*
X141643454Y-118359654D01*
X141577299Y-118458662D01*
X141531731Y-118568674D01*
X141508500Y-118685462D01*
X141508500Y-118804538D01*
X141531731Y-118921326D01*
X141577299Y-119031338D01*
X141643454Y-119130346D01*
X141727654Y-119214546D01*
X141826662Y-119280701D01*
X141936674Y-119326269D01*
X142053462Y-119349500D01*
X142172538Y-119349500D01*
X142289326Y-119326269D01*
X142399338Y-119280701D01*
X142498346Y-119214546D01*
X142582546Y-119130346D01*
X142636899Y-119049000D01*
X143712027Y-119049000D01*
X143712027Y-120049000D01*
X143717906Y-120108692D01*
X143735318Y-120166091D01*
X143763593Y-120218989D01*
X143801644Y-120265356D01*
X143848011Y-120303407D01*
X143900909Y-120331682D01*
X143958308Y-120349094D01*
X144018000Y-120354973D01*
X146818000Y-120354973D01*
X146877692Y-120349094D01*
X146935091Y-120331682D01*
X146987989Y-120303407D01*
X147034356Y-120265356D01*
X147072407Y-120218989D01*
X147100682Y-120166091D01*
X147118094Y-120108692D01*
X147123973Y-120049000D01*
X147123973Y-119049000D01*
X147118094Y-118989308D01*
X147100682Y-118931909D01*
X147072407Y-118879011D01*
X147034356Y-118832644D01*
X146987989Y-118794593D01*
X146935091Y-118766318D01*
X146877692Y-118748906D01*
X146818000Y-118743027D01*
X144018000Y-118743027D01*
X143958308Y-118748906D01*
X143900909Y-118766318D01*
X143848011Y-118794593D01*
X143801644Y-118832644D01*
X143763593Y-118879011D01*
X143735318Y-118931909D01*
X143717906Y-118989308D01*
X143712027Y-119049000D01*
X142636899Y-119049000D01*
X142648701Y-119031338D01*
X142694269Y-118921326D01*
X142717500Y-118804538D01*
X142717500Y-118685462D01*
X142694269Y-118568674D01*
X142648701Y-118458662D01*
X142582546Y-118359654D01*
X142542500Y-118319608D01*
X142542500Y-118304973D01*
X142918000Y-118304973D01*
X142977692Y-118299094D01*
X143035091Y-118281682D01*
X143087989Y-118253407D01*
X143134356Y-118215356D01*
X143172407Y-118168989D01*
X143200682Y-118116091D01*
X143218094Y-118058692D01*
X143223973Y-117999000D01*
X143223973Y-117399000D01*
X143218094Y-117339308D01*
X143200682Y-117281909D01*
X143172407Y-117229011D01*
X143134356Y-117182644D01*
X143087989Y-117144593D01*
X143035091Y-117116318D01*
X142979056Y-117099320D01*
X143021695Y-117090838D01*
X143086392Y-117064040D01*
X143144618Y-117025135D01*
X143194135Y-116975618D01*
X143233040Y-116917393D01*
X143259838Y-116852696D01*
X143273500Y-116784014D01*
X143273500Y-116563375D01*
X143184625Y-116474500D01*
X142093500Y-116474500D01*
X142093500Y-116494500D01*
X142042500Y-116494500D01*
X142042500Y-116474500D01*
X140951375Y-116474500D01*
X140862500Y-116563375D01*
X140633500Y-116563375D01*
X140633500Y-116113986D01*
X140862500Y-116113986D01*
X140862500Y-116334625D01*
X140951375Y-116423500D01*
X142042500Y-116423500D01*
X142042500Y-116403500D01*
X142093500Y-116403500D01*
X142093500Y-116423500D01*
X143184625Y-116423500D01*
X143273500Y-116334625D01*
X143273500Y-116113986D01*
X143259838Y-116045304D01*
X143233040Y-115980607D01*
X143194135Y-115922382D01*
X143144618Y-115872865D01*
X143086392Y-115833960D01*
X143021695Y-115807162D01*
X142979056Y-115798680D01*
X143035091Y-115781682D01*
X143087989Y-115753407D01*
X143134356Y-115715356D01*
X143172407Y-115668989D01*
X143194049Y-115628500D01*
X144989608Y-115628500D01*
X145029654Y-115668546D01*
X145128662Y-115734701D01*
X145238674Y-115780269D01*
X145355462Y-115803500D01*
X145474538Y-115803500D01*
X145591326Y-115780269D01*
X145701338Y-115734701D01*
X145800346Y-115668546D01*
X145884546Y-115584346D01*
X145950701Y-115485338D01*
X145996269Y-115375326D01*
X146019500Y-115258538D01*
X146019500Y-115201904D01*
X146354906Y-114866499D01*
X148052507Y-114866499D01*
X148047218Y-114871788D01*
X148030829Y-114885238D01*
X147977157Y-114950638D01*
X147937275Y-115025252D01*
X147912716Y-115106213D01*
X147906501Y-115169313D01*
X147906501Y-115182208D01*
X147905832Y-115189000D01*
X147906501Y-115195792D01*
X147906500Y-119378872D01*
X147866454Y-119418918D01*
X147800299Y-119517926D01*
X147754731Y-119627938D01*
X147731500Y-119744726D01*
X147731500Y-119863802D01*
X147754731Y-119980590D01*
X147800299Y-120090602D01*
X147866454Y-120189610D01*
X147950654Y-120273810D01*
X148049662Y-120339965D01*
X148159674Y-120385533D01*
X148276462Y-120408764D01*
X148395538Y-120408764D01*
X148512326Y-120385533D01*
X148622338Y-120339965D01*
X148721346Y-120273810D01*
X148805546Y-120189610D01*
X148871701Y-120090602D01*
X148917269Y-119980590D01*
X148940500Y-119863802D01*
X148940500Y-119744726D01*
X148917269Y-119627938D01*
X148871701Y-119517926D01*
X148805546Y-119418918D01*
X148765500Y-119378872D01*
X148765500Y-115491500D01*
X150958608Y-115491500D01*
X150998654Y-115531546D01*
X151097662Y-115597701D01*
X151207674Y-115643269D01*
X151324462Y-115666500D01*
X151443538Y-115666500D01*
X151560326Y-115643269D01*
X151670338Y-115597701D01*
X151769346Y-115531546D01*
X151809392Y-115491500D01*
X153140903Y-115491500D01*
X153162000Y-115493578D01*
X153183097Y-115491500D01*
X153246197Y-115485285D01*
X153327158Y-115460726D01*
X153401772Y-115420844D01*
X153467172Y-115367172D01*
X153480626Y-115350778D01*
X154212783Y-114618622D01*
X154229172Y-114605172D01*
X154282844Y-114539772D01*
X154322726Y-114465158D01*
X154347285Y-114384197D01*
X154353500Y-114321097D01*
X154355578Y-114300000D01*
X154353500Y-114278903D01*
X154353500Y-108629392D01*
X154393546Y-108589346D01*
X154459701Y-108490338D01*
X154505269Y-108380326D01*
X154528500Y-108263538D01*
X154528500Y-108144462D01*
X154505269Y-108027674D01*
X154459701Y-107917662D01*
X154393546Y-107818654D01*
X154309346Y-107734454D01*
X154210338Y-107668299D01*
X154100326Y-107622731D01*
X153983538Y-107599500D01*
X153864462Y-107599500D01*
X153747674Y-107622731D01*
X153687113Y-107647816D01*
X153631546Y-107564654D01*
X153547346Y-107480454D01*
X153448338Y-107414299D01*
X153338326Y-107368731D01*
X153221538Y-107345500D01*
X153102462Y-107345500D01*
X152985674Y-107368731D01*
X152875662Y-107414299D01*
X152776654Y-107480454D01*
X152692454Y-107564654D01*
X152626299Y-107663662D01*
X152580731Y-107773674D01*
X152557500Y-107890462D01*
X152557500Y-108009538D01*
X152580731Y-108126326D01*
X152626299Y-108236338D01*
X152692454Y-108335346D01*
X152732500Y-108375392D01*
X152732501Y-109706903D01*
X152732500Y-113995096D01*
X152720097Y-114007499D01*
X146198097Y-114007499D01*
X146177000Y-114005421D01*
X146092804Y-114013714D01*
X146011843Y-114038273D01*
X145937229Y-114078155D01*
X145871829Y-114131827D01*
X145858380Y-114148215D01*
X145412096Y-114594500D01*
X145355462Y-114594500D01*
X145238674Y-114617731D01*
X145128662Y-114663299D01*
X145029654Y-114729454D01*
X144989608Y-114769500D01*
X143194049Y-114769500D01*
X143172407Y-114729011D01*
X143134356Y-114682644D01*
X143087989Y-114644593D01*
X143035091Y-114616318D01*
X142977692Y-114598906D01*
X142918000Y-114593027D01*
X141218000Y-114593027D01*
X141158308Y-114598906D01*
X141100909Y-114616318D01*
X141048011Y-114644593D01*
X141001644Y-114682644D01*
X140963593Y-114729011D01*
X140935318Y-114781909D01*
X140917906Y-114839308D01*
X140912027Y-114899000D01*
X140912027Y-115499000D01*
X140917906Y-115558692D01*
X140935318Y-115616091D01*
X140963593Y-115668989D01*
X141001644Y-115715356D01*
X141048011Y-115753407D01*
X141100909Y-115781682D01*
X141156944Y-115798680D01*
X141114305Y-115807162D01*
X141049608Y-115833960D01*
X140991382Y-115872865D01*
X140941865Y-115922382D01*
X140902960Y-115980607D01*
X140876162Y-116045304D01*
X140862500Y-116113986D01*
X140633500Y-116113986D01*
X140633500Y-113649000D01*
X140912027Y-113649000D01*
X140912027Y-114249000D01*
X140917906Y-114308692D01*
X140935318Y-114366091D01*
X140963593Y-114418989D01*
X141001644Y-114465356D01*
X141048011Y-114503407D01*
X141100909Y-114531682D01*
X141158308Y-114549094D01*
X141218000Y-114554973D01*
X142918000Y-114554973D01*
X142977692Y-114549094D01*
X143035091Y-114531682D01*
X143087989Y-114503407D01*
X143134356Y-114465356D01*
X143172407Y-114418989D01*
X143194049Y-114378500D01*
X143894143Y-114378500D01*
X143929454Y-114431346D01*
X144013654Y-114515546D01*
X144112662Y-114581701D01*
X144222674Y-114627269D01*
X144339462Y-114650500D01*
X144458538Y-114650500D01*
X144575326Y-114627269D01*
X144685338Y-114581701D01*
X144784346Y-114515546D01*
X144868546Y-114431346D01*
X144934701Y-114332338D01*
X144980269Y-114222326D01*
X145003500Y-114105538D01*
X145003500Y-113986462D01*
X144980269Y-113869674D01*
X144934701Y-113759662D01*
X144868546Y-113660654D01*
X144784346Y-113576454D01*
X144685338Y-113510299D01*
X144575326Y-113464731D01*
X144458538Y-113441500D01*
X144339462Y-113441500D01*
X144222674Y-113464731D01*
X144112662Y-113510299D01*
X144098892Y-113519500D01*
X143194049Y-113519500D01*
X143172407Y-113479011D01*
X143134356Y-113432644D01*
X143087989Y-113394593D01*
X143035091Y-113366318D01*
X142977692Y-113348906D01*
X142918000Y-113343027D01*
X141218000Y-113343027D01*
X141158308Y-113348906D01*
X141100909Y-113366318D01*
X141048011Y-113394593D01*
X141001644Y-113432644D01*
X140963593Y-113479011D01*
X140935318Y-113531909D01*
X140917906Y-113589308D01*
X140912027Y-113649000D01*
X140633500Y-113649000D01*
X140633500Y-111599000D01*
X143712027Y-111599000D01*
X143712027Y-112599000D01*
X143717906Y-112658692D01*
X143735318Y-112716091D01*
X143763593Y-112768989D01*
X143801644Y-112815356D01*
X143848011Y-112853407D01*
X143900909Y-112881682D01*
X143958308Y-112899094D01*
X144018000Y-112904973D01*
X146818000Y-112904973D01*
X146877692Y-112899094D01*
X146935091Y-112881682D01*
X146987989Y-112853407D01*
X147034356Y-112815356D01*
X147072407Y-112768989D01*
X147100682Y-112716091D01*
X147118094Y-112658692D01*
X147123973Y-112599000D01*
X147123973Y-111599000D01*
X147118094Y-111539308D01*
X147100682Y-111481909D01*
X147072407Y-111429011D01*
X147034356Y-111382644D01*
X146987989Y-111344593D01*
X146935091Y-111316318D01*
X146877692Y-111298906D01*
X146818000Y-111293027D01*
X144018000Y-111293027D01*
X143958308Y-111298906D01*
X143900909Y-111316318D01*
X143848011Y-111344593D01*
X143801644Y-111382644D01*
X143763593Y-111429011D01*
X143735318Y-111481909D01*
X143717906Y-111539308D01*
X143712027Y-111599000D01*
X140633500Y-111599000D01*
X140633500Y-104268500D01*
X154874500Y-104268500D01*
X154874501Y-125509500D01*
X154874501Y-125509500D01*
G37*
X154874501Y-125509500D02*
X140633500Y-125509500D01*
X140633500Y-116563375D01*
X140862500Y-116563375D01*
X140862500Y-116784014D01*
X140876162Y-116852696D01*
X140902960Y-116917393D01*
X140941865Y-116975618D01*
X140991382Y-117025135D01*
X141049608Y-117064040D01*
X141114305Y-117090838D01*
X141156944Y-117099320D01*
X141100909Y-117116318D01*
X141048011Y-117144593D01*
X141001644Y-117182644D01*
X140963593Y-117229011D01*
X140935318Y-117281909D01*
X140917906Y-117339308D01*
X140912027Y-117399000D01*
X140912027Y-117999000D01*
X140917906Y-118058692D01*
X140935318Y-118116091D01*
X140963593Y-118168989D01*
X141001644Y-118215356D01*
X141048011Y-118253407D01*
X141100909Y-118281682D01*
X141158308Y-118299094D01*
X141218000Y-118304973D01*
X141683500Y-118304973D01*
X141683500Y-118319608D01*
X141643454Y-118359654D01*
X141577299Y-118458662D01*
X141531731Y-118568674D01*
X141508500Y-118685462D01*
X141508500Y-118804538D01*
X141531731Y-118921326D01*
X141577299Y-119031338D01*
X141643454Y-119130346D01*
X141727654Y-119214546D01*
X141826662Y-119280701D01*
X141936674Y-119326269D01*
X142053462Y-119349500D01*
X142172538Y-119349500D01*
X142289326Y-119326269D01*
X142399338Y-119280701D01*
X142498346Y-119214546D01*
X142582546Y-119130346D01*
X142636899Y-119049000D01*
X143712027Y-119049000D01*
X143712027Y-120049000D01*
X143717906Y-120108692D01*
X143735318Y-120166091D01*
X143763593Y-120218989D01*
X143801644Y-120265356D01*
X143848011Y-120303407D01*
X143900909Y-120331682D01*
X143958308Y-120349094D01*
X144018000Y-120354973D01*
X146818000Y-120354973D01*
X146877692Y-120349094D01*
X146935091Y-120331682D01*
X146987989Y-120303407D01*
X147034356Y-120265356D01*
X147072407Y-120218989D01*
X147100682Y-120166091D01*
X147118094Y-120108692D01*
X147123973Y-120049000D01*
X147123973Y-119049000D01*
X147118094Y-118989308D01*
X147100682Y-118931909D01*
X147072407Y-118879011D01*
X147034356Y-118832644D01*
X146987989Y-118794593D01*
X146935091Y-118766318D01*
X146877692Y-118748906D01*
X146818000Y-118743027D01*
X144018000Y-118743027D01*
X143958308Y-118748906D01*
X143900909Y-118766318D01*
X143848011Y-118794593D01*
X143801644Y-118832644D01*
X143763593Y-118879011D01*
X143735318Y-118931909D01*
X143717906Y-118989308D01*
X143712027Y-119049000D01*
X142636899Y-119049000D01*
X142648701Y-119031338D01*
X142694269Y-118921326D01*
X142717500Y-118804538D01*
X142717500Y-118685462D01*
X142694269Y-118568674D01*
X142648701Y-118458662D01*
X142582546Y-118359654D01*
X142542500Y-118319608D01*
X142542500Y-118304973D01*
X142918000Y-118304973D01*
X142977692Y-118299094D01*
X143035091Y-118281682D01*
X143087989Y-118253407D01*
X143134356Y-118215356D01*
X143172407Y-118168989D01*
X143200682Y-118116091D01*
X143218094Y-118058692D01*
X143223973Y-117999000D01*
X143223973Y-117399000D01*
X143218094Y-117339308D01*
X143200682Y-117281909D01*
X143172407Y-117229011D01*
X143134356Y-117182644D01*
X143087989Y-117144593D01*
X143035091Y-117116318D01*
X142979056Y-117099320D01*
X143021695Y-117090838D01*
X143086392Y-117064040D01*
X143144618Y-117025135D01*
X143194135Y-116975618D01*
X143233040Y-116917393D01*
X143259838Y-116852696D01*
X143273500Y-116784014D01*
X143273500Y-116563375D01*
X143184625Y-116474500D01*
X142093500Y-116474500D01*
X142093500Y-116494500D01*
X142042500Y-116494500D01*
X142042500Y-116474500D01*
X140951375Y-116474500D01*
X140862500Y-116563375D01*
X140633500Y-116563375D01*
X140633500Y-116113986D01*
X140862500Y-116113986D01*
X140862500Y-116334625D01*
X140951375Y-116423500D01*
X142042500Y-116423500D01*
X142042500Y-116403500D01*
X142093500Y-116403500D01*
X142093500Y-116423500D01*
X143184625Y-116423500D01*
X143273500Y-116334625D01*
X143273500Y-116113986D01*
X143259838Y-116045304D01*
X143233040Y-115980607D01*
X143194135Y-115922382D01*
X143144618Y-115872865D01*
X143086392Y-115833960D01*
X143021695Y-115807162D01*
X142979056Y-115798680D01*
X143035091Y-115781682D01*
X143087989Y-115753407D01*
X143134356Y-115715356D01*
X143172407Y-115668989D01*
X143194049Y-115628500D01*
X144989608Y-115628500D01*
X145029654Y-115668546D01*
X145128662Y-115734701D01*
X145238674Y-115780269D01*
X145355462Y-115803500D01*
X145474538Y-115803500D01*
X145591326Y-115780269D01*
X145701338Y-115734701D01*
X145800346Y-115668546D01*
X145884546Y-115584346D01*
X145950701Y-115485338D01*
X145996269Y-115375326D01*
X146019500Y-115258538D01*
X146019500Y-115201904D01*
X146354906Y-114866499D01*
X148052507Y-114866499D01*
X148047218Y-114871788D01*
X148030829Y-114885238D01*
X147977157Y-114950638D01*
X147937275Y-115025252D01*
X147912716Y-115106213D01*
X147906501Y-115169313D01*
X147906501Y-115182208D01*
X147905832Y-115189000D01*
X147906501Y-115195792D01*
X147906500Y-119378872D01*
X147866454Y-119418918D01*
X147800299Y-119517926D01*
X147754731Y-119627938D01*
X147731500Y-119744726D01*
X147731500Y-119863802D01*
X147754731Y-119980590D01*
X147800299Y-120090602D01*
X147866454Y-120189610D01*
X147950654Y-120273810D01*
X148049662Y-120339965D01*
X148159674Y-120385533D01*
X148276462Y-120408764D01*
X148395538Y-120408764D01*
X148512326Y-120385533D01*
X148622338Y-120339965D01*
X148721346Y-120273810D01*
X148805546Y-120189610D01*
X148871701Y-120090602D01*
X148917269Y-119980590D01*
X148940500Y-119863802D01*
X148940500Y-119744726D01*
X148917269Y-119627938D01*
X148871701Y-119517926D01*
X148805546Y-119418918D01*
X148765500Y-119378872D01*
X148765500Y-115491500D01*
X150958608Y-115491500D01*
X150998654Y-115531546D01*
X151097662Y-115597701D01*
X151207674Y-115643269D01*
X151324462Y-115666500D01*
X151443538Y-115666500D01*
X151560326Y-115643269D01*
X151670338Y-115597701D01*
X151769346Y-115531546D01*
X151809392Y-115491500D01*
X153140903Y-115491500D01*
X153162000Y-115493578D01*
X153183097Y-115491500D01*
X153246197Y-115485285D01*
X153327158Y-115460726D01*
X153401772Y-115420844D01*
X153467172Y-115367172D01*
X153480626Y-115350778D01*
X154212783Y-114618622D01*
X154229172Y-114605172D01*
X154282844Y-114539772D01*
X154322726Y-114465158D01*
X154347285Y-114384197D01*
X154353500Y-114321097D01*
X154355578Y-114300000D01*
X154353500Y-114278903D01*
X154353500Y-108629392D01*
X154393546Y-108589346D01*
X154459701Y-108490338D01*
X154505269Y-108380326D01*
X154528500Y-108263538D01*
X154528500Y-108144462D01*
X154505269Y-108027674D01*
X154459701Y-107917662D01*
X154393546Y-107818654D01*
X154309346Y-107734454D01*
X154210338Y-107668299D01*
X154100326Y-107622731D01*
X153983538Y-107599500D01*
X153864462Y-107599500D01*
X153747674Y-107622731D01*
X153687113Y-107647816D01*
X153631546Y-107564654D01*
X153547346Y-107480454D01*
X153448338Y-107414299D01*
X153338326Y-107368731D01*
X153221538Y-107345500D01*
X153102462Y-107345500D01*
X152985674Y-107368731D01*
X152875662Y-107414299D01*
X152776654Y-107480454D01*
X152692454Y-107564654D01*
X152626299Y-107663662D01*
X152580731Y-107773674D01*
X152557500Y-107890462D01*
X152557500Y-108009538D01*
X152580731Y-108126326D01*
X152626299Y-108236338D01*
X152692454Y-108335346D01*
X152732500Y-108375392D01*
X152732501Y-109706903D01*
X152732500Y-113995096D01*
X152720097Y-114007499D01*
X146198097Y-114007499D01*
X146177000Y-114005421D01*
X146092804Y-114013714D01*
X146011843Y-114038273D01*
X145937229Y-114078155D01*
X145871829Y-114131827D01*
X145858380Y-114148215D01*
X145412096Y-114594500D01*
X145355462Y-114594500D01*
X145238674Y-114617731D01*
X145128662Y-114663299D01*
X145029654Y-114729454D01*
X144989608Y-114769500D01*
X143194049Y-114769500D01*
X143172407Y-114729011D01*
X143134356Y-114682644D01*
X143087989Y-114644593D01*
X143035091Y-114616318D01*
X142977692Y-114598906D01*
X142918000Y-114593027D01*
X141218000Y-114593027D01*
X141158308Y-114598906D01*
X141100909Y-114616318D01*
X141048011Y-114644593D01*
X141001644Y-114682644D01*
X140963593Y-114729011D01*
X140935318Y-114781909D01*
X140917906Y-114839308D01*
X140912027Y-114899000D01*
X140912027Y-115499000D01*
X140917906Y-115558692D01*
X140935318Y-115616091D01*
X140963593Y-115668989D01*
X141001644Y-115715356D01*
X141048011Y-115753407D01*
X141100909Y-115781682D01*
X141156944Y-115798680D01*
X141114305Y-115807162D01*
X141049608Y-115833960D01*
X140991382Y-115872865D01*
X140941865Y-115922382D01*
X140902960Y-115980607D01*
X140876162Y-116045304D01*
X140862500Y-116113986D01*
X140633500Y-116113986D01*
X140633500Y-113649000D01*
X140912027Y-113649000D01*
X140912027Y-114249000D01*
X140917906Y-114308692D01*
X140935318Y-114366091D01*
X140963593Y-114418989D01*
X141001644Y-114465356D01*
X141048011Y-114503407D01*
X141100909Y-114531682D01*
X141158308Y-114549094D01*
X141218000Y-114554973D01*
X142918000Y-114554973D01*
X142977692Y-114549094D01*
X143035091Y-114531682D01*
X143087989Y-114503407D01*
X143134356Y-114465356D01*
X143172407Y-114418989D01*
X143194049Y-114378500D01*
X143894143Y-114378500D01*
X143929454Y-114431346D01*
X144013654Y-114515546D01*
X144112662Y-114581701D01*
X144222674Y-114627269D01*
X144339462Y-114650500D01*
X144458538Y-114650500D01*
X144575326Y-114627269D01*
X144685338Y-114581701D01*
X144784346Y-114515546D01*
X144868546Y-114431346D01*
X144934701Y-114332338D01*
X144980269Y-114222326D01*
X145003500Y-114105538D01*
X145003500Y-113986462D01*
X144980269Y-113869674D01*
X144934701Y-113759662D01*
X144868546Y-113660654D01*
X144784346Y-113576454D01*
X144685338Y-113510299D01*
X144575326Y-113464731D01*
X144458538Y-113441500D01*
X144339462Y-113441500D01*
X144222674Y-113464731D01*
X144112662Y-113510299D01*
X144098892Y-113519500D01*
X143194049Y-113519500D01*
X143172407Y-113479011D01*
X143134356Y-113432644D01*
X143087989Y-113394593D01*
X143035091Y-113366318D01*
X142977692Y-113348906D01*
X142918000Y-113343027D01*
X141218000Y-113343027D01*
X141158308Y-113348906D01*
X141100909Y-113366318D01*
X141048011Y-113394593D01*
X141001644Y-113432644D01*
X140963593Y-113479011D01*
X140935318Y-113531909D01*
X140917906Y-113589308D01*
X140912027Y-113649000D01*
X140633500Y-113649000D01*
X140633500Y-111599000D01*
X143712027Y-111599000D01*
X143712027Y-112599000D01*
X143717906Y-112658692D01*
X143735318Y-112716091D01*
X143763593Y-112768989D01*
X143801644Y-112815356D01*
X143848011Y-112853407D01*
X143900909Y-112881682D01*
X143958308Y-112899094D01*
X144018000Y-112904973D01*
X146818000Y-112904973D01*
X146877692Y-112899094D01*
X146935091Y-112881682D01*
X146987989Y-112853407D01*
X147034356Y-112815356D01*
X147072407Y-112768989D01*
X147100682Y-112716091D01*
X147118094Y-112658692D01*
X147123973Y-112599000D01*
X147123973Y-111599000D01*
X147118094Y-111539308D01*
X147100682Y-111481909D01*
X147072407Y-111429011D01*
X147034356Y-111382644D01*
X146987989Y-111344593D01*
X146935091Y-111316318D01*
X146877692Y-111298906D01*
X146818000Y-111293027D01*
X144018000Y-111293027D01*
X143958308Y-111298906D01*
X143900909Y-111316318D01*
X143848011Y-111344593D01*
X143801644Y-111382644D01*
X143763593Y-111429011D01*
X143735318Y-111481909D01*
X143717906Y-111539308D01*
X143712027Y-111599000D01*
X140633500Y-111599000D01*
X140633500Y-104268500D01*
X154874500Y-104268500D01*
X154874501Y-125509500D01*
G04 #@! TD*
M02*
