G04 #@! TF.GenerationSoftware,KiCad,Pcbnew,5.0.0-fee4fd1~65~ubuntu16.04.1*
G04 #@! TF.CreationDate,2018-07-27T11:23:51-07:00*
G04 #@! TF.ProjectId,fk-weather-sensors,666B2D776561746865722D73656E736F,rev?*
G04 #@! TF.SameCoordinates,Original*
G04 #@! TF.FileFunction,Copper,L1,Top,Signal*
G04 #@! TF.FilePolarity,Positive*
%FSLAX46Y46*%
G04 Gerber Fmt 4.6, Leading zero omitted, Abs format (unit mm)*
G04 Created by KiCad (PCBNEW 5.0.0-fee4fd1~65~ubuntu16.04.1) date Fri Jul 27 11:23:51 2018*
%MOMM*%
%LPD*%
G01*
G04 APERTURE LIST*
G04 #@! TA.AperFunction,SMDPad,CuDef*
%ADD10R,1.100000X0.500000*%
G04 #@! TD*
G04 #@! TA.AperFunction,SMDPad,CuDef*
%ADD11R,0.550000X0.250000*%
G04 #@! TD*
G04 #@! TA.AperFunction,SMDPad,CuDef*
%ADD12R,1.000000X1.700000*%
G04 #@! TD*
G04 #@! TA.AperFunction,SMDPad,CuDef*
%ADD13R,1.200000X0.350000*%
G04 #@! TD*
G04 #@! TA.AperFunction,SMDPad,CuDef*
%ADD14R,1.100000X1.000000*%
G04 #@! TD*
G04 #@! TA.AperFunction,SMDPad,CuDef*
%ADD15R,1.000000X1.100000*%
G04 #@! TD*
G04 #@! TA.AperFunction,ViaPad*
%ADD16C,0.600000*%
G04 #@! TD*
G04 #@! TA.AperFunction,Conductor*
%ADD17C,0.250000*%
G04 #@! TD*
G04 #@! TA.AperFunction,Conductor*
%ADD18C,0.203000*%
G04 #@! TD*
G04 APERTURE END LIST*
D10*
G04 #@! TO.P,U1,1*
G04 #@! TO.N,3V3*
X148818600Y-107908400D03*
G04 #@! TO.P,U1,2*
G04 #@! TO.N,Net-(C1-Pad1)*
X148818600Y-109158400D03*
G04 #@! TO.P,U1,3*
G04 #@! TO.N,GND*
X148818600Y-110408400D03*
G04 #@! TO.P,U1,4*
G04 #@! TO.N,3V3*
X148818600Y-111658400D03*
G04 #@! TO.P,U1,5*
G04 #@! TO.N,Net-(U1-Pad5)*
X151318600Y-111658400D03*
G04 #@! TO.P,U1,6*
G04 #@! TO.N,Net-(U1-Pad6)*
X151318600Y-110408400D03*
G04 #@! TO.P,U1,7*
G04 #@! TO.N,/SDA*
X151318600Y-109158400D03*
G04 #@! TO.P,U1,8*
G04 #@! TO.N,/SCL*
X151318600Y-107908400D03*
G04 #@! TD*
D11*
G04 #@! TO.P,U3,1*
G04 #@! TO.N,/SDA*
X148336000Y-121793000D03*
G04 #@! TO.P,U3,2*
G04 #@! TO.N,GND*
X148336000Y-122293000D03*
G04 #@! TO.P,U3,3*
G04 #@! TO.N,Net-(U3-Pad3)*
X148336000Y-122793000D03*
G04 #@! TO.P,U3,4*
G04 #@! TO.N,/SCL*
X148336000Y-123293000D03*
G04 #@! TO.P,U3,5*
G04 #@! TO.N,3V3*
X150686000Y-123293000D03*
G04 #@! TO.P,U3,6*
X150686000Y-122793000D03*
G04 #@! TO.P,U3,7*
G04 #@! TO.N,GND*
X150686000Y-122293000D03*
G04 #@! TO.P,U3,8*
X150686000Y-121793000D03*
D12*
G04 #@! TO.P,U3,PAD*
X149511000Y-122543000D03*
G04 #@! TD*
D13*
G04 #@! TO.P,U2,1*
G04 #@! TO.N,/SCL*
X148681600Y-116149600D03*
G04 #@! TO.P,U2,2*
G04 #@! TO.N,Net-(U2-Pad2)*
X148681600Y-116799600D03*
G04 #@! TO.P,U2,3*
G04 #@! TO.N,GND*
X148681600Y-117449600D03*
G04 #@! TO.P,U2,4*
G04 #@! TO.N,Net-(U2-Pad4)*
X150181600Y-117449600D03*
G04 #@! TO.P,U2,5*
G04 #@! TO.N,3V3*
X150181600Y-116799600D03*
G04 #@! TO.P,U2,6*
G04 #@! TO.N,/SDA*
X150181600Y-116149600D03*
G04 #@! TD*
D14*
G04 #@! TO.P,C1,1*
G04 #@! TO.N,Net-(C1-Pad1)*
X145376000Y-107442000D03*
G04 #@! TO.P,C1,2*
G04 #@! TO.N,GND*
X143676000Y-107442000D03*
G04 #@! TD*
G04 #@! TO.P,C2,1*
G04 #@! TO.N,3V3*
X145376000Y-105664000D03*
G04 #@! TO.P,C2,2*
G04 #@! TO.N,GND*
X143676000Y-105664000D03*
G04 #@! TD*
D15*
G04 #@! TO.P,C3,1*
G04 #@! TO.N,3V3*
X152654000Y-116371000D03*
G04 #@! TO.P,C3,2*
G04 #@! TO.N,GND*
X152654000Y-118071000D03*
G04 #@! TD*
D14*
G04 #@! TO.P,C4,1*
G04 #@! TO.N,3V3*
X149518000Y-105664000D03*
G04 #@! TO.P,C4,2*
G04 #@! TO.N,GND*
X151218000Y-105664000D03*
G04 #@! TD*
D15*
G04 #@! TO.P,C5,1*
G04 #@! TO.N,3V3*
X152654000Y-123405000D03*
G04 #@! TO.P,C5,2*
G04 #@! TO.N,GND*
X152654000Y-121705000D03*
G04 #@! TD*
D16*
G04 #@! TO.N,GND*
X152654000Y-119888000D03*
X144780000Y-116449000D03*
X144780000Y-118110000D03*
X145796000Y-118110000D03*
X145796000Y-116967000D03*
G04 #@! TO.N,3V3*
X142113000Y-118745000D03*
G04 #@! TO.N,/SCL*
X145415000Y-115199000D03*
X153162000Y-107950000D03*
G04 #@! TO.N,/SDA*
X148336000Y-119804264D03*
X144399000Y-114046000D03*
X153924000Y-108204000D03*
X151384000Y-115062000D03*
G04 #@! TD*
D17*
G04 #@! TO.N,Net-(C1-Pad1)*
X145476000Y-107442000D02*
X145476000Y-108067000D01*
X146567400Y-109158400D02*
X148018600Y-109158400D01*
X145476000Y-108067000D02*
X146567400Y-109158400D01*
X148018600Y-109158400D02*
X148818600Y-109158400D01*
G04 #@! TO.N,GND*
X152654000Y-119888000D02*
X152654000Y-118071000D01*
X152654000Y-120015000D02*
X152654000Y-119888000D01*
X144780000Y-118110000D02*
X144780000Y-116449000D01*
X145796000Y-116967000D02*
X145796000Y-118110000D01*
X149021800Y-118171000D02*
X151902000Y-118171000D01*
X148681600Y-117449600D02*
X148681600Y-117874600D01*
X148681600Y-117874600D02*
X148978000Y-118171000D01*
X148978000Y-118171000D02*
X149021800Y-118171000D01*
X152654000Y-121605000D02*
X152654000Y-120015000D01*
X151902000Y-118171000D02*
X152527000Y-118171000D01*
X148336000Y-122293000D02*
X149261000Y-122293000D01*
X149261000Y-122293000D02*
X149511000Y-122543000D01*
X150686000Y-121793000D02*
X150686000Y-122293000D01*
X150686000Y-122293000D02*
X149761000Y-122293000D01*
X149761000Y-122293000D02*
X149511000Y-122543000D01*
G04 #@! TO.N,3V3*
X147693000Y-113284000D02*
X150114000Y-113284000D01*
X150114000Y-113284000D02*
X150744200Y-113284000D01*
X150114000Y-111252000D02*
X150114000Y-113284000D01*
X150744200Y-113284000D02*
X152654000Y-115193800D01*
X152654000Y-115193800D02*
X152654000Y-116371000D01*
X150686000Y-123293000D02*
X152442000Y-123293000D01*
X152442000Y-123293000D02*
X152654000Y-123505000D01*
X153924000Y-116891000D02*
X153404000Y-116371000D01*
X152654000Y-123505000D02*
X153279000Y-123505000D01*
X153404000Y-116371000D02*
X152654000Y-116371000D01*
X153279000Y-123505000D02*
X153924000Y-122860000D01*
X153924000Y-122860000D02*
X153924000Y-116891000D01*
X150181600Y-116799600D02*
X151348400Y-116799600D01*
X151348400Y-116799600D02*
X151777000Y-116371000D01*
X151777000Y-116371000D02*
X152654000Y-116371000D01*
X143510000Y-118364000D02*
X143129000Y-118745000D01*
X143129000Y-118745000D02*
X142113000Y-118745000D01*
X143510000Y-114046000D02*
X143510000Y-118364000D01*
X144272000Y-113284000D02*
X143510000Y-114046000D01*
X147693000Y-113284000D02*
X144272000Y-113284000D01*
X148818600Y-107908400D02*
X149618600Y-107908400D01*
X149618600Y-107908400D02*
X150114000Y-108403800D01*
X150114000Y-108403800D02*
X150114000Y-111252000D01*
X149707600Y-111658400D02*
X148818600Y-111658400D01*
X150114000Y-111252000D02*
X149707600Y-111658400D01*
X145476000Y-105664000D02*
X149418000Y-105664000D01*
X148818600Y-107908400D02*
X148818600Y-106263400D01*
X148818600Y-106263400D02*
X149418000Y-105664000D01*
X150686000Y-122793000D02*
X150686000Y-123293000D01*
G04 #@! TO.N,/SCL*
X148681600Y-116149600D02*
X147831600Y-116149600D01*
X147831600Y-116149600D02*
X147193000Y-116149600D01*
X147066000Y-116149600D02*
X147193000Y-116149600D01*
X147193000Y-122675000D02*
X147193000Y-116149600D01*
X146365600Y-116149600D02*
X147066000Y-116149600D01*
X145415000Y-115199000D02*
X146365600Y-116149600D01*
X147811000Y-123293000D02*
X148336000Y-123293000D01*
X147193000Y-122675000D02*
X147811000Y-123293000D01*
X151318600Y-107908400D02*
X153120400Y-107908400D01*
X153120400Y-107908400D02*
X153162000Y-107950000D01*
G04 #@! TO.N,/SDA*
X150181600Y-116149600D02*
X151185400Y-116149600D01*
X151185400Y-116149600D02*
X151384000Y-115951000D01*
X151384000Y-115951000D02*
X151384000Y-115062000D01*
X144399000Y-114046000D02*
X150368000Y-114046000D01*
X150368000Y-114046000D02*
X151384000Y-115062000D01*
X148336000Y-119804264D02*
X148336000Y-121158000D01*
X148336000Y-121158000D02*
X148336000Y-121793000D01*
X151318600Y-109158400D02*
X152969600Y-109158400D01*
X152969600Y-109158400D02*
X153924000Y-108204000D01*
X148336000Y-121793000D02*
X148336000Y-121418000D01*
G04 #@! TD*
D18*
G04 #@! TO.N,GND*
G36*
X154874501Y-125509500D02*
X140633500Y-125509500D01*
X140633500Y-118685462D01*
X141508500Y-118685462D01*
X141508500Y-118804538D01*
X141531731Y-118921326D01*
X141577299Y-119031338D01*
X141643454Y-119130346D01*
X141727654Y-119214546D01*
X141826662Y-119280701D01*
X141936674Y-119326269D01*
X142053462Y-119349500D01*
X142172538Y-119349500D01*
X142289326Y-119326269D01*
X142399338Y-119280701D01*
X142498346Y-119214546D01*
X142538392Y-119174500D01*
X143107903Y-119174500D01*
X143129000Y-119176578D01*
X143150097Y-119174500D01*
X143213197Y-119168285D01*
X143294158Y-119143726D01*
X143368772Y-119103844D01*
X143434172Y-119050172D01*
X143447627Y-119033777D01*
X143798777Y-118682627D01*
X143815172Y-118669172D01*
X143868844Y-118603772D01*
X143908726Y-118529158D01*
X143933285Y-118448197D01*
X143939500Y-118385097D01*
X143941578Y-118364001D01*
X143939500Y-118342904D01*
X143939500Y-114441392D01*
X144013654Y-114515546D01*
X144112662Y-114581701D01*
X144222674Y-114627269D01*
X144339462Y-114650500D01*
X144458538Y-114650500D01*
X144575326Y-114627269D01*
X144685338Y-114581701D01*
X144784346Y-114515546D01*
X144824392Y-114475500D01*
X150190096Y-114475500D01*
X150779500Y-115064905D01*
X150779500Y-115121538D01*
X150802731Y-115238326D01*
X150848299Y-115348338D01*
X150914454Y-115447346D01*
X150954501Y-115487393D01*
X150954500Y-115720100D01*
X150951415Y-115720100D01*
X150898691Y-115691918D01*
X150841292Y-115674506D01*
X150781600Y-115668627D01*
X149581600Y-115668627D01*
X149521908Y-115674506D01*
X149464509Y-115691918D01*
X149431600Y-115709508D01*
X149398691Y-115691918D01*
X149341292Y-115674506D01*
X149281600Y-115668627D01*
X148081600Y-115668627D01*
X148021908Y-115674506D01*
X147964509Y-115691918D01*
X147911785Y-115720100D01*
X147214097Y-115720100D01*
X147193000Y-115718022D01*
X147171903Y-115720100D01*
X146543504Y-115720100D01*
X146019500Y-115196096D01*
X146019500Y-115139462D01*
X145996269Y-115022674D01*
X145950701Y-114912662D01*
X145884546Y-114813654D01*
X145800346Y-114729454D01*
X145701338Y-114663299D01*
X145591326Y-114617731D01*
X145474538Y-114594500D01*
X145355462Y-114594500D01*
X145238674Y-114617731D01*
X145128662Y-114663299D01*
X145029654Y-114729454D01*
X144945454Y-114813654D01*
X144879299Y-114912662D01*
X144833731Y-115022674D01*
X144810500Y-115139462D01*
X144810500Y-115258538D01*
X144833731Y-115375326D01*
X144879299Y-115485338D01*
X144945454Y-115584346D01*
X145029654Y-115668546D01*
X145128662Y-115734701D01*
X145238674Y-115780269D01*
X145355462Y-115803500D01*
X145412096Y-115803500D01*
X146046973Y-116438377D01*
X146060428Y-116454772D01*
X146125828Y-116508444D01*
X146200442Y-116548326D01*
X146281403Y-116572885D01*
X146365599Y-116581178D01*
X146386696Y-116579100D01*
X146763501Y-116579100D01*
X146763500Y-122653903D01*
X146761422Y-122675000D01*
X146764752Y-122708804D01*
X146769715Y-122759196D01*
X146794274Y-122840157D01*
X146834156Y-122914771D01*
X146887828Y-122980172D01*
X146904222Y-122993626D01*
X147492378Y-123581783D01*
X147505828Y-123598172D01*
X147571228Y-123651844D01*
X147645842Y-123691726D01*
X147726803Y-123716285D01*
X147811000Y-123724578D01*
X147832097Y-123722500D01*
X148046044Y-123722500D01*
X148061000Y-123723973D01*
X148611000Y-123723973D01*
X148670692Y-123718094D01*
X148728091Y-123700682D01*
X148780989Y-123672407D01*
X148784709Y-123669354D01*
X148842607Y-123708040D01*
X148907304Y-123734838D01*
X148975986Y-123748500D01*
X149396625Y-123748500D01*
X149485500Y-123659625D01*
X149485500Y-122568500D01*
X149465500Y-122568500D01*
X149465500Y-122517500D01*
X149485500Y-122517500D01*
X149485500Y-121426375D01*
X149396625Y-121337500D01*
X148975986Y-121337500D01*
X148907304Y-121351162D01*
X148842607Y-121377960D01*
X148784709Y-121416646D01*
X148780989Y-121413593D01*
X148765500Y-121405314D01*
X148765500Y-121119986D01*
X151798500Y-121119986D01*
X151798500Y-121590625D01*
X151887375Y-121679500D01*
X152628500Y-121679500D01*
X152628500Y-120888375D01*
X152539625Y-120799500D01*
X152118987Y-120799500D01*
X152050305Y-120813162D01*
X151985608Y-120839960D01*
X151927382Y-120878865D01*
X151877865Y-120928382D01*
X151838960Y-120986607D01*
X151812162Y-121051304D01*
X151798500Y-121119986D01*
X148765500Y-121119986D01*
X148765500Y-120229656D01*
X148805546Y-120189610D01*
X148871701Y-120090602D01*
X148917269Y-119980590D01*
X148940500Y-119863802D01*
X148940500Y-119744726D01*
X148917269Y-119627938D01*
X148871701Y-119517926D01*
X148805546Y-119418918D01*
X148721346Y-119334718D01*
X148622338Y-119268563D01*
X148512326Y-119222995D01*
X148395538Y-119199764D01*
X148276462Y-119199764D01*
X148159674Y-119222995D01*
X148049662Y-119268563D01*
X147950654Y-119334718D01*
X147866454Y-119418918D01*
X147800299Y-119517926D01*
X147754731Y-119627938D01*
X147731500Y-119744726D01*
X147731500Y-119863802D01*
X147754731Y-119980590D01*
X147800299Y-120090602D01*
X147866454Y-120189610D01*
X147906500Y-120229656D01*
X147906501Y-121136894D01*
X147906500Y-121136904D01*
X147906500Y-121405314D01*
X147891011Y-121413593D01*
X147844644Y-121451644D01*
X147806593Y-121498011D01*
X147778318Y-121550909D01*
X147760906Y-121608308D01*
X147755027Y-121668000D01*
X147755027Y-121918000D01*
X147760867Y-121977298D01*
X147745960Y-121999608D01*
X147719162Y-122064305D01*
X147705500Y-122132987D01*
X147705500Y-122178625D01*
X147794375Y-122267500D01*
X148310500Y-122267500D01*
X148310500Y-122247500D01*
X148361500Y-122247500D01*
X148361500Y-122267500D01*
X148381500Y-122267500D01*
X148381500Y-122318500D01*
X148361500Y-122318500D01*
X148361500Y-122338500D01*
X148310500Y-122338500D01*
X148310500Y-122318500D01*
X147794375Y-122318500D01*
X147705500Y-122407375D01*
X147705500Y-122453013D01*
X147719162Y-122521695D01*
X147745960Y-122586392D01*
X147760867Y-122608702D01*
X147758468Y-122633063D01*
X147622500Y-122497096D01*
X147622500Y-118185375D01*
X151798500Y-118185375D01*
X151798500Y-118656014D01*
X151812162Y-118724696D01*
X151838960Y-118789393D01*
X151877865Y-118847618D01*
X151927382Y-118897135D01*
X151985608Y-118936040D01*
X152050305Y-118962838D01*
X152118987Y-118976500D01*
X152539625Y-118976500D01*
X152628500Y-118887625D01*
X152628500Y-118096500D01*
X151887375Y-118096500D01*
X151798500Y-118185375D01*
X147622500Y-118185375D01*
X147622500Y-117563975D01*
X147726100Y-117563975D01*
X147726100Y-117659613D01*
X147739762Y-117728295D01*
X147766560Y-117792992D01*
X147805465Y-117851218D01*
X147854982Y-117900735D01*
X147913207Y-117939640D01*
X147977904Y-117966438D01*
X148046586Y-117980100D01*
X148567225Y-117980100D01*
X148656100Y-117891225D01*
X148656100Y-117475100D01*
X147814975Y-117475100D01*
X147726100Y-117563975D01*
X147622500Y-117563975D01*
X147622500Y-116579100D01*
X147780108Y-116579100D01*
X147775627Y-116624600D01*
X147775627Y-116974600D01*
X147781506Y-117034292D01*
X147791843Y-117068369D01*
X147766560Y-117106208D01*
X147739762Y-117170905D01*
X147726100Y-117239587D01*
X147726100Y-117335225D01*
X147814975Y-117424100D01*
X148656100Y-117424100D01*
X148656100Y-117404100D01*
X148707100Y-117404100D01*
X148707100Y-117424100D01*
X148727100Y-117424100D01*
X148727100Y-117475100D01*
X148707100Y-117475100D01*
X148707100Y-117891225D01*
X148795975Y-117980100D01*
X149316614Y-117980100D01*
X149385296Y-117966438D01*
X149449993Y-117939640D01*
X149487832Y-117914357D01*
X149521908Y-117924694D01*
X149581600Y-117930573D01*
X150781600Y-117930573D01*
X150841292Y-117924694D01*
X150898691Y-117907282D01*
X150951589Y-117879007D01*
X150997956Y-117840956D01*
X151036007Y-117794589D01*
X151064282Y-117741691D01*
X151081694Y-117684292D01*
X151087573Y-117624600D01*
X151087573Y-117274600D01*
X151083092Y-117229100D01*
X151327303Y-117229100D01*
X151348400Y-117231178D01*
X151369497Y-117229100D01*
X151432597Y-117222885D01*
X151513558Y-117198326D01*
X151588172Y-117158444D01*
X151653572Y-117104772D01*
X151667026Y-117088378D01*
X151848027Y-116907377D01*
X151848027Y-116921000D01*
X151853906Y-116980692D01*
X151871318Y-117038091D01*
X151899593Y-117090989D01*
X151937644Y-117137356D01*
X151984011Y-117175407D01*
X152016912Y-117192993D01*
X151985608Y-117205960D01*
X151927382Y-117244865D01*
X151877865Y-117294382D01*
X151838960Y-117352607D01*
X151812162Y-117417304D01*
X151798500Y-117485986D01*
X151798500Y-117956625D01*
X151887375Y-118045500D01*
X152628500Y-118045500D01*
X152628500Y-118025500D01*
X152679500Y-118025500D01*
X152679500Y-118045500D01*
X152699500Y-118045500D01*
X152699500Y-118096500D01*
X152679500Y-118096500D01*
X152679500Y-118887625D01*
X152768375Y-118976500D01*
X153189013Y-118976500D01*
X153257695Y-118962838D01*
X153322392Y-118936040D01*
X153380618Y-118897135D01*
X153430135Y-118847618D01*
X153469040Y-118789393D01*
X153494501Y-118727925D01*
X153494500Y-121048074D01*
X153469040Y-120986607D01*
X153430135Y-120928382D01*
X153380618Y-120878865D01*
X153322392Y-120839960D01*
X153257695Y-120813162D01*
X153189013Y-120799500D01*
X152768375Y-120799500D01*
X152679500Y-120888375D01*
X152679500Y-121679500D01*
X152699500Y-121679500D01*
X152699500Y-121730500D01*
X152679500Y-121730500D01*
X152679500Y-121750500D01*
X152628500Y-121750500D01*
X152628500Y-121730500D01*
X151887375Y-121730500D01*
X151798500Y-121819375D01*
X151798500Y-122290014D01*
X151812162Y-122358696D01*
X151838960Y-122423393D01*
X151877865Y-122481618D01*
X151927382Y-122531135D01*
X151985608Y-122570040D01*
X152016912Y-122583007D01*
X151984011Y-122600593D01*
X151937644Y-122638644D01*
X151899593Y-122685011D01*
X151871318Y-122737909D01*
X151853906Y-122795308D01*
X151848027Y-122855000D01*
X151848027Y-122863500D01*
X151266973Y-122863500D01*
X151266973Y-122668000D01*
X151261133Y-122608702D01*
X151276040Y-122586392D01*
X151302838Y-122521695D01*
X151316500Y-122453013D01*
X151316500Y-122407375D01*
X151227625Y-122318500D01*
X150711500Y-122318500D01*
X150711500Y-122338500D01*
X150660500Y-122338500D01*
X150660500Y-122318500D01*
X150640500Y-122318500D01*
X150640500Y-122267500D01*
X150660500Y-122267500D01*
X150660500Y-121818500D01*
X150711500Y-121818500D01*
X150711500Y-122267500D01*
X150794375Y-122267500D01*
X150800375Y-122273500D01*
X150996014Y-122273500D01*
X151026177Y-122267500D01*
X151227625Y-122267500D01*
X151316500Y-122178625D01*
X151316500Y-122132987D01*
X151302838Y-122064305D01*
X151294013Y-122043000D01*
X151302838Y-122021695D01*
X151316500Y-121953013D01*
X151316500Y-121907375D01*
X151227625Y-121818500D01*
X151026177Y-121818500D01*
X150996014Y-121812500D01*
X150800375Y-121812500D01*
X150794375Y-121818500D01*
X150711500Y-121818500D01*
X150660500Y-121818500D01*
X150640500Y-121818500D01*
X150640500Y-121767500D01*
X150660500Y-121767500D01*
X150660500Y-121401375D01*
X150711500Y-121401375D01*
X150711500Y-121767500D01*
X151227625Y-121767500D01*
X151316500Y-121678625D01*
X151316500Y-121632987D01*
X151302838Y-121564305D01*
X151276040Y-121499608D01*
X151237135Y-121441382D01*
X151187618Y-121391865D01*
X151129393Y-121352960D01*
X151064696Y-121326162D01*
X150996014Y-121312500D01*
X150800375Y-121312500D01*
X150711500Y-121401375D01*
X150660500Y-121401375D01*
X150571625Y-121312500D01*
X150375986Y-121312500D01*
X150307304Y-121326162D01*
X150242607Y-121352960D01*
X150192293Y-121386579D01*
X150179393Y-121377960D01*
X150114696Y-121351162D01*
X150046014Y-121337500D01*
X149625375Y-121337500D01*
X149536500Y-121426375D01*
X149536500Y-122517500D01*
X149556500Y-122517500D01*
X149556500Y-122568500D01*
X149536500Y-122568500D01*
X149536500Y-123659625D01*
X149625375Y-123748500D01*
X150046014Y-123748500D01*
X150114696Y-123734838D01*
X150179393Y-123708040D01*
X150237291Y-123669354D01*
X150241011Y-123672407D01*
X150293909Y-123700682D01*
X150351308Y-123718094D01*
X150411000Y-123723973D01*
X150679858Y-123723973D01*
X150686000Y-123724578D01*
X150692142Y-123723973D01*
X150961000Y-123723973D01*
X150975956Y-123722500D01*
X151848027Y-123722500D01*
X151848027Y-123955000D01*
X151853906Y-124014692D01*
X151871318Y-124072091D01*
X151899593Y-124124989D01*
X151937644Y-124171356D01*
X151984011Y-124209407D01*
X152036909Y-124237682D01*
X152094308Y-124255094D01*
X152154000Y-124260973D01*
X153154000Y-124260973D01*
X153213692Y-124255094D01*
X153271091Y-124237682D01*
X153323989Y-124209407D01*
X153370356Y-124171356D01*
X153408407Y-124124989D01*
X153436682Y-124072091D01*
X153454094Y-124014692D01*
X153459973Y-123955000D01*
X153459973Y-123895273D01*
X153518772Y-123863844D01*
X153584172Y-123810172D01*
X153597626Y-123793778D01*
X154212784Y-123178621D01*
X154229172Y-123165172D01*
X154282844Y-123099772D01*
X154322726Y-123025158D01*
X154347285Y-122944197D01*
X154353500Y-122881097D01*
X154353500Y-122881096D01*
X154355578Y-122860000D01*
X154353500Y-122838903D01*
X154353500Y-116912096D01*
X154355578Y-116890999D01*
X154347285Y-116806803D01*
X154322726Y-116725842D01*
X154317146Y-116715403D01*
X154282844Y-116651228D01*
X154229172Y-116585828D01*
X154212783Y-116572378D01*
X153722626Y-116082222D01*
X153709172Y-116065828D01*
X153643772Y-116012156D01*
X153569158Y-115972274D01*
X153488197Y-115947715D01*
X153459973Y-115944935D01*
X153459973Y-115821000D01*
X153454094Y-115761308D01*
X153436682Y-115703909D01*
X153408407Y-115651011D01*
X153370356Y-115604644D01*
X153323989Y-115566593D01*
X153271091Y-115538318D01*
X153213692Y-115520906D01*
X153154000Y-115515027D01*
X153083500Y-115515027D01*
X153083500Y-115214896D01*
X153085578Y-115193799D01*
X153077285Y-115109603D01*
X153052726Y-115028642D01*
X153049536Y-115022674D01*
X153012844Y-114954028D01*
X152959172Y-114888628D01*
X152942784Y-114875179D01*
X151062827Y-112995223D01*
X151049372Y-112978828D01*
X150983972Y-112925156D01*
X150909358Y-112885274D01*
X150828397Y-112860715D01*
X150765297Y-112854500D01*
X150744200Y-112852422D01*
X150723103Y-112854500D01*
X150543500Y-112854500D01*
X150543500Y-112114101D01*
X150552244Y-112124756D01*
X150598611Y-112162807D01*
X150651509Y-112191082D01*
X150708908Y-112208494D01*
X150768600Y-112214373D01*
X151868600Y-112214373D01*
X151928292Y-112208494D01*
X151985691Y-112191082D01*
X152038589Y-112162807D01*
X152084956Y-112124756D01*
X152123007Y-112078389D01*
X152151282Y-112025491D01*
X152168694Y-111968092D01*
X152174573Y-111908400D01*
X152174573Y-111408400D01*
X152168694Y-111348708D01*
X152151282Y-111291309D01*
X152123007Y-111238411D01*
X152084956Y-111192044D01*
X152038589Y-111153993D01*
X151985691Y-111125718D01*
X151928292Y-111108306D01*
X151868600Y-111102427D01*
X150768600Y-111102427D01*
X150708908Y-111108306D01*
X150651509Y-111125718D01*
X150598611Y-111153993D01*
X150552244Y-111192044D01*
X150543500Y-111202699D01*
X150543500Y-110864101D01*
X150552244Y-110874756D01*
X150598611Y-110912807D01*
X150651509Y-110941082D01*
X150708908Y-110958494D01*
X150768600Y-110964373D01*
X151868600Y-110964373D01*
X151928292Y-110958494D01*
X151985691Y-110941082D01*
X152038589Y-110912807D01*
X152084956Y-110874756D01*
X152123007Y-110828389D01*
X152151282Y-110775491D01*
X152168694Y-110718092D01*
X152174573Y-110658400D01*
X152174573Y-110158400D01*
X152168694Y-110098708D01*
X152151282Y-110041309D01*
X152123007Y-109988411D01*
X152084956Y-109942044D01*
X152038589Y-109903993D01*
X151985691Y-109875718D01*
X151928292Y-109858306D01*
X151868600Y-109852427D01*
X150768600Y-109852427D01*
X150708908Y-109858306D01*
X150651509Y-109875718D01*
X150598611Y-109903993D01*
X150552244Y-109942044D01*
X150543500Y-109952699D01*
X150543500Y-109614101D01*
X150552244Y-109624756D01*
X150598611Y-109662807D01*
X150651509Y-109691082D01*
X150708908Y-109708494D01*
X150768600Y-109714373D01*
X151868600Y-109714373D01*
X151928292Y-109708494D01*
X151985691Y-109691082D01*
X152038589Y-109662807D01*
X152084956Y-109624756D01*
X152115202Y-109587900D01*
X152948503Y-109587900D01*
X152969600Y-109589978D01*
X152990697Y-109587900D01*
X153053797Y-109581685D01*
X153134758Y-109557126D01*
X153209372Y-109517244D01*
X153274772Y-109463572D01*
X153288227Y-109447177D01*
X153926904Y-108808500D01*
X153983538Y-108808500D01*
X154100326Y-108785269D01*
X154210338Y-108739701D01*
X154309346Y-108673546D01*
X154393546Y-108589346D01*
X154459701Y-108490338D01*
X154505269Y-108380326D01*
X154528500Y-108263538D01*
X154528500Y-108144462D01*
X154505269Y-108027674D01*
X154459701Y-107917662D01*
X154393546Y-107818654D01*
X154309346Y-107734454D01*
X154210338Y-107668299D01*
X154100326Y-107622731D01*
X153983538Y-107599500D01*
X153864462Y-107599500D01*
X153747674Y-107622731D01*
X153687113Y-107647816D01*
X153631546Y-107564654D01*
X153547346Y-107480454D01*
X153448338Y-107414299D01*
X153338326Y-107368731D01*
X153221538Y-107345500D01*
X153102462Y-107345500D01*
X152985674Y-107368731D01*
X152875662Y-107414299D01*
X152778980Y-107478900D01*
X152115202Y-107478900D01*
X152084956Y-107442044D01*
X152038589Y-107403993D01*
X151985691Y-107375718D01*
X151928292Y-107358306D01*
X151868600Y-107352427D01*
X150768600Y-107352427D01*
X150708908Y-107358306D01*
X150651509Y-107375718D01*
X150598611Y-107403993D01*
X150552244Y-107442044D01*
X150514193Y-107488411D01*
X150485918Y-107541309D01*
X150468506Y-107598708D01*
X150462627Y-107658400D01*
X150462627Y-108151578D01*
X150419172Y-108098628D01*
X150402779Y-108085175D01*
X149937227Y-107619623D01*
X149923772Y-107603228D01*
X149858372Y-107549556D01*
X149783758Y-107509674D01*
X149702797Y-107485115D01*
X149639697Y-107478900D01*
X149618600Y-107476822D01*
X149613878Y-107477287D01*
X149584956Y-107442044D01*
X149538589Y-107403993D01*
X149485691Y-107375718D01*
X149428292Y-107358306D01*
X149368600Y-107352427D01*
X149248100Y-107352427D01*
X149248100Y-106469973D01*
X150068000Y-106469973D01*
X150127692Y-106464094D01*
X150185091Y-106446682D01*
X150237989Y-106418407D01*
X150284356Y-106380356D01*
X150322407Y-106333989D01*
X150339993Y-106301088D01*
X150352960Y-106332392D01*
X150391865Y-106390618D01*
X150441382Y-106440135D01*
X150499607Y-106479040D01*
X150564304Y-106505838D01*
X150632986Y-106519500D01*
X151103625Y-106519500D01*
X151192500Y-106430625D01*
X151192500Y-105689500D01*
X151243500Y-105689500D01*
X151243500Y-106430625D01*
X151332375Y-106519500D01*
X151803014Y-106519500D01*
X151871696Y-106505838D01*
X151936393Y-106479040D01*
X151994618Y-106440135D01*
X152044135Y-106390618D01*
X152083040Y-106332392D01*
X152109838Y-106267695D01*
X152123500Y-106199013D01*
X152123500Y-105778375D01*
X152034625Y-105689500D01*
X151243500Y-105689500D01*
X151192500Y-105689500D01*
X151172500Y-105689500D01*
X151172500Y-105638500D01*
X151192500Y-105638500D01*
X151192500Y-104897375D01*
X151243500Y-104897375D01*
X151243500Y-105638500D01*
X152034625Y-105638500D01*
X152123500Y-105549625D01*
X152123500Y-105128987D01*
X152109838Y-105060305D01*
X152083040Y-104995608D01*
X152044135Y-104937382D01*
X151994618Y-104887865D01*
X151936393Y-104848960D01*
X151871696Y-104822162D01*
X151803014Y-104808500D01*
X151332375Y-104808500D01*
X151243500Y-104897375D01*
X151192500Y-104897375D01*
X151103625Y-104808500D01*
X150632986Y-104808500D01*
X150564304Y-104822162D01*
X150499607Y-104848960D01*
X150441382Y-104887865D01*
X150391865Y-104937382D01*
X150352960Y-104995608D01*
X150339993Y-105026912D01*
X150322407Y-104994011D01*
X150284356Y-104947644D01*
X150237989Y-104909593D01*
X150185091Y-104881318D01*
X150127692Y-104863906D01*
X150068000Y-104858027D01*
X148968000Y-104858027D01*
X148908308Y-104863906D01*
X148850909Y-104881318D01*
X148798011Y-104909593D01*
X148751644Y-104947644D01*
X148713593Y-104994011D01*
X148685318Y-105046909D01*
X148667906Y-105104308D01*
X148662027Y-105164000D01*
X148662027Y-105234500D01*
X146231973Y-105234500D01*
X146231973Y-105164000D01*
X146226094Y-105104308D01*
X146208682Y-105046909D01*
X146180407Y-104994011D01*
X146142356Y-104947644D01*
X146095989Y-104909593D01*
X146043091Y-104881318D01*
X145985692Y-104863906D01*
X145926000Y-104858027D01*
X144826000Y-104858027D01*
X144766308Y-104863906D01*
X144708909Y-104881318D01*
X144656011Y-104909593D01*
X144609644Y-104947644D01*
X144571593Y-104994011D01*
X144554007Y-105026912D01*
X144541040Y-104995608D01*
X144502135Y-104937382D01*
X144452618Y-104887865D01*
X144394393Y-104848960D01*
X144329696Y-104822162D01*
X144261014Y-104808500D01*
X143790375Y-104808500D01*
X143701500Y-104897375D01*
X143701500Y-105638500D01*
X143721500Y-105638500D01*
X143721500Y-105689500D01*
X143701500Y-105689500D01*
X143701500Y-106430625D01*
X143790375Y-106519500D01*
X144261014Y-106519500D01*
X144329696Y-106505838D01*
X144394393Y-106479040D01*
X144452618Y-106440135D01*
X144502135Y-106390618D01*
X144541040Y-106332392D01*
X144554007Y-106301088D01*
X144571593Y-106333989D01*
X144609644Y-106380356D01*
X144656011Y-106418407D01*
X144708909Y-106446682D01*
X144766308Y-106464094D01*
X144826000Y-106469973D01*
X145926000Y-106469973D01*
X145985692Y-106464094D01*
X146043091Y-106446682D01*
X146095989Y-106418407D01*
X146142356Y-106380356D01*
X146180407Y-106333989D01*
X146208682Y-106281091D01*
X146226094Y-106223692D01*
X146231973Y-106164000D01*
X146231973Y-106093500D01*
X148422409Y-106093500D01*
X148419874Y-106098243D01*
X148395315Y-106179204D01*
X148387022Y-106263400D01*
X148389101Y-106284507D01*
X148389100Y-107352427D01*
X148268600Y-107352427D01*
X148208908Y-107358306D01*
X148151509Y-107375718D01*
X148098611Y-107403993D01*
X148052244Y-107442044D01*
X148014193Y-107488411D01*
X147985918Y-107541309D01*
X147968506Y-107598708D01*
X147962627Y-107658400D01*
X147962627Y-108158400D01*
X147968506Y-108218092D01*
X147985918Y-108275491D01*
X148014193Y-108328389D01*
X148052244Y-108374756D01*
X148098611Y-108412807D01*
X148151509Y-108441082D01*
X148208908Y-108458494D01*
X148268600Y-108464373D01*
X149368600Y-108464373D01*
X149428292Y-108458494D01*
X149485691Y-108441082D01*
X149523610Y-108420814D01*
X149684500Y-108581704D01*
X149684501Y-109992085D01*
X149683640Y-109990007D01*
X149644735Y-109931782D01*
X149595218Y-109882265D01*
X149536992Y-109843360D01*
X149472295Y-109816562D01*
X149403613Y-109802900D01*
X148932975Y-109802900D01*
X148844100Y-109891775D01*
X148844100Y-110382900D01*
X148864100Y-110382900D01*
X148864100Y-110433900D01*
X148844100Y-110433900D01*
X148844100Y-110925025D01*
X148932975Y-111013900D01*
X149403613Y-111013900D01*
X149472295Y-111000238D01*
X149536992Y-110973440D01*
X149595218Y-110934535D01*
X149644735Y-110885018D01*
X149683640Y-110826793D01*
X149684501Y-110824715D01*
X149684501Y-111074095D01*
X149574848Y-111183748D01*
X149538589Y-111153993D01*
X149485691Y-111125718D01*
X149428292Y-111108306D01*
X149368600Y-111102427D01*
X148268600Y-111102427D01*
X148208908Y-111108306D01*
X148151509Y-111125718D01*
X148098611Y-111153993D01*
X148052244Y-111192044D01*
X148014193Y-111238411D01*
X147985918Y-111291309D01*
X147968506Y-111348708D01*
X147962627Y-111408400D01*
X147962627Y-111908400D01*
X147968506Y-111968092D01*
X147985918Y-112025491D01*
X148014193Y-112078389D01*
X148052244Y-112124756D01*
X148098611Y-112162807D01*
X148151509Y-112191082D01*
X148208908Y-112208494D01*
X148268600Y-112214373D01*
X149368600Y-112214373D01*
X149428292Y-112208494D01*
X149485691Y-112191082D01*
X149538589Y-112162807D01*
X149584956Y-112124756D01*
X149615202Y-112087900D01*
X149684500Y-112087900D01*
X149684501Y-112854500D01*
X144293097Y-112854500D01*
X144272000Y-112852422D01*
X144250903Y-112854500D01*
X144187803Y-112860715D01*
X144106842Y-112885274D01*
X144032228Y-112925156D01*
X143966828Y-112978828D01*
X143953378Y-112995217D01*
X143221222Y-113727374D01*
X143204828Y-113740828D01*
X143151156Y-113806229D01*
X143117244Y-113869674D01*
X143111274Y-113880843D01*
X143086715Y-113961804D01*
X143078422Y-114046000D01*
X143080500Y-114067097D01*
X143080501Y-118186095D01*
X142951096Y-118315500D01*
X142538392Y-118315500D01*
X142498346Y-118275454D01*
X142399338Y-118209299D01*
X142289326Y-118163731D01*
X142172538Y-118140500D01*
X142053462Y-118140500D01*
X141936674Y-118163731D01*
X141826662Y-118209299D01*
X141727654Y-118275454D01*
X141643454Y-118359654D01*
X141577299Y-118458662D01*
X141531731Y-118568674D01*
X141508500Y-118685462D01*
X140633500Y-118685462D01*
X140633500Y-110522775D01*
X147913100Y-110522775D01*
X147913100Y-110693414D01*
X147926762Y-110762096D01*
X147953560Y-110826793D01*
X147992465Y-110885018D01*
X148041982Y-110934535D01*
X148100208Y-110973440D01*
X148164905Y-111000238D01*
X148233587Y-111013900D01*
X148704225Y-111013900D01*
X148793100Y-110925025D01*
X148793100Y-110433900D01*
X148001975Y-110433900D01*
X147913100Y-110522775D01*
X140633500Y-110522775D01*
X140633500Y-110123386D01*
X147913100Y-110123386D01*
X147913100Y-110294025D01*
X148001975Y-110382900D01*
X148793100Y-110382900D01*
X148793100Y-109891775D01*
X148704225Y-109802900D01*
X148233587Y-109802900D01*
X148164905Y-109816562D01*
X148100208Y-109843360D01*
X148041982Y-109882265D01*
X147992465Y-109931782D01*
X147953560Y-109990007D01*
X147926762Y-110054704D01*
X147913100Y-110123386D01*
X140633500Y-110123386D01*
X140633500Y-107556375D01*
X142770500Y-107556375D01*
X142770500Y-107977013D01*
X142784162Y-108045695D01*
X142810960Y-108110392D01*
X142849865Y-108168618D01*
X142899382Y-108218135D01*
X142957607Y-108257040D01*
X143022304Y-108283838D01*
X143090986Y-108297500D01*
X143561625Y-108297500D01*
X143650500Y-108208625D01*
X143650500Y-107467500D01*
X142859375Y-107467500D01*
X142770500Y-107556375D01*
X140633500Y-107556375D01*
X140633500Y-106906987D01*
X142770500Y-106906987D01*
X142770500Y-107327625D01*
X142859375Y-107416500D01*
X143650500Y-107416500D01*
X143650500Y-106675375D01*
X143701500Y-106675375D01*
X143701500Y-107416500D01*
X143721500Y-107416500D01*
X143721500Y-107467500D01*
X143701500Y-107467500D01*
X143701500Y-108208625D01*
X143790375Y-108297500D01*
X144261014Y-108297500D01*
X144329696Y-108283838D01*
X144394393Y-108257040D01*
X144452618Y-108218135D01*
X144502135Y-108168618D01*
X144541040Y-108110392D01*
X144554007Y-108079088D01*
X144571593Y-108111989D01*
X144609644Y-108158356D01*
X144656011Y-108196407D01*
X144708909Y-108224682D01*
X144766308Y-108242094D01*
X144826000Y-108247973D01*
X145085728Y-108247973D01*
X145117157Y-108306772D01*
X145170829Y-108372172D01*
X145187218Y-108385622D01*
X146248778Y-109447183D01*
X146262228Y-109463572D01*
X146278615Y-109477020D01*
X146327628Y-109517244D01*
X146402242Y-109557126D01*
X146483203Y-109581685D01*
X146567400Y-109589978D01*
X146588497Y-109587900D01*
X148021998Y-109587900D01*
X148052244Y-109624756D01*
X148098611Y-109662807D01*
X148151509Y-109691082D01*
X148208908Y-109708494D01*
X148268600Y-109714373D01*
X149368600Y-109714373D01*
X149428292Y-109708494D01*
X149485691Y-109691082D01*
X149538589Y-109662807D01*
X149584956Y-109624756D01*
X149623007Y-109578389D01*
X149651282Y-109525491D01*
X149668694Y-109468092D01*
X149674573Y-109408400D01*
X149674573Y-108908400D01*
X149668694Y-108848708D01*
X149651282Y-108791309D01*
X149623007Y-108738411D01*
X149584956Y-108692044D01*
X149538589Y-108653993D01*
X149485691Y-108625718D01*
X149428292Y-108608306D01*
X149368600Y-108602427D01*
X148268600Y-108602427D01*
X148208908Y-108608306D01*
X148151509Y-108625718D01*
X148098611Y-108653993D01*
X148052244Y-108692044D01*
X148021998Y-108728900D01*
X146745305Y-108728900D01*
X146156962Y-108140558D01*
X146180407Y-108111989D01*
X146208682Y-108059091D01*
X146226094Y-108001692D01*
X146231973Y-107942000D01*
X146231973Y-106942000D01*
X146226094Y-106882308D01*
X146208682Y-106824909D01*
X146180407Y-106772011D01*
X146142356Y-106725644D01*
X146095989Y-106687593D01*
X146043091Y-106659318D01*
X145985692Y-106641906D01*
X145926000Y-106636027D01*
X144826000Y-106636027D01*
X144766308Y-106641906D01*
X144708909Y-106659318D01*
X144656011Y-106687593D01*
X144609644Y-106725644D01*
X144571593Y-106772011D01*
X144554007Y-106804912D01*
X144541040Y-106773608D01*
X144502135Y-106715382D01*
X144452618Y-106665865D01*
X144394393Y-106626960D01*
X144329696Y-106600162D01*
X144261014Y-106586500D01*
X143790375Y-106586500D01*
X143701500Y-106675375D01*
X143650500Y-106675375D01*
X143561625Y-106586500D01*
X143090986Y-106586500D01*
X143022304Y-106600162D01*
X142957607Y-106626960D01*
X142899382Y-106665865D01*
X142849865Y-106715382D01*
X142810960Y-106773608D01*
X142784162Y-106838305D01*
X142770500Y-106906987D01*
X140633500Y-106906987D01*
X140633500Y-105778375D01*
X142770500Y-105778375D01*
X142770500Y-106199013D01*
X142784162Y-106267695D01*
X142810960Y-106332392D01*
X142849865Y-106390618D01*
X142899382Y-106440135D01*
X142957607Y-106479040D01*
X143022304Y-106505838D01*
X143090986Y-106519500D01*
X143561625Y-106519500D01*
X143650500Y-106430625D01*
X143650500Y-105689500D01*
X142859375Y-105689500D01*
X142770500Y-105778375D01*
X140633500Y-105778375D01*
X140633500Y-105128987D01*
X142770500Y-105128987D01*
X142770500Y-105549625D01*
X142859375Y-105638500D01*
X143650500Y-105638500D01*
X143650500Y-104897375D01*
X143561625Y-104808500D01*
X143090986Y-104808500D01*
X143022304Y-104822162D01*
X142957607Y-104848960D01*
X142899382Y-104887865D01*
X142849865Y-104937382D01*
X142810960Y-104995608D01*
X142784162Y-105060305D01*
X142770500Y-105128987D01*
X140633500Y-105128987D01*
X140633500Y-104268500D01*
X154874500Y-104268500D01*
X154874501Y-125509500D01*
X154874501Y-125509500D01*
G37*
X154874501Y-125509500D02*
X140633500Y-125509500D01*
X140633500Y-118685462D01*
X141508500Y-118685462D01*
X141508500Y-118804538D01*
X141531731Y-118921326D01*
X141577299Y-119031338D01*
X141643454Y-119130346D01*
X141727654Y-119214546D01*
X141826662Y-119280701D01*
X141936674Y-119326269D01*
X142053462Y-119349500D01*
X142172538Y-119349500D01*
X142289326Y-119326269D01*
X142399338Y-119280701D01*
X142498346Y-119214546D01*
X142538392Y-119174500D01*
X143107903Y-119174500D01*
X143129000Y-119176578D01*
X143150097Y-119174500D01*
X143213197Y-119168285D01*
X143294158Y-119143726D01*
X143368772Y-119103844D01*
X143434172Y-119050172D01*
X143447627Y-119033777D01*
X143798777Y-118682627D01*
X143815172Y-118669172D01*
X143868844Y-118603772D01*
X143908726Y-118529158D01*
X143933285Y-118448197D01*
X143939500Y-118385097D01*
X143941578Y-118364001D01*
X143939500Y-118342904D01*
X143939500Y-114441392D01*
X144013654Y-114515546D01*
X144112662Y-114581701D01*
X144222674Y-114627269D01*
X144339462Y-114650500D01*
X144458538Y-114650500D01*
X144575326Y-114627269D01*
X144685338Y-114581701D01*
X144784346Y-114515546D01*
X144824392Y-114475500D01*
X150190096Y-114475500D01*
X150779500Y-115064905D01*
X150779500Y-115121538D01*
X150802731Y-115238326D01*
X150848299Y-115348338D01*
X150914454Y-115447346D01*
X150954501Y-115487393D01*
X150954500Y-115720100D01*
X150951415Y-115720100D01*
X150898691Y-115691918D01*
X150841292Y-115674506D01*
X150781600Y-115668627D01*
X149581600Y-115668627D01*
X149521908Y-115674506D01*
X149464509Y-115691918D01*
X149431600Y-115709508D01*
X149398691Y-115691918D01*
X149341292Y-115674506D01*
X149281600Y-115668627D01*
X148081600Y-115668627D01*
X148021908Y-115674506D01*
X147964509Y-115691918D01*
X147911785Y-115720100D01*
X147214097Y-115720100D01*
X147193000Y-115718022D01*
X147171903Y-115720100D01*
X146543504Y-115720100D01*
X146019500Y-115196096D01*
X146019500Y-115139462D01*
X145996269Y-115022674D01*
X145950701Y-114912662D01*
X145884546Y-114813654D01*
X145800346Y-114729454D01*
X145701338Y-114663299D01*
X145591326Y-114617731D01*
X145474538Y-114594500D01*
X145355462Y-114594500D01*
X145238674Y-114617731D01*
X145128662Y-114663299D01*
X145029654Y-114729454D01*
X144945454Y-114813654D01*
X144879299Y-114912662D01*
X144833731Y-115022674D01*
X144810500Y-115139462D01*
X144810500Y-115258538D01*
X144833731Y-115375326D01*
X144879299Y-115485338D01*
X144945454Y-115584346D01*
X145029654Y-115668546D01*
X145128662Y-115734701D01*
X145238674Y-115780269D01*
X145355462Y-115803500D01*
X145412096Y-115803500D01*
X146046973Y-116438377D01*
X146060428Y-116454772D01*
X146125828Y-116508444D01*
X146200442Y-116548326D01*
X146281403Y-116572885D01*
X146365599Y-116581178D01*
X146386696Y-116579100D01*
X146763501Y-116579100D01*
X146763500Y-122653903D01*
X146761422Y-122675000D01*
X146764752Y-122708804D01*
X146769715Y-122759196D01*
X146794274Y-122840157D01*
X146834156Y-122914771D01*
X146887828Y-122980172D01*
X146904222Y-122993626D01*
X147492378Y-123581783D01*
X147505828Y-123598172D01*
X147571228Y-123651844D01*
X147645842Y-123691726D01*
X147726803Y-123716285D01*
X147811000Y-123724578D01*
X147832097Y-123722500D01*
X148046044Y-123722500D01*
X148061000Y-123723973D01*
X148611000Y-123723973D01*
X148670692Y-123718094D01*
X148728091Y-123700682D01*
X148780989Y-123672407D01*
X148784709Y-123669354D01*
X148842607Y-123708040D01*
X148907304Y-123734838D01*
X148975986Y-123748500D01*
X149396625Y-123748500D01*
X149485500Y-123659625D01*
X149485500Y-122568500D01*
X149465500Y-122568500D01*
X149465500Y-122517500D01*
X149485500Y-122517500D01*
X149485500Y-121426375D01*
X149396625Y-121337500D01*
X148975986Y-121337500D01*
X148907304Y-121351162D01*
X148842607Y-121377960D01*
X148784709Y-121416646D01*
X148780989Y-121413593D01*
X148765500Y-121405314D01*
X148765500Y-121119986D01*
X151798500Y-121119986D01*
X151798500Y-121590625D01*
X151887375Y-121679500D01*
X152628500Y-121679500D01*
X152628500Y-120888375D01*
X152539625Y-120799500D01*
X152118987Y-120799500D01*
X152050305Y-120813162D01*
X151985608Y-120839960D01*
X151927382Y-120878865D01*
X151877865Y-120928382D01*
X151838960Y-120986607D01*
X151812162Y-121051304D01*
X151798500Y-121119986D01*
X148765500Y-121119986D01*
X148765500Y-120229656D01*
X148805546Y-120189610D01*
X148871701Y-120090602D01*
X148917269Y-119980590D01*
X148940500Y-119863802D01*
X148940500Y-119744726D01*
X148917269Y-119627938D01*
X148871701Y-119517926D01*
X148805546Y-119418918D01*
X148721346Y-119334718D01*
X148622338Y-119268563D01*
X148512326Y-119222995D01*
X148395538Y-119199764D01*
X148276462Y-119199764D01*
X148159674Y-119222995D01*
X148049662Y-119268563D01*
X147950654Y-119334718D01*
X147866454Y-119418918D01*
X147800299Y-119517926D01*
X147754731Y-119627938D01*
X147731500Y-119744726D01*
X147731500Y-119863802D01*
X147754731Y-119980590D01*
X147800299Y-120090602D01*
X147866454Y-120189610D01*
X147906500Y-120229656D01*
X147906501Y-121136894D01*
X147906500Y-121136904D01*
X147906500Y-121405314D01*
X147891011Y-121413593D01*
X147844644Y-121451644D01*
X147806593Y-121498011D01*
X147778318Y-121550909D01*
X147760906Y-121608308D01*
X147755027Y-121668000D01*
X147755027Y-121918000D01*
X147760867Y-121977298D01*
X147745960Y-121999608D01*
X147719162Y-122064305D01*
X147705500Y-122132987D01*
X147705500Y-122178625D01*
X147794375Y-122267500D01*
X148310500Y-122267500D01*
X148310500Y-122247500D01*
X148361500Y-122247500D01*
X148361500Y-122267500D01*
X148381500Y-122267500D01*
X148381500Y-122318500D01*
X148361500Y-122318500D01*
X148361500Y-122338500D01*
X148310500Y-122338500D01*
X148310500Y-122318500D01*
X147794375Y-122318500D01*
X147705500Y-122407375D01*
X147705500Y-122453013D01*
X147719162Y-122521695D01*
X147745960Y-122586392D01*
X147760867Y-122608702D01*
X147758468Y-122633063D01*
X147622500Y-122497096D01*
X147622500Y-118185375D01*
X151798500Y-118185375D01*
X151798500Y-118656014D01*
X151812162Y-118724696D01*
X151838960Y-118789393D01*
X151877865Y-118847618D01*
X151927382Y-118897135D01*
X151985608Y-118936040D01*
X152050305Y-118962838D01*
X152118987Y-118976500D01*
X152539625Y-118976500D01*
X152628500Y-118887625D01*
X152628500Y-118096500D01*
X151887375Y-118096500D01*
X151798500Y-118185375D01*
X147622500Y-118185375D01*
X147622500Y-117563975D01*
X147726100Y-117563975D01*
X147726100Y-117659613D01*
X147739762Y-117728295D01*
X147766560Y-117792992D01*
X147805465Y-117851218D01*
X147854982Y-117900735D01*
X147913207Y-117939640D01*
X147977904Y-117966438D01*
X148046586Y-117980100D01*
X148567225Y-117980100D01*
X148656100Y-117891225D01*
X148656100Y-117475100D01*
X147814975Y-117475100D01*
X147726100Y-117563975D01*
X147622500Y-117563975D01*
X147622500Y-116579100D01*
X147780108Y-116579100D01*
X147775627Y-116624600D01*
X147775627Y-116974600D01*
X147781506Y-117034292D01*
X147791843Y-117068369D01*
X147766560Y-117106208D01*
X147739762Y-117170905D01*
X147726100Y-117239587D01*
X147726100Y-117335225D01*
X147814975Y-117424100D01*
X148656100Y-117424100D01*
X148656100Y-117404100D01*
X148707100Y-117404100D01*
X148707100Y-117424100D01*
X148727100Y-117424100D01*
X148727100Y-117475100D01*
X148707100Y-117475100D01*
X148707100Y-117891225D01*
X148795975Y-117980100D01*
X149316614Y-117980100D01*
X149385296Y-117966438D01*
X149449993Y-117939640D01*
X149487832Y-117914357D01*
X149521908Y-117924694D01*
X149581600Y-117930573D01*
X150781600Y-117930573D01*
X150841292Y-117924694D01*
X150898691Y-117907282D01*
X150951589Y-117879007D01*
X150997956Y-117840956D01*
X151036007Y-117794589D01*
X151064282Y-117741691D01*
X151081694Y-117684292D01*
X151087573Y-117624600D01*
X151087573Y-117274600D01*
X151083092Y-117229100D01*
X151327303Y-117229100D01*
X151348400Y-117231178D01*
X151369497Y-117229100D01*
X151432597Y-117222885D01*
X151513558Y-117198326D01*
X151588172Y-117158444D01*
X151653572Y-117104772D01*
X151667026Y-117088378D01*
X151848027Y-116907377D01*
X151848027Y-116921000D01*
X151853906Y-116980692D01*
X151871318Y-117038091D01*
X151899593Y-117090989D01*
X151937644Y-117137356D01*
X151984011Y-117175407D01*
X152016912Y-117192993D01*
X151985608Y-117205960D01*
X151927382Y-117244865D01*
X151877865Y-117294382D01*
X151838960Y-117352607D01*
X151812162Y-117417304D01*
X151798500Y-117485986D01*
X151798500Y-117956625D01*
X151887375Y-118045500D01*
X152628500Y-118045500D01*
X152628500Y-118025500D01*
X152679500Y-118025500D01*
X152679500Y-118045500D01*
X152699500Y-118045500D01*
X152699500Y-118096500D01*
X152679500Y-118096500D01*
X152679500Y-118887625D01*
X152768375Y-118976500D01*
X153189013Y-118976500D01*
X153257695Y-118962838D01*
X153322392Y-118936040D01*
X153380618Y-118897135D01*
X153430135Y-118847618D01*
X153469040Y-118789393D01*
X153494501Y-118727925D01*
X153494500Y-121048074D01*
X153469040Y-120986607D01*
X153430135Y-120928382D01*
X153380618Y-120878865D01*
X153322392Y-120839960D01*
X153257695Y-120813162D01*
X153189013Y-120799500D01*
X152768375Y-120799500D01*
X152679500Y-120888375D01*
X152679500Y-121679500D01*
X152699500Y-121679500D01*
X152699500Y-121730500D01*
X152679500Y-121730500D01*
X152679500Y-121750500D01*
X152628500Y-121750500D01*
X152628500Y-121730500D01*
X151887375Y-121730500D01*
X151798500Y-121819375D01*
X151798500Y-122290014D01*
X151812162Y-122358696D01*
X151838960Y-122423393D01*
X151877865Y-122481618D01*
X151927382Y-122531135D01*
X151985608Y-122570040D01*
X152016912Y-122583007D01*
X151984011Y-122600593D01*
X151937644Y-122638644D01*
X151899593Y-122685011D01*
X151871318Y-122737909D01*
X151853906Y-122795308D01*
X151848027Y-122855000D01*
X151848027Y-122863500D01*
X151266973Y-122863500D01*
X151266973Y-122668000D01*
X151261133Y-122608702D01*
X151276040Y-122586392D01*
X151302838Y-122521695D01*
X151316500Y-122453013D01*
X151316500Y-122407375D01*
X151227625Y-122318500D01*
X150711500Y-122318500D01*
X150711500Y-122338500D01*
X150660500Y-122338500D01*
X150660500Y-122318500D01*
X150640500Y-122318500D01*
X150640500Y-122267500D01*
X150660500Y-122267500D01*
X150660500Y-121818500D01*
X150711500Y-121818500D01*
X150711500Y-122267500D01*
X150794375Y-122267500D01*
X150800375Y-122273500D01*
X150996014Y-122273500D01*
X151026177Y-122267500D01*
X151227625Y-122267500D01*
X151316500Y-122178625D01*
X151316500Y-122132987D01*
X151302838Y-122064305D01*
X151294013Y-122043000D01*
X151302838Y-122021695D01*
X151316500Y-121953013D01*
X151316500Y-121907375D01*
X151227625Y-121818500D01*
X151026177Y-121818500D01*
X150996014Y-121812500D01*
X150800375Y-121812500D01*
X150794375Y-121818500D01*
X150711500Y-121818500D01*
X150660500Y-121818500D01*
X150640500Y-121818500D01*
X150640500Y-121767500D01*
X150660500Y-121767500D01*
X150660500Y-121401375D01*
X150711500Y-121401375D01*
X150711500Y-121767500D01*
X151227625Y-121767500D01*
X151316500Y-121678625D01*
X151316500Y-121632987D01*
X151302838Y-121564305D01*
X151276040Y-121499608D01*
X151237135Y-121441382D01*
X151187618Y-121391865D01*
X151129393Y-121352960D01*
X151064696Y-121326162D01*
X150996014Y-121312500D01*
X150800375Y-121312500D01*
X150711500Y-121401375D01*
X150660500Y-121401375D01*
X150571625Y-121312500D01*
X150375986Y-121312500D01*
X150307304Y-121326162D01*
X150242607Y-121352960D01*
X150192293Y-121386579D01*
X150179393Y-121377960D01*
X150114696Y-121351162D01*
X150046014Y-121337500D01*
X149625375Y-121337500D01*
X149536500Y-121426375D01*
X149536500Y-122517500D01*
X149556500Y-122517500D01*
X149556500Y-122568500D01*
X149536500Y-122568500D01*
X149536500Y-123659625D01*
X149625375Y-123748500D01*
X150046014Y-123748500D01*
X150114696Y-123734838D01*
X150179393Y-123708040D01*
X150237291Y-123669354D01*
X150241011Y-123672407D01*
X150293909Y-123700682D01*
X150351308Y-123718094D01*
X150411000Y-123723973D01*
X150679858Y-123723973D01*
X150686000Y-123724578D01*
X150692142Y-123723973D01*
X150961000Y-123723973D01*
X150975956Y-123722500D01*
X151848027Y-123722500D01*
X151848027Y-123955000D01*
X151853906Y-124014692D01*
X151871318Y-124072091D01*
X151899593Y-124124989D01*
X151937644Y-124171356D01*
X151984011Y-124209407D01*
X152036909Y-124237682D01*
X152094308Y-124255094D01*
X152154000Y-124260973D01*
X153154000Y-124260973D01*
X153213692Y-124255094D01*
X153271091Y-124237682D01*
X153323989Y-124209407D01*
X153370356Y-124171356D01*
X153408407Y-124124989D01*
X153436682Y-124072091D01*
X153454094Y-124014692D01*
X153459973Y-123955000D01*
X153459973Y-123895273D01*
X153518772Y-123863844D01*
X153584172Y-123810172D01*
X153597626Y-123793778D01*
X154212784Y-123178621D01*
X154229172Y-123165172D01*
X154282844Y-123099772D01*
X154322726Y-123025158D01*
X154347285Y-122944197D01*
X154353500Y-122881097D01*
X154353500Y-122881096D01*
X154355578Y-122860000D01*
X154353500Y-122838903D01*
X154353500Y-116912096D01*
X154355578Y-116890999D01*
X154347285Y-116806803D01*
X154322726Y-116725842D01*
X154317146Y-116715403D01*
X154282844Y-116651228D01*
X154229172Y-116585828D01*
X154212783Y-116572378D01*
X153722626Y-116082222D01*
X153709172Y-116065828D01*
X153643772Y-116012156D01*
X153569158Y-115972274D01*
X153488197Y-115947715D01*
X153459973Y-115944935D01*
X153459973Y-115821000D01*
X153454094Y-115761308D01*
X153436682Y-115703909D01*
X153408407Y-115651011D01*
X153370356Y-115604644D01*
X153323989Y-115566593D01*
X153271091Y-115538318D01*
X153213692Y-115520906D01*
X153154000Y-115515027D01*
X153083500Y-115515027D01*
X153083500Y-115214896D01*
X153085578Y-115193799D01*
X153077285Y-115109603D01*
X153052726Y-115028642D01*
X153049536Y-115022674D01*
X153012844Y-114954028D01*
X152959172Y-114888628D01*
X152942784Y-114875179D01*
X151062827Y-112995223D01*
X151049372Y-112978828D01*
X150983972Y-112925156D01*
X150909358Y-112885274D01*
X150828397Y-112860715D01*
X150765297Y-112854500D01*
X150744200Y-112852422D01*
X150723103Y-112854500D01*
X150543500Y-112854500D01*
X150543500Y-112114101D01*
X150552244Y-112124756D01*
X150598611Y-112162807D01*
X150651509Y-112191082D01*
X150708908Y-112208494D01*
X150768600Y-112214373D01*
X151868600Y-112214373D01*
X151928292Y-112208494D01*
X151985691Y-112191082D01*
X152038589Y-112162807D01*
X152084956Y-112124756D01*
X152123007Y-112078389D01*
X152151282Y-112025491D01*
X152168694Y-111968092D01*
X152174573Y-111908400D01*
X152174573Y-111408400D01*
X152168694Y-111348708D01*
X152151282Y-111291309D01*
X152123007Y-111238411D01*
X152084956Y-111192044D01*
X152038589Y-111153993D01*
X151985691Y-111125718D01*
X151928292Y-111108306D01*
X151868600Y-111102427D01*
X150768600Y-111102427D01*
X150708908Y-111108306D01*
X150651509Y-111125718D01*
X150598611Y-111153993D01*
X150552244Y-111192044D01*
X150543500Y-111202699D01*
X150543500Y-110864101D01*
X150552244Y-110874756D01*
X150598611Y-110912807D01*
X150651509Y-110941082D01*
X150708908Y-110958494D01*
X150768600Y-110964373D01*
X151868600Y-110964373D01*
X151928292Y-110958494D01*
X151985691Y-110941082D01*
X152038589Y-110912807D01*
X152084956Y-110874756D01*
X152123007Y-110828389D01*
X152151282Y-110775491D01*
X152168694Y-110718092D01*
X152174573Y-110658400D01*
X152174573Y-110158400D01*
X152168694Y-110098708D01*
X152151282Y-110041309D01*
X152123007Y-109988411D01*
X152084956Y-109942044D01*
X152038589Y-109903993D01*
X151985691Y-109875718D01*
X151928292Y-109858306D01*
X151868600Y-109852427D01*
X150768600Y-109852427D01*
X150708908Y-109858306D01*
X150651509Y-109875718D01*
X150598611Y-109903993D01*
X150552244Y-109942044D01*
X150543500Y-109952699D01*
X150543500Y-109614101D01*
X150552244Y-109624756D01*
X150598611Y-109662807D01*
X150651509Y-109691082D01*
X150708908Y-109708494D01*
X150768600Y-109714373D01*
X151868600Y-109714373D01*
X151928292Y-109708494D01*
X151985691Y-109691082D01*
X152038589Y-109662807D01*
X152084956Y-109624756D01*
X152115202Y-109587900D01*
X152948503Y-109587900D01*
X152969600Y-109589978D01*
X152990697Y-109587900D01*
X153053797Y-109581685D01*
X153134758Y-109557126D01*
X153209372Y-109517244D01*
X153274772Y-109463572D01*
X153288227Y-109447177D01*
X153926904Y-108808500D01*
X153983538Y-108808500D01*
X154100326Y-108785269D01*
X154210338Y-108739701D01*
X154309346Y-108673546D01*
X154393546Y-108589346D01*
X154459701Y-108490338D01*
X154505269Y-108380326D01*
X154528500Y-108263538D01*
X154528500Y-108144462D01*
X154505269Y-108027674D01*
X154459701Y-107917662D01*
X154393546Y-107818654D01*
X154309346Y-107734454D01*
X154210338Y-107668299D01*
X154100326Y-107622731D01*
X153983538Y-107599500D01*
X153864462Y-107599500D01*
X153747674Y-107622731D01*
X153687113Y-107647816D01*
X153631546Y-107564654D01*
X153547346Y-107480454D01*
X153448338Y-107414299D01*
X153338326Y-107368731D01*
X153221538Y-107345500D01*
X153102462Y-107345500D01*
X152985674Y-107368731D01*
X152875662Y-107414299D01*
X152778980Y-107478900D01*
X152115202Y-107478900D01*
X152084956Y-107442044D01*
X152038589Y-107403993D01*
X151985691Y-107375718D01*
X151928292Y-107358306D01*
X151868600Y-107352427D01*
X150768600Y-107352427D01*
X150708908Y-107358306D01*
X150651509Y-107375718D01*
X150598611Y-107403993D01*
X150552244Y-107442044D01*
X150514193Y-107488411D01*
X150485918Y-107541309D01*
X150468506Y-107598708D01*
X150462627Y-107658400D01*
X150462627Y-108151578D01*
X150419172Y-108098628D01*
X150402779Y-108085175D01*
X149937227Y-107619623D01*
X149923772Y-107603228D01*
X149858372Y-107549556D01*
X149783758Y-107509674D01*
X149702797Y-107485115D01*
X149639697Y-107478900D01*
X149618600Y-107476822D01*
X149613878Y-107477287D01*
X149584956Y-107442044D01*
X149538589Y-107403993D01*
X149485691Y-107375718D01*
X149428292Y-107358306D01*
X149368600Y-107352427D01*
X149248100Y-107352427D01*
X149248100Y-106469973D01*
X150068000Y-106469973D01*
X150127692Y-106464094D01*
X150185091Y-106446682D01*
X150237989Y-106418407D01*
X150284356Y-106380356D01*
X150322407Y-106333989D01*
X150339993Y-106301088D01*
X150352960Y-106332392D01*
X150391865Y-106390618D01*
X150441382Y-106440135D01*
X150499607Y-106479040D01*
X150564304Y-106505838D01*
X150632986Y-106519500D01*
X151103625Y-106519500D01*
X151192500Y-106430625D01*
X151192500Y-105689500D01*
X151243500Y-105689500D01*
X151243500Y-106430625D01*
X151332375Y-106519500D01*
X151803014Y-106519500D01*
X151871696Y-106505838D01*
X151936393Y-106479040D01*
X151994618Y-106440135D01*
X152044135Y-106390618D01*
X152083040Y-106332392D01*
X152109838Y-106267695D01*
X152123500Y-106199013D01*
X152123500Y-105778375D01*
X152034625Y-105689500D01*
X151243500Y-105689500D01*
X151192500Y-105689500D01*
X151172500Y-105689500D01*
X151172500Y-105638500D01*
X151192500Y-105638500D01*
X151192500Y-104897375D01*
X151243500Y-104897375D01*
X151243500Y-105638500D01*
X152034625Y-105638500D01*
X152123500Y-105549625D01*
X152123500Y-105128987D01*
X152109838Y-105060305D01*
X152083040Y-104995608D01*
X152044135Y-104937382D01*
X151994618Y-104887865D01*
X151936393Y-104848960D01*
X151871696Y-104822162D01*
X151803014Y-104808500D01*
X151332375Y-104808500D01*
X151243500Y-104897375D01*
X151192500Y-104897375D01*
X151103625Y-104808500D01*
X150632986Y-104808500D01*
X150564304Y-104822162D01*
X150499607Y-104848960D01*
X150441382Y-104887865D01*
X150391865Y-104937382D01*
X150352960Y-104995608D01*
X150339993Y-105026912D01*
X150322407Y-104994011D01*
X150284356Y-104947644D01*
X150237989Y-104909593D01*
X150185091Y-104881318D01*
X150127692Y-104863906D01*
X150068000Y-104858027D01*
X148968000Y-104858027D01*
X148908308Y-104863906D01*
X148850909Y-104881318D01*
X148798011Y-104909593D01*
X148751644Y-104947644D01*
X148713593Y-104994011D01*
X148685318Y-105046909D01*
X148667906Y-105104308D01*
X148662027Y-105164000D01*
X148662027Y-105234500D01*
X146231973Y-105234500D01*
X146231973Y-105164000D01*
X146226094Y-105104308D01*
X146208682Y-105046909D01*
X146180407Y-104994011D01*
X146142356Y-104947644D01*
X146095989Y-104909593D01*
X146043091Y-104881318D01*
X145985692Y-104863906D01*
X145926000Y-104858027D01*
X144826000Y-104858027D01*
X144766308Y-104863906D01*
X144708909Y-104881318D01*
X144656011Y-104909593D01*
X144609644Y-104947644D01*
X144571593Y-104994011D01*
X144554007Y-105026912D01*
X144541040Y-104995608D01*
X144502135Y-104937382D01*
X144452618Y-104887865D01*
X144394393Y-104848960D01*
X144329696Y-104822162D01*
X144261014Y-104808500D01*
X143790375Y-104808500D01*
X143701500Y-104897375D01*
X143701500Y-105638500D01*
X143721500Y-105638500D01*
X143721500Y-105689500D01*
X143701500Y-105689500D01*
X143701500Y-106430625D01*
X143790375Y-106519500D01*
X144261014Y-106519500D01*
X144329696Y-106505838D01*
X144394393Y-106479040D01*
X144452618Y-106440135D01*
X144502135Y-106390618D01*
X144541040Y-106332392D01*
X144554007Y-106301088D01*
X144571593Y-106333989D01*
X144609644Y-106380356D01*
X144656011Y-106418407D01*
X144708909Y-106446682D01*
X144766308Y-106464094D01*
X144826000Y-106469973D01*
X145926000Y-106469973D01*
X145985692Y-106464094D01*
X146043091Y-106446682D01*
X146095989Y-106418407D01*
X146142356Y-106380356D01*
X146180407Y-106333989D01*
X146208682Y-106281091D01*
X146226094Y-106223692D01*
X146231973Y-106164000D01*
X146231973Y-106093500D01*
X148422409Y-106093500D01*
X148419874Y-106098243D01*
X148395315Y-106179204D01*
X148387022Y-106263400D01*
X148389101Y-106284507D01*
X148389100Y-107352427D01*
X148268600Y-107352427D01*
X148208908Y-107358306D01*
X148151509Y-107375718D01*
X148098611Y-107403993D01*
X148052244Y-107442044D01*
X148014193Y-107488411D01*
X147985918Y-107541309D01*
X147968506Y-107598708D01*
X147962627Y-107658400D01*
X147962627Y-108158400D01*
X147968506Y-108218092D01*
X147985918Y-108275491D01*
X148014193Y-108328389D01*
X148052244Y-108374756D01*
X148098611Y-108412807D01*
X148151509Y-108441082D01*
X148208908Y-108458494D01*
X148268600Y-108464373D01*
X149368600Y-108464373D01*
X149428292Y-108458494D01*
X149485691Y-108441082D01*
X149523610Y-108420814D01*
X149684500Y-108581704D01*
X149684501Y-109992085D01*
X149683640Y-109990007D01*
X149644735Y-109931782D01*
X149595218Y-109882265D01*
X149536992Y-109843360D01*
X149472295Y-109816562D01*
X149403613Y-109802900D01*
X148932975Y-109802900D01*
X148844100Y-109891775D01*
X148844100Y-110382900D01*
X148864100Y-110382900D01*
X148864100Y-110433900D01*
X148844100Y-110433900D01*
X148844100Y-110925025D01*
X148932975Y-111013900D01*
X149403613Y-111013900D01*
X149472295Y-111000238D01*
X149536992Y-110973440D01*
X149595218Y-110934535D01*
X149644735Y-110885018D01*
X149683640Y-110826793D01*
X149684501Y-110824715D01*
X149684501Y-111074095D01*
X149574848Y-111183748D01*
X149538589Y-111153993D01*
X149485691Y-111125718D01*
X149428292Y-111108306D01*
X149368600Y-111102427D01*
X148268600Y-111102427D01*
X148208908Y-111108306D01*
X148151509Y-111125718D01*
X148098611Y-111153993D01*
X148052244Y-111192044D01*
X148014193Y-111238411D01*
X147985918Y-111291309D01*
X147968506Y-111348708D01*
X147962627Y-111408400D01*
X147962627Y-111908400D01*
X147968506Y-111968092D01*
X147985918Y-112025491D01*
X148014193Y-112078389D01*
X148052244Y-112124756D01*
X148098611Y-112162807D01*
X148151509Y-112191082D01*
X148208908Y-112208494D01*
X148268600Y-112214373D01*
X149368600Y-112214373D01*
X149428292Y-112208494D01*
X149485691Y-112191082D01*
X149538589Y-112162807D01*
X149584956Y-112124756D01*
X149615202Y-112087900D01*
X149684500Y-112087900D01*
X149684501Y-112854500D01*
X144293097Y-112854500D01*
X144272000Y-112852422D01*
X144250903Y-112854500D01*
X144187803Y-112860715D01*
X144106842Y-112885274D01*
X144032228Y-112925156D01*
X143966828Y-112978828D01*
X143953378Y-112995217D01*
X143221222Y-113727374D01*
X143204828Y-113740828D01*
X143151156Y-113806229D01*
X143117244Y-113869674D01*
X143111274Y-113880843D01*
X143086715Y-113961804D01*
X143078422Y-114046000D01*
X143080500Y-114067097D01*
X143080501Y-118186095D01*
X142951096Y-118315500D01*
X142538392Y-118315500D01*
X142498346Y-118275454D01*
X142399338Y-118209299D01*
X142289326Y-118163731D01*
X142172538Y-118140500D01*
X142053462Y-118140500D01*
X141936674Y-118163731D01*
X141826662Y-118209299D01*
X141727654Y-118275454D01*
X141643454Y-118359654D01*
X141577299Y-118458662D01*
X141531731Y-118568674D01*
X141508500Y-118685462D01*
X140633500Y-118685462D01*
X140633500Y-110522775D01*
X147913100Y-110522775D01*
X147913100Y-110693414D01*
X147926762Y-110762096D01*
X147953560Y-110826793D01*
X147992465Y-110885018D01*
X148041982Y-110934535D01*
X148100208Y-110973440D01*
X148164905Y-111000238D01*
X148233587Y-111013900D01*
X148704225Y-111013900D01*
X148793100Y-110925025D01*
X148793100Y-110433900D01*
X148001975Y-110433900D01*
X147913100Y-110522775D01*
X140633500Y-110522775D01*
X140633500Y-110123386D01*
X147913100Y-110123386D01*
X147913100Y-110294025D01*
X148001975Y-110382900D01*
X148793100Y-110382900D01*
X148793100Y-109891775D01*
X148704225Y-109802900D01*
X148233587Y-109802900D01*
X148164905Y-109816562D01*
X148100208Y-109843360D01*
X148041982Y-109882265D01*
X147992465Y-109931782D01*
X147953560Y-109990007D01*
X147926762Y-110054704D01*
X147913100Y-110123386D01*
X140633500Y-110123386D01*
X140633500Y-107556375D01*
X142770500Y-107556375D01*
X142770500Y-107977013D01*
X142784162Y-108045695D01*
X142810960Y-108110392D01*
X142849865Y-108168618D01*
X142899382Y-108218135D01*
X142957607Y-108257040D01*
X143022304Y-108283838D01*
X143090986Y-108297500D01*
X143561625Y-108297500D01*
X143650500Y-108208625D01*
X143650500Y-107467500D01*
X142859375Y-107467500D01*
X142770500Y-107556375D01*
X140633500Y-107556375D01*
X140633500Y-106906987D01*
X142770500Y-106906987D01*
X142770500Y-107327625D01*
X142859375Y-107416500D01*
X143650500Y-107416500D01*
X143650500Y-106675375D01*
X143701500Y-106675375D01*
X143701500Y-107416500D01*
X143721500Y-107416500D01*
X143721500Y-107467500D01*
X143701500Y-107467500D01*
X143701500Y-108208625D01*
X143790375Y-108297500D01*
X144261014Y-108297500D01*
X144329696Y-108283838D01*
X144394393Y-108257040D01*
X144452618Y-108218135D01*
X144502135Y-108168618D01*
X144541040Y-108110392D01*
X144554007Y-108079088D01*
X144571593Y-108111989D01*
X144609644Y-108158356D01*
X144656011Y-108196407D01*
X144708909Y-108224682D01*
X144766308Y-108242094D01*
X144826000Y-108247973D01*
X145085728Y-108247973D01*
X145117157Y-108306772D01*
X145170829Y-108372172D01*
X145187218Y-108385622D01*
X146248778Y-109447183D01*
X146262228Y-109463572D01*
X146278615Y-109477020D01*
X146327628Y-109517244D01*
X146402242Y-109557126D01*
X146483203Y-109581685D01*
X146567400Y-109589978D01*
X146588497Y-109587900D01*
X148021998Y-109587900D01*
X148052244Y-109624756D01*
X148098611Y-109662807D01*
X148151509Y-109691082D01*
X148208908Y-109708494D01*
X148268600Y-109714373D01*
X149368600Y-109714373D01*
X149428292Y-109708494D01*
X149485691Y-109691082D01*
X149538589Y-109662807D01*
X149584956Y-109624756D01*
X149623007Y-109578389D01*
X149651282Y-109525491D01*
X149668694Y-109468092D01*
X149674573Y-109408400D01*
X149674573Y-108908400D01*
X149668694Y-108848708D01*
X149651282Y-108791309D01*
X149623007Y-108738411D01*
X149584956Y-108692044D01*
X149538589Y-108653993D01*
X149485691Y-108625718D01*
X149428292Y-108608306D01*
X149368600Y-108602427D01*
X148268600Y-108602427D01*
X148208908Y-108608306D01*
X148151509Y-108625718D01*
X148098611Y-108653993D01*
X148052244Y-108692044D01*
X148021998Y-108728900D01*
X146745305Y-108728900D01*
X146156962Y-108140558D01*
X146180407Y-108111989D01*
X146208682Y-108059091D01*
X146226094Y-108001692D01*
X146231973Y-107942000D01*
X146231973Y-106942000D01*
X146226094Y-106882308D01*
X146208682Y-106824909D01*
X146180407Y-106772011D01*
X146142356Y-106725644D01*
X146095989Y-106687593D01*
X146043091Y-106659318D01*
X145985692Y-106641906D01*
X145926000Y-106636027D01*
X144826000Y-106636027D01*
X144766308Y-106641906D01*
X144708909Y-106659318D01*
X144656011Y-106687593D01*
X144609644Y-106725644D01*
X144571593Y-106772011D01*
X144554007Y-106804912D01*
X144541040Y-106773608D01*
X144502135Y-106715382D01*
X144452618Y-106665865D01*
X144394393Y-106626960D01*
X144329696Y-106600162D01*
X144261014Y-106586500D01*
X143790375Y-106586500D01*
X143701500Y-106675375D01*
X143650500Y-106675375D01*
X143561625Y-106586500D01*
X143090986Y-106586500D01*
X143022304Y-106600162D01*
X142957607Y-106626960D01*
X142899382Y-106665865D01*
X142849865Y-106715382D01*
X142810960Y-106773608D01*
X142784162Y-106838305D01*
X142770500Y-106906987D01*
X140633500Y-106906987D01*
X140633500Y-105778375D01*
X142770500Y-105778375D01*
X142770500Y-106199013D01*
X142784162Y-106267695D01*
X142810960Y-106332392D01*
X142849865Y-106390618D01*
X142899382Y-106440135D01*
X142957607Y-106479040D01*
X143022304Y-106505838D01*
X143090986Y-106519500D01*
X143561625Y-106519500D01*
X143650500Y-106430625D01*
X143650500Y-105689500D01*
X142859375Y-105689500D01*
X142770500Y-105778375D01*
X140633500Y-105778375D01*
X140633500Y-105128987D01*
X142770500Y-105128987D01*
X142770500Y-105549625D01*
X142859375Y-105638500D01*
X143650500Y-105638500D01*
X143650500Y-104897375D01*
X143561625Y-104808500D01*
X143090986Y-104808500D01*
X143022304Y-104822162D01*
X142957607Y-104848960D01*
X142899382Y-104887865D01*
X142849865Y-104937382D01*
X142810960Y-104995608D01*
X142784162Y-105060305D01*
X142770500Y-105128987D01*
X140633500Y-105128987D01*
X140633500Y-104268500D01*
X154874500Y-104268500D01*
X154874501Y-125509500D01*
G04 #@! TD*
M02*
