G04 #@! TF.FileFunction,Copper,L2,Bot,Signal*
%FSLAX46Y46*%
G04 Gerber Fmt 4.6, Leading zero omitted, Abs format (unit mm)*
G04 Created by KiCad (PCBNEW 4.0.7-e2-6376~58~ubuntu16.04.1) date Thu Feb 15 14:57:13 2018*
%MOMM*%
%LPD*%
G01*
G04 APERTURE LIST*
%ADD10C,0.100000*%
%ADD11R,1.700000X1.700000*%
%ADD12O,1.700000X1.700000*%
%ADD13C,0.600000*%
%ADD14C,0.250000*%
%ADD15C,0.203000*%
G04 APERTURE END LIST*
D10*
D11*
X144526000Y-110744000D03*
D12*
X144526000Y-113284000D03*
X144526000Y-115824000D03*
X144526000Y-118364000D03*
X144526000Y-120904000D03*
X144526000Y-123444000D03*
D13*
X152527000Y-119888000D03*
X147193000Y-121031000D03*
X153162000Y-107950000D03*
X147066000Y-118110000D03*
X153924000Y-108204000D03*
X151384000Y-115062000D03*
D14*
X153162000Y-107950000D02*
X153162000Y-109728000D01*
X153162000Y-109728000D02*
X147066000Y-115824000D01*
X147066000Y-115824000D02*
X144526000Y-115824000D01*
X146253200Y-120091200D02*
X147193000Y-121031000D01*
X144526000Y-115824000D02*
X146253200Y-117551200D01*
X146253200Y-117551200D02*
X146253200Y-120091200D01*
X147702410Y-115824000D02*
X147066000Y-116460410D01*
X147066000Y-116460410D02*
X147066000Y-118110000D01*
X153924000Y-108204000D02*
X153924000Y-109602410D01*
X148337410Y-115189000D02*
X147702410Y-115824000D01*
X148464410Y-115062000D02*
X147702410Y-115824000D01*
X151384000Y-115062000D02*
X148464410Y-115062000D01*
X153924000Y-109602410D02*
X153798410Y-109728000D01*
X148464410Y-115062000D02*
X148337410Y-115189000D01*
X153798410Y-109728000D02*
X148337410Y-115189000D01*
D15*
G36*
X154560500Y-125350500D02*
X141095500Y-125350500D01*
X141095500Y-123435940D01*
X143365942Y-123435940D01*
X143386363Y-123660332D01*
X143449980Y-123876483D01*
X143554370Y-124076162D01*
X143695555Y-124251761D01*
X143868160Y-124396594D01*
X144065608Y-124505142D01*
X144280380Y-124573271D01*
X144504295Y-124598387D01*
X144520414Y-124598500D01*
X144531586Y-124598500D01*
X144755830Y-124576513D01*
X144971532Y-124511388D01*
X145170477Y-124405608D01*
X145345086Y-124263199D01*
X145488710Y-124089588D01*
X145595877Y-123891387D01*
X145662506Y-123676144D01*
X145686058Y-123452060D01*
X145665637Y-123227668D01*
X145602020Y-123011517D01*
X145497630Y-122811838D01*
X145356445Y-122636239D01*
X145183840Y-122491406D01*
X144986392Y-122382858D01*
X144771620Y-122314729D01*
X144547705Y-122289613D01*
X144531586Y-122289500D01*
X144520414Y-122289500D01*
X144296170Y-122311487D01*
X144080468Y-122376612D01*
X143881523Y-122482392D01*
X143706914Y-122624801D01*
X143563290Y-122798412D01*
X143456123Y-122996613D01*
X143389494Y-123211856D01*
X143365942Y-123435940D01*
X141095500Y-123435940D01*
X141095500Y-120895940D01*
X143365942Y-120895940D01*
X143386363Y-121120332D01*
X143449980Y-121336483D01*
X143554370Y-121536162D01*
X143695555Y-121711761D01*
X143868160Y-121856594D01*
X144065608Y-121965142D01*
X144280380Y-122033271D01*
X144504295Y-122058387D01*
X144520414Y-122058500D01*
X144531586Y-122058500D01*
X144755830Y-122036513D01*
X144971532Y-121971388D01*
X145170477Y-121865608D01*
X145345086Y-121723199D01*
X145488710Y-121549588D01*
X145595877Y-121351387D01*
X145662506Y-121136144D01*
X145686058Y-120912060D01*
X145665637Y-120687668D01*
X145602020Y-120471517D01*
X145497630Y-120271838D01*
X145356445Y-120096239D01*
X145183840Y-119951406D01*
X144986392Y-119842858D01*
X144771620Y-119774729D01*
X144547705Y-119749613D01*
X144531586Y-119749500D01*
X144520414Y-119749500D01*
X144296170Y-119771487D01*
X144080468Y-119836612D01*
X143881523Y-119942392D01*
X143706914Y-120084801D01*
X143563290Y-120258412D01*
X143456123Y-120456613D01*
X143389494Y-120671856D01*
X143365942Y-120895940D01*
X141095500Y-120895940D01*
X141095500Y-118355940D01*
X143365942Y-118355940D01*
X143386363Y-118580332D01*
X143449980Y-118796483D01*
X143554370Y-118996162D01*
X143695555Y-119171761D01*
X143868160Y-119316594D01*
X144065608Y-119425142D01*
X144280380Y-119493271D01*
X144504295Y-119518387D01*
X144520414Y-119518500D01*
X144531586Y-119518500D01*
X144755830Y-119496513D01*
X144971532Y-119431388D01*
X145170477Y-119325608D01*
X145345086Y-119183199D01*
X145488710Y-119009588D01*
X145595877Y-118811387D01*
X145662506Y-118596144D01*
X145686058Y-118372060D01*
X145665637Y-118147668D01*
X145602020Y-117931517D01*
X145497630Y-117731838D01*
X145356445Y-117556239D01*
X145183840Y-117411406D01*
X144986392Y-117302858D01*
X144771620Y-117234729D01*
X144547705Y-117209613D01*
X144531586Y-117209500D01*
X144520414Y-117209500D01*
X144296170Y-117231487D01*
X144080468Y-117296612D01*
X143881523Y-117402392D01*
X143706914Y-117544801D01*
X143563290Y-117718412D01*
X143456123Y-117916613D01*
X143389494Y-118131856D01*
X143365942Y-118355940D01*
X141095500Y-118355940D01*
X141095500Y-115815940D01*
X143365942Y-115815940D01*
X143386363Y-116040332D01*
X143449980Y-116256483D01*
X143554370Y-116456162D01*
X143695555Y-116631761D01*
X143868160Y-116776594D01*
X144065608Y-116885142D01*
X144280380Y-116953271D01*
X144504295Y-116978387D01*
X144520414Y-116978500D01*
X144531586Y-116978500D01*
X144755830Y-116956513D01*
X144971532Y-116891388D01*
X144980967Y-116886371D01*
X145823700Y-117729105D01*
X145823700Y-120091200D01*
X145827576Y-120130734D01*
X145831030Y-120170207D01*
X145831659Y-120172373D01*
X145831880Y-120174624D01*
X145843354Y-120212630D01*
X145854415Y-120250703D01*
X145855454Y-120252708D01*
X145856107Y-120254870D01*
X145874749Y-120289930D01*
X145892991Y-120325122D01*
X145894398Y-120326884D01*
X145895460Y-120328882D01*
X145920570Y-120359670D01*
X145945287Y-120390632D01*
X145948383Y-120393772D01*
X145948439Y-120393840D01*
X145948502Y-120393892D01*
X145949498Y-120394902D01*
X146588376Y-121033780D01*
X146587705Y-121081828D01*
X146609106Y-121198429D01*
X146652746Y-121308653D01*
X146716965Y-121408301D01*
X146799316Y-121493577D01*
X146896662Y-121561235D01*
X147005295Y-121608696D01*
X147121078Y-121634152D01*
X147239601Y-121636635D01*
X147356349Y-121616049D01*
X147466874Y-121573179D01*
X147566968Y-121509657D01*
X147652818Y-121427904D01*
X147721153Y-121331033D01*
X147769371Y-121222733D01*
X147795635Y-121107131D01*
X147797526Y-120971726D01*
X147774500Y-120855435D01*
X147729324Y-120745831D01*
X147663721Y-120647090D01*
X147580187Y-120562971D01*
X147481906Y-120496679D01*
X147372620Y-120450740D01*
X147256493Y-120426903D01*
X147195884Y-120426480D01*
X146682700Y-119913296D01*
X146682700Y-118579794D01*
X146769662Y-118640235D01*
X146878295Y-118687696D01*
X146994078Y-118713152D01*
X147112601Y-118715635D01*
X147229349Y-118695049D01*
X147339874Y-118652179D01*
X147439968Y-118588657D01*
X147525818Y-118506904D01*
X147594153Y-118410033D01*
X147642371Y-118301733D01*
X147668635Y-118186131D01*
X147670526Y-118050726D01*
X147647500Y-117934435D01*
X147602324Y-117824831D01*
X147536721Y-117726090D01*
X147495500Y-117684580D01*
X147495500Y-116638314D01*
X148006113Y-116127702D01*
X148006118Y-116127696D01*
X148641113Y-115492702D01*
X148642315Y-115491500D01*
X150958374Y-115491500D01*
X150990316Y-115524577D01*
X151087662Y-115592235D01*
X151196295Y-115639696D01*
X151312078Y-115665152D01*
X151430601Y-115667635D01*
X151547349Y-115647049D01*
X151657874Y-115604179D01*
X151757968Y-115540657D01*
X151843818Y-115458904D01*
X151912153Y-115362033D01*
X151960371Y-115253733D01*
X151986635Y-115138131D01*
X151988526Y-115002726D01*
X151965500Y-114886435D01*
X151920324Y-114776831D01*
X151854721Y-114678090D01*
X151771187Y-114593971D01*
X151672906Y-114527679D01*
X151563620Y-114481740D01*
X151447493Y-114457903D01*
X151328948Y-114457075D01*
X151212499Y-114479289D01*
X151102582Y-114523698D01*
X151003385Y-114588611D01*
X150958567Y-114632500D01*
X149501314Y-114632500D01*
X154102112Y-110031703D01*
X154102117Y-110031697D01*
X154227702Y-109906112D01*
X154252894Y-109875443D01*
X154278386Y-109845063D01*
X154279473Y-109843086D01*
X154280908Y-109841339D01*
X154299666Y-109806355D01*
X154318769Y-109771608D01*
X154319452Y-109769455D01*
X154320519Y-109767465D01*
X154332131Y-109729484D01*
X154344114Y-109691708D01*
X154344365Y-109689469D01*
X154345027Y-109687304D01*
X154349040Y-109647796D01*
X154353458Y-109608407D01*
X154353489Y-109603989D01*
X154353497Y-109603910D01*
X154353490Y-109603836D01*
X154353500Y-109602410D01*
X154353500Y-108629775D01*
X154383818Y-108600904D01*
X154452153Y-108504033D01*
X154500371Y-108395733D01*
X154526635Y-108280131D01*
X154528526Y-108144726D01*
X154505500Y-108028435D01*
X154460324Y-107918831D01*
X154394721Y-107820090D01*
X154311187Y-107735971D01*
X154212906Y-107669679D01*
X154103620Y-107623740D01*
X153987493Y-107599903D01*
X153868948Y-107599075D01*
X153752499Y-107621289D01*
X153686982Y-107647759D01*
X153632721Y-107566090D01*
X153549187Y-107481971D01*
X153450906Y-107415679D01*
X153341620Y-107369740D01*
X153225493Y-107345903D01*
X153106948Y-107345075D01*
X152990499Y-107367289D01*
X152880582Y-107411698D01*
X152781385Y-107476611D01*
X152696685Y-107559555D01*
X152629709Y-107657371D01*
X152583008Y-107766333D01*
X152558361Y-107882291D01*
X152556705Y-108000828D01*
X152578106Y-108117429D01*
X152621746Y-108227653D01*
X152685965Y-108327301D01*
X152732500Y-108375489D01*
X152732500Y-109550096D01*
X146888096Y-115394500D01*
X145602898Y-115394500D01*
X145602020Y-115391517D01*
X145497630Y-115191838D01*
X145356445Y-115016239D01*
X145183840Y-114871406D01*
X144986392Y-114762858D01*
X144771620Y-114694729D01*
X144547705Y-114669613D01*
X144531586Y-114669500D01*
X144520414Y-114669500D01*
X144296170Y-114691487D01*
X144080468Y-114756612D01*
X143881523Y-114862392D01*
X143706914Y-115004801D01*
X143563290Y-115178412D01*
X143456123Y-115376613D01*
X143389494Y-115591856D01*
X143365942Y-115815940D01*
X141095500Y-115815940D01*
X141095500Y-113275940D01*
X143365942Y-113275940D01*
X143386363Y-113500332D01*
X143449980Y-113716483D01*
X143554370Y-113916162D01*
X143695555Y-114091761D01*
X143868160Y-114236594D01*
X144065608Y-114345142D01*
X144280380Y-114413271D01*
X144504295Y-114438387D01*
X144520414Y-114438500D01*
X144531586Y-114438500D01*
X144755830Y-114416513D01*
X144971532Y-114351388D01*
X145170477Y-114245608D01*
X145345086Y-114103199D01*
X145488710Y-113929588D01*
X145595877Y-113731387D01*
X145662506Y-113516144D01*
X145686058Y-113292060D01*
X145665637Y-113067668D01*
X145602020Y-112851517D01*
X145497630Y-112651838D01*
X145356445Y-112476239D01*
X145183840Y-112331406D01*
X144986392Y-112222858D01*
X144771620Y-112154729D01*
X144547705Y-112129613D01*
X144531586Y-112129500D01*
X144520414Y-112129500D01*
X144296170Y-112151487D01*
X144080468Y-112216612D01*
X143881523Y-112322392D01*
X143706914Y-112464801D01*
X143563290Y-112638412D01*
X143456123Y-112836613D01*
X143389494Y-113051856D01*
X143365942Y-113275940D01*
X141095500Y-113275940D01*
X141095500Y-110858375D01*
X143320500Y-110858375D01*
X143320500Y-111629013D01*
X143334162Y-111697695D01*
X143360960Y-111762392D01*
X143399865Y-111820618D01*
X143449382Y-111870135D01*
X143507607Y-111909040D01*
X143572304Y-111935838D01*
X143640986Y-111949500D01*
X144411625Y-111949500D01*
X144500500Y-111860625D01*
X144500500Y-110769500D01*
X144551500Y-110769500D01*
X144551500Y-111860625D01*
X144640375Y-111949500D01*
X145411014Y-111949500D01*
X145479696Y-111935838D01*
X145544393Y-111909040D01*
X145602618Y-111870135D01*
X145652135Y-111820618D01*
X145691040Y-111762392D01*
X145717838Y-111697695D01*
X145731500Y-111629013D01*
X145731500Y-110858375D01*
X145642625Y-110769500D01*
X144551500Y-110769500D01*
X144500500Y-110769500D01*
X143409375Y-110769500D01*
X143320500Y-110858375D01*
X141095500Y-110858375D01*
X141095500Y-109858987D01*
X143320500Y-109858987D01*
X143320500Y-110629625D01*
X143409375Y-110718500D01*
X144500500Y-110718500D01*
X144500500Y-109627375D01*
X144551500Y-109627375D01*
X144551500Y-110718500D01*
X145642625Y-110718500D01*
X145731500Y-110629625D01*
X145731500Y-109858987D01*
X145717838Y-109790305D01*
X145691040Y-109725608D01*
X145652135Y-109667382D01*
X145602618Y-109617865D01*
X145544393Y-109578960D01*
X145479696Y-109552162D01*
X145411014Y-109538500D01*
X144640375Y-109538500D01*
X144551500Y-109627375D01*
X144500500Y-109627375D01*
X144411625Y-109538500D01*
X143640986Y-109538500D01*
X143572304Y-109552162D01*
X143507607Y-109578960D01*
X143449382Y-109617865D01*
X143399865Y-109667382D01*
X143360960Y-109725608D01*
X143334162Y-109790305D01*
X143320500Y-109858987D01*
X141095500Y-109858987D01*
X141095500Y-104519500D01*
X154560500Y-104519500D01*
X154560500Y-125350500D01*
X154560500Y-125350500D01*
G37*
X154560500Y-125350500D02*
X141095500Y-125350500D01*
X141095500Y-123435940D01*
X143365942Y-123435940D01*
X143386363Y-123660332D01*
X143449980Y-123876483D01*
X143554370Y-124076162D01*
X143695555Y-124251761D01*
X143868160Y-124396594D01*
X144065608Y-124505142D01*
X144280380Y-124573271D01*
X144504295Y-124598387D01*
X144520414Y-124598500D01*
X144531586Y-124598500D01*
X144755830Y-124576513D01*
X144971532Y-124511388D01*
X145170477Y-124405608D01*
X145345086Y-124263199D01*
X145488710Y-124089588D01*
X145595877Y-123891387D01*
X145662506Y-123676144D01*
X145686058Y-123452060D01*
X145665637Y-123227668D01*
X145602020Y-123011517D01*
X145497630Y-122811838D01*
X145356445Y-122636239D01*
X145183840Y-122491406D01*
X144986392Y-122382858D01*
X144771620Y-122314729D01*
X144547705Y-122289613D01*
X144531586Y-122289500D01*
X144520414Y-122289500D01*
X144296170Y-122311487D01*
X144080468Y-122376612D01*
X143881523Y-122482392D01*
X143706914Y-122624801D01*
X143563290Y-122798412D01*
X143456123Y-122996613D01*
X143389494Y-123211856D01*
X143365942Y-123435940D01*
X141095500Y-123435940D01*
X141095500Y-120895940D01*
X143365942Y-120895940D01*
X143386363Y-121120332D01*
X143449980Y-121336483D01*
X143554370Y-121536162D01*
X143695555Y-121711761D01*
X143868160Y-121856594D01*
X144065608Y-121965142D01*
X144280380Y-122033271D01*
X144504295Y-122058387D01*
X144520414Y-122058500D01*
X144531586Y-122058500D01*
X144755830Y-122036513D01*
X144971532Y-121971388D01*
X145170477Y-121865608D01*
X145345086Y-121723199D01*
X145488710Y-121549588D01*
X145595877Y-121351387D01*
X145662506Y-121136144D01*
X145686058Y-120912060D01*
X145665637Y-120687668D01*
X145602020Y-120471517D01*
X145497630Y-120271838D01*
X145356445Y-120096239D01*
X145183840Y-119951406D01*
X144986392Y-119842858D01*
X144771620Y-119774729D01*
X144547705Y-119749613D01*
X144531586Y-119749500D01*
X144520414Y-119749500D01*
X144296170Y-119771487D01*
X144080468Y-119836612D01*
X143881523Y-119942392D01*
X143706914Y-120084801D01*
X143563290Y-120258412D01*
X143456123Y-120456613D01*
X143389494Y-120671856D01*
X143365942Y-120895940D01*
X141095500Y-120895940D01*
X141095500Y-118355940D01*
X143365942Y-118355940D01*
X143386363Y-118580332D01*
X143449980Y-118796483D01*
X143554370Y-118996162D01*
X143695555Y-119171761D01*
X143868160Y-119316594D01*
X144065608Y-119425142D01*
X144280380Y-119493271D01*
X144504295Y-119518387D01*
X144520414Y-119518500D01*
X144531586Y-119518500D01*
X144755830Y-119496513D01*
X144971532Y-119431388D01*
X145170477Y-119325608D01*
X145345086Y-119183199D01*
X145488710Y-119009588D01*
X145595877Y-118811387D01*
X145662506Y-118596144D01*
X145686058Y-118372060D01*
X145665637Y-118147668D01*
X145602020Y-117931517D01*
X145497630Y-117731838D01*
X145356445Y-117556239D01*
X145183840Y-117411406D01*
X144986392Y-117302858D01*
X144771620Y-117234729D01*
X144547705Y-117209613D01*
X144531586Y-117209500D01*
X144520414Y-117209500D01*
X144296170Y-117231487D01*
X144080468Y-117296612D01*
X143881523Y-117402392D01*
X143706914Y-117544801D01*
X143563290Y-117718412D01*
X143456123Y-117916613D01*
X143389494Y-118131856D01*
X143365942Y-118355940D01*
X141095500Y-118355940D01*
X141095500Y-115815940D01*
X143365942Y-115815940D01*
X143386363Y-116040332D01*
X143449980Y-116256483D01*
X143554370Y-116456162D01*
X143695555Y-116631761D01*
X143868160Y-116776594D01*
X144065608Y-116885142D01*
X144280380Y-116953271D01*
X144504295Y-116978387D01*
X144520414Y-116978500D01*
X144531586Y-116978500D01*
X144755830Y-116956513D01*
X144971532Y-116891388D01*
X144980967Y-116886371D01*
X145823700Y-117729105D01*
X145823700Y-120091200D01*
X145827576Y-120130734D01*
X145831030Y-120170207D01*
X145831659Y-120172373D01*
X145831880Y-120174624D01*
X145843354Y-120212630D01*
X145854415Y-120250703D01*
X145855454Y-120252708D01*
X145856107Y-120254870D01*
X145874749Y-120289930D01*
X145892991Y-120325122D01*
X145894398Y-120326884D01*
X145895460Y-120328882D01*
X145920570Y-120359670D01*
X145945287Y-120390632D01*
X145948383Y-120393772D01*
X145948439Y-120393840D01*
X145948502Y-120393892D01*
X145949498Y-120394902D01*
X146588376Y-121033780D01*
X146587705Y-121081828D01*
X146609106Y-121198429D01*
X146652746Y-121308653D01*
X146716965Y-121408301D01*
X146799316Y-121493577D01*
X146896662Y-121561235D01*
X147005295Y-121608696D01*
X147121078Y-121634152D01*
X147239601Y-121636635D01*
X147356349Y-121616049D01*
X147466874Y-121573179D01*
X147566968Y-121509657D01*
X147652818Y-121427904D01*
X147721153Y-121331033D01*
X147769371Y-121222733D01*
X147795635Y-121107131D01*
X147797526Y-120971726D01*
X147774500Y-120855435D01*
X147729324Y-120745831D01*
X147663721Y-120647090D01*
X147580187Y-120562971D01*
X147481906Y-120496679D01*
X147372620Y-120450740D01*
X147256493Y-120426903D01*
X147195884Y-120426480D01*
X146682700Y-119913296D01*
X146682700Y-118579794D01*
X146769662Y-118640235D01*
X146878295Y-118687696D01*
X146994078Y-118713152D01*
X147112601Y-118715635D01*
X147229349Y-118695049D01*
X147339874Y-118652179D01*
X147439968Y-118588657D01*
X147525818Y-118506904D01*
X147594153Y-118410033D01*
X147642371Y-118301733D01*
X147668635Y-118186131D01*
X147670526Y-118050726D01*
X147647500Y-117934435D01*
X147602324Y-117824831D01*
X147536721Y-117726090D01*
X147495500Y-117684580D01*
X147495500Y-116638314D01*
X148006113Y-116127702D01*
X148006118Y-116127696D01*
X148641113Y-115492702D01*
X148642315Y-115491500D01*
X150958374Y-115491500D01*
X150990316Y-115524577D01*
X151087662Y-115592235D01*
X151196295Y-115639696D01*
X151312078Y-115665152D01*
X151430601Y-115667635D01*
X151547349Y-115647049D01*
X151657874Y-115604179D01*
X151757968Y-115540657D01*
X151843818Y-115458904D01*
X151912153Y-115362033D01*
X151960371Y-115253733D01*
X151986635Y-115138131D01*
X151988526Y-115002726D01*
X151965500Y-114886435D01*
X151920324Y-114776831D01*
X151854721Y-114678090D01*
X151771187Y-114593971D01*
X151672906Y-114527679D01*
X151563620Y-114481740D01*
X151447493Y-114457903D01*
X151328948Y-114457075D01*
X151212499Y-114479289D01*
X151102582Y-114523698D01*
X151003385Y-114588611D01*
X150958567Y-114632500D01*
X149501314Y-114632500D01*
X154102112Y-110031703D01*
X154102117Y-110031697D01*
X154227702Y-109906112D01*
X154252894Y-109875443D01*
X154278386Y-109845063D01*
X154279473Y-109843086D01*
X154280908Y-109841339D01*
X154299666Y-109806355D01*
X154318769Y-109771608D01*
X154319452Y-109769455D01*
X154320519Y-109767465D01*
X154332131Y-109729484D01*
X154344114Y-109691708D01*
X154344365Y-109689469D01*
X154345027Y-109687304D01*
X154349040Y-109647796D01*
X154353458Y-109608407D01*
X154353489Y-109603989D01*
X154353497Y-109603910D01*
X154353490Y-109603836D01*
X154353500Y-109602410D01*
X154353500Y-108629775D01*
X154383818Y-108600904D01*
X154452153Y-108504033D01*
X154500371Y-108395733D01*
X154526635Y-108280131D01*
X154528526Y-108144726D01*
X154505500Y-108028435D01*
X154460324Y-107918831D01*
X154394721Y-107820090D01*
X154311187Y-107735971D01*
X154212906Y-107669679D01*
X154103620Y-107623740D01*
X153987493Y-107599903D01*
X153868948Y-107599075D01*
X153752499Y-107621289D01*
X153686982Y-107647759D01*
X153632721Y-107566090D01*
X153549187Y-107481971D01*
X153450906Y-107415679D01*
X153341620Y-107369740D01*
X153225493Y-107345903D01*
X153106948Y-107345075D01*
X152990499Y-107367289D01*
X152880582Y-107411698D01*
X152781385Y-107476611D01*
X152696685Y-107559555D01*
X152629709Y-107657371D01*
X152583008Y-107766333D01*
X152558361Y-107882291D01*
X152556705Y-108000828D01*
X152578106Y-108117429D01*
X152621746Y-108227653D01*
X152685965Y-108327301D01*
X152732500Y-108375489D01*
X152732500Y-109550096D01*
X146888096Y-115394500D01*
X145602898Y-115394500D01*
X145602020Y-115391517D01*
X145497630Y-115191838D01*
X145356445Y-115016239D01*
X145183840Y-114871406D01*
X144986392Y-114762858D01*
X144771620Y-114694729D01*
X144547705Y-114669613D01*
X144531586Y-114669500D01*
X144520414Y-114669500D01*
X144296170Y-114691487D01*
X144080468Y-114756612D01*
X143881523Y-114862392D01*
X143706914Y-115004801D01*
X143563290Y-115178412D01*
X143456123Y-115376613D01*
X143389494Y-115591856D01*
X143365942Y-115815940D01*
X141095500Y-115815940D01*
X141095500Y-113275940D01*
X143365942Y-113275940D01*
X143386363Y-113500332D01*
X143449980Y-113716483D01*
X143554370Y-113916162D01*
X143695555Y-114091761D01*
X143868160Y-114236594D01*
X144065608Y-114345142D01*
X144280380Y-114413271D01*
X144504295Y-114438387D01*
X144520414Y-114438500D01*
X144531586Y-114438500D01*
X144755830Y-114416513D01*
X144971532Y-114351388D01*
X145170477Y-114245608D01*
X145345086Y-114103199D01*
X145488710Y-113929588D01*
X145595877Y-113731387D01*
X145662506Y-113516144D01*
X145686058Y-113292060D01*
X145665637Y-113067668D01*
X145602020Y-112851517D01*
X145497630Y-112651838D01*
X145356445Y-112476239D01*
X145183840Y-112331406D01*
X144986392Y-112222858D01*
X144771620Y-112154729D01*
X144547705Y-112129613D01*
X144531586Y-112129500D01*
X144520414Y-112129500D01*
X144296170Y-112151487D01*
X144080468Y-112216612D01*
X143881523Y-112322392D01*
X143706914Y-112464801D01*
X143563290Y-112638412D01*
X143456123Y-112836613D01*
X143389494Y-113051856D01*
X143365942Y-113275940D01*
X141095500Y-113275940D01*
X141095500Y-110858375D01*
X143320500Y-110858375D01*
X143320500Y-111629013D01*
X143334162Y-111697695D01*
X143360960Y-111762392D01*
X143399865Y-111820618D01*
X143449382Y-111870135D01*
X143507607Y-111909040D01*
X143572304Y-111935838D01*
X143640986Y-111949500D01*
X144411625Y-111949500D01*
X144500500Y-111860625D01*
X144500500Y-110769500D01*
X144551500Y-110769500D01*
X144551500Y-111860625D01*
X144640375Y-111949500D01*
X145411014Y-111949500D01*
X145479696Y-111935838D01*
X145544393Y-111909040D01*
X145602618Y-111870135D01*
X145652135Y-111820618D01*
X145691040Y-111762392D01*
X145717838Y-111697695D01*
X145731500Y-111629013D01*
X145731500Y-110858375D01*
X145642625Y-110769500D01*
X144551500Y-110769500D01*
X144500500Y-110769500D01*
X143409375Y-110769500D01*
X143320500Y-110858375D01*
X141095500Y-110858375D01*
X141095500Y-109858987D01*
X143320500Y-109858987D01*
X143320500Y-110629625D01*
X143409375Y-110718500D01*
X144500500Y-110718500D01*
X144500500Y-109627375D01*
X144551500Y-109627375D01*
X144551500Y-110718500D01*
X145642625Y-110718500D01*
X145731500Y-110629625D01*
X145731500Y-109858987D01*
X145717838Y-109790305D01*
X145691040Y-109725608D01*
X145652135Y-109667382D01*
X145602618Y-109617865D01*
X145544393Y-109578960D01*
X145479696Y-109552162D01*
X145411014Y-109538500D01*
X144640375Y-109538500D01*
X144551500Y-109627375D01*
X144500500Y-109627375D01*
X144411625Y-109538500D01*
X143640986Y-109538500D01*
X143572304Y-109552162D01*
X143507607Y-109578960D01*
X143449382Y-109617865D01*
X143399865Y-109667382D01*
X143360960Y-109725608D01*
X143334162Y-109790305D01*
X143320500Y-109858987D01*
X141095500Y-109858987D01*
X141095500Y-104519500D01*
X154560500Y-104519500D01*
X154560500Y-125350500D01*
M02*
