M48
;DRILL file {KiCad 4.0.6} date 07/26/17 14:17:57
;FORMAT={-:-/ absolute / inch / decimal}
FMAT,2
INCH,TZ
T1C0.012
T2C0.028
T3C0.039
T4C0.031
T5C0.087
%
G90
G05
M72
T1
X5.088Y-3.046
X5.088Y-3.21
X5.088Y-3.3745
X5.27Y-4.4156
X5.27Y-4.56
X5.27Y-4.64
X5.27Y-4.935
X5.275Y-3.0915
X5.276Y-2.9295
X5.276Y-3.2565
X5.395Y-5.5065
X5.424Y-5.506
X5.44Y-4.085
X5.454Y-5.5065
X5.455Y-4.6
X5.47Y-5.09
X5.475Y-4.08
X5.475Y-4.535
X5.4755Y-5.485
X5.5075Y-4.083
X5.513Y-3.9745
X5.525Y-2.575
X5.526Y-5.6265
X5.5274Y-5.6546
X5.5318Y-4.04
X5.54Y-4.07
X5.55Y-4.655
X5.5647Y-5.6467
X5.575Y-4.6014
X5.6002Y-3.9377
X5.61Y-3.975
X5.617Y-4.1145
X5.645Y-4.6785
X5.655Y-5.09
X5.685Y-2.5194
X5.6975Y-4.371
X5.712Y-4.3453
X5.735Y-3.71
X5.7471Y-4.6291
X5.77Y-3.5
X5.77Y-3.975
X5.7771Y-4.6291
X5.82Y-3.65
X5.875Y-2.38
X5.875Y-2.46
X5.915Y-4.75
T2
X5.4195Y-5.906
X5.6105Y-5.906
T3
X5.46Y-2.41
X5.46Y-2.51
X5.555Y-2.86
X5.655Y-2.86
X5.755Y-2.86
X6.0088Y-5.537
X6.0088Y-5.637
X6.0088Y-5.737
X6.0088Y-5.837
X6.0088Y-5.937
T4
X6.0266Y-3.8981
X6.0266Y-3.965
T5
X5.0551Y-1.9449
X5.0551Y-6.0472
X5.9528Y-1.9449
X5.9528Y-6.0512
T2
X5.3723Y-6.0024G85X5.3723Y-6.0182
G05
X5.6577Y-6.0024G85X5.6577Y-6.0182
G05
T0
M30
