G04 #@! TF.FileFunction,Legend,Top*
%FSLAX46Y46*%
G04 Gerber Fmt 4.6, Leading zero omitted, Abs format (unit mm)*
G04 Created by KiCad (PCBNEW 4.0.6) date 07/26/17 10:52:53*
%MOMM*%
%LPD*%
G01*
G04 APERTURE LIST*
%ADD10C,0.100000*%
%ADD11C,0.250000*%
%ADD12C,0.300000*%
%ADD13C,0.120000*%
%ADD14C,0.150000*%
%ADD15C,0.010000*%
G04 APERTURE END LIST*
D10*
D11*
X21717096Y-23376000D02*
X21621858Y-23328381D01*
X21479001Y-23328381D01*
X21336143Y-23376000D01*
X21240905Y-23471238D01*
X21193286Y-23566476D01*
X21145667Y-23756952D01*
X21145667Y-23899810D01*
X21193286Y-24090286D01*
X21240905Y-24185524D01*
X21336143Y-24280762D01*
X21479001Y-24328381D01*
X21574239Y-24328381D01*
X21717096Y-24280762D01*
X21764715Y-24233143D01*
X21764715Y-23899810D01*
X21574239Y-23899810D01*
X22193286Y-24328381D02*
X22193286Y-23328381D01*
X22764715Y-24328381D01*
X22764715Y-23328381D01*
X23240905Y-24328381D02*
X23240905Y-23328381D01*
X23479000Y-23328381D01*
X23621858Y-23376000D01*
X23717096Y-23471238D01*
X23764715Y-23566476D01*
X23812334Y-23756952D01*
X23812334Y-23899810D01*
X23764715Y-24090286D01*
X23717096Y-24185524D01*
X23621858Y-24280762D01*
X23479000Y-24328381D01*
X23240905Y-24328381D01*
X21367905Y-20788381D02*
X21986953Y-20788381D01*
X21653619Y-21169333D01*
X21796477Y-21169333D01*
X21891715Y-21216952D01*
X21939334Y-21264571D01*
X21986953Y-21359810D01*
X21986953Y-21597905D01*
X21939334Y-21693143D01*
X21891715Y-21740762D01*
X21796477Y-21788381D01*
X21510762Y-21788381D01*
X21415524Y-21740762D01*
X21367905Y-21693143D01*
X22272667Y-20788381D02*
X22606000Y-21788381D01*
X22939334Y-20788381D01*
X23177429Y-20788381D02*
X23796477Y-20788381D01*
X23463143Y-21169333D01*
X23606001Y-21169333D01*
X23701239Y-21216952D01*
X23748858Y-21264571D01*
X23796477Y-21359810D01*
X23796477Y-21597905D01*
X23748858Y-21693143D01*
X23701239Y-21740762D01*
X23606001Y-21788381D01*
X23320286Y-21788381D01*
X23225048Y-21740762D01*
X23177429Y-21693143D01*
X21415524Y-16660762D02*
X21558381Y-16708381D01*
X21796477Y-16708381D01*
X21891715Y-16660762D01*
X21939334Y-16613143D01*
X21986953Y-16517905D01*
X21986953Y-16422667D01*
X21939334Y-16327429D01*
X21891715Y-16279810D01*
X21796477Y-16232190D01*
X21606000Y-16184571D01*
X21510762Y-16136952D01*
X21463143Y-16089333D01*
X21415524Y-15994095D01*
X21415524Y-15898857D01*
X21463143Y-15803619D01*
X21510762Y-15756000D01*
X21606000Y-15708381D01*
X21844096Y-15708381D01*
X21986953Y-15756000D01*
X22986953Y-16613143D02*
X22939334Y-16660762D01*
X22796477Y-16708381D01*
X22701239Y-16708381D01*
X22558381Y-16660762D01*
X22463143Y-16565524D01*
X22415524Y-16470286D01*
X22367905Y-16279810D01*
X22367905Y-16136952D01*
X22415524Y-15946476D01*
X22463143Y-15851238D01*
X22558381Y-15756000D01*
X22701239Y-15708381D01*
X22796477Y-15708381D01*
X22939334Y-15756000D01*
X22986953Y-15803619D01*
X23891715Y-16708381D02*
X23415524Y-16708381D01*
X23415524Y-15708381D01*
X21391714Y-14120762D02*
X21534571Y-14168381D01*
X21772667Y-14168381D01*
X21867905Y-14120762D01*
X21915524Y-14073143D01*
X21963143Y-13977905D01*
X21963143Y-13882667D01*
X21915524Y-13787429D01*
X21867905Y-13739810D01*
X21772667Y-13692190D01*
X21582190Y-13644571D01*
X21486952Y-13596952D01*
X21439333Y-13549333D01*
X21391714Y-13454095D01*
X21391714Y-13358857D01*
X21439333Y-13263619D01*
X21486952Y-13216000D01*
X21582190Y-13168381D01*
X21820286Y-13168381D01*
X21963143Y-13216000D01*
X22391714Y-14168381D02*
X22391714Y-13168381D01*
X22629809Y-13168381D01*
X22772667Y-13216000D01*
X22867905Y-13311238D01*
X22915524Y-13406476D01*
X22963143Y-13596952D01*
X22963143Y-13739810D01*
X22915524Y-13930286D01*
X22867905Y-14025524D01*
X22772667Y-14120762D01*
X22629809Y-14168381D01*
X22391714Y-14168381D01*
X23344095Y-13882667D02*
X23820286Y-13882667D01*
X23248857Y-14168381D02*
X23582190Y-13168381D01*
X23915524Y-14168381D01*
D12*
X17986644Y-26285071D02*
X18343787Y-27285071D01*
X18700929Y-26285071D01*
X19558072Y-25785071D02*
X19700929Y-25785071D01*
X19843786Y-25856500D01*
X19915215Y-25927929D01*
X19986644Y-26070786D01*
X20058072Y-26356500D01*
X20058072Y-26713643D01*
X19986644Y-26999357D01*
X19915215Y-27142214D01*
X19843786Y-27213643D01*
X19700929Y-27285071D01*
X19558072Y-27285071D01*
X19415215Y-27213643D01*
X19343786Y-27142214D01*
X19272358Y-26999357D01*
X19200929Y-26713643D01*
X19200929Y-26356500D01*
X19272358Y-26070786D01*
X19343786Y-25927929D01*
X19415215Y-25856500D01*
X19558072Y-25785071D01*
X20700929Y-27142214D02*
X20772357Y-27213643D01*
X20700929Y-27285071D01*
X20629500Y-27213643D01*
X20700929Y-27142214D01*
X20700929Y-27285071D01*
X22200929Y-27285071D02*
X21343786Y-27285071D01*
X21772358Y-27285071D02*
X21772358Y-25785071D01*
X21629501Y-25999357D01*
X21486643Y-26142214D01*
X21343786Y-26213643D01*
D13*
X14273451Y31204923D02*
X13778477Y30709949D01*
X12929949Y31558477D02*
X13424923Y32053451D01*
X15289451Y30188923D02*
X14794477Y29693949D01*
X13945949Y30542477D02*
X14440923Y31037451D01*
X15440100Y27704300D02*
X15440100Y28404300D01*
X16640100Y28404300D02*
X16640100Y27704300D01*
X3394000Y21305000D02*
X3394000Y20605000D01*
X2194000Y20605000D02*
X2194000Y21305000D01*
X16837100Y27704300D02*
X16837100Y28404300D01*
X18037100Y28404300D02*
X18037100Y27704300D01*
X4160000Y28356000D02*
X3460000Y28356000D01*
X3460000Y29556000D02*
X4160000Y29556000D01*
X20224000Y18507000D02*
X20924000Y18507000D01*
X20924000Y17307000D02*
X20224000Y17307000D01*
X6065000Y15402000D02*
X5365000Y15402000D01*
X5365000Y16602000D02*
X6065000Y16602000D01*
X4160000Y26832000D02*
X3460000Y26832000D01*
X3460000Y28032000D02*
X4160000Y28032000D01*
X7147000Y11842000D02*
X7147000Y12542000D01*
X8347000Y12542000D02*
X8347000Y11842000D01*
X8347000Y4287000D02*
X8347000Y3587000D01*
X7147000Y3587000D02*
X7147000Y4287000D01*
X10572000Y727000D02*
X11272000Y727000D01*
X11272000Y-473000D02*
X10572000Y-473000D01*
X10572000Y2251000D02*
X11272000Y2251000D01*
X11272000Y1051000D02*
X10572000Y1051000D01*
X22236682Y4016680D02*
X22936682Y4016680D01*
X22936682Y2816680D02*
X22236682Y2816680D01*
X23893679Y9009817D02*
X23893679Y8309817D01*
X22693679Y8309817D02*
X22693679Y9009817D01*
X18618682Y2816680D02*
X17918682Y2816680D01*
X17918682Y4016680D02*
X18618682Y4016680D01*
X18371679Y13577817D02*
X19071679Y13577817D01*
X19071679Y12377817D02*
X18371679Y12377817D01*
X8317952Y8412470D02*
X8317952Y7712470D01*
X7117952Y7712470D02*
X7117952Y8412470D01*
D14*
X4868000Y22621000D02*
X4868000Y20021000D01*
X4868000Y20021000D02*
X3768000Y20021000D01*
X3768000Y20021000D02*
X3768000Y22621000D01*
X3768000Y22621000D02*
X4868000Y22621000D01*
D13*
X19603000Y28694000D02*
X19603000Y27694000D01*
X18243000Y27694000D02*
X18243000Y28694000D01*
X21254000Y28694000D02*
X21254000Y27694000D01*
X19894000Y27694000D02*
X19894000Y28694000D01*
X16226679Y12334817D02*
X16226679Y11334817D01*
X14866679Y11334817D02*
X14866679Y12334817D01*
X23285679Y12297817D02*
X22285679Y12297817D01*
X22285679Y13657817D02*
X23285679Y13657817D01*
X24212000Y9152000D02*
X24212000Y10152000D01*
X25572000Y10152000D02*
X25572000Y9152000D01*
D14*
X26976300Y29389000D02*
X26976300Y24889000D01*
X26826300Y29389000D02*
X26976300Y29389000D01*
X24376300Y27939000D02*
X24376300Y26339000D01*
X26976300Y24889000D02*
X26826300Y24889000D01*
D12*
X11957538Y26166656D02*
G75*
G03X11957538Y26166656I-70711J0D01*
G01*
D14*
X12700000Y15878253D02*
X17649747Y20828000D01*
X7750253Y20828000D02*
X12700000Y25777747D01*
X12700000Y25777747D02*
X17649747Y20828000D01*
X7750253Y20828000D02*
X12700000Y15878253D01*
D13*
X10922000Y11492000D02*
X10272000Y11492000D01*
X11622000Y12942000D02*
X10272000Y12942000D01*
D14*
X10272000Y2787000D02*
X11572000Y2787000D01*
X9672000Y5087000D02*
X11572000Y5087000D01*
X21741103Y8228180D02*
G75*
G03X21741103Y8228180I-141421J0D01*
G01*
X16799682Y7828180D02*
X21999682Y7828180D01*
X16799682Y11628180D02*
X16799682Y7828180D01*
X21999682Y11628180D02*
X16799682Y11628180D01*
X21999682Y7828180D02*
X21999682Y11628180D01*
X11572000Y9224470D02*
X10272000Y9224470D01*
X12172000Y6924470D02*
X10272000Y6924470D01*
X11054117Y28461723D02*
X11761223Y27754617D01*
X12114777Y29522383D02*
X12821883Y28815277D01*
X20927682Y6325680D02*
X19927682Y6325680D01*
X20927682Y4825680D02*
X19927682Y4825680D01*
D13*
X18883000Y33236000D02*
X18863000Y33236000D01*
X18863000Y33236000D02*
X18863000Y35896000D01*
X18863000Y35896000D02*
X18883000Y35896000D01*
X25313000Y33236000D02*
X25333000Y33236000D01*
X25333000Y33236000D02*
X25333000Y35896000D01*
X25333000Y35896000D02*
X25313000Y35896000D01*
X18883000Y38201000D02*
X18883000Y35896000D01*
D14*
X-25200Y43194200D02*
X3174800Y43194200D01*
X3174800Y43194200D02*
X3174800Y41794200D01*
X3174800Y41794200D02*
X-25200Y41794200D01*
X-25200Y41794200D02*
X-25200Y43194200D01*
X-25200Y43194200D02*
X-225200Y43194200D01*
X-225200Y43194200D02*
X-225200Y41794200D01*
X-225200Y41794200D02*
X-25200Y41794200D01*
X-64200Y47372500D02*
X3135800Y47372500D01*
X3135800Y47372500D02*
X3135800Y45972500D01*
X3135800Y45972500D02*
X-64200Y45972500D01*
X-64200Y45972500D02*
X-64200Y47372500D01*
X-64200Y47372500D02*
X-264200Y47372500D01*
X-264200Y47372500D02*
X-264200Y45972500D01*
X-264200Y45972500D02*
X-64200Y45972500D01*
X-203900Y51512700D02*
X2996100Y51512700D01*
X2996100Y51512700D02*
X2996100Y50112700D01*
X2996100Y50112700D02*
X-203900Y50112700D01*
X-203900Y50112700D02*
X-203900Y51512700D01*
X-203900Y51512700D02*
X-403900Y51512700D01*
X-403900Y51512700D02*
X-403900Y50112700D01*
X-403900Y50112700D02*
X-203900Y50112700D01*
X3757800Y43929200D02*
X3757800Y42529200D01*
X4657800Y42529200D02*
X3757800Y42529200D01*
X6757800Y42529200D02*
X5757800Y42529200D01*
X6757800Y43929200D02*
X6757800Y42529200D01*
X5657800Y43929200D02*
X4857800Y43929200D01*
X3757800Y48114500D02*
X3757800Y46714500D01*
X4657800Y46714500D02*
X3757800Y46714500D01*
X6757800Y46714500D02*
X5757800Y46714500D01*
X6757800Y48114500D02*
X6757800Y46714500D01*
X5657800Y48114500D02*
X4857800Y48114500D01*
X3745100Y52247700D02*
X3745100Y50847700D01*
X4645100Y50847700D02*
X3745100Y50847700D01*
X6745100Y50847700D02*
X5745100Y50847700D01*
X6745100Y52247700D02*
X6745100Y50847700D01*
X5645100Y52247700D02*
X4845100Y52247700D01*
X-25200Y44972200D02*
X-25200Y43572200D01*
X3174800Y44972200D02*
X3174800Y43572200D01*
X-25200Y44972200D02*
X3174800Y44972200D01*
X3174800Y43572200D02*
X-25200Y43572200D01*
X-64200Y49150500D02*
X-64200Y47750500D01*
X3135800Y49150500D02*
X3135800Y47750500D01*
X-64200Y49150500D02*
X3135800Y49150500D01*
X3135800Y47750500D02*
X-64200Y47750500D01*
X-203900Y53290700D02*
X-203900Y51890700D01*
X2996100Y53290700D02*
X2996100Y51890700D01*
X-203900Y53290700D02*
X2996100Y53290700D01*
X2996100Y51890700D02*
X-203900Y51890700D01*
D15*
G36*
X4721067Y-8905309D02*
X4720471Y-8961187D01*
X4719253Y-9009299D01*
X4717229Y-9052112D01*
X4714217Y-9092090D01*
X4710033Y-9131701D01*
X4704493Y-9173409D01*
X4697415Y-9219680D01*
X4689240Y-9269271D01*
X4654188Y-9439626D01*
X4607174Y-9606536D01*
X4548612Y-9769412D01*
X4478914Y-9927666D01*
X4398493Y-10080708D01*
X4307763Y-10227949D01*
X4207137Y-10368800D01*
X4097027Y-10502671D01*
X3977847Y-10628973D01*
X3850010Y-10747117D01*
X3713929Y-10856513D01*
X3570016Y-10956573D01*
X3459003Y-11024099D01*
X3300735Y-11107704D01*
X3138951Y-11179127D01*
X2973601Y-11238382D01*
X2804631Y-11285481D01*
X2631990Y-11320436D01*
X2455625Y-11343260D01*
X2275483Y-11353967D01*
X2100612Y-11352918D01*
X1925732Y-11340157D01*
X1752681Y-11315005D01*
X1582098Y-11277715D01*
X1414622Y-11228541D01*
X1250893Y-11167734D01*
X1091549Y-11095549D01*
X937229Y-11012238D01*
X788574Y-10918055D01*
X646222Y-10813253D01*
X562220Y-10743754D01*
X520790Y-10706435D01*
X474160Y-10661884D01*
X424782Y-10612641D01*
X375110Y-10561249D01*
X327596Y-10510247D01*
X284693Y-10462177D01*
X248855Y-10419581D01*
X246571Y-10416742D01*
X139714Y-10273523D01*
X43568Y-10124078D01*
X-41489Y-9969097D01*
X-115075Y-9809265D01*
X-172378Y-9658350D01*
X-224665Y-9486264D01*
X-264552Y-9312085D01*
X-291976Y-9136298D01*
X-306871Y-8959389D01*
X-309171Y-8781845D01*
X-304196Y-8670925D01*
X-286012Y-8493887D01*
X-255561Y-8319496D01*
X-213108Y-8148332D01*
X-158917Y-7980978D01*
X-93253Y-7818016D01*
X-16380Y-7660027D01*
X71438Y-7507594D01*
X169935Y-7361298D01*
X278848Y-7221722D01*
X397913Y-7089447D01*
X428711Y-7058110D01*
X558632Y-6937016D01*
X695635Y-6826214D01*
X839121Y-6725881D01*
X988491Y-6636195D01*
X1143147Y-6557334D01*
X1302489Y-6489475D01*
X1424647Y-6447109D01*
X1424647Y-6694840D01*
X1415858Y-6696094D01*
X1397385Y-6701921D01*
X1371085Y-6711588D01*
X1338810Y-6724361D01*
X1302416Y-6739506D01*
X1263757Y-6756289D01*
X1224785Y-6773932D01*
X1189023Y-6791526D01*
X1145761Y-6814449D01*
X1098045Y-6840950D01*
X1048919Y-6869281D01*
X1001429Y-6897691D01*
X958621Y-6924433D01*
X930425Y-6943017D01*
X811349Y-7030234D01*
X695948Y-7126851D01*
X586094Y-7231001D01*
X483665Y-7340815D01*
X390534Y-7454425D01*
X323211Y-7547938D01*
X288082Y-7608649D01*
X256797Y-7680681D01*
X229603Y-7763174D01*
X206748Y-7855268D01*
X188482Y-7956104D01*
X175712Y-8058150D01*
X173564Y-8091395D01*
X172624Y-8133204D01*
X172847Y-8179502D01*
X174185Y-8226213D01*
X176591Y-8269263D01*
X178403Y-8290409D01*
X190382Y-8374043D01*
X208698Y-8451487D01*
X232855Y-8521304D01*
X262355Y-8582056D01*
X296454Y-8632003D01*
X327099Y-8664785D01*
X359599Y-8689278D01*
X397038Y-8707170D01*
X442500Y-8720151D01*
X465659Y-8724711D01*
X526485Y-8738511D01*
X576838Y-8756979D01*
X618392Y-8781074D01*
X652820Y-8811751D01*
X680232Y-8847529D01*
X699525Y-8881136D01*
X716069Y-8918528D01*
X730020Y-8960739D01*
X741533Y-9008800D01*
X750764Y-9063742D01*
X757870Y-9126597D01*
X763005Y-9198397D01*
X766325Y-9280174D01*
X767988Y-9372959D01*
X768252Y-9430406D01*
X769989Y-9579490D01*
X775009Y-9716485D01*
X783311Y-9841352D01*
X794890Y-9954053D01*
X809744Y-10054550D01*
X823034Y-10121900D01*
X856438Y-10247396D01*
X899339Y-10367009D01*
X951265Y-10479882D01*
X1011743Y-10585158D01*
X1080301Y-10681981D01*
X1156465Y-10769495D01*
X1207738Y-10819098D01*
X1233469Y-10842344D01*
X1200078Y-10775809D01*
X1183686Y-10741885D01*
X1166765Y-10704773D01*
X1151800Y-10670014D01*
X1144779Y-10652556D01*
X1128855Y-10606839D01*
X1112608Y-10552205D01*
X1096955Y-10492375D01*
X1082817Y-10431069D01*
X1071111Y-10372010D01*
X1063154Y-10321925D01*
X1058519Y-10277260D01*
X1055059Y-10223180D01*
X1052802Y-10162916D01*
X1051776Y-10099700D01*
X1052006Y-10036765D01*
X1053522Y-9977342D01*
X1056350Y-9924664D01*
X1059508Y-9890125D01*
X1084622Y-9722057D01*
X1121263Y-9551343D01*
X1169004Y-9379622D01*
X1227418Y-9208533D01*
X1257865Y-9130220D01*
X1268587Y-9103848D01*
X1278849Y-9079043D01*
X1289307Y-9054338D01*
X1300619Y-9028265D01*
X1313440Y-8999355D01*
X1328428Y-8966140D01*
X1346238Y-8927152D01*
X1367529Y-8880922D01*
X1392956Y-8825983D01*
X1419973Y-8767762D01*
X1492756Y-8599469D01*
X1554320Y-8432404D01*
X1604640Y-8266944D01*
X1643693Y-8103466D01*
X1671453Y-7942346D01*
X1687894Y-7783962D01*
X1692993Y-7628690D01*
X1686724Y-7476908D01*
X1669063Y-7328992D01*
X1639984Y-7185319D01*
X1599462Y-7046267D01*
X1547473Y-6912212D01*
X1543269Y-6902724D01*
X1528771Y-6871827D01*
X1511894Y-6838332D01*
X1493782Y-6804240D01*
X1475574Y-6771551D01*
X1458413Y-6742265D01*
X1443441Y-6718383D01*
X1431797Y-6701905D01*
X1424647Y-6694840D01*
X1424647Y-6447109D01*
X1465919Y-6432795D01*
X1632837Y-6387473D01*
X1802645Y-6353686D01*
X1974744Y-6331611D01*
X2148536Y-6321427D01*
X2276510Y-6322804D01*
X2276510Y-6553601D01*
X2201418Y-6553635D01*
X2124412Y-6555440D01*
X2048716Y-6558921D01*
X1977558Y-6563986D01*
X1914162Y-6570540D01*
X1885950Y-6574412D01*
X1843026Y-6581386D01*
X1797697Y-6589552D01*
X1751561Y-6598540D01*
X1706217Y-6607979D01*
X1663263Y-6617499D01*
X1624296Y-6626731D01*
X1590916Y-6635305D01*
X1564721Y-6642851D01*
X1547309Y-6648999D01*
X1540278Y-6653379D01*
X1540493Y-6654358D01*
X1546455Y-6657601D01*
X1563000Y-6666227D01*
X1589391Y-6679858D01*
X1624892Y-6698119D01*
X1668768Y-6720632D01*
X1720281Y-6747021D01*
X1778696Y-6776908D01*
X1843276Y-6809917D01*
X1913285Y-6845670D01*
X1987987Y-6883792D01*
X2066646Y-6923904D01*
X2148525Y-6965631D01*
X2151248Y-6967018D01*
X2233198Y-7008805D01*
X2311924Y-7049023D01*
X2386691Y-7087295D01*
X2456766Y-7123240D01*
X2521415Y-7156480D01*
X2579903Y-7186636D01*
X2631497Y-7213329D01*
X2675463Y-7236179D01*
X2711066Y-7254807D01*
X2737573Y-7268835D01*
X2754249Y-7277883D01*
X2760361Y-7281572D01*
X2760374Y-7281599D01*
X2755178Y-7285374D01*
X2739689Y-7294580D01*
X2714837Y-7308707D01*
X2681554Y-7327243D01*
X2640769Y-7349677D01*
X2593415Y-7375498D01*
X2540421Y-7404196D01*
X2482718Y-7435258D01*
X2421237Y-7468174D01*
X2400099Y-7479451D01*
X2337529Y-7512870D01*
X2278387Y-7544586D01*
X2223608Y-7574090D01*
X2174129Y-7600871D01*
X2130885Y-7624419D01*
X2094810Y-7644226D01*
X2066840Y-7659780D01*
X2047911Y-7670572D01*
X2038957Y-7676093D01*
X2038350Y-7676671D01*
X2043869Y-7680131D01*
X2059931Y-7689028D01*
X2085796Y-7702972D01*
X2120720Y-7721574D01*
X2163964Y-7744444D01*
X2214786Y-7771192D01*
X2272444Y-7801429D01*
X2336198Y-7834765D01*
X2405305Y-7870811D01*
X2479024Y-7909177D01*
X2556614Y-7949474D01*
X2624138Y-7984478D01*
X2704494Y-8026117D01*
X2781675Y-8066147D01*
X2854932Y-8104177D01*
X2923517Y-8139818D01*
X2986681Y-8172678D01*
X3043677Y-8202368D01*
X3093756Y-8228499D01*
X3136169Y-8250679D01*
X3170169Y-8268519D01*
X3195007Y-8281629D01*
X3209935Y-8289619D01*
X3214264Y-8292083D01*
X3209427Y-8295612D01*
X3194148Y-8304678D01*
X3169200Y-8318859D01*
X3135357Y-8337731D01*
X3093392Y-8360872D01*
X3044078Y-8387859D01*
X2988187Y-8418269D01*
X2926493Y-8451679D01*
X2859769Y-8487667D01*
X2788788Y-8525809D01*
X2714324Y-8565683D01*
X2701569Y-8572500D01*
X2626506Y-8612636D01*
X2554716Y-8651089D01*
X2486981Y-8687436D01*
X2424081Y-8721254D01*
X2366797Y-8752123D01*
X2315911Y-8779620D01*
X2272202Y-8803322D01*
X2236453Y-8822808D01*
X2209443Y-8837656D01*
X2191955Y-8847443D01*
X2184768Y-8851748D01*
X2184626Y-8851900D01*
X2190109Y-8855359D01*
X2205792Y-8864048D01*
X2230581Y-8877388D01*
X2263380Y-8894801D01*
X2303096Y-8915708D01*
X2348634Y-8939531D01*
X2398900Y-8965692D01*
X2452798Y-8993613D01*
X2454433Y-8994458D01*
X2508429Y-9022448D01*
X2558819Y-9048738D01*
X2604509Y-9072744D01*
X2644404Y-9093883D01*
X2677410Y-9111572D01*
X2702432Y-9125227D01*
X2718376Y-9134266D01*
X2724146Y-9138106D01*
X2724150Y-9138133D01*
X2718679Y-9141694D01*
X2702795Y-9150792D01*
X2677296Y-9164995D01*
X2642978Y-9183870D01*
X2600639Y-9206984D01*
X2551076Y-9233904D01*
X2495084Y-9264197D01*
X2433462Y-9297431D01*
X2367006Y-9333172D01*
X2296513Y-9370988D01*
X2227263Y-9408049D01*
X2153066Y-9447721D01*
X2081684Y-9485905D01*
X2013966Y-9522144D01*
X1950761Y-9555985D01*
X1892917Y-9586973D01*
X1841283Y-9614652D01*
X1796706Y-9638569D01*
X1760035Y-9658268D01*
X1732118Y-9673294D01*
X1713804Y-9683194D01*
X1706288Y-9687313D01*
X1682200Y-9700953D01*
X1934888Y-9831623D01*
X1987068Y-9858722D01*
X2035571Y-9884134D01*
X2079272Y-9907254D01*
X2117044Y-9927475D01*
X2147762Y-9944192D01*
X2170300Y-9956798D01*
X2183531Y-9964686D01*
X2186668Y-9967167D01*
X2181051Y-9971173D01*
X2165467Y-9980428D01*
X2141169Y-9994233D01*
X2109411Y-10011893D01*
X2071447Y-10032709D01*
X2028531Y-10055984D01*
X1982013Y-10080970D01*
X1935628Y-10105920D01*
X1893151Y-10129060D01*
X1855799Y-10149706D01*
X1824789Y-10167170D01*
X1801339Y-10180768D01*
X1786667Y-10189813D01*
X1781989Y-10193620D01*
X1782000Y-10193632D01*
X1788110Y-10197081D01*
X1804622Y-10205892D01*
X1830651Y-10219604D01*
X1865312Y-10237756D01*
X1907722Y-10259888D01*
X1956995Y-10285537D01*
X2012247Y-10314244D01*
X2072594Y-10345546D01*
X2137150Y-10378984D01*
X2205032Y-10414096D01*
X2207206Y-10415221D01*
X2275070Y-10450341D01*
X2339546Y-10483790D01*
X2399761Y-10515111D01*
X2454842Y-10543845D01*
X2503913Y-10569532D01*
X2546100Y-10591714D01*
X2580529Y-10609933D01*
X2606327Y-10623730D01*
X2622618Y-10632647D01*
X2628528Y-10636224D01*
X2628536Y-10636250D01*
X2623153Y-10639865D01*
X2607636Y-10649298D01*
X2582860Y-10664038D01*
X2549702Y-10683571D01*
X2509036Y-10707387D01*
X2461739Y-10734973D01*
X2408686Y-10765818D01*
X2350754Y-10799409D01*
X2288817Y-10835234D01*
X2238099Y-10864509D01*
X2173762Y-10901712D01*
X2112865Y-10937120D01*
X2056269Y-10970221D01*
X2004838Y-11000499D01*
X1959434Y-11027441D01*
X1920919Y-11050534D01*
X1890156Y-11069264D01*
X1868006Y-11083118D01*
X1855333Y-11091582D01*
X1852590Y-11094120D01*
X1863080Y-11098344D01*
X1884601Y-11102570D01*
X1915482Y-11106670D01*
X1954056Y-11110517D01*
X1998652Y-11113982D01*
X2047602Y-11116939D01*
X2099236Y-11119258D01*
X2151886Y-11120812D01*
X2203882Y-11121473D01*
X2209800Y-11121486D01*
X2319015Y-11119830D01*
X2419620Y-11114352D01*
X2515236Y-11104651D01*
X2609485Y-11090320D01*
X2705987Y-11070958D01*
X2746375Y-11061631D01*
X2907844Y-11016993D01*
X3063279Y-10961511D01*
X3213652Y-10894759D01*
X3359935Y-10816311D01*
X3486150Y-10737197D01*
X3552132Y-10691694D01*
X3611830Y-10647508D01*
X3668167Y-10602216D01*
X3724064Y-10553393D01*
X3782444Y-10498614D01*
X3829323Y-10452456D01*
X3910235Y-10368426D01*
X3982053Y-10286966D01*
X4047111Y-10205112D01*
X4107748Y-10119902D01*
X4166299Y-10028371D01*
X4174942Y-10014088D01*
X4256279Y-9866673D01*
X4325910Y-9715035D01*
X4383855Y-9559834D01*
X4430130Y-9401730D01*
X4464754Y-9241385D01*
X4487745Y-9079457D01*
X4499120Y-8916609D01*
X4498898Y-8753501D01*
X4487097Y-8590794D01*
X4463734Y-8429147D01*
X4428828Y-8269222D01*
X4382396Y-8111679D01*
X4324457Y-7957178D01*
X4255029Y-7806381D01*
X4174129Y-7659948D01*
X4108050Y-7556500D01*
X4007889Y-7419766D01*
X3898736Y-7291703D01*
X3781165Y-7172648D01*
X3655750Y-7062937D01*
X3523064Y-6962908D01*
X3383683Y-6872896D01*
X3238180Y-6793240D01*
X3087129Y-6724274D01*
X2931104Y-6666337D01*
X2770679Y-6619765D01*
X2606429Y-6584895D01*
X2438927Y-6562062D01*
X2408045Y-6559220D01*
X2346461Y-6555431D01*
X2276510Y-6553601D01*
X2276510Y-6322804D01*
X2323420Y-6323310D01*
X2498799Y-6337439D01*
X2674073Y-6363991D01*
X2730933Y-6375329D01*
X2902010Y-6417825D01*
X3068202Y-6471740D01*
X3229069Y-6536619D01*
X3384174Y-6612007D01*
X3533079Y-6697449D01*
X3675344Y-6792491D01*
X3810533Y-6896678D01*
X3938206Y-7009555D01*
X4057927Y-7130667D01*
X4169255Y-7259560D01*
X4271754Y-7395778D01*
X4364985Y-7538868D01*
X4448510Y-7688374D01*
X4521890Y-7843842D01*
X4584688Y-8004817D01*
X4636465Y-8170843D01*
X4676783Y-8341467D01*
X4689005Y-8407400D01*
X4697740Y-8459632D01*
X4704761Y-8505389D01*
X4710251Y-8547110D01*
X4714392Y-8587232D01*
X4717365Y-8628191D01*
X4719353Y-8672427D01*
X4720537Y-8722375D01*
X4721100Y-8780473D01*
X4721225Y-8839200D01*
X4721067Y-8905309D01*
X4721067Y-8905309D01*
G37*
X4721067Y-8905309D02*
X4720471Y-8961187D01*
X4719253Y-9009299D01*
X4717229Y-9052112D01*
X4714217Y-9092090D01*
X4710033Y-9131701D01*
X4704493Y-9173409D01*
X4697415Y-9219680D01*
X4689240Y-9269271D01*
X4654188Y-9439626D01*
X4607174Y-9606536D01*
X4548612Y-9769412D01*
X4478914Y-9927666D01*
X4398493Y-10080708D01*
X4307763Y-10227949D01*
X4207137Y-10368800D01*
X4097027Y-10502671D01*
X3977847Y-10628973D01*
X3850010Y-10747117D01*
X3713929Y-10856513D01*
X3570016Y-10956573D01*
X3459003Y-11024099D01*
X3300735Y-11107704D01*
X3138951Y-11179127D01*
X2973601Y-11238382D01*
X2804631Y-11285481D01*
X2631990Y-11320436D01*
X2455625Y-11343260D01*
X2275483Y-11353967D01*
X2100612Y-11352918D01*
X1925732Y-11340157D01*
X1752681Y-11315005D01*
X1582098Y-11277715D01*
X1414622Y-11228541D01*
X1250893Y-11167734D01*
X1091549Y-11095549D01*
X937229Y-11012238D01*
X788574Y-10918055D01*
X646222Y-10813253D01*
X562220Y-10743754D01*
X520790Y-10706435D01*
X474160Y-10661884D01*
X424782Y-10612641D01*
X375110Y-10561249D01*
X327596Y-10510247D01*
X284693Y-10462177D01*
X248855Y-10419581D01*
X246571Y-10416742D01*
X139714Y-10273523D01*
X43568Y-10124078D01*
X-41489Y-9969097D01*
X-115075Y-9809265D01*
X-172378Y-9658350D01*
X-224665Y-9486264D01*
X-264552Y-9312085D01*
X-291976Y-9136298D01*
X-306871Y-8959389D01*
X-309171Y-8781845D01*
X-304196Y-8670925D01*
X-286012Y-8493887D01*
X-255561Y-8319496D01*
X-213108Y-8148332D01*
X-158917Y-7980978D01*
X-93253Y-7818016D01*
X-16380Y-7660027D01*
X71438Y-7507594D01*
X169935Y-7361298D01*
X278848Y-7221722D01*
X397913Y-7089447D01*
X428711Y-7058110D01*
X558632Y-6937016D01*
X695635Y-6826214D01*
X839121Y-6725881D01*
X988491Y-6636195D01*
X1143147Y-6557334D01*
X1302489Y-6489475D01*
X1424647Y-6447109D01*
X1424647Y-6694840D01*
X1415858Y-6696094D01*
X1397385Y-6701921D01*
X1371085Y-6711588D01*
X1338810Y-6724361D01*
X1302416Y-6739506D01*
X1263757Y-6756289D01*
X1224785Y-6773932D01*
X1189023Y-6791526D01*
X1145761Y-6814449D01*
X1098045Y-6840950D01*
X1048919Y-6869281D01*
X1001429Y-6897691D01*
X958621Y-6924433D01*
X930425Y-6943017D01*
X811349Y-7030234D01*
X695948Y-7126851D01*
X586094Y-7231001D01*
X483665Y-7340815D01*
X390534Y-7454425D01*
X323211Y-7547938D01*
X288082Y-7608649D01*
X256797Y-7680681D01*
X229603Y-7763174D01*
X206748Y-7855268D01*
X188482Y-7956104D01*
X175712Y-8058150D01*
X173564Y-8091395D01*
X172624Y-8133204D01*
X172847Y-8179502D01*
X174185Y-8226213D01*
X176591Y-8269263D01*
X178403Y-8290409D01*
X190382Y-8374043D01*
X208698Y-8451487D01*
X232855Y-8521304D01*
X262355Y-8582056D01*
X296454Y-8632003D01*
X327099Y-8664785D01*
X359599Y-8689278D01*
X397038Y-8707170D01*
X442500Y-8720151D01*
X465659Y-8724711D01*
X526485Y-8738511D01*
X576838Y-8756979D01*
X618392Y-8781074D01*
X652820Y-8811751D01*
X680232Y-8847529D01*
X699525Y-8881136D01*
X716069Y-8918528D01*
X730020Y-8960739D01*
X741533Y-9008800D01*
X750764Y-9063742D01*
X757870Y-9126597D01*
X763005Y-9198397D01*
X766325Y-9280174D01*
X767988Y-9372959D01*
X768252Y-9430406D01*
X769989Y-9579490D01*
X775009Y-9716485D01*
X783311Y-9841352D01*
X794890Y-9954053D01*
X809744Y-10054550D01*
X823034Y-10121900D01*
X856438Y-10247396D01*
X899339Y-10367009D01*
X951265Y-10479882D01*
X1011743Y-10585158D01*
X1080301Y-10681981D01*
X1156465Y-10769495D01*
X1207738Y-10819098D01*
X1233469Y-10842344D01*
X1200078Y-10775809D01*
X1183686Y-10741885D01*
X1166765Y-10704773D01*
X1151800Y-10670014D01*
X1144779Y-10652556D01*
X1128855Y-10606839D01*
X1112608Y-10552205D01*
X1096955Y-10492375D01*
X1082817Y-10431069D01*
X1071111Y-10372010D01*
X1063154Y-10321925D01*
X1058519Y-10277260D01*
X1055059Y-10223180D01*
X1052802Y-10162916D01*
X1051776Y-10099700D01*
X1052006Y-10036765D01*
X1053522Y-9977342D01*
X1056350Y-9924664D01*
X1059508Y-9890125D01*
X1084622Y-9722057D01*
X1121263Y-9551343D01*
X1169004Y-9379622D01*
X1227418Y-9208533D01*
X1257865Y-9130220D01*
X1268587Y-9103848D01*
X1278849Y-9079043D01*
X1289307Y-9054338D01*
X1300619Y-9028265D01*
X1313440Y-8999355D01*
X1328428Y-8966140D01*
X1346238Y-8927152D01*
X1367529Y-8880922D01*
X1392956Y-8825983D01*
X1419973Y-8767762D01*
X1492756Y-8599469D01*
X1554320Y-8432404D01*
X1604640Y-8266944D01*
X1643693Y-8103466D01*
X1671453Y-7942346D01*
X1687894Y-7783962D01*
X1692993Y-7628690D01*
X1686724Y-7476908D01*
X1669063Y-7328992D01*
X1639984Y-7185319D01*
X1599462Y-7046267D01*
X1547473Y-6912212D01*
X1543269Y-6902724D01*
X1528771Y-6871827D01*
X1511894Y-6838332D01*
X1493782Y-6804240D01*
X1475574Y-6771551D01*
X1458413Y-6742265D01*
X1443441Y-6718383D01*
X1431797Y-6701905D01*
X1424647Y-6694840D01*
X1424647Y-6447109D01*
X1465919Y-6432795D01*
X1632837Y-6387473D01*
X1802645Y-6353686D01*
X1974744Y-6331611D01*
X2148536Y-6321427D01*
X2276510Y-6322804D01*
X2276510Y-6553601D01*
X2201418Y-6553635D01*
X2124412Y-6555440D01*
X2048716Y-6558921D01*
X1977558Y-6563986D01*
X1914162Y-6570540D01*
X1885950Y-6574412D01*
X1843026Y-6581386D01*
X1797697Y-6589552D01*
X1751561Y-6598540D01*
X1706217Y-6607979D01*
X1663263Y-6617499D01*
X1624296Y-6626731D01*
X1590916Y-6635305D01*
X1564721Y-6642851D01*
X1547309Y-6648999D01*
X1540278Y-6653379D01*
X1540493Y-6654358D01*
X1546455Y-6657601D01*
X1563000Y-6666227D01*
X1589391Y-6679858D01*
X1624892Y-6698119D01*
X1668768Y-6720632D01*
X1720281Y-6747021D01*
X1778696Y-6776908D01*
X1843276Y-6809917D01*
X1913285Y-6845670D01*
X1987987Y-6883792D01*
X2066646Y-6923904D01*
X2148525Y-6965631D01*
X2151248Y-6967018D01*
X2233198Y-7008805D01*
X2311924Y-7049023D01*
X2386691Y-7087295D01*
X2456766Y-7123240D01*
X2521415Y-7156480D01*
X2579903Y-7186636D01*
X2631497Y-7213329D01*
X2675463Y-7236179D01*
X2711066Y-7254807D01*
X2737573Y-7268835D01*
X2754249Y-7277883D01*
X2760361Y-7281572D01*
X2760374Y-7281599D01*
X2755178Y-7285374D01*
X2739689Y-7294580D01*
X2714837Y-7308707D01*
X2681554Y-7327243D01*
X2640769Y-7349677D01*
X2593415Y-7375498D01*
X2540421Y-7404196D01*
X2482718Y-7435258D01*
X2421237Y-7468174D01*
X2400099Y-7479451D01*
X2337529Y-7512870D01*
X2278387Y-7544586D01*
X2223608Y-7574090D01*
X2174129Y-7600871D01*
X2130885Y-7624419D01*
X2094810Y-7644226D01*
X2066840Y-7659780D01*
X2047911Y-7670572D01*
X2038957Y-7676093D01*
X2038350Y-7676671D01*
X2043869Y-7680131D01*
X2059931Y-7689028D01*
X2085796Y-7702972D01*
X2120720Y-7721574D01*
X2163964Y-7744444D01*
X2214786Y-7771192D01*
X2272444Y-7801429D01*
X2336198Y-7834765D01*
X2405305Y-7870811D01*
X2479024Y-7909177D01*
X2556614Y-7949474D01*
X2624138Y-7984478D01*
X2704494Y-8026117D01*
X2781675Y-8066147D01*
X2854932Y-8104177D01*
X2923517Y-8139818D01*
X2986681Y-8172678D01*
X3043677Y-8202368D01*
X3093756Y-8228499D01*
X3136169Y-8250679D01*
X3170169Y-8268519D01*
X3195007Y-8281629D01*
X3209935Y-8289619D01*
X3214264Y-8292083D01*
X3209427Y-8295612D01*
X3194148Y-8304678D01*
X3169200Y-8318859D01*
X3135357Y-8337731D01*
X3093392Y-8360872D01*
X3044078Y-8387859D01*
X2988187Y-8418269D01*
X2926493Y-8451679D01*
X2859769Y-8487667D01*
X2788788Y-8525809D01*
X2714324Y-8565683D01*
X2701569Y-8572500D01*
X2626506Y-8612636D01*
X2554716Y-8651089D01*
X2486981Y-8687436D01*
X2424081Y-8721254D01*
X2366797Y-8752123D01*
X2315911Y-8779620D01*
X2272202Y-8803322D01*
X2236453Y-8822808D01*
X2209443Y-8837656D01*
X2191955Y-8847443D01*
X2184768Y-8851748D01*
X2184626Y-8851900D01*
X2190109Y-8855359D01*
X2205792Y-8864048D01*
X2230581Y-8877388D01*
X2263380Y-8894801D01*
X2303096Y-8915708D01*
X2348634Y-8939531D01*
X2398900Y-8965692D01*
X2452798Y-8993613D01*
X2454433Y-8994458D01*
X2508429Y-9022448D01*
X2558819Y-9048738D01*
X2604509Y-9072744D01*
X2644404Y-9093883D01*
X2677410Y-9111572D01*
X2702432Y-9125227D01*
X2718376Y-9134266D01*
X2724146Y-9138106D01*
X2724150Y-9138133D01*
X2718679Y-9141694D01*
X2702795Y-9150792D01*
X2677296Y-9164995D01*
X2642978Y-9183870D01*
X2600639Y-9206984D01*
X2551076Y-9233904D01*
X2495084Y-9264197D01*
X2433462Y-9297431D01*
X2367006Y-9333172D01*
X2296513Y-9370988D01*
X2227263Y-9408049D01*
X2153066Y-9447721D01*
X2081684Y-9485905D01*
X2013966Y-9522144D01*
X1950761Y-9555985D01*
X1892917Y-9586973D01*
X1841283Y-9614652D01*
X1796706Y-9638569D01*
X1760035Y-9658268D01*
X1732118Y-9673294D01*
X1713804Y-9683194D01*
X1706288Y-9687313D01*
X1682200Y-9700953D01*
X1934888Y-9831623D01*
X1987068Y-9858722D01*
X2035571Y-9884134D01*
X2079272Y-9907254D01*
X2117044Y-9927475D01*
X2147762Y-9944192D01*
X2170300Y-9956798D01*
X2183531Y-9964686D01*
X2186668Y-9967167D01*
X2181051Y-9971173D01*
X2165467Y-9980428D01*
X2141169Y-9994233D01*
X2109411Y-10011893D01*
X2071447Y-10032709D01*
X2028531Y-10055984D01*
X1982013Y-10080970D01*
X1935628Y-10105920D01*
X1893151Y-10129060D01*
X1855799Y-10149706D01*
X1824789Y-10167170D01*
X1801339Y-10180768D01*
X1786667Y-10189813D01*
X1781989Y-10193620D01*
X1782000Y-10193632D01*
X1788110Y-10197081D01*
X1804622Y-10205892D01*
X1830651Y-10219604D01*
X1865312Y-10237756D01*
X1907722Y-10259888D01*
X1956995Y-10285537D01*
X2012247Y-10314244D01*
X2072594Y-10345546D01*
X2137150Y-10378984D01*
X2205032Y-10414096D01*
X2207206Y-10415221D01*
X2275070Y-10450341D01*
X2339546Y-10483790D01*
X2399761Y-10515111D01*
X2454842Y-10543845D01*
X2503913Y-10569532D01*
X2546100Y-10591714D01*
X2580529Y-10609933D01*
X2606327Y-10623730D01*
X2622618Y-10632647D01*
X2628528Y-10636224D01*
X2628536Y-10636250D01*
X2623153Y-10639865D01*
X2607636Y-10649298D01*
X2582860Y-10664038D01*
X2549702Y-10683571D01*
X2509036Y-10707387D01*
X2461739Y-10734973D01*
X2408686Y-10765818D01*
X2350754Y-10799409D01*
X2288817Y-10835234D01*
X2238099Y-10864509D01*
X2173762Y-10901712D01*
X2112865Y-10937120D01*
X2056269Y-10970221D01*
X2004838Y-11000499D01*
X1959434Y-11027441D01*
X1920919Y-11050534D01*
X1890156Y-11069264D01*
X1868006Y-11083118D01*
X1855333Y-11091582D01*
X1852590Y-11094120D01*
X1863080Y-11098344D01*
X1884601Y-11102570D01*
X1915482Y-11106670D01*
X1954056Y-11110517D01*
X1998652Y-11113982D01*
X2047602Y-11116939D01*
X2099236Y-11119258D01*
X2151886Y-11120812D01*
X2203882Y-11121473D01*
X2209800Y-11121486D01*
X2319015Y-11119830D01*
X2419620Y-11114352D01*
X2515236Y-11104651D01*
X2609485Y-11090320D01*
X2705987Y-11070958D01*
X2746375Y-11061631D01*
X2907844Y-11016993D01*
X3063279Y-10961511D01*
X3213652Y-10894759D01*
X3359935Y-10816311D01*
X3486150Y-10737197D01*
X3552132Y-10691694D01*
X3611830Y-10647508D01*
X3668167Y-10602216D01*
X3724064Y-10553393D01*
X3782444Y-10498614D01*
X3829323Y-10452456D01*
X3910235Y-10368426D01*
X3982053Y-10286966D01*
X4047111Y-10205112D01*
X4107748Y-10119902D01*
X4166299Y-10028371D01*
X4174942Y-10014088D01*
X4256279Y-9866673D01*
X4325910Y-9715035D01*
X4383855Y-9559834D01*
X4430130Y-9401730D01*
X4464754Y-9241385D01*
X4487745Y-9079457D01*
X4499120Y-8916609D01*
X4498898Y-8753501D01*
X4487097Y-8590794D01*
X4463734Y-8429147D01*
X4428828Y-8269222D01*
X4382396Y-8111679D01*
X4324457Y-7957178D01*
X4255029Y-7806381D01*
X4174129Y-7659948D01*
X4108050Y-7556500D01*
X4007889Y-7419766D01*
X3898736Y-7291703D01*
X3781165Y-7172648D01*
X3655750Y-7062937D01*
X3523064Y-6962908D01*
X3383683Y-6872896D01*
X3238180Y-6793240D01*
X3087129Y-6724274D01*
X2931104Y-6666337D01*
X2770679Y-6619765D01*
X2606429Y-6584895D01*
X2438927Y-6562062D01*
X2408045Y-6559220D01*
X2346461Y-6555431D01*
X2276510Y-6553601D01*
X2276510Y-6322804D01*
X2323420Y-6323310D01*
X2498799Y-6337439D01*
X2674073Y-6363991D01*
X2730933Y-6375329D01*
X2902010Y-6417825D01*
X3068202Y-6471740D01*
X3229069Y-6536619D01*
X3384174Y-6612007D01*
X3533079Y-6697449D01*
X3675344Y-6792491D01*
X3810533Y-6896678D01*
X3938206Y-7009555D01*
X4057927Y-7130667D01*
X4169255Y-7259560D01*
X4271754Y-7395778D01*
X4364985Y-7538868D01*
X4448510Y-7688374D01*
X4521890Y-7843842D01*
X4584688Y-8004817D01*
X4636465Y-8170843D01*
X4676783Y-8341467D01*
X4689005Y-8407400D01*
X4697740Y-8459632D01*
X4704761Y-8505389D01*
X4710251Y-8547110D01*
X4714392Y-8587232D01*
X4717365Y-8628191D01*
X4719353Y-8672427D01*
X4720537Y-8722375D01*
X4721100Y-8780473D01*
X4721225Y-8839200D01*
X4721067Y-8905309D01*
G36*
X2774876Y-24253993D02*
X2774665Y-24299248D01*
X2774335Y-24338688D01*
X2773904Y-24370817D01*
X2773392Y-24394139D01*
X2772816Y-24407157D01*
X2772447Y-24409400D01*
X2765217Y-24407183D01*
X2746995Y-24400752D01*
X2718644Y-24390436D01*
X2681032Y-24376563D01*
X2635024Y-24359463D01*
X2581487Y-24339463D01*
X2521287Y-24316894D01*
X2455289Y-24292083D01*
X2384359Y-24265359D01*
X2309364Y-24237051D01*
X2231170Y-24207489D01*
X2150642Y-24177000D01*
X2068647Y-24145914D01*
X1986051Y-24114559D01*
X1903720Y-24083264D01*
X1822519Y-24052358D01*
X1743315Y-24022170D01*
X1666974Y-23993028D01*
X1594362Y-23965262D01*
X1526345Y-23939199D01*
X1463789Y-23915170D01*
X1407560Y-23893502D01*
X1358524Y-23874524D01*
X1317546Y-23858566D01*
X1285494Y-23845955D01*
X1263233Y-23837022D01*
X1251629Y-23832094D01*
X1250950Y-23831765D01*
X1180708Y-23791808D01*
X1122427Y-23748309D01*
X1075775Y-23700895D01*
X1040415Y-23649195D01*
X1016013Y-23592837D01*
X1007567Y-23561675D01*
X1000018Y-23515846D01*
X995465Y-23463246D01*
X994172Y-23409506D01*
X996405Y-23360257D01*
X997572Y-23349082D01*
X1009240Y-23282837D01*
X1028961Y-23216594D01*
X1036395Y-23196550D01*
X1047371Y-23169751D01*
X1059348Y-23143159D01*
X1071041Y-23119324D01*
X1081168Y-23100797D01*
X1088448Y-23090128D01*
X1090704Y-23088533D01*
X1098608Y-23091108D01*
X1115691Y-23098303D01*
X1140044Y-23109202D01*
X1169759Y-23122891D01*
X1202928Y-23138457D01*
X1237642Y-23154986D01*
X1271992Y-23171563D01*
X1304069Y-23187275D01*
X1331965Y-23201207D01*
X1353771Y-23212446D01*
X1367578Y-23220076D01*
X1371600Y-23223051D01*
X1368921Y-23231476D01*
X1362026Y-23247144D01*
X1355673Y-23260154D01*
X1334514Y-23311720D01*
X1323530Y-23361946D01*
X1323028Y-23408889D01*
X1327888Y-23434675D01*
X1337563Y-23455360D01*
X1353818Y-23477066D01*
X1373191Y-23496064D01*
X1392219Y-23508629D01*
X1398778Y-23510976D01*
X1407325Y-23509244D01*
X1427646Y-23502754D01*
X1459740Y-23491507D01*
X1503605Y-23475505D01*
X1559241Y-23454747D01*
X1626645Y-23429234D01*
X1705816Y-23398966D01*
X1796755Y-23363945D01*
X1899458Y-23324169D01*
X2013925Y-23279641D01*
X2088104Y-23250700D01*
X2176536Y-23216183D01*
X2261689Y-23182986D01*
X2342813Y-23151397D01*
X2419159Y-23121707D01*
X2489977Y-23094207D01*
X2554517Y-23069185D01*
X2612030Y-23046934D01*
X2661766Y-23027741D01*
X2702977Y-23011899D01*
X2734912Y-22999697D01*
X2756821Y-22991425D01*
X2767956Y-22987373D01*
X2769228Y-22987000D01*
X2770781Y-22993180D01*
X2772028Y-23011052D01*
X2772951Y-23039608D01*
X2773527Y-23077842D01*
X2773737Y-23124749D01*
X2773560Y-23179323D01*
X2773450Y-23194435D01*
X2771775Y-23401870D01*
X1858755Y-23706206D01*
X2181915Y-23810009D01*
X2248812Y-23831486D01*
X2316497Y-23853197D01*
X2383152Y-23874560D01*
X2446963Y-23894993D01*
X2506114Y-23913916D01*
X2558788Y-23930747D01*
X2603171Y-23944906D01*
X2637445Y-23955810D01*
X2640013Y-23956626D01*
X2774950Y-23999439D01*
X2774950Y-24204419D01*
X2774876Y-24253993D01*
X2774876Y-24253993D01*
G37*
X2774876Y-24253993D02*
X2774665Y-24299248D01*
X2774335Y-24338688D01*
X2773904Y-24370817D01*
X2773392Y-24394139D01*
X2772816Y-24407157D01*
X2772447Y-24409400D01*
X2765217Y-24407183D01*
X2746995Y-24400752D01*
X2718644Y-24390436D01*
X2681032Y-24376563D01*
X2635024Y-24359463D01*
X2581487Y-24339463D01*
X2521287Y-24316894D01*
X2455289Y-24292083D01*
X2384359Y-24265359D01*
X2309364Y-24237051D01*
X2231170Y-24207489D01*
X2150642Y-24177000D01*
X2068647Y-24145914D01*
X1986051Y-24114559D01*
X1903720Y-24083264D01*
X1822519Y-24052358D01*
X1743315Y-24022170D01*
X1666974Y-23993028D01*
X1594362Y-23965262D01*
X1526345Y-23939199D01*
X1463789Y-23915170D01*
X1407560Y-23893502D01*
X1358524Y-23874524D01*
X1317546Y-23858566D01*
X1285494Y-23845955D01*
X1263233Y-23837022D01*
X1251629Y-23832094D01*
X1250950Y-23831765D01*
X1180708Y-23791808D01*
X1122427Y-23748309D01*
X1075775Y-23700895D01*
X1040415Y-23649195D01*
X1016013Y-23592837D01*
X1007567Y-23561675D01*
X1000018Y-23515846D01*
X995465Y-23463246D01*
X994172Y-23409506D01*
X996405Y-23360257D01*
X997572Y-23349082D01*
X1009240Y-23282837D01*
X1028961Y-23216594D01*
X1036395Y-23196550D01*
X1047371Y-23169751D01*
X1059348Y-23143159D01*
X1071041Y-23119324D01*
X1081168Y-23100797D01*
X1088448Y-23090128D01*
X1090704Y-23088533D01*
X1098608Y-23091108D01*
X1115691Y-23098303D01*
X1140044Y-23109202D01*
X1169759Y-23122891D01*
X1202928Y-23138457D01*
X1237642Y-23154986D01*
X1271992Y-23171563D01*
X1304069Y-23187275D01*
X1331965Y-23201207D01*
X1353771Y-23212446D01*
X1367578Y-23220076D01*
X1371600Y-23223051D01*
X1368921Y-23231476D01*
X1362026Y-23247144D01*
X1355673Y-23260154D01*
X1334514Y-23311720D01*
X1323530Y-23361946D01*
X1323028Y-23408889D01*
X1327888Y-23434675D01*
X1337563Y-23455360D01*
X1353818Y-23477066D01*
X1373191Y-23496064D01*
X1392219Y-23508629D01*
X1398778Y-23510976D01*
X1407325Y-23509244D01*
X1427646Y-23502754D01*
X1459740Y-23491507D01*
X1503605Y-23475505D01*
X1559241Y-23454747D01*
X1626645Y-23429234D01*
X1705816Y-23398966D01*
X1796755Y-23363945D01*
X1899458Y-23324169D01*
X2013925Y-23279641D01*
X2088104Y-23250700D01*
X2176536Y-23216183D01*
X2261689Y-23182986D01*
X2342813Y-23151397D01*
X2419159Y-23121707D01*
X2489977Y-23094207D01*
X2554517Y-23069185D01*
X2612030Y-23046934D01*
X2661766Y-23027741D01*
X2702977Y-23011899D01*
X2734912Y-22999697D01*
X2756821Y-22991425D01*
X2767956Y-22987373D01*
X2769228Y-22987000D01*
X2770781Y-22993180D01*
X2772028Y-23011052D01*
X2772951Y-23039608D01*
X2773527Y-23077842D01*
X2773737Y-23124749D01*
X2773560Y-23179323D01*
X2773450Y-23194435D01*
X2771775Y-23401870D01*
X1858755Y-23706206D01*
X2181915Y-23810009D01*
X2248812Y-23831486D01*
X2316497Y-23853197D01*
X2383152Y-23874560D01*
X2446963Y-23894993D01*
X2506114Y-23913916D01*
X2558788Y-23930747D01*
X2603171Y-23944906D01*
X2637445Y-23955810D01*
X2640013Y-23956626D01*
X2774950Y-23999439D01*
X2774950Y-24204419D01*
X2774876Y-24253993D01*
G36*
X2796634Y-12551310D02*
X2783957Y-12638412D01*
X2762453Y-12718155D01*
X2731619Y-12791861D01*
X2690952Y-12860855D01*
X2639950Y-12926459D01*
X2609481Y-12959362D01*
X2570129Y-12999650D01*
X2531252Y-12962172D01*
X2513827Y-12945521D01*
X2489453Y-12922432D01*
X2460477Y-12895117D01*
X2429245Y-12865790D01*
X2402016Y-12840315D01*
X2311656Y-12755937D01*
X2351093Y-12712427D01*
X2391658Y-12663542D01*
X2421804Y-12617045D01*
X2442773Y-12570296D01*
X2455808Y-12520656D01*
X2461252Y-12478430D01*
X2460709Y-12414126D01*
X2448251Y-12354208D01*
X2423921Y-12298794D01*
X2387766Y-12248000D01*
X2362718Y-12221944D01*
X2310754Y-12180631D01*
X2253742Y-12150294D01*
X2190830Y-12130616D01*
X2121169Y-12121282D01*
X2089150Y-12120370D01*
X2017326Y-12125905D01*
X1950555Y-12142293D01*
X1889780Y-12169167D01*
X1835945Y-12206162D01*
X1812661Y-12227594D01*
X1774186Y-12273303D01*
X1746502Y-12322467D01*
X1728942Y-12376822D01*
X1720839Y-12438104D01*
X1720100Y-12468430D01*
X1725269Y-12529254D01*
X1740681Y-12587280D01*
X1766984Y-12644146D01*
X1804830Y-12701490D01*
X1820549Y-12721518D01*
X1836189Y-12740893D01*
X1849162Y-12757302D01*
X1856920Y-12767516D01*
X1857375Y-12768166D01*
X1857532Y-12772921D01*
X1852942Y-12781203D01*
X1842791Y-12793919D01*
X1826264Y-12811975D01*
X1802547Y-12836276D01*
X1770826Y-12867728D01*
X1746661Y-12891335D01*
X1629596Y-13005247D01*
X1592281Y-12968511D01*
X1544079Y-12916061D01*
X1499676Y-12858080D01*
X1461052Y-12797598D01*
X1430186Y-12737649D01*
X1413028Y-12693989D01*
X1398759Y-12640476D01*
X1388035Y-12578552D01*
X1381119Y-12512075D01*
X1378273Y-12444902D01*
X1379761Y-12380892D01*
X1385846Y-12323901D01*
X1387239Y-12315825D01*
X1409860Y-12224781D01*
X1443188Y-12138255D01*
X1486468Y-12057509D01*
X1538944Y-11983803D01*
X1599859Y-11918397D01*
X1651675Y-11874759D01*
X1729081Y-11824011D01*
X1811021Y-11784346D01*
X1896356Y-11755642D01*
X1983947Y-11737775D01*
X2072654Y-11730620D01*
X2161336Y-11734055D01*
X2248855Y-11747956D01*
X2334070Y-11772198D01*
X2415843Y-11806659D01*
X2493032Y-11851214D01*
X2564499Y-11905740D01*
X2629103Y-11970112D01*
X2639267Y-11981961D01*
X2693579Y-12055753D01*
X2736600Y-12134280D01*
X2768519Y-12218097D01*
X2789527Y-12307759D01*
X2799811Y-12403819D01*
X2800988Y-12455525D01*
X2796634Y-12551310D01*
X2796634Y-12551310D01*
G37*
X2796634Y-12551310D02*
X2783957Y-12638412D01*
X2762453Y-12718155D01*
X2731619Y-12791861D01*
X2690952Y-12860855D01*
X2639950Y-12926459D01*
X2609481Y-12959362D01*
X2570129Y-12999650D01*
X2531252Y-12962172D01*
X2513827Y-12945521D01*
X2489453Y-12922432D01*
X2460477Y-12895117D01*
X2429245Y-12865790D01*
X2402016Y-12840315D01*
X2311656Y-12755937D01*
X2351093Y-12712427D01*
X2391658Y-12663542D01*
X2421804Y-12617045D01*
X2442773Y-12570296D01*
X2455808Y-12520656D01*
X2461252Y-12478430D01*
X2460709Y-12414126D01*
X2448251Y-12354208D01*
X2423921Y-12298794D01*
X2387766Y-12248000D01*
X2362718Y-12221944D01*
X2310754Y-12180631D01*
X2253742Y-12150294D01*
X2190830Y-12130616D01*
X2121169Y-12121282D01*
X2089150Y-12120370D01*
X2017326Y-12125905D01*
X1950555Y-12142293D01*
X1889780Y-12169167D01*
X1835945Y-12206162D01*
X1812661Y-12227594D01*
X1774186Y-12273303D01*
X1746502Y-12322467D01*
X1728942Y-12376822D01*
X1720839Y-12438104D01*
X1720100Y-12468430D01*
X1725269Y-12529254D01*
X1740681Y-12587280D01*
X1766984Y-12644146D01*
X1804830Y-12701490D01*
X1820549Y-12721518D01*
X1836189Y-12740893D01*
X1849162Y-12757302D01*
X1856920Y-12767516D01*
X1857375Y-12768166D01*
X1857532Y-12772921D01*
X1852942Y-12781203D01*
X1842791Y-12793919D01*
X1826264Y-12811975D01*
X1802547Y-12836276D01*
X1770826Y-12867728D01*
X1746661Y-12891335D01*
X1629596Y-13005247D01*
X1592281Y-12968511D01*
X1544079Y-12916061D01*
X1499676Y-12858080D01*
X1461052Y-12797598D01*
X1430186Y-12737649D01*
X1413028Y-12693989D01*
X1398759Y-12640476D01*
X1388035Y-12578552D01*
X1381119Y-12512075D01*
X1378273Y-12444902D01*
X1379761Y-12380892D01*
X1385846Y-12323901D01*
X1387239Y-12315825D01*
X1409860Y-12224781D01*
X1443188Y-12138255D01*
X1486468Y-12057509D01*
X1538944Y-11983803D01*
X1599859Y-11918397D01*
X1651675Y-11874759D01*
X1729081Y-11824011D01*
X1811021Y-11784346D01*
X1896356Y-11755642D01*
X1983947Y-11737775D01*
X2072654Y-11730620D01*
X2161336Y-11734055D01*
X2248855Y-11747956D01*
X2334070Y-11772198D01*
X2415843Y-11806659D01*
X2493032Y-11851214D01*
X2564499Y-11905740D01*
X2629103Y-11970112D01*
X2639267Y-11981961D01*
X2693579Y-12055753D01*
X2736600Y-12134280D01*
X2768519Y-12218097D01*
X2789527Y-12307759D01*
X2799811Y-12403819D01*
X2800988Y-12455525D01*
X2796634Y-12551310D01*
G36*
X2799750Y-13858477D02*
X2795775Y-13908190D01*
X2790777Y-13942642D01*
X2767003Y-14038182D01*
X2732948Y-14127457D01*
X2689163Y-14209809D01*
X2636201Y-14284581D01*
X2574614Y-14351112D01*
X2504954Y-14408746D01*
X2427774Y-14456823D01*
X2343626Y-14494686D01*
X2320925Y-14502692D01*
X2235183Y-14525079D01*
X2146294Y-14536626D01*
X2056297Y-14537474D01*
X1967232Y-14527763D01*
X1881137Y-14507633D01*
X1800051Y-14477223D01*
X1775250Y-14465219D01*
X1692218Y-14415740D01*
X1618048Y-14357251D01*
X1553004Y-14290086D01*
X1497349Y-14214580D01*
X1451347Y-14131069D01*
X1415262Y-14039889D01*
X1400098Y-13987992D01*
X1393207Y-13959391D01*
X1388260Y-13933114D01*
X1384865Y-13905697D01*
X1382629Y-13873679D01*
X1381159Y-13833597D01*
X1380766Y-13817600D01*
X1380301Y-13759611D01*
X1381844Y-13712400D01*
X1385472Y-13674189D01*
X1387509Y-13661114D01*
X1410254Y-13565771D01*
X1443450Y-13476643D01*
X1486448Y-13394352D01*
X1538596Y-13319518D01*
X1599242Y-13252761D01*
X1667737Y-13194704D01*
X1743429Y-13145965D01*
X1825666Y-13107166D01*
X1913800Y-13078927D01*
X2007177Y-13061870D01*
X2017128Y-13060766D01*
X2083436Y-13058346D01*
X2083436Y-13447230D01*
X2017670Y-13454117D01*
X1954677Y-13471072D01*
X1896267Y-13497877D01*
X1844255Y-13534313D01*
X1834718Y-13542794D01*
X1797432Y-13580986D01*
X1769111Y-13619183D01*
X1746747Y-13661614D01*
X1741630Y-13673633D01*
X1728003Y-13719645D01*
X1720917Y-13772218D01*
X1720423Y-13827000D01*
X1726570Y-13879636D01*
X1738730Y-13924006D01*
X1767545Y-13983592D01*
X1805231Y-14034604D01*
X1851215Y-14076393D01*
X1899825Y-14105878D01*
X1947913Y-14126572D01*
X1993700Y-14139675D01*
X2042283Y-14146337D01*
X2085975Y-14147800D01*
X2158150Y-14142701D01*
X2223259Y-14127247D01*
X2281911Y-14101201D01*
X2334714Y-14064326D01*
X2359346Y-14041519D01*
X2402055Y-13989853D01*
X2433531Y-13933134D01*
X2453607Y-13872547D01*
X2462114Y-13809274D01*
X2458883Y-13744499D01*
X2443747Y-13679405D01*
X2419258Y-13620444D01*
X2401448Y-13593298D01*
X2375443Y-13563635D01*
X2344475Y-13534483D01*
X2311773Y-13508871D01*
X2280569Y-13489828D01*
X2279240Y-13489169D01*
X2216034Y-13464537D01*
X2150161Y-13450631D01*
X2083436Y-13447230D01*
X2083436Y-13058346D01*
X2107557Y-13057465D01*
X2198280Y-13065927D01*
X2287353Y-13085669D01*
X2372830Y-13116209D01*
X2452768Y-13157064D01*
X2483139Y-13176445D01*
X2518242Y-13202962D01*
X2556873Y-13236566D01*
X2595451Y-13273821D01*
X2630392Y-13311291D01*
X2654768Y-13341025D01*
X2696616Y-13404689D01*
X2733530Y-13477007D01*
X2763964Y-13554392D01*
X2786372Y-13633257D01*
X2791662Y-13658576D01*
X2797308Y-13700330D01*
X2800529Y-13750358D01*
X2801339Y-13804470D01*
X2799750Y-13858477D01*
X2799750Y-13858477D01*
G37*
X2799750Y-13858477D02*
X2795775Y-13908190D01*
X2790777Y-13942642D01*
X2767003Y-14038182D01*
X2732948Y-14127457D01*
X2689163Y-14209809D01*
X2636201Y-14284581D01*
X2574614Y-14351112D01*
X2504954Y-14408746D01*
X2427774Y-14456823D01*
X2343626Y-14494686D01*
X2320925Y-14502692D01*
X2235183Y-14525079D01*
X2146294Y-14536626D01*
X2056297Y-14537474D01*
X1967232Y-14527763D01*
X1881137Y-14507633D01*
X1800051Y-14477223D01*
X1775250Y-14465219D01*
X1692218Y-14415740D01*
X1618048Y-14357251D01*
X1553004Y-14290086D01*
X1497349Y-14214580D01*
X1451347Y-14131069D01*
X1415262Y-14039889D01*
X1400098Y-13987992D01*
X1393207Y-13959391D01*
X1388260Y-13933114D01*
X1384865Y-13905697D01*
X1382629Y-13873679D01*
X1381159Y-13833597D01*
X1380766Y-13817600D01*
X1380301Y-13759611D01*
X1381844Y-13712400D01*
X1385472Y-13674189D01*
X1387509Y-13661114D01*
X1410254Y-13565771D01*
X1443450Y-13476643D01*
X1486448Y-13394352D01*
X1538596Y-13319518D01*
X1599242Y-13252761D01*
X1667737Y-13194704D01*
X1743429Y-13145965D01*
X1825666Y-13107166D01*
X1913800Y-13078927D01*
X2007177Y-13061870D01*
X2017128Y-13060766D01*
X2083436Y-13058346D01*
X2083436Y-13447230D01*
X2017670Y-13454117D01*
X1954677Y-13471072D01*
X1896267Y-13497877D01*
X1844255Y-13534313D01*
X1834718Y-13542794D01*
X1797432Y-13580986D01*
X1769111Y-13619183D01*
X1746747Y-13661614D01*
X1741630Y-13673633D01*
X1728003Y-13719645D01*
X1720917Y-13772218D01*
X1720423Y-13827000D01*
X1726570Y-13879636D01*
X1738730Y-13924006D01*
X1767545Y-13983592D01*
X1805231Y-14034604D01*
X1851215Y-14076393D01*
X1899825Y-14105878D01*
X1947913Y-14126572D01*
X1993700Y-14139675D01*
X2042283Y-14146337D01*
X2085975Y-14147800D01*
X2158150Y-14142701D01*
X2223259Y-14127247D01*
X2281911Y-14101201D01*
X2334714Y-14064326D01*
X2359346Y-14041519D01*
X2402055Y-13989853D01*
X2433531Y-13933134D01*
X2453607Y-13872547D01*
X2462114Y-13809274D01*
X2458883Y-13744499D01*
X2443747Y-13679405D01*
X2419258Y-13620444D01*
X2401448Y-13593298D01*
X2375443Y-13563635D01*
X2344475Y-13534483D01*
X2311773Y-13508871D01*
X2280569Y-13489828D01*
X2279240Y-13489169D01*
X2216034Y-13464537D01*
X2150161Y-13450631D01*
X2083436Y-13447230D01*
X2083436Y-13058346D01*
X2107557Y-13057465D01*
X2198280Y-13065927D01*
X2287353Y-13085669D01*
X2372830Y-13116209D01*
X2452768Y-13157064D01*
X2483139Y-13176445D01*
X2518242Y-13202962D01*
X2556873Y-13236566D01*
X2595451Y-13273821D01*
X2630392Y-13311291D01*
X2654768Y-13341025D01*
X2696616Y-13404689D01*
X2733530Y-13477007D01*
X2763964Y-13554392D01*
X2786372Y-13633257D01*
X2791662Y-13658576D01*
X2797308Y-13700330D01*
X2800529Y-13750358D01*
X2801339Y-13804470D01*
X2799750Y-13858477D01*
G36*
X2798348Y-18103101D02*
X2794621Y-18154496D01*
X2788884Y-18200214D01*
X2781958Y-18234025D01*
X2753574Y-18317320D01*
X2714675Y-18393787D01*
X2665672Y-18463062D01*
X2606978Y-18524786D01*
X2539008Y-18578596D01*
X2462174Y-18624131D01*
X2376889Y-18661031D01*
X2283566Y-18688932D01*
X2254476Y-18695409D01*
X2230162Y-18699378D01*
X2198351Y-18703057D01*
X2161463Y-18706327D01*
X2121921Y-18709066D01*
X2082147Y-18711154D01*
X2044562Y-18712469D01*
X2011589Y-18712892D01*
X1985649Y-18712300D01*
X1969165Y-18710574D01*
X1966335Y-18709783D01*
X1964349Y-18708267D01*
X1962627Y-18704786D01*
X1961152Y-18698491D01*
X1959904Y-18688537D01*
X1958865Y-18674075D01*
X1958015Y-18654259D01*
X1957336Y-18628242D01*
X1956810Y-18595175D01*
X1956417Y-18554214D01*
X1956139Y-18504509D01*
X1955958Y-18445214D01*
X1955853Y-18375482D01*
X1955808Y-18294466D01*
X1955800Y-18233345D01*
X1955780Y-18157145D01*
X1955720Y-18084754D01*
X1955623Y-18017157D01*
X1955494Y-17955342D01*
X1955336Y-17900292D01*
X1955152Y-17852993D01*
X1954944Y-17814431D01*
X1954717Y-17785592D01*
X1954474Y-17767460D01*
X1954219Y-17761021D01*
X1954213Y-17761018D01*
X1941323Y-17763876D01*
X1920774Y-17770798D01*
X1896340Y-17780322D01*
X1871798Y-17790984D01*
X1852658Y-17800384D01*
X1803131Y-17833642D01*
X1762643Y-17875502D01*
X1731493Y-17925354D01*
X1709977Y-17982586D01*
X1698393Y-18046589D01*
X1697039Y-18116753D01*
X1697188Y-18119456D01*
X1706615Y-18188771D01*
X1726973Y-18254492D01*
X1758831Y-18318001D01*
X1802757Y-18380682D01*
X1806699Y-18385565D01*
X1835857Y-18421360D01*
X1738666Y-18532028D01*
X1710757Y-18563506D01*
X1685394Y-18591541D01*
X1663836Y-18614786D01*
X1647345Y-18631896D01*
X1637179Y-18641523D01*
X1634687Y-18643148D01*
X1626872Y-18638853D01*
X1612716Y-18626695D01*
X1594003Y-18608572D01*
X1572517Y-18586380D01*
X1550043Y-18562018D01*
X1528365Y-18537382D01*
X1509267Y-18514371D01*
X1494533Y-18494881D01*
X1492523Y-18491954D01*
X1448637Y-18415564D01*
X1414749Y-18331973D01*
X1391289Y-18242332D01*
X1384522Y-18202275D01*
X1380919Y-18164849D01*
X1379135Y-18119204D01*
X1379113Y-18069680D01*
X1380796Y-18020619D01*
X1384128Y-17976362D01*
X1387850Y-17947875D01*
X1409288Y-17854825D01*
X1441264Y-17768710D01*
X1484036Y-17689009D01*
X1537862Y-17615201D01*
X1570336Y-17578946D01*
X1638455Y-17516746D01*
X1713612Y-17465068D01*
X1795499Y-17424075D01*
X1883809Y-17393928D01*
X1949450Y-17379335D01*
X1987365Y-17374610D01*
X2033720Y-17371860D01*
X2084572Y-17371049D01*
X2135977Y-17372143D01*
X2183994Y-17375106D01*
X2203450Y-17377400D01*
X2203450Y-17755788D01*
X2203450Y-18040944D01*
X2203475Y-18108641D01*
X2203577Y-18164724D01*
X2203800Y-18210280D01*
X2204184Y-18246392D01*
X2204773Y-18274149D01*
X2205609Y-18294635D01*
X2206734Y-18308936D01*
X2208191Y-18318138D01*
X2210022Y-18323328D01*
X2212268Y-18325591D01*
X2214563Y-18326024D01*
X2233086Y-18323494D01*
X2258974Y-18316926D01*
X2288049Y-18307579D01*
X2316133Y-18296711D01*
X2325125Y-18292702D01*
X2377295Y-18262795D01*
X2418810Y-18226390D01*
X2450304Y-18182809D01*
X2470689Y-18136639D01*
X2477293Y-18114384D01*
X2481074Y-18093184D01*
X2482497Y-18068669D01*
X2482024Y-18036467D01*
X2481848Y-18031497D01*
X2480256Y-17999913D01*
X2477634Y-17976804D01*
X2473075Y-17957942D01*
X2465672Y-17939104D01*
X2459027Y-17925114D01*
X2429232Y-17878737D01*
X2388801Y-17838165D01*
X2338715Y-17804075D01*
X2279958Y-17777143D01*
X2217738Y-17758966D01*
X2203450Y-17755788D01*
X2203450Y-17377400D01*
X2224678Y-17379904D01*
X2235798Y-17381879D01*
X2329853Y-17406339D01*
X2417237Y-17440837D01*
X2497348Y-17484796D01*
X2569584Y-17537640D01*
X2633342Y-17598795D01*
X2688020Y-17667684D01*
X2733017Y-17743733D01*
X2767731Y-17826366D01*
X2791107Y-17912750D01*
X2796444Y-17950856D01*
X2799362Y-17997682D01*
X2799963Y-18049630D01*
X2798348Y-18103101D01*
X2798348Y-18103101D01*
G37*
X2798348Y-18103101D02*
X2794621Y-18154496D01*
X2788884Y-18200214D01*
X2781958Y-18234025D01*
X2753574Y-18317320D01*
X2714675Y-18393787D01*
X2665672Y-18463062D01*
X2606978Y-18524786D01*
X2539008Y-18578596D01*
X2462174Y-18624131D01*
X2376889Y-18661031D01*
X2283566Y-18688932D01*
X2254476Y-18695409D01*
X2230162Y-18699378D01*
X2198351Y-18703057D01*
X2161463Y-18706327D01*
X2121921Y-18709066D01*
X2082147Y-18711154D01*
X2044562Y-18712469D01*
X2011589Y-18712892D01*
X1985649Y-18712300D01*
X1969165Y-18710574D01*
X1966335Y-18709783D01*
X1964349Y-18708267D01*
X1962627Y-18704786D01*
X1961152Y-18698491D01*
X1959904Y-18688537D01*
X1958865Y-18674075D01*
X1958015Y-18654259D01*
X1957336Y-18628242D01*
X1956810Y-18595175D01*
X1956417Y-18554214D01*
X1956139Y-18504509D01*
X1955958Y-18445214D01*
X1955853Y-18375482D01*
X1955808Y-18294466D01*
X1955800Y-18233345D01*
X1955780Y-18157145D01*
X1955720Y-18084754D01*
X1955623Y-18017157D01*
X1955494Y-17955342D01*
X1955336Y-17900292D01*
X1955152Y-17852993D01*
X1954944Y-17814431D01*
X1954717Y-17785592D01*
X1954474Y-17767460D01*
X1954219Y-17761021D01*
X1954213Y-17761018D01*
X1941323Y-17763876D01*
X1920774Y-17770798D01*
X1896340Y-17780322D01*
X1871798Y-17790984D01*
X1852658Y-17800384D01*
X1803131Y-17833642D01*
X1762643Y-17875502D01*
X1731493Y-17925354D01*
X1709977Y-17982586D01*
X1698393Y-18046589D01*
X1697039Y-18116753D01*
X1697188Y-18119456D01*
X1706615Y-18188771D01*
X1726973Y-18254492D01*
X1758831Y-18318001D01*
X1802757Y-18380682D01*
X1806699Y-18385565D01*
X1835857Y-18421360D01*
X1738666Y-18532028D01*
X1710757Y-18563506D01*
X1685394Y-18591541D01*
X1663836Y-18614786D01*
X1647345Y-18631896D01*
X1637179Y-18641523D01*
X1634687Y-18643148D01*
X1626872Y-18638853D01*
X1612716Y-18626695D01*
X1594003Y-18608572D01*
X1572517Y-18586380D01*
X1550043Y-18562018D01*
X1528365Y-18537382D01*
X1509267Y-18514371D01*
X1494533Y-18494881D01*
X1492523Y-18491954D01*
X1448637Y-18415564D01*
X1414749Y-18331973D01*
X1391289Y-18242332D01*
X1384522Y-18202275D01*
X1380919Y-18164849D01*
X1379135Y-18119204D01*
X1379113Y-18069680D01*
X1380796Y-18020619D01*
X1384128Y-17976362D01*
X1387850Y-17947875D01*
X1409288Y-17854825D01*
X1441264Y-17768710D01*
X1484036Y-17689009D01*
X1537862Y-17615201D01*
X1570336Y-17578946D01*
X1638455Y-17516746D01*
X1713612Y-17465068D01*
X1795499Y-17424075D01*
X1883809Y-17393928D01*
X1949450Y-17379335D01*
X1987365Y-17374610D01*
X2033720Y-17371860D01*
X2084572Y-17371049D01*
X2135977Y-17372143D01*
X2183994Y-17375106D01*
X2203450Y-17377400D01*
X2203450Y-17755788D01*
X2203450Y-18040944D01*
X2203475Y-18108641D01*
X2203577Y-18164724D01*
X2203800Y-18210280D01*
X2204184Y-18246392D01*
X2204773Y-18274149D01*
X2205609Y-18294635D01*
X2206734Y-18308936D01*
X2208191Y-18318138D01*
X2210022Y-18323328D01*
X2212268Y-18325591D01*
X2214563Y-18326024D01*
X2233086Y-18323494D01*
X2258974Y-18316926D01*
X2288049Y-18307579D01*
X2316133Y-18296711D01*
X2325125Y-18292702D01*
X2377295Y-18262795D01*
X2418810Y-18226390D01*
X2450304Y-18182809D01*
X2470689Y-18136639D01*
X2477293Y-18114384D01*
X2481074Y-18093184D01*
X2482497Y-18068669D01*
X2482024Y-18036467D01*
X2481848Y-18031497D01*
X2480256Y-17999913D01*
X2477634Y-17976804D01*
X2473075Y-17957942D01*
X2465672Y-17939104D01*
X2459027Y-17925114D01*
X2429232Y-17878737D01*
X2388801Y-17838165D01*
X2338715Y-17804075D01*
X2279958Y-17777143D01*
X2217738Y-17758966D01*
X2203450Y-17755788D01*
X2203450Y-17377400D01*
X2224678Y-17379904D01*
X2235798Y-17381879D01*
X2329853Y-17406339D01*
X2417237Y-17440837D01*
X2497348Y-17484796D01*
X2569584Y-17537640D01*
X2633342Y-17598795D01*
X2688020Y-17667684D01*
X2733017Y-17743733D01*
X2767731Y-17826366D01*
X2791107Y-17912750D01*
X2796444Y-17950856D01*
X2799362Y-17997682D01*
X2799963Y-18049630D01*
X2798348Y-18103101D01*
G36*
X2796508Y-16755467D02*
X2786897Y-16843408D01*
X2767662Y-16934259D01*
X2738618Y-17027242D01*
X2737357Y-17030700D01*
X2726666Y-17057425D01*
X2713035Y-17087921D01*
X2697699Y-17119813D01*
X2681891Y-17150723D01*
X2666843Y-17178279D01*
X2653789Y-17200104D01*
X2643963Y-17213823D01*
X2640696Y-17216869D01*
X2632829Y-17216305D01*
X2616055Y-17209965D01*
X2589912Y-17197630D01*
X2553941Y-17179081D01*
X2507680Y-17154100D01*
X2501813Y-17150878D01*
X2464903Y-17130554D01*
X2431834Y-17112294D01*
X2404188Y-17096976D01*
X2383552Y-17085480D01*
X2371509Y-17078685D01*
X2369063Y-17077228D01*
X2370733Y-17071089D01*
X2377094Y-17055555D01*
X2387262Y-17032643D01*
X2400355Y-17004368D01*
X2408216Y-16987820D01*
X2424644Y-16952451D01*
X2440510Y-16916390D01*
X2454242Y-16883330D01*
X2464273Y-16856965D01*
X2466097Y-16851614D01*
X2481733Y-16794680D01*
X2490313Y-16741749D01*
X2492069Y-16693874D01*
X2487235Y-16652108D01*
X2476044Y-16617507D01*
X2458730Y-16591122D01*
X2435525Y-16574009D01*
X2406664Y-16567221D01*
X2403106Y-16567150D01*
X2377633Y-16570812D01*
X2357074Y-16582969D01*
X2339667Y-16602759D01*
X2320500Y-16634381D01*
X2299497Y-16677997D01*
X2276579Y-16733773D01*
X2251671Y-16801871D01*
X2245019Y-16821150D01*
X2217648Y-16897810D01*
X2191631Y-16963174D01*
X2166380Y-17018493D01*
X2141307Y-17065021D01*
X2115823Y-17104011D01*
X2106259Y-17116668D01*
X2062139Y-17165484D01*
X2015036Y-17202761D01*
X1963439Y-17229218D01*
X1905838Y-17245570D01*
X1840722Y-17252538D01*
X1819529Y-17252905D01*
X1742711Y-17247432D01*
X1672634Y-17231265D01*
X1609522Y-17204608D01*
X1553602Y-17167671D01*
X1505101Y-17120660D01*
X1464243Y-17063781D01*
X1431256Y-16997243D01*
X1406366Y-16921252D01*
X1393989Y-16863180D01*
X1390314Y-16833671D01*
X1387553Y-16795505D01*
X1385792Y-16752562D01*
X1385115Y-16708726D01*
X1385608Y-16667879D01*
X1387356Y-16633902D01*
X1388673Y-16621125D01*
X1402003Y-16545771D01*
X1422325Y-16466893D01*
X1448052Y-16389883D01*
X1476709Y-16321988D01*
X1489270Y-16297428D01*
X1505162Y-16268941D01*
X1522944Y-16238824D01*
X1541174Y-16209376D01*
X1558411Y-16182896D01*
X1573213Y-16161682D01*
X1584138Y-16148033D01*
X1587983Y-16144577D01*
X1594443Y-16146983D01*
X1609676Y-16155253D01*
X1631863Y-16168238D01*
X1659188Y-16184788D01*
X1689833Y-16203754D01*
X1721983Y-16223988D01*
X1753819Y-16244341D01*
X1783526Y-16263662D01*
X1809286Y-16280804D01*
X1829283Y-16294618D01*
X1841699Y-16303954D01*
X1844789Y-16306984D01*
X1842801Y-16313974D01*
X1835127Y-16329300D01*
X1823009Y-16350654D01*
X1808715Y-16374094D01*
X1766308Y-16449084D01*
X1731709Y-16525954D01*
X1706653Y-16600852D01*
X1706606Y-16601026D01*
X1699947Y-16629034D01*
X1695653Y-16656845D01*
X1693294Y-16688529D01*
X1692440Y-16728158D01*
X1692415Y-16735425D01*
X1692571Y-16770346D01*
X1693423Y-16795390D01*
X1695341Y-16813378D01*
X1698695Y-16827128D01*
X1703855Y-16839460D01*
X1706819Y-16845211D01*
X1728075Y-16873529D01*
X1755423Y-16891115D01*
X1787848Y-16897322D01*
X1788626Y-16897326D01*
X1811408Y-16893933D01*
X1831798Y-16883049D01*
X1850526Y-16863678D01*
X1868318Y-16834824D01*
X1885901Y-16795494D01*
X1904004Y-16744692D01*
X1906999Y-16735425D01*
X1926495Y-16674516D01*
X1942648Y-16624346D01*
X1955931Y-16583539D01*
X1966816Y-16550721D01*
X1975774Y-16524518D01*
X1983279Y-16503553D01*
X1989801Y-16486452D01*
X1995814Y-16471840D01*
X2001789Y-16458342D01*
X2003208Y-16455250D01*
X2040996Y-16386122D01*
X2085648Y-16327670D01*
X2114078Y-16299214D01*
X2158905Y-16263994D01*
X2205768Y-16238494D01*
X2257040Y-16221877D01*
X2315093Y-16213305D01*
X2361947Y-16211643D01*
X2424585Y-16214714D01*
X2479144Y-16224181D01*
X2528881Y-16240712D01*
X2549462Y-16250092D01*
X2610089Y-16286735D01*
X2662591Y-16332514D01*
X2706782Y-16386651D01*
X2742474Y-16448368D01*
X2769480Y-16516886D01*
X2787613Y-16591427D01*
X2796685Y-16671214D01*
X2796508Y-16755467D01*
X2796508Y-16755467D01*
G37*
X2796508Y-16755467D02*
X2786897Y-16843408D01*
X2767662Y-16934259D01*
X2738618Y-17027242D01*
X2737357Y-17030700D01*
X2726666Y-17057425D01*
X2713035Y-17087921D01*
X2697699Y-17119813D01*
X2681891Y-17150723D01*
X2666843Y-17178279D01*
X2653789Y-17200104D01*
X2643963Y-17213823D01*
X2640696Y-17216869D01*
X2632829Y-17216305D01*
X2616055Y-17209965D01*
X2589912Y-17197630D01*
X2553941Y-17179081D01*
X2507680Y-17154100D01*
X2501813Y-17150878D01*
X2464903Y-17130554D01*
X2431834Y-17112294D01*
X2404188Y-17096976D01*
X2383552Y-17085480D01*
X2371509Y-17078685D01*
X2369063Y-17077228D01*
X2370733Y-17071089D01*
X2377094Y-17055555D01*
X2387262Y-17032643D01*
X2400355Y-17004368D01*
X2408216Y-16987820D01*
X2424644Y-16952451D01*
X2440510Y-16916390D01*
X2454242Y-16883330D01*
X2464273Y-16856965D01*
X2466097Y-16851614D01*
X2481733Y-16794680D01*
X2490313Y-16741749D01*
X2492069Y-16693874D01*
X2487235Y-16652108D01*
X2476044Y-16617507D01*
X2458730Y-16591122D01*
X2435525Y-16574009D01*
X2406664Y-16567221D01*
X2403106Y-16567150D01*
X2377633Y-16570812D01*
X2357074Y-16582969D01*
X2339667Y-16602759D01*
X2320500Y-16634381D01*
X2299497Y-16677997D01*
X2276579Y-16733773D01*
X2251671Y-16801871D01*
X2245019Y-16821150D01*
X2217648Y-16897810D01*
X2191631Y-16963174D01*
X2166380Y-17018493D01*
X2141307Y-17065021D01*
X2115823Y-17104011D01*
X2106259Y-17116668D01*
X2062139Y-17165484D01*
X2015036Y-17202761D01*
X1963439Y-17229218D01*
X1905838Y-17245570D01*
X1840722Y-17252538D01*
X1819529Y-17252905D01*
X1742711Y-17247432D01*
X1672634Y-17231265D01*
X1609522Y-17204608D01*
X1553602Y-17167671D01*
X1505101Y-17120660D01*
X1464243Y-17063781D01*
X1431256Y-16997243D01*
X1406366Y-16921252D01*
X1393989Y-16863180D01*
X1390314Y-16833671D01*
X1387553Y-16795505D01*
X1385792Y-16752562D01*
X1385115Y-16708726D01*
X1385608Y-16667879D01*
X1387356Y-16633902D01*
X1388673Y-16621125D01*
X1402003Y-16545771D01*
X1422325Y-16466893D01*
X1448052Y-16389883D01*
X1476709Y-16321988D01*
X1489270Y-16297428D01*
X1505162Y-16268941D01*
X1522944Y-16238824D01*
X1541174Y-16209376D01*
X1558411Y-16182896D01*
X1573213Y-16161682D01*
X1584138Y-16148033D01*
X1587983Y-16144577D01*
X1594443Y-16146983D01*
X1609676Y-16155253D01*
X1631863Y-16168238D01*
X1659188Y-16184788D01*
X1689833Y-16203754D01*
X1721983Y-16223988D01*
X1753819Y-16244341D01*
X1783526Y-16263662D01*
X1809286Y-16280804D01*
X1829283Y-16294618D01*
X1841699Y-16303954D01*
X1844789Y-16306984D01*
X1842801Y-16313974D01*
X1835127Y-16329300D01*
X1823009Y-16350654D01*
X1808715Y-16374094D01*
X1766308Y-16449084D01*
X1731709Y-16525954D01*
X1706653Y-16600852D01*
X1706606Y-16601026D01*
X1699947Y-16629034D01*
X1695653Y-16656845D01*
X1693294Y-16688529D01*
X1692440Y-16728158D01*
X1692415Y-16735425D01*
X1692571Y-16770346D01*
X1693423Y-16795390D01*
X1695341Y-16813378D01*
X1698695Y-16827128D01*
X1703855Y-16839460D01*
X1706819Y-16845211D01*
X1728075Y-16873529D01*
X1755423Y-16891115D01*
X1787848Y-16897322D01*
X1788626Y-16897326D01*
X1811408Y-16893933D01*
X1831798Y-16883049D01*
X1850526Y-16863678D01*
X1868318Y-16834824D01*
X1885901Y-16795494D01*
X1904004Y-16744692D01*
X1906999Y-16735425D01*
X1926495Y-16674516D01*
X1942648Y-16624346D01*
X1955931Y-16583539D01*
X1966816Y-16550721D01*
X1975774Y-16524518D01*
X1983279Y-16503553D01*
X1989801Y-16486452D01*
X1995814Y-16471840D01*
X2001789Y-16458342D01*
X2003208Y-16455250D01*
X2040996Y-16386122D01*
X2085648Y-16327670D01*
X2114078Y-16299214D01*
X2158905Y-16263994D01*
X2205768Y-16238494D01*
X2257040Y-16221877D01*
X2315093Y-16213305D01*
X2361947Y-16211643D01*
X2424585Y-16214714D01*
X2479144Y-16224181D01*
X2528881Y-16240712D01*
X2549462Y-16250092D01*
X2610089Y-16286735D01*
X2662591Y-16332514D01*
X2706782Y-16386651D01*
X2742474Y-16448368D01*
X2769480Y-16516886D01*
X2787613Y-16591427D01*
X2796685Y-16671214D01*
X2796508Y-16755467D01*
G36*
X2738438Y-21264468D02*
X2727685Y-21260309D01*
X2705916Y-21251844D01*
X2673943Y-21239390D01*
X2632578Y-21223263D01*
X2582634Y-21203782D01*
X2524922Y-21181262D01*
X2460255Y-21156021D01*
X2389446Y-21128376D01*
X2313306Y-21098644D01*
X2232648Y-21067142D01*
X2148284Y-21034187D01*
X2061027Y-21000096D01*
X2051050Y-20996197D01*
X1400175Y-20741876D01*
X1398489Y-20562526D01*
X1398042Y-20509963D01*
X1397854Y-20468697D01*
X1397998Y-20437328D01*
X1398546Y-20414455D01*
X1399571Y-20398675D01*
X1401146Y-20388589D01*
X1403343Y-20382796D01*
X1406236Y-20379893D01*
X1408014Y-20379070D01*
X1415299Y-20376261D01*
X1433653Y-20369128D01*
X1462319Y-20357967D01*
X1500536Y-20343075D01*
X1547544Y-20324747D01*
X1602585Y-20303280D01*
X1664898Y-20278971D01*
X1733724Y-20252115D01*
X1808305Y-20223009D01*
X1887879Y-20191949D01*
X1971687Y-20159231D01*
X2058971Y-20125152D01*
X2091292Y-20112532D01*
X2179514Y-20078102D01*
X2264456Y-20044991D01*
X2345365Y-20013491D01*
X2421491Y-19983891D01*
X2492081Y-19956482D01*
X2556385Y-19931557D01*
X2613652Y-19909404D01*
X2663130Y-19890316D01*
X2704067Y-19874583D01*
X2735713Y-19862495D01*
X2757316Y-19854345D01*
X2768125Y-19850421D01*
X2769241Y-19850100D01*
X2770784Y-19856277D01*
X2772026Y-19874129D01*
X2772946Y-19902630D01*
X2773522Y-19940757D01*
X2773735Y-19987486D01*
X2773564Y-20041795D01*
X2773450Y-20057535D01*
X2771775Y-20264970D01*
X2324785Y-20413965D01*
X2243649Y-20441110D01*
X2169153Y-20466234D01*
X2101936Y-20489114D01*
X2042639Y-20509524D01*
X1991900Y-20527241D01*
X1950359Y-20542040D01*
X1918655Y-20553697D01*
X1897428Y-20561988D01*
X1887316Y-20566688D01*
X1886635Y-20567626D01*
X1893967Y-20570366D01*
X1912371Y-20576814D01*
X1940880Y-20586639D01*
X1978524Y-20599514D01*
X2024335Y-20615108D01*
X2077345Y-20633093D01*
X2136584Y-20653139D01*
X2201084Y-20674917D01*
X2269877Y-20698098D01*
X2335213Y-20720075D01*
X2774950Y-20867858D01*
X2774950Y-21278417D01*
X2738438Y-21264468D01*
X2738438Y-21264468D01*
G37*
X2738438Y-21264468D02*
X2727685Y-21260309D01*
X2705916Y-21251844D01*
X2673943Y-21239390D01*
X2632578Y-21223263D01*
X2582634Y-21203782D01*
X2524922Y-21181262D01*
X2460255Y-21156021D01*
X2389446Y-21128376D01*
X2313306Y-21098644D01*
X2232648Y-21067142D01*
X2148284Y-21034187D01*
X2061027Y-21000096D01*
X2051050Y-20996197D01*
X1400175Y-20741876D01*
X1398489Y-20562526D01*
X1398042Y-20509963D01*
X1397854Y-20468697D01*
X1397998Y-20437328D01*
X1398546Y-20414455D01*
X1399571Y-20398675D01*
X1401146Y-20388589D01*
X1403343Y-20382796D01*
X1406236Y-20379893D01*
X1408014Y-20379070D01*
X1415299Y-20376261D01*
X1433653Y-20369128D01*
X1462319Y-20357967D01*
X1500536Y-20343075D01*
X1547544Y-20324747D01*
X1602585Y-20303280D01*
X1664898Y-20278971D01*
X1733724Y-20252115D01*
X1808305Y-20223009D01*
X1887879Y-20191949D01*
X1971687Y-20159231D01*
X2058971Y-20125152D01*
X2091292Y-20112532D01*
X2179514Y-20078102D01*
X2264456Y-20044991D01*
X2345365Y-20013491D01*
X2421491Y-19983891D01*
X2492081Y-19956482D01*
X2556385Y-19931557D01*
X2613652Y-19909404D01*
X2663130Y-19890316D01*
X2704067Y-19874583D01*
X2735713Y-19862495D01*
X2757316Y-19854345D01*
X2768125Y-19850421D01*
X2769241Y-19850100D01*
X2770784Y-19856277D01*
X2772026Y-19874129D01*
X2772946Y-19902630D01*
X2773522Y-19940757D01*
X2773735Y-19987486D01*
X2773564Y-20041795D01*
X2773450Y-20057535D01*
X2771775Y-20264970D01*
X2324785Y-20413965D01*
X2243649Y-20441110D01*
X2169153Y-20466234D01*
X2101936Y-20489114D01*
X2042639Y-20509524D01*
X1991900Y-20527241D01*
X1950359Y-20542040D01*
X1918655Y-20553697D01*
X1897428Y-20561988D01*
X1887316Y-20566688D01*
X1886635Y-20567626D01*
X1893967Y-20570366D01*
X1912371Y-20576814D01*
X1940880Y-20586639D01*
X1978524Y-20599514D01*
X2024335Y-20615108D01*
X2077345Y-20633093D01*
X2136584Y-20653139D01*
X2201084Y-20674917D01*
X2269877Y-20698098D01*
X2335213Y-20720075D01*
X2774950Y-20867858D01*
X2774950Y-21278417D01*
X2738438Y-21264468D01*
G36*
X2796990Y-15557686D02*
X2796257Y-15589203D01*
X2794714Y-15613530D01*
X2792098Y-15633417D01*
X2788146Y-15651619D01*
X2782595Y-15670889D01*
X2782311Y-15671800D01*
X2761006Y-15728833D01*
X2734584Y-15777453D01*
X2700702Y-15821642D01*
X2682875Y-15840656D01*
X2627522Y-15887736D01*
X2563987Y-15925205D01*
X2492537Y-15952932D01*
X2418158Y-15970033D01*
X2403616Y-15971327D01*
X2376943Y-15972498D01*
X2338706Y-15973541D01*
X2289476Y-15974447D01*
X2229819Y-15975210D01*
X2160304Y-15975822D01*
X2081501Y-15976276D01*
X1993976Y-15976565D01*
X1898298Y-15976681D01*
X1895475Y-15976682D01*
X1412875Y-15976792D01*
X1411198Y-15779846D01*
X1409520Y-15582900D01*
X1824201Y-15582900D01*
X1910774Y-15582881D01*
X1985641Y-15582785D01*
X2049797Y-15582548D01*
X2104236Y-15582111D01*
X2149952Y-15581411D01*
X2187939Y-15580387D01*
X2219193Y-15578976D01*
X2244706Y-15577118D01*
X2265474Y-15574750D01*
X2282490Y-15571812D01*
X2296749Y-15568241D01*
X2309246Y-15563976D01*
X2320974Y-15558955D01*
X2332927Y-15553118D01*
X2336826Y-15551137D01*
X2372897Y-15526193D01*
X2404055Y-15491722D01*
X2424935Y-15456449D01*
X2432683Y-15438411D01*
X2437596Y-15421739D01*
X2440297Y-15402617D01*
X2441405Y-15377231D01*
X2441565Y-15354300D01*
X2441186Y-15322401D01*
X2439635Y-15299383D01*
X2436297Y-15281441D01*
X2430554Y-15264768D01*
X2425053Y-15252410D01*
X2399929Y-15209363D01*
X2369163Y-15176502D01*
X2338350Y-15155731D01*
X2325338Y-15148747D01*
X2313141Y-15142719D01*
X2300759Y-15137578D01*
X2287190Y-15133252D01*
X2271432Y-15129671D01*
X2252486Y-15126764D01*
X2229350Y-15124462D01*
X2201023Y-15122694D01*
X2166504Y-15121389D01*
X2124791Y-15120477D01*
X2074885Y-15119888D01*
X2015783Y-15119551D01*
X1946486Y-15119396D01*
X1865991Y-15119352D01*
X1821116Y-15119350D01*
X1409700Y-15119350D01*
X1409700Y-14725650D01*
X2774950Y-14725650D01*
X2774950Y-15119350D01*
X2687638Y-15119338D01*
X2600325Y-15119327D01*
X2660650Y-15181504D01*
X2697888Y-15221814D01*
X2726797Y-15258069D01*
X2749487Y-15293451D01*
X2768068Y-15331140D01*
X2780162Y-15361700D01*
X2786453Y-15379694D01*
X2790971Y-15395612D01*
X2794007Y-15412101D01*
X2795853Y-15431810D01*
X2796801Y-15457385D01*
X2797141Y-15491474D01*
X2797175Y-15516225D01*
X2796990Y-15557686D01*
X2796990Y-15557686D01*
G37*
X2796990Y-15557686D02*
X2796257Y-15589203D01*
X2794714Y-15613530D01*
X2792098Y-15633417D01*
X2788146Y-15651619D01*
X2782595Y-15670889D01*
X2782311Y-15671800D01*
X2761006Y-15728833D01*
X2734584Y-15777453D01*
X2700702Y-15821642D01*
X2682875Y-15840656D01*
X2627522Y-15887736D01*
X2563987Y-15925205D01*
X2492537Y-15952932D01*
X2418158Y-15970033D01*
X2403616Y-15971327D01*
X2376943Y-15972498D01*
X2338706Y-15973541D01*
X2289476Y-15974447D01*
X2229819Y-15975210D01*
X2160304Y-15975822D01*
X2081501Y-15976276D01*
X1993976Y-15976565D01*
X1898298Y-15976681D01*
X1895475Y-15976682D01*
X1412875Y-15976792D01*
X1411198Y-15779846D01*
X1409520Y-15582900D01*
X1824201Y-15582900D01*
X1910774Y-15582881D01*
X1985641Y-15582785D01*
X2049797Y-15582548D01*
X2104236Y-15582111D01*
X2149952Y-15581411D01*
X2187939Y-15580387D01*
X2219193Y-15578976D01*
X2244706Y-15577118D01*
X2265474Y-15574750D01*
X2282490Y-15571812D01*
X2296749Y-15568241D01*
X2309246Y-15563976D01*
X2320974Y-15558955D01*
X2332927Y-15553118D01*
X2336826Y-15551137D01*
X2372897Y-15526193D01*
X2404055Y-15491722D01*
X2424935Y-15456449D01*
X2432683Y-15438411D01*
X2437596Y-15421739D01*
X2440297Y-15402617D01*
X2441405Y-15377231D01*
X2441565Y-15354300D01*
X2441186Y-15322401D01*
X2439635Y-15299383D01*
X2436297Y-15281441D01*
X2430554Y-15264768D01*
X2425053Y-15252410D01*
X2399929Y-15209363D01*
X2369163Y-15176502D01*
X2338350Y-15155731D01*
X2325338Y-15148747D01*
X2313141Y-15142719D01*
X2300759Y-15137578D01*
X2287190Y-15133252D01*
X2271432Y-15129671D01*
X2252486Y-15126764D01*
X2229350Y-15124462D01*
X2201023Y-15122694D01*
X2166504Y-15121389D01*
X2124791Y-15120477D01*
X2074885Y-15119888D01*
X2015783Y-15119551D01*
X1946486Y-15119396D01*
X1865991Y-15119352D01*
X1821116Y-15119350D01*
X1409700Y-15119350D01*
X1409700Y-14725650D01*
X2774950Y-14725650D01*
X2774950Y-15119350D01*
X2687638Y-15119338D01*
X2600325Y-15119327D01*
X2660650Y-15181504D01*
X2697888Y-15221814D01*
X2726797Y-15258069D01*
X2749487Y-15293451D01*
X2768068Y-15331140D01*
X2780162Y-15361700D01*
X2786453Y-15379694D01*
X2790971Y-15395612D01*
X2794007Y-15412101D01*
X2795853Y-15431810D01*
X2796801Y-15457385D01*
X2797141Y-15491474D01*
X2797175Y-15516225D01*
X2796990Y-15557686D01*
G36*
X2802997Y-19732471D02*
X2798974Y-19748500D01*
X2395697Y-19748500D01*
X2391348Y-19694898D01*
X2380189Y-19618876D01*
X2359685Y-19551438D01*
X2329737Y-19492463D01*
X2290247Y-19441829D01*
X2241114Y-19399412D01*
X2182239Y-19365091D01*
X2113523Y-19338743D01*
X2098675Y-19334443D01*
X2086727Y-19331277D01*
X2075015Y-19328615D01*
X2062333Y-19326404D01*
X2047471Y-19324590D01*
X2029220Y-19323121D01*
X2006373Y-19321944D01*
X1977720Y-19321005D01*
X1942052Y-19320252D01*
X1898162Y-19319632D01*
X1844841Y-19319090D01*
X1780880Y-19318575D01*
X1728788Y-19318199D01*
X1409700Y-19315952D01*
X1409700Y-18923000D01*
X2774950Y-18923000D01*
X2774950Y-19316700D01*
X2649538Y-19316844D01*
X2524125Y-19316988D01*
X2563110Y-19338003D01*
X2623119Y-19375178D01*
X2676093Y-19417739D01*
X2720707Y-19464254D01*
X2755635Y-19513290D01*
X2779552Y-19563416D01*
X2783791Y-19576410D01*
X2790289Y-19602794D01*
X2796014Y-19633798D01*
X2800535Y-19665917D01*
X2803422Y-19695646D01*
X2804242Y-19719480D01*
X2802997Y-19732471D01*
X2802997Y-19732471D01*
G37*
X2802997Y-19732471D02*
X2798974Y-19748500D01*
X2395697Y-19748500D01*
X2391348Y-19694898D01*
X2380189Y-19618876D01*
X2359685Y-19551438D01*
X2329737Y-19492463D01*
X2290247Y-19441829D01*
X2241114Y-19399412D01*
X2182239Y-19365091D01*
X2113523Y-19338743D01*
X2098675Y-19334443D01*
X2086727Y-19331277D01*
X2075015Y-19328615D01*
X2062333Y-19326404D01*
X2047471Y-19324590D01*
X2029220Y-19323121D01*
X2006373Y-19321944D01*
X1977720Y-19321005D01*
X1942052Y-19320252D01*
X1898162Y-19319632D01*
X1844841Y-19319090D01*
X1780880Y-19318575D01*
X1728788Y-19318199D01*
X1409700Y-19315952D01*
X1409700Y-18923000D01*
X2774950Y-18923000D01*
X2774950Y-19316700D01*
X2649538Y-19316844D01*
X2524125Y-19316988D01*
X2563110Y-19338003D01*
X2623119Y-19375178D01*
X2676093Y-19417739D01*
X2720707Y-19464254D01*
X2755635Y-19513290D01*
X2779552Y-19563416D01*
X2783791Y-19576410D01*
X2790289Y-19602794D01*
X2796014Y-19633798D01*
X2800535Y-19665917D01*
X2803422Y-19695646D01*
X2804242Y-19719480D01*
X2802997Y-19732471D01*
G36*
X2093913Y-21813896D02*
X1412875Y-21812368D01*
X1411198Y-21615459D01*
X1409520Y-21418550D01*
X2774950Y-21418550D01*
X2774951Y-21616987D01*
X2774951Y-21815425D01*
X2093913Y-21813896D01*
X2093913Y-21813896D01*
G37*
X2093913Y-21813896D02*
X1412875Y-21812368D01*
X1411198Y-21615459D01*
X1409520Y-21418550D01*
X2774950Y-21418550D01*
X2774951Y-21616987D01*
X2774951Y-21815425D01*
X2093913Y-21813896D01*
G36*
X3285213Y-22618700D02*
X3284792Y-22668084D01*
X3283408Y-22708168D01*
X3280666Y-22742337D01*
X3276171Y-22773978D01*
X3269527Y-22806478D01*
X3260340Y-22843222D01*
X3257978Y-22852062D01*
X3250711Y-22879050D01*
X3085176Y-22879050D01*
X3035071Y-22879003D01*
X2996283Y-22878800D01*
X2967432Y-22878346D01*
X2947135Y-22877544D01*
X2934010Y-22876300D01*
X2926676Y-22874518D01*
X2923751Y-22872103D01*
X2923852Y-22868958D01*
X2924233Y-22867937D01*
X2935206Y-22834744D01*
X2944509Y-22794220D01*
X2951117Y-22751720D01*
X2953992Y-22712991D01*
X2951542Y-22666609D01*
X2941562Y-22629937D01*
X2923260Y-22602130D01*
X2895848Y-22582343D01*
X2858534Y-22569731D01*
X2814391Y-22563708D01*
X2762476Y-22559970D01*
X2760776Y-22716573D01*
X2759075Y-22873176D01*
X2441575Y-22873176D01*
X2438175Y-22567900D01*
X1409700Y-22567900D01*
X1409700Y-22174200D01*
X2438400Y-22174200D01*
X2438400Y-22015450D01*
X2762250Y-22015450D01*
X2762250Y-22172474D01*
X2855913Y-22175770D01*
X2896877Y-22177918D01*
X2936727Y-22181271D01*
X2971580Y-22185438D01*
X2997200Y-22189950D01*
X3065035Y-22210931D01*
X3123886Y-22240879D01*
X3173875Y-22279907D01*
X3215122Y-22328133D01*
X3247749Y-22385671D01*
X3271876Y-22452638D01*
X3271890Y-22452688D01*
X3276878Y-22472369D01*
X3280481Y-22491725D01*
X3282908Y-22513350D01*
X3284367Y-22539838D01*
X3285066Y-22573785D01*
X3285214Y-22617785D01*
X3285213Y-22618700D01*
X3285213Y-22618700D01*
G37*
X3285213Y-22618700D02*
X3284792Y-22668084D01*
X3283408Y-22708168D01*
X3280666Y-22742337D01*
X3276171Y-22773978D01*
X3269527Y-22806478D01*
X3260340Y-22843222D01*
X3257978Y-22852062D01*
X3250711Y-22879050D01*
X3085176Y-22879050D01*
X3035071Y-22879003D01*
X2996283Y-22878800D01*
X2967432Y-22878346D01*
X2947135Y-22877544D01*
X2934010Y-22876300D01*
X2926676Y-22874518D01*
X2923751Y-22872103D01*
X2923852Y-22868958D01*
X2924233Y-22867937D01*
X2935206Y-22834744D01*
X2944509Y-22794220D01*
X2951117Y-22751720D01*
X2953992Y-22712991D01*
X2951542Y-22666609D01*
X2941562Y-22629937D01*
X2923260Y-22602130D01*
X2895848Y-22582343D01*
X2858534Y-22569731D01*
X2814391Y-22563708D01*
X2762476Y-22559970D01*
X2760776Y-22716573D01*
X2759075Y-22873176D01*
X2441575Y-22873176D01*
X2438175Y-22567900D01*
X1409700Y-22567900D01*
X1409700Y-22174200D01*
X2438400Y-22174200D01*
X2438400Y-22015450D01*
X2762250Y-22015450D01*
X2762250Y-22172474D01*
X2855913Y-22175770D01*
X2896877Y-22177918D01*
X2936727Y-22181271D01*
X2971580Y-22185438D01*
X2997200Y-22189950D01*
X3065035Y-22210931D01*
X3123886Y-22240879D01*
X3173875Y-22279907D01*
X3215122Y-22328133D01*
X3247749Y-22385671D01*
X3271876Y-22452638D01*
X3271890Y-22452688D01*
X3276878Y-22472369D01*
X3280481Y-22491725D01*
X3282908Y-22513350D01*
X3284367Y-22539838D01*
X3285066Y-22573785D01*
X3285214Y-22617785D01*
X3285213Y-22618700D01*
G36*
X2921000Y-21824950D02*
X2921000Y-21412200D01*
X3270250Y-21412200D01*
X3270250Y-21824950D01*
X2921000Y-21824950D01*
X2921000Y-21824950D01*
G37*
X2921000Y-21824950D02*
X2921000Y-21412200D01*
X3270250Y-21412200D01*
X3270250Y-21824950D01*
X2921000Y-21824950D01*
G36*
X3995840Y-8890629D02*
X3980966Y-8959727D01*
X3954090Y-9030490D01*
X3945850Y-9047891D01*
X3929693Y-9078764D01*
X3913562Y-9104076D01*
X3894333Y-9128103D01*
X3868883Y-9155120D01*
X3863735Y-9160296D01*
X3837187Y-9185927D01*
X3814562Y-9204974D01*
X3791544Y-9220513D01*
X3763813Y-9235624D01*
X3745311Y-9244712D01*
X3701891Y-9264455D01*
X3664930Y-9278159D01*
X3630292Y-9286789D01*
X3593843Y-9291313D01*
X3551448Y-9292696D01*
X3540125Y-9292669D01*
X3518772Y-9292286D01*
X3498778Y-9291197D01*
X3479198Y-9289008D01*
X3459085Y-9285328D01*
X3437495Y-9279766D01*
X3413481Y-9271931D01*
X3386096Y-9261430D01*
X3354396Y-9247873D01*
X3317434Y-9230866D01*
X3274263Y-9210020D01*
X3223939Y-9184942D01*
X3165514Y-9155241D01*
X3098044Y-9120525D01*
X3020581Y-9080403D01*
X2994025Y-9066616D01*
X2931451Y-9034058D01*
X2872037Y-9003028D01*
X2816776Y-8974052D01*
X2766657Y-8947653D01*
X2722673Y-8924359D01*
X2685815Y-8904694D01*
X2657074Y-8889184D01*
X2637441Y-8878353D01*
X2627907Y-8872727D01*
X2627313Y-8872284D01*
X2618425Y-8857290D01*
X2616836Y-8838171D01*
X2622791Y-8821264D01*
X2625221Y-8818387D01*
X2633790Y-8812469D01*
X2652491Y-8801359D01*
X2680159Y-8785671D01*
X2715630Y-8766019D01*
X2757742Y-8743016D01*
X2805330Y-8717278D01*
X2857232Y-8689418D01*
X2912282Y-8660051D01*
X2969318Y-8629791D01*
X3027176Y-8599252D01*
X3084692Y-8569049D01*
X3140703Y-8539795D01*
X3194045Y-8512105D01*
X3243555Y-8486593D01*
X3288068Y-8463873D01*
X3326421Y-8444561D01*
X3357451Y-8429269D01*
X3379994Y-8418612D01*
X3392697Y-8413268D01*
X3469097Y-8393174D01*
X3544665Y-8385284D01*
X3556458Y-8385960D01*
X3556458Y-8522722D01*
X3497176Y-8525798D01*
X3441159Y-8539460D01*
X3389433Y-8562681D01*
X3343024Y-8594433D01*
X3302959Y-8633687D01*
X3270265Y-8679417D01*
X3245968Y-8730594D01*
X3231094Y-8786190D01*
X3226670Y-8845178D01*
X3233723Y-8906529D01*
X3235457Y-8914288D01*
X3255785Y-8974733D01*
X3286081Y-9027740D01*
X3325514Y-9072551D01*
X3373250Y-9108410D01*
X3428460Y-9134563D01*
X3490311Y-9150252D01*
X3495923Y-9151089D01*
X3557254Y-9153884D01*
X3615757Y-9145375D01*
X3670383Y-9126656D01*
X3720085Y-9098822D01*
X3763814Y-9062967D01*
X3800522Y-9020187D01*
X3829160Y-8971575D01*
X3848680Y-8918228D01*
X3858034Y-8861239D01*
X3856172Y-8801704D01*
X3852355Y-8778875D01*
X3833623Y-8715464D01*
X3805352Y-8660088D01*
X3768003Y-8613234D01*
X3722036Y-8575387D01*
X3667910Y-8547034D01*
X3617978Y-8531260D01*
X3556458Y-8522722D01*
X3556458Y-8385960D01*
X3618568Y-8389526D01*
X3689971Y-8405832D01*
X3758041Y-8434129D01*
X3779262Y-8445871D01*
X3839233Y-8488263D01*
X3890807Y-8539383D01*
X3932902Y-8597918D01*
X3964434Y-8662555D01*
X3969525Y-8676527D01*
X3990012Y-8750709D01*
X3998820Y-8821517D01*
X3995840Y-8890629D01*
X3995840Y-8890629D01*
G37*
X3995840Y-8890629D02*
X3980966Y-8959727D01*
X3954090Y-9030490D01*
X3945850Y-9047891D01*
X3929693Y-9078764D01*
X3913562Y-9104076D01*
X3894333Y-9128103D01*
X3868883Y-9155120D01*
X3863735Y-9160296D01*
X3837187Y-9185927D01*
X3814562Y-9204974D01*
X3791544Y-9220513D01*
X3763813Y-9235624D01*
X3745311Y-9244712D01*
X3701891Y-9264455D01*
X3664930Y-9278159D01*
X3630292Y-9286789D01*
X3593843Y-9291313D01*
X3551448Y-9292696D01*
X3540125Y-9292669D01*
X3518772Y-9292286D01*
X3498778Y-9291197D01*
X3479198Y-9289008D01*
X3459085Y-9285328D01*
X3437495Y-9279766D01*
X3413481Y-9271931D01*
X3386096Y-9261430D01*
X3354396Y-9247873D01*
X3317434Y-9230866D01*
X3274263Y-9210020D01*
X3223939Y-9184942D01*
X3165514Y-9155241D01*
X3098044Y-9120525D01*
X3020581Y-9080403D01*
X2994025Y-9066616D01*
X2931451Y-9034058D01*
X2872037Y-9003028D01*
X2816776Y-8974052D01*
X2766657Y-8947653D01*
X2722673Y-8924359D01*
X2685815Y-8904694D01*
X2657074Y-8889184D01*
X2637441Y-8878353D01*
X2627907Y-8872727D01*
X2627313Y-8872284D01*
X2618425Y-8857290D01*
X2616836Y-8838171D01*
X2622791Y-8821264D01*
X2625221Y-8818387D01*
X2633790Y-8812469D01*
X2652491Y-8801359D01*
X2680159Y-8785671D01*
X2715630Y-8766019D01*
X2757742Y-8743016D01*
X2805330Y-8717278D01*
X2857232Y-8689418D01*
X2912282Y-8660051D01*
X2969318Y-8629791D01*
X3027176Y-8599252D01*
X3084692Y-8569049D01*
X3140703Y-8539795D01*
X3194045Y-8512105D01*
X3243555Y-8486593D01*
X3288068Y-8463873D01*
X3326421Y-8444561D01*
X3357451Y-8429269D01*
X3379994Y-8418612D01*
X3392697Y-8413268D01*
X3469097Y-8393174D01*
X3544665Y-8385284D01*
X3556458Y-8385960D01*
X3556458Y-8522722D01*
X3497176Y-8525798D01*
X3441159Y-8539460D01*
X3389433Y-8562681D01*
X3343024Y-8594433D01*
X3302959Y-8633687D01*
X3270265Y-8679417D01*
X3245968Y-8730594D01*
X3231094Y-8786190D01*
X3226670Y-8845178D01*
X3233723Y-8906529D01*
X3235457Y-8914288D01*
X3255785Y-8974733D01*
X3286081Y-9027740D01*
X3325514Y-9072551D01*
X3373250Y-9108410D01*
X3428460Y-9134563D01*
X3490311Y-9150252D01*
X3495923Y-9151089D01*
X3557254Y-9153884D01*
X3615757Y-9145375D01*
X3670383Y-9126656D01*
X3720085Y-9098822D01*
X3763814Y-9062967D01*
X3800522Y-9020187D01*
X3829160Y-8971575D01*
X3848680Y-8918228D01*
X3858034Y-8861239D01*
X3856172Y-8801704D01*
X3852355Y-8778875D01*
X3833623Y-8715464D01*
X3805352Y-8660088D01*
X3768003Y-8613234D01*
X3722036Y-8575387D01*
X3667910Y-8547034D01*
X3617978Y-8531260D01*
X3556458Y-8522722D01*
X3556458Y-8385960D01*
X3618568Y-8389526D01*
X3689971Y-8405832D01*
X3758041Y-8434129D01*
X3779262Y-8445871D01*
X3839233Y-8488263D01*
X3890807Y-8539383D01*
X3932902Y-8597918D01*
X3964434Y-8662555D01*
X3969525Y-8676527D01*
X3990012Y-8750709D01*
X3998820Y-8821517D01*
X3995840Y-8890629D01*
D13*
X13634000Y-3056000D02*
X13634000Y-4056000D01*
X12274000Y-4056000D02*
X12274000Y-3056000D01*
X16301000Y-3056000D02*
X16301000Y-4056000D01*
X14941000Y-4056000D02*
X14941000Y-3056000D01*
X26954000Y-22530000D02*
X26954000Y-12310000D01*
X26954000Y-12310000D02*
X24294000Y-12310000D01*
X24294000Y-12310000D02*
X24294000Y-22530000D01*
X24294000Y-22530000D02*
X26954000Y-22530000D01*
X26954000Y-23800000D02*
X26954000Y-25130000D01*
X26954000Y-25130000D02*
X25624000Y-25130000D01*
M02*
