G04 #@! TF.FileFunction,Soldermask,Top*
%FSLAX46Y46*%
G04 Gerber Fmt 4.6, Leading zero omitted, Abs format (unit mm)*
G04 Created by KiCad (PCBNEW 4.0.7-e1-6374~58~ubuntu16.04.1) date Tue Sep 12 09:30:44 2017*
%MOMM*%
%LPD*%
G01*
G04 APERTURE LIST*
%ADD10C,0.100000*%
%ADD11R,0.953200X1.403200*%
%ADD12R,0.853200X0.553200*%
%ADD13R,1.403200X0.953200*%
%ADD14R,0.903200X1.103200*%
%ADD15R,1.103200X1.403200*%
%ADD16R,1.403200X1.103200*%
%ADD17R,1.503200X1.353200*%
%ADD18C,1.003200*%
%ADD19R,0.453200X0.878200*%
%ADD20R,0.778200X0.453200*%
%ADD21R,1.053200X0.503200*%
%ADD22R,1.303200X2.103200*%
%ADD23R,0.953200X2.303200*%
%ADD24R,1.303200X1.203200*%
%ADD25R,0.853200X1.253200*%
%ADD26C,2.403200*%
%ADD27R,1.903200X1.903200*%
%ADD28O,1.903200X1.903200*%
%ADD29R,0.903200X1.203200*%
%ADD30R,0.903200X0.803200*%
%ADD31R,1.403200X1.003200*%
%ADD32R,2.403200X1.003200*%
%ADD33R,2.703200X2.203200*%
%ADD34R,1.203200X1.703200*%
%ADD35R,1.403200X1.403200*%
%ADD36R,1.703200X1.803200*%
%ADD37R,0.903200X0.603200*%
%ADD38R,1.300000X0.700000*%
%ADD39R,0.603200X1.553200*%
%ADD40C,1.403200*%
%ADD41C,1.903200*%
G04 APERTURE END LIST*
D10*
D11*
X19494500Y18476000D03*
X19494500Y16576000D03*
D12*
X12065000Y11669000D03*
X12065000Y12319000D03*
X12065000Y12969000D03*
X9965000Y12969000D03*
X9965000Y12319000D03*
X9965000Y11669000D03*
D10*
G36*
X14432550Y32886564D02*
X15106564Y32212550D01*
X14114352Y31220338D01*
X13440338Y31894352D01*
X14432550Y32886564D01*
X14432550Y32886564D01*
G37*
G36*
X13089048Y31543062D02*
X13763062Y30869048D01*
X12770850Y29876836D01*
X12096836Y30550850D01*
X13089048Y31543062D01*
X13089048Y31543062D01*
G37*
G36*
X15448550Y31870564D02*
X16122564Y31196550D01*
X15130352Y30204338D01*
X14456338Y30878352D01*
X15448550Y31870564D01*
X15448550Y31870564D01*
G37*
G36*
X14105048Y30527062D02*
X14779062Y29853048D01*
X13786850Y28860836D01*
X13112836Y29534850D01*
X14105048Y30527062D01*
X14105048Y30527062D01*
G37*
D11*
X16040100Y27104300D03*
X16040100Y29004300D03*
X5651500Y25971500D03*
X5651500Y27871500D03*
X17437100Y27104300D03*
X17437100Y29004300D03*
X8636000Y26482000D03*
X8636000Y28382000D03*
X6858000Y17333000D03*
X6858000Y15433000D03*
X7175500Y26482000D03*
X7175500Y28382000D03*
X8064500Y11242000D03*
X8064500Y13142000D03*
X5334000Y3680500D03*
X5334000Y1780500D03*
D13*
X6860500Y-3111500D03*
X8760500Y-3111500D03*
X6863000Y-1524000D03*
X8763000Y-1524000D03*
X21636682Y3416680D03*
X23536682Y3416680D03*
D11*
X23293679Y9609817D03*
X23293679Y7709817D03*
D13*
X19218682Y3416680D03*
X17318682Y3416680D03*
X17771679Y12977817D03*
X19671679Y12977817D03*
D11*
X8064500Y9078000D03*
X8064500Y7178000D03*
D14*
X4191000Y25956500D03*
X4191000Y27256500D03*
D15*
X20320000Y27030500D03*
X20320000Y29230500D03*
X21907500Y27030500D03*
X21907500Y29230500D03*
X15546679Y10734817D03*
X15546679Y12934817D03*
D16*
X21685679Y12977817D03*
X23885679Y12977817D03*
D15*
X24892000Y10752000D03*
X24892000Y8552000D03*
D17*
X24526300Y28814000D03*
X24526300Y25464000D03*
D16*
X26076300Y24839000D03*
X26076300Y29439000D03*
D18*
X26076300Y27989000D03*
X26076300Y26289000D03*
D10*
G36*
X10876937Y26219689D02*
X11197398Y26540150D01*
X12260321Y25477227D01*
X11939860Y25156766D01*
X10876937Y26219689D01*
X10876937Y26219689D01*
G37*
G36*
X10523384Y25866136D02*
X10843845Y26186597D01*
X11906768Y25123674D01*
X11586307Y24803213D01*
X10523384Y25866136D01*
X10523384Y25866136D01*
G37*
G36*
X10169830Y25512582D02*
X10490291Y25833043D01*
X11553214Y24770120D01*
X11232753Y24449659D01*
X10169830Y25512582D01*
X10169830Y25512582D01*
G37*
G36*
X9816277Y25159029D02*
X10136738Y25479490D01*
X11199661Y24416567D01*
X10879200Y24096106D01*
X9816277Y25159029D01*
X9816277Y25159029D01*
G37*
G36*
X9462724Y24805476D02*
X9783185Y25125937D01*
X10846108Y24063014D01*
X10525647Y23742553D01*
X9462724Y24805476D01*
X9462724Y24805476D01*
G37*
G36*
X9109170Y24451922D02*
X9429631Y24772383D01*
X10492554Y23709460D01*
X10172093Y23388999D01*
X9109170Y24451922D01*
X9109170Y24451922D01*
G37*
G36*
X8755617Y24098369D02*
X9076078Y24418830D01*
X10139001Y23355907D01*
X9818540Y23035446D01*
X8755617Y24098369D01*
X8755617Y24098369D01*
G37*
G36*
X8402063Y23744815D02*
X8722524Y24065276D01*
X9785447Y23002353D01*
X9464986Y22681892D01*
X8402063Y23744815D01*
X8402063Y23744815D01*
G37*
G36*
X8048510Y23391262D02*
X8368971Y23711723D01*
X9431894Y22648800D01*
X9111433Y22328339D01*
X8048510Y23391262D01*
X8048510Y23391262D01*
G37*
G36*
X7694957Y23037709D02*
X8015418Y23358170D01*
X9078341Y22295247D01*
X8757880Y21974786D01*
X7694957Y23037709D01*
X7694957Y23037709D01*
G37*
G36*
X7341403Y22684155D02*
X7661864Y23004616D01*
X8724787Y21941693D01*
X8404326Y21621232D01*
X7341403Y22684155D01*
X7341403Y22684155D01*
G37*
G36*
X6987850Y22330602D02*
X7308311Y22651063D01*
X8371234Y21588140D01*
X8050773Y21267679D01*
X6987850Y22330602D01*
X6987850Y22330602D01*
G37*
G36*
X7308311Y19004937D02*
X6987850Y19325398D01*
X8050773Y20388321D01*
X8371234Y20067860D01*
X7308311Y19004937D01*
X7308311Y19004937D01*
G37*
G36*
X7661864Y18651384D02*
X7341403Y18971845D01*
X8404326Y20034768D01*
X8724787Y19714307D01*
X7661864Y18651384D01*
X7661864Y18651384D01*
G37*
G36*
X8015418Y18297830D02*
X7694957Y18618291D01*
X8757880Y19681214D01*
X9078341Y19360753D01*
X8015418Y18297830D01*
X8015418Y18297830D01*
G37*
G36*
X8368971Y17944277D02*
X8048510Y18264738D01*
X9111433Y19327661D01*
X9431894Y19007200D01*
X8368971Y17944277D01*
X8368971Y17944277D01*
G37*
G36*
X8722524Y17590724D02*
X8402063Y17911185D01*
X9464986Y18974108D01*
X9785447Y18653647D01*
X8722524Y17590724D01*
X8722524Y17590724D01*
G37*
G36*
X9076078Y17237170D02*
X8755617Y17557631D01*
X9818540Y18620554D01*
X10139001Y18300093D01*
X9076078Y17237170D01*
X9076078Y17237170D01*
G37*
G36*
X9429631Y16883617D02*
X9109170Y17204078D01*
X10172093Y18267001D01*
X10492554Y17946540D01*
X9429631Y16883617D01*
X9429631Y16883617D01*
G37*
G36*
X9783185Y16530063D02*
X9462724Y16850524D01*
X10525647Y17913447D01*
X10846108Y17592986D01*
X9783185Y16530063D01*
X9783185Y16530063D01*
G37*
G36*
X10136738Y16176510D02*
X9816277Y16496971D01*
X10879200Y17559894D01*
X11199661Y17239433D01*
X10136738Y16176510D01*
X10136738Y16176510D01*
G37*
G36*
X10490291Y15822957D02*
X10169830Y16143418D01*
X11232753Y17206341D01*
X11553214Y16885880D01*
X10490291Y15822957D01*
X10490291Y15822957D01*
G37*
G36*
X10843845Y15469403D02*
X10523384Y15789864D01*
X11586307Y16852787D01*
X11906768Y16532326D01*
X10843845Y15469403D01*
X10843845Y15469403D01*
G37*
G36*
X11197398Y15115850D02*
X10876937Y15436311D01*
X11939860Y16499234D01*
X12260321Y16178773D01*
X11197398Y15115850D01*
X11197398Y15115850D01*
G37*
G36*
X13139679Y16178773D02*
X13460140Y16499234D01*
X14523063Y15436311D01*
X14202602Y15115850D01*
X13139679Y16178773D01*
X13139679Y16178773D01*
G37*
G36*
X13493232Y16532326D02*
X13813693Y16852787D01*
X14876616Y15789864D01*
X14556155Y15469403D01*
X13493232Y16532326D01*
X13493232Y16532326D01*
G37*
G36*
X13846786Y16885880D02*
X14167247Y17206341D01*
X15230170Y16143418D01*
X14909709Y15822957D01*
X13846786Y16885880D01*
X13846786Y16885880D01*
G37*
G36*
X14200339Y17239433D02*
X14520800Y17559894D01*
X15583723Y16496971D01*
X15263262Y16176510D01*
X14200339Y17239433D01*
X14200339Y17239433D01*
G37*
G36*
X14553892Y17592986D02*
X14874353Y17913447D01*
X15937276Y16850524D01*
X15616815Y16530063D01*
X14553892Y17592986D01*
X14553892Y17592986D01*
G37*
G36*
X14907446Y17946540D02*
X15227907Y18267001D01*
X16290830Y17204078D01*
X15970369Y16883617D01*
X14907446Y17946540D01*
X14907446Y17946540D01*
G37*
G36*
X15260999Y18300093D02*
X15581460Y18620554D01*
X16644383Y17557631D01*
X16323922Y17237170D01*
X15260999Y18300093D01*
X15260999Y18300093D01*
G37*
G36*
X15614553Y18653647D02*
X15935014Y18974108D01*
X16997937Y17911185D01*
X16677476Y17590724D01*
X15614553Y18653647D01*
X15614553Y18653647D01*
G37*
G36*
X15968106Y19007200D02*
X16288567Y19327661D01*
X17351490Y18264738D01*
X17031029Y17944277D01*
X15968106Y19007200D01*
X15968106Y19007200D01*
G37*
G36*
X16321659Y19360753D02*
X16642120Y19681214D01*
X17705043Y18618291D01*
X17384582Y18297830D01*
X16321659Y19360753D01*
X16321659Y19360753D01*
G37*
G36*
X16675213Y19714307D02*
X16995674Y20034768D01*
X18058597Y18971845D01*
X17738136Y18651384D01*
X16675213Y19714307D01*
X16675213Y19714307D01*
G37*
G36*
X17028766Y20067860D02*
X17349227Y20388321D01*
X18412150Y19325398D01*
X18091689Y19004937D01*
X17028766Y20067860D01*
X17028766Y20067860D01*
G37*
G36*
X17349227Y21267679D02*
X17028766Y21588140D01*
X18091689Y22651063D01*
X18412150Y22330602D01*
X17349227Y21267679D01*
X17349227Y21267679D01*
G37*
G36*
X16995674Y21621232D02*
X16675213Y21941693D01*
X17738136Y23004616D01*
X18058597Y22684155D01*
X16995674Y21621232D01*
X16995674Y21621232D01*
G37*
G36*
X16642120Y21974786D02*
X16321659Y22295247D01*
X17384582Y23358170D01*
X17705043Y23037709D01*
X16642120Y21974786D01*
X16642120Y21974786D01*
G37*
G36*
X16288567Y22328339D02*
X15968106Y22648800D01*
X17031029Y23711723D01*
X17351490Y23391262D01*
X16288567Y22328339D01*
X16288567Y22328339D01*
G37*
G36*
X15935014Y22681892D02*
X15614553Y23002353D01*
X16677476Y24065276D01*
X16997937Y23744815D01*
X15935014Y22681892D01*
X15935014Y22681892D01*
G37*
G36*
X15581460Y23035446D02*
X15260999Y23355907D01*
X16323922Y24418830D01*
X16644383Y24098369D01*
X15581460Y23035446D01*
X15581460Y23035446D01*
G37*
G36*
X15227907Y23388999D02*
X14907446Y23709460D01*
X15970369Y24772383D01*
X16290830Y24451922D01*
X15227907Y23388999D01*
X15227907Y23388999D01*
G37*
G36*
X14874353Y23742553D02*
X14553892Y24063014D01*
X15616815Y25125937D01*
X15937276Y24805476D01*
X14874353Y23742553D01*
X14874353Y23742553D01*
G37*
G36*
X14520800Y24096106D02*
X14200339Y24416567D01*
X15263262Y25479490D01*
X15583723Y25159029D01*
X14520800Y24096106D01*
X14520800Y24096106D01*
G37*
G36*
X14167247Y24449659D02*
X13846786Y24770120D01*
X14909709Y25833043D01*
X15230170Y25512582D01*
X14167247Y24449659D01*
X14167247Y24449659D01*
G37*
G36*
X13813693Y24803213D02*
X13493232Y25123674D01*
X14556155Y26186597D01*
X14876616Y25866136D01*
X13813693Y24803213D01*
X13813693Y24803213D01*
G37*
G36*
X13460140Y25156766D02*
X13139679Y25477227D01*
X14202602Y26540150D01*
X14523063Y26219689D01*
X13460140Y25156766D01*
X13460140Y25156766D01*
G37*
D19*
X21649682Y8165680D03*
X21149682Y8165680D03*
X20649682Y8165680D03*
X20149682Y8165680D03*
X19649682Y8165680D03*
X19149682Y8165680D03*
X18649682Y8165680D03*
X18149682Y8165680D03*
X17649682Y8165680D03*
X17149682Y8165680D03*
X21649682Y11290680D03*
X21149682Y11290680D03*
X20649682Y11290680D03*
X20149682Y11290680D03*
X19649682Y11290680D03*
X19149682Y11290680D03*
X18649682Y11290680D03*
X18149682Y11290680D03*
X17649682Y11290680D03*
X17149682Y11290680D03*
D20*
X21712182Y8978180D03*
X21712182Y9478180D03*
X21712182Y9978180D03*
X21712182Y10478180D03*
X17087182Y8978180D03*
X17087182Y9478180D03*
X17087182Y9978180D03*
X17087182Y10478180D03*
D21*
X11872000Y7324470D03*
X11872000Y7824470D03*
X11872000Y8324470D03*
X11872000Y8824470D03*
X9972000Y8824470D03*
X9972000Y8324470D03*
X9972000Y7824470D03*
X9972000Y7324470D03*
D10*
G36*
X9849773Y29239540D02*
X11336960Y30726727D01*
X12258461Y29805226D01*
X10771274Y28318039D01*
X9849773Y29239540D01*
X9849773Y29239540D01*
G37*
G36*
X11617539Y27471774D02*
X13104726Y28958961D01*
X14026227Y28037460D01*
X12539040Y26550273D01*
X11617539Y27471774D01*
X11617539Y27471774D01*
G37*
D22*
X21677682Y5575680D03*
X19177682Y5575680D03*
D23*
X19558000Y36366000D03*
X19558000Y32766000D03*
X20828000Y36366000D03*
X20828000Y32766000D03*
X22098000Y36366000D03*
X22098000Y32766000D03*
X23368000Y36366000D03*
X23368000Y32766000D03*
X24638000Y36366000D03*
X24638000Y32766000D03*
D24*
X2424800Y42494200D03*
X724800Y42494200D03*
X2385800Y46672500D03*
X685800Y46672500D03*
X2246100Y50812700D03*
X546100Y50812700D03*
D25*
X6207800Y44279200D03*
X4307800Y44279200D03*
X5257800Y41979200D03*
X6207800Y48464500D03*
X4307800Y48464500D03*
X5257800Y46164500D03*
X6195100Y52597700D03*
X4295100Y52597700D03*
X5245100Y50297700D03*
D15*
X12954000Y-4656000D03*
X12954000Y-2456000D03*
X15621000Y-4656000D03*
X15621000Y-2456000D03*
D26*
X1400000Y-26600000D03*
X24200000Y-26700000D03*
X1400000Y57600000D03*
X24200000Y57600000D03*
D27*
X25624000Y-23800000D03*
D28*
X25624000Y-21260000D03*
X25624000Y-18720000D03*
X25624000Y-16180000D03*
X25624000Y-13640000D03*
D11*
X4699000Y-15669300D03*
X4699000Y-13769300D03*
X5651500Y-23002200D03*
X5651500Y-24902200D03*
D13*
X8320749Y-14040155D03*
X6420749Y-14040155D03*
X10741700Y-6794500D03*
X8841700Y-6794500D03*
D29*
X14106400Y-20066700D03*
D30*
X14106400Y-18366700D03*
X12106400Y-18366700D03*
X12106400Y-20266700D03*
D24*
X6520749Y-15678455D03*
X8220749Y-15678455D03*
D16*
X21252000Y19939000D03*
X23452000Y19939000D03*
X23452000Y21653500D03*
X21252000Y21653500D03*
D15*
X7137400Y-23004600D03*
X7137400Y-25204600D03*
D31*
X10756900Y-11899900D03*
D32*
X10256900Y-10399900D03*
D31*
X10756900Y-8899900D03*
D33*
X7906900Y-10399900D03*
D13*
X25842000Y52006500D03*
X23942000Y52006500D03*
X14798000Y52133500D03*
X16698000Y52133500D03*
X23942000Y50482500D03*
X25842000Y50482500D03*
D11*
X25908000Y45087500D03*
X25908000Y46987500D03*
D34*
X8234500Y-17970500D03*
X10434500Y-17970500D03*
D27*
X12319000Y56261000D03*
D28*
X14859000Y56261000D03*
X17399000Y56261000D03*
D15*
X14859000Y45994500D03*
X14859000Y43794500D03*
X16510000Y45994500D03*
X16510000Y43794500D03*
D27*
X12192000Y48704500D03*
D28*
X12192000Y51244500D03*
D15*
X21717000Y50906500D03*
X21717000Y53106500D03*
X20066000Y53106500D03*
X20066000Y50906500D03*
D16*
X23665000Y48831500D03*
X25865000Y48831500D03*
D15*
X14859000Y48112500D03*
X14859000Y50312500D03*
X16510000Y50312500D03*
X16510000Y48112500D03*
X18415000Y43794500D03*
X18415000Y45994500D03*
D35*
X20499000Y45935500D03*
X20499000Y43135500D03*
D36*
X23749000Y44535500D03*
D16*
X474800Y44272200D03*
X2674800Y44272200D03*
X435800Y48450500D03*
X2635800Y48450500D03*
X296100Y52590700D03*
X2496100Y52590700D03*
D37*
X19431000Y49115500D03*
X19431000Y48465500D03*
X19431000Y47815500D03*
X21331000Y47815500D03*
X21331000Y49115500D03*
D38*
X8838500Y4341500D03*
X8838500Y3091500D03*
X8838500Y1841500D03*
X8838500Y591500D03*
X11338500Y591500D03*
X11338500Y1841500D03*
X11338500Y3091500D03*
X11338500Y4341500D03*
D39*
X11781000Y-23086400D03*
X12431000Y-23086400D03*
X13081000Y-23086400D03*
X13731000Y-23086400D03*
X14381000Y-23086400D03*
D40*
X10656000Y-23011400D03*
X15506000Y-23011400D03*
D41*
X9456000Y-25661400D03*
X16706000Y-25661400D03*
D27*
X25628600Y-4699000D03*
D28*
X25628600Y-7239000D03*
X25628600Y-9779000D03*
M02*
