M48
;DRILL file {KiCad 4.0.6} date 07/26/17 10:52:54
;FORMAT={-:-/ absolute / inch / decimal}
FMAT,2
INCH,TZ
T1C0.012
T2C0.039
T3C0.031
T4C0.087
%
G90
G05
M72
T1
X5.088Y-3.046
X5.088Y-3.21
X5.088Y-3.3745
X5.27Y-4.4156
X5.27Y-4.56
X5.27Y-4.64
X5.27Y-4.935
X5.275Y-3.0915
X5.276Y-2.9295
X5.276Y-3.2565
X5.44Y-4.085
X5.455Y-4.6
X5.47Y-5.09
X5.475Y-4.08
X5.475Y-4.535
X5.5075Y-4.083
X5.5318Y-4.04
X5.54Y-4.07
X5.55Y-4.655
X5.575Y-4.6014
X5.6002Y-3.9377
X5.61Y-3.975
X5.645Y-4.6785
X5.655Y-5.09
X5.735Y-3.71
X5.7471Y-4.6291
X5.77Y-3.5
X5.77Y-3.975
X5.7771Y-4.6291
X5.82Y-3.65
X5.915Y-4.75
T2
X6.0088Y-5.537
X6.0088Y-5.637
X6.0088Y-5.737
X6.0088Y-5.837
X6.0088Y-5.937
T3
X6.0266Y-3.8981
X6.0266Y-3.965
T4
X5.0551Y-1.9449
X5.0551Y-6.0472
X5.9528Y-1.9449
X5.9528Y-6.0512
T0
M30
