M48
;DRILL file {KiCad 4.0.7-e1-6374~58~ubuntu16.04.1} date Tue Sep 12 09:30:46 2017
;FORMAT={-:-/ absolute / inch / decimal}
FMAT,2
INCH,TZ
T1C0.012
T2C0.028
T3C0.039
T4C0.043
%
G90
G05
M72
T1
X5.088Y-3.046
X5.088Y-3.21
X5.088Y-3.3745
X5.1775Y-3.89
X5.1775Y-4.5081
X5.1775Y-5.0025
X5.23Y-4.3175
X5.256Y-5.671
X5.275Y-3.0915
X5.276Y-2.9295
X5.276Y-3.2565
X5.3075Y-4.0075
X5.3475Y-4.0075
X5.395Y-5.5065
X5.424Y-5.506
X5.44Y-4.085
X5.454Y-5.5065
X5.455Y-4.6
X5.47Y-5.09
X5.475Y-4.08
X5.4755Y-5.485
X5.5075Y-4.083
X5.513Y-3.9745
X5.515Y-4.54
X5.526Y-5.6265
X5.5274Y-5.6546
X5.5318Y-4.04
X5.54Y-4.07
X5.545Y-3.1475
X5.55Y-4.655
X5.575Y-4.6014
X5.5925Y-4.145
X5.595Y-5.8175
X5.5975Y-3.705
X5.6002Y-3.9377
X5.61Y-3.975
X5.615Y-4.1675
X5.6375Y-3.745
X5.645Y-4.6785
X5.655Y-5.09
X5.675Y-4.0375
X5.695Y-3.3725
X5.6975Y-4.371
X5.7025Y-4.01
X5.705Y-3.0919
X5.712Y-4.3453
X5.735Y-3.71
X5.7471Y-4.6291
X5.77Y-3.5
X5.7771Y-4.6291
X5.803Y-5.319
X5.82Y-3.65
X5.83Y-4.4325
X5.849Y-3.89
X5.895Y-2.9525
X5.895Y-3.0325
X5.915Y-4.75
X5.9875Y-3.2825
T2
X5.4195Y-5.906
X5.6105Y-5.906
T3
X5.48Y-2.9825
X5.48Y-3.0825
X5.485Y-2.785
X5.585Y-2.785
X5.685Y-2.785
X6.0088Y-5.537
X6.0088Y-5.637
X6.0088Y-5.737
X6.0088Y-5.837
X6.0088Y-5.937
X6.009Y-5.185
X6.009Y-5.285
X6.009Y-5.385
T4
X5.3723Y-6.0103G85X5.3723Y-6.0103
G05
X5.6577Y-6.0103G85X5.6577Y-6.0103
G05
T0
M30
