G04 #@! TF.FileFunction,Copper,L2,Bot,Signal*
%FSLAX46Y46*%
G04 Gerber Fmt 4.6, Leading zero omitted, Abs format (unit mm)*
G04 Created by KiCad (PCBNEW 4.0.7-e1-6374~58~ubuntu16.04.1) date Tue Sep 12 09:30:44 2017*
%MOMM*%
%LPD*%
G01*
G04 APERTURE LIST*
%ADD10C,0.100000*%
%ADD11R,1.700000X1.700000*%
%ADD12O,1.700000X1.700000*%
%ADD13C,1.200000*%
%ADD14C,1.700000*%
%ADD15C,0.500000*%
%ADD16C,0.254000*%
%ADD17C,0.381000*%
%ADD18C,0.203200*%
%ADD19C,0.253000*%
G04 APERTURE END LIST*
D10*
D11*
X25624000Y-23800000D03*
D12*
X25624000Y-21260000D03*
X25624000Y-18720000D03*
X25624000Y-16180000D03*
X25624000Y-13640000D03*
D11*
X12319000Y56261000D03*
D12*
X14859000Y56261000D03*
X17399000Y56261000D03*
D11*
X12192000Y48704500D03*
D12*
X12192000Y51244500D03*
D13*
X10656000Y-23011400D03*
X15506000Y-23011400D03*
D14*
X9456000Y-25661400D03*
X16706000Y-25661400D03*
D11*
X25628600Y-4699000D03*
D12*
X25628600Y-7239000D03*
X25628600Y-9779000D03*
D15*
X15176500Y32893000D03*
X16192500Y31877000D03*
X17843500Y25146000D03*
X17145000Y24447500D03*
X7810500Y25209500D03*
X8826500Y25209500D03*
X15621000Y21145500D03*
X15049500Y21717000D03*
X12077700Y-12319000D03*
X11531600Y-12865100D03*
X10769600Y-12852400D03*
X10033000Y-12865100D03*
X18975679Y9421817D03*
X19737679Y9421817D03*
X21564600Y28194000D03*
X4508500Y28194000D03*
X5842000Y17335500D03*
X4508500Y12495077D03*
X4508500Y-63500D03*
X2235200Y41287700D03*
X2235200Y45466000D03*
X2235200Y49631600D03*
X15494000Y26035000D03*
X11938000Y-2286000D03*
X16637000Y-2286000D03*
X15244663Y26982831D03*
X19558000Y38100000D03*
X23241000Y6350000D03*
X13508821Y24384000D03*
X18669000Y32766000D03*
X20828000Y34290000D03*
X13716000Y23622000D03*
X13081000Y11684000D03*
X11557000Y10160000D03*
X14605000Y10123574D03*
X16383000Y8165680D03*
X13970000Y8763000D03*
X25082500Y43624500D03*
X17653000Y41338500D03*
X13030200Y26047700D03*
X7010400Y44284900D03*
X11176000Y23241000D03*
X6985000Y48475900D03*
X12065000Y23368000D03*
X17716500Y15976600D03*
X13360400Y-15913100D03*
X13395245Y-16626941D03*
X18084187Y16628907D03*
X7010400Y52590700D03*
X12890500Y23291800D03*
X20396200Y-8102600D03*
X6502400Y-17043400D03*
X21082000Y14414431D03*
X15113000Y-20764500D03*
X17907000Y48465500D03*
X22733000Y49974500D03*
X13843000Y47053500D03*
X22733000Y52006500D03*
D16*
X16192500Y31877000D02*
X15176500Y32893000D01*
X17145000Y24447500D02*
X17843500Y25146000D01*
X8826500Y25209500D02*
X7810500Y25209500D01*
X15049500Y21717000D02*
X15621000Y21145500D01*
X11531600Y-12865100D02*
X12077700Y-12319000D01*
X10033000Y-12865100D02*
X10756900Y-12865100D01*
X10756900Y-12865100D02*
X10769600Y-12852400D01*
X19737679Y9421817D02*
X18975679Y9421817D01*
D17*
X5842000Y17335500D02*
X9080500Y17335500D01*
X9080500Y17335500D02*
X9348923Y17335500D01*
X15494000Y23480577D02*
X16383000Y22591577D01*
X16383000Y22591577D02*
X16383000Y21030006D01*
X16383000Y21030006D02*
X12688494Y17335500D01*
X12688494Y17335500D02*
X9080500Y17335500D01*
X4127500Y39395400D02*
X2485199Y41037701D01*
X4508500Y28194000D02*
X4508500Y39014400D01*
X4508500Y39014400D02*
X4127500Y39395400D01*
X2485199Y41037701D02*
X2235200Y41287700D01*
X4508500Y17335500D02*
X5842000Y17335500D01*
X4508500Y17335500D02*
X4508500Y28194000D01*
X4508500Y12495077D02*
X4508500Y17335500D01*
D16*
X12319000Y56261000D02*
X8864600Y56261000D01*
X8864600Y56261000D02*
X2235200Y49631600D01*
D17*
X4508500Y11176000D02*
X4508500Y12495077D01*
X4508500Y9144000D02*
X4508500Y-63500D01*
X4508500Y-63500D02*
X6731000Y-2286000D01*
X6731000Y-2286000D02*
X11938000Y-2286000D01*
X23241000Y6350000D02*
X22733000Y5842000D01*
X22733000Y5842000D02*
X22733000Y3810000D01*
X22733000Y3810000D02*
X16637000Y-2286000D01*
X21564600Y36093400D02*
X21564600Y28194000D01*
X19558000Y26035000D02*
X21564600Y28041600D01*
X21564600Y28041600D02*
X21564600Y28194000D01*
X15494000Y26035000D02*
X19558000Y26035000D01*
X15494000Y23480577D02*
X15494000Y26035000D01*
X19558000Y38100000D02*
X21564600Y36093400D01*
D16*
X2235200Y45466000D02*
X2235200Y41287700D01*
X2235200Y49631600D02*
X2235200Y45466000D01*
D17*
X11938000Y-2286000D02*
X16637000Y-2286000D01*
X4508500Y9144000D02*
X4508500Y11176000D01*
D16*
X13508821Y24384000D02*
X14715262Y25590441D01*
X14715262Y25590441D02*
X14715262Y28812262D01*
X14715262Y28812262D02*
X14846300Y28943300D01*
X14846300Y28943300D02*
X18669000Y32766000D01*
X13483410Y24409411D02*
X13508821Y24384000D01*
X20828000Y34290000D02*
X19431000Y34290000D01*
X13363650Y23622000D02*
X13716000Y23622000D01*
X19431000Y34290000D02*
X14308852Y29167852D01*
X14308852Y29167852D02*
X14308852Y25967545D01*
X14308852Y25967545D02*
X12979411Y24638104D01*
X12979411Y24638104D02*
X12979411Y24006239D01*
X12979411Y24006239D02*
X13363650Y23622000D01*
X14605000Y10123574D02*
X14605000Y10160000D01*
X14605000Y10160000D02*
X13081000Y11684000D01*
D18*
X13335000Y10123574D02*
X11593426Y10123574D01*
X14605000Y10123574D02*
X13335000Y10123574D01*
X13335000Y10123574D02*
X13335000Y10541000D01*
X11593426Y10123574D02*
X11557000Y10160000D01*
D16*
X16383000Y8165680D02*
X14567320Y8165680D01*
X14567320Y8165680D02*
X13970000Y8763000D01*
X25082500Y50440514D02*
X25082500Y43624500D01*
X17399000Y56261000D02*
X19262014Y56261000D01*
X19262014Y56261000D02*
X25082500Y50440514D01*
X12877820Y36322000D02*
X12877820Y26289000D01*
X17653000Y41338500D02*
X17299447Y41338500D01*
X17299447Y41338500D02*
X12877820Y36916873D01*
X12877820Y36916873D02*
X12877820Y36322000D01*
X13030200Y26047700D02*
X12877820Y26200080D01*
X12877820Y26200080D02*
X12877820Y26289000D01*
X11658590Y23710890D02*
X11658590Y39636710D01*
X11658590Y39636710D02*
X11544300Y39751000D01*
X11544300Y23609300D02*
X11557000Y23609300D01*
X11557000Y23609300D02*
X11658590Y23710890D01*
X11544300Y39751000D02*
X7010400Y44284900D01*
X11176000Y23241000D02*
X11544300Y23609300D01*
X12065000Y23368000D02*
X12065000Y39805050D01*
X12065000Y39805050D02*
X7708900Y44161150D01*
X7708900Y44161150D02*
X7708900Y47752000D01*
X7708900Y47752000D02*
X7556500Y47904400D01*
X7556500Y47904400D02*
X6985000Y48475900D01*
X26009600Y8128744D02*
X26009600Y1651000D01*
X21793200Y-7489114D02*
X21793200Y-2565400D01*
X21793200Y-2565400D02*
X26009600Y1651000D01*
X13360400Y-15913100D02*
X16243300Y-13030200D01*
X16243300Y-13030200D02*
X16252114Y-13030200D01*
X16252114Y-13030200D02*
X21793200Y-7489114D01*
X17716500Y15976600D02*
X18161744Y15976600D01*
X18161744Y15976600D02*
X26009600Y8128744D01*
X26416009Y1482659D02*
X22199610Y-2733740D01*
X22199610Y-2733740D02*
X22199610Y-7822576D01*
X22199610Y-7822576D02*
X13645244Y-16376942D01*
X13645244Y-16376942D02*
X13395245Y-16626941D01*
X26416010Y1803400D02*
X26416010Y8297084D01*
X26416010Y1803400D02*
X26416009Y1482659D01*
X26416010Y8297084D02*
X19431000Y15282094D01*
X19431000Y15282094D02*
X18084187Y16628907D01*
X7010400Y52590700D02*
X8128000Y51473100D01*
X8128000Y51473100D02*
X8128000Y44348400D01*
X8128000Y44348400D02*
X12471410Y40004990D01*
X12471410Y40004990D02*
X12471410Y23710890D01*
X12471410Y23710890D02*
X12890500Y23291800D01*
D17*
X20396200Y-8102600D02*
X20042647Y-8102600D01*
X11101847Y-17043400D02*
X6855953Y-17043400D01*
X20042647Y-8102600D02*
X11101847Y-17043400D01*
X6855953Y-17043400D02*
X6502400Y-17043400D01*
D16*
X26822420Y8674011D02*
X26822420Y1701800D01*
X26822420Y1701800D02*
X26822418Y1314319D01*
X26822418Y1314319D02*
X22606020Y-2902079D01*
X22606020Y-2902079D02*
X22606020Y-8000980D01*
X22606020Y-8000980D02*
X15113000Y-15494000D01*
X21082000Y14414431D02*
X26822420Y8674011D01*
X15113000Y-15494000D02*
X15113000Y-20764500D01*
X22733000Y49974500D02*
X21224000Y48465500D01*
X21224000Y48465500D02*
X17907000Y48465500D01*
X22733000Y52006500D02*
X18796000Y52006500D01*
X18796000Y52006500D02*
X13843000Y47053500D01*
D19*
G36*
X499810Y58719611D02*
X299487Y58523440D01*
X141082Y58292096D01*
X30629Y58034390D01*
X-27665Y57760138D01*
X-31580Y57479787D01*
X19034Y57204014D01*
X122248Y56943325D01*
X274132Y56707648D01*
X468899Y56505960D01*
X699132Y56345944D01*
X956061Y56233695D01*
X1229899Y56173488D01*
X1510216Y56167616D01*
X1786335Y56216303D01*
X2047739Y56317695D01*
X2284470Y56467930D01*
X2487513Y56661284D01*
X2649132Y56890394D01*
X2763172Y57146533D01*
X2825290Y57419944D01*
X2829762Y57740189D01*
X2775302Y58015228D01*
X2668458Y58274451D01*
X2513299Y58507985D01*
X2315735Y58706933D01*
X2211412Y58777300D01*
X23387968Y58777300D01*
X23299810Y58719611D01*
X23099487Y58523440D01*
X22941082Y58292096D01*
X22830629Y58034390D01*
X22772335Y57760138D01*
X22768420Y57479787D01*
X22819034Y57204014D01*
X22922248Y56943325D01*
X23074132Y56707648D01*
X23268899Y56505960D01*
X23499132Y56345944D01*
X23756061Y56233695D01*
X24029899Y56173488D01*
X24310216Y56167616D01*
X24586335Y56216303D01*
X24847739Y56317695D01*
X25084470Y56467930D01*
X25287513Y56661284D01*
X25449132Y56890394D01*
X25563172Y57146533D01*
X25625290Y57419944D01*
X25629762Y57740189D01*
X25575302Y58015228D01*
X25468458Y58274451D01*
X25313299Y58507985D01*
X25115735Y58706933D01*
X25011412Y58777300D01*
X27090821Y58777300D01*
X27093382Y9048921D01*
X21659428Y14482875D01*
X21639643Y14582793D01*
X21596321Y14687901D01*
X21533409Y14782591D01*
X21453303Y14863259D01*
X21359053Y14926831D01*
X21254251Y14970885D01*
X21142888Y14993745D01*
X21029206Y14994539D01*
X20917535Y14973236D01*
X20812128Y14930649D01*
X20717000Y14868399D01*
X20635775Y14788858D01*
X20609086Y14749880D01*
X18661615Y16697351D01*
X18641830Y16797269D01*
X18598508Y16902377D01*
X18535596Y16997067D01*
X18455490Y17077735D01*
X18361240Y17141307D01*
X18256438Y17185361D01*
X18145075Y17208221D01*
X18031393Y17209015D01*
X17919722Y17187712D01*
X17814315Y17145125D01*
X17719187Y17082875D01*
X17637962Y17003334D01*
X17573734Y16909531D01*
X17528949Y16805039D01*
X17505312Y16693838D01*
X17503725Y16580164D01*
X17514708Y16520324D01*
X17446628Y16492818D01*
X17351500Y16430568D01*
X17270275Y16351027D01*
X17206047Y16257224D01*
X17161262Y16152732D01*
X17137625Y16041531D01*
X17136038Y15927857D01*
X17156560Y15816040D01*
X17198411Y15710338D01*
X17259995Y15614778D01*
X17338967Y15533000D01*
X17432319Y15468119D01*
X17536496Y15422605D01*
X17647529Y15398193D01*
X17761189Y15395812D01*
X17873147Y15415553D01*
X17979138Y15456664D01*
X18013807Y15478665D01*
X25552900Y7939573D01*
X25552900Y1840172D01*
X21470264Y-2242464D01*
X21443451Y-2275107D01*
X21416371Y-2307380D01*
X21415216Y-2309481D01*
X21413689Y-2311340D01*
X21393741Y-2348543D01*
X21373431Y-2385487D01*
X21372705Y-2387777D01*
X21371570Y-2389893D01*
X21359235Y-2430238D01*
X21346480Y-2470447D01*
X21346212Y-2472832D01*
X21345510Y-2475130D01*
X21341244Y-2517124D01*
X21336545Y-2559023D01*
X21336512Y-2563718D01*
X21336503Y-2563805D01*
X21336511Y-2563886D01*
X21336500Y-2565400D01*
X21336500Y-7299942D01*
X20869322Y-7767120D01*
X20847609Y-7734440D01*
X20767503Y-7653772D01*
X20673253Y-7590200D01*
X20568451Y-7546146D01*
X20457088Y-7523286D01*
X20343406Y-7522492D01*
X20231735Y-7543795D01*
X20136184Y-7582400D01*
X20042647Y-7582400D01*
X19994838Y-7587088D01*
X19946956Y-7591277D01*
X19944330Y-7592040D01*
X19941606Y-7592307D01*
X19895606Y-7606195D01*
X19849462Y-7619601D01*
X19847032Y-7620861D01*
X19844414Y-7621651D01*
X19801980Y-7644213D01*
X19759327Y-7666323D01*
X19757190Y-7668029D01*
X19754773Y-7669314D01*
X19717501Y-7699712D01*
X19679982Y-7729663D01*
X19676178Y-7733414D01*
X19676096Y-7733481D01*
X19676034Y-7733556D01*
X19674810Y-7734763D01*
X10886373Y-16523200D01*
X6760897Y-16523200D01*
X6674651Y-16486946D01*
X6563288Y-16464086D01*
X6449606Y-16463292D01*
X6337935Y-16484595D01*
X6232528Y-16527182D01*
X6137400Y-16589432D01*
X6056175Y-16668973D01*
X5991947Y-16762776D01*
X5947162Y-16867268D01*
X5923525Y-16978469D01*
X5921938Y-17092143D01*
X5942460Y-17203960D01*
X5984311Y-17309662D01*
X6045895Y-17405222D01*
X6124867Y-17487000D01*
X6218219Y-17551881D01*
X6322396Y-17597395D01*
X6433429Y-17621807D01*
X6547089Y-17624188D01*
X6659047Y-17604447D01*
X6764357Y-17563600D01*
X11101847Y-17563600D01*
X11149656Y-17558912D01*
X11197538Y-17554723D01*
X11200164Y-17553960D01*
X11202888Y-17553693D01*
X11248935Y-17539791D01*
X11295032Y-17526398D01*
X11297457Y-17525141D01*
X11300080Y-17524349D01*
X11342568Y-17501758D01*
X11385168Y-17479676D01*
X11387303Y-17477972D01*
X11389721Y-17476686D01*
X11426998Y-17446284D01*
X11464512Y-17416337D01*
X11468316Y-17412586D01*
X11468398Y-17412519D01*
X11468460Y-17412444D01*
X11469684Y-17411237D01*
X12802389Y-16078532D01*
X12842311Y-16179362D01*
X12903895Y-16274922D01*
X12921321Y-16292967D01*
X12884792Y-16346317D01*
X12840007Y-16450809D01*
X12816370Y-16562010D01*
X12814783Y-16675684D01*
X12835305Y-16787501D01*
X12877156Y-16893203D01*
X12938740Y-16988763D01*
X13017712Y-17070541D01*
X13111064Y-17135422D01*
X13215241Y-17180936D01*
X13326274Y-17205348D01*
X13439934Y-17207729D01*
X13551892Y-17187988D01*
X13657883Y-17146877D01*
X13753871Y-17085961D01*
X13836198Y-17007562D01*
X13901730Y-16914665D01*
X13947970Y-16810808D01*
X13973157Y-16699948D01*
X13973228Y-16694830D01*
X14656300Y-16011758D01*
X14656300Y-20405371D01*
X14602547Y-20483876D01*
X14557762Y-20588368D01*
X14534125Y-20699569D01*
X14532538Y-20813243D01*
X14553060Y-20925060D01*
X14594911Y-21030762D01*
X14656495Y-21126322D01*
X14735467Y-21208100D01*
X14828819Y-21272981D01*
X14932996Y-21318495D01*
X15044029Y-21342907D01*
X15157689Y-21345288D01*
X15269647Y-21325547D01*
X15375638Y-21284436D01*
X15427120Y-21251764D01*
X24438621Y-21251764D01*
X24459488Y-21481054D01*
X24524493Y-21701923D01*
X24631161Y-21905960D01*
X24775429Y-22085393D01*
X24951800Y-22233386D01*
X25153559Y-22344304D01*
X25373019Y-22413921D01*
X25601821Y-22439585D01*
X25618292Y-22439700D01*
X25629708Y-22439700D01*
X25858846Y-22417233D01*
X26079257Y-22350687D01*
X26282544Y-22242597D01*
X26460965Y-22097081D01*
X26607724Y-21919680D01*
X26717230Y-21717152D01*
X26785313Y-21497212D01*
X26809379Y-21268236D01*
X26788512Y-21038946D01*
X26723507Y-20818077D01*
X26616839Y-20614040D01*
X26472571Y-20434607D01*
X26296200Y-20286614D01*
X26094441Y-20175696D01*
X25874981Y-20106079D01*
X25646179Y-20080415D01*
X25629708Y-20080300D01*
X25618292Y-20080300D01*
X25389154Y-20102767D01*
X25168743Y-20169313D01*
X24965456Y-20277403D01*
X24787035Y-20422919D01*
X24640276Y-20600320D01*
X24530770Y-20802848D01*
X24462687Y-21022788D01*
X24438621Y-21251764D01*
X15427120Y-21251764D01*
X15471626Y-21223520D01*
X15553953Y-21145121D01*
X15619485Y-21052224D01*
X15665725Y-20948367D01*
X15690912Y-20837507D01*
X15692725Y-20707657D01*
X15670643Y-20596138D01*
X15627321Y-20491030D01*
X15569700Y-20404304D01*
X15569700Y-18711764D01*
X24438621Y-18711764D01*
X24459488Y-18941054D01*
X24524493Y-19161923D01*
X24631161Y-19365960D01*
X24775429Y-19545393D01*
X24951800Y-19693386D01*
X25153559Y-19804304D01*
X25373019Y-19873921D01*
X25601821Y-19899585D01*
X25618292Y-19899700D01*
X25629708Y-19899700D01*
X25858846Y-19877233D01*
X26079257Y-19810687D01*
X26282544Y-19702597D01*
X26460965Y-19557081D01*
X26607724Y-19379680D01*
X26717230Y-19177152D01*
X26785313Y-18957212D01*
X26809379Y-18728236D01*
X26788512Y-18498946D01*
X26723507Y-18278077D01*
X26616839Y-18074040D01*
X26472571Y-17894607D01*
X26296200Y-17746614D01*
X26094441Y-17635696D01*
X25874981Y-17566079D01*
X25646179Y-17540415D01*
X25629708Y-17540300D01*
X25618292Y-17540300D01*
X25389154Y-17562767D01*
X25168743Y-17629313D01*
X24965456Y-17737403D01*
X24787035Y-17882919D01*
X24640276Y-18060320D01*
X24530770Y-18262848D01*
X24462687Y-18482788D01*
X24438621Y-18711764D01*
X15569700Y-18711764D01*
X15569700Y-16171764D01*
X24438621Y-16171764D01*
X24459488Y-16401054D01*
X24524493Y-16621923D01*
X24631161Y-16825960D01*
X24775429Y-17005393D01*
X24951800Y-17153386D01*
X25153559Y-17264304D01*
X25373019Y-17333921D01*
X25601821Y-17359585D01*
X25618292Y-17359700D01*
X25629708Y-17359700D01*
X25858846Y-17337233D01*
X26079257Y-17270687D01*
X26282544Y-17162597D01*
X26460965Y-17017081D01*
X26607724Y-16839680D01*
X26717230Y-16637152D01*
X26785313Y-16417212D01*
X26809379Y-16188236D01*
X26788512Y-15958946D01*
X26723507Y-15738077D01*
X26616839Y-15534040D01*
X26472571Y-15354607D01*
X26296200Y-15206614D01*
X26094441Y-15095696D01*
X25874981Y-15026079D01*
X25646179Y-15000415D01*
X25629708Y-15000300D01*
X25618292Y-15000300D01*
X25389154Y-15022767D01*
X25168743Y-15089313D01*
X24965456Y-15197403D01*
X24787035Y-15342919D01*
X24640276Y-15520320D01*
X24530770Y-15722848D01*
X24462687Y-15942788D01*
X24438621Y-16171764D01*
X15569700Y-16171764D01*
X15569700Y-15683172D01*
X17621107Y-13631764D01*
X24438621Y-13631764D01*
X24459488Y-13861054D01*
X24524493Y-14081923D01*
X24631161Y-14285960D01*
X24775429Y-14465393D01*
X24951800Y-14613386D01*
X25153559Y-14724304D01*
X25373019Y-14793921D01*
X25601821Y-14819585D01*
X25618292Y-14819700D01*
X25629708Y-14819700D01*
X25858846Y-14797233D01*
X26079257Y-14730687D01*
X26282544Y-14622597D01*
X26460965Y-14477081D01*
X26607724Y-14299680D01*
X26717230Y-14097152D01*
X26785313Y-13877212D01*
X26809379Y-13648236D01*
X26788512Y-13418946D01*
X26723507Y-13198077D01*
X26616839Y-12994040D01*
X26472571Y-12814607D01*
X26296200Y-12666614D01*
X26094441Y-12555696D01*
X25874981Y-12486079D01*
X25646179Y-12460415D01*
X25629708Y-12460300D01*
X25618292Y-12460300D01*
X25389154Y-12482767D01*
X25168743Y-12549313D01*
X24965456Y-12657403D01*
X24787035Y-12802919D01*
X24640276Y-12980320D01*
X24530770Y-13182848D01*
X24462687Y-13402788D01*
X24438621Y-13631764D01*
X17621107Y-13631764D01*
X21280885Y-9971986D01*
X24413328Y-9971986D01*
X24431982Y-10065768D01*
X24510920Y-10293706D01*
X24632810Y-10501865D01*
X24792968Y-10682244D01*
X24985239Y-10827912D01*
X25202234Y-10933271D01*
X25435614Y-10994272D01*
X25628100Y-10914375D01*
X25628100Y-9779500D01*
X25629100Y-9779500D01*
X25629100Y-10914375D01*
X25821586Y-10994272D01*
X26054966Y-10933271D01*
X26271961Y-10827912D01*
X26464232Y-10682244D01*
X26624390Y-10501865D01*
X26746280Y-10293706D01*
X26825218Y-10065768D01*
X26843872Y-9971986D01*
X26763975Y-9779500D01*
X25629100Y-9779500D01*
X25628100Y-9779500D01*
X24493225Y-9779500D01*
X24413328Y-9971986D01*
X21280885Y-9971986D01*
X21666857Y-9586014D01*
X24413328Y-9586014D01*
X24493225Y-9778500D01*
X25628100Y-9778500D01*
X25628100Y-8643625D01*
X25629100Y-8643625D01*
X25629100Y-9778500D01*
X26763975Y-9778500D01*
X26843872Y-9586014D01*
X26825218Y-9492232D01*
X26746280Y-9264294D01*
X26624390Y-9056135D01*
X26464232Y-8875756D01*
X26271961Y-8730088D01*
X26054966Y-8624729D01*
X25821586Y-8563728D01*
X25629100Y-8643625D01*
X25628100Y-8643625D01*
X25435614Y-8563728D01*
X25202234Y-8624729D01*
X24985239Y-8730088D01*
X24792968Y-8875756D01*
X24632810Y-9056135D01*
X24510920Y-9264294D01*
X24431982Y-9492232D01*
X24413328Y-9586014D01*
X21666857Y-9586014D01*
X22928956Y-8323915D01*
X22955749Y-8291297D01*
X22982849Y-8259000D01*
X22984004Y-8256899D01*
X22985531Y-8255040D01*
X23005479Y-8217837D01*
X23025789Y-8180893D01*
X23026515Y-8178603D01*
X23027650Y-8176487D01*
X23039985Y-8136142D01*
X23052740Y-8095933D01*
X23053008Y-8093548D01*
X23053710Y-8091250D01*
X23057975Y-8049260D01*
X23062675Y-8007357D01*
X23062708Y-8002661D01*
X23062717Y-8002574D01*
X23062709Y-8002489D01*
X23062720Y-8000980D01*
X23062720Y-7230764D01*
X24443221Y-7230764D01*
X24464088Y-7460054D01*
X24529093Y-7680923D01*
X24635761Y-7884960D01*
X24780029Y-8064393D01*
X24956400Y-8212386D01*
X25158159Y-8323304D01*
X25377619Y-8392921D01*
X25606421Y-8418585D01*
X25622892Y-8418700D01*
X25634308Y-8418700D01*
X25863446Y-8396233D01*
X26083857Y-8329687D01*
X26287144Y-8221597D01*
X26465565Y-8076081D01*
X26612324Y-7898680D01*
X26721830Y-7696152D01*
X26789913Y-7476212D01*
X26813979Y-7247236D01*
X26793112Y-7017946D01*
X26728107Y-6797077D01*
X26621439Y-6593040D01*
X26477171Y-6413607D01*
X26300800Y-6265614D01*
X26099041Y-6154696D01*
X25879581Y-6085079D01*
X25650779Y-6059415D01*
X25634308Y-6059300D01*
X25622892Y-6059300D01*
X25393754Y-6081767D01*
X25173343Y-6148313D01*
X24970056Y-6256403D01*
X24791635Y-6401919D01*
X24644876Y-6579320D01*
X24535370Y-6781848D01*
X24467287Y-7001788D01*
X24443221Y-7230764D01*
X23062720Y-7230764D01*
X23062720Y-3849000D01*
X24447305Y-3849000D01*
X24447305Y-5549000D01*
X24451492Y-5601503D01*
X24479069Y-5690555D01*
X24530364Y-5768398D01*
X24601315Y-5828869D01*
X24686303Y-5867179D01*
X24778600Y-5880295D01*
X26478600Y-5880295D01*
X26531103Y-5876108D01*
X26620155Y-5848531D01*
X26697998Y-5797236D01*
X26758469Y-5726285D01*
X26796779Y-5641297D01*
X26809895Y-5549000D01*
X26809895Y-3849000D01*
X26805708Y-3796497D01*
X26778131Y-3707445D01*
X26726836Y-3629602D01*
X26655885Y-3569131D01*
X26570897Y-3530821D01*
X26478600Y-3517705D01*
X24778600Y-3517705D01*
X24726097Y-3521892D01*
X24637045Y-3549469D01*
X24559202Y-3600764D01*
X24498731Y-3671715D01*
X24460421Y-3756703D01*
X24447305Y-3849000D01*
X23062720Y-3849000D01*
X23062720Y-3091251D01*
X27093800Y939829D01*
X27095279Y-27789385D01*
X25128863Y-27789796D01*
X25287513Y-27638716D01*
X25449132Y-27409606D01*
X25563172Y-27153467D01*
X25625290Y-26880056D01*
X25629762Y-26559811D01*
X25575302Y-26284772D01*
X25468458Y-26025549D01*
X25313299Y-25792015D01*
X25115735Y-25593067D01*
X24883290Y-25436281D01*
X24624820Y-25327630D01*
X24350167Y-25271252D01*
X24069796Y-25269295D01*
X23794383Y-25321832D01*
X23534421Y-25426864D01*
X23299810Y-25580389D01*
X23099487Y-25776560D01*
X22941082Y-26007904D01*
X22830629Y-26265610D01*
X22772335Y-26539862D01*
X22768420Y-26820213D01*
X22819034Y-27095986D01*
X22922248Y-27356675D01*
X23074132Y-27592352D01*
X23265177Y-27790185D01*
X2185952Y-27794592D01*
X2284470Y-27732070D01*
X2487513Y-27538716D01*
X2649132Y-27309606D01*
X2763172Y-27053467D01*
X2825290Y-26780056D01*
X2829762Y-26459811D01*
X2775302Y-26184772D01*
X2668458Y-25925549D01*
X2558862Y-25760592D01*
X8274749Y-25760592D01*
X8316513Y-25988143D01*
X8401679Y-26203248D01*
X8527004Y-26397714D01*
X8687713Y-26564134D01*
X8877687Y-26696169D01*
X9089689Y-26788790D01*
X9315643Y-26838469D01*
X9546943Y-26843314D01*
X9774780Y-26803141D01*
X9990474Y-26719478D01*
X10185810Y-26595514D01*
X10353348Y-26435970D01*
X10486706Y-26246923D01*
X10580805Y-26035573D01*
X10632061Y-25809971D01*
X10632750Y-25760592D01*
X15524749Y-25760592D01*
X15566513Y-25988143D01*
X15651679Y-26203248D01*
X15777004Y-26397714D01*
X15937713Y-26564134D01*
X16127687Y-26696169D01*
X16339689Y-26788790D01*
X16565643Y-26838469D01*
X16796943Y-26843314D01*
X17024780Y-26803141D01*
X17240474Y-26719478D01*
X17435810Y-26595514D01*
X17603348Y-26435970D01*
X17736706Y-26246923D01*
X17830805Y-26035573D01*
X17882061Y-25809971D01*
X17885751Y-25545724D01*
X17840814Y-25318779D01*
X17752653Y-25104885D01*
X17624625Y-24912187D01*
X17461607Y-24748027D01*
X17269809Y-24618658D01*
X17056535Y-24529005D01*
X16829909Y-24482486D01*
X16598563Y-24480871D01*
X16371310Y-24524222D01*
X16156805Y-24610887D01*
X15963219Y-24737567D01*
X15797925Y-24899434D01*
X15667219Y-25090325D01*
X15576080Y-25302968D01*
X15527980Y-25529264D01*
X15524749Y-25760592D01*
X10632750Y-25760592D01*
X10635751Y-25545724D01*
X10590814Y-25318779D01*
X10502653Y-25104885D01*
X10374625Y-24912187D01*
X10211607Y-24748027D01*
X10019809Y-24618658D01*
X9806535Y-24529005D01*
X9579909Y-24482486D01*
X9348563Y-24480871D01*
X9121310Y-24524222D01*
X8906805Y-24610887D01*
X8713219Y-24737567D01*
X8547925Y-24899434D01*
X8417219Y-25090325D01*
X8326080Y-25302968D01*
X8277980Y-25529264D01*
X8274749Y-25760592D01*
X2558862Y-25760592D01*
X2513299Y-25692015D01*
X2315735Y-25493067D01*
X2083290Y-25336281D01*
X1824820Y-25227630D01*
X1550167Y-25171252D01*
X1269796Y-25169295D01*
X994383Y-25221832D01*
X734421Y-25326864D01*
X499810Y-25480389D01*
X299487Y-25676560D01*
X141082Y-25907904D01*
X30629Y-26165610D01*
X-27665Y-26439862D01*
X-31580Y-26720213D01*
X19034Y-26995986D01*
X122248Y-27256675D01*
X274132Y-27492352D01*
X468899Y-27694040D01*
X614047Y-27794921D01*
X-795330Y-27795215D01*
X-795680Y-23089572D01*
X9725078Y-23089572D01*
X9757991Y-23268900D01*
X9825109Y-23438420D01*
X9923875Y-23591675D01*
X10050528Y-23722828D01*
X10200242Y-23826882D01*
X10367317Y-23899875D01*
X10545387Y-23939026D01*
X10727671Y-23942845D01*
X10907224Y-23911185D01*
X11077209Y-23845252D01*
X11231150Y-23747558D01*
X11363183Y-23621824D01*
X11468280Y-23472840D01*
X11542438Y-23306279D01*
X11582832Y-23128486D01*
X11583375Y-23089572D01*
X14575078Y-23089572D01*
X14607991Y-23268900D01*
X14675109Y-23438420D01*
X14773875Y-23591675D01*
X14900528Y-23722828D01*
X15050242Y-23826882D01*
X15217317Y-23899875D01*
X15395387Y-23939026D01*
X15577671Y-23942845D01*
X15757224Y-23911185D01*
X15797339Y-23895625D01*
X24393500Y-23895625D01*
X24393500Y-24687476D01*
X24408122Y-24760988D01*
X24436805Y-24830234D01*
X24478446Y-24892555D01*
X24531445Y-24945554D01*
X24593766Y-24987195D01*
X24663012Y-25015878D01*
X24736524Y-25030500D01*
X25528375Y-25030500D01*
X25623500Y-24935375D01*
X25623500Y-23800500D01*
X25624500Y-23800500D01*
X25624500Y-24935375D01*
X25719625Y-25030500D01*
X26511476Y-25030500D01*
X26584988Y-25015878D01*
X26654234Y-24987195D01*
X26716555Y-24945554D01*
X26769554Y-24892555D01*
X26811195Y-24830234D01*
X26839878Y-24760988D01*
X26854500Y-24687476D01*
X26854500Y-23895625D01*
X26759375Y-23800500D01*
X25624500Y-23800500D01*
X25623500Y-23800500D01*
X24488625Y-23800500D01*
X24393500Y-23895625D01*
X15797339Y-23895625D01*
X15927209Y-23845252D01*
X16081150Y-23747558D01*
X16213183Y-23621824D01*
X16318280Y-23472840D01*
X16392438Y-23306279D01*
X16432832Y-23128486D01*
X16435739Y-22920238D01*
X16434212Y-22912524D01*
X24393500Y-22912524D01*
X24393500Y-23704375D01*
X24488625Y-23799500D01*
X25623500Y-23799500D01*
X25623500Y-22664625D01*
X25624500Y-22664625D01*
X25624500Y-23799500D01*
X26759375Y-23799500D01*
X26854500Y-23704375D01*
X26854500Y-22912524D01*
X26839878Y-22839012D01*
X26811195Y-22769766D01*
X26769554Y-22707445D01*
X26716555Y-22654446D01*
X26654234Y-22612805D01*
X26584988Y-22584122D01*
X26511476Y-22569500D01*
X25719625Y-22569500D01*
X25624500Y-22664625D01*
X25623500Y-22664625D01*
X25528375Y-22569500D01*
X24736524Y-22569500D01*
X24663012Y-22584122D01*
X24593766Y-22612805D01*
X24531445Y-22654446D01*
X24478446Y-22707445D01*
X24436805Y-22769766D01*
X24408122Y-22839012D01*
X24393500Y-22912524D01*
X16434212Y-22912524D01*
X16400326Y-22741387D01*
X16330848Y-22572821D01*
X16229952Y-22420959D01*
X16101480Y-22291588D01*
X15950327Y-22189634D01*
X15782250Y-22118981D01*
X15603650Y-22082320D01*
X15421331Y-22081047D01*
X15242237Y-22115211D01*
X15073190Y-22183510D01*
X14920628Y-22283344D01*
X14790363Y-22410909D01*
X14687356Y-22561347D01*
X14615531Y-22728927D01*
X14577624Y-22907266D01*
X14575078Y-23089572D01*
X11583375Y-23089572D01*
X11585739Y-22920238D01*
X11550326Y-22741387D01*
X11480848Y-22572821D01*
X11379952Y-22420959D01*
X11251480Y-22291588D01*
X11100327Y-22189634D01*
X10932250Y-22118981D01*
X10753650Y-22082320D01*
X10571331Y-22081047D01*
X10392237Y-22115211D01*
X10223190Y-22183510D01*
X10070628Y-22283344D01*
X9940363Y-22410909D01*
X9837356Y-22561347D01*
X9765531Y-22728927D01*
X9727624Y-22907266D01*
X9725078Y-23089572D01*
X-795680Y-23089572D01*
X-801086Y49582857D01*
X1654738Y49582857D01*
X1675260Y49471040D01*
X1717111Y49365338D01*
X1778500Y49270081D01*
X1778500Y45825129D01*
X1724747Y45746624D01*
X1679962Y45642132D01*
X1656325Y45530931D01*
X1654738Y45417257D01*
X1675260Y45305440D01*
X1717111Y45199738D01*
X1778500Y45104481D01*
X1778500Y41646829D01*
X1724747Y41568324D01*
X1679962Y41463832D01*
X1656325Y41352631D01*
X1654738Y41238957D01*
X1675260Y41127140D01*
X1717111Y41021438D01*
X1778695Y40925878D01*
X1857667Y40844100D01*
X1951019Y40779219D01*
X2052221Y40735005D01*
X3988300Y38798926D01*
X3988300Y28451882D01*
X3953262Y28370132D01*
X3929625Y28258931D01*
X3928038Y28145257D01*
X3948560Y28033440D01*
X3988300Y27933070D01*
X3988300Y12752959D01*
X3953262Y12671209D01*
X3929625Y12560008D01*
X3928038Y12446334D01*
X3948560Y12334517D01*
X3988300Y12234147D01*
X3988300Y194382D01*
X3953262Y112632D01*
X3929625Y1431D01*
X3928038Y-112243D01*
X3948560Y-224060D01*
X3990411Y-329762D01*
X4051995Y-425322D01*
X4130967Y-507100D01*
X4224319Y-571981D01*
X4325521Y-616195D01*
X6363163Y-2653837D01*
X6400308Y-2684348D01*
X6437104Y-2715224D01*
X6439498Y-2716540D01*
X6441615Y-2718279D01*
X6483989Y-2740999D01*
X6526071Y-2764134D01*
X6528679Y-2764961D01*
X6531090Y-2766254D01*
X6577059Y-2780308D01*
X6622844Y-2794832D01*
X6625560Y-2795137D01*
X6628178Y-2795937D01*
X6676024Y-2800797D01*
X6723737Y-2806149D01*
X6729081Y-2806187D01*
X6729184Y-2806197D01*
X6729280Y-2806188D01*
X6731000Y-2806200D01*
X11680643Y-2806200D01*
X11757996Y-2839995D01*
X11869029Y-2864407D01*
X11982689Y-2866788D01*
X12094647Y-2847047D01*
X12199957Y-2806200D01*
X16379643Y-2806200D01*
X16456996Y-2839995D01*
X16568029Y-2864407D01*
X16681689Y-2866788D01*
X16793647Y-2847047D01*
X16899638Y-2805936D01*
X16995626Y-2745020D01*
X17077953Y-2666621D01*
X17143485Y-2573724D01*
X17189725Y-2469867D01*
X17189995Y-2468679D01*
X23100837Y3442163D01*
X23131348Y3479308D01*
X23162224Y3516104D01*
X23163540Y3518498D01*
X23165279Y3520615D01*
X23187999Y3562989D01*
X23211134Y3605071D01*
X23211961Y3607679D01*
X23213254Y3610090D01*
X23227308Y3656059D01*
X23241832Y3701844D01*
X23242137Y3704560D01*
X23242937Y3707178D01*
X23247797Y3755024D01*
X23253149Y3802737D01*
X23253187Y3808081D01*
X23253197Y3808184D01*
X23253188Y3808280D01*
X23253200Y3810000D01*
X23253200Y5626526D01*
X23427020Y5800346D01*
X23503638Y5830064D01*
X23599626Y5890980D01*
X23681953Y5969379D01*
X23747485Y6062276D01*
X23793725Y6166133D01*
X23818912Y6276993D01*
X23820725Y6406843D01*
X23798643Y6518362D01*
X23755321Y6623470D01*
X23692409Y6718160D01*
X23612303Y6798828D01*
X23518053Y6862400D01*
X23413251Y6906454D01*
X23301888Y6929314D01*
X23188206Y6930108D01*
X23076535Y6908805D01*
X22971128Y6866218D01*
X22876000Y6803968D01*
X22794775Y6724427D01*
X22730547Y6630624D01*
X22688990Y6533664D01*
X22365163Y6209837D01*
X22334674Y6172719D01*
X22303776Y6135896D01*
X22302458Y6133498D01*
X22300722Y6131385D01*
X22278022Y6089050D01*
X22254866Y6046929D01*
X22254039Y6044321D01*
X22252746Y6041910D01*
X22238692Y5995941D01*
X22224168Y5950156D01*
X22223863Y5947440D01*
X22223063Y5944822D01*
X22218203Y5896976D01*
X22212851Y5849263D01*
X22212813Y5843919D01*
X22212803Y5843816D01*
X22212812Y5843720D01*
X22212800Y5842000D01*
X22212800Y4025474D01*
X16451722Y-1735604D01*
X16376984Y-1765800D01*
X12196497Y-1765800D01*
X12110251Y-1729546D01*
X11998888Y-1706686D01*
X11885206Y-1705892D01*
X11773535Y-1727195D01*
X11677984Y-1765800D01*
X6946474Y-1765800D01*
X5059363Y121311D01*
X5028700Y195706D01*
X5028700Y8714257D01*
X13389538Y8714257D01*
X13410060Y8602440D01*
X13451911Y8496738D01*
X13513495Y8401178D01*
X13592467Y8319400D01*
X13685819Y8254519D01*
X13789996Y8209005D01*
X13901029Y8184593D01*
X13902567Y8184561D01*
X14244384Y7842744D01*
X14277027Y7815931D01*
X14309300Y7788851D01*
X14311401Y7787696D01*
X14313260Y7786169D01*
X14350463Y7766221D01*
X14387407Y7745911D01*
X14389697Y7745185D01*
X14391813Y7744050D01*
X14432158Y7731715D01*
X14472367Y7718960D01*
X14474752Y7718692D01*
X14477050Y7717990D01*
X14519044Y7713724D01*
X14560943Y7709025D01*
X14565638Y7708992D01*
X14565725Y7708983D01*
X14565806Y7708991D01*
X14567320Y7708980D01*
X16024316Y7708980D01*
X16098819Y7657199D01*
X16202996Y7611685D01*
X16314029Y7587273D01*
X16427689Y7584892D01*
X16539647Y7604633D01*
X16645638Y7645744D01*
X16741626Y7706660D01*
X16823953Y7785059D01*
X16889485Y7877956D01*
X16935725Y7981813D01*
X16960912Y8092673D01*
X16962725Y8222523D01*
X16940643Y8334042D01*
X16897321Y8439150D01*
X16834409Y8533840D01*
X16754303Y8614508D01*
X16660053Y8678080D01*
X16555251Y8722134D01*
X16443888Y8744994D01*
X16330206Y8745788D01*
X16218535Y8724485D01*
X16113128Y8681898D01*
X16022175Y8622380D01*
X14756492Y8622380D01*
X14547428Y8831444D01*
X14527643Y8931362D01*
X14484321Y9036470D01*
X14421409Y9131160D01*
X14341303Y9211828D01*
X14247053Y9275400D01*
X14142251Y9319454D01*
X14030888Y9342314D01*
X13917206Y9343108D01*
X13805535Y9321805D01*
X13700128Y9279218D01*
X13605000Y9216968D01*
X13523775Y9137427D01*
X13459547Y9043624D01*
X13414762Y8939132D01*
X13391125Y8827931D01*
X13389538Y8714257D01*
X5028700Y8714257D01*
X5028700Y10111257D01*
X10976538Y10111257D01*
X10997060Y9999440D01*
X11038911Y9893738D01*
X11100495Y9798178D01*
X11179467Y9716400D01*
X11272819Y9651519D01*
X11376996Y9606005D01*
X11488029Y9581593D01*
X11601689Y9579212D01*
X11713647Y9598953D01*
X11819638Y9640064D01*
X11901908Y9692274D01*
X14215589Y9692274D01*
X14227467Y9679974D01*
X14320819Y9615093D01*
X14424996Y9569579D01*
X14536029Y9545167D01*
X14649689Y9542786D01*
X14761647Y9562527D01*
X14867638Y9603638D01*
X14963626Y9664554D01*
X15045953Y9742953D01*
X15111485Y9835850D01*
X15157725Y9939707D01*
X15182912Y10050567D01*
X15184725Y10180417D01*
X15162643Y10291936D01*
X15119321Y10397044D01*
X15056409Y10491734D01*
X14976303Y10572402D01*
X14882053Y10635974D01*
X14777251Y10680028D01*
X14718856Y10692015D01*
X13658428Y11752444D01*
X13638643Y11852362D01*
X13595321Y11957470D01*
X13532409Y12052160D01*
X13452303Y12132828D01*
X13358053Y12196400D01*
X13253251Y12240454D01*
X13141888Y12263314D01*
X13028206Y12264108D01*
X12916535Y12242805D01*
X12811128Y12200218D01*
X12716000Y12137968D01*
X12634775Y12058427D01*
X12570547Y11964624D01*
X12525762Y11860132D01*
X12502125Y11748931D01*
X12500538Y11635257D01*
X12521060Y11523440D01*
X12562911Y11417738D01*
X12624495Y11322178D01*
X12703467Y11240400D01*
X12796819Y11175519D01*
X12900996Y11130005D01*
X13012029Y11105593D01*
X13013567Y11105561D01*
X13177142Y10941986D01*
X13173432Y10940894D01*
X13098836Y10901896D01*
X13033235Y10849152D01*
X12979129Y10784670D01*
X12938577Y10710907D01*
X12913125Y10630672D01*
X12904623Y10554874D01*
X11981881Y10554874D01*
X11928303Y10608828D01*
X11834053Y10672400D01*
X11729251Y10716454D01*
X11617888Y10739314D01*
X11504206Y10740108D01*
X11392535Y10718805D01*
X11287128Y10676218D01*
X11192000Y10613968D01*
X11110775Y10534427D01*
X11046547Y10440624D01*
X11001762Y10336132D01*
X10978125Y10224931D01*
X10976538Y10111257D01*
X5028700Y10111257D01*
X5028700Y12238157D01*
X5061225Y12311210D01*
X5086412Y12422070D01*
X5088225Y12551920D01*
X5066143Y12663439D01*
X5028700Y12754283D01*
X5028700Y16815300D01*
X5584643Y16815300D01*
X5661996Y16781505D01*
X5773029Y16757093D01*
X5886689Y16754712D01*
X5998647Y16774453D01*
X6103957Y16815300D01*
X12688494Y16815300D01*
X12736303Y16819988D01*
X12784185Y16824177D01*
X12786811Y16824940D01*
X12789535Y16825207D01*
X12835582Y16839109D01*
X12881679Y16852502D01*
X12884104Y16853759D01*
X12886727Y16854551D01*
X12929215Y16877142D01*
X12971815Y16899224D01*
X12973950Y16900928D01*
X12976368Y16902214D01*
X13013645Y16932616D01*
X13051159Y16962563D01*
X13054963Y16966314D01*
X13055045Y16966381D01*
X13055107Y16966456D01*
X13056331Y16967663D01*
X16750837Y20662169D01*
X16781326Y20699287D01*
X16812224Y20736110D01*
X16813542Y20738508D01*
X16815278Y20740621D01*
X16837988Y20782975D01*
X16861134Y20825077D01*
X16861961Y20827683D01*
X16863254Y20830095D01*
X16877313Y20876079D01*
X16891832Y20921850D01*
X16892137Y20924566D01*
X16892937Y20927184D01*
X16897797Y20975030D01*
X16903149Y21022743D01*
X16903187Y21028087D01*
X16903197Y21028190D01*
X16903188Y21028286D01*
X16903200Y21030006D01*
X16903200Y22591577D01*
X16898512Y22639386D01*
X16894323Y22687268D01*
X16893560Y22689894D01*
X16893293Y22692618D01*
X16879405Y22738618D01*
X16865999Y22784762D01*
X16864739Y22787192D01*
X16863949Y22789810D01*
X16841376Y22832263D01*
X16819276Y22874898D01*
X16817572Y22877033D01*
X16816286Y22879451D01*
X16785884Y22916728D01*
X16755937Y22954242D01*
X16752186Y22958046D01*
X16752119Y22958128D01*
X16752044Y22958190D01*
X16750837Y22959414D01*
X16014200Y23696051D01*
X16014200Y25514800D01*
X19558000Y25514800D01*
X19605809Y25519488D01*
X19653691Y25523677D01*
X19656317Y25524440D01*
X19659041Y25524707D01*
X19705088Y25538609D01*
X19751185Y25552002D01*
X19753610Y25553259D01*
X19756233Y25554051D01*
X19798721Y25576642D01*
X19841321Y25598724D01*
X19843456Y25600428D01*
X19845874Y25601714D01*
X19883151Y25632116D01*
X19920665Y25662063D01*
X19924469Y25665814D01*
X19924551Y25665881D01*
X19924613Y25665956D01*
X19925837Y25667163D01*
X20486319Y26227645D01*
X25345641Y26227645D01*
X25371473Y26086894D01*
X25424152Y25953842D01*
X25501672Y25833555D01*
X25601078Y25730617D01*
X25718586Y25648946D01*
X25849719Y25591656D01*
X25989483Y25560927D01*
X26132553Y25557930D01*
X26273480Y25582779D01*
X26406897Y25634528D01*
X26527722Y25711206D01*
X26631352Y25809892D01*
X26713841Y25926827D01*
X26772045Y26057556D01*
X26803749Y26197102D01*
X26806032Y26360551D01*
X26778236Y26500927D01*
X26723705Y26633231D01*
X26644513Y26752423D01*
X26543679Y26853964D01*
X26425042Y26933986D01*
X26293122Y26989440D01*
X26152944Y27018214D01*
X26009845Y27019213D01*
X25869278Y26992399D01*
X25736597Y26938792D01*
X25616855Y26860435D01*
X25514612Y26760312D01*
X25433765Y26642237D01*
X25377391Y26510707D01*
X25347639Y26370732D01*
X25345641Y26227645D01*
X20486319Y26227645D01*
X21932437Y27673763D01*
X21962926Y27710881D01*
X21993824Y27747704D01*
X21995142Y27750102D01*
X21996878Y27752215D01*
X22019578Y27794550D01*
X22042734Y27836671D01*
X22043561Y27839279D01*
X22044854Y27841690D01*
X22058908Y27887659D01*
X22059690Y27890122D01*
X22071085Y27906276D01*
X22080599Y27927645D01*
X25345641Y27927645D01*
X25371473Y27786894D01*
X25424152Y27653842D01*
X25501672Y27533555D01*
X25601078Y27430617D01*
X25718586Y27348946D01*
X25849719Y27291656D01*
X25989483Y27260927D01*
X26132553Y27257930D01*
X26273480Y27282779D01*
X26406897Y27334528D01*
X26527722Y27411206D01*
X26631352Y27509892D01*
X26713841Y27626827D01*
X26772045Y27757556D01*
X26803749Y27897102D01*
X26806032Y28060551D01*
X26778236Y28200927D01*
X26723705Y28333231D01*
X26644513Y28452423D01*
X26543679Y28553964D01*
X26425042Y28633986D01*
X26293122Y28689440D01*
X26152944Y28718214D01*
X26009845Y28719213D01*
X25869278Y28692399D01*
X25736597Y28638792D01*
X25616855Y28560435D01*
X25514612Y28460312D01*
X25433765Y28342237D01*
X25377391Y28210707D01*
X25347639Y28070732D01*
X25345641Y27927645D01*
X22080599Y27927645D01*
X22117325Y28010133D01*
X22142512Y28120993D01*
X22144325Y28250843D01*
X22122243Y28362362D01*
X22084800Y28453206D01*
X22084800Y36093400D01*
X22080112Y36141209D01*
X22075923Y36189091D01*
X22075160Y36191717D01*
X22074893Y36194441D01*
X22061005Y36240441D01*
X22047599Y36286585D01*
X22046339Y36289015D01*
X22045549Y36291633D01*
X22022976Y36334086D01*
X22000876Y36376721D01*
X21999172Y36378856D01*
X21997886Y36381274D01*
X21967484Y36418551D01*
X21937537Y36456065D01*
X21933786Y36459869D01*
X21933719Y36459951D01*
X21933644Y36460013D01*
X21932437Y36461237D01*
X20108863Y38284811D01*
X20072321Y38373470D01*
X20009409Y38468160D01*
X19929303Y38548828D01*
X19835053Y38612400D01*
X19730251Y38656454D01*
X19618888Y38679314D01*
X19505206Y38680108D01*
X19393535Y38658805D01*
X19288128Y38616218D01*
X19193000Y38553968D01*
X19111775Y38474427D01*
X19047547Y38380624D01*
X19002762Y38276132D01*
X18979125Y38164931D01*
X18977538Y38051257D01*
X18998060Y37939440D01*
X19039911Y37833738D01*
X19101495Y37738178D01*
X19180467Y37656400D01*
X19273819Y37591519D01*
X19375021Y37547305D01*
X21044400Y35877926D01*
X21044400Y34827896D01*
X21000251Y34846454D01*
X20888888Y34869314D01*
X20775206Y34870108D01*
X20663535Y34848805D01*
X20558128Y34806218D01*
X20467175Y34746700D01*
X19431000Y34746700D01*
X19388997Y34742581D01*
X19346989Y34738906D01*
X19344685Y34738236D01*
X19342293Y34738002D01*
X19301884Y34725802D01*
X19261396Y34714039D01*
X19259265Y34712934D01*
X19256965Y34712240D01*
X19219726Y34692439D01*
X19182263Y34673021D01*
X19180385Y34671521D01*
X19178266Y34670395D01*
X19145587Y34643743D01*
X19112605Y34617413D01*
X19109258Y34614113D01*
X19109194Y34614061D01*
X19109145Y34614002D01*
X19108064Y34612936D01*
X13985916Y29490788D01*
X13959103Y29458145D01*
X13932023Y29425872D01*
X13930868Y29423771D01*
X13929341Y29421912D01*
X13909393Y29384709D01*
X13889083Y29347765D01*
X13888357Y29345475D01*
X13887222Y29343359D01*
X13874887Y29303014D01*
X13862132Y29262805D01*
X13861864Y29260420D01*
X13861162Y29258122D01*
X13856896Y29216128D01*
X13852197Y29174229D01*
X13852164Y29169534D01*
X13852155Y29169447D01*
X13852163Y29169366D01*
X13852152Y29167852D01*
X13852152Y26156716D01*
X13589880Y25894444D01*
X13608112Y25974693D01*
X13609925Y26104543D01*
X13587843Y26216062D01*
X13544521Y26321170D01*
X13481609Y26415860D01*
X13401503Y26496528D01*
X13334520Y26541708D01*
X13334520Y36727701D01*
X17416157Y40809338D01*
X17472996Y40784505D01*
X17584029Y40760093D01*
X17697689Y40757712D01*
X17809647Y40777453D01*
X17915638Y40818564D01*
X18011626Y40879480D01*
X18093953Y40957879D01*
X18159485Y41050776D01*
X18205725Y41154633D01*
X18230912Y41265493D01*
X18232725Y41395343D01*
X18210643Y41506862D01*
X18167321Y41611970D01*
X18104409Y41706660D01*
X18024303Y41787328D01*
X17930053Y41850900D01*
X17825251Y41894954D01*
X17713888Y41917814D01*
X17600206Y41918608D01*
X17488535Y41897305D01*
X17383128Y41854718D01*
X17290893Y41794361D01*
X17257444Y41791081D01*
X17215436Y41787406D01*
X17213132Y41786736D01*
X17210740Y41786502D01*
X17170331Y41774302D01*
X17129843Y41762539D01*
X17127712Y41761434D01*
X17125412Y41760740D01*
X17088173Y41740939D01*
X17050710Y41721521D01*
X17048832Y41720021D01*
X17046713Y41718895D01*
X17014034Y41692243D01*
X16981052Y41665913D01*
X16977705Y41662613D01*
X16977641Y41662561D01*
X16977592Y41662502D01*
X16976511Y41661436D01*
X12928110Y37613035D01*
X12928110Y40004990D01*
X12923991Y40046993D01*
X12920316Y40089001D01*
X12919646Y40091305D01*
X12919412Y40093697D01*
X12907212Y40134106D01*
X12895449Y40174594D01*
X12894344Y40176725D01*
X12893650Y40179025D01*
X12873828Y40216304D01*
X12854430Y40253727D01*
X12852933Y40255602D01*
X12851805Y40257724D01*
X12825130Y40290430D01*
X12798823Y40323385D01*
X12795527Y40326728D01*
X12795471Y40326796D01*
X12795408Y40326848D01*
X12794345Y40327926D01*
X8584700Y44537572D01*
X8584700Y47004757D01*
X13262538Y47004757D01*
X13283060Y46892940D01*
X13324911Y46787238D01*
X13386495Y46691678D01*
X13465467Y46609900D01*
X13558819Y46545019D01*
X13662996Y46499505D01*
X13774029Y46475093D01*
X13887689Y46472712D01*
X13999647Y46492453D01*
X14105638Y46533564D01*
X14201626Y46594480D01*
X14283953Y46672879D01*
X14349485Y46765776D01*
X14395725Y46869633D01*
X14420912Y46980493D01*
X14420983Y46985611D01*
X15852129Y48416757D01*
X17326538Y48416757D01*
X17347060Y48304940D01*
X17388911Y48199238D01*
X17450495Y48103678D01*
X17529467Y48021900D01*
X17622819Y47957019D01*
X17726996Y47911505D01*
X17838029Y47887093D01*
X17951689Y47884712D01*
X18063647Y47904453D01*
X18169638Y47945564D01*
X18265626Y48006480D01*
X18268062Y48008800D01*
X21224000Y48008800D01*
X21266003Y48012919D01*
X21308011Y48016594D01*
X21310315Y48017264D01*
X21312707Y48017498D01*
X21353116Y48029698D01*
X21393604Y48041461D01*
X21395735Y48042566D01*
X21398035Y48043260D01*
X21435274Y48063061D01*
X21472737Y48082479D01*
X21474615Y48083979D01*
X21476734Y48085105D01*
X21509413Y48111757D01*
X21542395Y48138087D01*
X21545742Y48141387D01*
X21545806Y48141439D01*
X21545855Y48141498D01*
X21546936Y48142564D01*
X22802449Y49398078D01*
X22889647Y49413453D01*
X22995638Y49454564D01*
X23091626Y49515480D01*
X23173953Y49593879D01*
X23239485Y49686776D01*
X23285725Y49790633D01*
X23310912Y49901493D01*
X23312725Y50031343D01*
X23290643Y50142862D01*
X23247321Y50247970D01*
X23184409Y50342660D01*
X23104303Y50423328D01*
X23010053Y50486900D01*
X22905251Y50530954D01*
X22793888Y50553814D01*
X22680206Y50554608D01*
X22568535Y50533305D01*
X22463128Y50490718D01*
X22368000Y50428468D01*
X22286775Y50348927D01*
X22222547Y50255124D01*
X22177762Y50150632D01*
X22154682Y50042054D01*
X21034828Y48922200D01*
X18266632Y48922200D01*
X18184053Y48977900D01*
X18079251Y49021954D01*
X17967888Y49044814D01*
X17854206Y49045608D01*
X17742535Y49024305D01*
X17637128Y48981718D01*
X17542000Y48919468D01*
X17460775Y48839927D01*
X17396547Y48746124D01*
X17351762Y48641632D01*
X17328125Y48530431D01*
X17326538Y48416757D01*
X15852129Y48416757D01*
X18985172Y51549800D01*
X22374316Y51549800D01*
X22448819Y51498019D01*
X22552996Y51452505D01*
X22664029Y51428093D01*
X22777689Y51425712D01*
X22889647Y51445453D01*
X22995638Y51486564D01*
X23091626Y51547480D01*
X23173953Y51625879D01*
X23205932Y51671211D01*
X24625800Y50251343D01*
X24625800Y43983629D01*
X24572047Y43905124D01*
X24527262Y43800632D01*
X24503625Y43689431D01*
X24502038Y43575757D01*
X24522560Y43463940D01*
X24564411Y43358238D01*
X24625995Y43262678D01*
X24704967Y43180900D01*
X24798319Y43116019D01*
X24902496Y43070505D01*
X25013529Y43046093D01*
X25127189Y43043712D01*
X25239147Y43063453D01*
X25345138Y43104564D01*
X25441126Y43165480D01*
X25523453Y43243879D01*
X25588985Y43336776D01*
X25635225Y43440633D01*
X25660412Y43551493D01*
X25662225Y43681343D01*
X25640143Y43792862D01*
X25596821Y43897970D01*
X25539200Y43984696D01*
X25539200Y50440514D01*
X25535081Y50482517D01*
X25531406Y50524525D01*
X25530736Y50526829D01*
X25530502Y50529221D01*
X25518302Y50569630D01*
X25506539Y50610118D01*
X25505434Y50612249D01*
X25504740Y50614549D01*
X25484918Y50651828D01*
X25465520Y50689251D01*
X25464023Y50691126D01*
X25462895Y50693248D01*
X25436220Y50725954D01*
X25409913Y50758909D01*
X25406617Y50762252D01*
X25406561Y50762320D01*
X25406498Y50762372D01*
X25405435Y50763450D01*
X19584950Y56583936D01*
X19552307Y56610749D01*
X19520034Y56637829D01*
X19517933Y56638984D01*
X19516074Y56640511D01*
X19478871Y56660459D01*
X19441927Y56680769D01*
X19439637Y56681495D01*
X19437521Y56682630D01*
X19397176Y56694965D01*
X19356967Y56707720D01*
X19354582Y56707988D01*
X19352284Y56708690D01*
X19310290Y56712956D01*
X19268391Y56717655D01*
X19263696Y56717688D01*
X19263609Y56717697D01*
X19263528Y56717689D01*
X19262014Y56717700D01*
X18488920Y56717700D01*
X18381597Y56919544D01*
X18236081Y57097965D01*
X18058680Y57244724D01*
X17856152Y57354230D01*
X17636212Y57422313D01*
X17407236Y57446379D01*
X17177946Y57425512D01*
X16957077Y57360507D01*
X16753040Y57253839D01*
X16573607Y57109571D01*
X16425614Y56933200D01*
X16314696Y56731441D01*
X16245079Y56511981D01*
X16219415Y56283179D01*
X16219300Y56266708D01*
X16219300Y56255292D01*
X16241767Y56026154D01*
X16308313Y55805743D01*
X16416403Y55602456D01*
X16561919Y55424035D01*
X16739320Y55277276D01*
X16941848Y55167770D01*
X17161788Y55099687D01*
X17390764Y55075621D01*
X17620054Y55096488D01*
X17840923Y55161493D01*
X18044960Y55268161D01*
X18224393Y55412429D01*
X18372386Y55588800D01*
X18483304Y55790559D01*
X18487663Y55804300D01*
X19072842Y55804300D01*
X22397422Y52479721D01*
X22372175Y52463200D01*
X18796000Y52463200D01*
X18753993Y52459081D01*
X18711990Y52455406D01*
X18709686Y52454737D01*
X18707293Y52454502D01*
X18666872Y52442298D01*
X18626396Y52430539D01*
X18624265Y52429434D01*
X18621965Y52428740D01*
X18584726Y52408939D01*
X18547263Y52389521D01*
X18545385Y52388022D01*
X18543266Y52386895D01*
X18510563Y52360223D01*
X18477606Y52333913D01*
X18474260Y52330615D01*
X18474194Y52330561D01*
X18474144Y52330500D01*
X18473064Y52329436D01*
X13774179Y47630551D01*
X13678535Y47612305D01*
X13573128Y47569718D01*
X13478000Y47507468D01*
X13396775Y47427927D01*
X13332547Y47334124D01*
X13287762Y47229632D01*
X13264125Y47118431D01*
X13262538Y47004757D01*
X8584700Y47004757D01*
X8584700Y49554500D01*
X11010705Y49554500D01*
X11010705Y47854500D01*
X11014892Y47801997D01*
X11042469Y47712945D01*
X11093764Y47635102D01*
X11164715Y47574631D01*
X11249703Y47536321D01*
X11342000Y47523205D01*
X13042000Y47523205D01*
X13094503Y47527392D01*
X13183555Y47554969D01*
X13261398Y47606264D01*
X13321869Y47677215D01*
X13360179Y47762203D01*
X13373295Y47854500D01*
X13373295Y49554500D01*
X13369108Y49607003D01*
X13341531Y49696055D01*
X13290236Y49773898D01*
X13219285Y49834369D01*
X13134297Y49872679D01*
X13042000Y49885795D01*
X11342000Y49885795D01*
X11289497Y49881608D01*
X11200445Y49854031D01*
X11122602Y49802736D01*
X11062131Y49731785D01*
X11023821Y49646797D01*
X11010705Y49554500D01*
X8584700Y49554500D01*
X8584700Y51252736D01*
X11006621Y51252736D01*
X11027488Y51023446D01*
X11092493Y50802577D01*
X11199161Y50598540D01*
X11343429Y50419107D01*
X11519800Y50271114D01*
X11721559Y50160196D01*
X11941019Y50090579D01*
X12169821Y50064915D01*
X12186292Y50064800D01*
X12197708Y50064800D01*
X12426846Y50087267D01*
X12647257Y50153813D01*
X12850544Y50261903D01*
X13028965Y50407419D01*
X13175724Y50584820D01*
X13285230Y50787348D01*
X13353313Y51007288D01*
X13377379Y51236264D01*
X13356512Y51465554D01*
X13291507Y51686423D01*
X13184839Y51890460D01*
X13040571Y52069893D01*
X12864200Y52217886D01*
X12662441Y52328804D01*
X12442981Y52398421D01*
X12214179Y52424085D01*
X12197708Y52424200D01*
X12186292Y52424200D01*
X11957154Y52401733D01*
X11736743Y52335187D01*
X11533456Y52227097D01*
X11355035Y52081581D01*
X11208276Y51904180D01*
X11098770Y51701652D01*
X11030687Y51481712D01*
X11006621Y51252736D01*
X8584700Y51252736D01*
X8584700Y51473100D01*
X8580581Y51515103D01*
X8576906Y51557111D01*
X8576236Y51559415D01*
X8576002Y51561807D01*
X8563802Y51602216D01*
X8552039Y51642704D01*
X8550934Y51644835D01*
X8550240Y51647135D01*
X8530439Y51684374D01*
X8511021Y51721837D01*
X8509521Y51723715D01*
X8508395Y51725834D01*
X8481743Y51758513D01*
X8455413Y51791495D01*
X8452113Y51794842D01*
X8452061Y51794906D01*
X8452002Y51794955D01*
X8450936Y51796036D01*
X7587828Y52659144D01*
X7568043Y52759062D01*
X7524721Y52864170D01*
X7461809Y52958860D01*
X7381703Y53039528D01*
X7287453Y53103100D01*
X7182651Y53147154D01*
X7071288Y53170014D01*
X6957606Y53170808D01*
X6845935Y53149505D01*
X6740528Y53106918D01*
X6645400Y53044668D01*
X6564175Y52965127D01*
X6499947Y52871324D01*
X6455162Y52766832D01*
X6431525Y52655631D01*
X6429938Y52541957D01*
X6450460Y52430140D01*
X6492311Y52324438D01*
X6553895Y52228878D01*
X6632867Y52147100D01*
X6726219Y52082219D01*
X6830396Y52036705D01*
X6941429Y52012293D01*
X6942967Y52012261D01*
X7671300Y51283928D01*
X7671300Y48435472D01*
X7562428Y48544344D01*
X7542643Y48644262D01*
X7499321Y48749370D01*
X7436409Y48844060D01*
X7356303Y48924728D01*
X7262053Y48988300D01*
X7157251Y49032354D01*
X7045888Y49055214D01*
X6932206Y49056008D01*
X6820535Y49034705D01*
X6715128Y48992118D01*
X6620000Y48929868D01*
X6538775Y48850327D01*
X6474547Y48756524D01*
X6429762Y48652032D01*
X6406125Y48540831D01*
X6404538Y48427157D01*
X6425060Y48315340D01*
X6466911Y48209638D01*
X6528495Y48114078D01*
X6607467Y48032300D01*
X6700819Y47967419D01*
X6804996Y47921905D01*
X6916029Y47897493D01*
X6917567Y47897461D01*
X7252200Y47562828D01*
X7252200Y44812119D01*
X7182651Y44841354D01*
X7071288Y44864214D01*
X6957606Y44865008D01*
X6845935Y44843705D01*
X6740528Y44801118D01*
X6645400Y44738868D01*
X6564175Y44659327D01*
X6499947Y44565524D01*
X6455162Y44461032D01*
X6431525Y44349831D01*
X6429938Y44236157D01*
X6450460Y44124340D01*
X6492311Y44018638D01*
X6553895Y43923078D01*
X6632867Y43841300D01*
X6726219Y43776419D01*
X6830396Y43730905D01*
X6941429Y43706493D01*
X6942967Y43706461D01*
X11201890Y39447538D01*
X11201890Y23912762D01*
X11107179Y23818051D01*
X11011535Y23799805D01*
X10906128Y23757218D01*
X10811000Y23694968D01*
X10729775Y23615427D01*
X10665547Y23521624D01*
X10620762Y23417132D01*
X10597125Y23305931D01*
X10595538Y23192257D01*
X10616060Y23080440D01*
X10657911Y22974738D01*
X10719495Y22879178D01*
X10798467Y22797400D01*
X10891819Y22732519D01*
X10995996Y22687005D01*
X11107029Y22662593D01*
X11220689Y22660212D01*
X11332647Y22679953D01*
X11438638Y22721064D01*
X11534626Y22781980D01*
X11616953Y22860379D01*
X11672817Y22939571D01*
X11687467Y22924400D01*
X11780819Y22859519D01*
X11884996Y22814005D01*
X11996029Y22789593D01*
X12109689Y22787212D01*
X12221647Y22806953D01*
X12327638Y22848064D01*
X12423626Y22908980D01*
X12439591Y22924183D01*
X12512967Y22848200D01*
X12606319Y22783319D01*
X12710496Y22737805D01*
X12821529Y22713393D01*
X12935189Y22711012D01*
X13047147Y22730753D01*
X13153138Y22771864D01*
X13249126Y22832780D01*
X13331453Y22911179D01*
X13396985Y23004076D01*
X13443225Y23107933D01*
X13443350Y23108481D01*
X13535996Y23068005D01*
X13647029Y23043593D01*
X13760689Y23041212D01*
X13872647Y23060953D01*
X13978638Y23102064D01*
X14074626Y23162980D01*
X14156953Y23241379D01*
X14222485Y23334276D01*
X14268725Y23438133D01*
X14293912Y23548993D01*
X14295725Y23678843D01*
X14273643Y23790362D01*
X14230321Y23895470D01*
X14167409Y23990160D01*
X14087303Y24070828D01*
X14023220Y24114052D01*
X14061546Y24200133D01*
X14086733Y24310993D01*
X14086804Y24316111D01*
X14973800Y25203107D01*
X14973800Y23480577D01*
X14978488Y23432768D01*
X14982677Y23384886D01*
X14983440Y23382260D01*
X14983707Y23379536D01*
X14997609Y23333489D01*
X15011002Y23287392D01*
X15012259Y23284967D01*
X15013051Y23282344D01*
X15035642Y23239856D01*
X15057724Y23197256D01*
X15059428Y23195121D01*
X15060714Y23192703D01*
X15091116Y23155426D01*
X15121063Y23117912D01*
X15124814Y23114108D01*
X15124881Y23114026D01*
X15124956Y23113964D01*
X15126163Y23112740D01*
X15862800Y22376103D01*
X15862800Y21245480D01*
X12473020Y17855700D01*
X6100497Y17855700D01*
X6014251Y17891954D01*
X5902888Y17914814D01*
X5789206Y17915608D01*
X5677535Y17894305D01*
X5581984Y17855700D01*
X5028700Y17855700D01*
X5028700Y27937080D01*
X5061225Y28010133D01*
X5086412Y28120993D01*
X5088225Y28250843D01*
X5066143Y28362362D01*
X5028700Y28453206D01*
X5028700Y39014400D01*
X5024013Y39062201D01*
X5019823Y39110092D01*
X5019060Y39112718D01*
X5018793Y39115441D01*
X5004894Y39161475D01*
X4991498Y39207585D01*
X4990241Y39210010D01*
X4989449Y39212633D01*
X4966858Y39255121D01*
X4944776Y39297721D01*
X4943072Y39299856D01*
X4941786Y39302274D01*
X4911359Y39339582D01*
X4881436Y39377065D01*
X4877687Y39380868D01*
X4877619Y39380951D01*
X4877542Y39381014D01*
X4876337Y39382237D01*
X2786063Y41472511D01*
X2749521Y41561170D01*
X2691900Y41647896D01*
X2691900Y45107702D01*
X2741685Y45178276D01*
X2787925Y45282133D01*
X2813112Y45392993D01*
X2814925Y45522843D01*
X2792843Y45634362D01*
X2749521Y45739470D01*
X2691900Y45826196D01*
X2691900Y49273302D01*
X2741685Y49343876D01*
X2787925Y49447733D01*
X2813112Y49558593D01*
X2813183Y49563712D01*
X9053771Y55804300D01*
X11137705Y55804300D01*
X11137705Y55411000D01*
X11141892Y55358497D01*
X11169469Y55269445D01*
X11220764Y55191602D01*
X11291715Y55131131D01*
X11376703Y55092821D01*
X11469000Y55079705D01*
X13169000Y55079705D01*
X13221503Y55083892D01*
X13310555Y55111469D01*
X13388398Y55162764D01*
X13448869Y55233715D01*
X13487179Y55318703D01*
X13500295Y55411000D01*
X13500295Y56068014D01*
X13643728Y56068014D01*
X13704729Y55834634D01*
X13810088Y55617639D01*
X13955756Y55425368D01*
X14136135Y55265210D01*
X14344294Y55143320D01*
X14572232Y55064382D01*
X14666014Y55045728D01*
X14858500Y55125625D01*
X14858500Y56260500D01*
X14859500Y56260500D01*
X14859500Y55125625D01*
X15051986Y55045728D01*
X15145768Y55064382D01*
X15373706Y55143320D01*
X15581865Y55265210D01*
X15762244Y55425368D01*
X15907912Y55617639D01*
X16013271Y55834634D01*
X16074272Y56068014D01*
X15994375Y56260500D01*
X14859500Y56260500D01*
X14858500Y56260500D01*
X13723625Y56260500D01*
X13643728Y56068014D01*
X13500295Y56068014D01*
X13500295Y56453986D01*
X13643728Y56453986D01*
X13723625Y56261500D01*
X14858500Y56261500D01*
X14858500Y57396375D01*
X14859500Y57396375D01*
X14859500Y56261500D01*
X15994375Y56261500D01*
X16074272Y56453986D01*
X16013271Y56687366D01*
X15907912Y56904361D01*
X15762244Y57096632D01*
X15581865Y57256790D01*
X15373706Y57378680D01*
X15145768Y57457618D01*
X15051986Y57476272D01*
X14859500Y57396375D01*
X14858500Y57396375D01*
X14666014Y57476272D01*
X14572232Y57457618D01*
X14344294Y57378680D01*
X14136135Y57256790D01*
X13955756Y57096632D01*
X13810088Y56904361D01*
X13704729Y56687366D01*
X13643728Y56453986D01*
X13500295Y56453986D01*
X13500295Y57111000D01*
X13496108Y57163503D01*
X13468531Y57252555D01*
X13417236Y57330398D01*
X13346285Y57390869D01*
X13261297Y57429179D01*
X13169000Y57442295D01*
X11469000Y57442295D01*
X11416497Y57438108D01*
X11327445Y57410531D01*
X11249602Y57359236D01*
X11189131Y57288285D01*
X11150821Y57203297D01*
X11137705Y57111000D01*
X11137705Y56717700D01*
X8864600Y56717700D01*
X8822597Y56713581D01*
X8780589Y56709906D01*
X8778285Y56709236D01*
X8775893Y56709002D01*
X8735484Y56696802D01*
X8694996Y56685039D01*
X8692865Y56683934D01*
X8690565Y56683240D01*
X8653286Y56663418D01*
X8615863Y56644020D01*
X8613988Y56642523D01*
X8611866Y56641395D01*
X8579160Y56614720D01*
X8546205Y56588413D01*
X8542862Y56585117D01*
X8542794Y56585061D01*
X8542742Y56584998D01*
X8541664Y56583935D01*
X2166379Y50208651D01*
X2070735Y50190405D01*
X1965328Y50147818D01*
X1870200Y50085568D01*
X1788975Y50006027D01*
X1724747Y49912224D01*
X1679962Y49807732D01*
X1656325Y49696531D01*
X1654738Y49582857D01*
X-801086Y49582857D01*
X-801770Y58777300D01*
X587968Y58777300D01*
X499810Y58719611D01*
X499810Y58719611D01*
G37*
X499810Y58719611D02*
X299487Y58523440D01*
X141082Y58292096D01*
X30629Y58034390D01*
X-27665Y57760138D01*
X-31580Y57479787D01*
X19034Y57204014D01*
X122248Y56943325D01*
X274132Y56707648D01*
X468899Y56505960D01*
X699132Y56345944D01*
X956061Y56233695D01*
X1229899Y56173488D01*
X1510216Y56167616D01*
X1786335Y56216303D01*
X2047739Y56317695D01*
X2284470Y56467930D01*
X2487513Y56661284D01*
X2649132Y56890394D01*
X2763172Y57146533D01*
X2825290Y57419944D01*
X2829762Y57740189D01*
X2775302Y58015228D01*
X2668458Y58274451D01*
X2513299Y58507985D01*
X2315735Y58706933D01*
X2211412Y58777300D01*
X23387968Y58777300D01*
X23299810Y58719611D01*
X23099487Y58523440D01*
X22941082Y58292096D01*
X22830629Y58034390D01*
X22772335Y57760138D01*
X22768420Y57479787D01*
X22819034Y57204014D01*
X22922248Y56943325D01*
X23074132Y56707648D01*
X23268899Y56505960D01*
X23499132Y56345944D01*
X23756061Y56233695D01*
X24029899Y56173488D01*
X24310216Y56167616D01*
X24586335Y56216303D01*
X24847739Y56317695D01*
X25084470Y56467930D01*
X25287513Y56661284D01*
X25449132Y56890394D01*
X25563172Y57146533D01*
X25625290Y57419944D01*
X25629762Y57740189D01*
X25575302Y58015228D01*
X25468458Y58274451D01*
X25313299Y58507985D01*
X25115735Y58706933D01*
X25011412Y58777300D01*
X27090821Y58777300D01*
X27093382Y9048921D01*
X21659428Y14482875D01*
X21639643Y14582793D01*
X21596321Y14687901D01*
X21533409Y14782591D01*
X21453303Y14863259D01*
X21359053Y14926831D01*
X21254251Y14970885D01*
X21142888Y14993745D01*
X21029206Y14994539D01*
X20917535Y14973236D01*
X20812128Y14930649D01*
X20717000Y14868399D01*
X20635775Y14788858D01*
X20609086Y14749880D01*
X18661615Y16697351D01*
X18641830Y16797269D01*
X18598508Y16902377D01*
X18535596Y16997067D01*
X18455490Y17077735D01*
X18361240Y17141307D01*
X18256438Y17185361D01*
X18145075Y17208221D01*
X18031393Y17209015D01*
X17919722Y17187712D01*
X17814315Y17145125D01*
X17719187Y17082875D01*
X17637962Y17003334D01*
X17573734Y16909531D01*
X17528949Y16805039D01*
X17505312Y16693838D01*
X17503725Y16580164D01*
X17514708Y16520324D01*
X17446628Y16492818D01*
X17351500Y16430568D01*
X17270275Y16351027D01*
X17206047Y16257224D01*
X17161262Y16152732D01*
X17137625Y16041531D01*
X17136038Y15927857D01*
X17156560Y15816040D01*
X17198411Y15710338D01*
X17259995Y15614778D01*
X17338967Y15533000D01*
X17432319Y15468119D01*
X17536496Y15422605D01*
X17647529Y15398193D01*
X17761189Y15395812D01*
X17873147Y15415553D01*
X17979138Y15456664D01*
X18013807Y15478665D01*
X25552900Y7939573D01*
X25552900Y1840172D01*
X21470264Y-2242464D01*
X21443451Y-2275107D01*
X21416371Y-2307380D01*
X21415216Y-2309481D01*
X21413689Y-2311340D01*
X21393741Y-2348543D01*
X21373431Y-2385487D01*
X21372705Y-2387777D01*
X21371570Y-2389893D01*
X21359235Y-2430238D01*
X21346480Y-2470447D01*
X21346212Y-2472832D01*
X21345510Y-2475130D01*
X21341244Y-2517124D01*
X21336545Y-2559023D01*
X21336512Y-2563718D01*
X21336503Y-2563805D01*
X21336511Y-2563886D01*
X21336500Y-2565400D01*
X21336500Y-7299942D01*
X20869322Y-7767120D01*
X20847609Y-7734440D01*
X20767503Y-7653772D01*
X20673253Y-7590200D01*
X20568451Y-7546146D01*
X20457088Y-7523286D01*
X20343406Y-7522492D01*
X20231735Y-7543795D01*
X20136184Y-7582400D01*
X20042647Y-7582400D01*
X19994838Y-7587088D01*
X19946956Y-7591277D01*
X19944330Y-7592040D01*
X19941606Y-7592307D01*
X19895606Y-7606195D01*
X19849462Y-7619601D01*
X19847032Y-7620861D01*
X19844414Y-7621651D01*
X19801980Y-7644213D01*
X19759327Y-7666323D01*
X19757190Y-7668029D01*
X19754773Y-7669314D01*
X19717501Y-7699712D01*
X19679982Y-7729663D01*
X19676178Y-7733414D01*
X19676096Y-7733481D01*
X19676034Y-7733556D01*
X19674810Y-7734763D01*
X10886373Y-16523200D01*
X6760897Y-16523200D01*
X6674651Y-16486946D01*
X6563288Y-16464086D01*
X6449606Y-16463292D01*
X6337935Y-16484595D01*
X6232528Y-16527182D01*
X6137400Y-16589432D01*
X6056175Y-16668973D01*
X5991947Y-16762776D01*
X5947162Y-16867268D01*
X5923525Y-16978469D01*
X5921938Y-17092143D01*
X5942460Y-17203960D01*
X5984311Y-17309662D01*
X6045895Y-17405222D01*
X6124867Y-17487000D01*
X6218219Y-17551881D01*
X6322396Y-17597395D01*
X6433429Y-17621807D01*
X6547089Y-17624188D01*
X6659047Y-17604447D01*
X6764357Y-17563600D01*
X11101847Y-17563600D01*
X11149656Y-17558912D01*
X11197538Y-17554723D01*
X11200164Y-17553960D01*
X11202888Y-17553693D01*
X11248935Y-17539791D01*
X11295032Y-17526398D01*
X11297457Y-17525141D01*
X11300080Y-17524349D01*
X11342568Y-17501758D01*
X11385168Y-17479676D01*
X11387303Y-17477972D01*
X11389721Y-17476686D01*
X11426998Y-17446284D01*
X11464512Y-17416337D01*
X11468316Y-17412586D01*
X11468398Y-17412519D01*
X11468460Y-17412444D01*
X11469684Y-17411237D01*
X12802389Y-16078532D01*
X12842311Y-16179362D01*
X12903895Y-16274922D01*
X12921321Y-16292967D01*
X12884792Y-16346317D01*
X12840007Y-16450809D01*
X12816370Y-16562010D01*
X12814783Y-16675684D01*
X12835305Y-16787501D01*
X12877156Y-16893203D01*
X12938740Y-16988763D01*
X13017712Y-17070541D01*
X13111064Y-17135422D01*
X13215241Y-17180936D01*
X13326274Y-17205348D01*
X13439934Y-17207729D01*
X13551892Y-17187988D01*
X13657883Y-17146877D01*
X13753871Y-17085961D01*
X13836198Y-17007562D01*
X13901730Y-16914665D01*
X13947970Y-16810808D01*
X13973157Y-16699948D01*
X13973228Y-16694830D01*
X14656300Y-16011758D01*
X14656300Y-20405371D01*
X14602547Y-20483876D01*
X14557762Y-20588368D01*
X14534125Y-20699569D01*
X14532538Y-20813243D01*
X14553060Y-20925060D01*
X14594911Y-21030762D01*
X14656495Y-21126322D01*
X14735467Y-21208100D01*
X14828819Y-21272981D01*
X14932996Y-21318495D01*
X15044029Y-21342907D01*
X15157689Y-21345288D01*
X15269647Y-21325547D01*
X15375638Y-21284436D01*
X15427120Y-21251764D01*
X24438621Y-21251764D01*
X24459488Y-21481054D01*
X24524493Y-21701923D01*
X24631161Y-21905960D01*
X24775429Y-22085393D01*
X24951800Y-22233386D01*
X25153559Y-22344304D01*
X25373019Y-22413921D01*
X25601821Y-22439585D01*
X25618292Y-22439700D01*
X25629708Y-22439700D01*
X25858846Y-22417233D01*
X26079257Y-22350687D01*
X26282544Y-22242597D01*
X26460965Y-22097081D01*
X26607724Y-21919680D01*
X26717230Y-21717152D01*
X26785313Y-21497212D01*
X26809379Y-21268236D01*
X26788512Y-21038946D01*
X26723507Y-20818077D01*
X26616839Y-20614040D01*
X26472571Y-20434607D01*
X26296200Y-20286614D01*
X26094441Y-20175696D01*
X25874981Y-20106079D01*
X25646179Y-20080415D01*
X25629708Y-20080300D01*
X25618292Y-20080300D01*
X25389154Y-20102767D01*
X25168743Y-20169313D01*
X24965456Y-20277403D01*
X24787035Y-20422919D01*
X24640276Y-20600320D01*
X24530770Y-20802848D01*
X24462687Y-21022788D01*
X24438621Y-21251764D01*
X15427120Y-21251764D01*
X15471626Y-21223520D01*
X15553953Y-21145121D01*
X15619485Y-21052224D01*
X15665725Y-20948367D01*
X15690912Y-20837507D01*
X15692725Y-20707657D01*
X15670643Y-20596138D01*
X15627321Y-20491030D01*
X15569700Y-20404304D01*
X15569700Y-18711764D01*
X24438621Y-18711764D01*
X24459488Y-18941054D01*
X24524493Y-19161923D01*
X24631161Y-19365960D01*
X24775429Y-19545393D01*
X24951800Y-19693386D01*
X25153559Y-19804304D01*
X25373019Y-19873921D01*
X25601821Y-19899585D01*
X25618292Y-19899700D01*
X25629708Y-19899700D01*
X25858846Y-19877233D01*
X26079257Y-19810687D01*
X26282544Y-19702597D01*
X26460965Y-19557081D01*
X26607724Y-19379680D01*
X26717230Y-19177152D01*
X26785313Y-18957212D01*
X26809379Y-18728236D01*
X26788512Y-18498946D01*
X26723507Y-18278077D01*
X26616839Y-18074040D01*
X26472571Y-17894607D01*
X26296200Y-17746614D01*
X26094441Y-17635696D01*
X25874981Y-17566079D01*
X25646179Y-17540415D01*
X25629708Y-17540300D01*
X25618292Y-17540300D01*
X25389154Y-17562767D01*
X25168743Y-17629313D01*
X24965456Y-17737403D01*
X24787035Y-17882919D01*
X24640276Y-18060320D01*
X24530770Y-18262848D01*
X24462687Y-18482788D01*
X24438621Y-18711764D01*
X15569700Y-18711764D01*
X15569700Y-16171764D01*
X24438621Y-16171764D01*
X24459488Y-16401054D01*
X24524493Y-16621923D01*
X24631161Y-16825960D01*
X24775429Y-17005393D01*
X24951800Y-17153386D01*
X25153559Y-17264304D01*
X25373019Y-17333921D01*
X25601821Y-17359585D01*
X25618292Y-17359700D01*
X25629708Y-17359700D01*
X25858846Y-17337233D01*
X26079257Y-17270687D01*
X26282544Y-17162597D01*
X26460965Y-17017081D01*
X26607724Y-16839680D01*
X26717230Y-16637152D01*
X26785313Y-16417212D01*
X26809379Y-16188236D01*
X26788512Y-15958946D01*
X26723507Y-15738077D01*
X26616839Y-15534040D01*
X26472571Y-15354607D01*
X26296200Y-15206614D01*
X26094441Y-15095696D01*
X25874981Y-15026079D01*
X25646179Y-15000415D01*
X25629708Y-15000300D01*
X25618292Y-15000300D01*
X25389154Y-15022767D01*
X25168743Y-15089313D01*
X24965456Y-15197403D01*
X24787035Y-15342919D01*
X24640276Y-15520320D01*
X24530770Y-15722848D01*
X24462687Y-15942788D01*
X24438621Y-16171764D01*
X15569700Y-16171764D01*
X15569700Y-15683172D01*
X17621107Y-13631764D01*
X24438621Y-13631764D01*
X24459488Y-13861054D01*
X24524493Y-14081923D01*
X24631161Y-14285960D01*
X24775429Y-14465393D01*
X24951800Y-14613386D01*
X25153559Y-14724304D01*
X25373019Y-14793921D01*
X25601821Y-14819585D01*
X25618292Y-14819700D01*
X25629708Y-14819700D01*
X25858846Y-14797233D01*
X26079257Y-14730687D01*
X26282544Y-14622597D01*
X26460965Y-14477081D01*
X26607724Y-14299680D01*
X26717230Y-14097152D01*
X26785313Y-13877212D01*
X26809379Y-13648236D01*
X26788512Y-13418946D01*
X26723507Y-13198077D01*
X26616839Y-12994040D01*
X26472571Y-12814607D01*
X26296200Y-12666614D01*
X26094441Y-12555696D01*
X25874981Y-12486079D01*
X25646179Y-12460415D01*
X25629708Y-12460300D01*
X25618292Y-12460300D01*
X25389154Y-12482767D01*
X25168743Y-12549313D01*
X24965456Y-12657403D01*
X24787035Y-12802919D01*
X24640276Y-12980320D01*
X24530770Y-13182848D01*
X24462687Y-13402788D01*
X24438621Y-13631764D01*
X17621107Y-13631764D01*
X21280885Y-9971986D01*
X24413328Y-9971986D01*
X24431982Y-10065768D01*
X24510920Y-10293706D01*
X24632810Y-10501865D01*
X24792968Y-10682244D01*
X24985239Y-10827912D01*
X25202234Y-10933271D01*
X25435614Y-10994272D01*
X25628100Y-10914375D01*
X25628100Y-9779500D01*
X25629100Y-9779500D01*
X25629100Y-10914375D01*
X25821586Y-10994272D01*
X26054966Y-10933271D01*
X26271961Y-10827912D01*
X26464232Y-10682244D01*
X26624390Y-10501865D01*
X26746280Y-10293706D01*
X26825218Y-10065768D01*
X26843872Y-9971986D01*
X26763975Y-9779500D01*
X25629100Y-9779500D01*
X25628100Y-9779500D01*
X24493225Y-9779500D01*
X24413328Y-9971986D01*
X21280885Y-9971986D01*
X21666857Y-9586014D01*
X24413328Y-9586014D01*
X24493225Y-9778500D01*
X25628100Y-9778500D01*
X25628100Y-8643625D01*
X25629100Y-8643625D01*
X25629100Y-9778500D01*
X26763975Y-9778500D01*
X26843872Y-9586014D01*
X26825218Y-9492232D01*
X26746280Y-9264294D01*
X26624390Y-9056135D01*
X26464232Y-8875756D01*
X26271961Y-8730088D01*
X26054966Y-8624729D01*
X25821586Y-8563728D01*
X25629100Y-8643625D01*
X25628100Y-8643625D01*
X25435614Y-8563728D01*
X25202234Y-8624729D01*
X24985239Y-8730088D01*
X24792968Y-8875756D01*
X24632810Y-9056135D01*
X24510920Y-9264294D01*
X24431982Y-9492232D01*
X24413328Y-9586014D01*
X21666857Y-9586014D01*
X22928956Y-8323915D01*
X22955749Y-8291297D01*
X22982849Y-8259000D01*
X22984004Y-8256899D01*
X22985531Y-8255040D01*
X23005479Y-8217837D01*
X23025789Y-8180893D01*
X23026515Y-8178603D01*
X23027650Y-8176487D01*
X23039985Y-8136142D01*
X23052740Y-8095933D01*
X23053008Y-8093548D01*
X23053710Y-8091250D01*
X23057975Y-8049260D01*
X23062675Y-8007357D01*
X23062708Y-8002661D01*
X23062717Y-8002574D01*
X23062709Y-8002489D01*
X23062720Y-8000980D01*
X23062720Y-7230764D01*
X24443221Y-7230764D01*
X24464088Y-7460054D01*
X24529093Y-7680923D01*
X24635761Y-7884960D01*
X24780029Y-8064393D01*
X24956400Y-8212386D01*
X25158159Y-8323304D01*
X25377619Y-8392921D01*
X25606421Y-8418585D01*
X25622892Y-8418700D01*
X25634308Y-8418700D01*
X25863446Y-8396233D01*
X26083857Y-8329687D01*
X26287144Y-8221597D01*
X26465565Y-8076081D01*
X26612324Y-7898680D01*
X26721830Y-7696152D01*
X26789913Y-7476212D01*
X26813979Y-7247236D01*
X26793112Y-7017946D01*
X26728107Y-6797077D01*
X26621439Y-6593040D01*
X26477171Y-6413607D01*
X26300800Y-6265614D01*
X26099041Y-6154696D01*
X25879581Y-6085079D01*
X25650779Y-6059415D01*
X25634308Y-6059300D01*
X25622892Y-6059300D01*
X25393754Y-6081767D01*
X25173343Y-6148313D01*
X24970056Y-6256403D01*
X24791635Y-6401919D01*
X24644876Y-6579320D01*
X24535370Y-6781848D01*
X24467287Y-7001788D01*
X24443221Y-7230764D01*
X23062720Y-7230764D01*
X23062720Y-3849000D01*
X24447305Y-3849000D01*
X24447305Y-5549000D01*
X24451492Y-5601503D01*
X24479069Y-5690555D01*
X24530364Y-5768398D01*
X24601315Y-5828869D01*
X24686303Y-5867179D01*
X24778600Y-5880295D01*
X26478600Y-5880295D01*
X26531103Y-5876108D01*
X26620155Y-5848531D01*
X26697998Y-5797236D01*
X26758469Y-5726285D01*
X26796779Y-5641297D01*
X26809895Y-5549000D01*
X26809895Y-3849000D01*
X26805708Y-3796497D01*
X26778131Y-3707445D01*
X26726836Y-3629602D01*
X26655885Y-3569131D01*
X26570897Y-3530821D01*
X26478600Y-3517705D01*
X24778600Y-3517705D01*
X24726097Y-3521892D01*
X24637045Y-3549469D01*
X24559202Y-3600764D01*
X24498731Y-3671715D01*
X24460421Y-3756703D01*
X24447305Y-3849000D01*
X23062720Y-3849000D01*
X23062720Y-3091251D01*
X27093800Y939829D01*
X27095279Y-27789385D01*
X25128863Y-27789796D01*
X25287513Y-27638716D01*
X25449132Y-27409606D01*
X25563172Y-27153467D01*
X25625290Y-26880056D01*
X25629762Y-26559811D01*
X25575302Y-26284772D01*
X25468458Y-26025549D01*
X25313299Y-25792015D01*
X25115735Y-25593067D01*
X24883290Y-25436281D01*
X24624820Y-25327630D01*
X24350167Y-25271252D01*
X24069796Y-25269295D01*
X23794383Y-25321832D01*
X23534421Y-25426864D01*
X23299810Y-25580389D01*
X23099487Y-25776560D01*
X22941082Y-26007904D01*
X22830629Y-26265610D01*
X22772335Y-26539862D01*
X22768420Y-26820213D01*
X22819034Y-27095986D01*
X22922248Y-27356675D01*
X23074132Y-27592352D01*
X23265177Y-27790185D01*
X2185952Y-27794592D01*
X2284470Y-27732070D01*
X2487513Y-27538716D01*
X2649132Y-27309606D01*
X2763172Y-27053467D01*
X2825290Y-26780056D01*
X2829762Y-26459811D01*
X2775302Y-26184772D01*
X2668458Y-25925549D01*
X2558862Y-25760592D01*
X8274749Y-25760592D01*
X8316513Y-25988143D01*
X8401679Y-26203248D01*
X8527004Y-26397714D01*
X8687713Y-26564134D01*
X8877687Y-26696169D01*
X9089689Y-26788790D01*
X9315643Y-26838469D01*
X9546943Y-26843314D01*
X9774780Y-26803141D01*
X9990474Y-26719478D01*
X10185810Y-26595514D01*
X10353348Y-26435970D01*
X10486706Y-26246923D01*
X10580805Y-26035573D01*
X10632061Y-25809971D01*
X10632750Y-25760592D01*
X15524749Y-25760592D01*
X15566513Y-25988143D01*
X15651679Y-26203248D01*
X15777004Y-26397714D01*
X15937713Y-26564134D01*
X16127687Y-26696169D01*
X16339689Y-26788790D01*
X16565643Y-26838469D01*
X16796943Y-26843314D01*
X17024780Y-26803141D01*
X17240474Y-26719478D01*
X17435810Y-26595514D01*
X17603348Y-26435970D01*
X17736706Y-26246923D01*
X17830805Y-26035573D01*
X17882061Y-25809971D01*
X17885751Y-25545724D01*
X17840814Y-25318779D01*
X17752653Y-25104885D01*
X17624625Y-24912187D01*
X17461607Y-24748027D01*
X17269809Y-24618658D01*
X17056535Y-24529005D01*
X16829909Y-24482486D01*
X16598563Y-24480871D01*
X16371310Y-24524222D01*
X16156805Y-24610887D01*
X15963219Y-24737567D01*
X15797925Y-24899434D01*
X15667219Y-25090325D01*
X15576080Y-25302968D01*
X15527980Y-25529264D01*
X15524749Y-25760592D01*
X10632750Y-25760592D01*
X10635751Y-25545724D01*
X10590814Y-25318779D01*
X10502653Y-25104885D01*
X10374625Y-24912187D01*
X10211607Y-24748027D01*
X10019809Y-24618658D01*
X9806535Y-24529005D01*
X9579909Y-24482486D01*
X9348563Y-24480871D01*
X9121310Y-24524222D01*
X8906805Y-24610887D01*
X8713219Y-24737567D01*
X8547925Y-24899434D01*
X8417219Y-25090325D01*
X8326080Y-25302968D01*
X8277980Y-25529264D01*
X8274749Y-25760592D01*
X2558862Y-25760592D01*
X2513299Y-25692015D01*
X2315735Y-25493067D01*
X2083290Y-25336281D01*
X1824820Y-25227630D01*
X1550167Y-25171252D01*
X1269796Y-25169295D01*
X994383Y-25221832D01*
X734421Y-25326864D01*
X499810Y-25480389D01*
X299487Y-25676560D01*
X141082Y-25907904D01*
X30629Y-26165610D01*
X-27665Y-26439862D01*
X-31580Y-26720213D01*
X19034Y-26995986D01*
X122248Y-27256675D01*
X274132Y-27492352D01*
X468899Y-27694040D01*
X614047Y-27794921D01*
X-795330Y-27795215D01*
X-795680Y-23089572D01*
X9725078Y-23089572D01*
X9757991Y-23268900D01*
X9825109Y-23438420D01*
X9923875Y-23591675D01*
X10050528Y-23722828D01*
X10200242Y-23826882D01*
X10367317Y-23899875D01*
X10545387Y-23939026D01*
X10727671Y-23942845D01*
X10907224Y-23911185D01*
X11077209Y-23845252D01*
X11231150Y-23747558D01*
X11363183Y-23621824D01*
X11468280Y-23472840D01*
X11542438Y-23306279D01*
X11582832Y-23128486D01*
X11583375Y-23089572D01*
X14575078Y-23089572D01*
X14607991Y-23268900D01*
X14675109Y-23438420D01*
X14773875Y-23591675D01*
X14900528Y-23722828D01*
X15050242Y-23826882D01*
X15217317Y-23899875D01*
X15395387Y-23939026D01*
X15577671Y-23942845D01*
X15757224Y-23911185D01*
X15797339Y-23895625D01*
X24393500Y-23895625D01*
X24393500Y-24687476D01*
X24408122Y-24760988D01*
X24436805Y-24830234D01*
X24478446Y-24892555D01*
X24531445Y-24945554D01*
X24593766Y-24987195D01*
X24663012Y-25015878D01*
X24736524Y-25030500D01*
X25528375Y-25030500D01*
X25623500Y-24935375D01*
X25623500Y-23800500D01*
X25624500Y-23800500D01*
X25624500Y-24935375D01*
X25719625Y-25030500D01*
X26511476Y-25030500D01*
X26584988Y-25015878D01*
X26654234Y-24987195D01*
X26716555Y-24945554D01*
X26769554Y-24892555D01*
X26811195Y-24830234D01*
X26839878Y-24760988D01*
X26854500Y-24687476D01*
X26854500Y-23895625D01*
X26759375Y-23800500D01*
X25624500Y-23800500D01*
X25623500Y-23800500D01*
X24488625Y-23800500D01*
X24393500Y-23895625D01*
X15797339Y-23895625D01*
X15927209Y-23845252D01*
X16081150Y-23747558D01*
X16213183Y-23621824D01*
X16318280Y-23472840D01*
X16392438Y-23306279D01*
X16432832Y-23128486D01*
X16435739Y-22920238D01*
X16434212Y-22912524D01*
X24393500Y-22912524D01*
X24393500Y-23704375D01*
X24488625Y-23799500D01*
X25623500Y-23799500D01*
X25623500Y-22664625D01*
X25624500Y-22664625D01*
X25624500Y-23799500D01*
X26759375Y-23799500D01*
X26854500Y-23704375D01*
X26854500Y-22912524D01*
X26839878Y-22839012D01*
X26811195Y-22769766D01*
X26769554Y-22707445D01*
X26716555Y-22654446D01*
X26654234Y-22612805D01*
X26584988Y-22584122D01*
X26511476Y-22569500D01*
X25719625Y-22569500D01*
X25624500Y-22664625D01*
X25623500Y-22664625D01*
X25528375Y-22569500D01*
X24736524Y-22569500D01*
X24663012Y-22584122D01*
X24593766Y-22612805D01*
X24531445Y-22654446D01*
X24478446Y-22707445D01*
X24436805Y-22769766D01*
X24408122Y-22839012D01*
X24393500Y-22912524D01*
X16434212Y-22912524D01*
X16400326Y-22741387D01*
X16330848Y-22572821D01*
X16229952Y-22420959D01*
X16101480Y-22291588D01*
X15950327Y-22189634D01*
X15782250Y-22118981D01*
X15603650Y-22082320D01*
X15421331Y-22081047D01*
X15242237Y-22115211D01*
X15073190Y-22183510D01*
X14920628Y-22283344D01*
X14790363Y-22410909D01*
X14687356Y-22561347D01*
X14615531Y-22728927D01*
X14577624Y-22907266D01*
X14575078Y-23089572D01*
X11583375Y-23089572D01*
X11585739Y-22920238D01*
X11550326Y-22741387D01*
X11480848Y-22572821D01*
X11379952Y-22420959D01*
X11251480Y-22291588D01*
X11100327Y-22189634D01*
X10932250Y-22118981D01*
X10753650Y-22082320D01*
X10571331Y-22081047D01*
X10392237Y-22115211D01*
X10223190Y-22183510D01*
X10070628Y-22283344D01*
X9940363Y-22410909D01*
X9837356Y-22561347D01*
X9765531Y-22728927D01*
X9727624Y-22907266D01*
X9725078Y-23089572D01*
X-795680Y-23089572D01*
X-801086Y49582857D01*
X1654738Y49582857D01*
X1675260Y49471040D01*
X1717111Y49365338D01*
X1778500Y49270081D01*
X1778500Y45825129D01*
X1724747Y45746624D01*
X1679962Y45642132D01*
X1656325Y45530931D01*
X1654738Y45417257D01*
X1675260Y45305440D01*
X1717111Y45199738D01*
X1778500Y45104481D01*
X1778500Y41646829D01*
X1724747Y41568324D01*
X1679962Y41463832D01*
X1656325Y41352631D01*
X1654738Y41238957D01*
X1675260Y41127140D01*
X1717111Y41021438D01*
X1778695Y40925878D01*
X1857667Y40844100D01*
X1951019Y40779219D01*
X2052221Y40735005D01*
X3988300Y38798926D01*
X3988300Y28451882D01*
X3953262Y28370132D01*
X3929625Y28258931D01*
X3928038Y28145257D01*
X3948560Y28033440D01*
X3988300Y27933070D01*
X3988300Y12752959D01*
X3953262Y12671209D01*
X3929625Y12560008D01*
X3928038Y12446334D01*
X3948560Y12334517D01*
X3988300Y12234147D01*
X3988300Y194382D01*
X3953262Y112632D01*
X3929625Y1431D01*
X3928038Y-112243D01*
X3948560Y-224060D01*
X3990411Y-329762D01*
X4051995Y-425322D01*
X4130967Y-507100D01*
X4224319Y-571981D01*
X4325521Y-616195D01*
X6363163Y-2653837D01*
X6400308Y-2684348D01*
X6437104Y-2715224D01*
X6439498Y-2716540D01*
X6441615Y-2718279D01*
X6483989Y-2740999D01*
X6526071Y-2764134D01*
X6528679Y-2764961D01*
X6531090Y-2766254D01*
X6577059Y-2780308D01*
X6622844Y-2794832D01*
X6625560Y-2795137D01*
X6628178Y-2795937D01*
X6676024Y-2800797D01*
X6723737Y-2806149D01*
X6729081Y-2806187D01*
X6729184Y-2806197D01*
X6729280Y-2806188D01*
X6731000Y-2806200D01*
X11680643Y-2806200D01*
X11757996Y-2839995D01*
X11869029Y-2864407D01*
X11982689Y-2866788D01*
X12094647Y-2847047D01*
X12199957Y-2806200D01*
X16379643Y-2806200D01*
X16456996Y-2839995D01*
X16568029Y-2864407D01*
X16681689Y-2866788D01*
X16793647Y-2847047D01*
X16899638Y-2805936D01*
X16995626Y-2745020D01*
X17077953Y-2666621D01*
X17143485Y-2573724D01*
X17189725Y-2469867D01*
X17189995Y-2468679D01*
X23100837Y3442163D01*
X23131348Y3479308D01*
X23162224Y3516104D01*
X23163540Y3518498D01*
X23165279Y3520615D01*
X23187999Y3562989D01*
X23211134Y3605071D01*
X23211961Y3607679D01*
X23213254Y3610090D01*
X23227308Y3656059D01*
X23241832Y3701844D01*
X23242137Y3704560D01*
X23242937Y3707178D01*
X23247797Y3755024D01*
X23253149Y3802737D01*
X23253187Y3808081D01*
X23253197Y3808184D01*
X23253188Y3808280D01*
X23253200Y3810000D01*
X23253200Y5626526D01*
X23427020Y5800346D01*
X23503638Y5830064D01*
X23599626Y5890980D01*
X23681953Y5969379D01*
X23747485Y6062276D01*
X23793725Y6166133D01*
X23818912Y6276993D01*
X23820725Y6406843D01*
X23798643Y6518362D01*
X23755321Y6623470D01*
X23692409Y6718160D01*
X23612303Y6798828D01*
X23518053Y6862400D01*
X23413251Y6906454D01*
X23301888Y6929314D01*
X23188206Y6930108D01*
X23076535Y6908805D01*
X22971128Y6866218D01*
X22876000Y6803968D01*
X22794775Y6724427D01*
X22730547Y6630624D01*
X22688990Y6533664D01*
X22365163Y6209837D01*
X22334674Y6172719D01*
X22303776Y6135896D01*
X22302458Y6133498D01*
X22300722Y6131385D01*
X22278022Y6089050D01*
X22254866Y6046929D01*
X22254039Y6044321D01*
X22252746Y6041910D01*
X22238692Y5995941D01*
X22224168Y5950156D01*
X22223863Y5947440D01*
X22223063Y5944822D01*
X22218203Y5896976D01*
X22212851Y5849263D01*
X22212813Y5843919D01*
X22212803Y5843816D01*
X22212812Y5843720D01*
X22212800Y5842000D01*
X22212800Y4025474D01*
X16451722Y-1735604D01*
X16376984Y-1765800D01*
X12196497Y-1765800D01*
X12110251Y-1729546D01*
X11998888Y-1706686D01*
X11885206Y-1705892D01*
X11773535Y-1727195D01*
X11677984Y-1765800D01*
X6946474Y-1765800D01*
X5059363Y121311D01*
X5028700Y195706D01*
X5028700Y8714257D01*
X13389538Y8714257D01*
X13410060Y8602440D01*
X13451911Y8496738D01*
X13513495Y8401178D01*
X13592467Y8319400D01*
X13685819Y8254519D01*
X13789996Y8209005D01*
X13901029Y8184593D01*
X13902567Y8184561D01*
X14244384Y7842744D01*
X14277027Y7815931D01*
X14309300Y7788851D01*
X14311401Y7787696D01*
X14313260Y7786169D01*
X14350463Y7766221D01*
X14387407Y7745911D01*
X14389697Y7745185D01*
X14391813Y7744050D01*
X14432158Y7731715D01*
X14472367Y7718960D01*
X14474752Y7718692D01*
X14477050Y7717990D01*
X14519044Y7713724D01*
X14560943Y7709025D01*
X14565638Y7708992D01*
X14565725Y7708983D01*
X14565806Y7708991D01*
X14567320Y7708980D01*
X16024316Y7708980D01*
X16098819Y7657199D01*
X16202996Y7611685D01*
X16314029Y7587273D01*
X16427689Y7584892D01*
X16539647Y7604633D01*
X16645638Y7645744D01*
X16741626Y7706660D01*
X16823953Y7785059D01*
X16889485Y7877956D01*
X16935725Y7981813D01*
X16960912Y8092673D01*
X16962725Y8222523D01*
X16940643Y8334042D01*
X16897321Y8439150D01*
X16834409Y8533840D01*
X16754303Y8614508D01*
X16660053Y8678080D01*
X16555251Y8722134D01*
X16443888Y8744994D01*
X16330206Y8745788D01*
X16218535Y8724485D01*
X16113128Y8681898D01*
X16022175Y8622380D01*
X14756492Y8622380D01*
X14547428Y8831444D01*
X14527643Y8931362D01*
X14484321Y9036470D01*
X14421409Y9131160D01*
X14341303Y9211828D01*
X14247053Y9275400D01*
X14142251Y9319454D01*
X14030888Y9342314D01*
X13917206Y9343108D01*
X13805535Y9321805D01*
X13700128Y9279218D01*
X13605000Y9216968D01*
X13523775Y9137427D01*
X13459547Y9043624D01*
X13414762Y8939132D01*
X13391125Y8827931D01*
X13389538Y8714257D01*
X5028700Y8714257D01*
X5028700Y10111257D01*
X10976538Y10111257D01*
X10997060Y9999440D01*
X11038911Y9893738D01*
X11100495Y9798178D01*
X11179467Y9716400D01*
X11272819Y9651519D01*
X11376996Y9606005D01*
X11488029Y9581593D01*
X11601689Y9579212D01*
X11713647Y9598953D01*
X11819638Y9640064D01*
X11901908Y9692274D01*
X14215589Y9692274D01*
X14227467Y9679974D01*
X14320819Y9615093D01*
X14424996Y9569579D01*
X14536029Y9545167D01*
X14649689Y9542786D01*
X14761647Y9562527D01*
X14867638Y9603638D01*
X14963626Y9664554D01*
X15045953Y9742953D01*
X15111485Y9835850D01*
X15157725Y9939707D01*
X15182912Y10050567D01*
X15184725Y10180417D01*
X15162643Y10291936D01*
X15119321Y10397044D01*
X15056409Y10491734D01*
X14976303Y10572402D01*
X14882053Y10635974D01*
X14777251Y10680028D01*
X14718856Y10692015D01*
X13658428Y11752444D01*
X13638643Y11852362D01*
X13595321Y11957470D01*
X13532409Y12052160D01*
X13452303Y12132828D01*
X13358053Y12196400D01*
X13253251Y12240454D01*
X13141888Y12263314D01*
X13028206Y12264108D01*
X12916535Y12242805D01*
X12811128Y12200218D01*
X12716000Y12137968D01*
X12634775Y12058427D01*
X12570547Y11964624D01*
X12525762Y11860132D01*
X12502125Y11748931D01*
X12500538Y11635257D01*
X12521060Y11523440D01*
X12562911Y11417738D01*
X12624495Y11322178D01*
X12703467Y11240400D01*
X12796819Y11175519D01*
X12900996Y11130005D01*
X13012029Y11105593D01*
X13013567Y11105561D01*
X13177142Y10941986D01*
X13173432Y10940894D01*
X13098836Y10901896D01*
X13033235Y10849152D01*
X12979129Y10784670D01*
X12938577Y10710907D01*
X12913125Y10630672D01*
X12904623Y10554874D01*
X11981881Y10554874D01*
X11928303Y10608828D01*
X11834053Y10672400D01*
X11729251Y10716454D01*
X11617888Y10739314D01*
X11504206Y10740108D01*
X11392535Y10718805D01*
X11287128Y10676218D01*
X11192000Y10613968D01*
X11110775Y10534427D01*
X11046547Y10440624D01*
X11001762Y10336132D01*
X10978125Y10224931D01*
X10976538Y10111257D01*
X5028700Y10111257D01*
X5028700Y12238157D01*
X5061225Y12311210D01*
X5086412Y12422070D01*
X5088225Y12551920D01*
X5066143Y12663439D01*
X5028700Y12754283D01*
X5028700Y16815300D01*
X5584643Y16815300D01*
X5661996Y16781505D01*
X5773029Y16757093D01*
X5886689Y16754712D01*
X5998647Y16774453D01*
X6103957Y16815300D01*
X12688494Y16815300D01*
X12736303Y16819988D01*
X12784185Y16824177D01*
X12786811Y16824940D01*
X12789535Y16825207D01*
X12835582Y16839109D01*
X12881679Y16852502D01*
X12884104Y16853759D01*
X12886727Y16854551D01*
X12929215Y16877142D01*
X12971815Y16899224D01*
X12973950Y16900928D01*
X12976368Y16902214D01*
X13013645Y16932616D01*
X13051159Y16962563D01*
X13054963Y16966314D01*
X13055045Y16966381D01*
X13055107Y16966456D01*
X13056331Y16967663D01*
X16750837Y20662169D01*
X16781326Y20699287D01*
X16812224Y20736110D01*
X16813542Y20738508D01*
X16815278Y20740621D01*
X16837988Y20782975D01*
X16861134Y20825077D01*
X16861961Y20827683D01*
X16863254Y20830095D01*
X16877313Y20876079D01*
X16891832Y20921850D01*
X16892137Y20924566D01*
X16892937Y20927184D01*
X16897797Y20975030D01*
X16903149Y21022743D01*
X16903187Y21028087D01*
X16903197Y21028190D01*
X16903188Y21028286D01*
X16903200Y21030006D01*
X16903200Y22591577D01*
X16898512Y22639386D01*
X16894323Y22687268D01*
X16893560Y22689894D01*
X16893293Y22692618D01*
X16879405Y22738618D01*
X16865999Y22784762D01*
X16864739Y22787192D01*
X16863949Y22789810D01*
X16841376Y22832263D01*
X16819276Y22874898D01*
X16817572Y22877033D01*
X16816286Y22879451D01*
X16785884Y22916728D01*
X16755937Y22954242D01*
X16752186Y22958046D01*
X16752119Y22958128D01*
X16752044Y22958190D01*
X16750837Y22959414D01*
X16014200Y23696051D01*
X16014200Y25514800D01*
X19558000Y25514800D01*
X19605809Y25519488D01*
X19653691Y25523677D01*
X19656317Y25524440D01*
X19659041Y25524707D01*
X19705088Y25538609D01*
X19751185Y25552002D01*
X19753610Y25553259D01*
X19756233Y25554051D01*
X19798721Y25576642D01*
X19841321Y25598724D01*
X19843456Y25600428D01*
X19845874Y25601714D01*
X19883151Y25632116D01*
X19920665Y25662063D01*
X19924469Y25665814D01*
X19924551Y25665881D01*
X19924613Y25665956D01*
X19925837Y25667163D01*
X20486319Y26227645D01*
X25345641Y26227645D01*
X25371473Y26086894D01*
X25424152Y25953842D01*
X25501672Y25833555D01*
X25601078Y25730617D01*
X25718586Y25648946D01*
X25849719Y25591656D01*
X25989483Y25560927D01*
X26132553Y25557930D01*
X26273480Y25582779D01*
X26406897Y25634528D01*
X26527722Y25711206D01*
X26631352Y25809892D01*
X26713841Y25926827D01*
X26772045Y26057556D01*
X26803749Y26197102D01*
X26806032Y26360551D01*
X26778236Y26500927D01*
X26723705Y26633231D01*
X26644513Y26752423D01*
X26543679Y26853964D01*
X26425042Y26933986D01*
X26293122Y26989440D01*
X26152944Y27018214D01*
X26009845Y27019213D01*
X25869278Y26992399D01*
X25736597Y26938792D01*
X25616855Y26860435D01*
X25514612Y26760312D01*
X25433765Y26642237D01*
X25377391Y26510707D01*
X25347639Y26370732D01*
X25345641Y26227645D01*
X20486319Y26227645D01*
X21932437Y27673763D01*
X21962926Y27710881D01*
X21993824Y27747704D01*
X21995142Y27750102D01*
X21996878Y27752215D01*
X22019578Y27794550D01*
X22042734Y27836671D01*
X22043561Y27839279D01*
X22044854Y27841690D01*
X22058908Y27887659D01*
X22059690Y27890122D01*
X22071085Y27906276D01*
X22080599Y27927645D01*
X25345641Y27927645D01*
X25371473Y27786894D01*
X25424152Y27653842D01*
X25501672Y27533555D01*
X25601078Y27430617D01*
X25718586Y27348946D01*
X25849719Y27291656D01*
X25989483Y27260927D01*
X26132553Y27257930D01*
X26273480Y27282779D01*
X26406897Y27334528D01*
X26527722Y27411206D01*
X26631352Y27509892D01*
X26713841Y27626827D01*
X26772045Y27757556D01*
X26803749Y27897102D01*
X26806032Y28060551D01*
X26778236Y28200927D01*
X26723705Y28333231D01*
X26644513Y28452423D01*
X26543679Y28553964D01*
X26425042Y28633986D01*
X26293122Y28689440D01*
X26152944Y28718214D01*
X26009845Y28719213D01*
X25869278Y28692399D01*
X25736597Y28638792D01*
X25616855Y28560435D01*
X25514612Y28460312D01*
X25433765Y28342237D01*
X25377391Y28210707D01*
X25347639Y28070732D01*
X25345641Y27927645D01*
X22080599Y27927645D01*
X22117325Y28010133D01*
X22142512Y28120993D01*
X22144325Y28250843D01*
X22122243Y28362362D01*
X22084800Y28453206D01*
X22084800Y36093400D01*
X22080112Y36141209D01*
X22075923Y36189091D01*
X22075160Y36191717D01*
X22074893Y36194441D01*
X22061005Y36240441D01*
X22047599Y36286585D01*
X22046339Y36289015D01*
X22045549Y36291633D01*
X22022976Y36334086D01*
X22000876Y36376721D01*
X21999172Y36378856D01*
X21997886Y36381274D01*
X21967484Y36418551D01*
X21937537Y36456065D01*
X21933786Y36459869D01*
X21933719Y36459951D01*
X21933644Y36460013D01*
X21932437Y36461237D01*
X20108863Y38284811D01*
X20072321Y38373470D01*
X20009409Y38468160D01*
X19929303Y38548828D01*
X19835053Y38612400D01*
X19730251Y38656454D01*
X19618888Y38679314D01*
X19505206Y38680108D01*
X19393535Y38658805D01*
X19288128Y38616218D01*
X19193000Y38553968D01*
X19111775Y38474427D01*
X19047547Y38380624D01*
X19002762Y38276132D01*
X18979125Y38164931D01*
X18977538Y38051257D01*
X18998060Y37939440D01*
X19039911Y37833738D01*
X19101495Y37738178D01*
X19180467Y37656400D01*
X19273819Y37591519D01*
X19375021Y37547305D01*
X21044400Y35877926D01*
X21044400Y34827896D01*
X21000251Y34846454D01*
X20888888Y34869314D01*
X20775206Y34870108D01*
X20663535Y34848805D01*
X20558128Y34806218D01*
X20467175Y34746700D01*
X19431000Y34746700D01*
X19388997Y34742581D01*
X19346989Y34738906D01*
X19344685Y34738236D01*
X19342293Y34738002D01*
X19301884Y34725802D01*
X19261396Y34714039D01*
X19259265Y34712934D01*
X19256965Y34712240D01*
X19219726Y34692439D01*
X19182263Y34673021D01*
X19180385Y34671521D01*
X19178266Y34670395D01*
X19145587Y34643743D01*
X19112605Y34617413D01*
X19109258Y34614113D01*
X19109194Y34614061D01*
X19109145Y34614002D01*
X19108064Y34612936D01*
X13985916Y29490788D01*
X13959103Y29458145D01*
X13932023Y29425872D01*
X13930868Y29423771D01*
X13929341Y29421912D01*
X13909393Y29384709D01*
X13889083Y29347765D01*
X13888357Y29345475D01*
X13887222Y29343359D01*
X13874887Y29303014D01*
X13862132Y29262805D01*
X13861864Y29260420D01*
X13861162Y29258122D01*
X13856896Y29216128D01*
X13852197Y29174229D01*
X13852164Y29169534D01*
X13852155Y29169447D01*
X13852163Y29169366D01*
X13852152Y29167852D01*
X13852152Y26156716D01*
X13589880Y25894444D01*
X13608112Y25974693D01*
X13609925Y26104543D01*
X13587843Y26216062D01*
X13544521Y26321170D01*
X13481609Y26415860D01*
X13401503Y26496528D01*
X13334520Y26541708D01*
X13334520Y36727701D01*
X17416157Y40809338D01*
X17472996Y40784505D01*
X17584029Y40760093D01*
X17697689Y40757712D01*
X17809647Y40777453D01*
X17915638Y40818564D01*
X18011626Y40879480D01*
X18093953Y40957879D01*
X18159485Y41050776D01*
X18205725Y41154633D01*
X18230912Y41265493D01*
X18232725Y41395343D01*
X18210643Y41506862D01*
X18167321Y41611970D01*
X18104409Y41706660D01*
X18024303Y41787328D01*
X17930053Y41850900D01*
X17825251Y41894954D01*
X17713888Y41917814D01*
X17600206Y41918608D01*
X17488535Y41897305D01*
X17383128Y41854718D01*
X17290893Y41794361D01*
X17257444Y41791081D01*
X17215436Y41787406D01*
X17213132Y41786736D01*
X17210740Y41786502D01*
X17170331Y41774302D01*
X17129843Y41762539D01*
X17127712Y41761434D01*
X17125412Y41760740D01*
X17088173Y41740939D01*
X17050710Y41721521D01*
X17048832Y41720021D01*
X17046713Y41718895D01*
X17014034Y41692243D01*
X16981052Y41665913D01*
X16977705Y41662613D01*
X16977641Y41662561D01*
X16977592Y41662502D01*
X16976511Y41661436D01*
X12928110Y37613035D01*
X12928110Y40004990D01*
X12923991Y40046993D01*
X12920316Y40089001D01*
X12919646Y40091305D01*
X12919412Y40093697D01*
X12907212Y40134106D01*
X12895449Y40174594D01*
X12894344Y40176725D01*
X12893650Y40179025D01*
X12873828Y40216304D01*
X12854430Y40253727D01*
X12852933Y40255602D01*
X12851805Y40257724D01*
X12825130Y40290430D01*
X12798823Y40323385D01*
X12795527Y40326728D01*
X12795471Y40326796D01*
X12795408Y40326848D01*
X12794345Y40327926D01*
X8584700Y44537572D01*
X8584700Y47004757D01*
X13262538Y47004757D01*
X13283060Y46892940D01*
X13324911Y46787238D01*
X13386495Y46691678D01*
X13465467Y46609900D01*
X13558819Y46545019D01*
X13662996Y46499505D01*
X13774029Y46475093D01*
X13887689Y46472712D01*
X13999647Y46492453D01*
X14105638Y46533564D01*
X14201626Y46594480D01*
X14283953Y46672879D01*
X14349485Y46765776D01*
X14395725Y46869633D01*
X14420912Y46980493D01*
X14420983Y46985611D01*
X15852129Y48416757D01*
X17326538Y48416757D01*
X17347060Y48304940D01*
X17388911Y48199238D01*
X17450495Y48103678D01*
X17529467Y48021900D01*
X17622819Y47957019D01*
X17726996Y47911505D01*
X17838029Y47887093D01*
X17951689Y47884712D01*
X18063647Y47904453D01*
X18169638Y47945564D01*
X18265626Y48006480D01*
X18268062Y48008800D01*
X21224000Y48008800D01*
X21266003Y48012919D01*
X21308011Y48016594D01*
X21310315Y48017264D01*
X21312707Y48017498D01*
X21353116Y48029698D01*
X21393604Y48041461D01*
X21395735Y48042566D01*
X21398035Y48043260D01*
X21435274Y48063061D01*
X21472737Y48082479D01*
X21474615Y48083979D01*
X21476734Y48085105D01*
X21509413Y48111757D01*
X21542395Y48138087D01*
X21545742Y48141387D01*
X21545806Y48141439D01*
X21545855Y48141498D01*
X21546936Y48142564D01*
X22802449Y49398078D01*
X22889647Y49413453D01*
X22995638Y49454564D01*
X23091626Y49515480D01*
X23173953Y49593879D01*
X23239485Y49686776D01*
X23285725Y49790633D01*
X23310912Y49901493D01*
X23312725Y50031343D01*
X23290643Y50142862D01*
X23247321Y50247970D01*
X23184409Y50342660D01*
X23104303Y50423328D01*
X23010053Y50486900D01*
X22905251Y50530954D01*
X22793888Y50553814D01*
X22680206Y50554608D01*
X22568535Y50533305D01*
X22463128Y50490718D01*
X22368000Y50428468D01*
X22286775Y50348927D01*
X22222547Y50255124D01*
X22177762Y50150632D01*
X22154682Y50042054D01*
X21034828Y48922200D01*
X18266632Y48922200D01*
X18184053Y48977900D01*
X18079251Y49021954D01*
X17967888Y49044814D01*
X17854206Y49045608D01*
X17742535Y49024305D01*
X17637128Y48981718D01*
X17542000Y48919468D01*
X17460775Y48839927D01*
X17396547Y48746124D01*
X17351762Y48641632D01*
X17328125Y48530431D01*
X17326538Y48416757D01*
X15852129Y48416757D01*
X18985172Y51549800D01*
X22374316Y51549800D01*
X22448819Y51498019D01*
X22552996Y51452505D01*
X22664029Y51428093D01*
X22777689Y51425712D01*
X22889647Y51445453D01*
X22995638Y51486564D01*
X23091626Y51547480D01*
X23173953Y51625879D01*
X23205932Y51671211D01*
X24625800Y50251343D01*
X24625800Y43983629D01*
X24572047Y43905124D01*
X24527262Y43800632D01*
X24503625Y43689431D01*
X24502038Y43575757D01*
X24522560Y43463940D01*
X24564411Y43358238D01*
X24625995Y43262678D01*
X24704967Y43180900D01*
X24798319Y43116019D01*
X24902496Y43070505D01*
X25013529Y43046093D01*
X25127189Y43043712D01*
X25239147Y43063453D01*
X25345138Y43104564D01*
X25441126Y43165480D01*
X25523453Y43243879D01*
X25588985Y43336776D01*
X25635225Y43440633D01*
X25660412Y43551493D01*
X25662225Y43681343D01*
X25640143Y43792862D01*
X25596821Y43897970D01*
X25539200Y43984696D01*
X25539200Y50440514D01*
X25535081Y50482517D01*
X25531406Y50524525D01*
X25530736Y50526829D01*
X25530502Y50529221D01*
X25518302Y50569630D01*
X25506539Y50610118D01*
X25505434Y50612249D01*
X25504740Y50614549D01*
X25484918Y50651828D01*
X25465520Y50689251D01*
X25464023Y50691126D01*
X25462895Y50693248D01*
X25436220Y50725954D01*
X25409913Y50758909D01*
X25406617Y50762252D01*
X25406561Y50762320D01*
X25406498Y50762372D01*
X25405435Y50763450D01*
X19584950Y56583936D01*
X19552307Y56610749D01*
X19520034Y56637829D01*
X19517933Y56638984D01*
X19516074Y56640511D01*
X19478871Y56660459D01*
X19441927Y56680769D01*
X19439637Y56681495D01*
X19437521Y56682630D01*
X19397176Y56694965D01*
X19356967Y56707720D01*
X19354582Y56707988D01*
X19352284Y56708690D01*
X19310290Y56712956D01*
X19268391Y56717655D01*
X19263696Y56717688D01*
X19263609Y56717697D01*
X19263528Y56717689D01*
X19262014Y56717700D01*
X18488920Y56717700D01*
X18381597Y56919544D01*
X18236081Y57097965D01*
X18058680Y57244724D01*
X17856152Y57354230D01*
X17636212Y57422313D01*
X17407236Y57446379D01*
X17177946Y57425512D01*
X16957077Y57360507D01*
X16753040Y57253839D01*
X16573607Y57109571D01*
X16425614Y56933200D01*
X16314696Y56731441D01*
X16245079Y56511981D01*
X16219415Y56283179D01*
X16219300Y56266708D01*
X16219300Y56255292D01*
X16241767Y56026154D01*
X16308313Y55805743D01*
X16416403Y55602456D01*
X16561919Y55424035D01*
X16739320Y55277276D01*
X16941848Y55167770D01*
X17161788Y55099687D01*
X17390764Y55075621D01*
X17620054Y55096488D01*
X17840923Y55161493D01*
X18044960Y55268161D01*
X18224393Y55412429D01*
X18372386Y55588800D01*
X18483304Y55790559D01*
X18487663Y55804300D01*
X19072842Y55804300D01*
X22397422Y52479721D01*
X22372175Y52463200D01*
X18796000Y52463200D01*
X18753993Y52459081D01*
X18711990Y52455406D01*
X18709686Y52454737D01*
X18707293Y52454502D01*
X18666872Y52442298D01*
X18626396Y52430539D01*
X18624265Y52429434D01*
X18621965Y52428740D01*
X18584726Y52408939D01*
X18547263Y52389521D01*
X18545385Y52388022D01*
X18543266Y52386895D01*
X18510563Y52360223D01*
X18477606Y52333913D01*
X18474260Y52330615D01*
X18474194Y52330561D01*
X18474144Y52330500D01*
X18473064Y52329436D01*
X13774179Y47630551D01*
X13678535Y47612305D01*
X13573128Y47569718D01*
X13478000Y47507468D01*
X13396775Y47427927D01*
X13332547Y47334124D01*
X13287762Y47229632D01*
X13264125Y47118431D01*
X13262538Y47004757D01*
X8584700Y47004757D01*
X8584700Y49554500D01*
X11010705Y49554500D01*
X11010705Y47854500D01*
X11014892Y47801997D01*
X11042469Y47712945D01*
X11093764Y47635102D01*
X11164715Y47574631D01*
X11249703Y47536321D01*
X11342000Y47523205D01*
X13042000Y47523205D01*
X13094503Y47527392D01*
X13183555Y47554969D01*
X13261398Y47606264D01*
X13321869Y47677215D01*
X13360179Y47762203D01*
X13373295Y47854500D01*
X13373295Y49554500D01*
X13369108Y49607003D01*
X13341531Y49696055D01*
X13290236Y49773898D01*
X13219285Y49834369D01*
X13134297Y49872679D01*
X13042000Y49885795D01*
X11342000Y49885795D01*
X11289497Y49881608D01*
X11200445Y49854031D01*
X11122602Y49802736D01*
X11062131Y49731785D01*
X11023821Y49646797D01*
X11010705Y49554500D01*
X8584700Y49554500D01*
X8584700Y51252736D01*
X11006621Y51252736D01*
X11027488Y51023446D01*
X11092493Y50802577D01*
X11199161Y50598540D01*
X11343429Y50419107D01*
X11519800Y50271114D01*
X11721559Y50160196D01*
X11941019Y50090579D01*
X12169821Y50064915D01*
X12186292Y50064800D01*
X12197708Y50064800D01*
X12426846Y50087267D01*
X12647257Y50153813D01*
X12850544Y50261903D01*
X13028965Y50407419D01*
X13175724Y50584820D01*
X13285230Y50787348D01*
X13353313Y51007288D01*
X13377379Y51236264D01*
X13356512Y51465554D01*
X13291507Y51686423D01*
X13184839Y51890460D01*
X13040571Y52069893D01*
X12864200Y52217886D01*
X12662441Y52328804D01*
X12442981Y52398421D01*
X12214179Y52424085D01*
X12197708Y52424200D01*
X12186292Y52424200D01*
X11957154Y52401733D01*
X11736743Y52335187D01*
X11533456Y52227097D01*
X11355035Y52081581D01*
X11208276Y51904180D01*
X11098770Y51701652D01*
X11030687Y51481712D01*
X11006621Y51252736D01*
X8584700Y51252736D01*
X8584700Y51473100D01*
X8580581Y51515103D01*
X8576906Y51557111D01*
X8576236Y51559415D01*
X8576002Y51561807D01*
X8563802Y51602216D01*
X8552039Y51642704D01*
X8550934Y51644835D01*
X8550240Y51647135D01*
X8530439Y51684374D01*
X8511021Y51721837D01*
X8509521Y51723715D01*
X8508395Y51725834D01*
X8481743Y51758513D01*
X8455413Y51791495D01*
X8452113Y51794842D01*
X8452061Y51794906D01*
X8452002Y51794955D01*
X8450936Y51796036D01*
X7587828Y52659144D01*
X7568043Y52759062D01*
X7524721Y52864170D01*
X7461809Y52958860D01*
X7381703Y53039528D01*
X7287453Y53103100D01*
X7182651Y53147154D01*
X7071288Y53170014D01*
X6957606Y53170808D01*
X6845935Y53149505D01*
X6740528Y53106918D01*
X6645400Y53044668D01*
X6564175Y52965127D01*
X6499947Y52871324D01*
X6455162Y52766832D01*
X6431525Y52655631D01*
X6429938Y52541957D01*
X6450460Y52430140D01*
X6492311Y52324438D01*
X6553895Y52228878D01*
X6632867Y52147100D01*
X6726219Y52082219D01*
X6830396Y52036705D01*
X6941429Y52012293D01*
X6942967Y52012261D01*
X7671300Y51283928D01*
X7671300Y48435472D01*
X7562428Y48544344D01*
X7542643Y48644262D01*
X7499321Y48749370D01*
X7436409Y48844060D01*
X7356303Y48924728D01*
X7262053Y48988300D01*
X7157251Y49032354D01*
X7045888Y49055214D01*
X6932206Y49056008D01*
X6820535Y49034705D01*
X6715128Y48992118D01*
X6620000Y48929868D01*
X6538775Y48850327D01*
X6474547Y48756524D01*
X6429762Y48652032D01*
X6406125Y48540831D01*
X6404538Y48427157D01*
X6425060Y48315340D01*
X6466911Y48209638D01*
X6528495Y48114078D01*
X6607467Y48032300D01*
X6700819Y47967419D01*
X6804996Y47921905D01*
X6916029Y47897493D01*
X6917567Y47897461D01*
X7252200Y47562828D01*
X7252200Y44812119D01*
X7182651Y44841354D01*
X7071288Y44864214D01*
X6957606Y44865008D01*
X6845935Y44843705D01*
X6740528Y44801118D01*
X6645400Y44738868D01*
X6564175Y44659327D01*
X6499947Y44565524D01*
X6455162Y44461032D01*
X6431525Y44349831D01*
X6429938Y44236157D01*
X6450460Y44124340D01*
X6492311Y44018638D01*
X6553895Y43923078D01*
X6632867Y43841300D01*
X6726219Y43776419D01*
X6830396Y43730905D01*
X6941429Y43706493D01*
X6942967Y43706461D01*
X11201890Y39447538D01*
X11201890Y23912762D01*
X11107179Y23818051D01*
X11011535Y23799805D01*
X10906128Y23757218D01*
X10811000Y23694968D01*
X10729775Y23615427D01*
X10665547Y23521624D01*
X10620762Y23417132D01*
X10597125Y23305931D01*
X10595538Y23192257D01*
X10616060Y23080440D01*
X10657911Y22974738D01*
X10719495Y22879178D01*
X10798467Y22797400D01*
X10891819Y22732519D01*
X10995996Y22687005D01*
X11107029Y22662593D01*
X11220689Y22660212D01*
X11332647Y22679953D01*
X11438638Y22721064D01*
X11534626Y22781980D01*
X11616953Y22860379D01*
X11672817Y22939571D01*
X11687467Y22924400D01*
X11780819Y22859519D01*
X11884996Y22814005D01*
X11996029Y22789593D01*
X12109689Y22787212D01*
X12221647Y22806953D01*
X12327638Y22848064D01*
X12423626Y22908980D01*
X12439591Y22924183D01*
X12512967Y22848200D01*
X12606319Y22783319D01*
X12710496Y22737805D01*
X12821529Y22713393D01*
X12935189Y22711012D01*
X13047147Y22730753D01*
X13153138Y22771864D01*
X13249126Y22832780D01*
X13331453Y22911179D01*
X13396985Y23004076D01*
X13443225Y23107933D01*
X13443350Y23108481D01*
X13535996Y23068005D01*
X13647029Y23043593D01*
X13760689Y23041212D01*
X13872647Y23060953D01*
X13978638Y23102064D01*
X14074626Y23162980D01*
X14156953Y23241379D01*
X14222485Y23334276D01*
X14268725Y23438133D01*
X14293912Y23548993D01*
X14295725Y23678843D01*
X14273643Y23790362D01*
X14230321Y23895470D01*
X14167409Y23990160D01*
X14087303Y24070828D01*
X14023220Y24114052D01*
X14061546Y24200133D01*
X14086733Y24310993D01*
X14086804Y24316111D01*
X14973800Y25203107D01*
X14973800Y23480577D01*
X14978488Y23432768D01*
X14982677Y23384886D01*
X14983440Y23382260D01*
X14983707Y23379536D01*
X14997609Y23333489D01*
X15011002Y23287392D01*
X15012259Y23284967D01*
X15013051Y23282344D01*
X15035642Y23239856D01*
X15057724Y23197256D01*
X15059428Y23195121D01*
X15060714Y23192703D01*
X15091116Y23155426D01*
X15121063Y23117912D01*
X15124814Y23114108D01*
X15124881Y23114026D01*
X15124956Y23113964D01*
X15126163Y23112740D01*
X15862800Y22376103D01*
X15862800Y21245480D01*
X12473020Y17855700D01*
X6100497Y17855700D01*
X6014251Y17891954D01*
X5902888Y17914814D01*
X5789206Y17915608D01*
X5677535Y17894305D01*
X5581984Y17855700D01*
X5028700Y17855700D01*
X5028700Y27937080D01*
X5061225Y28010133D01*
X5086412Y28120993D01*
X5088225Y28250843D01*
X5066143Y28362362D01*
X5028700Y28453206D01*
X5028700Y39014400D01*
X5024013Y39062201D01*
X5019823Y39110092D01*
X5019060Y39112718D01*
X5018793Y39115441D01*
X5004894Y39161475D01*
X4991498Y39207585D01*
X4990241Y39210010D01*
X4989449Y39212633D01*
X4966858Y39255121D01*
X4944776Y39297721D01*
X4943072Y39299856D01*
X4941786Y39302274D01*
X4911359Y39339582D01*
X4881436Y39377065D01*
X4877687Y39380868D01*
X4877619Y39380951D01*
X4877542Y39381014D01*
X4876337Y39382237D01*
X2786063Y41472511D01*
X2749521Y41561170D01*
X2691900Y41647896D01*
X2691900Y45107702D01*
X2741685Y45178276D01*
X2787925Y45282133D01*
X2813112Y45392993D01*
X2814925Y45522843D01*
X2792843Y45634362D01*
X2749521Y45739470D01*
X2691900Y45826196D01*
X2691900Y49273302D01*
X2741685Y49343876D01*
X2787925Y49447733D01*
X2813112Y49558593D01*
X2813183Y49563712D01*
X9053771Y55804300D01*
X11137705Y55804300D01*
X11137705Y55411000D01*
X11141892Y55358497D01*
X11169469Y55269445D01*
X11220764Y55191602D01*
X11291715Y55131131D01*
X11376703Y55092821D01*
X11469000Y55079705D01*
X13169000Y55079705D01*
X13221503Y55083892D01*
X13310555Y55111469D01*
X13388398Y55162764D01*
X13448869Y55233715D01*
X13487179Y55318703D01*
X13500295Y55411000D01*
X13500295Y56068014D01*
X13643728Y56068014D01*
X13704729Y55834634D01*
X13810088Y55617639D01*
X13955756Y55425368D01*
X14136135Y55265210D01*
X14344294Y55143320D01*
X14572232Y55064382D01*
X14666014Y55045728D01*
X14858500Y55125625D01*
X14858500Y56260500D01*
X14859500Y56260500D01*
X14859500Y55125625D01*
X15051986Y55045728D01*
X15145768Y55064382D01*
X15373706Y55143320D01*
X15581865Y55265210D01*
X15762244Y55425368D01*
X15907912Y55617639D01*
X16013271Y55834634D01*
X16074272Y56068014D01*
X15994375Y56260500D01*
X14859500Y56260500D01*
X14858500Y56260500D01*
X13723625Y56260500D01*
X13643728Y56068014D01*
X13500295Y56068014D01*
X13500295Y56453986D01*
X13643728Y56453986D01*
X13723625Y56261500D01*
X14858500Y56261500D01*
X14858500Y57396375D01*
X14859500Y57396375D01*
X14859500Y56261500D01*
X15994375Y56261500D01*
X16074272Y56453986D01*
X16013271Y56687366D01*
X15907912Y56904361D01*
X15762244Y57096632D01*
X15581865Y57256790D01*
X15373706Y57378680D01*
X15145768Y57457618D01*
X15051986Y57476272D01*
X14859500Y57396375D01*
X14858500Y57396375D01*
X14666014Y57476272D01*
X14572232Y57457618D01*
X14344294Y57378680D01*
X14136135Y57256790D01*
X13955756Y57096632D01*
X13810088Y56904361D01*
X13704729Y56687366D01*
X13643728Y56453986D01*
X13500295Y56453986D01*
X13500295Y57111000D01*
X13496108Y57163503D01*
X13468531Y57252555D01*
X13417236Y57330398D01*
X13346285Y57390869D01*
X13261297Y57429179D01*
X13169000Y57442295D01*
X11469000Y57442295D01*
X11416497Y57438108D01*
X11327445Y57410531D01*
X11249602Y57359236D01*
X11189131Y57288285D01*
X11150821Y57203297D01*
X11137705Y57111000D01*
X11137705Y56717700D01*
X8864600Y56717700D01*
X8822597Y56713581D01*
X8780589Y56709906D01*
X8778285Y56709236D01*
X8775893Y56709002D01*
X8735484Y56696802D01*
X8694996Y56685039D01*
X8692865Y56683934D01*
X8690565Y56683240D01*
X8653286Y56663418D01*
X8615863Y56644020D01*
X8613988Y56642523D01*
X8611866Y56641395D01*
X8579160Y56614720D01*
X8546205Y56588413D01*
X8542862Y56585117D01*
X8542794Y56585061D01*
X8542742Y56584998D01*
X8541664Y56583935D01*
X2166379Y50208651D01*
X2070735Y50190405D01*
X1965328Y50147818D01*
X1870200Y50085568D01*
X1788975Y50006027D01*
X1724747Y49912224D01*
X1679962Y49807732D01*
X1656325Y49696531D01*
X1654738Y49582857D01*
X-801086Y49582857D01*
X-801770Y58777300D01*
X587968Y58777300D01*
X499810Y58719611D01*
M02*
