G04 #@! TF.FileFunction,Paste,Top*
%FSLAX46Y46*%
G04 Gerber Fmt 4.6, Leading zero omitted, Abs format (unit mm)*
G04 Created by KiCad (PCBNEW 4.0.6) date 07/26/17 10:52:53*
%MOMM*%
%LPD*%
G01*
G04 APERTURE LIST*
%ADD10C,0.100000*%
%ADD11R,0.675000X1.080000*%
%ADD12R,1.080000X0.675000*%
%ADD13R,0.630000X0.810000*%
%ADD14R,0.810000X1.080000*%
%ADD15R,1.080000X0.810000*%
%ADD16R,1.170000X1.035000*%
%ADD17R,0.477000X0.252000*%
%ADD18R,0.765000X0.270000*%
%ADD19R,0.225000X0.607500*%
%ADD20R,0.517500X0.225000*%
%ADD21R,0.990000X1.710000*%
%ADD22R,0.675000X1.890000*%
%ADD23R,0.990000X0.900000*%
%ADD24R,0.585000X0.945000*%
G04 APERTURE END LIST*
D10*
G36*
X14416640Y32673937D02*
X14893937Y32196640D01*
X14130262Y31432965D01*
X13652965Y31910262D01*
X14416640Y32673937D01*
X14416640Y32673937D01*
G37*
G36*
X13073138Y31330435D02*
X13550435Y30853138D01*
X12786760Y30089463D01*
X12309463Y30566760D01*
X13073138Y31330435D01*
X13073138Y31330435D01*
G37*
G36*
X15432640Y31657937D02*
X15909937Y31180640D01*
X15146262Y30416965D01*
X14668965Y30894262D01*
X15432640Y31657937D01*
X15432640Y31657937D01*
G37*
G36*
X14089138Y30314435D02*
X14566435Y29837138D01*
X13802760Y29073463D01*
X13325463Y29550760D01*
X14089138Y30314435D01*
X14089138Y30314435D01*
G37*
D11*
X16040100Y27104300D03*
X16040100Y29004300D03*
X2794000Y21905000D03*
X2794000Y20005000D03*
X17437100Y27104300D03*
X17437100Y29004300D03*
D12*
X4760000Y28956000D03*
X2860000Y28956000D03*
X19624000Y17907000D03*
X21524000Y17907000D03*
X6665000Y16002000D03*
X4765000Y16002000D03*
X4760000Y27432000D03*
X2860000Y27432000D03*
D11*
X7747000Y11242000D03*
X7747000Y13142000D03*
X7747000Y4887000D03*
X7747000Y2987000D03*
D12*
X9972000Y127000D03*
X11872000Y127000D03*
X9972000Y1651000D03*
X11872000Y1651000D03*
X21636682Y3416680D03*
X23536682Y3416680D03*
D11*
X23293679Y9609817D03*
X23293679Y7709817D03*
D12*
X19218682Y3416680D03*
X17318682Y3416680D03*
X17771679Y12977817D03*
X19671679Y12977817D03*
D11*
X7717952Y9012470D03*
X7717952Y7112470D03*
D13*
X4318000Y21971000D03*
X4318000Y20671000D03*
D14*
X18923000Y27094000D03*
X18923000Y29294000D03*
X20574000Y27094000D03*
X20574000Y29294000D03*
X15546679Y10734817D03*
X15546679Y12934817D03*
D15*
X21685679Y12977817D03*
X23885679Y12977817D03*
D14*
X24892000Y10752000D03*
X24892000Y8552000D03*
D16*
X24526300Y28814000D03*
X24526300Y25464000D03*
D15*
X26076300Y24839000D03*
X26076300Y29439000D03*
D10*
G36*
X11075422Y26182566D02*
X11234521Y26341665D01*
X12061836Y25514350D01*
X11902737Y25355251D01*
X11075422Y26182566D01*
X11075422Y26182566D01*
G37*
G36*
X10721869Y25829013D02*
X10880968Y25988112D01*
X11708283Y25160797D01*
X11549184Y25001698D01*
X10721869Y25829013D01*
X10721869Y25829013D01*
G37*
G36*
X10368315Y25475459D02*
X10527414Y25634558D01*
X11354729Y24807243D01*
X11195630Y24648144D01*
X10368315Y25475459D01*
X10368315Y25475459D01*
G37*
G36*
X10014762Y25121906D02*
X10173861Y25281005D01*
X11001176Y24453690D01*
X10842077Y24294591D01*
X10014762Y25121906D01*
X10014762Y25121906D01*
G37*
G36*
X9661209Y24768353D02*
X9820308Y24927452D01*
X10647623Y24100137D01*
X10488524Y23941038D01*
X9661209Y24768353D01*
X9661209Y24768353D01*
G37*
G36*
X9307655Y24414799D02*
X9466754Y24573898D01*
X10294069Y23746583D01*
X10134970Y23587484D01*
X9307655Y24414799D01*
X9307655Y24414799D01*
G37*
G36*
X8954102Y24061246D02*
X9113201Y24220345D01*
X9940516Y23393030D01*
X9781417Y23233931D01*
X8954102Y24061246D01*
X8954102Y24061246D01*
G37*
G36*
X8600548Y23707692D02*
X8759647Y23866791D01*
X9586962Y23039476D01*
X9427863Y22880377D01*
X8600548Y23707692D01*
X8600548Y23707692D01*
G37*
G36*
X8246995Y23354139D02*
X8406094Y23513238D01*
X9233409Y22685923D01*
X9074310Y22526824D01*
X8246995Y23354139D01*
X8246995Y23354139D01*
G37*
G36*
X7893442Y23000586D02*
X8052541Y23159685D01*
X8879856Y22332370D01*
X8720757Y22173271D01*
X7893442Y23000586D01*
X7893442Y23000586D01*
G37*
G36*
X7539888Y22647032D02*
X7698987Y22806131D01*
X8526302Y21978816D01*
X8367203Y21819717D01*
X7539888Y22647032D01*
X7539888Y22647032D01*
G37*
G36*
X7186335Y22293479D02*
X7345434Y22452578D01*
X8172749Y21625263D01*
X8013650Y21466164D01*
X7186335Y22293479D01*
X7186335Y22293479D01*
G37*
G36*
X7345434Y19203422D02*
X7186335Y19362521D01*
X8013650Y20189836D01*
X8172749Y20030737D01*
X7345434Y19203422D01*
X7345434Y19203422D01*
G37*
G36*
X7698987Y18849869D02*
X7539888Y19008968D01*
X8367203Y19836283D01*
X8526302Y19677184D01*
X7698987Y18849869D01*
X7698987Y18849869D01*
G37*
G36*
X8052541Y18496315D02*
X7893442Y18655414D01*
X8720757Y19482729D01*
X8879856Y19323630D01*
X8052541Y18496315D01*
X8052541Y18496315D01*
G37*
G36*
X8406094Y18142762D02*
X8246995Y18301861D01*
X9074310Y19129176D01*
X9233409Y18970077D01*
X8406094Y18142762D01*
X8406094Y18142762D01*
G37*
G36*
X8759647Y17789209D02*
X8600548Y17948308D01*
X9427863Y18775623D01*
X9586962Y18616524D01*
X8759647Y17789209D01*
X8759647Y17789209D01*
G37*
G36*
X9113201Y17435655D02*
X8954102Y17594754D01*
X9781417Y18422069D01*
X9940516Y18262970D01*
X9113201Y17435655D01*
X9113201Y17435655D01*
G37*
G36*
X9466754Y17082102D02*
X9307655Y17241201D01*
X10134970Y18068516D01*
X10294069Y17909417D01*
X9466754Y17082102D01*
X9466754Y17082102D01*
G37*
G36*
X9820308Y16728548D02*
X9661209Y16887647D01*
X10488524Y17714962D01*
X10647623Y17555863D01*
X9820308Y16728548D01*
X9820308Y16728548D01*
G37*
G36*
X10173861Y16374995D02*
X10014762Y16534094D01*
X10842077Y17361409D01*
X11001176Y17202310D01*
X10173861Y16374995D01*
X10173861Y16374995D01*
G37*
G36*
X10527414Y16021442D02*
X10368315Y16180541D01*
X11195630Y17007856D01*
X11354729Y16848757D01*
X10527414Y16021442D01*
X10527414Y16021442D01*
G37*
G36*
X10880968Y15667888D02*
X10721869Y15826987D01*
X11549184Y16654302D01*
X11708283Y16495203D01*
X10880968Y15667888D01*
X10880968Y15667888D01*
G37*
G36*
X11234521Y15314335D02*
X11075422Y15473434D01*
X11902737Y16300749D01*
X12061836Y16141650D01*
X11234521Y15314335D01*
X11234521Y15314335D01*
G37*
G36*
X13338164Y16141650D02*
X13497263Y16300749D01*
X14324578Y15473434D01*
X14165479Y15314335D01*
X13338164Y16141650D01*
X13338164Y16141650D01*
G37*
G36*
X13691717Y16495203D02*
X13850816Y16654302D01*
X14678131Y15826987D01*
X14519032Y15667888D01*
X13691717Y16495203D01*
X13691717Y16495203D01*
G37*
G36*
X14045271Y16848757D02*
X14204370Y17007856D01*
X15031685Y16180541D01*
X14872586Y16021442D01*
X14045271Y16848757D01*
X14045271Y16848757D01*
G37*
G36*
X14398824Y17202310D02*
X14557923Y17361409D01*
X15385238Y16534094D01*
X15226139Y16374995D01*
X14398824Y17202310D01*
X14398824Y17202310D01*
G37*
G36*
X14752377Y17555863D02*
X14911476Y17714962D01*
X15738791Y16887647D01*
X15579692Y16728548D01*
X14752377Y17555863D01*
X14752377Y17555863D01*
G37*
G36*
X15105931Y17909417D02*
X15265030Y18068516D01*
X16092345Y17241201D01*
X15933246Y17082102D01*
X15105931Y17909417D01*
X15105931Y17909417D01*
G37*
G36*
X15459484Y18262970D02*
X15618583Y18422069D01*
X16445898Y17594754D01*
X16286799Y17435655D01*
X15459484Y18262970D01*
X15459484Y18262970D01*
G37*
G36*
X15813038Y18616524D02*
X15972137Y18775623D01*
X16799452Y17948308D01*
X16640353Y17789209D01*
X15813038Y18616524D01*
X15813038Y18616524D01*
G37*
G36*
X16166591Y18970077D02*
X16325690Y19129176D01*
X17153005Y18301861D01*
X16993906Y18142762D01*
X16166591Y18970077D01*
X16166591Y18970077D01*
G37*
G36*
X16520144Y19323630D02*
X16679243Y19482729D01*
X17506558Y18655414D01*
X17347459Y18496315D01*
X16520144Y19323630D01*
X16520144Y19323630D01*
G37*
G36*
X16873698Y19677184D02*
X17032797Y19836283D01*
X17860112Y19008968D01*
X17701013Y18849869D01*
X16873698Y19677184D01*
X16873698Y19677184D01*
G37*
G36*
X17227251Y20030737D02*
X17386350Y20189836D01*
X18213665Y19362521D01*
X18054566Y19203422D01*
X17227251Y20030737D01*
X17227251Y20030737D01*
G37*
G36*
X17386350Y21466164D02*
X17227251Y21625263D01*
X18054566Y22452578D01*
X18213665Y22293479D01*
X17386350Y21466164D01*
X17386350Y21466164D01*
G37*
G36*
X17032797Y21819717D02*
X16873698Y21978816D01*
X17701013Y22806131D01*
X17860112Y22647032D01*
X17032797Y21819717D01*
X17032797Y21819717D01*
G37*
G36*
X16679243Y22173271D02*
X16520144Y22332370D01*
X17347459Y23159685D01*
X17506558Y23000586D01*
X16679243Y22173271D01*
X16679243Y22173271D01*
G37*
G36*
X16325690Y22526824D02*
X16166591Y22685923D01*
X16993906Y23513238D01*
X17153005Y23354139D01*
X16325690Y22526824D01*
X16325690Y22526824D01*
G37*
G36*
X15972137Y22880377D02*
X15813038Y23039476D01*
X16640353Y23866791D01*
X16799452Y23707692D01*
X15972137Y22880377D01*
X15972137Y22880377D01*
G37*
G36*
X15618583Y23233931D02*
X15459484Y23393030D01*
X16286799Y24220345D01*
X16445898Y24061246D01*
X15618583Y23233931D01*
X15618583Y23233931D01*
G37*
G36*
X15265030Y23587484D02*
X15105931Y23746583D01*
X15933246Y24573898D01*
X16092345Y24414799D01*
X15265030Y23587484D01*
X15265030Y23587484D01*
G37*
G36*
X14911476Y23941038D02*
X14752377Y24100137D01*
X15579692Y24927452D01*
X15738791Y24768353D01*
X14911476Y23941038D01*
X14911476Y23941038D01*
G37*
G36*
X14557923Y24294591D02*
X14398824Y24453690D01*
X15226139Y25281005D01*
X15385238Y25121906D01*
X14557923Y24294591D01*
X14557923Y24294591D01*
G37*
G36*
X14204370Y24648144D02*
X14045271Y24807243D01*
X14872586Y25634558D01*
X15031685Y25475459D01*
X14204370Y24648144D01*
X14204370Y24648144D01*
G37*
G36*
X13850816Y25001698D02*
X13691717Y25160797D01*
X14519032Y25988112D01*
X14678131Y25829013D01*
X13850816Y25001698D01*
X13850816Y25001698D01*
G37*
G36*
X13497263Y25355251D02*
X13338164Y25514350D01*
X14165479Y26341665D01*
X14324578Y26182566D01*
X13497263Y25355251D01*
X13497263Y25355251D01*
G37*
D17*
X11290000Y11792000D03*
X11290000Y12192000D03*
X11290000Y12592000D03*
X10554000Y12592000D03*
X10554000Y12192000D03*
X10554000Y11792000D03*
D18*
X9972000Y4687000D03*
X9972000Y4187000D03*
X9972000Y3687000D03*
X9972000Y3187000D03*
X11872000Y3187000D03*
X11872000Y3687000D03*
X11872000Y4187000D03*
X11872000Y4687000D03*
D19*
X21649682Y8165680D03*
X21149682Y8165680D03*
X20649682Y8165680D03*
X20149682Y8165680D03*
X19649682Y8165680D03*
X19149682Y8165680D03*
X18649682Y8165680D03*
X18149682Y8165680D03*
X17649682Y8165680D03*
X17149682Y8165680D03*
X21649682Y11290680D03*
X21149682Y11290680D03*
X20649682Y11290680D03*
X20149682Y11290680D03*
X19649682Y11290680D03*
X19149682Y11290680D03*
X18649682Y11290680D03*
X18149682Y11290680D03*
X17649682Y11290680D03*
X17149682Y11290680D03*
D20*
X21712182Y8978180D03*
X21712182Y9478180D03*
X21712182Y9978180D03*
X21712182Y10478180D03*
X17087182Y8978180D03*
X17087182Y9478180D03*
X17087182Y9978180D03*
X17087182Y10478180D03*
D18*
X11872000Y7324470D03*
X11872000Y7824470D03*
X11872000Y8324470D03*
X11872000Y8824470D03*
X9972000Y8824470D03*
X9972000Y8324470D03*
X9972000Y7824470D03*
X9972000Y7324470D03*
D10*
G36*
X10099523Y29267825D02*
X11308675Y30476977D01*
X12008711Y29776941D01*
X10799559Y28567789D01*
X10099523Y29267825D01*
X10099523Y29267825D01*
G37*
G36*
X11867289Y27500059D02*
X13076441Y28709211D01*
X13776477Y28009175D01*
X12567325Y26800023D01*
X11867289Y27500059D01*
X11867289Y27500059D01*
G37*
D21*
X21677682Y5575680D03*
X19177682Y5575680D03*
D22*
X19558000Y36366000D03*
X19558000Y32766000D03*
X20828000Y36366000D03*
X20828000Y32766000D03*
X22098000Y36366000D03*
X22098000Y32766000D03*
X23368000Y36366000D03*
X23368000Y32766000D03*
X24638000Y36366000D03*
X24638000Y32766000D03*
D23*
X2424800Y42494200D03*
X724800Y42494200D03*
X2385800Y46672500D03*
X685800Y46672500D03*
X2246100Y50812700D03*
X546100Y50812700D03*
D24*
X6207800Y44279200D03*
X4307800Y44279200D03*
X5257800Y41979200D03*
X6207800Y48464500D03*
X4307800Y48464500D03*
X5257800Y46164500D03*
X6195100Y52597700D03*
X4295100Y52597700D03*
X5245100Y50297700D03*
D23*
X724800Y44272200D03*
X2424800Y44272200D03*
X685800Y48450500D03*
X2385800Y48450500D03*
X546100Y52590700D03*
X2246100Y52590700D03*
D14*
X12954000Y-4656000D03*
X12954000Y-2456000D03*
X15621000Y-4656000D03*
X15621000Y-2456000D03*
M02*
