G04 #@! TF.FileFunction,Copper,L2,Bot,Signal*
%FSLAX46Y46*%
G04 Gerber Fmt 4.6, Leading zero omitted, Abs format (unit mm)*
G04 Created by KiCad (PCBNEW 4.0.7-e2-6376~58~ubuntu16.04.1) date Fri Dec  8 09:16:51 2017*
%MOMM*%
%LPD*%
G01*
G04 APERTURE LIST*
%ADD10C,0.100000*%
%ADD11R,1.700000X1.700000*%
%ADD12O,1.700000X1.700000*%
%ADD13C,1.200000*%
%ADD14C,1.700000*%
%ADD15C,0.500000*%
%ADD16C,0.254000*%
%ADD17C,0.381000*%
%ADD18C,0.253000*%
G04 APERTURE END LIST*
D10*
D11*
X12319000Y56261000D03*
D12*
X14859000Y56261000D03*
X17399000Y56261000D03*
D13*
X10656000Y-23011400D03*
X15506000Y-23011400D03*
D14*
X9456000Y-25661400D03*
X16706000Y-25661400D03*
D11*
X25628600Y-23799800D03*
D12*
X25628600Y-21259800D03*
X25628600Y-18719800D03*
X25628600Y-16179800D03*
X25628600Y-13639800D03*
X25628600Y-11099800D03*
D11*
X12192000Y48704500D03*
D12*
X12192000Y51244500D03*
D15*
X13525500Y20320000D03*
X12573000Y20320000D03*
X12573000Y21145500D03*
X13525500Y21145500D03*
X15176500Y32893000D03*
X16192500Y31877000D03*
X17843500Y25146000D03*
X17145000Y24447500D03*
X7810500Y25209500D03*
X8826500Y25209500D03*
X15621000Y21145500D03*
X15049500Y21717000D03*
X12077700Y-12319000D03*
X11531600Y-12865100D03*
X10769600Y-12852400D03*
X10033000Y-12865100D03*
X18975679Y9421817D03*
X19737679Y9421817D03*
X4064000Y29311600D03*
X21005800Y2082800D03*
X-127000Y22352000D03*
X1270000Y-1270000D03*
X-127000Y3175000D03*
X-127000Y6731000D03*
X-127000Y11938000D03*
X21564600Y30886400D03*
X21564600Y28194000D03*
X5842000Y17335500D03*
X2235200Y41287700D03*
X2235200Y45466000D03*
X2235200Y49631600D03*
X15494000Y26035000D03*
X11938000Y-2286000D03*
X16637000Y-2286000D03*
X15244663Y26982831D03*
X19558000Y38100000D03*
X23241000Y6350000D03*
X18338800Y32435800D03*
X13508821Y24384000D03*
X20421600Y34798000D03*
X13716000Y23622000D03*
X13055600Y9753600D03*
X12573000Y1651000D03*
X13208000Y13208000D03*
X11938000Y-127000D03*
X11938000Y5207000D03*
X11938000Y11303000D03*
X13208000Y13970000D03*
X25082500Y43624500D03*
X17653000Y41338500D03*
X13030200Y26047700D03*
X7010400Y44284900D03*
X11176000Y23241000D03*
X6985000Y48475900D03*
X12065000Y23368000D03*
X8953500Y31686500D03*
X8509000Y20955000D03*
X9326093Y34472093D03*
X9257686Y20955000D03*
X8763000Y36830000D03*
X10210186Y20751186D03*
X11684000Y18161000D03*
X9207500Y37338000D03*
X13258800Y3657600D03*
X13309600Y14884400D03*
X17716500Y15976600D03*
X13360400Y-15913100D03*
X13395245Y-16626941D03*
X18084187Y16628907D03*
X7010400Y52590700D03*
X12890500Y23291800D03*
X17274047Y-10871200D03*
X6502400Y-17043400D03*
X22529800Y21082000D03*
X15113000Y-20764500D03*
X17907000Y48465500D03*
X22733000Y49974500D03*
X13843000Y47053500D03*
X22733000Y52006500D03*
X15036800Y2743200D03*
X14325600Y9296400D03*
X12954000Y15544800D03*
D16*
X13525500Y20320000D02*
X13525500Y21145500D01*
X12573000Y21145500D02*
X12573000Y20320000D01*
X15049500Y21717000D02*
X14097000Y21717000D01*
X14097000Y21717000D02*
X13525500Y21145500D01*
X16192500Y31877000D02*
X15176500Y32893000D01*
X17145000Y24447500D02*
X17843500Y25146000D01*
X8826500Y25209500D02*
X7810500Y25209500D01*
X15049500Y21717000D02*
X15621000Y21145500D01*
X11531600Y-12865100D02*
X12077700Y-12319000D01*
X10033000Y-12865100D02*
X10756900Y-12865100D01*
X10756900Y-12865100D02*
X10769600Y-12852400D01*
X19737679Y9421817D02*
X18975679Y9421817D01*
D17*
X4064000Y29311600D02*
X2946400Y28194000D01*
X2946400Y28194000D02*
X-127000Y28194000D01*
X22733000Y3810000D02*
X21005800Y2082800D01*
X21005800Y2082800D02*
X16637000Y-2286000D01*
X-127000Y15748000D02*
X-127000Y22352000D01*
X-127000Y22352000D02*
X-127000Y28194000D01*
X-127000Y28194000D02*
X-127000Y38925500D01*
X-127000Y38925500D02*
X2235200Y41287700D01*
X2286000Y-2286000D02*
X1270000Y-1270000D01*
X1270000Y-1270000D02*
X-127000Y127000D01*
X-127000Y127000D02*
X-127000Y3175000D01*
X-127000Y3175000D02*
X-127000Y6731000D01*
X-127000Y6731000D02*
X-127000Y11938000D01*
X-127000Y11938000D02*
X-127000Y15748000D01*
X11938000Y-2286000D02*
X2286000Y-2286000D01*
X-127000Y15748000D02*
X1460500Y17335500D01*
X1460500Y17335500D02*
X4508500Y17335500D01*
D16*
X21564600Y30886400D02*
X21814599Y31136399D01*
X21814599Y31136399D02*
X21814599Y35843401D01*
X21814599Y35843401D02*
X19807999Y37850001D01*
X19807999Y37850001D02*
X19558000Y38100000D01*
D17*
X21564600Y30886400D02*
X21564600Y28194000D01*
X5842000Y17335500D02*
X9080500Y17335500D01*
X9080500Y17335500D02*
X9348923Y17335500D01*
X15494000Y23480577D02*
X16383000Y22591577D01*
X16383000Y22591577D02*
X16383000Y21030006D01*
X16383000Y21030006D02*
X12688494Y17335500D01*
X12688494Y17335500D02*
X9080500Y17335500D01*
X4508500Y17335500D02*
X5842000Y17335500D01*
D16*
X12319000Y56261000D02*
X8864600Y56261000D01*
X8864600Y56261000D02*
X2235200Y49631600D01*
D17*
X23241000Y6350000D02*
X22733000Y5842000D01*
X22733000Y5842000D02*
X22733000Y3810000D01*
X19558000Y26035000D02*
X21564600Y28041600D01*
X21564600Y28041600D02*
X21564600Y28194000D01*
X15494000Y26035000D02*
X19558000Y26035000D01*
X15494000Y23480577D02*
X15494000Y26035000D01*
D16*
X2235200Y45466000D02*
X2235200Y41287700D01*
X2235200Y49631600D02*
X2235200Y45466000D01*
D17*
X11938000Y-2286000D02*
X16637000Y-2286000D01*
D16*
X14846300Y28943300D02*
X18338800Y32435800D01*
X13508821Y24384000D02*
X14715262Y25590441D01*
X14715262Y25590441D02*
X14715262Y28812262D01*
X14715262Y28812262D02*
X14846300Y28943300D01*
X13483410Y24409411D02*
X13508821Y24384000D01*
X20421600Y34798000D02*
X19917486Y34798000D01*
X19917486Y34798000D02*
X17170400Y32050914D01*
X17170400Y32050914D02*
X17170400Y32029400D01*
X17170400Y32029400D02*
X14308852Y29167852D01*
X13363650Y23622000D02*
X13716000Y23622000D01*
X14308852Y29167852D02*
X14308852Y25967545D01*
X14308852Y25967545D02*
X12979411Y24638104D01*
X12979411Y24638104D02*
X12979411Y24006239D01*
X12979411Y24006239D02*
X13363650Y23622000D01*
X12573000Y9499600D02*
X12573000Y12573000D01*
X12573000Y7620000D02*
X12573000Y9499600D01*
X12573000Y9499600D02*
X12801600Y9499600D01*
X12801600Y9499600D02*
X13055600Y9753600D01*
X12573000Y1651000D02*
X12573000Y7620000D01*
X12573000Y12573000D02*
X13208000Y13208000D01*
X11938000Y5207000D02*
X11938000Y-127000D01*
X11938000Y11303000D02*
X11938000Y5207000D01*
X11938000Y12700000D02*
X11938000Y11303000D01*
X13208000Y13970000D02*
X11938000Y12700000D01*
X25082500Y50440514D02*
X25082500Y43624500D01*
X17399000Y56261000D02*
X19262014Y56261000D01*
X19262014Y56261000D02*
X25082500Y50440514D01*
X12877820Y36322000D02*
X12877820Y26289000D01*
X17653000Y41338500D02*
X17299447Y41338500D01*
X17299447Y41338500D02*
X12877820Y36916873D01*
X12877820Y36916873D02*
X12877820Y36322000D01*
X13030200Y26047700D02*
X12877820Y26200080D01*
X12877820Y26200080D02*
X12877820Y26289000D01*
X11176000Y23241000D02*
X11645890Y23710890D01*
X11645890Y23710890D02*
X11658590Y23710890D01*
X11658590Y23710890D02*
X11658590Y39636710D01*
X11658590Y39636710D02*
X11544300Y39751000D01*
X11544300Y39751000D02*
X7010400Y44284900D01*
X12065000Y23368000D02*
X12065000Y39805050D01*
X12065000Y39805050D02*
X7708900Y44161150D01*
X7708900Y44161150D02*
X7708900Y47752000D01*
X7708900Y47752000D02*
X7556500Y47904400D01*
X7556500Y47904400D02*
X6985000Y48475900D01*
X9355901Y21801901D02*
X9355901Y30988000D01*
X9355901Y30988000D02*
X9355901Y31284099D01*
X9355901Y31284099D02*
X8953500Y31686500D01*
X8509000Y20955000D02*
X9355901Y21801901D01*
X9257686Y20955000D02*
X9762311Y21459625D01*
X9762311Y34035875D02*
X9576092Y34222094D01*
X9762311Y21459625D02*
X9762311Y34035875D01*
X9576092Y34222094D02*
X9326093Y34472093D01*
X8763000Y36830000D02*
X8763000Y35783872D01*
X8763000Y35783872D02*
X10210186Y34336686D01*
X10210186Y34336686D02*
X10210186Y33197186D01*
X10210186Y20751186D02*
X10210186Y33197186D01*
X9207500Y37338000D02*
X10616596Y35928904D01*
X10616596Y35928904D02*
X10616596Y21128290D01*
X10616596Y21128290D02*
X11684000Y20060886D01*
X11684000Y20060886D02*
X11684000Y18161000D01*
X13309600Y14884400D02*
X13737401Y14456599D01*
X13737401Y14456599D02*
X13737401Y4136201D01*
X13737401Y4136201D02*
X13258800Y3657600D01*
X13360400Y-15913100D02*
X16243300Y-13030200D01*
X16243300Y-13030200D02*
X16252114Y-13030200D01*
X16252114Y-13030200D02*
X21793200Y-7489114D01*
X21793200Y-7489114D02*
X21793200Y558800D01*
X21793200Y558800D02*
X26009600Y4775200D01*
X26009600Y4775200D02*
X26009600Y8128744D01*
X26009600Y8128744D02*
X18161744Y15976600D01*
X18161744Y15976600D02*
X17716500Y15976600D01*
X13395245Y-16626941D02*
X22199610Y-7822576D01*
X22199610Y-7822576D02*
X22199610Y390460D01*
X22199610Y390460D02*
X26416010Y4606860D01*
X26416010Y4606860D02*
X26416010Y8297084D01*
X26416010Y8297084D02*
X19431000Y15282094D01*
X19431000Y15282094D02*
X18084187Y16628907D01*
X7010400Y52590700D02*
X8128000Y51473100D01*
X8128000Y51473100D02*
X8128000Y44348400D01*
X8128000Y44348400D02*
X12471410Y40004990D01*
X12471410Y40004990D02*
X12471410Y23710890D01*
X12471410Y23710890D02*
X12890500Y23291800D01*
D17*
X17274047Y-10871200D02*
X11101847Y-17043400D01*
X11101847Y-17043400D02*
X6855953Y-17043400D01*
X6855953Y-17043400D02*
X6502400Y-17043400D01*
D16*
X15113000Y-20764500D02*
X15113000Y-15494000D01*
X26822420Y4438520D02*
X26822420Y8674011D01*
X15113000Y-15494000D02*
X22606020Y-8000980D01*
X22606020Y-8000980D02*
X22606020Y222120D01*
X22606020Y222120D02*
X26822420Y4438520D01*
X26822420Y8674011D02*
X21082000Y14414431D01*
X21082000Y14414431D02*
X21082000Y19634200D01*
X21082000Y19634200D02*
X22529800Y21082000D01*
X22733000Y49974500D02*
X21224000Y48465500D01*
X21224000Y48465500D02*
X17907000Y48465500D01*
X22733000Y52006500D02*
X18796000Y52006500D01*
X18796000Y52006500D02*
X13843000Y47053500D01*
X14325600Y9296400D02*
X14325600Y3454400D01*
X14325600Y3454400D02*
X15036800Y2743200D01*
X12954000Y15544800D02*
X13432714Y15544800D01*
X13432714Y15544800D02*
X14325600Y14651914D01*
X14325600Y14651914D02*
X14325600Y9296400D01*
D18*
G36*
X499810Y58719611D02*
X299487Y58523440D01*
X141082Y58292096D01*
X30629Y58034390D01*
X-27665Y57760138D01*
X-31580Y57479787D01*
X19034Y57204014D01*
X122248Y56943325D01*
X274132Y56707648D01*
X468899Y56505960D01*
X699132Y56345944D01*
X956061Y56233695D01*
X1229899Y56173488D01*
X1510216Y56167616D01*
X1786335Y56216303D01*
X2047739Y56317695D01*
X2284470Y56467930D01*
X2487513Y56661284D01*
X2649132Y56890394D01*
X2763172Y57146533D01*
X2825290Y57419944D01*
X2829762Y57740189D01*
X2775302Y58015228D01*
X2668458Y58274451D01*
X2513299Y58507985D01*
X2315735Y58706933D01*
X2211412Y58777300D01*
X23387968Y58777300D01*
X23299810Y58719611D01*
X23099487Y58523440D01*
X22941082Y58292096D01*
X22830629Y58034390D01*
X22772335Y57760138D01*
X22768420Y57479787D01*
X22819034Y57204014D01*
X22922248Y56943325D01*
X23074132Y56707648D01*
X23268899Y56505960D01*
X23499132Y56345944D01*
X23756061Y56233695D01*
X24029899Y56173488D01*
X24310216Y56167616D01*
X24586335Y56216303D01*
X24847739Y56317695D01*
X25084470Y56467930D01*
X25287513Y56661284D01*
X25449132Y56890394D01*
X25563172Y57146533D01*
X25625290Y57419944D01*
X25629762Y57740189D01*
X25575302Y58015228D01*
X25468458Y58274451D01*
X25313299Y58507985D01*
X25115735Y58706933D01*
X25011412Y58777300D01*
X26713703Y58777300D01*
X26802525Y58768591D01*
X26868915Y58748547D01*
X26930154Y58715985D01*
X26983898Y58672153D01*
X27028107Y58618713D01*
X27061092Y58557709D01*
X27081601Y58491455D01*
X27090801Y58403916D01*
X27095182Y9047121D01*
X21538700Y14603603D01*
X21538700Y19445028D01*
X22599249Y20505578D01*
X22686447Y20520953D01*
X22792438Y20562064D01*
X22888426Y20622980D01*
X22970753Y20701379D01*
X23036285Y20794276D01*
X23082525Y20898133D01*
X23107712Y21008993D01*
X23109525Y21138843D01*
X23087443Y21250362D01*
X23044121Y21355470D01*
X22981209Y21450160D01*
X22901103Y21530828D01*
X22806853Y21594400D01*
X22702051Y21638454D01*
X22590688Y21661314D01*
X22477006Y21662108D01*
X22365335Y21640805D01*
X22259928Y21598218D01*
X22164800Y21535968D01*
X22083575Y21456427D01*
X22019347Y21362624D01*
X21974562Y21258132D01*
X21951482Y21149554D01*
X20759064Y19957136D01*
X20732251Y19924493D01*
X20705171Y19892220D01*
X20704016Y19890119D01*
X20702489Y19888260D01*
X20682541Y19851057D01*
X20662231Y19814113D01*
X20661505Y19811823D01*
X20660370Y19809707D01*
X20648035Y19769362D01*
X20635280Y19729153D01*
X20635012Y19726768D01*
X20634310Y19724470D01*
X20630044Y19682476D01*
X20625345Y19640577D01*
X20625312Y19635882D01*
X20625303Y19635795D01*
X20625311Y19635714D01*
X20625300Y19634200D01*
X20625300Y14733666D01*
X18661615Y16697351D01*
X18641830Y16797269D01*
X18598508Y16902377D01*
X18535596Y16997067D01*
X18455490Y17077735D01*
X18361240Y17141307D01*
X18256438Y17185361D01*
X18145075Y17208221D01*
X18031393Y17209015D01*
X17919722Y17187712D01*
X17814315Y17145125D01*
X17719187Y17082875D01*
X17637962Y17003334D01*
X17573734Y16909531D01*
X17528949Y16805039D01*
X17505312Y16693838D01*
X17503725Y16580164D01*
X17514708Y16520324D01*
X17446628Y16492818D01*
X17351500Y16430568D01*
X17270275Y16351027D01*
X17206047Y16257224D01*
X17161262Y16152732D01*
X17137625Y16041531D01*
X17136038Y15927857D01*
X17156560Y15816040D01*
X17198411Y15710338D01*
X17259995Y15614778D01*
X17338967Y15533000D01*
X17432319Y15468119D01*
X17536496Y15422605D01*
X17647529Y15398193D01*
X17761189Y15395812D01*
X17873147Y15415553D01*
X17979138Y15456664D01*
X18013807Y15478665D01*
X25552900Y7939573D01*
X25552900Y4964372D01*
X21470264Y881736D01*
X21443451Y849093D01*
X21416371Y816820D01*
X21415216Y814719D01*
X21413689Y812860D01*
X21393741Y775657D01*
X21373431Y738713D01*
X21372705Y736423D01*
X21371570Y734307D01*
X21359235Y693962D01*
X21346480Y653753D01*
X21346212Y651368D01*
X21345510Y649070D01*
X21341244Y607076D01*
X21336545Y565177D01*
X21336512Y560482D01*
X21336503Y560395D01*
X21336511Y560314D01*
X21336500Y558800D01*
X21336500Y-7299942D01*
X17848535Y-10787907D01*
X17831690Y-10702838D01*
X17788368Y-10597730D01*
X17725456Y-10503040D01*
X17645350Y-10422372D01*
X17551100Y-10358800D01*
X17446298Y-10314746D01*
X17334935Y-10291886D01*
X17221253Y-10291092D01*
X17109582Y-10312395D01*
X17004175Y-10354982D01*
X16909047Y-10417232D01*
X16827822Y-10496773D01*
X16763594Y-10590576D01*
X16722037Y-10687536D01*
X10886373Y-16523200D01*
X6760897Y-16523200D01*
X6674651Y-16486946D01*
X6563288Y-16464086D01*
X6449606Y-16463292D01*
X6337935Y-16484595D01*
X6232528Y-16527182D01*
X6137400Y-16589432D01*
X6056175Y-16668973D01*
X5991947Y-16762776D01*
X5947162Y-16867268D01*
X5923525Y-16978469D01*
X5921938Y-17092143D01*
X5942460Y-17203960D01*
X5984311Y-17309662D01*
X6045895Y-17405222D01*
X6124867Y-17487000D01*
X6218219Y-17551881D01*
X6322396Y-17597395D01*
X6433429Y-17621807D01*
X6547089Y-17624188D01*
X6659047Y-17604447D01*
X6764357Y-17563600D01*
X11101847Y-17563600D01*
X11149656Y-17558912D01*
X11197538Y-17554723D01*
X11200164Y-17553960D01*
X11202888Y-17553693D01*
X11248935Y-17539791D01*
X11295032Y-17526398D01*
X11297457Y-17525141D01*
X11300080Y-17524349D01*
X11342568Y-17501758D01*
X11385168Y-17479676D01*
X11387303Y-17477972D01*
X11389721Y-17476686D01*
X11426998Y-17446284D01*
X11464512Y-17416337D01*
X11468316Y-17412586D01*
X11468398Y-17412519D01*
X11468460Y-17412444D01*
X11469684Y-17411237D01*
X12802389Y-16078532D01*
X12842311Y-16179362D01*
X12903895Y-16274922D01*
X12921321Y-16292967D01*
X12884792Y-16346317D01*
X12840007Y-16450809D01*
X12816370Y-16562010D01*
X12814783Y-16675684D01*
X12835305Y-16787501D01*
X12877156Y-16893203D01*
X12938740Y-16988763D01*
X13017712Y-17070541D01*
X13111064Y-17135422D01*
X13215241Y-17180936D01*
X13326274Y-17205348D01*
X13439934Y-17207729D01*
X13551892Y-17187988D01*
X13657883Y-17146877D01*
X13753871Y-17085961D01*
X13836198Y-17007562D01*
X13901730Y-16914665D01*
X13947970Y-16810808D01*
X13973157Y-16699948D01*
X13973228Y-16694830D01*
X14656300Y-16011758D01*
X14656300Y-20405371D01*
X14602547Y-20483876D01*
X14557762Y-20588368D01*
X14534125Y-20699569D01*
X14532538Y-20813243D01*
X14553060Y-20925060D01*
X14594911Y-21030762D01*
X14656495Y-21126322D01*
X14735467Y-21208100D01*
X14828819Y-21272981D01*
X14932996Y-21318495D01*
X15044029Y-21342907D01*
X15157689Y-21345288D01*
X15269647Y-21325547D01*
X15375638Y-21284436D01*
X15427435Y-21251564D01*
X24443221Y-21251564D01*
X24464088Y-21480854D01*
X24529093Y-21701723D01*
X24635761Y-21905760D01*
X24780029Y-22085193D01*
X24956400Y-22233186D01*
X25158159Y-22344104D01*
X25377619Y-22413721D01*
X25606421Y-22439385D01*
X25622892Y-22439500D01*
X25634308Y-22439500D01*
X25863446Y-22417033D01*
X26083857Y-22350487D01*
X26287144Y-22242397D01*
X26465565Y-22096881D01*
X26612324Y-21919480D01*
X26721830Y-21716952D01*
X26789913Y-21497012D01*
X26813979Y-21268036D01*
X26793112Y-21038746D01*
X26728107Y-20817877D01*
X26621439Y-20613840D01*
X26477171Y-20434407D01*
X26300800Y-20286414D01*
X26099041Y-20175496D01*
X25879581Y-20105879D01*
X25650779Y-20080215D01*
X25634308Y-20080100D01*
X25622892Y-20080100D01*
X25393754Y-20102567D01*
X25173343Y-20169113D01*
X24970056Y-20277203D01*
X24791635Y-20422719D01*
X24644876Y-20600120D01*
X24535370Y-20802648D01*
X24467287Y-21022588D01*
X24443221Y-21251564D01*
X15427435Y-21251564D01*
X15471626Y-21223520D01*
X15553953Y-21145121D01*
X15619485Y-21052224D01*
X15665725Y-20948367D01*
X15690912Y-20837507D01*
X15692725Y-20707657D01*
X15670643Y-20596138D01*
X15627321Y-20491030D01*
X15569700Y-20404304D01*
X15569700Y-18711564D01*
X24443221Y-18711564D01*
X24464088Y-18940854D01*
X24529093Y-19161723D01*
X24635761Y-19365760D01*
X24780029Y-19545193D01*
X24956400Y-19693186D01*
X25158159Y-19804104D01*
X25377619Y-19873721D01*
X25606421Y-19899385D01*
X25622892Y-19899500D01*
X25634308Y-19899500D01*
X25863446Y-19877033D01*
X26083857Y-19810487D01*
X26287144Y-19702397D01*
X26465565Y-19556881D01*
X26612324Y-19379480D01*
X26721830Y-19176952D01*
X26789913Y-18957012D01*
X26813979Y-18728036D01*
X26793112Y-18498746D01*
X26728107Y-18277877D01*
X26621439Y-18073840D01*
X26477171Y-17894407D01*
X26300800Y-17746414D01*
X26099041Y-17635496D01*
X25879581Y-17565879D01*
X25650779Y-17540215D01*
X25634308Y-17540100D01*
X25622892Y-17540100D01*
X25393754Y-17562567D01*
X25173343Y-17629113D01*
X24970056Y-17737203D01*
X24791635Y-17882719D01*
X24644876Y-18060120D01*
X24535370Y-18262648D01*
X24467287Y-18482588D01*
X24443221Y-18711564D01*
X15569700Y-18711564D01*
X15569700Y-16171564D01*
X24443221Y-16171564D01*
X24464088Y-16400854D01*
X24529093Y-16621723D01*
X24635761Y-16825760D01*
X24780029Y-17005193D01*
X24956400Y-17153186D01*
X25158159Y-17264104D01*
X25377619Y-17333721D01*
X25606421Y-17359385D01*
X25622892Y-17359500D01*
X25634308Y-17359500D01*
X25863446Y-17337033D01*
X26083857Y-17270487D01*
X26287144Y-17162397D01*
X26465565Y-17016881D01*
X26612324Y-16839480D01*
X26721830Y-16636952D01*
X26789913Y-16417012D01*
X26813979Y-16188036D01*
X26793112Y-15958746D01*
X26728107Y-15737877D01*
X26621439Y-15533840D01*
X26477171Y-15354407D01*
X26300800Y-15206414D01*
X26099041Y-15095496D01*
X25879581Y-15025879D01*
X25650779Y-15000215D01*
X25634308Y-15000100D01*
X25622892Y-15000100D01*
X25393754Y-15022567D01*
X25173343Y-15089113D01*
X24970056Y-15197203D01*
X24791635Y-15342719D01*
X24644876Y-15520120D01*
X24535370Y-15722648D01*
X24467287Y-15942588D01*
X24443221Y-16171564D01*
X15569700Y-16171564D01*
X15569700Y-15683172D01*
X17621307Y-13631564D01*
X24443221Y-13631564D01*
X24464088Y-13860854D01*
X24529093Y-14081723D01*
X24635761Y-14285760D01*
X24780029Y-14465193D01*
X24956400Y-14613186D01*
X25158159Y-14724104D01*
X25377619Y-14793721D01*
X25606421Y-14819385D01*
X25622892Y-14819500D01*
X25634308Y-14819500D01*
X25863446Y-14797033D01*
X26083857Y-14730487D01*
X26287144Y-14622397D01*
X26465565Y-14476881D01*
X26612324Y-14299480D01*
X26721830Y-14096952D01*
X26789913Y-13877012D01*
X26813979Y-13648036D01*
X26793112Y-13418746D01*
X26728107Y-13197877D01*
X26621439Y-12993840D01*
X26477171Y-12814407D01*
X26300800Y-12666414D01*
X26099041Y-12555496D01*
X25879581Y-12485879D01*
X25650779Y-12460215D01*
X25634308Y-12460100D01*
X25622892Y-12460100D01*
X25393754Y-12482567D01*
X25173343Y-12549113D01*
X24970056Y-12657203D01*
X24791635Y-12802719D01*
X24644876Y-12980120D01*
X24535370Y-13182648D01*
X24467287Y-13402588D01*
X24443221Y-13631564D01*
X17621307Y-13631564D01*
X20161307Y-11091564D01*
X24443221Y-11091564D01*
X24464088Y-11320854D01*
X24529093Y-11541723D01*
X24635761Y-11745760D01*
X24780029Y-11925193D01*
X24956400Y-12073186D01*
X25158159Y-12184104D01*
X25377619Y-12253721D01*
X25606421Y-12279385D01*
X25622892Y-12279500D01*
X25634308Y-12279500D01*
X25863446Y-12257033D01*
X26083857Y-12190487D01*
X26287144Y-12082397D01*
X26465565Y-11936881D01*
X26612324Y-11759480D01*
X26721830Y-11556952D01*
X26789913Y-11337012D01*
X26813979Y-11108036D01*
X26793112Y-10878746D01*
X26728107Y-10657877D01*
X26621439Y-10453840D01*
X26477171Y-10274407D01*
X26300800Y-10126414D01*
X26099041Y-10015496D01*
X25879581Y-9945879D01*
X25650779Y-9920215D01*
X25634308Y-9920100D01*
X25622892Y-9920100D01*
X25393754Y-9942567D01*
X25173343Y-10009113D01*
X24970056Y-10117203D01*
X24791635Y-10262719D01*
X24644876Y-10440120D01*
X24535370Y-10642648D01*
X24467287Y-10862588D01*
X24443221Y-11091564D01*
X20161307Y-11091564D01*
X22928956Y-8323915D01*
X22955749Y-8291297D01*
X22982849Y-8259000D01*
X22984004Y-8256899D01*
X22985531Y-8255040D01*
X23005479Y-8217837D01*
X23025789Y-8180893D01*
X23026515Y-8178603D01*
X23027650Y-8176487D01*
X23039985Y-8136142D01*
X23052740Y-8095933D01*
X23053008Y-8093548D01*
X23053710Y-8091250D01*
X23057975Y-8049260D01*
X23062675Y-8007357D01*
X23062708Y-8002661D01*
X23062717Y-8002574D01*
X23062709Y-8002489D01*
X23062720Y-8000980D01*
X23062720Y32948D01*
X27095624Y4065852D01*
X27098418Y-27417301D01*
X27089711Y-27506106D01*
X27069666Y-27572497D01*
X27037105Y-27633734D01*
X26993272Y-27687479D01*
X26939835Y-27731686D01*
X26878829Y-27764672D01*
X26812574Y-27785181D01*
X26725050Y-27794380D01*
X25124049Y-27794380D01*
X25287513Y-27638716D01*
X25449132Y-27409606D01*
X25563172Y-27153467D01*
X25625290Y-26880056D01*
X25629762Y-26559811D01*
X25575302Y-26284772D01*
X25468458Y-26025549D01*
X25313299Y-25792015D01*
X25115735Y-25593067D01*
X24883290Y-25436281D01*
X24624820Y-25327630D01*
X24350167Y-25271252D01*
X24069796Y-25269295D01*
X23794383Y-25321832D01*
X23534421Y-25426864D01*
X23299810Y-25580389D01*
X23099487Y-25776560D01*
X22941082Y-26007904D01*
X22830629Y-26265610D01*
X22772335Y-26539862D01*
X22768420Y-26820213D01*
X22819034Y-27095986D01*
X22922248Y-27356675D01*
X23074132Y-27592352D01*
X23268899Y-27794040D01*
X23269388Y-27794380D01*
X2186286Y-27794380D01*
X2284470Y-27732070D01*
X2487513Y-27538716D01*
X2649132Y-27309606D01*
X2763172Y-27053467D01*
X2825290Y-26780056D01*
X2829762Y-26459811D01*
X2775302Y-26184772D01*
X2668458Y-25925549D01*
X2558862Y-25760592D01*
X8274749Y-25760592D01*
X8316513Y-25988143D01*
X8401679Y-26203248D01*
X8527004Y-26397714D01*
X8687713Y-26564134D01*
X8877687Y-26696169D01*
X9089689Y-26788790D01*
X9315643Y-26838469D01*
X9546943Y-26843314D01*
X9774780Y-26803141D01*
X9990474Y-26719478D01*
X10185810Y-26595514D01*
X10353348Y-26435970D01*
X10486706Y-26246923D01*
X10580805Y-26035573D01*
X10632061Y-25809971D01*
X10632750Y-25760592D01*
X15524749Y-25760592D01*
X15566513Y-25988143D01*
X15651679Y-26203248D01*
X15777004Y-26397714D01*
X15937713Y-26564134D01*
X16127687Y-26696169D01*
X16339689Y-26788790D01*
X16565643Y-26838469D01*
X16796943Y-26843314D01*
X17024780Y-26803141D01*
X17240474Y-26719478D01*
X17435810Y-26595514D01*
X17603348Y-26435970D01*
X17736706Y-26246923D01*
X17830805Y-26035573D01*
X17882061Y-25809971D01*
X17885751Y-25545724D01*
X17840814Y-25318779D01*
X17752653Y-25104885D01*
X17624625Y-24912187D01*
X17461607Y-24748027D01*
X17269809Y-24618658D01*
X17056535Y-24529005D01*
X16829909Y-24482486D01*
X16598563Y-24480871D01*
X16371310Y-24524222D01*
X16156805Y-24610887D01*
X15963219Y-24737567D01*
X15797925Y-24899434D01*
X15667219Y-25090325D01*
X15576080Y-25302968D01*
X15527980Y-25529264D01*
X15524749Y-25760592D01*
X10632750Y-25760592D01*
X10635751Y-25545724D01*
X10590814Y-25318779D01*
X10502653Y-25104885D01*
X10374625Y-24912187D01*
X10211607Y-24748027D01*
X10019809Y-24618658D01*
X9806535Y-24529005D01*
X9579909Y-24482486D01*
X9348563Y-24480871D01*
X9121310Y-24524222D01*
X8906805Y-24610887D01*
X8713219Y-24737567D01*
X8547925Y-24899434D01*
X8417219Y-25090325D01*
X8326080Y-25302968D01*
X8277980Y-25529264D01*
X8274749Y-25760592D01*
X2558862Y-25760592D01*
X2513299Y-25692015D01*
X2315735Y-25493067D01*
X2083290Y-25336281D01*
X1824820Y-25227630D01*
X1550167Y-25171252D01*
X1269796Y-25169295D01*
X994383Y-25221832D01*
X734421Y-25326864D01*
X499810Y-25480389D01*
X299487Y-25676560D01*
X141082Y-25907904D01*
X30629Y-26165610D01*
X-27665Y-26439862D01*
X-31580Y-26720213D01*
X19034Y-26995986D01*
X122248Y-27256675D01*
X274132Y-27492352D01*
X468899Y-27694040D01*
X613269Y-27794380D01*
X-443174Y-27794380D01*
X-522277Y-27782880D01*
X-587814Y-27759708D01*
X-647608Y-27724244D01*
X-699372Y-27677846D01*
X-741138Y-27622276D01*
X-771315Y-27559650D01*
X-789769Y-27488442D01*
X-794180Y-27431927D01*
X-794565Y-23089572D01*
X9725078Y-23089572D01*
X9757991Y-23268900D01*
X9825109Y-23438420D01*
X9923875Y-23591675D01*
X10050528Y-23722828D01*
X10200242Y-23826882D01*
X10367317Y-23899875D01*
X10545387Y-23939026D01*
X10727671Y-23942845D01*
X10907224Y-23911185D01*
X11077209Y-23845252D01*
X11231150Y-23747558D01*
X11363183Y-23621824D01*
X11468280Y-23472840D01*
X11542438Y-23306279D01*
X11582832Y-23128486D01*
X11583375Y-23089572D01*
X14575078Y-23089572D01*
X14607991Y-23268900D01*
X14675109Y-23438420D01*
X14773875Y-23591675D01*
X14900528Y-23722828D01*
X15050242Y-23826882D01*
X15217317Y-23899875D01*
X15395387Y-23939026D01*
X15577671Y-23942845D01*
X15757224Y-23911185D01*
X15797855Y-23895425D01*
X24398100Y-23895425D01*
X24398100Y-24687276D01*
X24412722Y-24760788D01*
X24441405Y-24830034D01*
X24483046Y-24892355D01*
X24536045Y-24945354D01*
X24598366Y-24986995D01*
X24667612Y-25015678D01*
X24741124Y-25030300D01*
X25532975Y-25030300D01*
X25628100Y-24935175D01*
X25628100Y-23800300D01*
X25629100Y-23800300D01*
X25629100Y-24935175D01*
X25724225Y-25030300D01*
X26516076Y-25030300D01*
X26589588Y-25015678D01*
X26658834Y-24986995D01*
X26721155Y-24945354D01*
X26774154Y-24892355D01*
X26815795Y-24830034D01*
X26844478Y-24760788D01*
X26859100Y-24687276D01*
X26859100Y-23895425D01*
X26763975Y-23800300D01*
X25629100Y-23800300D01*
X25628100Y-23800300D01*
X24493225Y-23800300D01*
X24398100Y-23895425D01*
X15797855Y-23895425D01*
X15927209Y-23845252D01*
X16081150Y-23747558D01*
X16213183Y-23621824D01*
X16318280Y-23472840D01*
X16392438Y-23306279D01*
X16432832Y-23128486D01*
X16435739Y-22920238D01*
X16434173Y-22912324D01*
X24398100Y-22912324D01*
X24398100Y-23704175D01*
X24493225Y-23799300D01*
X25628100Y-23799300D01*
X25628100Y-22664425D01*
X25629100Y-22664425D01*
X25629100Y-23799300D01*
X26763975Y-23799300D01*
X26859100Y-23704175D01*
X26859100Y-22912324D01*
X26844478Y-22838812D01*
X26815795Y-22769566D01*
X26774154Y-22707245D01*
X26721155Y-22654246D01*
X26658834Y-22612605D01*
X26589588Y-22583922D01*
X26516076Y-22569300D01*
X25724225Y-22569300D01*
X25629100Y-22664425D01*
X25628100Y-22664425D01*
X25532975Y-22569300D01*
X24741124Y-22569300D01*
X24667612Y-22583922D01*
X24598366Y-22612605D01*
X24536045Y-22654246D01*
X24483046Y-22707245D01*
X24441405Y-22769566D01*
X24412722Y-22838812D01*
X24398100Y-22912324D01*
X16434173Y-22912324D01*
X16400326Y-22741387D01*
X16330848Y-22572821D01*
X16229952Y-22420959D01*
X16101480Y-22291588D01*
X15950327Y-22189634D01*
X15782250Y-22118981D01*
X15603650Y-22082320D01*
X15421331Y-22081047D01*
X15242237Y-22115211D01*
X15073190Y-22183510D01*
X14920628Y-22283344D01*
X14790363Y-22410909D01*
X14687356Y-22561347D01*
X14615531Y-22728927D01*
X14577624Y-22907266D01*
X14575078Y-23089572D01*
X11583375Y-23089572D01*
X11585739Y-22920238D01*
X11550326Y-22741387D01*
X11480848Y-22572821D01*
X11379952Y-22420959D01*
X11251480Y-22291588D01*
X11100327Y-22189634D01*
X10932250Y-22118981D01*
X10753650Y-22082320D01*
X10571331Y-22081047D01*
X10392237Y-22115211D01*
X10223190Y-22183510D01*
X10070628Y-22283344D01*
X9940363Y-22410909D01*
X9837356Y-22561347D01*
X9765531Y-22728927D01*
X9727624Y-22907266D01*
X9725078Y-23089572D01*
X-794565Y-23089572D01*
X-798594Y22303257D01*
X-707462Y22303257D01*
X-686940Y22191440D01*
X-647200Y22091070D01*
X-647200Y12195882D01*
X-682238Y12114132D01*
X-705875Y12002931D01*
X-707462Y11889257D01*
X-686940Y11777440D01*
X-647200Y11677070D01*
X-647200Y6988882D01*
X-682238Y6907132D01*
X-705875Y6795931D01*
X-707462Y6682257D01*
X-686940Y6570440D01*
X-647200Y6470070D01*
X-647200Y3432882D01*
X-682238Y3351132D01*
X-705875Y3239931D01*
X-707462Y3126257D01*
X-686940Y3014440D01*
X-647200Y2914070D01*
X-647200Y127000D01*
X-642512Y79191D01*
X-638323Y31309D01*
X-637560Y28683D01*
X-637293Y25959D01*
X-623391Y-20088D01*
X-609998Y-66185D01*
X-608741Y-68610D01*
X-607949Y-71233D01*
X-585358Y-113721D01*
X-563276Y-156321D01*
X-561572Y-158456D01*
X-560286Y-160874D01*
X-529884Y-198151D01*
X-499937Y-235665D01*
X-496186Y-239469D01*
X-496119Y-239551D01*
X-496044Y-239613D01*
X-494837Y-240837D01*
X720006Y-1455680D01*
X751911Y-1536262D01*
X813495Y-1631822D01*
X892467Y-1713600D01*
X985819Y-1778481D01*
X1087021Y-1822695D01*
X1918163Y-2653837D01*
X1955281Y-2684326D01*
X1992104Y-2715224D01*
X1994502Y-2716542D01*
X1996615Y-2718278D01*
X2038950Y-2740978D01*
X2081071Y-2764134D01*
X2083679Y-2764961D01*
X2086090Y-2766254D01*
X2132059Y-2780308D01*
X2177844Y-2794832D01*
X2180560Y-2795137D01*
X2183178Y-2795937D01*
X2231024Y-2800797D01*
X2278737Y-2806149D01*
X2284081Y-2806187D01*
X2284184Y-2806197D01*
X2284280Y-2806188D01*
X2286000Y-2806200D01*
X11680643Y-2806200D01*
X11757996Y-2839995D01*
X11869029Y-2864407D01*
X11982689Y-2866788D01*
X12094647Y-2847047D01*
X12199957Y-2806200D01*
X16379643Y-2806200D01*
X16456996Y-2839995D01*
X16568029Y-2864407D01*
X16681689Y-2866788D01*
X16793647Y-2847047D01*
X16899638Y-2805936D01*
X16995626Y-2745020D01*
X17077953Y-2666621D01*
X17143485Y-2573724D01*
X17189725Y-2469867D01*
X17189995Y-2468679D01*
X21191820Y1533146D01*
X21268438Y1562864D01*
X21364426Y1623780D01*
X21446753Y1702179D01*
X21512285Y1795076D01*
X21558525Y1898933D01*
X21558795Y1900121D01*
X23100837Y3442163D01*
X23131348Y3479308D01*
X23162224Y3516104D01*
X23163540Y3518498D01*
X23165279Y3520615D01*
X23187999Y3562989D01*
X23211134Y3605071D01*
X23211961Y3607679D01*
X23213254Y3610090D01*
X23227308Y3656059D01*
X23241832Y3701844D01*
X23242137Y3704560D01*
X23242937Y3707178D01*
X23247797Y3755024D01*
X23253149Y3802737D01*
X23253187Y3808081D01*
X23253197Y3808184D01*
X23253188Y3808280D01*
X23253200Y3810000D01*
X23253200Y5626526D01*
X23427020Y5800346D01*
X23503638Y5830064D01*
X23599626Y5890980D01*
X23681953Y5969379D01*
X23747485Y6062276D01*
X23793725Y6166133D01*
X23818912Y6276993D01*
X23820725Y6406843D01*
X23798643Y6518362D01*
X23755321Y6623470D01*
X23692409Y6718160D01*
X23612303Y6798828D01*
X23518053Y6862400D01*
X23413251Y6906454D01*
X23301888Y6929314D01*
X23188206Y6930108D01*
X23076535Y6908805D01*
X22971128Y6866218D01*
X22876000Y6803968D01*
X22794775Y6724427D01*
X22730547Y6630624D01*
X22688990Y6533664D01*
X22365163Y6209837D01*
X22334674Y6172719D01*
X22303776Y6135896D01*
X22302458Y6133498D01*
X22300722Y6131385D01*
X22278022Y6089050D01*
X22254866Y6046929D01*
X22254039Y6044321D01*
X22252746Y6041910D01*
X22238692Y5995941D01*
X22224168Y5950156D01*
X22223863Y5947440D01*
X22223063Y5944822D01*
X22218203Y5896976D01*
X22212851Y5849263D01*
X22212813Y5843919D01*
X22212803Y5843816D01*
X22212812Y5843720D01*
X22212800Y5842000D01*
X22212800Y4025474D01*
X20820522Y2633196D01*
X20735928Y2599018D01*
X20640800Y2536768D01*
X20559575Y2457227D01*
X20495347Y2363424D01*
X20453790Y2266464D01*
X16451722Y-1735604D01*
X16376984Y-1765800D01*
X12196497Y-1765800D01*
X12110251Y-1729546D01*
X11998888Y-1706686D01*
X11885206Y-1705892D01*
X11773535Y-1727195D01*
X11677984Y-1765800D01*
X2501474Y-1765800D01*
X1820863Y-1085189D01*
X1784321Y-996530D01*
X1721409Y-901840D01*
X1641303Y-821172D01*
X1547053Y-757600D01*
X1454274Y-718600D01*
X393200Y342474D01*
X393200Y2918080D01*
X425725Y2991133D01*
X450912Y3101993D01*
X452725Y3231843D01*
X430643Y3343362D01*
X393200Y3434206D01*
X393200Y6474080D01*
X425725Y6547133D01*
X450912Y6657993D01*
X452725Y6787843D01*
X430643Y6899362D01*
X393200Y6990206D01*
X393200Y11254257D01*
X11357538Y11254257D01*
X11378060Y11142440D01*
X11419911Y11036738D01*
X11481300Y10941481D01*
X11481300Y5566129D01*
X11427547Y5487624D01*
X11382762Y5383132D01*
X11359125Y5271931D01*
X11357538Y5158257D01*
X11378060Y5046440D01*
X11419911Y4940738D01*
X11481300Y4845481D01*
X11481300Y232129D01*
X11427547Y153624D01*
X11382762Y49132D01*
X11359125Y-62069D01*
X11357538Y-175743D01*
X11378060Y-287560D01*
X11419911Y-393262D01*
X11481495Y-488822D01*
X11560467Y-570600D01*
X11653819Y-635481D01*
X11757996Y-680995D01*
X11869029Y-705407D01*
X11982689Y-707788D01*
X12094647Y-688047D01*
X12200638Y-646936D01*
X12296626Y-586020D01*
X12378953Y-507621D01*
X12444485Y-414724D01*
X12490725Y-310867D01*
X12515912Y-200007D01*
X12517725Y-70157D01*
X12495643Y41362D01*
X12452321Y146470D01*
X12394700Y233196D01*
X12394700Y1096630D01*
X12504029Y1072593D01*
X12617689Y1070212D01*
X12729647Y1089953D01*
X12835638Y1131064D01*
X12931626Y1191980D01*
X13013953Y1270379D01*
X13079485Y1363276D01*
X13125725Y1467133D01*
X13150912Y1577993D01*
X13152725Y1707843D01*
X13130643Y1819362D01*
X13087321Y1924470D01*
X13029700Y2011196D01*
X13029700Y3125055D01*
X13078796Y3103605D01*
X13189829Y3079193D01*
X13303489Y3076812D01*
X13415447Y3096553D01*
X13521438Y3137664D01*
X13617426Y3198580D01*
X13699753Y3276979D01*
X13765285Y3369876D01*
X13811525Y3473733D01*
X13836712Y3584593D01*
X13836783Y3589711D01*
X13868900Y3621828D01*
X13868900Y3454400D01*
X13873019Y3412397D01*
X13876694Y3370389D01*
X13877364Y3368085D01*
X13877598Y3365693D01*
X13889798Y3325284D01*
X13901561Y3284796D01*
X13902666Y3282665D01*
X13903360Y3280365D01*
X13923161Y3243126D01*
X13942579Y3205663D01*
X13944079Y3203785D01*
X13945205Y3201666D01*
X13971857Y3168987D01*
X13998187Y3136005D01*
X14001487Y3132658D01*
X14001539Y3132594D01*
X14001598Y3132545D01*
X14002664Y3131464D01*
X14460084Y2674044D01*
X14476860Y2582640D01*
X14518711Y2476938D01*
X14580295Y2381378D01*
X14659267Y2299600D01*
X14752619Y2234719D01*
X14856796Y2189205D01*
X14967829Y2164793D01*
X15081489Y2162412D01*
X15193447Y2182153D01*
X15299438Y2223264D01*
X15395426Y2284180D01*
X15477753Y2362579D01*
X15543285Y2455476D01*
X15589525Y2559333D01*
X15614712Y2670193D01*
X15616525Y2800043D01*
X15594443Y2911562D01*
X15551121Y3016670D01*
X15488209Y3111360D01*
X15408103Y3192028D01*
X15313853Y3255600D01*
X15209051Y3299654D01*
X15104822Y3321050D01*
X14782300Y3643572D01*
X14782300Y8938102D01*
X14832085Y9008676D01*
X14878325Y9112533D01*
X14903512Y9223393D01*
X14905325Y9353243D01*
X14883243Y9464762D01*
X14839921Y9569870D01*
X14782300Y9656596D01*
X14782300Y14651914D01*
X14778181Y14693917D01*
X14774506Y14735925D01*
X14773836Y14738229D01*
X14773602Y14740621D01*
X14761402Y14781030D01*
X14749639Y14821518D01*
X14748534Y14823649D01*
X14747840Y14825949D01*
X14728018Y14863228D01*
X14708620Y14900651D01*
X14707123Y14902526D01*
X14705995Y14904648D01*
X14679320Y14937354D01*
X14653013Y14970309D01*
X14649717Y14973652D01*
X14649661Y14973720D01*
X14649598Y14973772D01*
X14648535Y14974850D01*
X13755650Y15867736D01*
X13723007Y15894549D01*
X13690734Y15921629D01*
X13688633Y15922784D01*
X13686774Y15924311D01*
X13649571Y15944259D01*
X13612627Y15964569D01*
X13610337Y15965295D01*
X13608221Y15966430D01*
X13567876Y15978765D01*
X13527667Y15991520D01*
X13525282Y15991788D01*
X13522984Y15992490D01*
X13480990Y15996756D01*
X13439091Y16001455D01*
X13434396Y16001488D01*
X13434309Y16001497D01*
X13434228Y16001489D01*
X13432714Y16001500D01*
X13313632Y16001500D01*
X13231053Y16057200D01*
X13126251Y16101254D01*
X13014888Y16124114D01*
X12901206Y16124908D01*
X12789535Y16103605D01*
X12684128Y16061018D01*
X12589000Y15998768D01*
X12507775Y15919227D01*
X12443547Y15825424D01*
X12398762Y15720932D01*
X12375125Y15609731D01*
X12373538Y15496057D01*
X12394060Y15384240D01*
X12435911Y15278538D01*
X12497495Y15182978D01*
X12576467Y15101200D01*
X12669819Y15036319D01*
X12742469Y15004579D01*
X12730725Y14949331D01*
X12729138Y14835657D01*
X12749660Y14723840D01*
X12791511Y14618138D01*
X12853095Y14522578D01*
X12907538Y14466201D01*
X12843000Y14423968D01*
X12761775Y14344427D01*
X12697547Y14250624D01*
X12652762Y14146132D01*
X12629683Y14037555D01*
X11615064Y13022936D01*
X11588251Y12990293D01*
X11561171Y12958020D01*
X11560016Y12955919D01*
X11558489Y12954060D01*
X11538541Y12916857D01*
X11518231Y12879913D01*
X11517505Y12877623D01*
X11516370Y12875507D01*
X11504035Y12835162D01*
X11491280Y12794953D01*
X11491012Y12792568D01*
X11490310Y12790270D01*
X11486044Y12748276D01*
X11481345Y12706377D01*
X11481312Y12701682D01*
X11481303Y12701595D01*
X11481311Y12701514D01*
X11481300Y12700000D01*
X11481300Y11662129D01*
X11427547Y11583624D01*
X11382762Y11479132D01*
X11359125Y11367931D01*
X11357538Y11254257D01*
X393200Y11254257D01*
X393200Y11681080D01*
X425725Y11754133D01*
X450912Y11864993D01*
X452725Y11994843D01*
X430643Y12106362D01*
X393200Y12197206D01*
X393200Y15532526D01*
X1675974Y16815300D01*
X5584643Y16815300D01*
X5661996Y16781505D01*
X5773029Y16757093D01*
X5886689Y16754712D01*
X5998647Y16774453D01*
X6103957Y16815300D01*
X12688494Y16815300D01*
X12736303Y16819988D01*
X12784185Y16824177D01*
X12786811Y16824940D01*
X12789535Y16825207D01*
X12835582Y16839109D01*
X12881679Y16852502D01*
X12884104Y16853759D01*
X12886727Y16854551D01*
X12929215Y16877142D01*
X12971815Y16899224D01*
X12973950Y16900928D01*
X12976368Y16902214D01*
X13013645Y16932616D01*
X13051159Y16962563D01*
X13054963Y16966314D01*
X13055045Y16966381D01*
X13055107Y16966456D01*
X13056331Y16967663D01*
X16750837Y20662169D01*
X16781326Y20699287D01*
X16812224Y20736110D01*
X16813542Y20738508D01*
X16815278Y20740621D01*
X16837988Y20782975D01*
X16861134Y20825077D01*
X16861961Y20827683D01*
X16863254Y20830095D01*
X16877313Y20876079D01*
X16891832Y20921850D01*
X16892137Y20924566D01*
X16892937Y20927184D01*
X16897797Y20975030D01*
X16903149Y21022743D01*
X16903187Y21028087D01*
X16903197Y21028190D01*
X16903188Y21028286D01*
X16903200Y21030006D01*
X16903200Y22591577D01*
X16898512Y22639386D01*
X16894323Y22687268D01*
X16893560Y22689894D01*
X16893293Y22692618D01*
X16879405Y22738618D01*
X16865999Y22784762D01*
X16864739Y22787192D01*
X16863949Y22789810D01*
X16841376Y22832263D01*
X16819276Y22874898D01*
X16817572Y22877033D01*
X16816286Y22879451D01*
X16785884Y22916728D01*
X16755937Y22954242D01*
X16752186Y22958046D01*
X16752119Y22958128D01*
X16752044Y22958190D01*
X16750837Y22959414D01*
X16014200Y23696051D01*
X16014200Y25514800D01*
X19558000Y25514800D01*
X19605809Y25519488D01*
X19653691Y25523677D01*
X19656317Y25524440D01*
X19659041Y25524707D01*
X19705088Y25538609D01*
X19751185Y25552002D01*
X19753610Y25553259D01*
X19756233Y25554051D01*
X19798721Y25576642D01*
X19841321Y25598724D01*
X19843456Y25600428D01*
X19845874Y25601714D01*
X19883151Y25632116D01*
X19920665Y25662063D01*
X19924469Y25665814D01*
X19924551Y25665881D01*
X19924613Y25665956D01*
X19925837Y25667163D01*
X20488119Y26229445D01*
X25532941Y26229445D01*
X25558773Y26088694D01*
X25611452Y25955642D01*
X25688972Y25835355D01*
X25788378Y25732417D01*
X25905886Y25650746D01*
X26037019Y25593456D01*
X26176783Y25562727D01*
X26319853Y25559730D01*
X26460780Y25584579D01*
X26594197Y25636328D01*
X26715022Y25713006D01*
X26818652Y25811692D01*
X26901141Y25928627D01*
X26959345Y26059356D01*
X26991049Y26198902D01*
X26993332Y26362351D01*
X26965536Y26502727D01*
X26911005Y26635031D01*
X26831813Y26754223D01*
X26730979Y26855764D01*
X26612342Y26935786D01*
X26480422Y26991240D01*
X26340244Y27020014D01*
X26197145Y27021013D01*
X26056578Y26994199D01*
X25923897Y26940592D01*
X25804155Y26862235D01*
X25701912Y26762112D01*
X25621065Y26644037D01*
X25564691Y26512507D01*
X25534939Y26372532D01*
X25532941Y26229445D01*
X20488119Y26229445D01*
X21932437Y27673763D01*
X21962926Y27710881D01*
X21993824Y27747704D01*
X21995142Y27750102D01*
X21996878Y27752215D01*
X22019578Y27794550D01*
X22042734Y27836671D01*
X22043561Y27839279D01*
X22044854Y27841690D01*
X22058908Y27887659D01*
X22059690Y27890122D01*
X22071085Y27906276D01*
X22081400Y27929445D01*
X25532941Y27929445D01*
X25558773Y27788694D01*
X25611452Y27655642D01*
X25688972Y27535355D01*
X25788378Y27432417D01*
X25905886Y27350746D01*
X26037019Y27293456D01*
X26176783Y27262727D01*
X26319853Y27259730D01*
X26460780Y27284579D01*
X26594197Y27336328D01*
X26715022Y27413006D01*
X26818652Y27511692D01*
X26901141Y27628627D01*
X26959345Y27759356D01*
X26991049Y27898902D01*
X26993332Y28062351D01*
X26965536Y28202727D01*
X26911005Y28335031D01*
X26831813Y28454223D01*
X26730979Y28555764D01*
X26612342Y28635786D01*
X26480422Y28691240D01*
X26340244Y28720014D01*
X26197145Y28721013D01*
X26056578Y28694199D01*
X25923897Y28640592D01*
X25804155Y28562235D01*
X25701912Y28462112D01*
X25621065Y28344037D01*
X25564691Y28212507D01*
X25534939Y28072532D01*
X25532941Y27929445D01*
X22081400Y27929445D01*
X22117325Y28010133D01*
X22142512Y28120993D01*
X22144325Y28250843D01*
X22122243Y28362362D01*
X22084800Y28453206D01*
X22084800Y30629480D01*
X22117325Y30702533D01*
X22142512Y30813393D01*
X22142599Y30819628D01*
X22164348Y30846106D01*
X22191428Y30878379D01*
X22192583Y30880480D01*
X22194110Y30882339D01*
X22214058Y30919542D01*
X22234368Y30956486D01*
X22235094Y30958776D01*
X22236229Y30960892D01*
X22248564Y31001237D01*
X22261319Y31041446D01*
X22261587Y31043831D01*
X22262289Y31046129D01*
X22266555Y31088123D01*
X22271254Y31130022D01*
X22271287Y31134717D01*
X22271296Y31134804D01*
X22271288Y31134885D01*
X22271299Y31136399D01*
X22271299Y35843401D01*
X22267180Y35885404D01*
X22263505Y35927412D01*
X22262835Y35929716D01*
X22262601Y35932108D01*
X22250401Y35972517D01*
X22238638Y36013005D01*
X22237533Y36015136D01*
X22236839Y36017436D01*
X22217038Y36054675D01*
X22197620Y36092138D01*
X22196120Y36094016D01*
X22194994Y36096135D01*
X22168342Y36128814D01*
X22142012Y36161796D01*
X22138712Y36165143D01*
X22138660Y36165207D01*
X22138601Y36165256D01*
X22137535Y36166337D01*
X20135428Y38168444D01*
X20115643Y38268362D01*
X20072321Y38373470D01*
X20009409Y38468160D01*
X19929303Y38548828D01*
X19835053Y38612400D01*
X19730251Y38656454D01*
X19618888Y38679314D01*
X19505206Y38680108D01*
X19393535Y38658805D01*
X19288128Y38616218D01*
X19193000Y38553968D01*
X19111775Y38474427D01*
X19047547Y38380624D01*
X19002762Y38276132D01*
X18979125Y38164931D01*
X18977538Y38051257D01*
X18998060Y37939440D01*
X19039911Y37833738D01*
X19101495Y37738178D01*
X19180467Y37656400D01*
X19273819Y37591519D01*
X19377996Y37546005D01*
X19489029Y37521593D01*
X19490567Y37521561D01*
X21357899Y35654229D01*
X21357899Y31428141D01*
X21294728Y31402618D01*
X21199600Y31340368D01*
X21118375Y31260827D01*
X21054147Y31167024D01*
X21009362Y31062532D01*
X20985725Y30951331D01*
X20984138Y30837657D01*
X21004660Y30725840D01*
X21044400Y30625470D01*
X21044400Y28451882D01*
X21009362Y28370132D01*
X20985725Y28258931D01*
X20984868Y28197542D01*
X19342526Y26555200D01*
X15752497Y26555200D01*
X15671850Y26589101D01*
X15685616Y26602210D01*
X15751148Y26695107D01*
X15797388Y26798964D01*
X15822575Y26909824D01*
X15824388Y27039674D01*
X15802306Y27151193D01*
X15758984Y27256301D01*
X15696072Y27350991D01*
X15615966Y27431659D01*
X15521716Y27495231D01*
X15416914Y27539285D01*
X15305551Y27562145D01*
X15191869Y27562939D01*
X15171962Y27559141D01*
X15171962Y28623090D01*
X18408250Y31859378D01*
X18495447Y31874753D01*
X18601438Y31915864D01*
X18697426Y31976780D01*
X18779753Y32055179D01*
X18845285Y32148076D01*
X18891525Y32251933D01*
X18916712Y32362793D01*
X18918525Y32492643D01*
X18896443Y32604162D01*
X18853121Y32709270D01*
X18790209Y32803960D01*
X18710103Y32884628D01*
X18674201Y32908844D01*
X20088722Y34323364D01*
X20137419Y34289519D01*
X20241596Y34244005D01*
X20352629Y34219593D01*
X20466289Y34217212D01*
X20578247Y34236953D01*
X20684238Y34278064D01*
X20780226Y34338980D01*
X20862553Y34417379D01*
X20928085Y34510276D01*
X20974325Y34614133D01*
X20999512Y34724993D01*
X21001325Y34854843D01*
X20979243Y34966362D01*
X20935921Y35071470D01*
X20873009Y35166160D01*
X20792903Y35246828D01*
X20698653Y35310400D01*
X20593851Y35354454D01*
X20482488Y35377314D01*
X20368806Y35378108D01*
X20257135Y35356805D01*
X20151728Y35314218D01*
X20060775Y35254700D01*
X19917486Y35254700D01*
X19875483Y35250581D01*
X19833475Y35246906D01*
X19831171Y35246236D01*
X19828779Y35246002D01*
X19788370Y35233802D01*
X19747882Y35222039D01*
X19745751Y35220934D01*
X19743451Y35220240D01*
X19706172Y35200418D01*
X19668749Y35181020D01*
X19666874Y35179523D01*
X19664752Y35178395D01*
X19632046Y35151720D01*
X19599091Y35125413D01*
X19595748Y35122117D01*
X19595680Y35122061D01*
X19595628Y35121998D01*
X19594550Y35120935D01*
X16847464Y32373850D01*
X16820651Y32341207D01*
X16793571Y32308934D01*
X16792416Y32306833D01*
X16790889Y32304974D01*
X16780238Y32285110D01*
X13985916Y29490788D01*
X13959103Y29458145D01*
X13932023Y29425872D01*
X13930868Y29423771D01*
X13929341Y29421912D01*
X13909393Y29384709D01*
X13889083Y29347765D01*
X13888357Y29345475D01*
X13887222Y29343359D01*
X13874887Y29303014D01*
X13862132Y29262805D01*
X13861864Y29260420D01*
X13861162Y29258122D01*
X13856896Y29216128D01*
X13852197Y29174229D01*
X13852164Y29169534D01*
X13852155Y29169447D01*
X13852163Y29169366D01*
X13852152Y29167852D01*
X13852152Y26156716D01*
X13589880Y25894444D01*
X13608112Y25974693D01*
X13609925Y26104543D01*
X13587843Y26216062D01*
X13544521Y26321170D01*
X13481609Y26415860D01*
X13401503Y26496528D01*
X13334520Y26541708D01*
X13334520Y36727701D01*
X17416157Y40809338D01*
X17472996Y40784505D01*
X17584029Y40760093D01*
X17697689Y40757712D01*
X17809647Y40777453D01*
X17915638Y40818564D01*
X18011626Y40879480D01*
X18093953Y40957879D01*
X18159485Y41050776D01*
X18205725Y41154633D01*
X18230912Y41265493D01*
X18232725Y41395343D01*
X18210643Y41506862D01*
X18167321Y41611970D01*
X18104409Y41706660D01*
X18024303Y41787328D01*
X17930053Y41850900D01*
X17825251Y41894954D01*
X17713888Y41917814D01*
X17600206Y41918608D01*
X17488535Y41897305D01*
X17383128Y41854718D01*
X17290893Y41794361D01*
X17257444Y41791081D01*
X17215436Y41787406D01*
X17213132Y41786736D01*
X17210740Y41786502D01*
X17170331Y41774302D01*
X17129843Y41762539D01*
X17127712Y41761434D01*
X17125412Y41760740D01*
X17088173Y41740939D01*
X17050710Y41721521D01*
X17048832Y41720021D01*
X17046713Y41718895D01*
X17014034Y41692243D01*
X16981052Y41665913D01*
X16977705Y41662613D01*
X16977641Y41662561D01*
X16977592Y41662502D01*
X16976511Y41661436D01*
X12928110Y37613035D01*
X12928110Y40004990D01*
X12923991Y40046993D01*
X12920316Y40089001D01*
X12919646Y40091305D01*
X12919412Y40093697D01*
X12907212Y40134106D01*
X12895449Y40174594D01*
X12894344Y40176725D01*
X12893650Y40179025D01*
X12873828Y40216304D01*
X12854430Y40253727D01*
X12852933Y40255602D01*
X12851805Y40257724D01*
X12825130Y40290430D01*
X12798823Y40323385D01*
X12795527Y40326728D01*
X12795471Y40326796D01*
X12795408Y40326848D01*
X12794345Y40327926D01*
X8584700Y44537572D01*
X8584700Y47004757D01*
X13262538Y47004757D01*
X13283060Y46892940D01*
X13324911Y46787238D01*
X13386495Y46691678D01*
X13465467Y46609900D01*
X13558819Y46545019D01*
X13662996Y46499505D01*
X13774029Y46475093D01*
X13887689Y46472712D01*
X13999647Y46492453D01*
X14105638Y46533564D01*
X14201626Y46594480D01*
X14283953Y46672879D01*
X14349485Y46765776D01*
X14395725Y46869633D01*
X14420912Y46980493D01*
X14420983Y46985611D01*
X15852129Y48416757D01*
X17326538Y48416757D01*
X17347060Y48304940D01*
X17388911Y48199238D01*
X17450495Y48103678D01*
X17529467Y48021900D01*
X17622819Y47957019D01*
X17726996Y47911505D01*
X17838029Y47887093D01*
X17951689Y47884712D01*
X18063647Y47904453D01*
X18169638Y47945564D01*
X18265626Y48006480D01*
X18268062Y48008800D01*
X21224000Y48008800D01*
X21266003Y48012919D01*
X21308011Y48016594D01*
X21310315Y48017264D01*
X21312707Y48017498D01*
X21353116Y48029698D01*
X21393604Y48041461D01*
X21395735Y48042566D01*
X21398035Y48043260D01*
X21435274Y48063061D01*
X21472737Y48082479D01*
X21474615Y48083979D01*
X21476734Y48085105D01*
X21509413Y48111757D01*
X21542395Y48138087D01*
X21545742Y48141387D01*
X21545806Y48141439D01*
X21545855Y48141498D01*
X21546936Y48142564D01*
X22802449Y49398078D01*
X22889647Y49413453D01*
X22995638Y49454564D01*
X23091626Y49515480D01*
X23173953Y49593879D01*
X23239485Y49686776D01*
X23285725Y49790633D01*
X23310912Y49901493D01*
X23312725Y50031343D01*
X23290643Y50142862D01*
X23247321Y50247970D01*
X23184409Y50342660D01*
X23104303Y50423328D01*
X23010053Y50486900D01*
X22905251Y50530954D01*
X22793888Y50553814D01*
X22680206Y50554608D01*
X22568535Y50533305D01*
X22463128Y50490718D01*
X22368000Y50428468D01*
X22286775Y50348927D01*
X22222547Y50255124D01*
X22177762Y50150632D01*
X22154682Y50042054D01*
X21034828Y48922200D01*
X18266632Y48922200D01*
X18184053Y48977900D01*
X18079251Y49021954D01*
X17967888Y49044814D01*
X17854206Y49045608D01*
X17742535Y49024305D01*
X17637128Y48981718D01*
X17542000Y48919468D01*
X17460775Y48839927D01*
X17396547Y48746124D01*
X17351762Y48641632D01*
X17328125Y48530431D01*
X17326538Y48416757D01*
X15852129Y48416757D01*
X18985172Y51549800D01*
X22374316Y51549800D01*
X22448819Y51498019D01*
X22552996Y51452505D01*
X22664029Y51428093D01*
X22777689Y51425712D01*
X22889647Y51445453D01*
X22995638Y51486564D01*
X23091626Y51547480D01*
X23173953Y51625879D01*
X23205932Y51671211D01*
X24625800Y50251343D01*
X24625800Y43983629D01*
X24572047Y43905124D01*
X24527262Y43800632D01*
X24503625Y43689431D01*
X24502038Y43575757D01*
X24522560Y43463940D01*
X24564411Y43358238D01*
X24625995Y43262678D01*
X24704967Y43180900D01*
X24798319Y43116019D01*
X24902496Y43070505D01*
X25013529Y43046093D01*
X25127189Y43043712D01*
X25239147Y43063453D01*
X25345138Y43104564D01*
X25441126Y43165480D01*
X25523453Y43243879D01*
X25588985Y43336776D01*
X25635225Y43440633D01*
X25660412Y43551493D01*
X25662225Y43681343D01*
X25640143Y43792862D01*
X25596821Y43897970D01*
X25539200Y43984696D01*
X25539200Y50440514D01*
X25535081Y50482517D01*
X25531406Y50524525D01*
X25530736Y50526829D01*
X25530502Y50529221D01*
X25518302Y50569630D01*
X25506539Y50610118D01*
X25505434Y50612249D01*
X25504740Y50614549D01*
X25484918Y50651828D01*
X25465520Y50689251D01*
X25464023Y50691126D01*
X25462895Y50693248D01*
X25436220Y50725954D01*
X25409913Y50758909D01*
X25406617Y50762252D01*
X25406561Y50762320D01*
X25406498Y50762372D01*
X25405435Y50763450D01*
X19584950Y56583936D01*
X19552307Y56610749D01*
X19520034Y56637829D01*
X19517933Y56638984D01*
X19516074Y56640511D01*
X19478871Y56660459D01*
X19441927Y56680769D01*
X19439637Y56681495D01*
X19437521Y56682630D01*
X19397176Y56694965D01*
X19356967Y56707720D01*
X19354582Y56707988D01*
X19352284Y56708690D01*
X19310290Y56712956D01*
X19268391Y56717655D01*
X19263696Y56717688D01*
X19263609Y56717697D01*
X19263528Y56717689D01*
X19262014Y56717700D01*
X18488920Y56717700D01*
X18381597Y56919544D01*
X18236081Y57097965D01*
X18058680Y57244724D01*
X17856152Y57354230D01*
X17636212Y57422313D01*
X17407236Y57446379D01*
X17177946Y57425512D01*
X16957077Y57360507D01*
X16753040Y57253839D01*
X16573607Y57109571D01*
X16425614Y56933200D01*
X16314696Y56731441D01*
X16245079Y56511981D01*
X16219415Y56283179D01*
X16219300Y56266708D01*
X16219300Y56255292D01*
X16241767Y56026154D01*
X16308313Y55805743D01*
X16416403Y55602456D01*
X16561919Y55424035D01*
X16739320Y55277276D01*
X16941848Y55167770D01*
X17161788Y55099687D01*
X17390764Y55075621D01*
X17620054Y55096488D01*
X17840923Y55161493D01*
X18044960Y55268161D01*
X18224393Y55412429D01*
X18372386Y55588800D01*
X18483304Y55790559D01*
X18487663Y55804300D01*
X19072842Y55804300D01*
X22397422Y52479721D01*
X22372175Y52463200D01*
X18796000Y52463200D01*
X18753993Y52459081D01*
X18711990Y52455406D01*
X18709686Y52454737D01*
X18707293Y52454502D01*
X18666872Y52442298D01*
X18626396Y52430539D01*
X18624265Y52429434D01*
X18621965Y52428740D01*
X18584726Y52408939D01*
X18547263Y52389521D01*
X18545385Y52388022D01*
X18543266Y52386895D01*
X18510563Y52360223D01*
X18477606Y52333913D01*
X18474260Y52330615D01*
X18474194Y52330561D01*
X18474144Y52330500D01*
X18473064Y52329436D01*
X13774179Y47630551D01*
X13678535Y47612305D01*
X13573128Y47569718D01*
X13478000Y47507468D01*
X13396775Y47427927D01*
X13332547Y47334124D01*
X13287762Y47229632D01*
X13264125Y47118431D01*
X13262538Y47004757D01*
X8584700Y47004757D01*
X8584700Y49554500D01*
X11010705Y49554500D01*
X11010705Y47854500D01*
X11014892Y47801997D01*
X11042469Y47712945D01*
X11093764Y47635102D01*
X11164715Y47574631D01*
X11249703Y47536321D01*
X11342000Y47523205D01*
X13042000Y47523205D01*
X13094503Y47527392D01*
X13183555Y47554969D01*
X13261398Y47606264D01*
X13321869Y47677215D01*
X13360179Y47762203D01*
X13373295Y47854500D01*
X13373295Y49554500D01*
X13369108Y49607003D01*
X13341531Y49696055D01*
X13290236Y49773898D01*
X13219285Y49834369D01*
X13134297Y49872679D01*
X13042000Y49885795D01*
X11342000Y49885795D01*
X11289497Y49881608D01*
X11200445Y49854031D01*
X11122602Y49802736D01*
X11062131Y49731785D01*
X11023821Y49646797D01*
X11010705Y49554500D01*
X8584700Y49554500D01*
X8584700Y51252736D01*
X11006621Y51252736D01*
X11027488Y51023446D01*
X11092493Y50802577D01*
X11199161Y50598540D01*
X11343429Y50419107D01*
X11519800Y50271114D01*
X11721559Y50160196D01*
X11941019Y50090579D01*
X12169821Y50064915D01*
X12186292Y50064800D01*
X12197708Y50064800D01*
X12426846Y50087267D01*
X12647257Y50153813D01*
X12850544Y50261903D01*
X13028965Y50407419D01*
X13175724Y50584820D01*
X13285230Y50787348D01*
X13353313Y51007288D01*
X13377379Y51236264D01*
X13356512Y51465554D01*
X13291507Y51686423D01*
X13184839Y51890460D01*
X13040571Y52069893D01*
X12864200Y52217886D01*
X12662441Y52328804D01*
X12442981Y52398421D01*
X12214179Y52424085D01*
X12197708Y52424200D01*
X12186292Y52424200D01*
X11957154Y52401733D01*
X11736743Y52335187D01*
X11533456Y52227097D01*
X11355035Y52081581D01*
X11208276Y51904180D01*
X11098770Y51701652D01*
X11030687Y51481712D01*
X11006621Y51252736D01*
X8584700Y51252736D01*
X8584700Y51473100D01*
X8580581Y51515103D01*
X8576906Y51557111D01*
X8576236Y51559415D01*
X8576002Y51561807D01*
X8563802Y51602216D01*
X8552039Y51642704D01*
X8550934Y51644835D01*
X8550240Y51647135D01*
X8530439Y51684374D01*
X8511021Y51721837D01*
X8509521Y51723715D01*
X8508395Y51725834D01*
X8481743Y51758513D01*
X8455413Y51791495D01*
X8452113Y51794842D01*
X8452061Y51794906D01*
X8452002Y51794955D01*
X8450936Y51796036D01*
X7587828Y52659144D01*
X7568043Y52759062D01*
X7524721Y52864170D01*
X7461809Y52958860D01*
X7381703Y53039528D01*
X7287453Y53103100D01*
X7182651Y53147154D01*
X7071288Y53170014D01*
X6957606Y53170808D01*
X6845935Y53149505D01*
X6740528Y53106918D01*
X6645400Y53044668D01*
X6564175Y52965127D01*
X6499947Y52871324D01*
X6455162Y52766832D01*
X6431525Y52655631D01*
X6429938Y52541957D01*
X6450460Y52430140D01*
X6492311Y52324438D01*
X6553895Y52228878D01*
X6632867Y52147100D01*
X6726219Y52082219D01*
X6830396Y52036705D01*
X6941429Y52012293D01*
X6942967Y52012261D01*
X7671300Y51283928D01*
X7671300Y48435472D01*
X7562428Y48544344D01*
X7542643Y48644262D01*
X7499321Y48749370D01*
X7436409Y48844060D01*
X7356303Y48924728D01*
X7262053Y48988300D01*
X7157251Y49032354D01*
X7045888Y49055214D01*
X6932206Y49056008D01*
X6820535Y49034705D01*
X6715128Y48992118D01*
X6620000Y48929868D01*
X6538775Y48850327D01*
X6474547Y48756524D01*
X6429762Y48652032D01*
X6406125Y48540831D01*
X6404538Y48427157D01*
X6425060Y48315340D01*
X6466911Y48209638D01*
X6528495Y48114078D01*
X6607467Y48032300D01*
X6700819Y47967419D01*
X6804996Y47921905D01*
X6916029Y47897493D01*
X6917567Y47897461D01*
X7252200Y47562828D01*
X7252200Y44812119D01*
X7182651Y44841354D01*
X7071288Y44864214D01*
X6957606Y44865008D01*
X6845935Y44843705D01*
X6740528Y44801118D01*
X6645400Y44738868D01*
X6564175Y44659327D01*
X6499947Y44565524D01*
X6455162Y44461032D01*
X6431525Y44349831D01*
X6429938Y44236157D01*
X6450460Y44124340D01*
X6492311Y44018638D01*
X6553895Y43923078D01*
X6632867Y43841300D01*
X6726219Y43776419D01*
X6830396Y43730905D01*
X6941429Y43706493D01*
X6942967Y43706461D01*
X11201890Y39447538D01*
X11201890Y23912762D01*
X11107179Y23818051D01*
X11073296Y23811587D01*
X11073296Y35928904D01*
X11069177Y35970911D01*
X11065502Y36012914D01*
X11064833Y36015218D01*
X11064598Y36017611D01*
X11052394Y36058032D01*
X11040635Y36098508D01*
X11039530Y36100639D01*
X11038836Y36102939D01*
X11019035Y36140178D01*
X10999617Y36177641D01*
X10998118Y36179519D01*
X10996991Y36181638D01*
X10970319Y36214341D01*
X10944009Y36247298D01*
X10940714Y36250640D01*
X10940657Y36250710D01*
X10940592Y36250763D01*
X10939532Y36251839D01*
X9784928Y37406444D01*
X9765143Y37506362D01*
X9721821Y37611470D01*
X9658909Y37706160D01*
X9578803Y37786828D01*
X9484553Y37850400D01*
X9379751Y37894454D01*
X9268388Y37917314D01*
X9154706Y37918108D01*
X9043035Y37896805D01*
X8937628Y37854218D01*
X8842500Y37791968D01*
X8761275Y37712427D01*
X8697047Y37618624D01*
X8652262Y37514132D01*
X8628625Y37402931D01*
X8628508Y37394523D01*
X8598535Y37388805D01*
X8493128Y37346218D01*
X8398000Y37283968D01*
X8316775Y37204427D01*
X8252547Y37110624D01*
X8207762Y37006132D01*
X8184125Y36894931D01*
X8182538Y36781257D01*
X8203060Y36669440D01*
X8244911Y36563738D01*
X8306300Y36468481D01*
X8306300Y35783872D01*
X8310419Y35741869D01*
X8314094Y35699861D01*
X8314764Y35697557D01*
X8314998Y35695165D01*
X8327198Y35654756D01*
X8338961Y35614268D01*
X8340066Y35612137D01*
X8340760Y35609837D01*
X8360561Y35572598D01*
X8379979Y35535135D01*
X8381479Y35533257D01*
X8382605Y35531138D01*
X8409257Y35498459D01*
X8435587Y35465477D01*
X8438887Y35462130D01*
X8438939Y35462066D01*
X8438998Y35462017D01*
X8440064Y35460936D01*
X8969462Y34931538D01*
X8961093Y34926061D01*
X8879868Y34846520D01*
X8815640Y34752717D01*
X8770855Y34648225D01*
X8747218Y34537024D01*
X8745631Y34423350D01*
X8766153Y34311533D01*
X8808004Y34205831D01*
X8869588Y34110271D01*
X8948560Y34028493D01*
X9041912Y33963612D01*
X9146089Y33918098D01*
X9257122Y33893686D01*
X9258660Y33893654D01*
X9305611Y33846703D01*
X9305611Y32148273D01*
X9230553Y32198900D01*
X9125751Y32242954D01*
X9014388Y32265814D01*
X8900706Y32266608D01*
X8789035Y32245305D01*
X8683628Y32202718D01*
X8588500Y32140468D01*
X8507275Y32060927D01*
X8443047Y31967124D01*
X8398262Y31862632D01*
X8374625Y31751431D01*
X8373038Y31637757D01*
X8393560Y31525940D01*
X8435411Y31420238D01*
X8496995Y31324678D01*
X8575967Y31242900D01*
X8669319Y31178019D01*
X8773496Y31132505D01*
X8884529Y31108093D01*
X8886067Y31108061D01*
X8899201Y31094927D01*
X8899201Y21991073D01*
X8440179Y21532051D01*
X8344535Y21513805D01*
X8239128Y21471218D01*
X8144000Y21408968D01*
X8062775Y21329427D01*
X7998547Y21235624D01*
X7953762Y21131132D01*
X7930125Y21019931D01*
X7928538Y20906257D01*
X7949060Y20794440D01*
X7990911Y20688738D01*
X8052495Y20593178D01*
X8131467Y20511400D01*
X8224819Y20446519D01*
X8328996Y20401005D01*
X8440029Y20376593D01*
X8553689Y20374212D01*
X8665647Y20393953D01*
X8771638Y20435064D01*
X8867626Y20495980D01*
X8882272Y20509927D01*
X8973505Y20446519D01*
X9077682Y20401005D01*
X9188715Y20376593D01*
X9302375Y20374212D01*
X9414333Y20393953D01*
X9520324Y20435064D01*
X9616312Y20495980D01*
X9668168Y20545362D01*
X9692097Y20484924D01*
X9753681Y20389364D01*
X9832653Y20307586D01*
X9926005Y20242705D01*
X10030182Y20197191D01*
X10141215Y20172779D01*
X10254875Y20170398D01*
X10366833Y20190139D01*
X10472824Y20231250D01*
X10568812Y20292166D01*
X10651139Y20370565D01*
X10683117Y20415897D01*
X11227300Y19871714D01*
X11227300Y18520129D01*
X11173547Y18441624D01*
X11128762Y18337132D01*
X11105125Y18225931D01*
X11103538Y18112257D01*
X11124060Y18000440D01*
X11165911Y17894738D01*
X11191069Y17855700D01*
X6100497Y17855700D01*
X6014251Y17891954D01*
X5902888Y17914814D01*
X5789206Y17915608D01*
X5677535Y17894305D01*
X5581984Y17855700D01*
X1460500Y17855700D01*
X1412691Y17851012D01*
X1364809Y17846823D01*
X1362183Y17846060D01*
X1359459Y17845793D01*
X1313412Y17831891D01*
X1267315Y17818498D01*
X1264890Y17817241D01*
X1262267Y17816449D01*
X1219779Y17793858D01*
X1177179Y17771776D01*
X1175044Y17770072D01*
X1172626Y17768786D01*
X1135349Y17738384D01*
X1097835Y17708437D01*
X1094031Y17704686D01*
X1093949Y17704619D01*
X1093887Y17704544D01*
X1092663Y17703337D01*
X393200Y17003874D01*
X393200Y22095080D01*
X425725Y22168133D01*
X450912Y22278993D01*
X452725Y22408843D01*
X430643Y22520362D01*
X393200Y22611206D01*
X393200Y27673800D01*
X2946400Y27673800D01*
X2994209Y27678488D01*
X3042091Y27682677D01*
X3044717Y27683440D01*
X3047441Y27683707D01*
X3093488Y27697609D01*
X3139585Y27711002D01*
X3142010Y27712259D01*
X3144633Y27713051D01*
X3187121Y27735642D01*
X3229721Y27757724D01*
X3231856Y27759428D01*
X3234274Y27760714D01*
X3271551Y27791116D01*
X3309065Y27821063D01*
X3312869Y27824814D01*
X3312951Y27824881D01*
X3313013Y27824956D01*
X3314237Y27826163D01*
X4250020Y28761946D01*
X4326638Y28791664D01*
X4422626Y28852580D01*
X4504953Y28930979D01*
X4570485Y29023876D01*
X4616725Y29127733D01*
X4641912Y29238593D01*
X4643725Y29368443D01*
X4621643Y29479962D01*
X4578321Y29585070D01*
X4515409Y29679760D01*
X4435303Y29760428D01*
X4341053Y29824000D01*
X4236251Y29868054D01*
X4124888Y29890914D01*
X4011206Y29891708D01*
X3899535Y29870405D01*
X3794128Y29827818D01*
X3699000Y29765568D01*
X3617775Y29686027D01*
X3553547Y29592224D01*
X3511990Y29495264D01*
X2730926Y28714200D01*
X393200Y28714200D01*
X393200Y38710026D01*
X2421220Y40738046D01*
X2497838Y40767764D01*
X2593826Y40828680D01*
X2676153Y40907079D01*
X2741685Y40999976D01*
X2787925Y41103833D01*
X2813112Y41214693D01*
X2814925Y41344543D01*
X2792843Y41456062D01*
X2749521Y41561170D01*
X2691900Y41647896D01*
X2691900Y45107702D01*
X2741685Y45178276D01*
X2787925Y45282133D01*
X2813112Y45392993D01*
X2814925Y45522843D01*
X2792843Y45634362D01*
X2749521Y45739470D01*
X2691900Y45826196D01*
X2691900Y49273302D01*
X2741685Y49343876D01*
X2787925Y49447733D01*
X2813112Y49558593D01*
X2813183Y49563712D01*
X9053771Y55804300D01*
X11137705Y55804300D01*
X11137705Y55411000D01*
X11141892Y55358497D01*
X11169469Y55269445D01*
X11220764Y55191602D01*
X11291715Y55131131D01*
X11376703Y55092821D01*
X11469000Y55079705D01*
X13169000Y55079705D01*
X13221503Y55083892D01*
X13310555Y55111469D01*
X13388398Y55162764D01*
X13448869Y55233715D01*
X13487179Y55318703D01*
X13500295Y55411000D01*
X13500295Y56068014D01*
X13643728Y56068014D01*
X13704729Y55834634D01*
X13810088Y55617639D01*
X13955756Y55425368D01*
X14136135Y55265210D01*
X14344294Y55143320D01*
X14572232Y55064382D01*
X14666014Y55045728D01*
X14858500Y55125625D01*
X14858500Y56260500D01*
X14859500Y56260500D01*
X14859500Y55125625D01*
X15051986Y55045728D01*
X15145768Y55064382D01*
X15373706Y55143320D01*
X15581865Y55265210D01*
X15762244Y55425368D01*
X15907912Y55617639D01*
X16013271Y55834634D01*
X16074272Y56068014D01*
X15994375Y56260500D01*
X14859500Y56260500D01*
X14858500Y56260500D01*
X13723625Y56260500D01*
X13643728Y56068014D01*
X13500295Y56068014D01*
X13500295Y56453986D01*
X13643728Y56453986D01*
X13723625Y56261500D01*
X14858500Y56261500D01*
X14858500Y57396375D01*
X14859500Y57396375D01*
X14859500Y56261500D01*
X15994375Y56261500D01*
X16074272Y56453986D01*
X16013271Y56687366D01*
X15907912Y56904361D01*
X15762244Y57096632D01*
X15581865Y57256790D01*
X15373706Y57378680D01*
X15145768Y57457618D01*
X15051986Y57476272D01*
X14859500Y57396375D01*
X14858500Y57396375D01*
X14666014Y57476272D01*
X14572232Y57457618D01*
X14344294Y57378680D01*
X14136135Y57256790D01*
X13955756Y57096632D01*
X13810088Y56904361D01*
X13704729Y56687366D01*
X13643728Y56453986D01*
X13500295Y56453986D01*
X13500295Y57111000D01*
X13496108Y57163503D01*
X13468531Y57252555D01*
X13417236Y57330398D01*
X13346285Y57390869D01*
X13261297Y57429179D01*
X13169000Y57442295D01*
X11469000Y57442295D01*
X11416497Y57438108D01*
X11327445Y57410531D01*
X11249602Y57359236D01*
X11189131Y57288285D01*
X11150821Y57203297D01*
X11137705Y57111000D01*
X11137705Y56717700D01*
X8864600Y56717700D01*
X8822597Y56713581D01*
X8780589Y56709906D01*
X8778285Y56709236D01*
X8775893Y56709002D01*
X8735484Y56696802D01*
X8694996Y56685039D01*
X8692865Y56683934D01*
X8690565Y56683240D01*
X8653286Y56663418D01*
X8615863Y56644020D01*
X8613988Y56642523D01*
X8611866Y56641395D01*
X8579160Y56614720D01*
X8546205Y56588413D01*
X8542862Y56585117D01*
X8542794Y56585061D01*
X8542742Y56584998D01*
X8541664Y56583935D01*
X2166379Y50208651D01*
X2070735Y50190405D01*
X1965328Y50147818D01*
X1870200Y50085568D01*
X1788975Y50006027D01*
X1724747Y49912224D01*
X1679962Y49807732D01*
X1656325Y49696531D01*
X1654738Y49582857D01*
X1675260Y49471040D01*
X1717111Y49365338D01*
X1778500Y49270081D01*
X1778500Y45825129D01*
X1724747Y45746624D01*
X1679962Y45642132D01*
X1656325Y45530931D01*
X1654738Y45417257D01*
X1675260Y45305440D01*
X1717111Y45199738D01*
X1778500Y45104481D01*
X1778500Y41646829D01*
X1724747Y41568324D01*
X1683190Y41471364D01*
X-494837Y39293337D01*
X-525326Y39256219D01*
X-556224Y39219396D01*
X-557542Y39216998D01*
X-559278Y39214885D01*
X-581978Y39172550D01*
X-605134Y39130429D01*
X-605961Y39127821D01*
X-607254Y39125410D01*
X-621308Y39079441D01*
X-635832Y39033656D01*
X-636137Y39030940D01*
X-636937Y39028322D01*
X-641797Y38980476D01*
X-647149Y38932763D01*
X-647187Y38927419D01*
X-647197Y38927316D01*
X-647188Y38927220D01*
X-647200Y38925500D01*
X-647200Y22609882D01*
X-682238Y22528132D01*
X-705875Y22416931D01*
X-707462Y22303257D01*
X-798594Y22303257D01*
X-801798Y58400221D01*
X-793091Y58489025D01*
X-773047Y58555415D01*
X-740485Y58616654D01*
X-696653Y58670398D01*
X-643213Y58714607D01*
X-582209Y58747592D01*
X-515955Y58768101D01*
X-428430Y58777300D01*
X587968Y58777300D01*
X499810Y58719611D01*
X499810Y58719611D01*
G37*
X499810Y58719611D02*
X299487Y58523440D01*
X141082Y58292096D01*
X30629Y58034390D01*
X-27665Y57760138D01*
X-31580Y57479787D01*
X19034Y57204014D01*
X122248Y56943325D01*
X274132Y56707648D01*
X468899Y56505960D01*
X699132Y56345944D01*
X956061Y56233695D01*
X1229899Y56173488D01*
X1510216Y56167616D01*
X1786335Y56216303D01*
X2047739Y56317695D01*
X2284470Y56467930D01*
X2487513Y56661284D01*
X2649132Y56890394D01*
X2763172Y57146533D01*
X2825290Y57419944D01*
X2829762Y57740189D01*
X2775302Y58015228D01*
X2668458Y58274451D01*
X2513299Y58507985D01*
X2315735Y58706933D01*
X2211412Y58777300D01*
X23387968Y58777300D01*
X23299810Y58719611D01*
X23099487Y58523440D01*
X22941082Y58292096D01*
X22830629Y58034390D01*
X22772335Y57760138D01*
X22768420Y57479787D01*
X22819034Y57204014D01*
X22922248Y56943325D01*
X23074132Y56707648D01*
X23268899Y56505960D01*
X23499132Y56345944D01*
X23756061Y56233695D01*
X24029899Y56173488D01*
X24310216Y56167616D01*
X24586335Y56216303D01*
X24847739Y56317695D01*
X25084470Y56467930D01*
X25287513Y56661284D01*
X25449132Y56890394D01*
X25563172Y57146533D01*
X25625290Y57419944D01*
X25629762Y57740189D01*
X25575302Y58015228D01*
X25468458Y58274451D01*
X25313299Y58507985D01*
X25115735Y58706933D01*
X25011412Y58777300D01*
X26713703Y58777300D01*
X26802525Y58768591D01*
X26868915Y58748547D01*
X26930154Y58715985D01*
X26983898Y58672153D01*
X27028107Y58618713D01*
X27061092Y58557709D01*
X27081601Y58491455D01*
X27090801Y58403916D01*
X27095182Y9047121D01*
X21538700Y14603603D01*
X21538700Y19445028D01*
X22599249Y20505578D01*
X22686447Y20520953D01*
X22792438Y20562064D01*
X22888426Y20622980D01*
X22970753Y20701379D01*
X23036285Y20794276D01*
X23082525Y20898133D01*
X23107712Y21008993D01*
X23109525Y21138843D01*
X23087443Y21250362D01*
X23044121Y21355470D01*
X22981209Y21450160D01*
X22901103Y21530828D01*
X22806853Y21594400D01*
X22702051Y21638454D01*
X22590688Y21661314D01*
X22477006Y21662108D01*
X22365335Y21640805D01*
X22259928Y21598218D01*
X22164800Y21535968D01*
X22083575Y21456427D01*
X22019347Y21362624D01*
X21974562Y21258132D01*
X21951482Y21149554D01*
X20759064Y19957136D01*
X20732251Y19924493D01*
X20705171Y19892220D01*
X20704016Y19890119D01*
X20702489Y19888260D01*
X20682541Y19851057D01*
X20662231Y19814113D01*
X20661505Y19811823D01*
X20660370Y19809707D01*
X20648035Y19769362D01*
X20635280Y19729153D01*
X20635012Y19726768D01*
X20634310Y19724470D01*
X20630044Y19682476D01*
X20625345Y19640577D01*
X20625312Y19635882D01*
X20625303Y19635795D01*
X20625311Y19635714D01*
X20625300Y19634200D01*
X20625300Y14733666D01*
X18661615Y16697351D01*
X18641830Y16797269D01*
X18598508Y16902377D01*
X18535596Y16997067D01*
X18455490Y17077735D01*
X18361240Y17141307D01*
X18256438Y17185361D01*
X18145075Y17208221D01*
X18031393Y17209015D01*
X17919722Y17187712D01*
X17814315Y17145125D01*
X17719187Y17082875D01*
X17637962Y17003334D01*
X17573734Y16909531D01*
X17528949Y16805039D01*
X17505312Y16693838D01*
X17503725Y16580164D01*
X17514708Y16520324D01*
X17446628Y16492818D01*
X17351500Y16430568D01*
X17270275Y16351027D01*
X17206047Y16257224D01*
X17161262Y16152732D01*
X17137625Y16041531D01*
X17136038Y15927857D01*
X17156560Y15816040D01*
X17198411Y15710338D01*
X17259995Y15614778D01*
X17338967Y15533000D01*
X17432319Y15468119D01*
X17536496Y15422605D01*
X17647529Y15398193D01*
X17761189Y15395812D01*
X17873147Y15415553D01*
X17979138Y15456664D01*
X18013807Y15478665D01*
X25552900Y7939573D01*
X25552900Y4964372D01*
X21470264Y881736D01*
X21443451Y849093D01*
X21416371Y816820D01*
X21415216Y814719D01*
X21413689Y812860D01*
X21393741Y775657D01*
X21373431Y738713D01*
X21372705Y736423D01*
X21371570Y734307D01*
X21359235Y693962D01*
X21346480Y653753D01*
X21346212Y651368D01*
X21345510Y649070D01*
X21341244Y607076D01*
X21336545Y565177D01*
X21336512Y560482D01*
X21336503Y560395D01*
X21336511Y560314D01*
X21336500Y558800D01*
X21336500Y-7299942D01*
X17848535Y-10787907D01*
X17831690Y-10702838D01*
X17788368Y-10597730D01*
X17725456Y-10503040D01*
X17645350Y-10422372D01*
X17551100Y-10358800D01*
X17446298Y-10314746D01*
X17334935Y-10291886D01*
X17221253Y-10291092D01*
X17109582Y-10312395D01*
X17004175Y-10354982D01*
X16909047Y-10417232D01*
X16827822Y-10496773D01*
X16763594Y-10590576D01*
X16722037Y-10687536D01*
X10886373Y-16523200D01*
X6760897Y-16523200D01*
X6674651Y-16486946D01*
X6563288Y-16464086D01*
X6449606Y-16463292D01*
X6337935Y-16484595D01*
X6232528Y-16527182D01*
X6137400Y-16589432D01*
X6056175Y-16668973D01*
X5991947Y-16762776D01*
X5947162Y-16867268D01*
X5923525Y-16978469D01*
X5921938Y-17092143D01*
X5942460Y-17203960D01*
X5984311Y-17309662D01*
X6045895Y-17405222D01*
X6124867Y-17487000D01*
X6218219Y-17551881D01*
X6322396Y-17597395D01*
X6433429Y-17621807D01*
X6547089Y-17624188D01*
X6659047Y-17604447D01*
X6764357Y-17563600D01*
X11101847Y-17563600D01*
X11149656Y-17558912D01*
X11197538Y-17554723D01*
X11200164Y-17553960D01*
X11202888Y-17553693D01*
X11248935Y-17539791D01*
X11295032Y-17526398D01*
X11297457Y-17525141D01*
X11300080Y-17524349D01*
X11342568Y-17501758D01*
X11385168Y-17479676D01*
X11387303Y-17477972D01*
X11389721Y-17476686D01*
X11426998Y-17446284D01*
X11464512Y-17416337D01*
X11468316Y-17412586D01*
X11468398Y-17412519D01*
X11468460Y-17412444D01*
X11469684Y-17411237D01*
X12802389Y-16078532D01*
X12842311Y-16179362D01*
X12903895Y-16274922D01*
X12921321Y-16292967D01*
X12884792Y-16346317D01*
X12840007Y-16450809D01*
X12816370Y-16562010D01*
X12814783Y-16675684D01*
X12835305Y-16787501D01*
X12877156Y-16893203D01*
X12938740Y-16988763D01*
X13017712Y-17070541D01*
X13111064Y-17135422D01*
X13215241Y-17180936D01*
X13326274Y-17205348D01*
X13439934Y-17207729D01*
X13551892Y-17187988D01*
X13657883Y-17146877D01*
X13753871Y-17085961D01*
X13836198Y-17007562D01*
X13901730Y-16914665D01*
X13947970Y-16810808D01*
X13973157Y-16699948D01*
X13973228Y-16694830D01*
X14656300Y-16011758D01*
X14656300Y-20405371D01*
X14602547Y-20483876D01*
X14557762Y-20588368D01*
X14534125Y-20699569D01*
X14532538Y-20813243D01*
X14553060Y-20925060D01*
X14594911Y-21030762D01*
X14656495Y-21126322D01*
X14735467Y-21208100D01*
X14828819Y-21272981D01*
X14932996Y-21318495D01*
X15044029Y-21342907D01*
X15157689Y-21345288D01*
X15269647Y-21325547D01*
X15375638Y-21284436D01*
X15427435Y-21251564D01*
X24443221Y-21251564D01*
X24464088Y-21480854D01*
X24529093Y-21701723D01*
X24635761Y-21905760D01*
X24780029Y-22085193D01*
X24956400Y-22233186D01*
X25158159Y-22344104D01*
X25377619Y-22413721D01*
X25606421Y-22439385D01*
X25622892Y-22439500D01*
X25634308Y-22439500D01*
X25863446Y-22417033D01*
X26083857Y-22350487D01*
X26287144Y-22242397D01*
X26465565Y-22096881D01*
X26612324Y-21919480D01*
X26721830Y-21716952D01*
X26789913Y-21497012D01*
X26813979Y-21268036D01*
X26793112Y-21038746D01*
X26728107Y-20817877D01*
X26621439Y-20613840D01*
X26477171Y-20434407D01*
X26300800Y-20286414D01*
X26099041Y-20175496D01*
X25879581Y-20105879D01*
X25650779Y-20080215D01*
X25634308Y-20080100D01*
X25622892Y-20080100D01*
X25393754Y-20102567D01*
X25173343Y-20169113D01*
X24970056Y-20277203D01*
X24791635Y-20422719D01*
X24644876Y-20600120D01*
X24535370Y-20802648D01*
X24467287Y-21022588D01*
X24443221Y-21251564D01*
X15427435Y-21251564D01*
X15471626Y-21223520D01*
X15553953Y-21145121D01*
X15619485Y-21052224D01*
X15665725Y-20948367D01*
X15690912Y-20837507D01*
X15692725Y-20707657D01*
X15670643Y-20596138D01*
X15627321Y-20491030D01*
X15569700Y-20404304D01*
X15569700Y-18711564D01*
X24443221Y-18711564D01*
X24464088Y-18940854D01*
X24529093Y-19161723D01*
X24635761Y-19365760D01*
X24780029Y-19545193D01*
X24956400Y-19693186D01*
X25158159Y-19804104D01*
X25377619Y-19873721D01*
X25606421Y-19899385D01*
X25622892Y-19899500D01*
X25634308Y-19899500D01*
X25863446Y-19877033D01*
X26083857Y-19810487D01*
X26287144Y-19702397D01*
X26465565Y-19556881D01*
X26612324Y-19379480D01*
X26721830Y-19176952D01*
X26789913Y-18957012D01*
X26813979Y-18728036D01*
X26793112Y-18498746D01*
X26728107Y-18277877D01*
X26621439Y-18073840D01*
X26477171Y-17894407D01*
X26300800Y-17746414D01*
X26099041Y-17635496D01*
X25879581Y-17565879D01*
X25650779Y-17540215D01*
X25634308Y-17540100D01*
X25622892Y-17540100D01*
X25393754Y-17562567D01*
X25173343Y-17629113D01*
X24970056Y-17737203D01*
X24791635Y-17882719D01*
X24644876Y-18060120D01*
X24535370Y-18262648D01*
X24467287Y-18482588D01*
X24443221Y-18711564D01*
X15569700Y-18711564D01*
X15569700Y-16171564D01*
X24443221Y-16171564D01*
X24464088Y-16400854D01*
X24529093Y-16621723D01*
X24635761Y-16825760D01*
X24780029Y-17005193D01*
X24956400Y-17153186D01*
X25158159Y-17264104D01*
X25377619Y-17333721D01*
X25606421Y-17359385D01*
X25622892Y-17359500D01*
X25634308Y-17359500D01*
X25863446Y-17337033D01*
X26083857Y-17270487D01*
X26287144Y-17162397D01*
X26465565Y-17016881D01*
X26612324Y-16839480D01*
X26721830Y-16636952D01*
X26789913Y-16417012D01*
X26813979Y-16188036D01*
X26793112Y-15958746D01*
X26728107Y-15737877D01*
X26621439Y-15533840D01*
X26477171Y-15354407D01*
X26300800Y-15206414D01*
X26099041Y-15095496D01*
X25879581Y-15025879D01*
X25650779Y-15000215D01*
X25634308Y-15000100D01*
X25622892Y-15000100D01*
X25393754Y-15022567D01*
X25173343Y-15089113D01*
X24970056Y-15197203D01*
X24791635Y-15342719D01*
X24644876Y-15520120D01*
X24535370Y-15722648D01*
X24467287Y-15942588D01*
X24443221Y-16171564D01*
X15569700Y-16171564D01*
X15569700Y-15683172D01*
X17621307Y-13631564D01*
X24443221Y-13631564D01*
X24464088Y-13860854D01*
X24529093Y-14081723D01*
X24635761Y-14285760D01*
X24780029Y-14465193D01*
X24956400Y-14613186D01*
X25158159Y-14724104D01*
X25377619Y-14793721D01*
X25606421Y-14819385D01*
X25622892Y-14819500D01*
X25634308Y-14819500D01*
X25863446Y-14797033D01*
X26083857Y-14730487D01*
X26287144Y-14622397D01*
X26465565Y-14476881D01*
X26612324Y-14299480D01*
X26721830Y-14096952D01*
X26789913Y-13877012D01*
X26813979Y-13648036D01*
X26793112Y-13418746D01*
X26728107Y-13197877D01*
X26621439Y-12993840D01*
X26477171Y-12814407D01*
X26300800Y-12666414D01*
X26099041Y-12555496D01*
X25879581Y-12485879D01*
X25650779Y-12460215D01*
X25634308Y-12460100D01*
X25622892Y-12460100D01*
X25393754Y-12482567D01*
X25173343Y-12549113D01*
X24970056Y-12657203D01*
X24791635Y-12802719D01*
X24644876Y-12980120D01*
X24535370Y-13182648D01*
X24467287Y-13402588D01*
X24443221Y-13631564D01*
X17621307Y-13631564D01*
X20161307Y-11091564D01*
X24443221Y-11091564D01*
X24464088Y-11320854D01*
X24529093Y-11541723D01*
X24635761Y-11745760D01*
X24780029Y-11925193D01*
X24956400Y-12073186D01*
X25158159Y-12184104D01*
X25377619Y-12253721D01*
X25606421Y-12279385D01*
X25622892Y-12279500D01*
X25634308Y-12279500D01*
X25863446Y-12257033D01*
X26083857Y-12190487D01*
X26287144Y-12082397D01*
X26465565Y-11936881D01*
X26612324Y-11759480D01*
X26721830Y-11556952D01*
X26789913Y-11337012D01*
X26813979Y-11108036D01*
X26793112Y-10878746D01*
X26728107Y-10657877D01*
X26621439Y-10453840D01*
X26477171Y-10274407D01*
X26300800Y-10126414D01*
X26099041Y-10015496D01*
X25879581Y-9945879D01*
X25650779Y-9920215D01*
X25634308Y-9920100D01*
X25622892Y-9920100D01*
X25393754Y-9942567D01*
X25173343Y-10009113D01*
X24970056Y-10117203D01*
X24791635Y-10262719D01*
X24644876Y-10440120D01*
X24535370Y-10642648D01*
X24467287Y-10862588D01*
X24443221Y-11091564D01*
X20161307Y-11091564D01*
X22928956Y-8323915D01*
X22955749Y-8291297D01*
X22982849Y-8259000D01*
X22984004Y-8256899D01*
X22985531Y-8255040D01*
X23005479Y-8217837D01*
X23025789Y-8180893D01*
X23026515Y-8178603D01*
X23027650Y-8176487D01*
X23039985Y-8136142D01*
X23052740Y-8095933D01*
X23053008Y-8093548D01*
X23053710Y-8091250D01*
X23057975Y-8049260D01*
X23062675Y-8007357D01*
X23062708Y-8002661D01*
X23062717Y-8002574D01*
X23062709Y-8002489D01*
X23062720Y-8000980D01*
X23062720Y32948D01*
X27095624Y4065852D01*
X27098418Y-27417301D01*
X27089711Y-27506106D01*
X27069666Y-27572497D01*
X27037105Y-27633734D01*
X26993272Y-27687479D01*
X26939835Y-27731686D01*
X26878829Y-27764672D01*
X26812574Y-27785181D01*
X26725050Y-27794380D01*
X25124049Y-27794380D01*
X25287513Y-27638716D01*
X25449132Y-27409606D01*
X25563172Y-27153467D01*
X25625290Y-26880056D01*
X25629762Y-26559811D01*
X25575302Y-26284772D01*
X25468458Y-26025549D01*
X25313299Y-25792015D01*
X25115735Y-25593067D01*
X24883290Y-25436281D01*
X24624820Y-25327630D01*
X24350167Y-25271252D01*
X24069796Y-25269295D01*
X23794383Y-25321832D01*
X23534421Y-25426864D01*
X23299810Y-25580389D01*
X23099487Y-25776560D01*
X22941082Y-26007904D01*
X22830629Y-26265610D01*
X22772335Y-26539862D01*
X22768420Y-26820213D01*
X22819034Y-27095986D01*
X22922248Y-27356675D01*
X23074132Y-27592352D01*
X23268899Y-27794040D01*
X23269388Y-27794380D01*
X2186286Y-27794380D01*
X2284470Y-27732070D01*
X2487513Y-27538716D01*
X2649132Y-27309606D01*
X2763172Y-27053467D01*
X2825290Y-26780056D01*
X2829762Y-26459811D01*
X2775302Y-26184772D01*
X2668458Y-25925549D01*
X2558862Y-25760592D01*
X8274749Y-25760592D01*
X8316513Y-25988143D01*
X8401679Y-26203248D01*
X8527004Y-26397714D01*
X8687713Y-26564134D01*
X8877687Y-26696169D01*
X9089689Y-26788790D01*
X9315643Y-26838469D01*
X9546943Y-26843314D01*
X9774780Y-26803141D01*
X9990474Y-26719478D01*
X10185810Y-26595514D01*
X10353348Y-26435970D01*
X10486706Y-26246923D01*
X10580805Y-26035573D01*
X10632061Y-25809971D01*
X10632750Y-25760592D01*
X15524749Y-25760592D01*
X15566513Y-25988143D01*
X15651679Y-26203248D01*
X15777004Y-26397714D01*
X15937713Y-26564134D01*
X16127687Y-26696169D01*
X16339689Y-26788790D01*
X16565643Y-26838469D01*
X16796943Y-26843314D01*
X17024780Y-26803141D01*
X17240474Y-26719478D01*
X17435810Y-26595514D01*
X17603348Y-26435970D01*
X17736706Y-26246923D01*
X17830805Y-26035573D01*
X17882061Y-25809971D01*
X17885751Y-25545724D01*
X17840814Y-25318779D01*
X17752653Y-25104885D01*
X17624625Y-24912187D01*
X17461607Y-24748027D01*
X17269809Y-24618658D01*
X17056535Y-24529005D01*
X16829909Y-24482486D01*
X16598563Y-24480871D01*
X16371310Y-24524222D01*
X16156805Y-24610887D01*
X15963219Y-24737567D01*
X15797925Y-24899434D01*
X15667219Y-25090325D01*
X15576080Y-25302968D01*
X15527980Y-25529264D01*
X15524749Y-25760592D01*
X10632750Y-25760592D01*
X10635751Y-25545724D01*
X10590814Y-25318779D01*
X10502653Y-25104885D01*
X10374625Y-24912187D01*
X10211607Y-24748027D01*
X10019809Y-24618658D01*
X9806535Y-24529005D01*
X9579909Y-24482486D01*
X9348563Y-24480871D01*
X9121310Y-24524222D01*
X8906805Y-24610887D01*
X8713219Y-24737567D01*
X8547925Y-24899434D01*
X8417219Y-25090325D01*
X8326080Y-25302968D01*
X8277980Y-25529264D01*
X8274749Y-25760592D01*
X2558862Y-25760592D01*
X2513299Y-25692015D01*
X2315735Y-25493067D01*
X2083290Y-25336281D01*
X1824820Y-25227630D01*
X1550167Y-25171252D01*
X1269796Y-25169295D01*
X994383Y-25221832D01*
X734421Y-25326864D01*
X499810Y-25480389D01*
X299487Y-25676560D01*
X141082Y-25907904D01*
X30629Y-26165610D01*
X-27665Y-26439862D01*
X-31580Y-26720213D01*
X19034Y-26995986D01*
X122248Y-27256675D01*
X274132Y-27492352D01*
X468899Y-27694040D01*
X613269Y-27794380D01*
X-443174Y-27794380D01*
X-522277Y-27782880D01*
X-587814Y-27759708D01*
X-647608Y-27724244D01*
X-699372Y-27677846D01*
X-741138Y-27622276D01*
X-771315Y-27559650D01*
X-789769Y-27488442D01*
X-794180Y-27431927D01*
X-794565Y-23089572D01*
X9725078Y-23089572D01*
X9757991Y-23268900D01*
X9825109Y-23438420D01*
X9923875Y-23591675D01*
X10050528Y-23722828D01*
X10200242Y-23826882D01*
X10367317Y-23899875D01*
X10545387Y-23939026D01*
X10727671Y-23942845D01*
X10907224Y-23911185D01*
X11077209Y-23845252D01*
X11231150Y-23747558D01*
X11363183Y-23621824D01*
X11468280Y-23472840D01*
X11542438Y-23306279D01*
X11582832Y-23128486D01*
X11583375Y-23089572D01*
X14575078Y-23089572D01*
X14607991Y-23268900D01*
X14675109Y-23438420D01*
X14773875Y-23591675D01*
X14900528Y-23722828D01*
X15050242Y-23826882D01*
X15217317Y-23899875D01*
X15395387Y-23939026D01*
X15577671Y-23942845D01*
X15757224Y-23911185D01*
X15797855Y-23895425D01*
X24398100Y-23895425D01*
X24398100Y-24687276D01*
X24412722Y-24760788D01*
X24441405Y-24830034D01*
X24483046Y-24892355D01*
X24536045Y-24945354D01*
X24598366Y-24986995D01*
X24667612Y-25015678D01*
X24741124Y-25030300D01*
X25532975Y-25030300D01*
X25628100Y-24935175D01*
X25628100Y-23800300D01*
X25629100Y-23800300D01*
X25629100Y-24935175D01*
X25724225Y-25030300D01*
X26516076Y-25030300D01*
X26589588Y-25015678D01*
X26658834Y-24986995D01*
X26721155Y-24945354D01*
X26774154Y-24892355D01*
X26815795Y-24830034D01*
X26844478Y-24760788D01*
X26859100Y-24687276D01*
X26859100Y-23895425D01*
X26763975Y-23800300D01*
X25629100Y-23800300D01*
X25628100Y-23800300D01*
X24493225Y-23800300D01*
X24398100Y-23895425D01*
X15797855Y-23895425D01*
X15927209Y-23845252D01*
X16081150Y-23747558D01*
X16213183Y-23621824D01*
X16318280Y-23472840D01*
X16392438Y-23306279D01*
X16432832Y-23128486D01*
X16435739Y-22920238D01*
X16434173Y-22912324D01*
X24398100Y-22912324D01*
X24398100Y-23704175D01*
X24493225Y-23799300D01*
X25628100Y-23799300D01*
X25628100Y-22664425D01*
X25629100Y-22664425D01*
X25629100Y-23799300D01*
X26763975Y-23799300D01*
X26859100Y-23704175D01*
X26859100Y-22912324D01*
X26844478Y-22838812D01*
X26815795Y-22769566D01*
X26774154Y-22707245D01*
X26721155Y-22654246D01*
X26658834Y-22612605D01*
X26589588Y-22583922D01*
X26516076Y-22569300D01*
X25724225Y-22569300D01*
X25629100Y-22664425D01*
X25628100Y-22664425D01*
X25532975Y-22569300D01*
X24741124Y-22569300D01*
X24667612Y-22583922D01*
X24598366Y-22612605D01*
X24536045Y-22654246D01*
X24483046Y-22707245D01*
X24441405Y-22769566D01*
X24412722Y-22838812D01*
X24398100Y-22912324D01*
X16434173Y-22912324D01*
X16400326Y-22741387D01*
X16330848Y-22572821D01*
X16229952Y-22420959D01*
X16101480Y-22291588D01*
X15950327Y-22189634D01*
X15782250Y-22118981D01*
X15603650Y-22082320D01*
X15421331Y-22081047D01*
X15242237Y-22115211D01*
X15073190Y-22183510D01*
X14920628Y-22283344D01*
X14790363Y-22410909D01*
X14687356Y-22561347D01*
X14615531Y-22728927D01*
X14577624Y-22907266D01*
X14575078Y-23089572D01*
X11583375Y-23089572D01*
X11585739Y-22920238D01*
X11550326Y-22741387D01*
X11480848Y-22572821D01*
X11379952Y-22420959D01*
X11251480Y-22291588D01*
X11100327Y-22189634D01*
X10932250Y-22118981D01*
X10753650Y-22082320D01*
X10571331Y-22081047D01*
X10392237Y-22115211D01*
X10223190Y-22183510D01*
X10070628Y-22283344D01*
X9940363Y-22410909D01*
X9837356Y-22561347D01*
X9765531Y-22728927D01*
X9727624Y-22907266D01*
X9725078Y-23089572D01*
X-794565Y-23089572D01*
X-798594Y22303257D01*
X-707462Y22303257D01*
X-686940Y22191440D01*
X-647200Y22091070D01*
X-647200Y12195882D01*
X-682238Y12114132D01*
X-705875Y12002931D01*
X-707462Y11889257D01*
X-686940Y11777440D01*
X-647200Y11677070D01*
X-647200Y6988882D01*
X-682238Y6907132D01*
X-705875Y6795931D01*
X-707462Y6682257D01*
X-686940Y6570440D01*
X-647200Y6470070D01*
X-647200Y3432882D01*
X-682238Y3351132D01*
X-705875Y3239931D01*
X-707462Y3126257D01*
X-686940Y3014440D01*
X-647200Y2914070D01*
X-647200Y127000D01*
X-642512Y79191D01*
X-638323Y31309D01*
X-637560Y28683D01*
X-637293Y25959D01*
X-623391Y-20088D01*
X-609998Y-66185D01*
X-608741Y-68610D01*
X-607949Y-71233D01*
X-585358Y-113721D01*
X-563276Y-156321D01*
X-561572Y-158456D01*
X-560286Y-160874D01*
X-529884Y-198151D01*
X-499937Y-235665D01*
X-496186Y-239469D01*
X-496119Y-239551D01*
X-496044Y-239613D01*
X-494837Y-240837D01*
X720006Y-1455680D01*
X751911Y-1536262D01*
X813495Y-1631822D01*
X892467Y-1713600D01*
X985819Y-1778481D01*
X1087021Y-1822695D01*
X1918163Y-2653837D01*
X1955281Y-2684326D01*
X1992104Y-2715224D01*
X1994502Y-2716542D01*
X1996615Y-2718278D01*
X2038950Y-2740978D01*
X2081071Y-2764134D01*
X2083679Y-2764961D01*
X2086090Y-2766254D01*
X2132059Y-2780308D01*
X2177844Y-2794832D01*
X2180560Y-2795137D01*
X2183178Y-2795937D01*
X2231024Y-2800797D01*
X2278737Y-2806149D01*
X2284081Y-2806187D01*
X2284184Y-2806197D01*
X2284280Y-2806188D01*
X2286000Y-2806200D01*
X11680643Y-2806200D01*
X11757996Y-2839995D01*
X11869029Y-2864407D01*
X11982689Y-2866788D01*
X12094647Y-2847047D01*
X12199957Y-2806200D01*
X16379643Y-2806200D01*
X16456996Y-2839995D01*
X16568029Y-2864407D01*
X16681689Y-2866788D01*
X16793647Y-2847047D01*
X16899638Y-2805936D01*
X16995626Y-2745020D01*
X17077953Y-2666621D01*
X17143485Y-2573724D01*
X17189725Y-2469867D01*
X17189995Y-2468679D01*
X21191820Y1533146D01*
X21268438Y1562864D01*
X21364426Y1623780D01*
X21446753Y1702179D01*
X21512285Y1795076D01*
X21558525Y1898933D01*
X21558795Y1900121D01*
X23100837Y3442163D01*
X23131348Y3479308D01*
X23162224Y3516104D01*
X23163540Y3518498D01*
X23165279Y3520615D01*
X23187999Y3562989D01*
X23211134Y3605071D01*
X23211961Y3607679D01*
X23213254Y3610090D01*
X23227308Y3656059D01*
X23241832Y3701844D01*
X23242137Y3704560D01*
X23242937Y3707178D01*
X23247797Y3755024D01*
X23253149Y3802737D01*
X23253187Y3808081D01*
X23253197Y3808184D01*
X23253188Y3808280D01*
X23253200Y3810000D01*
X23253200Y5626526D01*
X23427020Y5800346D01*
X23503638Y5830064D01*
X23599626Y5890980D01*
X23681953Y5969379D01*
X23747485Y6062276D01*
X23793725Y6166133D01*
X23818912Y6276993D01*
X23820725Y6406843D01*
X23798643Y6518362D01*
X23755321Y6623470D01*
X23692409Y6718160D01*
X23612303Y6798828D01*
X23518053Y6862400D01*
X23413251Y6906454D01*
X23301888Y6929314D01*
X23188206Y6930108D01*
X23076535Y6908805D01*
X22971128Y6866218D01*
X22876000Y6803968D01*
X22794775Y6724427D01*
X22730547Y6630624D01*
X22688990Y6533664D01*
X22365163Y6209837D01*
X22334674Y6172719D01*
X22303776Y6135896D01*
X22302458Y6133498D01*
X22300722Y6131385D01*
X22278022Y6089050D01*
X22254866Y6046929D01*
X22254039Y6044321D01*
X22252746Y6041910D01*
X22238692Y5995941D01*
X22224168Y5950156D01*
X22223863Y5947440D01*
X22223063Y5944822D01*
X22218203Y5896976D01*
X22212851Y5849263D01*
X22212813Y5843919D01*
X22212803Y5843816D01*
X22212812Y5843720D01*
X22212800Y5842000D01*
X22212800Y4025474D01*
X20820522Y2633196D01*
X20735928Y2599018D01*
X20640800Y2536768D01*
X20559575Y2457227D01*
X20495347Y2363424D01*
X20453790Y2266464D01*
X16451722Y-1735604D01*
X16376984Y-1765800D01*
X12196497Y-1765800D01*
X12110251Y-1729546D01*
X11998888Y-1706686D01*
X11885206Y-1705892D01*
X11773535Y-1727195D01*
X11677984Y-1765800D01*
X2501474Y-1765800D01*
X1820863Y-1085189D01*
X1784321Y-996530D01*
X1721409Y-901840D01*
X1641303Y-821172D01*
X1547053Y-757600D01*
X1454274Y-718600D01*
X393200Y342474D01*
X393200Y2918080D01*
X425725Y2991133D01*
X450912Y3101993D01*
X452725Y3231843D01*
X430643Y3343362D01*
X393200Y3434206D01*
X393200Y6474080D01*
X425725Y6547133D01*
X450912Y6657993D01*
X452725Y6787843D01*
X430643Y6899362D01*
X393200Y6990206D01*
X393200Y11254257D01*
X11357538Y11254257D01*
X11378060Y11142440D01*
X11419911Y11036738D01*
X11481300Y10941481D01*
X11481300Y5566129D01*
X11427547Y5487624D01*
X11382762Y5383132D01*
X11359125Y5271931D01*
X11357538Y5158257D01*
X11378060Y5046440D01*
X11419911Y4940738D01*
X11481300Y4845481D01*
X11481300Y232129D01*
X11427547Y153624D01*
X11382762Y49132D01*
X11359125Y-62069D01*
X11357538Y-175743D01*
X11378060Y-287560D01*
X11419911Y-393262D01*
X11481495Y-488822D01*
X11560467Y-570600D01*
X11653819Y-635481D01*
X11757996Y-680995D01*
X11869029Y-705407D01*
X11982689Y-707788D01*
X12094647Y-688047D01*
X12200638Y-646936D01*
X12296626Y-586020D01*
X12378953Y-507621D01*
X12444485Y-414724D01*
X12490725Y-310867D01*
X12515912Y-200007D01*
X12517725Y-70157D01*
X12495643Y41362D01*
X12452321Y146470D01*
X12394700Y233196D01*
X12394700Y1096630D01*
X12504029Y1072593D01*
X12617689Y1070212D01*
X12729647Y1089953D01*
X12835638Y1131064D01*
X12931626Y1191980D01*
X13013953Y1270379D01*
X13079485Y1363276D01*
X13125725Y1467133D01*
X13150912Y1577993D01*
X13152725Y1707843D01*
X13130643Y1819362D01*
X13087321Y1924470D01*
X13029700Y2011196D01*
X13029700Y3125055D01*
X13078796Y3103605D01*
X13189829Y3079193D01*
X13303489Y3076812D01*
X13415447Y3096553D01*
X13521438Y3137664D01*
X13617426Y3198580D01*
X13699753Y3276979D01*
X13765285Y3369876D01*
X13811525Y3473733D01*
X13836712Y3584593D01*
X13836783Y3589711D01*
X13868900Y3621828D01*
X13868900Y3454400D01*
X13873019Y3412397D01*
X13876694Y3370389D01*
X13877364Y3368085D01*
X13877598Y3365693D01*
X13889798Y3325284D01*
X13901561Y3284796D01*
X13902666Y3282665D01*
X13903360Y3280365D01*
X13923161Y3243126D01*
X13942579Y3205663D01*
X13944079Y3203785D01*
X13945205Y3201666D01*
X13971857Y3168987D01*
X13998187Y3136005D01*
X14001487Y3132658D01*
X14001539Y3132594D01*
X14001598Y3132545D01*
X14002664Y3131464D01*
X14460084Y2674044D01*
X14476860Y2582640D01*
X14518711Y2476938D01*
X14580295Y2381378D01*
X14659267Y2299600D01*
X14752619Y2234719D01*
X14856796Y2189205D01*
X14967829Y2164793D01*
X15081489Y2162412D01*
X15193447Y2182153D01*
X15299438Y2223264D01*
X15395426Y2284180D01*
X15477753Y2362579D01*
X15543285Y2455476D01*
X15589525Y2559333D01*
X15614712Y2670193D01*
X15616525Y2800043D01*
X15594443Y2911562D01*
X15551121Y3016670D01*
X15488209Y3111360D01*
X15408103Y3192028D01*
X15313853Y3255600D01*
X15209051Y3299654D01*
X15104822Y3321050D01*
X14782300Y3643572D01*
X14782300Y8938102D01*
X14832085Y9008676D01*
X14878325Y9112533D01*
X14903512Y9223393D01*
X14905325Y9353243D01*
X14883243Y9464762D01*
X14839921Y9569870D01*
X14782300Y9656596D01*
X14782300Y14651914D01*
X14778181Y14693917D01*
X14774506Y14735925D01*
X14773836Y14738229D01*
X14773602Y14740621D01*
X14761402Y14781030D01*
X14749639Y14821518D01*
X14748534Y14823649D01*
X14747840Y14825949D01*
X14728018Y14863228D01*
X14708620Y14900651D01*
X14707123Y14902526D01*
X14705995Y14904648D01*
X14679320Y14937354D01*
X14653013Y14970309D01*
X14649717Y14973652D01*
X14649661Y14973720D01*
X14649598Y14973772D01*
X14648535Y14974850D01*
X13755650Y15867736D01*
X13723007Y15894549D01*
X13690734Y15921629D01*
X13688633Y15922784D01*
X13686774Y15924311D01*
X13649571Y15944259D01*
X13612627Y15964569D01*
X13610337Y15965295D01*
X13608221Y15966430D01*
X13567876Y15978765D01*
X13527667Y15991520D01*
X13525282Y15991788D01*
X13522984Y15992490D01*
X13480990Y15996756D01*
X13439091Y16001455D01*
X13434396Y16001488D01*
X13434309Y16001497D01*
X13434228Y16001489D01*
X13432714Y16001500D01*
X13313632Y16001500D01*
X13231053Y16057200D01*
X13126251Y16101254D01*
X13014888Y16124114D01*
X12901206Y16124908D01*
X12789535Y16103605D01*
X12684128Y16061018D01*
X12589000Y15998768D01*
X12507775Y15919227D01*
X12443547Y15825424D01*
X12398762Y15720932D01*
X12375125Y15609731D01*
X12373538Y15496057D01*
X12394060Y15384240D01*
X12435911Y15278538D01*
X12497495Y15182978D01*
X12576467Y15101200D01*
X12669819Y15036319D01*
X12742469Y15004579D01*
X12730725Y14949331D01*
X12729138Y14835657D01*
X12749660Y14723840D01*
X12791511Y14618138D01*
X12853095Y14522578D01*
X12907538Y14466201D01*
X12843000Y14423968D01*
X12761775Y14344427D01*
X12697547Y14250624D01*
X12652762Y14146132D01*
X12629683Y14037555D01*
X11615064Y13022936D01*
X11588251Y12990293D01*
X11561171Y12958020D01*
X11560016Y12955919D01*
X11558489Y12954060D01*
X11538541Y12916857D01*
X11518231Y12879913D01*
X11517505Y12877623D01*
X11516370Y12875507D01*
X11504035Y12835162D01*
X11491280Y12794953D01*
X11491012Y12792568D01*
X11490310Y12790270D01*
X11486044Y12748276D01*
X11481345Y12706377D01*
X11481312Y12701682D01*
X11481303Y12701595D01*
X11481311Y12701514D01*
X11481300Y12700000D01*
X11481300Y11662129D01*
X11427547Y11583624D01*
X11382762Y11479132D01*
X11359125Y11367931D01*
X11357538Y11254257D01*
X393200Y11254257D01*
X393200Y11681080D01*
X425725Y11754133D01*
X450912Y11864993D01*
X452725Y11994843D01*
X430643Y12106362D01*
X393200Y12197206D01*
X393200Y15532526D01*
X1675974Y16815300D01*
X5584643Y16815300D01*
X5661996Y16781505D01*
X5773029Y16757093D01*
X5886689Y16754712D01*
X5998647Y16774453D01*
X6103957Y16815300D01*
X12688494Y16815300D01*
X12736303Y16819988D01*
X12784185Y16824177D01*
X12786811Y16824940D01*
X12789535Y16825207D01*
X12835582Y16839109D01*
X12881679Y16852502D01*
X12884104Y16853759D01*
X12886727Y16854551D01*
X12929215Y16877142D01*
X12971815Y16899224D01*
X12973950Y16900928D01*
X12976368Y16902214D01*
X13013645Y16932616D01*
X13051159Y16962563D01*
X13054963Y16966314D01*
X13055045Y16966381D01*
X13055107Y16966456D01*
X13056331Y16967663D01*
X16750837Y20662169D01*
X16781326Y20699287D01*
X16812224Y20736110D01*
X16813542Y20738508D01*
X16815278Y20740621D01*
X16837988Y20782975D01*
X16861134Y20825077D01*
X16861961Y20827683D01*
X16863254Y20830095D01*
X16877313Y20876079D01*
X16891832Y20921850D01*
X16892137Y20924566D01*
X16892937Y20927184D01*
X16897797Y20975030D01*
X16903149Y21022743D01*
X16903187Y21028087D01*
X16903197Y21028190D01*
X16903188Y21028286D01*
X16903200Y21030006D01*
X16903200Y22591577D01*
X16898512Y22639386D01*
X16894323Y22687268D01*
X16893560Y22689894D01*
X16893293Y22692618D01*
X16879405Y22738618D01*
X16865999Y22784762D01*
X16864739Y22787192D01*
X16863949Y22789810D01*
X16841376Y22832263D01*
X16819276Y22874898D01*
X16817572Y22877033D01*
X16816286Y22879451D01*
X16785884Y22916728D01*
X16755937Y22954242D01*
X16752186Y22958046D01*
X16752119Y22958128D01*
X16752044Y22958190D01*
X16750837Y22959414D01*
X16014200Y23696051D01*
X16014200Y25514800D01*
X19558000Y25514800D01*
X19605809Y25519488D01*
X19653691Y25523677D01*
X19656317Y25524440D01*
X19659041Y25524707D01*
X19705088Y25538609D01*
X19751185Y25552002D01*
X19753610Y25553259D01*
X19756233Y25554051D01*
X19798721Y25576642D01*
X19841321Y25598724D01*
X19843456Y25600428D01*
X19845874Y25601714D01*
X19883151Y25632116D01*
X19920665Y25662063D01*
X19924469Y25665814D01*
X19924551Y25665881D01*
X19924613Y25665956D01*
X19925837Y25667163D01*
X20488119Y26229445D01*
X25532941Y26229445D01*
X25558773Y26088694D01*
X25611452Y25955642D01*
X25688972Y25835355D01*
X25788378Y25732417D01*
X25905886Y25650746D01*
X26037019Y25593456D01*
X26176783Y25562727D01*
X26319853Y25559730D01*
X26460780Y25584579D01*
X26594197Y25636328D01*
X26715022Y25713006D01*
X26818652Y25811692D01*
X26901141Y25928627D01*
X26959345Y26059356D01*
X26991049Y26198902D01*
X26993332Y26362351D01*
X26965536Y26502727D01*
X26911005Y26635031D01*
X26831813Y26754223D01*
X26730979Y26855764D01*
X26612342Y26935786D01*
X26480422Y26991240D01*
X26340244Y27020014D01*
X26197145Y27021013D01*
X26056578Y26994199D01*
X25923897Y26940592D01*
X25804155Y26862235D01*
X25701912Y26762112D01*
X25621065Y26644037D01*
X25564691Y26512507D01*
X25534939Y26372532D01*
X25532941Y26229445D01*
X20488119Y26229445D01*
X21932437Y27673763D01*
X21962926Y27710881D01*
X21993824Y27747704D01*
X21995142Y27750102D01*
X21996878Y27752215D01*
X22019578Y27794550D01*
X22042734Y27836671D01*
X22043561Y27839279D01*
X22044854Y27841690D01*
X22058908Y27887659D01*
X22059690Y27890122D01*
X22071085Y27906276D01*
X22081400Y27929445D01*
X25532941Y27929445D01*
X25558773Y27788694D01*
X25611452Y27655642D01*
X25688972Y27535355D01*
X25788378Y27432417D01*
X25905886Y27350746D01*
X26037019Y27293456D01*
X26176783Y27262727D01*
X26319853Y27259730D01*
X26460780Y27284579D01*
X26594197Y27336328D01*
X26715022Y27413006D01*
X26818652Y27511692D01*
X26901141Y27628627D01*
X26959345Y27759356D01*
X26991049Y27898902D01*
X26993332Y28062351D01*
X26965536Y28202727D01*
X26911005Y28335031D01*
X26831813Y28454223D01*
X26730979Y28555764D01*
X26612342Y28635786D01*
X26480422Y28691240D01*
X26340244Y28720014D01*
X26197145Y28721013D01*
X26056578Y28694199D01*
X25923897Y28640592D01*
X25804155Y28562235D01*
X25701912Y28462112D01*
X25621065Y28344037D01*
X25564691Y28212507D01*
X25534939Y28072532D01*
X25532941Y27929445D01*
X22081400Y27929445D01*
X22117325Y28010133D01*
X22142512Y28120993D01*
X22144325Y28250843D01*
X22122243Y28362362D01*
X22084800Y28453206D01*
X22084800Y30629480D01*
X22117325Y30702533D01*
X22142512Y30813393D01*
X22142599Y30819628D01*
X22164348Y30846106D01*
X22191428Y30878379D01*
X22192583Y30880480D01*
X22194110Y30882339D01*
X22214058Y30919542D01*
X22234368Y30956486D01*
X22235094Y30958776D01*
X22236229Y30960892D01*
X22248564Y31001237D01*
X22261319Y31041446D01*
X22261587Y31043831D01*
X22262289Y31046129D01*
X22266555Y31088123D01*
X22271254Y31130022D01*
X22271287Y31134717D01*
X22271296Y31134804D01*
X22271288Y31134885D01*
X22271299Y31136399D01*
X22271299Y35843401D01*
X22267180Y35885404D01*
X22263505Y35927412D01*
X22262835Y35929716D01*
X22262601Y35932108D01*
X22250401Y35972517D01*
X22238638Y36013005D01*
X22237533Y36015136D01*
X22236839Y36017436D01*
X22217038Y36054675D01*
X22197620Y36092138D01*
X22196120Y36094016D01*
X22194994Y36096135D01*
X22168342Y36128814D01*
X22142012Y36161796D01*
X22138712Y36165143D01*
X22138660Y36165207D01*
X22138601Y36165256D01*
X22137535Y36166337D01*
X20135428Y38168444D01*
X20115643Y38268362D01*
X20072321Y38373470D01*
X20009409Y38468160D01*
X19929303Y38548828D01*
X19835053Y38612400D01*
X19730251Y38656454D01*
X19618888Y38679314D01*
X19505206Y38680108D01*
X19393535Y38658805D01*
X19288128Y38616218D01*
X19193000Y38553968D01*
X19111775Y38474427D01*
X19047547Y38380624D01*
X19002762Y38276132D01*
X18979125Y38164931D01*
X18977538Y38051257D01*
X18998060Y37939440D01*
X19039911Y37833738D01*
X19101495Y37738178D01*
X19180467Y37656400D01*
X19273819Y37591519D01*
X19377996Y37546005D01*
X19489029Y37521593D01*
X19490567Y37521561D01*
X21357899Y35654229D01*
X21357899Y31428141D01*
X21294728Y31402618D01*
X21199600Y31340368D01*
X21118375Y31260827D01*
X21054147Y31167024D01*
X21009362Y31062532D01*
X20985725Y30951331D01*
X20984138Y30837657D01*
X21004660Y30725840D01*
X21044400Y30625470D01*
X21044400Y28451882D01*
X21009362Y28370132D01*
X20985725Y28258931D01*
X20984868Y28197542D01*
X19342526Y26555200D01*
X15752497Y26555200D01*
X15671850Y26589101D01*
X15685616Y26602210D01*
X15751148Y26695107D01*
X15797388Y26798964D01*
X15822575Y26909824D01*
X15824388Y27039674D01*
X15802306Y27151193D01*
X15758984Y27256301D01*
X15696072Y27350991D01*
X15615966Y27431659D01*
X15521716Y27495231D01*
X15416914Y27539285D01*
X15305551Y27562145D01*
X15191869Y27562939D01*
X15171962Y27559141D01*
X15171962Y28623090D01*
X18408250Y31859378D01*
X18495447Y31874753D01*
X18601438Y31915864D01*
X18697426Y31976780D01*
X18779753Y32055179D01*
X18845285Y32148076D01*
X18891525Y32251933D01*
X18916712Y32362793D01*
X18918525Y32492643D01*
X18896443Y32604162D01*
X18853121Y32709270D01*
X18790209Y32803960D01*
X18710103Y32884628D01*
X18674201Y32908844D01*
X20088722Y34323364D01*
X20137419Y34289519D01*
X20241596Y34244005D01*
X20352629Y34219593D01*
X20466289Y34217212D01*
X20578247Y34236953D01*
X20684238Y34278064D01*
X20780226Y34338980D01*
X20862553Y34417379D01*
X20928085Y34510276D01*
X20974325Y34614133D01*
X20999512Y34724993D01*
X21001325Y34854843D01*
X20979243Y34966362D01*
X20935921Y35071470D01*
X20873009Y35166160D01*
X20792903Y35246828D01*
X20698653Y35310400D01*
X20593851Y35354454D01*
X20482488Y35377314D01*
X20368806Y35378108D01*
X20257135Y35356805D01*
X20151728Y35314218D01*
X20060775Y35254700D01*
X19917486Y35254700D01*
X19875483Y35250581D01*
X19833475Y35246906D01*
X19831171Y35246236D01*
X19828779Y35246002D01*
X19788370Y35233802D01*
X19747882Y35222039D01*
X19745751Y35220934D01*
X19743451Y35220240D01*
X19706172Y35200418D01*
X19668749Y35181020D01*
X19666874Y35179523D01*
X19664752Y35178395D01*
X19632046Y35151720D01*
X19599091Y35125413D01*
X19595748Y35122117D01*
X19595680Y35122061D01*
X19595628Y35121998D01*
X19594550Y35120935D01*
X16847464Y32373850D01*
X16820651Y32341207D01*
X16793571Y32308934D01*
X16792416Y32306833D01*
X16790889Y32304974D01*
X16780238Y32285110D01*
X13985916Y29490788D01*
X13959103Y29458145D01*
X13932023Y29425872D01*
X13930868Y29423771D01*
X13929341Y29421912D01*
X13909393Y29384709D01*
X13889083Y29347765D01*
X13888357Y29345475D01*
X13887222Y29343359D01*
X13874887Y29303014D01*
X13862132Y29262805D01*
X13861864Y29260420D01*
X13861162Y29258122D01*
X13856896Y29216128D01*
X13852197Y29174229D01*
X13852164Y29169534D01*
X13852155Y29169447D01*
X13852163Y29169366D01*
X13852152Y29167852D01*
X13852152Y26156716D01*
X13589880Y25894444D01*
X13608112Y25974693D01*
X13609925Y26104543D01*
X13587843Y26216062D01*
X13544521Y26321170D01*
X13481609Y26415860D01*
X13401503Y26496528D01*
X13334520Y26541708D01*
X13334520Y36727701D01*
X17416157Y40809338D01*
X17472996Y40784505D01*
X17584029Y40760093D01*
X17697689Y40757712D01*
X17809647Y40777453D01*
X17915638Y40818564D01*
X18011626Y40879480D01*
X18093953Y40957879D01*
X18159485Y41050776D01*
X18205725Y41154633D01*
X18230912Y41265493D01*
X18232725Y41395343D01*
X18210643Y41506862D01*
X18167321Y41611970D01*
X18104409Y41706660D01*
X18024303Y41787328D01*
X17930053Y41850900D01*
X17825251Y41894954D01*
X17713888Y41917814D01*
X17600206Y41918608D01*
X17488535Y41897305D01*
X17383128Y41854718D01*
X17290893Y41794361D01*
X17257444Y41791081D01*
X17215436Y41787406D01*
X17213132Y41786736D01*
X17210740Y41786502D01*
X17170331Y41774302D01*
X17129843Y41762539D01*
X17127712Y41761434D01*
X17125412Y41760740D01*
X17088173Y41740939D01*
X17050710Y41721521D01*
X17048832Y41720021D01*
X17046713Y41718895D01*
X17014034Y41692243D01*
X16981052Y41665913D01*
X16977705Y41662613D01*
X16977641Y41662561D01*
X16977592Y41662502D01*
X16976511Y41661436D01*
X12928110Y37613035D01*
X12928110Y40004990D01*
X12923991Y40046993D01*
X12920316Y40089001D01*
X12919646Y40091305D01*
X12919412Y40093697D01*
X12907212Y40134106D01*
X12895449Y40174594D01*
X12894344Y40176725D01*
X12893650Y40179025D01*
X12873828Y40216304D01*
X12854430Y40253727D01*
X12852933Y40255602D01*
X12851805Y40257724D01*
X12825130Y40290430D01*
X12798823Y40323385D01*
X12795527Y40326728D01*
X12795471Y40326796D01*
X12795408Y40326848D01*
X12794345Y40327926D01*
X8584700Y44537572D01*
X8584700Y47004757D01*
X13262538Y47004757D01*
X13283060Y46892940D01*
X13324911Y46787238D01*
X13386495Y46691678D01*
X13465467Y46609900D01*
X13558819Y46545019D01*
X13662996Y46499505D01*
X13774029Y46475093D01*
X13887689Y46472712D01*
X13999647Y46492453D01*
X14105638Y46533564D01*
X14201626Y46594480D01*
X14283953Y46672879D01*
X14349485Y46765776D01*
X14395725Y46869633D01*
X14420912Y46980493D01*
X14420983Y46985611D01*
X15852129Y48416757D01*
X17326538Y48416757D01*
X17347060Y48304940D01*
X17388911Y48199238D01*
X17450495Y48103678D01*
X17529467Y48021900D01*
X17622819Y47957019D01*
X17726996Y47911505D01*
X17838029Y47887093D01*
X17951689Y47884712D01*
X18063647Y47904453D01*
X18169638Y47945564D01*
X18265626Y48006480D01*
X18268062Y48008800D01*
X21224000Y48008800D01*
X21266003Y48012919D01*
X21308011Y48016594D01*
X21310315Y48017264D01*
X21312707Y48017498D01*
X21353116Y48029698D01*
X21393604Y48041461D01*
X21395735Y48042566D01*
X21398035Y48043260D01*
X21435274Y48063061D01*
X21472737Y48082479D01*
X21474615Y48083979D01*
X21476734Y48085105D01*
X21509413Y48111757D01*
X21542395Y48138087D01*
X21545742Y48141387D01*
X21545806Y48141439D01*
X21545855Y48141498D01*
X21546936Y48142564D01*
X22802449Y49398078D01*
X22889647Y49413453D01*
X22995638Y49454564D01*
X23091626Y49515480D01*
X23173953Y49593879D01*
X23239485Y49686776D01*
X23285725Y49790633D01*
X23310912Y49901493D01*
X23312725Y50031343D01*
X23290643Y50142862D01*
X23247321Y50247970D01*
X23184409Y50342660D01*
X23104303Y50423328D01*
X23010053Y50486900D01*
X22905251Y50530954D01*
X22793888Y50553814D01*
X22680206Y50554608D01*
X22568535Y50533305D01*
X22463128Y50490718D01*
X22368000Y50428468D01*
X22286775Y50348927D01*
X22222547Y50255124D01*
X22177762Y50150632D01*
X22154682Y50042054D01*
X21034828Y48922200D01*
X18266632Y48922200D01*
X18184053Y48977900D01*
X18079251Y49021954D01*
X17967888Y49044814D01*
X17854206Y49045608D01*
X17742535Y49024305D01*
X17637128Y48981718D01*
X17542000Y48919468D01*
X17460775Y48839927D01*
X17396547Y48746124D01*
X17351762Y48641632D01*
X17328125Y48530431D01*
X17326538Y48416757D01*
X15852129Y48416757D01*
X18985172Y51549800D01*
X22374316Y51549800D01*
X22448819Y51498019D01*
X22552996Y51452505D01*
X22664029Y51428093D01*
X22777689Y51425712D01*
X22889647Y51445453D01*
X22995638Y51486564D01*
X23091626Y51547480D01*
X23173953Y51625879D01*
X23205932Y51671211D01*
X24625800Y50251343D01*
X24625800Y43983629D01*
X24572047Y43905124D01*
X24527262Y43800632D01*
X24503625Y43689431D01*
X24502038Y43575757D01*
X24522560Y43463940D01*
X24564411Y43358238D01*
X24625995Y43262678D01*
X24704967Y43180900D01*
X24798319Y43116019D01*
X24902496Y43070505D01*
X25013529Y43046093D01*
X25127189Y43043712D01*
X25239147Y43063453D01*
X25345138Y43104564D01*
X25441126Y43165480D01*
X25523453Y43243879D01*
X25588985Y43336776D01*
X25635225Y43440633D01*
X25660412Y43551493D01*
X25662225Y43681343D01*
X25640143Y43792862D01*
X25596821Y43897970D01*
X25539200Y43984696D01*
X25539200Y50440514D01*
X25535081Y50482517D01*
X25531406Y50524525D01*
X25530736Y50526829D01*
X25530502Y50529221D01*
X25518302Y50569630D01*
X25506539Y50610118D01*
X25505434Y50612249D01*
X25504740Y50614549D01*
X25484918Y50651828D01*
X25465520Y50689251D01*
X25464023Y50691126D01*
X25462895Y50693248D01*
X25436220Y50725954D01*
X25409913Y50758909D01*
X25406617Y50762252D01*
X25406561Y50762320D01*
X25406498Y50762372D01*
X25405435Y50763450D01*
X19584950Y56583936D01*
X19552307Y56610749D01*
X19520034Y56637829D01*
X19517933Y56638984D01*
X19516074Y56640511D01*
X19478871Y56660459D01*
X19441927Y56680769D01*
X19439637Y56681495D01*
X19437521Y56682630D01*
X19397176Y56694965D01*
X19356967Y56707720D01*
X19354582Y56707988D01*
X19352284Y56708690D01*
X19310290Y56712956D01*
X19268391Y56717655D01*
X19263696Y56717688D01*
X19263609Y56717697D01*
X19263528Y56717689D01*
X19262014Y56717700D01*
X18488920Y56717700D01*
X18381597Y56919544D01*
X18236081Y57097965D01*
X18058680Y57244724D01*
X17856152Y57354230D01*
X17636212Y57422313D01*
X17407236Y57446379D01*
X17177946Y57425512D01*
X16957077Y57360507D01*
X16753040Y57253839D01*
X16573607Y57109571D01*
X16425614Y56933200D01*
X16314696Y56731441D01*
X16245079Y56511981D01*
X16219415Y56283179D01*
X16219300Y56266708D01*
X16219300Y56255292D01*
X16241767Y56026154D01*
X16308313Y55805743D01*
X16416403Y55602456D01*
X16561919Y55424035D01*
X16739320Y55277276D01*
X16941848Y55167770D01*
X17161788Y55099687D01*
X17390764Y55075621D01*
X17620054Y55096488D01*
X17840923Y55161493D01*
X18044960Y55268161D01*
X18224393Y55412429D01*
X18372386Y55588800D01*
X18483304Y55790559D01*
X18487663Y55804300D01*
X19072842Y55804300D01*
X22397422Y52479721D01*
X22372175Y52463200D01*
X18796000Y52463200D01*
X18753993Y52459081D01*
X18711990Y52455406D01*
X18709686Y52454737D01*
X18707293Y52454502D01*
X18666872Y52442298D01*
X18626396Y52430539D01*
X18624265Y52429434D01*
X18621965Y52428740D01*
X18584726Y52408939D01*
X18547263Y52389521D01*
X18545385Y52388022D01*
X18543266Y52386895D01*
X18510563Y52360223D01*
X18477606Y52333913D01*
X18474260Y52330615D01*
X18474194Y52330561D01*
X18474144Y52330500D01*
X18473064Y52329436D01*
X13774179Y47630551D01*
X13678535Y47612305D01*
X13573128Y47569718D01*
X13478000Y47507468D01*
X13396775Y47427927D01*
X13332547Y47334124D01*
X13287762Y47229632D01*
X13264125Y47118431D01*
X13262538Y47004757D01*
X8584700Y47004757D01*
X8584700Y49554500D01*
X11010705Y49554500D01*
X11010705Y47854500D01*
X11014892Y47801997D01*
X11042469Y47712945D01*
X11093764Y47635102D01*
X11164715Y47574631D01*
X11249703Y47536321D01*
X11342000Y47523205D01*
X13042000Y47523205D01*
X13094503Y47527392D01*
X13183555Y47554969D01*
X13261398Y47606264D01*
X13321869Y47677215D01*
X13360179Y47762203D01*
X13373295Y47854500D01*
X13373295Y49554500D01*
X13369108Y49607003D01*
X13341531Y49696055D01*
X13290236Y49773898D01*
X13219285Y49834369D01*
X13134297Y49872679D01*
X13042000Y49885795D01*
X11342000Y49885795D01*
X11289497Y49881608D01*
X11200445Y49854031D01*
X11122602Y49802736D01*
X11062131Y49731785D01*
X11023821Y49646797D01*
X11010705Y49554500D01*
X8584700Y49554500D01*
X8584700Y51252736D01*
X11006621Y51252736D01*
X11027488Y51023446D01*
X11092493Y50802577D01*
X11199161Y50598540D01*
X11343429Y50419107D01*
X11519800Y50271114D01*
X11721559Y50160196D01*
X11941019Y50090579D01*
X12169821Y50064915D01*
X12186292Y50064800D01*
X12197708Y50064800D01*
X12426846Y50087267D01*
X12647257Y50153813D01*
X12850544Y50261903D01*
X13028965Y50407419D01*
X13175724Y50584820D01*
X13285230Y50787348D01*
X13353313Y51007288D01*
X13377379Y51236264D01*
X13356512Y51465554D01*
X13291507Y51686423D01*
X13184839Y51890460D01*
X13040571Y52069893D01*
X12864200Y52217886D01*
X12662441Y52328804D01*
X12442981Y52398421D01*
X12214179Y52424085D01*
X12197708Y52424200D01*
X12186292Y52424200D01*
X11957154Y52401733D01*
X11736743Y52335187D01*
X11533456Y52227097D01*
X11355035Y52081581D01*
X11208276Y51904180D01*
X11098770Y51701652D01*
X11030687Y51481712D01*
X11006621Y51252736D01*
X8584700Y51252736D01*
X8584700Y51473100D01*
X8580581Y51515103D01*
X8576906Y51557111D01*
X8576236Y51559415D01*
X8576002Y51561807D01*
X8563802Y51602216D01*
X8552039Y51642704D01*
X8550934Y51644835D01*
X8550240Y51647135D01*
X8530439Y51684374D01*
X8511021Y51721837D01*
X8509521Y51723715D01*
X8508395Y51725834D01*
X8481743Y51758513D01*
X8455413Y51791495D01*
X8452113Y51794842D01*
X8452061Y51794906D01*
X8452002Y51794955D01*
X8450936Y51796036D01*
X7587828Y52659144D01*
X7568043Y52759062D01*
X7524721Y52864170D01*
X7461809Y52958860D01*
X7381703Y53039528D01*
X7287453Y53103100D01*
X7182651Y53147154D01*
X7071288Y53170014D01*
X6957606Y53170808D01*
X6845935Y53149505D01*
X6740528Y53106918D01*
X6645400Y53044668D01*
X6564175Y52965127D01*
X6499947Y52871324D01*
X6455162Y52766832D01*
X6431525Y52655631D01*
X6429938Y52541957D01*
X6450460Y52430140D01*
X6492311Y52324438D01*
X6553895Y52228878D01*
X6632867Y52147100D01*
X6726219Y52082219D01*
X6830396Y52036705D01*
X6941429Y52012293D01*
X6942967Y52012261D01*
X7671300Y51283928D01*
X7671300Y48435472D01*
X7562428Y48544344D01*
X7542643Y48644262D01*
X7499321Y48749370D01*
X7436409Y48844060D01*
X7356303Y48924728D01*
X7262053Y48988300D01*
X7157251Y49032354D01*
X7045888Y49055214D01*
X6932206Y49056008D01*
X6820535Y49034705D01*
X6715128Y48992118D01*
X6620000Y48929868D01*
X6538775Y48850327D01*
X6474547Y48756524D01*
X6429762Y48652032D01*
X6406125Y48540831D01*
X6404538Y48427157D01*
X6425060Y48315340D01*
X6466911Y48209638D01*
X6528495Y48114078D01*
X6607467Y48032300D01*
X6700819Y47967419D01*
X6804996Y47921905D01*
X6916029Y47897493D01*
X6917567Y47897461D01*
X7252200Y47562828D01*
X7252200Y44812119D01*
X7182651Y44841354D01*
X7071288Y44864214D01*
X6957606Y44865008D01*
X6845935Y44843705D01*
X6740528Y44801118D01*
X6645400Y44738868D01*
X6564175Y44659327D01*
X6499947Y44565524D01*
X6455162Y44461032D01*
X6431525Y44349831D01*
X6429938Y44236157D01*
X6450460Y44124340D01*
X6492311Y44018638D01*
X6553895Y43923078D01*
X6632867Y43841300D01*
X6726219Y43776419D01*
X6830396Y43730905D01*
X6941429Y43706493D01*
X6942967Y43706461D01*
X11201890Y39447538D01*
X11201890Y23912762D01*
X11107179Y23818051D01*
X11073296Y23811587D01*
X11073296Y35928904D01*
X11069177Y35970911D01*
X11065502Y36012914D01*
X11064833Y36015218D01*
X11064598Y36017611D01*
X11052394Y36058032D01*
X11040635Y36098508D01*
X11039530Y36100639D01*
X11038836Y36102939D01*
X11019035Y36140178D01*
X10999617Y36177641D01*
X10998118Y36179519D01*
X10996991Y36181638D01*
X10970319Y36214341D01*
X10944009Y36247298D01*
X10940714Y36250640D01*
X10940657Y36250710D01*
X10940592Y36250763D01*
X10939532Y36251839D01*
X9784928Y37406444D01*
X9765143Y37506362D01*
X9721821Y37611470D01*
X9658909Y37706160D01*
X9578803Y37786828D01*
X9484553Y37850400D01*
X9379751Y37894454D01*
X9268388Y37917314D01*
X9154706Y37918108D01*
X9043035Y37896805D01*
X8937628Y37854218D01*
X8842500Y37791968D01*
X8761275Y37712427D01*
X8697047Y37618624D01*
X8652262Y37514132D01*
X8628625Y37402931D01*
X8628508Y37394523D01*
X8598535Y37388805D01*
X8493128Y37346218D01*
X8398000Y37283968D01*
X8316775Y37204427D01*
X8252547Y37110624D01*
X8207762Y37006132D01*
X8184125Y36894931D01*
X8182538Y36781257D01*
X8203060Y36669440D01*
X8244911Y36563738D01*
X8306300Y36468481D01*
X8306300Y35783872D01*
X8310419Y35741869D01*
X8314094Y35699861D01*
X8314764Y35697557D01*
X8314998Y35695165D01*
X8327198Y35654756D01*
X8338961Y35614268D01*
X8340066Y35612137D01*
X8340760Y35609837D01*
X8360561Y35572598D01*
X8379979Y35535135D01*
X8381479Y35533257D01*
X8382605Y35531138D01*
X8409257Y35498459D01*
X8435587Y35465477D01*
X8438887Y35462130D01*
X8438939Y35462066D01*
X8438998Y35462017D01*
X8440064Y35460936D01*
X8969462Y34931538D01*
X8961093Y34926061D01*
X8879868Y34846520D01*
X8815640Y34752717D01*
X8770855Y34648225D01*
X8747218Y34537024D01*
X8745631Y34423350D01*
X8766153Y34311533D01*
X8808004Y34205831D01*
X8869588Y34110271D01*
X8948560Y34028493D01*
X9041912Y33963612D01*
X9146089Y33918098D01*
X9257122Y33893686D01*
X9258660Y33893654D01*
X9305611Y33846703D01*
X9305611Y32148273D01*
X9230553Y32198900D01*
X9125751Y32242954D01*
X9014388Y32265814D01*
X8900706Y32266608D01*
X8789035Y32245305D01*
X8683628Y32202718D01*
X8588500Y32140468D01*
X8507275Y32060927D01*
X8443047Y31967124D01*
X8398262Y31862632D01*
X8374625Y31751431D01*
X8373038Y31637757D01*
X8393560Y31525940D01*
X8435411Y31420238D01*
X8496995Y31324678D01*
X8575967Y31242900D01*
X8669319Y31178019D01*
X8773496Y31132505D01*
X8884529Y31108093D01*
X8886067Y31108061D01*
X8899201Y31094927D01*
X8899201Y21991073D01*
X8440179Y21532051D01*
X8344535Y21513805D01*
X8239128Y21471218D01*
X8144000Y21408968D01*
X8062775Y21329427D01*
X7998547Y21235624D01*
X7953762Y21131132D01*
X7930125Y21019931D01*
X7928538Y20906257D01*
X7949060Y20794440D01*
X7990911Y20688738D01*
X8052495Y20593178D01*
X8131467Y20511400D01*
X8224819Y20446519D01*
X8328996Y20401005D01*
X8440029Y20376593D01*
X8553689Y20374212D01*
X8665647Y20393953D01*
X8771638Y20435064D01*
X8867626Y20495980D01*
X8882272Y20509927D01*
X8973505Y20446519D01*
X9077682Y20401005D01*
X9188715Y20376593D01*
X9302375Y20374212D01*
X9414333Y20393953D01*
X9520324Y20435064D01*
X9616312Y20495980D01*
X9668168Y20545362D01*
X9692097Y20484924D01*
X9753681Y20389364D01*
X9832653Y20307586D01*
X9926005Y20242705D01*
X10030182Y20197191D01*
X10141215Y20172779D01*
X10254875Y20170398D01*
X10366833Y20190139D01*
X10472824Y20231250D01*
X10568812Y20292166D01*
X10651139Y20370565D01*
X10683117Y20415897D01*
X11227300Y19871714D01*
X11227300Y18520129D01*
X11173547Y18441624D01*
X11128762Y18337132D01*
X11105125Y18225931D01*
X11103538Y18112257D01*
X11124060Y18000440D01*
X11165911Y17894738D01*
X11191069Y17855700D01*
X6100497Y17855700D01*
X6014251Y17891954D01*
X5902888Y17914814D01*
X5789206Y17915608D01*
X5677535Y17894305D01*
X5581984Y17855700D01*
X1460500Y17855700D01*
X1412691Y17851012D01*
X1364809Y17846823D01*
X1362183Y17846060D01*
X1359459Y17845793D01*
X1313412Y17831891D01*
X1267315Y17818498D01*
X1264890Y17817241D01*
X1262267Y17816449D01*
X1219779Y17793858D01*
X1177179Y17771776D01*
X1175044Y17770072D01*
X1172626Y17768786D01*
X1135349Y17738384D01*
X1097835Y17708437D01*
X1094031Y17704686D01*
X1093949Y17704619D01*
X1093887Y17704544D01*
X1092663Y17703337D01*
X393200Y17003874D01*
X393200Y22095080D01*
X425725Y22168133D01*
X450912Y22278993D01*
X452725Y22408843D01*
X430643Y22520362D01*
X393200Y22611206D01*
X393200Y27673800D01*
X2946400Y27673800D01*
X2994209Y27678488D01*
X3042091Y27682677D01*
X3044717Y27683440D01*
X3047441Y27683707D01*
X3093488Y27697609D01*
X3139585Y27711002D01*
X3142010Y27712259D01*
X3144633Y27713051D01*
X3187121Y27735642D01*
X3229721Y27757724D01*
X3231856Y27759428D01*
X3234274Y27760714D01*
X3271551Y27791116D01*
X3309065Y27821063D01*
X3312869Y27824814D01*
X3312951Y27824881D01*
X3313013Y27824956D01*
X3314237Y27826163D01*
X4250020Y28761946D01*
X4326638Y28791664D01*
X4422626Y28852580D01*
X4504953Y28930979D01*
X4570485Y29023876D01*
X4616725Y29127733D01*
X4641912Y29238593D01*
X4643725Y29368443D01*
X4621643Y29479962D01*
X4578321Y29585070D01*
X4515409Y29679760D01*
X4435303Y29760428D01*
X4341053Y29824000D01*
X4236251Y29868054D01*
X4124888Y29890914D01*
X4011206Y29891708D01*
X3899535Y29870405D01*
X3794128Y29827818D01*
X3699000Y29765568D01*
X3617775Y29686027D01*
X3553547Y29592224D01*
X3511990Y29495264D01*
X2730926Y28714200D01*
X393200Y28714200D01*
X393200Y38710026D01*
X2421220Y40738046D01*
X2497838Y40767764D01*
X2593826Y40828680D01*
X2676153Y40907079D01*
X2741685Y40999976D01*
X2787925Y41103833D01*
X2813112Y41214693D01*
X2814925Y41344543D01*
X2792843Y41456062D01*
X2749521Y41561170D01*
X2691900Y41647896D01*
X2691900Y45107702D01*
X2741685Y45178276D01*
X2787925Y45282133D01*
X2813112Y45392993D01*
X2814925Y45522843D01*
X2792843Y45634362D01*
X2749521Y45739470D01*
X2691900Y45826196D01*
X2691900Y49273302D01*
X2741685Y49343876D01*
X2787925Y49447733D01*
X2813112Y49558593D01*
X2813183Y49563712D01*
X9053771Y55804300D01*
X11137705Y55804300D01*
X11137705Y55411000D01*
X11141892Y55358497D01*
X11169469Y55269445D01*
X11220764Y55191602D01*
X11291715Y55131131D01*
X11376703Y55092821D01*
X11469000Y55079705D01*
X13169000Y55079705D01*
X13221503Y55083892D01*
X13310555Y55111469D01*
X13388398Y55162764D01*
X13448869Y55233715D01*
X13487179Y55318703D01*
X13500295Y55411000D01*
X13500295Y56068014D01*
X13643728Y56068014D01*
X13704729Y55834634D01*
X13810088Y55617639D01*
X13955756Y55425368D01*
X14136135Y55265210D01*
X14344294Y55143320D01*
X14572232Y55064382D01*
X14666014Y55045728D01*
X14858500Y55125625D01*
X14858500Y56260500D01*
X14859500Y56260500D01*
X14859500Y55125625D01*
X15051986Y55045728D01*
X15145768Y55064382D01*
X15373706Y55143320D01*
X15581865Y55265210D01*
X15762244Y55425368D01*
X15907912Y55617639D01*
X16013271Y55834634D01*
X16074272Y56068014D01*
X15994375Y56260500D01*
X14859500Y56260500D01*
X14858500Y56260500D01*
X13723625Y56260500D01*
X13643728Y56068014D01*
X13500295Y56068014D01*
X13500295Y56453986D01*
X13643728Y56453986D01*
X13723625Y56261500D01*
X14858500Y56261500D01*
X14858500Y57396375D01*
X14859500Y57396375D01*
X14859500Y56261500D01*
X15994375Y56261500D01*
X16074272Y56453986D01*
X16013271Y56687366D01*
X15907912Y56904361D01*
X15762244Y57096632D01*
X15581865Y57256790D01*
X15373706Y57378680D01*
X15145768Y57457618D01*
X15051986Y57476272D01*
X14859500Y57396375D01*
X14858500Y57396375D01*
X14666014Y57476272D01*
X14572232Y57457618D01*
X14344294Y57378680D01*
X14136135Y57256790D01*
X13955756Y57096632D01*
X13810088Y56904361D01*
X13704729Y56687366D01*
X13643728Y56453986D01*
X13500295Y56453986D01*
X13500295Y57111000D01*
X13496108Y57163503D01*
X13468531Y57252555D01*
X13417236Y57330398D01*
X13346285Y57390869D01*
X13261297Y57429179D01*
X13169000Y57442295D01*
X11469000Y57442295D01*
X11416497Y57438108D01*
X11327445Y57410531D01*
X11249602Y57359236D01*
X11189131Y57288285D01*
X11150821Y57203297D01*
X11137705Y57111000D01*
X11137705Y56717700D01*
X8864600Y56717700D01*
X8822597Y56713581D01*
X8780589Y56709906D01*
X8778285Y56709236D01*
X8775893Y56709002D01*
X8735484Y56696802D01*
X8694996Y56685039D01*
X8692865Y56683934D01*
X8690565Y56683240D01*
X8653286Y56663418D01*
X8615863Y56644020D01*
X8613988Y56642523D01*
X8611866Y56641395D01*
X8579160Y56614720D01*
X8546205Y56588413D01*
X8542862Y56585117D01*
X8542794Y56585061D01*
X8542742Y56584998D01*
X8541664Y56583935D01*
X2166379Y50208651D01*
X2070735Y50190405D01*
X1965328Y50147818D01*
X1870200Y50085568D01*
X1788975Y50006027D01*
X1724747Y49912224D01*
X1679962Y49807732D01*
X1656325Y49696531D01*
X1654738Y49582857D01*
X1675260Y49471040D01*
X1717111Y49365338D01*
X1778500Y49270081D01*
X1778500Y45825129D01*
X1724747Y45746624D01*
X1679962Y45642132D01*
X1656325Y45530931D01*
X1654738Y45417257D01*
X1675260Y45305440D01*
X1717111Y45199738D01*
X1778500Y45104481D01*
X1778500Y41646829D01*
X1724747Y41568324D01*
X1683190Y41471364D01*
X-494837Y39293337D01*
X-525326Y39256219D01*
X-556224Y39219396D01*
X-557542Y39216998D01*
X-559278Y39214885D01*
X-581978Y39172550D01*
X-605134Y39130429D01*
X-605961Y39127821D01*
X-607254Y39125410D01*
X-621308Y39079441D01*
X-635832Y39033656D01*
X-636137Y39030940D01*
X-636937Y39028322D01*
X-641797Y38980476D01*
X-647149Y38932763D01*
X-647187Y38927419D01*
X-647197Y38927316D01*
X-647188Y38927220D01*
X-647200Y38925500D01*
X-647200Y22609882D01*
X-682238Y22528132D01*
X-705875Y22416931D01*
X-707462Y22303257D01*
X-798594Y22303257D01*
X-801798Y58400221D01*
X-793091Y58489025D01*
X-773047Y58555415D01*
X-740485Y58616654D01*
X-696653Y58670398D01*
X-643213Y58714607D01*
X-582209Y58747592D01*
X-515955Y58768101D01*
X-428430Y58777300D01*
X587968Y58777300D01*
X499810Y58719611D01*
G36*
X14973800Y23480577D02*
X14978488Y23432768D01*
X14982677Y23384886D01*
X14983440Y23382260D01*
X14983707Y23379536D01*
X14997609Y23333489D01*
X15011002Y23287392D01*
X15012259Y23284967D01*
X15013051Y23282344D01*
X15035642Y23239856D01*
X15057724Y23197256D01*
X15059428Y23195121D01*
X15060714Y23192703D01*
X15091116Y23155426D01*
X15121063Y23117912D01*
X15124814Y23114108D01*
X15124881Y23114026D01*
X15124956Y23113964D01*
X15126163Y23112740D01*
X15862800Y22376103D01*
X15862800Y21245480D01*
X12473020Y17855700D01*
X12178086Y17855700D01*
X12190485Y17873276D01*
X12236725Y17977133D01*
X12261912Y18087993D01*
X12263725Y18217843D01*
X12241643Y18329362D01*
X12198321Y18434470D01*
X12140700Y18521196D01*
X12140700Y20060886D01*
X12136581Y20102889D01*
X12132906Y20144897D01*
X12132236Y20147201D01*
X12132002Y20149593D01*
X12119802Y20190002D01*
X12108039Y20230490D01*
X12106934Y20232621D01*
X12106240Y20234921D01*
X12086439Y20272160D01*
X12067021Y20309623D01*
X12065521Y20311501D01*
X12064395Y20313620D01*
X12037743Y20346299D01*
X12011413Y20379281D01*
X12008113Y20382628D01*
X12008061Y20382692D01*
X12008002Y20382741D01*
X12006936Y20383822D01*
X11073296Y21317462D01*
X11073296Y22670010D01*
X11107029Y22662593D01*
X11220689Y22660212D01*
X11332647Y22679953D01*
X11438638Y22721064D01*
X11534626Y22781980D01*
X11616953Y22860379D01*
X11672817Y22939571D01*
X11687467Y22924400D01*
X11780819Y22859519D01*
X11884996Y22814005D01*
X11996029Y22789593D01*
X12109689Y22787212D01*
X12221647Y22806953D01*
X12327638Y22848064D01*
X12423626Y22908980D01*
X12439591Y22924183D01*
X12512967Y22848200D01*
X12606319Y22783319D01*
X12710496Y22737805D01*
X12821529Y22713393D01*
X12935189Y22711012D01*
X13047147Y22730753D01*
X13153138Y22771864D01*
X13249126Y22832780D01*
X13331453Y22911179D01*
X13396985Y23004076D01*
X13443225Y23107933D01*
X13443350Y23108481D01*
X13535996Y23068005D01*
X13647029Y23043593D01*
X13760689Y23041212D01*
X13872647Y23060953D01*
X13978638Y23102064D01*
X14074626Y23162980D01*
X14156953Y23241379D01*
X14222485Y23334276D01*
X14268725Y23438133D01*
X14293912Y23548993D01*
X14295725Y23678843D01*
X14273643Y23790362D01*
X14230321Y23895470D01*
X14167409Y23990160D01*
X14087303Y24070828D01*
X14023220Y24114052D01*
X14061546Y24200133D01*
X14086733Y24310993D01*
X14086804Y24316111D01*
X14973800Y25203107D01*
X14973800Y23480577D01*
X14973800Y23480577D01*
G37*
X14973800Y23480577D02*
X14978488Y23432768D01*
X14982677Y23384886D01*
X14983440Y23382260D01*
X14983707Y23379536D01*
X14997609Y23333489D01*
X15011002Y23287392D01*
X15012259Y23284967D01*
X15013051Y23282344D01*
X15035642Y23239856D01*
X15057724Y23197256D01*
X15059428Y23195121D01*
X15060714Y23192703D01*
X15091116Y23155426D01*
X15121063Y23117912D01*
X15124814Y23114108D01*
X15124881Y23114026D01*
X15124956Y23113964D01*
X15126163Y23112740D01*
X15862800Y22376103D01*
X15862800Y21245480D01*
X12473020Y17855700D01*
X12178086Y17855700D01*
X12190485Y17873276D01*
X12236725Y17977133D01*
X12261912Y18087993D01*
X12263725Y18217843D01*
X12241643Y18329362D01*
X12198321Y18434470D01*
X12140700Y18521196D01*
X12140700Y20060886D01*
X12136581Y20102889D01*
X12132906Y20144897D01*
X12132236Y20147201D01*
X12132002Y20149593D01*
X12119802Y20190002D01*
X12108039Y20230490D01*
X12106934Y20232621D01*
X12106240Y20234921D01*
X12086439Y20272160D01*
X12067021Y20309623D01*
X12065521Y20311501D01*
X12064395Y20313620D01*
X12037743Y20346299D01*
X12011413Y20379281D01*
X12008113Y20382628D01*
X12008061Y20382692D01*
X12008002Y20382741D01*
X12006936Y20383822D01*
X11073296Y21317462D01*
X11073296Y22670010D01*
X11107029Y22662593D01*
X11220689Y22660212D01*
X11332647Y22679953D01*
X11438638Y22721064D01*
X11534626Y22781980D01*
X11616953Y22860379D01*
X11672817Y22939571D01*
X11687467Y22924400D01*
X11780819Y22859519D01*
X11884996Y22814005D01*
X11996029Y22789593D01*
X12109689Y22787212D01*
X12221647Y22806953D01*
X12327638Y22848064D01*
X12423626Y22908980D01*
X12439591Y22924183D01*
X12512967Y22848200D01*
X12606319Y22783319D01*
X12710496Y22737805D01*
X12821529Y22713393D01*
X12935189Y22711012D01*
X13047147Y22730753D01*
X13153138Y22771864D01*
X13249126Y22832780D01*
X13331453Y22911179D01*
X13396985Y23004076D01*
X13443225Y23107933D01*
X13443350Y23108481D01*
X13535996Y23068005D01*
X13647029Y23043593D01*
X13760689Y23041212D01*
X13872647Y23060953D01*
X13978638Y23102064D01*
X14074626Y23162980D01*
X14156953Y23241379D01*
X14222485Y23334276D01*
X14268725Y23438133D01*
X14293912Y23548993D01*
X14295725Y23678843D01*
X14273643Y23790362D01*
X14230321Y23895470D01*
X14167409Y23990160D01*
X14087303Y24070828D01*
X14023220Y24114052D01*
X14061546Y24200133D01*
X14086733Y24310993D01*
X14086804Y24316111D01*
X14973800Y25203107D01*
X14973800Y23480577D01*
M02*
