M48
;DRILL file {KiCad 4.0.7-e2-6376~58~ubuntu16.04.1} date Thu Nov  2 16:54:05 2017
;FORMAT={-:-/ absolute / inch / decimal}
FMAT,2
INCH,TZ
T1C0.012
T2C0.028
T3C0.039
T4C0.043
%
G90
G05
M72
T1
X4.995Y-4.12
X4.995Y-4.53
X4.995Y-4.735
X4.995Y-4.875
X5.05Y-5.05
X5.088Y-3.046
X5.088Y-3.21
X5.088Y-3.3745
X5.16Y-3.846
X5.23Y-4.3175
X5.256Y-5.671
X5.275Y-3.0915
X5.276Y-2.9295
X5.276Y-3.2565
X5.3075Y-4.0075
X5.3475Y-4.0075
X5.395Y-5.5065
X5.424Y-5.506
X5.44Y-4.085
X5.454Y-5.5065
X5.47Y-4.555
X5.47Y-4.795
X5.47Y-5.005
X5.47Y-5.09
X5.475Y-4.08
X5.4755Y-5.485
X5.495Y-4.935
X5.5075Y-4.083
X5.51Y-4.388
X5.513Y-3.9745
X5.514Y-4.616
X5.52Y-4.45
X5.52Y-4.48
X5.522Y-4.856
X5.524Y-4.414
X5.526Y-5.6265
X5.5274Y-5.6546
X5.5318Y-4.04
X5.54Y-4.07
X5.545Y-3.1475
X5.557Y-4.295
X5.564Y-4.634
X5.582Y-4.269
X5.592Y-4.892
X5.5925Y-4.145
X5.595Y-5.8175
X5.5975Y-3.705
X5.6002Y-3.9377
X5.61Y-3.975
X5.615Y-4.1675
X5.6375Y-3.745
X5.655Y-5.09
X5.675Y-4.0375
X5.6801Y-5.428
X5.695Y-3.3725
X5.6975Y-4.371
X5.7025Y-4.01
X5.705Y-3.0919
X5.712Y-4.3453
X5.722Y-3.723
X5.7471Y-4.6291
X5.77Y-3.5
X5.7771Y-4.6291
X5.804Y-3.63
X5.827Y-4.918
X5.849Y-3.784
X5.849Y-3.89
X5.887Y-4.17
X5.895Y-2.9525
X5.895Y-3.0325
X5.915Y-4.75
X5.9819Y-4.7738
X5.9875Y-3.2825
X5.993Y-4.797
T2
X5.4195Y-5.906
X5.6105Y-5.906
T3
X5.48Y-2.9825
X5.48Y-3.0825
X5.485Y-2.785
X5.585Y-2.785
X5.685Y-2.785
X6.009Y-4.992
X6.009Y-5.092
X6.009Y-5.192
X6.009Y-5.292
X6.009Y-5.437
X6.009Y-5.537
X6.009Y-5.637
X6.009Y-5.737
X6.009Y-5.837
X6.009Y-5.937
T4
X5.3723Y-6.0103G85X5.3723Y-6.0103
G05
X5.6577Y-6.0103G85X5.6577Y-6.0103
G05
T0
M30
