G04 #@! TF.GenerationSoftware,KiCad,Pcbnew,5.0.1-33cea8e~67~ubuntu18.04.1*
G04 #@! TF.CreationDate,2018-11-07T11:52:31-08:00*
G04 #@! TF.ProjectId,fk-weather,666B2D776561746865722E6B69636164,0.1*
G04 #@! TF.SameCoordinates,PX791ddc0PY791ddc0*
G04 #@! TF.FileFunction,Soldermask,Bot*
G04 #@! TF.FilePolarity,Negative*
%FSLAX46Y46*%
G04 Gerber Fmt 4.6, Leading zero omitted, Abs format (unit mm)*
G04 Created by KiCad (PCBNEW 5.0.1-33cea8e~67~ubuntu18.04.1) date Wed 07 Nov 2018 11:52:31 AM PST*
%MOMM*%
%LPD*%
G01*
G04 APERTURE LIST*
%ADD10C,0.100000*%
G04 APERTURE END LIST*
D10*
G36*
X-6858755Y-69802984D02*
X-6631474Y-69848192D01*
X-6381859Y-69951586D01*
X-6157211Y-70101691D01*
X-5966163Y-70292739D01*
X-5816058Y-70517387D01*
X-5712664Y-70767002D01*
X-5659955Y-71031992D01*
X-5659955Y-71302174D01*
X-5712664Y-71567164D01*
X-5816058Y-71816779D01*
X-5966163Y-72041427D01*
X-6157211Y-72232475D01*
X-6381859Y-72382580D01*
X-6631474Y-72485974D01*
X-6858755Y-72531182D01*
X-6896463Y-72538683D01*
X-7166647Y-72538683D01*
X-7204355Y-72531182D01*
X-7431636Y-72485974D01*
X-7681251Y-72382580D01*
X-7905899Y-72232475D01*
X-8096947Y-72041427D01*
X-8247052Y-71816779D01*
X-8350446Y-71567164D01*
X-8403155Y-71302174D01*
X-8403155Y-71031992D01*
X-8350446Y-70767002D01*
X-8247052Y-70517387D01*
X-8096947Y-70292739D01*
X-7905899Y-70101691D01*
X-7681251Y-69951586D01*
X-7431636Y-69848192D01*
X-7204355Y-69802984D01*
X-7166647Y-69795483D01*
X-6896463Y-69795483D01*
X-6858755Y-69802984D01*
X-6858755Y-69802984D01*
G37*
G36*
X-40088755Y-69802984D02*
X-39861474Y-69848192D01*
X-39611859Y-69951586D01*
X-39387211Y-70101691D01*
X-39196163Y-70292739D01*
X-39046058Y-70517387D01*
X-38942664Y-70767002D01*
X-38889955Y-71031992D01*
X-38889955Y-71302174D01*
X-38942664Y-71567164D01*
X-39046058Y-71816779D01*
X-39196163Y-72041427D01*
X-39387211Y-72232475D01*
X-39611859Y-72382580D01*
X-39861474Y-72485974D01*
X-40088755Y-72531182D01*
X-40126463Y-72538683D01*
X-40396647Y-72538683D01*
X-40434355Y-72531182D01*
X-40661636Y-72485974D01*
X-40911251Y-72382580D01*
X-41135899Y-72232475D01*
X-41326947Y-72041427D01*
X-41477052Y-71816779D01*
X-41580446Y-71567164D01*
X-41633155Y-71302174D01*
X-41633155Y-71031992D01*
X-41580446Y-70767002D01*
X-41477052Y-70517387D01*
X-41326947Y-70292739D01*
X-41135899Y-70101691D01*
X-40911251Y-69951586D01*
X-40661636Y-69848192D01*
X-40434355Y-69802984D01*
X-40396647Y-69795483D01*
X-40126463Y-69795483D01*
X-40088755Y-69802984D01*
X-40088755Y-69802984D01*
G37*
G36*
X-33927400Y-67701600D02*
X-36430600Y-67701600D01*
X-36430600Y-62998400D01*
X-33927400Y-62998400D01*
X-33927400Y-67701600D01*
X-33927400Y-67701600D01*
G37*
G36*
X-10065351Y-64517660D02*
X-9970935Y-64536440D01*
X-9852352Y-64585559D01*
X-9852351Y-64585560D01*
X-9745626Y-64656871D01*
X-9654871Y-64747626D01*
X-9654869Y-64747629D01*
X-9583559Y-64854352D01*
X-9534440Y-64972935D01*
X-9523322Y-65028831D01*
X-9516209Y-65052280D01*
X-9504658Y-65073891D01*
X-9489113Y-65092833D01*
X-9470171Y-65108378D01*
X-9448560Y-65119930D01*
X-9425111Y-65127043D01*
X-9400724Y-65129445D01*
X-9376338Y-65127043D01*
X-9352889Y-65119930D01*
X-9331278Y-65108379D01*
X-9312336Y-65092833D01*
X-9251374Y-65031871D01*
X-9144649Y-64960560D01*
X-9144648Y-64960559D01*
X-9026065Y-64911440D01*
X-8931649Y-64892660D01*
X-8900178Y-64886400D01*
X-8771822Y-64886400D01*
X-8740351Y-64892660D01*
X-8645935Y-64911440D01*
X-8527352Y-64960559D01*
X-8527351Y-64960560D01*
X-8420626Y-65031871D01*
X-8329871Y-65122626D01*
X-8329869Y-65122629D01*
X-8258559Y-65229352D01*
X-8209440Y-65347935D01*
X-8208420Y-65353065D01*
X-8184400Y-65473822D01*
X-8184400Y-65494748D01*
X-8181998Y-65519134D01*
X-8174885Y-65542583D01*
X-8163334Y-65564194D01*
X-8147788Y-65583136D01*
X-8128846Y-65598682D01*
X-8107235Y-65610233D01*
X-8083786Y-65617346D01*
X-8059400Y-65619748D01*
X-8035014Y-65617346D01*
X-8011565Y-65610233D01*
X-7989954Y-65598682D01*
X-7938067Y-65564012D01*
X-7829721Y-65519134D01*
X-7773987Y-65496048D01*
X-7662250Y-65473822D01*
X-7599801Y-65461400D01*
X-7422199Y-65461400D01*
X-7359750Y-65473822D01*
X-7248013Y-65496048D01*
X-7083932Y-65564013D01*
X-7026816Y-65602177D01*
X-6936261Y-65662684D01*
X-6810684Y-65788261D01*
X-6810682Y-65788264D01*
X-6712013Y-65935932D01*
X-6644048Y-66100013D01*
X-6631209Y-66164560D01*
X-6609400Y-66274199D01*
X-6609400Y-66451801D01*
X-6644048Y-66625986D01*
X-6712012Y-66790066D01*
X-6810684Y-66937739D01*
X-6936261Y-67063316D01*
X-6936264Y-67063318D01*
X-7083932Y-67161987D01*
X-7248013Y-67229952D01*
X-7422199Y-67264600D01*
X-7599801Y-67264600D01*
X-7773987Y-67229952D01*
X-7938068Y-67161987D01*
X-8085736Y-67063318D01*
X-8085739Y-67063316D01*
X-8211316Y-66937739D01*
X-8309988Y-66790066D01*
X-8377952Y-66625986D01*
X-8412600Y-66451801D01*
X-8412600Y-66269563D01*
X-8411103Y-66254371D01*
X-8413504Y-66229985D01*
X-8420616Y-66206535D01*
X-8432166Y-66184924D01*
X-8447710Y-66165981D01*
X-8466652Y-66150435D01*
X-8488262Y-66138882D01*
X-8511711Y-66131768D01*
X-8536097Y-66129365D01*
X-8560483Y-66131766D01*
X-8583938Y-66138880D01*
X-8645935Y-66164560D01*
X-8771822Y-66189600D01*
X-8900178Y-66189600D01*
X-8931649Y-66183340D01*
X-9026065Y-66164560D01*
X-9144648Y-66115441D01*
X-9251371Y-66044131D01*
X-9251374Y-66044129D01*
X-9342129Y-65953374D01*
X-9413440Y-65846649D01*
X-9413441Y-65846648D01*
X-9462560Y-65728065D01*
X-9473678Y-65672168D01*
X-9480791Y-65648720D01*
X-9492342Y-65627109D01*
X-9507887Y-65608167D01*
X-9526829Y-65592622D01*
X-9548440Y-65581070D01*
X-9571889Y-65573957D01*
X-9596276Y-65571555D01*
X-9620662Y-65573957D01*
X-9644111Y-65581070D01*
X-9665722Y-65592621D01*
X-9684664Y-65608167D01*
X-9745626Y-65669129D01*
X-9745629Y-65669131D01*
X-9852352Y-65740441D01*
X-9970935Y-65789560D01*
X-10065351Y-65808340D01*
X-10096822Y-65814600D01*
X-10225178Y-65814600D01*
X-10256649Y-65808340D01*
X-10351065Y-65789560D01*
X-10469648Y-65740441D01*
X-10576371Y-65669131D01*
X-10576374Y-65669129D01*
X-10667129Y-65578374D01*
X-10723006Y-65494748D01*
X-10738441Y-65471648D01*
X-10787560Y-65353065D01*
X-10806340Y-65258649D01*
X-10812600Y-65227178D01*
X-10812600Y-65098822D01*
X-10798678Y-65028831D01*
X-10787560Y-64972935D01*
X-10738441Y-64854352D01*
X-10667131Y-64747629D01*
X-10667129Y-64747626D01*
X-10576374Y-64656871D01*
X-10469649Y-64585560D01*
X-10469648Y-64585559D01*
X-10351065Y-64536440D01*
X-10256649Y-64517660D01*
X-10225178Y-64511400D01*
X-10096822Y-64511400D01*
X-10065351Y-64517660D01*
X-10065351Y-64517660D01*
G37*
G36*
X-6429262Y-61726812D02*
X-6429259Y-61726813D01*
X-6429260Y-61726813D01*
X-6237881Y-61806084D01*
X-6067963Y-61919620D01*
X-6065641Y-61921171D01*
X-5919171Y-62067641D01*
X-5919169Y-62067644D01*
X-5804084Y-62239881D01*
X-5742771Y-62387905D01*
X-5724812Y-62431262D01*
X-5684400Y-62634425D01*
X-5684400Y-62841575D01*
X-5724812Y-63044738D01*
X-5724813Y-63044740D01*
X-5804084Y-63236119D01*
X-5804085Y-63236120D01*
X-5919171Y-63408359D01*
X-6065641Y-63554829D01*
X-6065644Y-63554831D01*
X-6237881Y-63669916D01*
X-6385905Y-63731229D01*
X-6429262Y-63749188D01*
X-6632425Y-63789600D01*
X-6839575Y-63789600D01*
X-7042738Y-63749188D01*
X-7086095Y-63731229D01*
X-7234119Y-63669916D01*
X-7406356Y-63554831D01*
X-7406359Y-63554829D01*
X-7552829Y-63408359D01*
X-7667915Y-63236120D01*
X-7667916Y-63236119D01*
X-7747187Y-63044740D01*
X-7747188Y-63044738D01*
X-7787600Y-62841575D01*
X-7787600Y-62634425D01*
X-7747188Y-62431262D01*
X-7729229Y-62387905D01*
X-7667916Y-62239881D01*
X-7552831Y-62067644D01*
X-7552829Y-62067641D01*
X-7406359Y-61921171D01*
X-7404037Y-61919620D01*
X-7234119Y-61806084D01*
X-7042740Y-61726813D01*
X-7042741Y-61726813D01*
X-7042738Y-61726812D01*
X-6839575Y-61686400D01*
X-6632425Y-61686400D01*
X-6429262Y-61726812D01*
X-6429262Y-61726812D01*
G37*
G36*
X-34959766Y-60377283D02*
X-34822984Y-60433940D01*
X-34699883Y-60516194D01*
X-34595194Y-60620883D01*
X-34512940Y-60743984D01*
X-34456283Y-60880766D01*
X-34427400Y-61025974D01*
X-34427400Y-61174026D01*
X-34456283Y-61319234D01*
X-34512940Y-61456016D01*
X-34595194Y-61579117D01*
X-34699883Y-61683806D01*
X-34822984Y-61766060D01*
X-34959766Y-61822717D01*
X-35104974Y-61851600D01*
X-35253026Y-61851600D01*
X-35398234Y-61822717D01*
X-35535016Y-61766060D01*
X-35658117Y-61683806D01*
X-35762806Y-61579117D01*
X-35845060Y-61456016D01*
X-35901717Y-61319234D01*
X-35930600Y-61174026D01*
X-35930600Y-61025974D01*
X-35901717Y-60880766D01*
X-35845060Y-60743984D01*
X-35762806Y-60620883D01*
X-35658117Y-60516194D01*
X-35535016Y-60433940D01*
X-35398234Y-60377283D01*
X-35253026Y-60348400D01*
X-35104974Y-60348400D01*
X-34959766Y-60377283D01*
X-34959766Y-60377283D01*
G37*
G36*
X-7335107Y-58228724D02*
X-7248013Y-58246048D01*
X-7083932Y-58314013D01*
X-6938229Y-58411369D01*
X-6936261Y-58412684D01*
X-6810684Y-58538261D01*
X-6810682Y-58538264D01*
X-6712013Y-58685932D01*
X-6644048Y-58850013D01*
X-6609400Y-59024200D01*
X-6609400Y-59201800D01*
X-6640979Y-59360560D01*
X-6644048Y-59375986D01*
X-6712012Y-59540066D01*
X-6810684Y-59687739D01*
X-6936261Y-59813316D01*
X-6936264Y-59813318D01*
X-7083932Y-59911987D01*
X-7248013Y-59979952D01*
X-7254549Y-59981252D01*
X-7422199Y-60014600D01*
X-7599801Y-60014600D01*
X-7767451Y-59981252D01*
X-7773987Y-59979952D01*
X-7886332Y-59933417D01*
X-7938067Y-59911988D01*
X-7989954Y-59877318D01*
X-8011565Y-59865767D01*
X-8035014Y-59858654D01*
X-8059400Y-59856252D01*
X-8083787Y-59858654D01*
X-8107236Y-59865767D01*
X-8128847Y-59877319D01*
X-8147789Y-59892864D01*
X-8163334Y-59911806D01*
X-8174885Y-59933417D01*
X-8181998Y-59956866D01*
X-8184400Y-59981252D01*
X-8184400Y-60002178D01*
X-8186871Y-60014600D01*
X-8209440Y-60128065D01*
X-8258559Y-60246648D01*
X-8325315Y-60346555D01*
X-8329871Y-60353374D01*
X-8420626Y-60444129D01*
X-8420629Y-60444131D01*
X-8527352Y-60515441D01*
X-8645935Y-60564560D01*
X-8740351Y-60583340D01*
X-8771822Y-60589600D01*
X-8900178Y-60589600D01*
X-8931649Y-60583340D01*
X-9026065Y-60564560D01*
X-9144648Y-60515441D01*
X-9251371Y-60444131D01*
X-9251374Y-60444129D01*
X-9312336Y-60383167D01*
X-9331278Y-60367621D01*
X-9352889Y-60356070D01*
X-9376338Y-60348957D01*
X-9400724Y-60346555D01*
X-9425110Y-60348957D01*
X-9448559Y-60356070D01*
X-9470170Y-60367621D01*
X-9489112Y-60383167D01*
X-9504658Y-60402109D01*
X-9516209Y-60423720D01*
X-9523322Y-60447168D01*
X-9534440Y-60503065D01*
X-9583559Y-60621648D01*
X-9583560Y-60621649D01*
X-9654871Y-60728374D01*
X-9745626Y-60819129D01*
X-9745629Y-60819131D01*
X-9852352Y-60890441D01*
X-9970935Y-60939560D01*
X-10065351Y-60958340D01*
X-10096822Y-60964600D01*
X-10225178Y-60964600D01*
X-10256649Y-60958340D01*
X-10351065Y-60939560D01*
X-10469648Y-60890441D01*
X-10576371Y-60819131D01*
X-10576374Y-60819129D01*
X-10667129Y-60728374D01*
X-10738440Y-60621649D01*
X-10738441Y-60621648D01*
X-10787560Y-60503065D01*
X-10812600Y-60377177D01*
X-10812600Y-60248823D01*
X-10812167Y-60246648D01*
X-10788580Y-60128065D01*
X-10787560Y-60122935D01*
X-10738441Y-60004352D01*
X-10667131Y-59897629D01*
X-10667129Y-59897626D01*
X-10576374Y-59806871D01*
X-10469649Y-59735560D01*
X-10469648Y-59735559D01*
X-10351065Y-59686440D01*
X-10256649Y-59667660D01*
X-10225178Y-59661400D01*
X-10096822Y-59661400D01*
X-10065351Y-59667660D01*
X-9970935Y-59686440D01*
X-9852352Y-59735559D01*
X-9852351Y-59735560D01*
X-9745626Y-59806871D01*
X-9684664Y-59867833D01*
X-9665722Y-59883379D01*
X-9644111Y-59894930D01*
X-9620662Y-59902043D01*
X-9596276Y-59904445D01*
X-9571890Y-59902043D01*
X-9548441Y-59894930D01*
X-9526830Y-59883379D01*
X-9507888Y-59867833D01*
X-9492342Y-59848891D01*
X-9480791Y-59827280D01*
X-9473678Y-59803831D01*
X-9462560Y-59747937D01*
X-9462560Y-59747935D01*
X-9413441Y-59629352D01*
X-9342131Y-59522629D01*
X-9342129Y-59522626D01*
X-9251374Y-59431871D01*
X-9249935Y-59430910D01*
X-9144648Y-59360559D01*
X-9026065Y-59311440D01*
X-8923711Y-59291081D01*
X-8900178Y-59286400D01*
X-8771822Y-59286400D01*
X-8645935Y-59311440D01*
X-8583938Y-59337120D01*
X-8560489Y-59344233D01*
X-8536103Y-59346635D01*
X-8511716Y-59344233D01*
X-8488267Y-59337120D01*
X-8466656Y-59325568D01*
X-8447714Y-59310023D01*
X-8432169Y-59291081D01*
X-8420618Y-59269470D01*
X-8413505Y-59246021D01*
X-8411103Y-59221635D01*
X-8412600Y-59206439D01*
X-8412600Y-59024199D01*
X-8377952Y-58850014D01*
X-8309988Y-58685934D01*
X-8211316Y-58538261D01*
X-8085739Y-58412684D01*
X-8083771Y-58411369D01*
X-7938068Y-58314013D01*
X-7773987Y-58246048D01*
X-7686893Y-58228724D01*
X-7599801Y-58211400D01*
X-7422199Y-58211400D01*
X-7335107Y-58228724D01*
X-7335107Y-58228724D01*
G37*
G36*
X-34996227Y-53047479D02*
X-34882193Y-53094714D01*
X-34779565Y-53163288D01*
X-34692288Y-53250565D01*
X-34623714Y-53353193D01*
X-34576479Y-53467227D01*
X-34552400Y-53588284D01*
X-34552400Y-53711716D01*
X-34576479Y-53832773D01*
X-34623714Y-53946807D01*
X-34692288Y-54049435D01*
X-34779565Y-54136712D01*
X-34882193Y-54205286D01*
X-34996227Y-54252521D01*
X-35117284Y-54276600D01*
X-35240716Y-54276600D01*
X-35361773Y-54252521D01*
X-35475807Y-54205286D01*
X-35578435Y-54136712D01*
X-35665712Y-54049435D01*
X-35734286Y-53946807D01*
X-35781521Y-53832773D01*
X-35805600Y-53711716D01*
X-35805600Y-53588284D01*
X-35781521Y-53467227D01*
X-35734286Y-53353193D01*
X-35665712Y-53250565D01*
X-35578435Y-53163288D01*
X-35475807Y-53094714D01*
X-35361773Y-53047479D01*
X-35240716Y-53023400D01*
X-35117284Y-53023400D01*
X-34996227Y-53047479D01*
X-34996227Y-53047479D01*
G37*
G36*
X-33927400Y-51301600D02*
X-36430600Y-51301600D01*
X-36430600Y-46598400D01*
X-33927400Y-46598400D01*
X-33927400Y-51301600D01*
X-33927400Y-51301600D01*
G37*
G36*
X-10826944Y-2875694D02*
X-10703143Y-2900319D01*
X-10606534Y-2940336D01*
X-10469908Y-2996928D01*
X-10259997Y-3137186D01*
X-10081490Y-3315693D01*
X-9941232Y-3525604D01*
X-9844623Y-3758840D01*
X-9795372Y-4006440D01*
X-9795372Y-4258896D01*
X-9844623Y-4506496D01*
X-9941232Y-4739732D01*
X-10081490Y-4949643D01*
X-10259997Y-5128150D01*
X-10469908Y-5268408D01*
X-10606534Y-5325000D01*
X-10703143Y-5365017D01*
X-10826944Y-5389642D01*
X-10950744Y-5414268D01*
X-11203200Y-5414268D01*
X-11327000Y-5389642D01*
X-11450801Y-5365017D01*
X-11547410Y-5325000D01*
X-11684036Y-5268408D01*
X-11893947Y-5128150D01*
X-12072454Y-4949643D01*
X-12212712Y-4739732D01*
X-12309321Y-4506496D01*
X-12358572Y-4258896D01*
X-12358572Y-4006440D01*
X-12309321Y-3758840D01*
X-12212712Y-3525604D01*
X-12072454Y-3315693D01*
X-11893947Y-3137186D01*
X-11684036Y-2996928D01*
X-11547410Y-2940336D01*
X-11450801Y-2900319D01*
X-11327000Y-2875694D01*
X-11203200Y-2851068D01*
X-10950744Y-2851068D01*
X-10826944Y-2875694D01*
X-10826944Y-2875694D01*
G37*
G36*
X-13259304Y111231D02*
X-13143154Y88127D01*
X-12997272Y27701D01*
X-12865982Y-60024D01*
X-12754328Y-171678D01*
X-12666603Y-302968D01*
X-12606177Y-448850D01*
X-12575372Y-603717D01*
X-12575372Y-761619D01*
X-12606177Y-916486D01*
X-12666603Y-1062368D01*
X-12754328Y-1193658D01*
X-12865982Y-1305312D01*
X-12997272Y-1393037D01*
X-13143154Y-1453463D01*
X-13259304Y-1476567D01*
X-13298020Y-1484268D01*
X-13455924Y-1484268D01*
X-13494640Y-1476567D01*
X-13610790Y-1453463D01*
X-13756672Y-1393037D01*
X-13887962Y-1305312D01*
X-13999616Y-1193658D01*
X-14087341Y-1062368D01*
X-14147767Y-916486D01*
X-14178572Y-761619D01*
X-14178572Y-603717D01*
X-14147767Y-448850D01*
X-14087341Y-302968D01*
X-13999616Y-171678D01*
X-13887962Y-60024D01*
X-13756672Y27701D01*
X-13610790Y88127D01*
X-13494640Y111231D01*
X-13455924Y118932D01*
X-13298020Y118932D01*
X-13259304Y111231D01*
X-13259304Y111231D01*
G37*
G36*
X-15799304Y1131231D02*
X-15683154Y1108127D01*
X-15537272Y1047701D01*
X-15405982Y959976D01*
X-15294328Y848322D01*
X-15206603Y717032D01*
X-15146177Y571150D01*
X-15115372Y416283D01*
X-15115372Y258381D01*
X-15146177Y103514D01*
X-15206603Y-42368D01*
X-15294328Y-173658D01*
X-15405982Y-285312D01*
X-15537272Y-373037D01*
X-15683154Y-433463D01*
X-15799304Y-456567D01*
X-15838020Y-464268D01*
X-15995924Y-464268D01*
X-16034640Y-456567D01*
X-16150790Y-433463D01*
X-16296672Y-373037D01*
X-16427962Y-285312D01*
X-16539616Y-173658D01*
X-16627341Y-42368D01*
X-16687767Y103514D01*
X-16718572Y258381D01*
X-16718572Y416283D01*
X-16687767Y571150D01*
X-16627341Y717032D01*
X-16539616Y848322D01*
X-16427962Y959976D01*
X-16296672Y1047701D01*
X-16150790Y1108127D01*
X-16034640Y1131231D01*
X-15995924Y1138932D01*
X-15838020Y1138932D01*
X-15799304Y1131231D01*
X-15799304Y1131231D01*
G37*
G36*
X-13259304Y2151231D02*
X-13143154Y2128127D01*
X-12997272Y2067701D01*
X-12865982Y1979976D01*
X-12754328Y1868322D01*
X-12666603Y1737032D01*
X-12606177Y1591150D01*
X-12575372Y1436283D01*
X-12575372Y1278381D01*
X-12606177Y1123514D01*
X-12666603Y977632D01*
X-12754328Y846342D01*
X-12865982Y734688D01*
X-12997272Y646963D01*
X-13143154Y586537D01*
X-13259304Y563433D01*
X-13298020Y555732D01*
X-13455924Y555732D01*
X-13494640Y563433D01*
X-13610790Y586537D01*
X-13756672Y646963D01*
X-13887962Y734688D01*
X-13999616Y846342D01*
X-14087341Y977632D01*
X-14147767Y1123514D01*
X-14178572Y1278381D01*
X-14178572Y1436283D01*
X-14147767Y1591150D01*
X-14087341Y1737032D01*
X-13999616Y1868322D01*
X-13887962Y1979976D01*
X-13756672Y2067701D01*
X-13610790Y2128127D01*
X-13494640Y2151231D01*
X-13455924Y2158932D01*
X-13298020Y2158932D01*
X-13259304Y2151231D01*
X-13259304Y2151231D01*
G37*
G36*
X-15799304Y3171231D02*
X-15683154Y3148127D01*
X-15537272Y3087701D01*
X-15405982Y2999976D01*
X-15294328Y2888322D01*
X-15206603Y2757032D01*
X-15146177Y2611150D01*
X-15115372Y2456283D01*
X-15115372Y2298381D01*
X-15146177Y2143514D01*
X-15206603Y1997632D01*
X-15294328Y1866342D01*
X-15405982Y1754688D01*
X-15537272Y1666963D01*
X-15683154Y1606537D01*
X-15799304Y1583433D01*
X-15838020Y1575732D01*
X-15995924Y1575732D01*
X-16034640Y1583433D01*
X-16150790Y1606537D01*
X-16296672Y1666963D01*
X-16427962Y1754688D01*
X-16539616Y1866342D01*
X-16627341Y1997632D01*
X-16687767Y2143514D01*
X-16718572Y2298381D01*
X-16718572Y2456283D01*
X-16687767Y2611150D01*
X-16627341Y2757032D01*
X-16539616Y2888322D01*
X-16427962Y2999976D01*
X-16296672Y3087701D01*
X-16150790Y3148127D01*
X-16034640Y3171231D01*
X-15995924Y3178932D01*
X-15838020Y3178932D01*
X-15799304Y3171231D01*
X-15799304Y3171231D01*
G37*
G36*
X-13259304Y4191231D02*
X-13143154Y4168127D01*
X-12997272Y4107701D01*
X-12865982Y4019976D01*
X-12754328Y3908322D01*
X-12666603Y3777032D01*
X-12606177Y3631150D01*
X-12575372Y3476283D01*
X-12575372Y3318381D01*
X-12606177Y3163514D01*
X-12666603Y3017632D01*
X-12754328Y2886342D01*
X-12865982Y2774688D01*
X-12997272Y2686963D01*
X-13143154Y2626537D01*
X-13259304Y2603433D01*
X-13298020Y2595732D01*
X-13455924Y2595732D01*
X-13494640Y2603433D01*
X-13610790Y2626537D01*
X-13756672Y2686963D01*
X-13887962Y2774688D01*
X-13999616Y2886342D01*
X-14087341Y3017632D01*
X-14147767Y3163514D01*
X-14178572Y3318381D01*
X-14178572Y3476283D01*
X-14147767Y3631150D01*
X-14087341Y3777032D01*
X-13999616Y3908322D01*
X-13887962Y4019976D01*
X-13756672Y4107701D01*
X-13610790Y4168127D01*
X-13494640Y4191231D01*
X-13455924Y4198932D01*
X-13298020Y4198932D01*
X-13259304Y4191231D01*
X-13259304Y4191231D01*
G37*
G36*
X-15799304Y5211231D02*
X-15683154Y5188127D01*
X-15537272Y5127701D01*
X-15405982Y5039976D01*
X-15294328Y4928322D01*
X-15206603Y4797032D01*
X-15146177Y4651150D01*
X-15115372Y4496283D01*
X-15115372Y4338381D01*
X-15146177Y4183514D01*
X-15206603Y4037632D01*
X-15294328Y3906342D01*
X-15405982Y3794688D01*
X-15537272Y3706963D01*
X-15683154Y3646537D01*
X-15799304Y3623433D01*
X-15838020Y3615732D01*
X-15995924Y3615732D01*
X-16034640Y3623433D01*
X-16150790Y3646537D01*
X-16296672Y3706963D01*
X-16427962Y3794688D01*
X-16539616Y3906342D01*
X-16627341Y4037632D01*
X-16687767Y4183514D01*
X-16718572Y4338381D01*
X-16718572Y4496283D01*
X-16687767Y4651150D01*
X-16627341Y4797032D01*
X-16539616Y4928322D01*
X-16427962Y5039976D01*
X-16296672Y5127701D01*
X-16150790Y5188127D01*
X-16034640Y5211231D01*
X-15995924Y5218932D01*
X-15838020Y5218932D01*
X-15799304Y5211231D01*
X-15799304Y5211231D01*
G37*
G36*
X-10826944Y9124306D02*
X-10703143Y9099681D01*
X-10606534Y9059664D01*
X-10469908Y9003072D01*
X-10259997Y8862814D01*
X-10081490Y8684307D01*
X-9941232Y8474396D01*
X-9844623Y8241160D01*
X-9795372Y7993560D01*
X-9795372Y7741104D01*
X-9844623Y7493504D01*
X-9941232Y7260268D01*
X-10081490Y7050357D01*
X-10259997Y6871850D01*
X-10469908Y6731592D01*
X-10606534Y6675000D01*
X-10703143Y6634983D01*
X-10826944Y6610357D01*
X-10950744Y6585732D01*
X-11203200Y6585732D01*
X-11327000Y6610357D01*
X-11450801Y6634983D01*
X-11547410Y6675000D01*
X-11684036Y6731592D01*
X-11893947Y6871850D01*
X-12072454Y7050357D01*
X-12212712Y7260268D01*
X-12309321Y7493504D01*
X-12358572Y7741104D01*
X-12358572Y7993560D01*
X-12309321Y8241160D01*
X-12212712Y8474396D01*
X-12072454Y8684307D01*
X-11893947Y8862814D01*
X-11684036Y9003072D01*
X-11547410Y9059664D01*
X-11450801Y9099681D01*
X-11327000Y9124306D01*
X-11203200Y9148932D01*
X-10950744Y9148932D01*
X-10826944Y9124306D01*
X-10826944Y9124306D01*
G37*
G36*
X-10812944Y12624306D02*
X-10689143Y12599681D01*
X-10592534Y12559664D01*
X-10455908Y12503072D01*
X-10245997Y12362814D01*
X-10067490Y12184307D01*
X-9927232Y11974396D01*
X-9830623Y11741160D01*
X-9781372Y11493560D01*
X-9781372Y11241104D01*
X-9830623Y10993504D01*
X-9927232Y10760268D01*
X-10067490Y10550357D01*
X-10245997Y10371850D01*
X-10455908Y10231592D01*
X-10592534Y10175000D01*
X-10689143Y10134983D01*
X-10812944Y10110358D01*
X-10936744Y10085732D01*
X-11189200Y10085732D01*
X-11313000Y10110358D01*
X-11436801Y10134983D01*
X-11533410Y10175000D01*
X-11670036Y10231592D01*
X-11879947Y10371850D01*
X-12058454Y10550357D01*
X-12198712Y10760268D01*
X-12295321Y10993504D01*
X-12344572Y11241104D01*
X-12344572Y11493560D01*
X-12295321Y11741160D01*
X-12198712Y11974396D01*
X-12058454Y12184307D01*
X-11879947Y12362814D01*
X-11670036Y12503072D01*
X-11533410Y12559664D01*
X-11436801Y12599681D01*
X-11313000Y12624306D01*
X-11189200Y12648932D01*
X-10936744Y12648932D01*
X-10812944Y12624306D01*
X-10812944Y12624306D01*
G37*
G36*
X-13245304Y15611231D02*
X-13129154Y15588127D01*
X-12983272Y15527701D01*
X-12851982Y15439976D01*
X-12740328Y15328322D01*
X-12652603Y15197032D01*
X-12592177Y15051150D01*
X-12561372Y14896283D01*
X-12561372Y14738381D01*
X-12592177Y14583514D01*
X-12652603Y14437632D01*
X-12740328Y14306342D01*
X-12851982Y14194688D01*
X-12983272Y14106963D01*
X-13129154Y14046537D01*
X-13245304Y14023433D01*
X-13284020Y14015732D01*
X-13441924Y14015732D01*
X-13480640Y14023433D01*
X-13596790Y14046537D01*
X-13742672Y14106963D01*
X-13873962Y14194688D01*
X-13985616Y14306342D01*
X-14073341Y14437632D01*
X-14133767Y14583514D01*
X-14164572Y14738381D01*
X-14164572Y14896283D01*
X-14133767Y15051150D01*
X-14073341Y15197032D01*
X-13985616Y15328322D01*
X-13873962Y15439976D01*
X-13742672Y15527701D01*
X-13596790Y15588127D01*
X-13480640Y15611231D01*
X-13441924Y15618932D01*
X-13284020Y15618932D01*
X-13245304Y15611231D01*
X-13245304Y15611231D01*
G37*
G36*
X-15785304Y16631231D02*
X-15669154Y16608127D01*
X-15523272Y16547701D01*
X-15391982Y16459976D01*
X-15280328Y16348322D01*
X-15192603Y16217032D01*
X-15132177Y16071150D01*
X-15101372Y15916283D01*
X-15101372Y15758381D01*
X-15132177Y15603514D01*
X-15192603Y15457632D01*
X-15280328Y15326342D01*
X-15391982Y15214688D01*
X-15523272Y15126963D01*
X-15669154Y15066537D01*
X-15785304Y15043433D01*
X-15824020Y15035732D01*
X-15981924Y15035732D01*
X-16020640Y15043433D01*
X-16136790Y15066537D01*
X-16282672Y15126963D01*
X-16413962Y15214688D01*
X-16525616Y15326342D01*
X-16613341Y15457632D01*
X-16673767Y15603514D01*
X-16704572Y15758381D01*
X-16704572Y15916283D01*
X-16673767Y16071150D01*
X-16613341Y16217032D01*
X-16525616Y16348322D01*
X-16413962Y16459976D01*
X-16282672Y16547701D01*
X-16136790Y16608127D01*
X-16020640Y16631231D01*
X-15981924Y16638932D01*
X-15824020Y16638932D01*
X-15785304Y16631231D01*
X-15785304Y16631231D01*
G37*
G36*
X-13245304Y17651231D02*
X-13129154Y17628127D01*
X-12983272Y17567701D01*
X-12851982Y17479976D01*
X-12740328Y17368322D01*
X-12652603Y17237032D01*
X-12592177Y17091150D01*
X-12561372Y16936283D01*
X-12561372Y16778381D01*
X-12592177Y16623514D01*
X-12652603Y16477632D01*
X-12740328Y16346342D01*
X-12851982Y16234688D01*
X-12983272Y16146963D01*
X-13129154Y16086537D01*
X-13245304Y16063433D01*
X-13284020Y16055732D01*
X-13441924Y16055732D01*
X-13480640Y16063433D01*
X-13596790Y16086537D01*
X-13742672Y16146963D01*
X-13873962Y16234688D01*
X-13985616Y16346342D01*
X-14073341Y16477632D01*
X-14133767Y16623514D01*
X-14164572Y16778381D01*
X-14164572Y16936283D01*
X-14133767Y17091150D01*
X-14073341Y17237032D01*
X-13985616Y17368322D01*
X-13873962Y17479976D01*
X-13742672Y17567701D01*
X-13596790Y17628127D01*
X-13480640Y17651231D01*
X-13441924Y17658932D01*
X-13284020Y17658932D01*
X-13245304Y17651231D01*
X-13245304Y17651231D01*
G37*
G36*
X-15785304Y18671231D02*
X-15669154Y18648127D01*
X-15523272Y18587701D01*
X-15391982Y18499976D01*
X-15280328Y18388322D01*
X-15192603Y18257032D01*
X-15132177Y18111150D01*
X-15101372Y17956283D01*
X-15101372Y17798381D01*
X-15132177Y17643514D01*
X-15192603Y17497632D01*
X-15280328Y17366342D01*
X-15391982Y17254688D01*
X-15523272Y17166963D01*
X-15669154Y17106537D01*
X-15785304Y17083433D01*
X-15824020Y17075732D01*
X-15981924Y17075732D01*
X-16020640Y17083433D01*
X-16136790Y17106537D01*
X-16282672Y17166963D01*
X-16413962Y17254688D01*
X-16525616Y17366342D01*
X-16613341Y17497632D01*
X-16673767Y17643514D01*
X-16704572Y17798381D01*
X-16704572Y17956283D01*
X-16673767Y18111150D01*
X-16613341Y18257032D01*
X-16525616Y18388322D01*
X-16413962Y18499976D01*
X-16282672Y18587701D01*
X-16136790Y18648127D01*
X-16020640Y18671231D01*
X-15981924Y18678932D01*
X-15824020Y18678932D01*
X-15785304Y18671231D01*
X-15785304Y18671231D01*
G37*
G36*
X-13245304Y19691231D02*
X-13129154Y19668127D01*
X-12983272Y19607701D01*
X-12851982Y19519976D01*
X-12740328Y19408322D01*
X-12652603Y19277032D01*
X-12592177Y19131150D01*
X-12561372Y18976283D01*
X-12561372Y18818381D01*
X-12592177Y18663514D01*
X-12652603Y18517632D01*
X-12740328Y18386342D01*
X-12851982Y18274688D01*
X-12983272Y18186963D01*
X-13129154Y18126537D01*
X-13245304Y18103433D01*
X-13284020Y18095732D01*
X-13441924Y18095732D01*
X-13480640Y18103433D01*
X-13596790Y18126537D01*
X-13742672Y18186963D01*
X-13873962Y18274688D01*
X-13985616Y18386342D01*
X-14073341Y18517632D01*
X-14133767Y18663514D01*
X-14164572Y18818381D01*
X-14164572Y18976283D01*
X-14133767Y19131150D01*
X-14073341Y19277032D01*
X-13985616Y19408322D01*
X-13873962Y19519976D01*
X-13742672Y19607701D01*
X-13596790Y19668127D01*
X-13480640Y19691231D01*
X-13441924Y19698932D01*
X-13284020Y19698932D01*
X-13245304Y19691231D01*
X-13245304Y19691231D01*
G37*
G36*
X-15785304Y20711231D02*
X-15669154Y20688127D01*
X-15523272Y20627701D01*
X-15391982Y20539976D01*
X-15280328Y20428322D01*
X-15192603Y20297032D01*
X-15132177Y20151150D01*
X-15101372Y19996283D01*
X-15101372Y19838381D01*
X-15132177Y19683514D01*
X-15192603Y19537632D01*
X-15280328Y19406342D01*
X-15391982Y19294688D01*
X-15523272Y19206963D01*
X-15669154Y19146537D01*
X-15785304Y19123433D01*
X-15824020Y19115732D01*
X-15981924Y19115732D01*
X-16020640Y19123433D01*
X-16136790Y19146537D01*
X-16282672Y19206963D01*
X-16413962Y19294688D01*
X-16525616Y19406342D01*
X-16613341Y19537632D01*
X-16673767Y19683514D01*
X-16704572Y19838381D01*
X-16704572Y19996283D01*
X-16673767Y20151150D01*
X-16613341Y20297032D01*
X-16525616Y20428322D01*
X-16413962Y20539976D01*
X-16282672Y20627701D01*
X-16136790Y20688127D01*
X-16020640Y20711231D01*
X-15981924Y20718932D01*
X-15824020Y20718932D01*
X-15785304Y20711231D01*
X-15785304Y20711231D01*
G37*
G36*
X-10812944Y24624307D02*
X-10689143Y24599681D01*
X-10592534Y24559664D01*
X-10455908Y24503072D01*
X-10245997Y24362814D01*
X-10067490Y24184307D01*
X-9927232Y23974396D01*
X-9830623Y23741160D01*
X-9781372Y23493560D01*
X-9781372Y23241104D01*
X-9830623Y22993504D01*
X-9927232Y22760268D01*
X-10067490Y22550357D01*
X-10245997Y22371850D01*
X-10455908Y22231592D01*
X-10592534Y22175000D01*
X-10689143Y22134983D01*
X-10812944Y22110358D01*
X-10936744Y22085732D01*
X-11189200Y22085732D01*
X-11313000Y22110358D01*
X-11436801Y22134983D01*
X-11533410Y22175000D01*
X-11670036Y22231592D01*
X-11879947Y22371850D01*
X-12058454Y22550357D01*
X-12198712Y22760268D01*
X-12295321Y22993504D01*
X-12344572Y23241104D01*
X-12344572Y23493560D01*
X-12295321Y23741160D01*
X-12198712Y23974396D01*
X-12058454Y24184307D01*
X-11879947Y24362814D01*
X-11670036Y24503072D01*
X-11533410Y24559664D01*
X-11436801Y24599681D01*
X-11313000Y24624307D01*
X-11189200Y24648932D01*
X-10936744Y24648932D01*
X-10812944Y24624307D01*
X-10812944Y24624307D01*
G37*
G36*
X-6858755Y28927016D02*
X-6631474Y28881808D01*
X-6381859Y28778414D01*
X-6157211Y28628309D01*
X-5966163Y28437261D01*
X-5816058Y28212613D01*
X-5712664Y27962998D01*
X-5659955Y27698008D01*
X-5659955Y27427826D01*
X-5712664Y27162836D01*
X-5816058Y26913221D01*
X-5966163Y26688573D01*
X-6157211Y26497525D01*
X-6381859Y26347420D01*
X-6631474Y26244026D01*
X-6858755Y26198818D01*
X-6896463Y26191317D01*
X-7166647Y26191317D01*
X-7204355Y26198818D01*
X-7431636Y26244026D01*
X-7681251Y26347420D01*
X-7905899Y26497525D01*
X-8096947Y26688573D01*
X-8247052Y26913221D01*
X-8350446Y27162836D01*
X-8403155Y27427826D01*
X-8403155Y27698008D01*
X-8350446Y27962998D01*
X-8247052Y28212613D01*
X-8096947Y28437261D01*
X-7905899Y28628309D01*
X-7681251Y28778414D01*
X-7431636Y28881808D01*
X-7204355Y28927016D01*
X-7166647Y28934517D01*
X-6896463Y28934517D01*
X-6858755Y28927016D01*
X-6858755Y28927016D01*
G37*
G36*
X-40088755Y28927016D02*
X-39861474Y28881808D01*
X-39611859Y28778414D01*
X-39387211Y28628309D01*
X-39196163Y28437261D01*
X-39046058Y28212613D01*
X-38942664Y27962998D01*
X-38889955Y27698008D01*
X-38889955Y27427826D01*
X-38942664Y27162836D01*
X-39046058Y26913221D01*
X-39196163Y26688573D01*
X-39387211Y26497525D01*
X-39611859Y26347420D01*
X-39861474Y26244026D01*
X-40088755Y26198818D01*
X-40126463Y26191317D01*
X-40396647Y26191317D01*
X-40434355Y26198818D01*
X-40661636Y26244026D01*
X-40911251Y26347420D01*
X-41135899Y26497525D01*
X-41326947Y26688573D01*
X-41477052Y26913221D01*
X-41580446Y27162836D01*
X-41633155Y27427826D01*
X-41633155Y27698008D01*
X-41580446Y27962998D01*
X-41477052Y28212613D01*
X-41326947Y28437261D01*
X-41135899Y28628309D01*
X-40911251Y28778414D01*
X-40661636Y28881808D01*
X-40434355Y28927016D01*
X-40396647Y28934517D01*
X-40126463Y28934517D01*
X-40088755Y28927016D01*
X-40088755Y28927016D01*
G37*
M02*
