M48
;DRILL file {KiCad 5.0.0-fee4fd1~65~ubuntu16.04.1} date Fri Jul 27 11:24:29 2018
;FORMAT={-:-/ absolute / inch / decimal}
FMAT,2
INCH,TZ
T1C0.0118
T2C0.0276
T3C0.0315
T4C0.0354
T5C0.0433
T6C0.0551
%
G90
G05
M72
T1
X-1.585Y-0.495
X-1.434Y-1.3095
X-1.389Y-1.5645
X-1.345Y-1.519
X-1.341Y-1.076
X-1.3115Y-1.2545
X-1.307Y-1.541
X-1.284Y-1.422
X-1.279Y-1.076
X-1.274Y-0.797
X-1.2715Y-1.2545
X-1.2665Y-0.9995
X-1.2565Y-0.777
X-1.2545Y-1.422
X-1.2518Y-0.8898
X-1.217Y-1.43
X-1.179Y-1.332
X-1.175Y-2.435
X-1.16Y-0.395
X-1.159Y-1.532
X-1.155Y-2.095
X-1.124Y-1.4145
X-1.124Y-1.447
X-1.123Y0.975
X-1.123Y0.263
X-1.115Y-2.095
X-1.106Y-1.2215
X-1.0872Y-1.287
X-1.0865Y-1.4145
X-1.0865Y-1.447
X-1.079Y-1.317
X-1.0661Y0.543
X-1.0265Y-1.392
X-1.0215Y-0.952
X-1.02Y-1.6385
X-1.0188Y-1.1847
X-1.009Y-1.222
X-1.004Y-1.4145
X-1.Y-1.6185
X-0.995Y-1.675
X-0.9815Y-0.992
X-0.975Y-1.735
X-0.95Y-1.76
X-0.944Y-1.2845
X-0.94Y0.85
X-0.94Y-1.665
X-0.92Y-2.1
X-0.92Y-2.14
X-0.9165Y-1.257
X-0.9115Y-1.6445
X-0.897Y0.632
X-0.897Y-0.97
X-0.8965Y0.602
X-0.8965Y0.5715
X-0.8815Y-1.6445
X-0.82Y-1.9516
X-0.815Y-0.877
X-0.775Y-1.585
X-0.77Y-1.031
X-0.769Y-1.217
X-0.703Y0.5421
X-0.7Y-2.46
X-0.7Y-2.5
X-0.675Y-1.425
X-0.673Y-0.093
X-0.46Y-2.44
T2
X-0.4Y-2.3745
X-0.4Y-2.5655
T3
X-0.3479Y-2.3598
X-0.3479Y-2.5802
T4
X-0.6267Y0.1739
X-0.6267Y0.0936
X-0.6267Y0.0133
X-0.5267Y0.1338
X-0.5267Y0.0534
X-0.5267Y-0.0269
X-0.6261Y0.7841
X-0.6261Y0.7038
X-0.6261Y0.6235
X-0.5261Y0.744
X-0.5261Y0.6637
X-0.5261Y0.5834
T5
X-0.2957Y-2.3273G85X-0.2957Y-2.3273
G05
X-0.2957Y-2.6127G85X-0.2957Y-2.6127
G05
T6
X-0.2652Y-2.47G85X-0.2652Y-2.47
G05
T0
M30
