G04 #@! TF.FileFunction,Copper,L2,Bot,Signal*
%FSLAX46Y46*%
G04 Gerber Fmt 4.6, Leading zero omitted, Abs format (unit mm)*
G04 Created by KiCad (PCBNEW 4.0.7-e2-6376~58~ubuntu16.04.1) date Tue Jul 10 13:57:07 2018*
%MOMM*%
%LPD*%
G01*
G04 APERTURE LIST*
%ADD10C,0.100000*%
%ADD11C,1.200000*%
%ADD12C,1.700000*%
%ADD13C,1.400000*%
%ADD14R,1.700000X1.700000*%
%ADD15O,1.700000X1.700000*%
%ADD16C,0.500000*%
%ADD17C,0.254000*%
%ADD18C,0.381000*%
%ADD19C,0.203200*%
%ADD20C,0.253000*%
G04 APERTURE END LIST*
D10*
D11*
X10656000Y-11011400D03*
X15506000Y-11011400D03*
D12*
X9456000Y-13661400D03*
X16706000Y-13661400D03*
D13*
X15807628Y69771532D03*
X18347628Y68751532D03*
X15807628Y67731532D03*
X18347628Y66711532D03*
X15807628Y65691532D03*
X18347628Y64671532D03*
X15821628Y85271532D03*
X18361628Y84251532D03*
X15821628Y83231532D03*
X18361628Y82211532D03*
X15821628Y81191532D03*
X18361628Y80171532D03*
D14*
X25628600Y-9799800D03*
D15*
X25628600Y-7259800D03*
X25628600Y-4719800D03*
X25628600Y-2179800D03*
X25628600Y360200D03*
X25628600Y2900200D03*
X25628600Y5440200D03*
X25628600Y7980200D03*
X25628600Y10520200D03*
X25628600Y13060200D03*
D16*
X8636000Y29743400D03*
X7061200Y29743400D03*
X8953500Y79870300D03*
X8953500Y80645000D03*
X8940800Y81407000D03*
X13525500Y20320000D03*
X12573000Y20320000D03*
X12573000Y21145500D03*
X13525500Y21145500D03*
X15176500Y32893000D03*
X16192500Y31877000D03*
X17843500Y25146000D03*
X17145000Y24447500D03*
X7810500Y25209500D03*
X8826500Y25209500D03*
X15621000Y21145500D03*
X15049500Y21717000D03*
X20726400Y43383200D03*
X14325600Y43916600D03*
X21590000Y26162000D03*
X3200400Y90119200D03*
X3200400Y72034400D03*
X4645228Y79146400D03*
X4064000Y29311600D03*
X-127000Y22352000D03*
X21564600Y30886400D03*
X5842000Y17335500D03*
X2235200Y41287700D03*
X2235200Y45466000D03*
X2235200Y49631600D03*
X15494000Y26035000D03*
X11938000Y9714000D03*
X16637000Y9714000D03*
X15244663Y26982831D03*
X18338800Y32435800D03*
X13508821Y24384000D03*
X20421600Y34798000D03*
X13716000Y23622000D03*
X7010400Y44284900D03*
X11176000Y23241000D03*
X6985000Y48475900D03*
X12065000Y23368000D03*
X8953500Y31686500D03*
X8509000Y20955000D03*
X9326093Y34472093D03*
X9257686Y20955000D03*
X8763000Y36830000D03*
X10210186Y20751186D03*
X17970500Y15303500D03*
X13360400Y-3913100D03*
X18732500Y15303500D03*
X13395245Y-4626941D03*
X18491200Y22961600D03*
X20726400Y24688800D03*
X7010400Y52590700D03*
X12890500Y23291800D03*
X2641600Y-9474200D03*
X22529800Y21082000D03*
X15113000Y-8764500D03*
X14630400Y62992000D03*
X15722907Y15963593D03*
X7848600Y86944200D03*
X13030200Y26047700D03*
X13868400Y79123572D03*
X15214907Y15455593D03*
X11684000Y18161000D03*
X9207500Y37338000D03*
X15621000Y6350000D03*
X14859000Y-1016000D03*
X13716000Y-1016000D03*
X11938000Y8382000D03*
X17932400Y14224000D03*
X17221200Y5664200D03*
X13716000Y14630400D03*
X7924800Y17932400D03*
X11970057Y13633143D03*
X17221200Y6400800D03*
X6959600Y18491200D03*
X8432800Y41452800D03*
X4715881Y29337675D03*
X4699000Y23812500D03*
D17*
X7061200Y29743400D02*
X8636000Y29743400D01*
X8940800Y81407000D02*
X8940800Y80657700D01*
X8940800Y80657700D02*
X8953500Y80645000D01*
X13525500Y20320000D02*
X13525500Y21145500D01*
X12573000Y21145500D02*
X12573000Y20320000D01*
X15049500Y21717000D02*
X14097000Y21717000D01*
X14097000Y21717000D02*
X13525500Y21145500D01*
X16192500Y31877000D02*
X15176500Y32893000D01*
X17145000Y24447500D02*
X17843500Y25146000D01*
X8826500Y25209500D02*
X7810500Y25209500D01*
X15049500Y21717000D02*
X15621000Y21145500D01*
X14325600Y43916600D02*
X20193000Y43916600D01*
X20193000Y43916600D02*
X20726400Y43383200D01*
D18*
X19558000Y26035000D02*
X19735800Y26212800D01*
X19735800Y26212800D02*
X21564600Y28041600D01*
D17*
X21590000Y26162000D02*
X19786600Y26162000D01*
X19786600Y26162000D02*
X19735800Y26212800D01*
X2235200Y49631600D02*
X2235200Y71069200D01*
X2235200Y71069200D02*
X3200400Y72034400D01*
X3200400Y77701572D02*
X3200400Y85496400D01*
X3200400Y85496400D02*
X3200400Y85598000D01*
X3200400Y90119200D02*
X3200400Y85496400D01*
D18*
X6807200Y19253200D02*
X5791200Y19253200D01*
X5842000Y19202400D02*
X5791200Y19253200D01*
X5791200Y19253200D02*
X3378200Y19253200D01*
X5842000Y17335500D02*
X5842000Y19202400D01*
X6807200Y19253200D02*
X9714306Y19253200D01*
X6299200Y19253200D02*
X6807200Y19253200D01*
X3378200Y19253200D02*
X1460500Y17335500D01*
X12688494Y17335500D02*
X16383000Y21030006D01*
X9714306Y19253200D02*
X11632006Y17335500D01*
X16383000Y21030006D02*
X16383000Y22591577D01*
X15494000Y23480577D02*
X15494000Y26035000D01*
X11632006Y17335500D02*
X12688494Y17335500D01*
X16383000Y22591577D02*
X15494000Y23480577D01*
X-127000Y15748000D02*
X-127000Y12127000D01*
X-127000Y12127000D02*
X2286000Y9714000D01*
X2286000Y9714000D02*
X11938000Y9714000D01*
D17*
X3200400Y72034400D02*
X3200400Y77701572D01*
X3225800Y72059800D02*
X3200400Y72034400D01*
X3200400Y77701572D02*
X4645228Y79146400D01*
D18*
X4064000Y29311600D02*
X2946400Y28194000D01*
X2946400Y28194000D02*
X-127000Y28194000D01*
X-127000Y15748000D02*
X-127000Y22352000D01*
X-127000Y22352000D02*
X-127000Y28194000D01*
X-127000Y28194000D02*
X-127000Y38925500D01*
X-127000Y38925500D02*
X2235200Y41287700D01*
X-127000Y15748000D02*
X1460500Y17335500D01*
X21564600Y30886400D02*
X21564600Y28194000D01*
X21564600Y28041600D02*
X21564600Y28194000D01*
X15494000Y26035000D02*
X19558000Y26035000D01*
D17*
X2235200Y45466000D02*
X2235200Y41287700D01*
X2235200Y49631600D02*
X2235200Y45466000D01*
D18*
X11938000Y9714000D02*
X16637000Y9714000D01*
D17*
X14846300Y28943300D02*
X18338800Y32435800D01*
X13508821Y24384000D02*
X14715262Y25590441D01*
X14715262Y25590441D02*
X14715262Y28812262D01*
X14715262Y28812262D02*
X14846300Y28943300D01*
X13483410Y24409411D02*
X13508821Y24384000D01*
X20421600Y34798000D02*
X19917486Y34798000D01*
X19917486Y34798000D02*
X17170400Y32050914D01*
X17170400Y32050914D02*
X17170400Y32029400D01*
X17170400Y32029400D02*
X14308852Y29167852D01*
X13363650Y23622000D02*
X13716000Y23622000D01*
X14308852Y29167852D02*
X14308852Y25967545D01*
X14308852Y25967545D02*
X12979411Y24638104D01*
X12979411Y24638104D02*
X12979411Y24006239D01*
X12979411Y24006239D02*
X13363650Y23622000D01*
X11176000Y23241000D02*
X11645890Y23710890D01*
X11645890Y23710890D02*
X11658590Y23710890D01*
X11658590Y23710890D02*
X11658590Y39636710D01*
X11658590Y39636710D02*
X11544300Y39751000D01*
X11544300Y39751000D02*
X7010400Y44284900D01*
X12065000Y23368000D02*
X12065000Y39805050D01*
X12065000Y39805050D02*
X7708900Y44161150D01*
X7708900Y44161150D02*
X7708900Y47752000D01*
X7708900Y47752000D02*
X7556500Y47904400D01*
X7556500Y47904400D02*
X6985000Y48475900D01*
X9355901Y21801901D02*
X9355901Y30988000D01*
X9355901Y30988000D02*
X9355901Y31284099D01*
X9355901Y31284099D02*
X8953500Y31686500D01*
X8509000Y20955000D02*
X9355901Y21801901D01*
X9257686Y20955000D02*
X9762311Y21459625D01*
X9762311Y34035875D02*
X9576092Y34222094D01*
X9762311Y21459625D02*
X9762311Y34035875D01*
X9576092Y34222094D02*
X9326093Y34472093D01*
X8763000Y36830000D02*
X8763000Y35783872D01*
X8763000Y35783872D02*
X10210186Y34336686D01*
X10210186Y34336686D02*
X10210186Y33197186D01*
X10210186Y20751186D02*
X10210186Y33197186D01*
X17970500Y15303500D02*
X18461801Y14812199D01*
X18461801Y14812199D02*
X18461801Y1179487D01*
X16243300Y-1030200D02*
X13360400Y-3913100D01*
X18461801Y1179487D02*
X16252114Y-1030200D01*
X16252114Y-1030200D02*
X16243300Y-1030200D01*
X13395245Y-4626941D02*
X18897600Y875414D01*
X18732500Y15303500D02*
X18982499Y15053501D01*
X18982499Y15053501D02*
X18982499Y960313D01*
X18982499Y960313D02*
X18897600Y875414D01*
X24282400Y12128500D02*
X24282400Y20112914D01*
X25628600Y10520200D02*
X24282400Y11866400D01*
X24282400Y11866400D02*
X24282400Y12128500D01*
X24282400Y20112914D02*
X21433714Y22961600D01*
X21433714Y22961600D02*
X18491200Y22961600D01*
X24688810Y15900400D02*
X24688810Y20726390D01*
X24688810Y15900400D02*
X24688810Y13999990D01*
X24688810Y13999990D02*
X25628600Y13060200D01*
X20726400Y24688800D02*
X24638000Y20777200D01*
X24688810Y20726390D02*
X24638000Y20777200D01*
X7010400Y52590700D02*
X8128000Y51473100D01*
X8128000Y51473100D02*
X8128000Y44348400D01*
X8128000Y44348400D02*
X12471410Y40004990D01*
X12471410Y40004990D02*
X12471410Y23710890D01*
X12471410Y23710890D02*
X12890500Y23291800D01*
D18*
X20980400Y-10705919D02*
X20980400Y-13908000D01*
X20980400Y-13908000D02*
X19699200Y-15189200D01*
X25628600Y-7259800D02*
X24426519Y-7259800D01*
X24426519Y-7259800D02*
X20980400Y-10705919D01*
X8356600Y-15189200D02*
X19699200Y-15189200D01*
X2641600Y-9474200D02*
X8356600Y-15189200D01*
D17*
X22529800Y21082000D02*
X20675620Y19227820D01*
X20675620Y16103620D02*
X19388909Y14816909D01*
X19388909Y14816909D02*
X19388909Y781909D01*
X20675620Y19227820D02*
X20675620Y16103620D01*
X19388909Y781909D02*
X15113000Y-3494000D01*
X15113000Y-3494000D02*
X15113000Y-8764500D01*
X15722907Y15963593D02*
X16408093Y15963593D01*
X16408093Y15963593D02*
X17068800Y16624300D01*
X17068800Y16624300D02*
X17068800Y22881248D01*
X17068800Y22881248D02*
X19812163Y25624611D01*
X19812163Y25624611D02*
X22233711Y25624611D01*
X22233711Y25624611D02*
X23262401Y26653301D01*
X23262401Y26653301D02*
X23262401Y42269609D01*
X23262401Y42269609D02*
X13512810Y52019200D01*
X13512810Y52019200D02*
X13512810Y61874410D01*
X13512810Y61874410D02*
X14630400Y62992000D01*
X12877820Y40005020D02*
X13004800Y40132000D01*
X13106400Y86156800D02*
X13106400Y40233600D01*
X13106400Y40233600D02*
X13004800Y40132000D01*
X12069001Y87194199D02*
X13106400Y86156800D01*
X8098599Y87194199D02*
X10972800Y87194199D01*
X10972800Y87194199D02*
X12069001Y87194199D01*
X13030200Y26047700D02*
X12877820Y26200080D01*
X12877820Y26200080D02*
X12877820Y40005020D01*
X7848600Y86944200D02*
X8098599Y87194199D01*
X15214907Y15455593D02*
X15464906Y15205594D01*
X15464906Y15205594D02*
X16285094Y15205594D01*
X22424201Y25218201D02*
X23812500Y26606500D01*
X16285094Y15205594D02*
X17673102Y16593602D01*
X17673102Y16593602D02*
X17673102Y22910800D01*
X17673102Y22910800D02*
X19980503Y25218201D01*
X13919220Y52451000D02*
X13919220Y61497306D01*
X19980503Y25218201D02*
X22424201Y25218201D01*
X23812500Y26606500D02*
X23812500Y42557720D01*
X15159801Y62737887D02*
X15159801Y63326199D01*
X23812500Y42557720D02*
X13919220Y52451000D01*
X13919220Y61497306D02*
X15159801Y62737887D01*
X15159801Y63326199D02*
X13512810Y64973190D01*
X13512810Y64973190D02*
X13512810Y78767982D01*
X13512810Y78767982D02*
X13868400Y79123572D01*
X9207500Y37338000D02*
X10616596Y35928904D01*
X10616596Y35928904D02*
X10616596Y21128290D01*
X10616596Y21128290D02*
X11684000Y20060886D01*
X11684000Y20060886D02*
X11684000Y18161000D01*
X15621000Y6350000D02*
X15621000Y-254000D01*
X15621000Y-254000D02*
X14859000Y-1016000D01*
X11938000Y8382000D02*
X11938000Y762000D01*
X11938000Y762000D02*
X13716000Y-1016000D01*
X17932400Y14224000D02*
X17932400Y6388100D01*
X17221200Y5664200D02*
X17574753Y5664200D01*
X17574753Y5664200D02*
X17932400Y6021847D01*
X17932400Y6021847D02*
X17932400Y6388100D01*
X12954000Y14456599D02*
X13512800Y14456599D01*
X13512800Y14456599D02*
X14782800Y14456599D01*
X13716000Y14630400D02*
X13542199Y14456599D01*
X13542199Y14456599D02*
X13512800Y14456599D01*
X17699801Y14456599D02*
X17932400Y14224000D01*
X14782800Y14456599D02*
X15828199Y14456599D01*
X14782800Y14456599D02*
X17699801Y14456599D01*
X11047048Y14456599D02*
X12954000Y14456599D01*
D19*
X13004800Y14480047D02*
X12981352Y14456599D01*
X12981352Y14456599D02*
X12954000Y14456599D01*
D17*
X7924800Y17932400D02*
X7924800Y17578847D01*
X7924800Y17578847D02*
X11047048Y14456599D01*
X10820400Y13970000D02*
X11963400Y13970000D01*
X11963400Y13639800D02*
X11963400Y13970000D01*
X11963400Y13970000D02*
X12446000Y13970000D01*
X11970057Y13633143D02*
X11963400Y13639800D01*
X17525990Y6705590D02*
X17525990Y13716010D01*
X17525990Y13716010D02*
X17272000Y13970000D01*
X17272000Y13970000D02*
X15494000Y13970000D01*
X17221200Y6400800D02*
X17525990Y6705590D01*
X12446000Y13970000D02*
X15494000Y13970000D01*
X6959600Y17830800D02*
X10820400Y13970000D01*
X6959600Y18491200D02*
X6959600Y17830800D01*
X4715881Y29337675D02*
X4715881Y37735881D01*
X4715881Y37735881D02*
X8432800Y41452800D01*
X4699000Y23812500D02*
X4699000Y29320794D01*
X4699000Y29320794D02*
X4715881Y29337675D01*
D20*
G36*
X26802525Y93768591D02*
X26868915Y93748547D01*
X26930154Y93715985D01*
X26983898Y93672153D01*
X27028107Y93618713D01*
X27061092Y93557709D01*
X27081601Y93491455D01*
X27090801Y93403921D01*
X27098419Y-15417296D01*
X27089711Y-15506106D01*
X27069666Y-15572497D01*
X27037105Y-15633734D01*
X26993272Y-15687479D01*
X26939835Y-15731686D01*
X26878829Y-15764672D01*
X26812574Y-15785181D01*
X26725050Y-15794380D01*
X-443174Y-15794380D01*
X-522277Y-15782880D01*
X-587814Y-15759708D01*
X-647608Y-15724244D01*
X-699372Y-15677846D01*
X-741138Y-15622276D01*
X-771315Y-15559650D01*
X-789769Y-15488442D01*
X-794181Y-15431925D01*
X-794273Y-14106213D01*
X-431580Y-14106213D01*
X-380966Y-14381986D01*
X-277752Y-14642675D01*
X-125868Y-14878352D01*
X68899Y-15080040D01*
X299132Y-15240056D01*
X556061Y-15352305D01*
X829899Y-15412512D01*
X1110216Y-15418384D01*
X1386335Y-15369697D01*
X1647739Y-15268305D01*
X1884470Y-15118070D01*
X2087513Y-14924716D01*
X2249132Y-14695606D01*
X2363172Y-14439467D01*
X2425290Y-14166056D01*
X2429762Y-13845811D01*
X2375302Y-13570772D01*
X2268458Y-13311549D01*
X2113299Y-13078015D01*
X1915735Y-12879067D01*
X1683290Y-12722281D01*
X1424820Y-12613630D01*
X1150167Y-12557252D01*
X869796Y-12555295D01*
X594383Y-12607832D01*
X334421Y-12712864D01*
X99810Y-12866389D01*
X-100513Y-13062560D01*
X-258918Y-13293904D01*
X-369371Y-13551610D01*
X-427665Y-13825862D01*
X-431580Y-14106213D01*
X-794273Y-14106213D01*
X-794593Y-9522943D01*
X2061138Y-9522943D01*
X2081660Y-9634760D01*
X2123511Y-9740462D01*
X2185095Y-9836022D01*
X2264067Y-9917800D01*
X2357419Y-9982681D01*
X2458621Y-10026895D01*
X7988763Y-15557037D01*
X8025908Y-15587548D01*
X8062704Y-15618424D01*
X8065098Y-15619740D01*
X8067215Y-15621479D01*
X8109624Y-15644218D01*
X8151671Y-15667334D01*
X8154275Y-15668160D01*
X8156690Y-15669455D01*
X8202692Y-15683519D01*
X8248444Y-15698032D01*
X8251162Y-15698337D01*
X8253779Y-15699137D01*
X8301663Y-15704002D01*
X8349337Y-15709349D01*
X8354670Y-15709386D01*
X8354784Y-15709398D01*
X8354890Y-15709388D01*
X8356600Y-15709400D01*
X19699200Y-15709400D01*
X19747009Y-15704712D01*
X19794891Y-15700523D01*
X19797517Y-15699760D01*
X19800241Y-15699493D01*
X19846288Y-15685591D01*
X19892385Y-15672198D01*
X19894810Y-15670941D01*
X19897433Y-15670149D01*
X19939921Y-15647558D01*
X19982521Y-15625476D01*
X19984656Y-15623772D01*
X19987074Y-15622486D01*
X20024351Y-15592084D01*
X20061865Y-15562137D01*
X20065669Y-15558386D01*
X20065751Y-15558319D01*
X20065813Y-15558244D01*
X20067037Y-15557037D01*
X21348237Y-14275837D01*
X21378726Y-14238719D01*
X21409624Y-14201896D01*
X21410942Y-14199498D01*
X21412678Y-14197385D01*
X21435388Y-14155031D01*
X21458534Y-14112929D01*
X21459361Y-14110323D01*
X21460654Y-14107911D01*
X21461173Y-14106213D01*
X23857420Y-14106213D01*
X23908034Y-14381986D01*
X24011248Y-14642675D01*
X24163132Y-14878352D01*
X24357899Y-15080040D01*
X24588132Y-15240056D01*
X24845061Y-15352305D01*
X25118899Y-15412512D01*
X25399216Y-15418384D01*
X25675335Y-15369697D01*
X25936739Y-15268305D01*
X26173470Y-15118070D01*
X26376513Y-14924716D01*
X26538132Y-14695606D01*
X26652172Y-14439467D01*
X26714290Y-14166056D01*
X26718762Y-13845811D01*
X26664302Y-13570772D01*
X26557458Y-13311549D01*
X26402299Y-13078015D01*
X26204735Y-12879067D01*
X25972290Y-12722281D01*
X25713820Y-12613630D01*
X25439167Y-12557252D01*
X25158796Y-12555295D01*
X24883383Y-12607832D01*
X24623421Y-12712864D01*
X24388810Y-12866389D01*
X24188487Y-13062560D01*
X24030082Y-13293904D01*
X23919629Y-13551610D01*
X23861335Y-13825862D01*
X23857420Y-14106213D01*
X21461173Y-14106213D01*
X21474713Y-14061927D01*
X21489232Y-14016156D01*
X21489537Y-14013440D01*
X21490337Y-14010822D01*
X21495197Y-13962976D01*
X21500549Y-13915263D01*
X21500587Y-13909919D01*
X21500597Y-13909816D01*
X21500588Y-13909720D01*
X21500600Y-13908000D01*
X21500600Y-10921393D01*
X22526568Y-9895425D01*
X24398100Y-9895425D01*
X24398100Y-10687276D01*
X24412722Y-10760788D01*
X24441405Y-10830034D01*
X24483046Y-10892355D01*
X24536045Y-10945354D01*
X24598366Y-10986995D01*
X24667612Y-11015678D01*
X24741124Y-11030300D01*
X25532975Y-11030300D01*
X25628100Y-10935175D01*
X25628100Y-9800300D01*
X25629100Y-9800300D01*
X25629100Y-10935175D01*
X25724225Y-11030300D01*
X26516076Y-11030300D01*
X26589588Y-11015678D01*
X26658834Y-10986995D01*
X26721155Y-10945354D01*
X26774154Y-10892355D01*
X26815795Y-10830034D01*
X26844478Y-10760788D01*
X26859100Y-10687276D01*
X26859100Y-9895425D01*
X26763975Y-9800300D01*
X25629100Y-9800300D01*
X25628100Y-9800300D01*
X24493225Y-9800300D01*
X24398100Y-9895425D01*
X22526568Y-9895425D01*
X23509669Y-8912324D01*
X24398100Y-8912324D01*
X24398100Y-9704175D01*
X24493225Y-9799300D01*
X25628100Y-9799300D01*
X25628100Y-8664425D01*
X25629100Y-8664425D01*
X25629100Y-9799300D01*
X26763975Y-9799300D01*
X26859100Y-9704175D01*
X26859100Y-8912324D01*
X26844478Y-8838812D01*
X26815795Y-8769566D01*
X26774154Y-8707245D01*
X26721155Y-8654246D01*
X26658834Y-8612605D01*
X26589588Y-8583922D01*
X26516076Y-8569300D01*
X25724225Y-8569300D01*
X25629100Y-8664425D01*
X25628100Y-8664425D01*
X25532975Y-8569300D01*
X24741124Y-8569300D01*
X24667612Y-8583922D01*
X24598366Y-8612605D01*
X24536045Y-8654246D01*
X24483046Y-8707245D01*
X24441405Y-8769566D01*
X24412722Y-8838812D01*
X24398100Y-8912324D01*
X23509669Y-8912324D01*
X24594726Y-7827267D01*
X24635761Y-7905760D01*
X24780029Y-8085193D01*
X24956400Y-8233186D01*
X25158159Y-8344104D01*
X25377619Y-8413721D01*
X25606421Y-8439385D01*
X25622892Y-8439500D01*
X25634308Y-8439500D01*
X25863446Y-8417033D01*
X26083857Y-8350487D01*
X26287144Y-8242397D01*
X26465565Y-8096881D01*
X26612324Y-7919480D01*
X26721830Y-7716952D01*
X26789913Y-7497012D01*
X26813979Y-7268036D01*
X26793112Y-7038746D01*
X26728107Y-6817877D01*
X26621439Y-6613840D01*
X26477171Y-6434407D01*
X26300800Y-6286414D01*
X26099041Y-6175496D01*
X25879581Y-6105879D01*
X25650779Y-6080215D01*
X25634308Y-6080100D01*
X25622892Y-6080100D01*
X25393754Y-6102567D01*
X25173343Y-6169113D01*
X24970056Y-6277203D01*
X24791635Y-6422719D01*
X24644876Y-6600120D01*
X24569460Y-6739600D01*
X24426519Y-6739600D01*
X24378718Y-6744287D01*
X24330827Y-6748477D01*
X24328201Y-6749240D01*
X24325478Y-6749507D01*
X24279444Y-6763406D01*
X24233334Y-6776802D01*
X24230909Y-6778059D01*
X24228286Y-6778851D01*
X24185798Y-6801442D01*
X24143198Y-6823524D01*
X24141063Y-6825228D01*
X24138645Y-6826514D01*
X24101337Y-6856941D01*
X24063854Y-6886864D01*
X24060051Y-6890613D01*
X24059968Y-6890681D01*
X24059905Y-6890758D01*
X24058682Y-6891963D01*
X20612563Y-10338082D01*
X20582074Y-10375200D01*
X20551176Y-10412023D01*
X20549858Y-10414421D01*
X20548122Y-10416534D01*
X20525422Y-10458869D01*
X20502266Y-10500990D01*
X20501439Y-10503598D01*
X20500146Y-10506009D01*
X20486092Y-10551978D01*
X20471568Y-10597763D01*
X20471263Y-10600479D01*
X20470463Y-10603097D01*
X20465603Y-10650943D01*
X20460251Y-10698656D01*
X20460213Y-10704000D01*
X20460203Y-10704103D01*
X20460212Y-10704199D01*
X20460200Y-10705919D01*
X20460200Y-13692526D01*
X19483726Y-14669000D01*
X17320015Y-14669000D01*
X17435810Y-14595514D01*
X17603348Y-14435970D01*
X17736706Y-14246923D01*
X17830805Y-14035573D01*
X17882061Y-13809971D01*
X17885751Y-13545724D01*
X17840814Y-13318779D01*
X17752653Y-13104885D01*
X17624625Y-12912187D01*
X17461607Y-12748027D01*
X17269809Y-12618658D01*
X17056535Y-12529005D01*
X16829909Y-12482486D01*
X16598563Y-12480871D01*
X16371310Y-12524222D01*
X16156805Y-12610887D01*
X15963219Y-12737567D01*
X15797925Y-12899434D01*
X15667219Y-13090325D01*
X15576080Y-13302968D01*
X15527980Y-13529264D01*
X15524749Y-13760592D01*
X15566513Y-13988143D01*
X15651679Y-14203248D01*
X15777004Y-14397714D01*
X15937713Y-14564134D01*
X16088596Y-14669000D01*
X10070015Y-14669000D01*
X10185810Y-14595514D01*
X10353348Y-14435970D01*
X10486706Y-14246923D01*
X10580805Y-14035573D01*
X10632061Y-13809971D01*
X10635751Y-13545724D01*
X10590814Y-13318779D01*
X10502653Y-13104885D01*
X10374625Y-12912187D01*
X10211607Y-12748027D01*
X10019809Y-12618658D01*
X9806535Y-12529005D01*
X9579909Y-12482486D01*
X9348563Y-12480871D01*
X9121310Y-12524222D01*
X8906805Y-12610887D01*
X8713219Y-12737567D01*
X8547925Y-12899434D01*
X8417219Y-13090325D01*
X8326080Y-13302968D01*
X8277980Y-13529264D01*
X8274749Y-13760592D01*
X8316513Y-13988143D01*
X8401679Y-14203248D01*
X8527004Y-14397714D01*
X8687713Y-14564134D01*
X8838596Y-14669000D01*
X8572074Y-14669000D01*
X4992646Y-11089572D01*
X9725078Y-11089572D01*
X9757991Y-11268900D01*
X9825109Y-11438420D01*
X9923875Y-11591675D01*
X10050528Y-11722828D01*
X10200242Y-11826882D01*
X10367317Y-11899875D01*
X10545387Y-11939026D01*
X10727671Y-11942845D01*
X10907224Y-11911185D01*
X11077209Y-11845252D01*
X11231150Y-11747558D01*
X11363183Y-11621824D01*
X11468280Y-11472840D01*
X11542438Y-11306279D01*
X11582832Y-11128486D01*
X11583375Y-11089572D01*
X14575078Y-11089572D01*
X14607991Y-11268900D01*
X14675109Y-11438420D01*
X14773875Y-11591675D01*
X14900528Y-11722828D01*
X15050242Y-11826882D01*
X15217317Y-11899875D01*
X15395387Y-11939026D01*
X15577671Y-11942845D01*
X15757224Y-11911185D01*
X15927209Y-11845252D01*
X16081150Y-11747558D01*
X16213183Y-11621824D01*
X16318280Y-11472840D01*
X16392438Y-11306279D01*
X16432832Y-11128486D01*
X16435739Y-10920238D01*
X16400326Y-10741387D01*
X16330848Y-10572821D01*
X16229952Y-10420959D01*
X16101480Y-10291588D01*
X15950327Y-10189634D01*
X15782250Y-10118981D01*
X15603650Y-10082320D01*
X15421331Y-10081047D01*
X15242237Y-10115211D01*
X15073190Y-10183510D01*
X14920628Y-10283344D01*
X14790363Y-10410909D01*
X14687356Y-10561347D01*
X14615531Y-10728927D01*
X14577624Y-10907266D01*
X14575078Y-11089572D01*
X11583375Y-11089572D01*
X11585739Y-10920238D01*
X11550326Y-10741387D01*
X11480848Y-10572821D01*
X11379952Y-10420959D01*
X11251480Y-10291588D01*
X11100327Y-10189634D01*
X10932250Y-10118981D01*
X10753650Y-10082320D01*
X10571331Y-10081047D01*
X10392237Y-10115211D01*
X10223190Y-10183510D01*
X10070628Y-10283344D01*
X9940363Y-10410909D01*
X9837356Y-10561347D01*
X9765531Y-10728927D01*
X9727624Y-10907266D01*
X9725078Y-11089572D01*
X4992646Y-11089572D01*
X3192463Y-9289389D01*
X3155921Y-9200730D01*
X3093009Y-9106040D01*
X3012903Y-9025372D01*
X2918653Y-8961800D01*
X2813851Y-8917746D01*
X2702488Y-8894886D01*
X2588806Y-8894092D01*
X2477135Y-8915395D01*
X2371728Y-8957982D01*
X2276600Y-9020232D01*
X2195375Y-9099773D01*
X2131147Y-9193576D01*
X2086362Y-9298068D01*
X2062725Y-9409269D01*
X2061138Y-9522943D01*
X-794593Y-9522943D01*
X-796822Y22303257D01*
X-707462Y22303257D01*
X-686940Y22191440D01*
X-647200Y22091070D01*
X-647200Y12127000D01*
X-642512Y12079191D01*
X-638323Y12031309D01*
X-637560Y12028683D01*
X-637293Y12025959D01*
X-623391Y11979912D01*
X-609998Y11933815D01*
X-608741Y11931390D01*
X-607949Y11928767D01*
X-585358Y11886279D01*
X-563276Y11843679D01*
X-561572Y11841544D01*
X-560286Y11839126D01*
X-529884Y11801849D01*
X-499937Y11764335D01*
X-496186Y11760531D01*
X-496119Y11760449D01*
X-496044Y11760387D01*
X-494837Y11759163D01*
X1918163Y9346163D01*
X1955281Y9315674D01*
X1992104Y9284776D01*
X1994502Y9283458D01*
X1996615Y9281722D01*
X2038969Y9259012D01*
X2081071Y9235866D01*
X2083677Y9235039D01*
X2086089Y9233746D01*
X2132073Y9219687D01*
X2177844Y9205168D01*
X2180560Y9204863D01*
X2183178Y9204063D01*
X2231024Y9199203D01*
X2278737Y9193851D01*
X2284081Y9193813D01*
X2284184Y9193803D01*
X2284280Y9193812D01*
X2286000Y9193800D01*
X11680643Y9193800D01*
X11757996Y9160005D01*
X11869029Y9135593D01*
X11982689Y9133212D01*
X12094647Y9152953D01*
X12199957Y9193800D01*
X16379643Y9193800D01*
X16456996Y9160005D01*
X16568029Y9135593D01*
X16681689Y9133212D01*
X16793647Y9152953D01*
X16899638Y9194064D01*
X16995626Y9254980D01*
X17069290Y9325129D01*
X17069290Y6962000D01*
X17056735Y6959605D01*
X16951328Y6917018D01*
X16856200Y6854768D01*
X16774975Y6775227D01*
X16710747Y6681424D01*
X16665962Y6576932D01*
X16642325Y6465731D01*
X16640738Y6352057D01*
X16661260Y6240240D01*
X16703111Y6134538D01*
X16764695Y6038978D01*
X16770851Y6032604D01*
X16710747Y5944824D01*
X16665962Y5840332D01*
X16642325Y5729131D01*
X16640738Y5615457D01*
X16661260Y5503640D01*
X16703111Y5397938D01*
X16764695Y5302378D01*
X16843667Y5220600D01*
X16937019Y5155719D01*
X17041196Y5110205D01*
X17152229Y5085793D01*
X17265889Y5083412D01*
X17377847Y5103153D01*
X17483838Y5144264D01*
X17579826Y5205180D01*
X17583124Y5208321D01*
X17616756Y5211619D01*
X17658764Y5215294D01*
X17661068Y5215964D01*
X17663460Y5216198D01*
X17703869Y5228398D01*
X17744357Y5240161D01*
X17746488Y5241266D01*
X17748788Y5241960D01*
X17786027Y5261761D01*
X17823490Y5281179D01*
X17825368Y5282679D01*
X17827487Y5283805D01*
X17860166Y5310457D01*
X17893148Y5336787D01*
X17896495Y5340087D01*
X17896559Y5340139D01*
X17896608Y5340198D01*
X17897689Y5341264D01*
X18005101Y5448676D01*
X18005101Y1368658D01*
X15969261Y-667181D01*
X15957860Y-676480D01*
X15924905Y-702787D01*
X15921562Y-706083D01*
X15921494Y-706139D01*
X15921442Y-706202D01*
X15920364Y-707265D01*
X15398855Y-1228774D01*
X15411725Y-1199867D01*
X15436912Y-1089007D01*
X15436983Y-1083888D01*
X15943936Y-576935D01*
X15970729Y-544317D01*
X15997829Y-512020D01*
X15998984Y-509919D01*
X16000511Y-508060D01*
X16020459Y-470857D01*
X16040769Y-433913D01*
X16041495Y-431623D01*
X16042630Y-429507D01*
X16054965Y-389162D01*
X16067720Y-348953D01*
X16067988Y-346568D01*
X16068690Y-344270D01*
X16072955Y-302280D01*
X16077655Y-260377D01*
X16077688Y-255681D01*
X16077697Y-255594D01*
X16077689Y-255513D01*
X16077700Y-254000D01*
X16077700Y5991702D01*
X16127485Y6062276D01*
X16173725Y6166133D01*
X16198912Y6276993D01*
X16200725Y6406843D01*
X16178643Y6518362D01*
X16135321Y6623470D01*
X16072409Y6718160D01*
X15992303Y6798828D01*
X15898053Y6862400D01*
X15793251Y6906454D01*
X15681888Y6929314D01*
X15568206Y6930108D01*
X15456535Y6908805D01*
X15351128Y6866218D01*
X15256000Y6803968D01*
X15174775Y6724427D01*
X15110547Y6630624D01*
X15065762Y6526132D01*
X15042125Y6414931D01*
X15040538Y6301257D01*
X15061060Y6189440D01*
X15102911Y6083738D01*
X15164300Y5988481D01*
X15164300Y-64829D01*
X14790179Y-438949D01*
X14694535Y-457195D01*
X14589128Y-499782D01*
X14494000Y-562032D01*
X14412775Y-641573D01*
X14348547Y-735376D01*
X14303762Y-839868D01*
X14287372Y-916974D01*
X14273643Y-847638D01*
X14230321Y-742530D01*
X14167409Y-647840D01*
X14087303Y-567172D01*
X13993053Y-503600D01*
X13888251Y-459546D01*
X13784021Y-438150D01*
X12394700Y951172D01*
X12394700Y8023702D01*
X12444485Y8094276D01*
X12490725Y8198133D01*
X12515912Y8308993D01*
X12517725Y8438843D01*
X12495643Y8550362D01*
X12452321Y8655470D01*
X12389409Y8750160D01*
X12309303Y8830828D01*
X12215053Y8894400D01*
X12110251Y8938454D01*
X11998888Y8961314D01*
X11885206Y8962108D01*
X11773535Y8940805D01*
X11668128Y8898218D01*
X11573000Y8835968D01*
X11491775Y8756427D01*
X11427547Y8662624D01*
X11382762Y8558132D01*
X11359125Y8446931D01*
X11357538Y8333257D01*
X11378060Y8221440D01*
X11419911Y8115738D01*
X11481300Y8020481D01*
X11481300Y762000D01*
X11485419Y719997D01*
X11489094Y677989D01*
X11489764Y675685D01*
X11489998Y673293D01*
X11502198Y632884D01*
X11513961Y592396D01*
X11515066Y590265D01*
X11515760Y587965D01*
X11535561Y550726D01*
X11554979Y513263D01*
X11556479Y511385D01*
X11557605Y509266D01*
X11584257Y476587D01*
X11610587Y443605D01*
X11613887Y440258D01*
X11613939Y440194D01*
X11613998Y440145D01*
X11615064Y439064D01*
X13139284Y-1085155D01*
X13156060Y-1176560D01*
X13197911Y-1282262D01*
X13259495Y-1377822D01*
X13338467Y-1459600D01*
X13431819Y-1524481D01*
X13535996Y-1569995D01*
X13647029Y-1594407D01*
X13760689Y-1596788D01*
X13872647Y-1577047D01*
X13978638Y-1535936D01*
X14074626Y-1475020D01*
X14156953Y-1396621D01*
X14222485Y-1303724D01*
X14268725Y-1199867D01*
X14287871Y-1115596D01*
X14299060Y-1176560D01*
X14340911Y-1282262D01*
X14402495Y-1377822D01*
X14481467Y-1459600D01*
X14574819Y-1524481D01*
X14678996Y-1569995D01*
X14790029Y-1594407D01*
X14903689Y-1596788D01*
X15015647Y-1577047D01*
X15072718Y-1554911D01*
X13291579Y-3336049D01*
X13195935Y-3354295D01*
X13090528Y-3396882D01*
X12995400Y-3459132D01*
X12914175Y-3538673D01*
X12849947Y-3632476D01*
X12805162Y-3736968D01*
X12781525Y-3848169D01*
X12779938Y-3961843D01*
X12800460Y-4073660D01*
X12842311Y-4179362D01*
X12903895Y-4274922D01*
X12921321Y-4292967D01*
X12884792Y-4346317D01*
X12840007Y-4450809D01*
X12816370Y-4562010D01*
X12814783Y-4675684D01*
X12835305Y-4787501D01*
X12877156Y-4893203D01*
X12938740Y-4988763D01*
X13017712Y-5070541D01*
X13111064Y-5135422D01*
X13215241Y-5180936D01*
X13326274Y-5205348D01*
X13439934Y-5207729D01*
X13551892Y-5187988D01*
X13657883Y-5146877D01*
X13753871Y-5085961D01*
X13836198Y-5007562D01*
X13901730Y-4914665D01*
X13947970Y-4810808D01*
X13973157Y-4699948D01*
X13973228Y-4694830D01*
X14656300Y-4011758D01*
X14656300Y-8405371D01*
X14602547Y-8483876D01*
X14557762Y-8588368D01*
X14534125Y-8699569D01*
X14532538Y-8813243D01*
X14553060Y-8925060D01*
X14594911Y-9030762D01*
X14656495Y-9126322D01*
X14735467Y-9208100D01*
X14828819Y-9272981D01*
X14932996Y-9318495D01*
X15044029Y-9342907D01*
X15157689Y-9345288D01*
X15269647Y-9325547D01*
X15375638Y-9284436D01*
X15471626Y-9223520D01*
X15553953Y-9145121D01*
X15619485Y-9052224D01*
X15665725Y-8948367D01*
X15690912Y-8837507D01*
X15692725Y-8707657D01*
X15670643Y-8596138D01*
X15627321Y-8491030D01*
X15569700Y-8404304D01*
X15569700Y-4912786D01*
X24413328Y-4912786D01*
X24431982Y-5006568D01*
X24510920Y-5234506D01*
X24632810Y-5442665D01*
X24792968Y-5623044D01*
X24985239Y-5768712D01*
X25202234Y-5874071D01*
X25435614Y-5935072D01*
X25628100Y-5855175D01*
X25628100Y-4720300D01*
X25629100Y-4720300D01*
X25629100Y-5855175D01*
X25821586Y-5935072D01*
X26054966Y-5874071D01*
X26271961Y-5768712D01*
X26464232Y-5623044D01*
X26624390Y-5442665D01*
X26746280Y-5234506D01*
X26825218Y-5006568D01*
X26843872Y-4912786D01*
X26763975Y-4720300D01*
X25629100Y-4720300D01*
X25628100Y-4720300D01*
X24493225Y-4720300D01*
X24413328Y-4912786D01*
X15569700Y-4912786D01*
X15569700Y-4526814D01*
X24413328Y-4526814D01*
X24493225Y-4719300D01*
X25628100Y-4719300D01*
X25628100Y-3584425D01*
X25629100Y-3584425D01*
X25629100Y-4719300D01*
X26763975Y-4719300D01*
X26843872Y-4526814D01*
X26825218Y-4433032D01*
X26746280Y-4205094D01*
X26624390Y-3996935D01*
X26464232Y-3816556D01*
X26271961Y-3670888D01*
X26054966Y-3565529D01*
X25821586Y-3504528D01*
X25629100Y-3584425D01*
X25628100Y-3584425D01*
X25435614Y-3504528D01*
X25202234Y-3565529D01*
X24985239Y-3670888D01*
X24792968Y-3816556D01*
X24632810Y-3996935D01*
X24510920Y-4205094D01*
X24431982Y-4433032D01*
X24413328Y-4526814D01*
X15569700Y-4526814D01*
X15569700Y-3683172D01*
X17081307Y-2171564D01*
X24443221Y-2171564D01*
X24464088Y-2400854D01*
X24529093Y-2621723D01*
X24635761Y-2825760D01*
X24780029Y-3005193D01*
X24956400Y-3153186D01*
X25158159Y-3264104D01*
X25377619Y-3333721D01*
X25606421Y-3359385D01*
X25622892Y-3359500D01*
X25634308Y-3359500D01*
X25863446Y-3337033D01*
X26083857Y-3270487D01*
X26287144Y-3162397D01*
X26465565Y-3016881D01*
X26612324Y-2839480D01*
X26721830Y-2636952D01*
X26789913Y-2417012D01*
X26813979Y-2188036D01*
X26793112Y-1958746D01*
X26728107Y-1737877D01*
X26621439Y-1533840D01*
X26477171Y-1354407D01*
X26300800Y-1206414D01*
X26099041Y-1095496D01*
X25879581Y-1025879D01*
X25650779Y-1000215D01*
X25634308Y-1000100D01*
X25622892Y-1000100D01*
X25393754Y-1022567D01*
X25173343Y-1089113D01*
X24970056Y-1197203D01*
X24791635Y-1342719D01*
X24644876Y-1520120D01*
X24535370Y-1722648D01*
X24467287Y-1942588D01*
X24443221Y-2171564D01*
X17081307Y-2171564D01*
X19621307Y368436D01*
X24443221Y368436D01*
X24464088Y139146D01*
X24529093Y-81723D01*
X24635761Y-285760D01*
X24780029Y-465193D01*
X24956400Y-613186D01*
X25158159Y-724104D01*
X25377619Y-793721D01*
X25606421Y-819385D01*
X25622892Y-819500D01*
X25634308Y-819500D01*
X25863446Y-797033D01*
X26083857Y-730487D01*
X26287144Y-622397D01*
X26465565Y-476881D01*
X26612324Y-299480D01*
X26721830Y-96952D01*
X26789913Y122988D01*
X26813979Y351964D01*
X26793112Y581254D01*
X26728107Y802123D01*
X26621439Y1006160D01*
X26477171Y1185593D01*
X26300800Y1333586D01*
X26099041Y1444504D01*
X25879581Y1514121D01*
X25650779Y1539785D01*
X25634308Y1539900D01*
X25622892Y1539900D01*
X25393754Y1517433D01*
X25173343Y1450887D01*
X24970056Y1342797D01*
X24791635Y1197281D01*
X24644876Y1019880D01*
X24535370Y817352D01*
X24467287Y597412D01*
X24443221Y368436D01*
X19621307Y368436D01*
X19711844Y458973D01*
X19738611Y491560D01*
X19765738Y523889D01*
X19766895Y525994D01*
X19768419Y527849D01*
X19788357Y565032D01*
X19808678Y601996D01*
X19809404Y604284D01*
X19810539Y606401D01*
X19822865Y646720D01*
X19835629Y686956D01*
X19835897Y689346D01*
X19836598Y691639D01*
X19840859Y733584D01*
X19845564Y775532D01*
X19845597Y780227D01*
X19845606Y780314D01*
X19845598Y780400D01*
X19845609Y781909D01*
X19845609Y2908436D01*
X24443221Y2908436D01*
X24464088Y2679146D01*
X24529093Y2458277D01*
X24635761Y2254240D01*
X24780029Y2074807D01*
X24956400Y1926814D01*
X25158159Y1815896D01*
X25377619Y1746279D01*
X25606421Y1720615D01*
X25622892Y1720500D01*
X25634308Y1720500D01*
X25863446Y1742967D01*
X26083857Y1809513D01*
X26287144Y1917603D01*
X26465565Y2063119D01*
X26612324Y2240520D01*
X26721830Y2443048D01*
X26789913Y2662988D01*
X26813979Y2891964D01*
X26793112Y3121254D01*
X26728107Y3342123D01*
X26621439Y3546160D01*
X26477171Y3725593D01*
X26300800Y3873586D01*
X26099041Y3984504D01*
X25879581Y4054121D01*
X25650779Y4079785D01*
X25634308Y4079900D01*
X25622892Y4079900D01*
X25393754Y4057433D01*
X25173343Y3990887D01*
X24970056Y3882797D01*
X24791635Y3737281D01*
X24644876Y3559880D01*
X24535370Y3357352D01*
X24467287Y3137412D01*
X24443221Y2908436D01*
X19845609Y2908436D01*
X19845609Y5448436D01*
X24443221Y5448436D01*
X24464088Y5219146D01*
X24529093Y4998277D01*
X24635761Y4794240D01*
X24780029Y4614807D01*
X24956400Y4466814D01*
X25158159Y4355896D01*
X25377619Y4286279D01*
X25606421Y4260615D01*
X25622892Y4260500D01*
X25634308Y4260500D01*
X25863446Y4282967D01*
X26083857Y4349513D01*
X26287144Y4457603D01*
X26465565Y4603119D01*
X26612324Y4780520D01*
X26721830Y4983048D01*
X26789913Y5202988D01*
X26813979Y5431964D01*
X26793112Y5661254D01*
X26728107Y5882123D01*
X26621439Y6086160D01*
X26477171Y6265593D01*
X26300800Y6413586D01*
X26099041Y6524504D01*
X25879581Y6594121D01*
X25650779Y6619785D01*
X25634308Y6619900D01*
X25622892Y6619900D01*
X25393754Y6597433D01*
X25173343Y6530887D01*
X24970056Y6422797D01*
X24791635Y6277281D01*
X24644876Y6099880D01*
X24535370Y5897352D01*
X24467287Y5677412D01*
X24443221Y5448436D01*
X19845609Y5448436D01*
X19845609Y7988436D01*
X24443221Y7988436D01*
X24464088Y7759146D01*
X24529093Y7538277D01*
X24635761Y7334240D01*
X24780029Y7154807D01*
X24956400Y7006814D01*
X25158159Y6895896D01*
X25377619Y6826279D01*
X25606421Y6800615D01*
X25622892Y6800500D01*
X25634308Y6800500D01*
X25863446Y6822967D01*
X26083857Y6889513D01*
X26287144Y6997603D01*
X26465565Y7143119D01*
X26612324Y7320520D01*
X26721830Y7523048D01*
X26789913Y7742988D01*
X26813979Y7971964D01*
X26793112Y8201254D01*
X26728107Y8422123D01*
X26621439Y8626160D01*
X26477171Y8805593D01*
X26300800Y8953586D01*
X26099041Y9064504D01*
X25879581Y9134121D01*
X25650779Y9159785D01*
X25634308Y9159900D01*
X25622892Y9159900D01*
X25393754Y9137433D01*
X25173343Y9070887D01*
X24970056Y8962797D01*
X24791635Y8817281D01*
X24644876Y8639880D01*
X24535370Y8437352D01*
X24467287Y8217412D01*
X24443221Y7988436D01*
X19845609Y7988436D01*
X19845609Y14627737D01*
X20998556Y15780684D01*
X21025347Y15813300D01*
X21052449Y15845600D01*
X21053606Y15847705D01*
X21055130Y15849560D01*
X21075068Y15886743D01*
X21095389Y15923707D01*
X21096115Y15925995D01*
X21097250Y15928112D01*
X21109589Y15968472D01*
X21122340Y16008667D01*
X21122608Y16011052D01*
X21123310Y16013350D01*
X21127576Y16055344D01*
X21132275Y16097243D01*
X21132308Y16101938D01*
X21132317Y16102025D01*
X21132309Y16102106D01*
X21132320Y16103620D01*
X21132320Y19038648D01*
X22599249Y20505578D01*
X22686447Y20520953D01*
X22792438Y20562064D01*
X22888426Y20622980D01*
X22970753Y20701379D01*
X23002732Y20746711D01*
X23825700Y19923743D01*
X23825700Y11866400D01*
X23829819Y11824397D01*
X23833494Y11782389D01*
X23834164Y11780085D01*
X23834398Y11777693D01*
X23846598Y11737284D01*
X23858361Y11696796D01*
X23859466Y11694665D01*
X23860160Y11692365D01*
X23879961Y11655126D01*
X23899379Y11617663D01*
X23900879Y11615785D01*
X23902005Y11613666D01*
X23928657Y11580987D01*
X23954987Y11548005D01*
X23958287Y11544658D01*
X23958339Y11544594D01*
X23958398Y11544545D01*
X23959464Y11543464D01*
X24533055Y10969873D01*
X24467287Y10757412D01*
X24443221Y10528436D01*
X24464088Y10299146D01*
X24529093Y10078277D01*
X24635761Y9874240D01*
X24780029Y9694807D01*
X24956400Y9546814D01*
X25158159Y9435896D01*
X25377619Y9366279D01*
X25606421Y9340615D01*
X25622892Y9340500D01*
X25634308Y9340500D01*
X25863446Y9362967D01*
X26083857Y9429513D01*
X26287144Y9537603D01*
X26465565Y9683119D01*
X26612324Y9860520D01*
X26721830Y10063048D01*
X26789913Y10282988D01*
X26813979Y10511964D01*
X26793112Y10741254D01*
X26728107Y10962123D01*
X26621439Y11166160D01*
X26477171Y11345593D01*
X26300800Y11493586D01*
X26099041Y11604504D01*
X25879581Y11674121D01*
X25650779Y11699785D01*
X25634308Y11699900D01*
X25622892Y11699900D01*
X25393754Y11677433D01*
X25181363Y11613308D01*
X24739100Y12055572D01*
X24739100Y12285712D01*
X24780029Y12234807D01*
X24956400Y12086814D01*
X25158159Y11975896D01*
X25377619Y11906279D01*
X25606421Y11880615D01*
X25622892Y11880500D01*
X25634308Y11880500D01*
X25863446Y11902967D01*
X26083857Y11969513D01*
X26287144Y12077603D01*
X26465565Y12223119D01*
X26612324Y12400520D01*
X26721830Y12603048D01*
X26789913Y12822988D01*
X26813979Y13051964D01*
X26793112Y13281254D01*
X26728107Y13502123D01*
X26621439Y13706160D01*
X26477171Y13885593D01*
X26300800Y14033586D01*
X26099041Y14144504D01*
X25879581Y14214121D01*
X25650779Y14239785D01*
X25634308Y14239900D01*
X25622892Y14239900D01*
X25393754Y14217433D01*
X25181363Y14153308D01*
X25145510Y14189162D01*
X25145510Y20726390D01*
X25141391Y20768393D01*
X25137716Y20810401D01*
X25137046Y20812705D01*
X25136812Y20815097D01*
X25124612Y20855506D01*
X25112849Y20895994D01*
X25111744Y20898125D01*
X25111050Y20900425D01*
X25091249Y20937664D01*
X25071831Y20975127D01*
X25070331Y20977005D01*
X25069205Y20979124D01*
X25042553Y21011803D01*
X25016223Y21044785D01*
X25012923Y21048132D01*
X25012871Y21048196D01*
X25012812Y21048245D01*
X25011746Y21049326D01*
X21303828Y24757244D01*
X21302985Y24761501D01*
X22424201Y24761501D01*
X22466204Y24765620D01*
X22508212Y24769295D01*
X22510516Y24769965D01*
X22512908Y24770199D01*
X22553317Y24782399D01*
X22593805Y24794162D01*
X22595936Y24795267D01*
X22598236Y24795961D01*
X22635475Y24815762D01*
X22672938Y24835180D01*
X22674816Y24836680D01*
X22676935Y24837806D01*
X22709614Y24864458D01*
X22742596Y24890788D01*
X22745943Y24894088D01*
X22746007Y24894140D01*
X22746056Y24894199D01*
X22747137Y24895265D01*
X24081316Y26229445D01*
X25532941Y26229445D01*
X25558773Y26088694D01*
X25611452Y25955642D01*
X25688972Y25835355D01*
X25788378Y25732417D01*
X25905886Y25650746D01*
X26037019Y25593456D01*
X26176783Y25562727D01*
X26319853Y25559730D01*
X26460780Y25584579D01*
X26594197Y25636328D01*
X26715022Y25713006D01*
X26818652Y25811692D01*
X26901141Y25928627D01*
X26959345Y26059356D01*
X26991049Y26198902D01*
X26993332Y26362351D01*
X26965536Y26502727D01*
X26911005Y26635031D01*
X26831813Y26754223D01*
X26730979Y26855764D01*
X26612342Y26935786D01*
X26480422Y26991240D01*
X26340244Y27020014D01*
X26197145Y27021013D01*
X26056578Y26994199D01*
X25923897Y26940592D01*
X25804155Y26862235D01*
X25701912Y26762112D01*
X25621065Y26644037D01*
X25564691Y26512507D01*
X25534939Y26372532D01*
X25532941Y26229445D01*
X24081316Y26229445D01*
X24135435Y26283564D01*
X24162202Y26316151D01*
X24189329Y26348480D01*
X24190486Y26350585D01*
X24192010Y26352440D01*
X24211948Y26389623D01*
X24232269Y26426587D01*
X24232995Y26428875D01*
X24234130Y26430992D01*
X24246469Y26471352D01*
X24259220Y26511547D01*
X24259488Y26513932D01*
X24260190Y26516230D01*
X24264456Y26558224D01*
X24269155Y26600123D01*
X24269188Y26604818D01*
X24269197Y26604905D01*
X24269189Y26604986D01*
X24269200Y26606500D01*
X24269200Y27929445D01*
X25532941Y27929445D01*
X25558773Y27788694D01*
X25611452Y27655642D01*
X25688972Y27535355D01*
X25788378Y27432417D01*
X25905886Y27350746D01*
X26037019Y27293456D01*
X26176783Y27262727D01*
X26319853Y27259730D01*
X26460780Y27284579D01*
X26594197Y27336328D01*
X26715022Y27413006D01*
X26818652Y27511692D01*
X26901141Y27628627D01*
X26959345Y27759356D01*
X26991049Y27898902D01*
X26993332Y28062351D01*
X26965536Y28202727D01*
X26911005Y28335031D01*
X26831813Y28454223D01*
X26730979Y28555764D01*
X26612342Y28635786D01*
X26480422Y28691240D01*
X26340244Y28720014D01*
X26197145Y28721013D01*
X26056578Y28694199D01*
X25923897Y28640592D01*
X25804155Y28562235D01*
X25701912Y28462112D01*
X25621065Y28344037D01*
X25564691Y28212507D01*
X25534939Y28072532D01*
X25532941Y27929445D01*
X24269200Y27929445D01*
X24269200Y42557720D01*
X24265081Y42599727D01*
X24261406Y42641730D01*
X24260737Y42644034D01*
X24260502Y42646427D01*
X24248298Y42686848D01*
X24236539Y42727324D01*
X24235434Y42729455D01*
X24234740Y42731755D01*
X24214939Y42768994D01*
X24195521Y42806457D01*
X24194022Y42808335D01*
X24192895Y42810454D01*
X24166223Y42843157D01*
X24139913Y42876114D01*
X24136618Y42879456D01*
X24136561Y42879526D01*
X24136496Y42879579D01*
X24135436Y42880655D01*
X14375920Y52640172D01*
X14375920Y61094592D01*
X19135943Y61094592D01*
X19189389Y60803389D01*
X19298379Y60528112D01*
X19458761Y60279248D01*
X19664427Y60066275D01*
X19907542Y59897305D01*
X20178848Y59778775D01*
X20468009Y59715198D01*
X20764011Y59708998D01*
X21055581Y59760410D01*
X21331611Y59867475D01*
X21581590Y60026116D01*
X21795993Y60230290D01*
X21966656Y60472220D01*
X22087078Y60742691D01*
X22152671Y61031401D01*
X22157393Y61369566D01*
X22099886Y61659995D01*
X21987064Y61933723D01*
X21823223Y62180324D01*
X21614603Y62390404D01*
X21369152Y62555963D01*
X21096219Y62670694D01*
X20806198Y62730227D01*
X20510138Y62732294D01*
X20219315Y62676816D01*
X19944806Y62565907D01*
X19697067Y62403792D01*
X19485535Y62196644D01*
X19318266Y61952355D01*
X19201633Y61680229D01*
X19140077Y61390631D01*
X19135943Y61094592D01*
X14375920Y61094592D01*
X14375920Y61308134D01*
X15482736Y62414951D01*
X15509503Y62447538D01*
X15536630Y62479867D01*
X15537787Y62481972D01*
X15539311Y62483827D01*
X15559249Y62521010D01*
X15579570Y62557974D01*
X15580296Y62560262D01*
X15581431Y62562379D01*
X15593757Y62602698D01*
X15606521Y62642934D01*
X15606789Y62645324D01*
X15607490Y62647617D01*
X15611751Y62689562D01*
X15616456Y62731510D01*
X15616489Y62736205D01*
X15616498Y62736292D01*
X15616490Y62736373D01*
X15616501Y62737887D01*
X15616501Y63326199D01*
X15612382Y63368202D01*
X15608707Y63410210D01*
X15608037Y63412514D01*
X15607803Y63414906D01*
X15595603Y63455315D01*
X15583840Y63495803D01*
X15582735Y63497934D01*
X15582041Y63500234D01*
X15562240Y63537473D01*
X15542822Y63574936D01*
X15541322Y63576814D01*
X15540196Y63578933D01*
X15513544Y63611612D01*
X15487214Y63644594D01*
X15483914Y63647941D01*
X15483862Y63648005D01*
X15483803Y63648054D01*
X15482737Y63649135D01*
X13969510Y65162362D01*
X13969510Y69684952D01*
X14776575Y69684952D01*
X14813028Y69486335D01*
X14887365Y69298581D01*
X14996754Y69128842D01*
X15137030Y68983582D01*
X15302848Y68868335D01*
X15487894Y68787491D01*
X15655050Y68750739D01*
X15515494Y68724117D01*
X15328264Y68648471D01*
X15159292Y68537899D01*
X15015016Y68396613D01*
X14900929Y68229994D01*
X14821379Y68044389D01*
X14779394Y67846867D01*
X14776575Y67644952D01*
X14813028Y67446335D01*
X14887365Y67258581D01*
X14996754Y67088842D01*
X15137030Y66943582D01*
X15302848Y66828335D01*
X15487894Y66747491D01*
X15655050Y66710739D01*
X15515494Y66684117D01*
X15328264Y66608471D01*
X15159292Y66497899D01*
X15015016Y66356613D01*
X14900929Y66189994D01*
X14821379Y66004389D01*
X14779394Y65806867D01*
X14776575Y65604952D01*
X14813028Y65406335D01*
X14887365Y65218581D01*
X14996754Y65048842D01*
X15137030Y64903582D01*
X15302848Y64788335D01*
X15487894Y64707491D01*
X15685118Y64664128D01*
X15887008Y64659899D01*
X16085874Y64694965D01*
X16274143Y64767990D01*
X16444642Y64876191D01*
X16590877Y65015449D01*
X16707279Y65180459D01*
X16789413Y65364936D01*
X16834151Y65561852D01*
X16837372Y65792499D01*
X16798149Y65990588D01*
X16721198Y66177286D01*
X16609449Y66345481D01*
X16467159Y66488768D01*
X16299748Y66601689D01*
X16113592Y66679941D01*
X15956592Y66712169D01*
X16085874Y66734965D01*
X16274143Y66807990D01*
X16444642Y66916191D01*
X16590877Y67055449D01*
X16707279Y67220459D01*
X16789413Y67404936D01*
X16834151Y67601852D01*
X16837372Y67832499D01*
X16798149Y68030588D01*
X16721198Y68217286D01*
X16609449Y68385481D01*
X16467159Y68528768D01*
X16299748Y68641689D01*
X16244407Y68664952D01*
X17316575Y68664952D01*
X17353028Y68466335D01*
X17427365Y68278581D01*
X17536754Y68108842D01*
X17677030Y67963582D01*
X17842848Y67848335D01*
X18027894Y67767491D01*
X18195050Y67730739D01*
X18055494Y67704117D01*
X17868264Y67628471D01*
X17699292Y67517899D01*
X17555016Y67376613D01*
X17440929Y67209994D01*
X17361379Y67024389D01*
X17319394Y66826867D01*
X17316575Y66624952D01*
X17353028Y66426335D01*
X17427365Y66238581D01*
X17536754Y66068842D01*
X17677030Y65923582D01*
X17842848Y65808335D01*
X18027894Y65727491D01*
X18195050Y65690739D01*
X18055494Y65664117D01*
X17868264Y65588471D01*
X17699292Y65477899D01*
X17555016Y65336613D01*
X17440929Y65169994D01*
X17361379Y64984389D01*
X17319394Y64786867D01*
X17316575Y64584952D01*
X17353028Y64386335D01*
X17427365Y64198581D01*
X17536754Y64028842D01*
X17677030Y63883582D01*
X17842848Y63768335D01*
X18027894Y63687491D01*
X18225118Y63644128D01*
X18427008Y63639899D01*
X18625874Y63674965D01*
X18814143Y63747990D01*
X18984642Y63856191D01*
X19130877Y63995449D01*
X19247279Y64160459D01*
X19329413Y64344936D01*
X19374151Y64541852D01*
X19377372Y64772499D01*
X19338149Y64970588D01*
X19261198Y65157286D01*
X19149449Y65325481D01*
X19007159Y65468768D01*
X18839748Y65581689D01*
X18653592Y65659941D01*
X18496592Y65692169D01*
X18625874Y65714965D01*
X18814143Y65787990D01*
X18984642Y65896191D01*
X19130877Y66035449D01*
X19247279Y66200459D01*
X19329413Y66384936D01*
X19374151Y66581852D01*
X19377372Y66812499D01*
X19338149Y67010588D01*
X19261198Y67197286D01*
X19149449Y67365481D01*
X19007159Y67508768D01*
X18839748Y67621689D01*
X18653592Y67699941D01*
X18496592Y67732169D01*
X18625874Y67754965D01*
X18814143Y67827990D01*
X18984642Y67936191D01*
X19130877Y68075449D01*
X19247279Y68240459D01*
X19329413Y68424936D01*
X19374151Y68621852D01*
X19377372Y68852499D01*
X19338149Y69050588D01*
X19261198Y69237286D01*
X19149449Y69405481D01*
X19007159Y69548768D01*
X18839748Y69661689D01*
X18653592Y69739941D01*
X18455782Y69780546D01*
X18253852Y69781956D01*
X18055494Y69744117D01*
X17868264Y69668471D01*
X17699292Y69557899D01*
X17555016Y69416613D01*
X17440929Y69249994D01*
X17361379Y69064389D01*
X17319394Y68866867D01*
X17316575Y68664952D01*
X16244407Y68664952D01*
X16113592Y68719941D01*
X15956592Y68752169D01*
X16085874Y68774965D01*
X16274143Y68847990D01*
X16444642Y68956191D01*
X16590877Y69095449D01*
X16707279Y69260459D01*
X16789413Y69444936D01*
X16834151Y69641852D01*
X16837372Y69872499D01*
X16798149Y70070588D01*
X16721198Y70257286D01*
X16609449Y70425481D01*
X16467159Y70568768D01*
X16299748Y70681689D01*
X16113592Y70759941D01*
X15915782Y70800546D01*
X15713852Y70801956D01*
X15515494Y70764117D01*
X15328264Y70688471D01*
X15159292Y70577899D01*
X15015016Y70436613D01*
X14900929Y70269994D01*
X14821379Y70084389D01*
X14779394Y69886867D01*
X14776575Y69684952D01*
X13969510Y69684952D01*
X13969510Y73094592D01*
X19135943Y73094592D01*
X19189389Y72803389D01*
X19298379Y72528112D01*
X19458761Y72279248D01*
X19664427Y72066275D01*
X19907542Y71897305D01*
X20178848Y71778775D01*
X20468009Y71715198D01*
X20764011Y71708998D01*
X21055581Y71760410D01*
X21331611Y71867475D01*
X21581590Y72026116D01*
X21795993Y72230290D01*
X21966656Y72472220D01*
X22087078Y72742691D01*
X22152671Y73031401D01*
X22157393Y73369566D01*
X22099886Y73659995D01*
X21987064Y73933723D01*
X21823223Y74180324D01*
X21614603Y74390404D01*
X21369152Y74555963D01*
X21096219Y74670694D01*
X20806198Y74730227D01*
X20510138Y74732294D01*
X20219315Y74676816D01*
X19944806Y74565907D01*
X19697067Y74403792D01*
X19485535Y74196644D01*
X19318266Y73952355D01*
X19201633Y73680229D01*
X19140077Y73390631D01*
X19135943Y73094592D01*
X13969510Y73094592D01*
X13969510Y76594592D01*
X19149943Y76594592D01*
X19203389Y76303389D01*
X19312379Y76028112D01*
X19472761Y75779248D01*
X19678427Y75566275D01*
X19921542Y75397305D01*
X20192848Y75278775D01*
X20482009Y75215198D01*
X20778011Y75208998D01*
X21069581Y75260410D01*
X21345611Y75367475D01*
X21595590Y75526116D01*
X21809993Y75730290D01*
X21980656Y75972220D01*
X22101078Y76242691D01*
X22166671Y76531401D01*
X22171393Y76869566D01*
X22113886Y77159995D01*
X22001064Y77433723D01*
X21837223Y77680324D01*
X21628603Y77890404D01*
X21383152Y78055963D01*
X21110219Y78170694D01*
X20820198Y78230227D01*
X20524138Y78232294D01*
X20233315Y78176816D01*
X19958806Y78065907D01*
X19711067Y77903792D01*
X19499535Y77696644D01*
X19332266Y77452355D01*
X19215633Y77180229D01*
X19154077Y76890631D01*
X19149943Y76594592D01*
X13969510Y76594592D01*
X13969510Y78552732D01*
X14025047Y78562525D01*
X14131038Y78603636D01*
X14227026Y78664552D01*
X14309353Y78742951D01*
X14374885Y78835848D01*
X14421125Y78939705D01*
X14446312Y79050565D01*
X14448125Y79180415D01*
X14426043Y79291934D01*
X14382721Y79397042D01*
X14319809Y79491732D01*
X14239703Y79572400D01*
X14145453Y79635972D01*
X14040651Y79680026D01*
X13929288Y79702886D01*
X13815606Y79703680D01*
X13703935Y79682377D01*
X13598528Y79639790D01*
X13563100Y79616607D01*
X13563100Y85184952D01*
X14790575Y85184952D01*
X14827028Y84986335D01*
X14901365Y84798581D01*
X15010754Y84628842D01*
X15151030Y84483582D01*
X15316848Y84368335D01*
X15501894Y84287491D01*
X15669050Y84250739D01*
X15529494Y84224117D01*
X15342264Y84148471D01*
X15173292Y84037899D01*
X15029016Y83896613D01*
X14914929Y83729994D01*
X14835379Y83544389D01*
X14793394Y83346867D01*
X14790575Y83144952D01*
X14827028Y82946335D01*
X14901365Y82758581D01*
X15010754Y82588842D01*
X15151030Y82443582D01*
X15316848Y82328335D01*
X15501894Y82247491D01*
X15669050Y82210739D01*
X15529494Y82184117D01*
X15342264Y82108471D01*
X15173292Y81997899D01*
X15029016Y81856613D01*
X14914929Y81689994D01*
X14835379Y81504389D01*
X14793394Y81306867D01*
X14790575Y81104952D01*
X14827028Y80906335D01*
X14901365Y80718581D01*
X15010754Y80548842D01*
X15151030Y80403582D01*
X15316848Y80288335D01*
X15501894Y80207491D01*
X15699118Y80164128D01*
X15901008Y80159899D01*
X16099874Y80194965D01*
X16288143Y80267990D01*
X16458642Y80376191D01*
X16604877Y80515449D01*
X16721279Y80680459D01*
X16803413Y80864936D01*
X16848151Y81061852D01*
X16851372Y81292499D01*
X16812149Y81490588D01*
X16735198Y81677286D01*
X16623449Y81845481D01*
X16481159Y81988768D01*
X16313748Y82101689D01*
X16127592Y82179941D01*
X15970592Y82212169D01*
X16099874Y82234965D01*
X16288143Y82307990D01*
X16458642Y82416191D01*
X16604877Y82555449D01*
X16721279Y82720459D01*
X16803413Y82904936D01*
X16848151Y83101852D01*
X16851372Y83332499D01*
X16812149Y83530588D01*
X16735198Y83717286D01*
X16623449Y83885481D01*
X16481159Y84028768D01*
X16313748Y84141689D01*
X16258407Y84164952D01*
X17330575Y84164952D01*
X17367028Y83966335D01*
X17441365Y83778581D01*
X17550754Y83608842D01*
X17691030Y83463582D01*
X17856848Y83348335D01*
X18041894Y83267491D01*
X18209050Y83230739D01*
X18069494Y83204117D01*
X17882264Y83128471D01*
X17713292Y83017899D01*
X17569016Y82876613D01*
X17454929Y82709994D01*
X17375379Y82524389D01*
X17333394Y82326867D01*
X17330575Y82124952D01*
X17367028Y81926335D01*
X17441365Y81738581D01*
X17550754Y81568842D01*
X17691030Y81423582D01*
X17856848Y81308335D01*
X18041894Y81227491D01*
X18209050Y81190739D01*
X18069494Y81164117D01*
X17882264Y81088471D01*
X17713292Y80977899D01*
X17569016Y80836613D01*
X17454929Y80669994D01*
X17375379Y80484389D01*
X17333394Y80286867D01*
X17330575Y80084952D01*
X17367028Y79886335D01*
X17441365Y79698581D01*
X17550754Y79528842D01*
X17691030Y79383582D01*
X17856848Y79268335D01*
X18041894Y79187491D01*
X18239118Y79144128D01*
X18441008Y79139899D01*
X18639874Y79174965D01*
X18828143Y79247990D01*
X18998642Y79356191D01*
X19144877Y79495449D01*
X19261279Y79660459D01*
X19343413Y79844936D01*
X19388151Y80041852D01*
X19391372Y80272499D01*
X19352149Y80470588D01*
X19275198Y80657286D01*
X19163449Y80825481D01*
X19021159Y80968768D01*
X18853748Y81081689D01*
X18667592Y81159941D01*
X18510592Y81192169D01*
X18639874Y81214965D01*
X18828143Y81287990D01*
X18998642Y81396191D01*
X19144877Y81535449D01*
X19261279Y81700459D01*
X19343413Y81884936D01*
X19388151Y82081852D01*
X19391372Y82312499D01*
X19352149Y82510588D01*
X19275198Y82697286D01*
X19163449Y82865481D01*
X19021159Y83008768D01*
X18853748Y83121689D01*
X18667592Y83199941D01*
X18510592Y83232169D01*
X18639874Y83254965D01*
X18828143Y83327990D01*
X18998642Y83436191D01*
X19144877Y83575449D01*
X19261279Y83740459D01*
X19343413Y83924936D01*
X19388151Y84121852D01*
X19391372Y84352499D01*
X19352149Y84550588D01*
X19275198Y84737286D01*
X19163449Y84905481D01*
X19021159Y85048768D01*
X18853748Y85161689D01*
X18667592Y85239941D01*
X18469782Y85280546D01*
X18267852Y85281956D01*
X18069494Y85244117D01*
X17882264Y85168471D01*
X17713292Y85057899D01*
X17569016Y84916613D01*
X17454929Y84749994D01*
X17375379Y84564389D01*
X17333394Y84366867D01*
X17330575Y84164952D01*
X16258407Y84164952D01*
X16127592Y84219941D01*
X15970592Y84252169D01*
X16099874Y84274965D01*
X16288143Y84347990D01*
X16458642Y84456191D01*
X16604877Y84595449D01*
X16721279Y84760459D01*
X16803413Y84944936D01*
X16848151Y85141852D01*
X16851372Y85372499D01*
X16812149Y85570588D01*
X16735198Y85757286D01*
X16623449Y85925481D01*
X16481159Y86068768D01*
X16313748Y86181689D01*
X16127592Y86259941D01*
X15929782Y86300546D01*
X15727852Y86301956D01*
X15529494Y86264117D01*
X15342264Y86188471D01*
X15173292Y86077899D01*
X15029016Y85936613D01*
X14914929Y85769994D01*
X14835379Y85584389D01*
X14793394Y85386867D01*
X14790575Y85184952D01*
X13563100Y85184952D01*
X13563100Y86156800D01*
X13558981Y86198807D01*
X13555306Y86240810D01*
X13554637Y86243114D01*
X13554402Y86245507D01*
X13542198Y86285928D01*
X13530439Y86326404D01*
X13529334Y86328535D01*
X13528640Y86330835D01*
X13508839Y86368074D01*
X13489421Y86405537D01*
X13487922Y86407415D01*
X13486795Y86409534D01*
X13460123Y86442237D01*
X13433813Y86475194D01*
X13430518Y86478536D01*
X13430461Y86478606D01*
X13430396Y86478659D01*
X13429336Y86479735D01*
X12391937Y87517135D01*
X12359294Y87543948D01*
X12327021Y87571028D01*
X12324920Y87572183D01*
X12323061Y87573710D01*
X12285858Y87593658D01*
X12248914Y87613968D01*
X12246624Y87614694D01*
X12244508Y87615829D01*
X12204163Y87628164D01*
X12163954Y87640919D01*
X12161569Y87641187D01*
X12159271Y87641889D01*
X12117277Y87646155D01*
X12075378Y87650854D01*
X12070683Y87650887D01*
X12070596Y87650896D01*
X12070515Y87650888D01*
X12069001Y87650899D01*
X8098599Y87650899D01*
X8056596Y87646780D01*
X8014588Y87643105D01*
X8012284Y87642435D01*
X8009892Y87642201D01*
X7969483Y87630001D01*
X7928995Y87618238D01*
X7926864Y87617133D01*
X7924564Y87616439D01*
X7887325Y87596638D01*
X7849862Y87577220D01*
X7847984Y87575720D01*
X7845865Y87574594D01*
X7813186Y87547942D01*
X7780204Y87521612D01*
X7779851Y87521264D01*
X7684135Y87503005D01*
X7578728Y87460418D01*
X7483600Y87398168D01*
X7402375Y87318627D01*
X7338147Y87224824D01*
X7293362Y87120332D01*
X7269725Y87009131D01*
X7268138Y86895457D01*
X7288660Y86783640D01*
X7330511Y86677938D01*
X7392095Y86582378D01*
X7471067Y86500600D01*
X7564419Y86435719D01*
X7668596Y86390205D01*
X7779629Y86365793D01*
X7893289Y86363412D01*
X8005247Y86383153D01*
X8111238Y86424264D01*
X8207226Y86485180D01*
X8289553Y86563579D01*
X8355085Y86656476D01*
X8391159Y86737499D01*
X11879829Y86737499D01*
X12649700Y85967629D01*
X12649700Y40472571D01*
X8584700Y44537572D01*
X8584700Y51473100D01*
X8580581Y51515103D01*
X8576906Y51557111D01*
X8576236Y51559415D01*
X8576002Y51561807D01*
X8563802Y51602216D01*
X8552039Y51642704D01*
X8550934Y51644835D01*
X8550240Y51647135D01*
X8530439Y51684374D01*
X8511021Y51721837D01*
X8509521Y51723715D01*
X8508395Y51725834D01*
X8481743Y51758513D01*
X8455413Y51791495D01*
X8452113Y51794842D01*
X8452061Y51794906D01*
X8452002Y51794955D01*
X8450936Y51796036D01*
X7587828Y52659144D01*
X7568043Y52759062D01*
X7524721Y52864170D01*
X7461809Y52958860D01*
X7381703Y53039528D01*
X7287453Y53103100D01*
X7182651Y53147154D01*
X7071288Y53170014D01*
X6957606Y53170808D01*
X6845935Y53149505D01*
X6740528Y53106918D01*
X6645400Y53044668D01*
X6564175Y52965127D01*
X6499947Y52871324D01*
X6455162Y52766832D01*
X6431525Y52655631D01*
X6429938Y52541957D01*
X6450460Y52430140D01*
X6492311Y52324438D01*
X6553895Y52228878D01*
X6632867Y52147100D01*
X6726219Y52082219D01*
X6830396Y52036705D01*
X6941429Y52012293D01*
X6942967Y52012261D01*
X7671300Y51283928D01*
X7671300Y48435472D01*
X7562428Y48544344D01*
X7542643Y48644262D01*
X7499321Y48749370D01*
X7436409Y48844060D01*
X7356303Y48924728D01*
X7262053Y48988300D01*
X7157251Y49032354D01*
X7045888Y49055214D01*
X6932206Y49056008D01*
X6820535Y49034705D01*
X6715128Y48992118D01*
X6620000Y48929868D01*
X6538775Y48850327D01*
X6474547Y48756524D01*
X6429762Y48652032D01*
X6406125Y48540831D01*
X6404538Y48427157D01*
X6425060Y48315340D01*
X6466911Y48209638D01*
X6528495Y48114078D01*
X6607467Y48032300D01*
X6700819Y47967419D01*
X6804996Y47921905D01*
X6916029Y47897493D01*
X6917567Y47897461D01*
X7252200Y47562828D01*
X7252200Y44812119D01*
X7182651Y44841354D01*
X7071288Y44864214D01*
X6957606Y44865008D01*
X6845935Y44843705D01*
X6740528Y44801118D01*
X6645400Y44738868D01*
X6564175Y44659327D01*
X6499947Y44565524D01*
X6455162Y44461032D01*
X6431525Y44349831D01*
X6429938Y44236157D01*
X6450460Y44124340D01*
X6492311Y44018638D01*
X6553895Y43923078D01*
X6632867Y43841300D01*
X6726219Y43776419D01*
X6830396Y43730905D01*
X6941429Y43706493D01*
X6942967Y43706461D01*
X8665645Y41983783D01*
X8605051Y42009254D01*
X8493688Y42032114D01*
X8380006Y42032908D01*
X8268335Y42011605D01*
X8162928Y41969018D01*
X8067800Y41906768D01*
X7986575Y41827227D01*
X7922347Y41733424D01*
X7877562Y41628932D01*
X7854482Y41520354D01*
X4392945Y38058817D01*
X4366132Y38026174D01*
X4339052Y37993901D01*
X4337897Y37991800D01*
X4336370Y37989941D01*
X4316422Y37952738D01*
X4296112Y37915794D01*
X4295386Y37913504D01*
X4294251Y37911388D01*
X4281916Y37871043D01*
X4269161Y37830834D01*
X4268893Y37828449D01*
X4268191Y37826151D01*
X4263925Y37784157D01*
X4259226Y37742258D01*
X4259193Y37737563D01*
X4259184Y37737476D01*
X4259192Y37737395D01*
X4259181Y37735881D01*
X4259181Y29858415D01*
X4236251Y29868054D01*
X4124888Y29890914D01*
X4011206Y29891708D01*
X3899535Y29870405D01*
X3794128Y29827818D01*
X3699000Y29765568D01*
X3617775Y29686027D01*
X3553547Y29592224D01*
X3511990Y29495264D01*
X2730926Y28714200D01*
X393200Y28714200D01*
X393200Y38710026D01*
X2421220Y40738046D01*
X2497838Y40767764D01*
X2593826Y40828680D01*
X2676153Y40907079D01*
X2741685Y40999976D01*
X2787925Y41103833D01*
X2813112Y41214693D01*
X2814925Y41344543D01*
X2792843Y41456062D01*
X2749521Y41561170D01*
X2691900Y41647896D01*
X2691900Y45107702D01*
X2741685Y45178276D01*
X2787925Y45282133D01*
X2813112Y45392993D01*
X2814925Y45522843D01*
X2792843Y45634362D01*
X2749521Y45739470D01*
X2691900Y45826196D01*
X2691900Y49273302D01*
X2741685Y49343876D01*
X2787925Y49447733D01*
X2813112Y49558593D01*
X2814925Y49688443D01*
X2792843Y49799962D01*
X2749521Y49905070D01*
X2691900Y49991796D01*
X2691900Y70880028D01*
X3269850Y71457978D01*
X3357047Y71473353D01*
X3463038Y71514464D01*
X3559026Y71575380D01*
X3641353Y71653779D01*
X3706885Y71746676D01*
X3753125Y71850533D01*
X3778312Y71961393D01*
X3780125Y72091243D01*
X3758043Y72202762D01*
X3714721Y72307870D01*
X3657100Y72394596D01*
X3657100Y77512400D01*
X4714677Y78569978D01*
X4801875Y78585353D01*
X4907866Y78626464D01*
X5003854Y78687380D01*
X5086181Y78765779D01*
X5151713Y78858676D01*
X5197953Y78962533D01*
X5223140Y79073393D01*
X5224953Y79203243D01*
X5202871Y79314762D01*
X5159549Y79419870D01*
X5096637Y79514560D01*
X5016531Y79595228D01*
X4922281Y79658800D01*
X4817479Y79702854D01*
X4706116Y79725714D01*
X4592434Y79726508D01*
X4480763Y79705205D01*
X4375356Y79662618D01*
X4280228Y79600368D01*
X4199003Y79520827D01*
X4134775Y79427024D01*
X4089990Y79322532D01*
X4066910Y79213954D01*
X3657100Y78804143D01*
X3657100Y88594592D01*
X19149943Y88594592D01*
X19203389Y88303389D01*
X19312379Y88028112D01*
X19472761Y87779248D01*
X19678427Y87566275D01*
X19921542Y87397305D01*
X20192848Y87278775D01*
X20482009Y87215198D01*
X20778011Y87208998D01*
X21069581Y87260410D01*
X21345611Y87367475D01*
X21595590Y87526116D01*
X21809993Y87730290D01*
X21980656Y87972220D01*
X22101078Y88242691D01*
X22166671Y88531401D01*
X22171393Y88869566D01*
X22113886Y89159995D01*
X22001064Y89433723D01*
X21837223Y89680324D01*
X21628603Y89890404D01*
X21383152Y90055963D01*
X21110219Y90170694D01*
X20820198Y90230227D01*
X20524138Y90232294D01*
X20233315Y90176816D01*
X19958806Y90065907D01*
X19711067Y89903792D01*
X19499535Y89696644D01*
X19332266Y89452355D01*
X19215633Y89180229D01*
X19154077Y88890631D01*
X19149943Y88594592D01*
X3657100Y88594592D01*
X3657100Y89760902D01*
X3706885Y89831476D01*
X3753125Y89935333D01*
X3778312Y90046193D01*
X3780125Y90176043D01*
X3758043Y90287562D01*
X3714721Y90392670D01*
X3651809Y90487360D01*
X3571703Y90568028D01*
X3477453Y90631600D01*
X3372651Y90675654D01*
X3261288Y90698514D01*
X3147606Y90699308D01*
X3035935Y90678005D01*
X2930528Y90635418D01*
X2835400Y90573168D01*
X2754175Y90493627D01*
X2689947Y90399824D01*
X2645162Y90295332D01*
X2621525Y90184131D01*
X2619938Y90070457D01*
X2640460Y89958640D01*
X2682311Y89852938D01*
X2743700Y89757681D01*
X2743700Y72393529D01*
X2689947Y72315024D01*
X2645162Y72210532D01*
X2622083Y72101955D01*
X1912264Y71392136D01*
X1885451Y71359493D01*
X1858371Y71327220D01*
X1857216Y71325119D01*
X1855689Y71323260D01*
X1835741Y71286057D01*
X1815431Y71249113D01*
X1814705Y71246823D01*
X1813570Y71244707D01*
X1801235Y71204362D01*
X1788480Y71164153D01*
X1788212Y71161768D01*
X1787510Y71159470D01*
X1783244Y71117476D01*
X1778545Y71075577D01*
X1778512Y71070882D01*
X1778503Y71070795D01*
X1778511Y71070714D01*
X1778500Y71069200D01*
X1778500Y49990729D01*
X1724747Y49912224D01*
X1679962Y49807732D01*
X1656325Y49696531D01*
X1654738Y49582857D01*
X1675260Y49471040D01*
X1717111Y49365338D01*
X1778500Y49270081D01*
X1778500Y45825129D01*
X1724747Y45746624D01*
X1679962Y45642132D01*
X1656325Y45530931D01*
X1654738Y45417257D01*
X1675260Y45305440D01*
X1717111Y45199738D01*
X1778500Y45104481D01*
X1778500Y41646829D01*
X1724747Y41568324D01*
X1683190Y41471364D01*
X-494837Y39293337D01*
X-525326Y39256219D01*
X-556224Y39219396D01*
X-557542Y39216998D01*
X-559278Y39214885D01*
X-581978Y39172550D01*
X-605134Y39130429D01*
X-605961Y39127821D01*
X-607254Y39125410D01*
X-621308Y39079441D01*
X-635832Y39033656D01*
X-636137Y39030940D01*
X-636937Y39028322D01*
X-641797Y38980476D01*
X-647149Y38932763D01*
X-647187Y38927419D01*
X-647197Y38927316D01*
X-647188Y38927220D01*
X-647200Y38925500D01*
X-647200Y22609882D01*
X-682238Y22528132D01*
X-705875Y22416931D01*
X-707462Y22303257D01*
X-796822Y22303257D01*
X-801690Y91843787D01*
X-431580Y91843787D01*
X-380966Y91568014D01*
X-277752Y91307325D01*
X-125868Y91071648D01*
X68899Y90869960D01*
X299132Y90709944D01*
X556061Y90597695D01*
X829899Y90537488D01*
X1110216Y90531616D01*
X1386335Y90580303D01*
X1647739Y90681695D01*
X1884470Y90831930D01*
X2087513Y91025284D01*
X2249132Y91254394D01*
X2363172Y91510533D01*
X2425290Y91783944D01*
X2426125Y91843787D01*
X23857420Y91843787D01*
X23908034Y91568014D01*
X24011248Y91307325D01*
X24163132Y91071648D01*
X24357899Y90869960D01*
X24588132Y90709944D01*
X24845061Y90597695D01*
X25118899Y90537488D01*
X25399216Y90531616D01*
X25675335Y90580303D01*
X25936739Y90681695D01*
X26173470Y90831930D01*
X26376513Y91025284D01*
X26538132Y91254394D01*
X26652172Y91510533D01*
X26714290Y91783944D01*
X26718762Y92104189D01*
X26664302Y92379228D01*
X26557458Y92638451D01*
X26402299Y92871985D01*
X26204735Y93070933D01*
X25972290Y93227719D01*
X25713820Y93336370D01*
X25439167Y93392748D01*
X25158796Y93394705D01*
X24883383Y93342168D01*
X24623421Y93237136D01*
X24388810Y93083611D01*
X24188487Y92887440D01*
X24030082Y92656096D01*
X23919629Y92398390D01*
X23861335Y92124138D01*
X23857420Y91843787D01*
X2426125Y91843787D01*
X2429762Y92104189D01*
X2375302Y92379228D01*
X2268458Y92638451D01*
X2113299Y92871985D01*
X1915735Y93070933D01*
X1683290Y93227719D01*
X1424820Y93336370D01*
X1150167Y93392748D01*
X869796Y93394705D01*
X594383Y93342168D01*
X334421Y93237136D01*
X99810Y93083611D01*
X-100513Y92887440D01*
X-258918Y92656096D01*
X-369371Y92398390D01*
X-427665Y92124138D01*
X-431580Y91843787D01*
X-801690Y91843787D01*
X-801799Y93400211D01*
X-793091Y93489025D01*
X-773047Y93555415D01*
X-740485Y93616654D01*
X-696653Y93670398D01*
X-643213Y93714607D01*
X-582209Y93747592D01*
X-515955Y93768101D01*
X-428430Y93777300D01*
X26713703Y93777300D01*
X26802525Y93768591D01*
X26802525Y93768591D01*
G37*
X26802525Y93768591D02*
X26868915Y93748547D01*
X26930154Y93715985D01*
X26983898Y93672153D01*
X27028107Y93618713D01*
X27061092Y93557709D01*
X27081601Y93491455D01*
X27090801Y93403921D01*
X27098419Y-15417296D01*
X27089711Y-15506106D01*
X27069666Y-15572497D01*
X27037105Y-15633734D01*
X26993272Y-15687479D01*
X26939835Y-15731686D01*
X26878829Y-15764672D01*
X26812574Y-15785181D01*
X26725050Y-15794380D01*
X-443174Y-15794380D01*
X-522277Y-15782880D01*
X-587814Y-15759708D01*
X-647608Y-15724244D01*
X-699372Y-15677846D01*
X-741138Y-15622276D01*
X-771315Y-15559650D01*
X-789769Y-15488442D01*
X-794181Y-15431925D01*
X-794273Y-14106213D01*
X-431580Y-14106213D01*
X-380966Y-14381986D01*
X-277752Y-14642675D01*
X-125868Y-14878352D01*
X68899Y-15080040D01*
X299132Y-15240056D01*
X556061Y-15352305D01*
X829899Y-15412512D01*
X1110216Y-15418384D01*
X1386335Y-15369697D01*
X1647739Y-15268305D01*
X1884470Y-15118070D01*
X2087513Y-14924716D01*
X2249132Y-14695606D01*
X2363172Y-14439467D01*
X2425290Y-14166056D01*
X2429762Y-13845811D01*
X2375302Y-13570772D01*
X2268458Y-13311549D01*
X2113299Y-13078015D01*
X1915735Y-12879067D01*
X1683290Y-12722281D01*
X1424820Y-12613630D01*
X1150167Y-12557252D01*
X869796Y-12555295D01*
X594383Y-12607832D01*
X334421Y-12712864D01*
X99810Y-12866389D01*
X-100513Y-13062560D01*
X-258918Y-13293904D01*
X-369371Y-13551610D01*
X-427665Y-13825862D01*
X-431580Y-14106213D01*
X-794273Y-14106213D01*
X-794593Y-9522943D01*
X2061138Y-9522943D01*
X2081660Y-9634760D01*
X2123511Y-9740462D01*
X2185095Y-9836022D01*
X2264067Y-9917800D01*
X2357419Y-9982681D01*
X2458621Y-10026895D01*
X7988763Y-15557037D01*
X8025908Y-15587548D01*
X8062704Y-15618424D01*
X8065098Y-15619740D01*
X8067215Y-15621479D01*
X8109624Y-15644218D01*
X8151671Y-15667334D01*
X8154275Y-15668160D01*
X8156690Y-15669455D01*
X8202692Y-15683519D01*
X8248444Y-15698032D01*
X8251162Y-15698337D01*
X8253779Y-15699137D01*
X8301663Y-15704002D01*
X8349337Y-15709349D01*
X8354670Y-15709386D01*
X8354784Y-15709398D01*
X8354890Y-15709388D01*
X8356600Y-15709400D01*
X19699200Y-15709400D01*
X19747009Y-15704712D01*
X19794891Y-15700523D01*
X19797517Y-15699760D01*
X19800241Y-15699493D01*
X19846288Y-15685591D01*
X19892385Y-15672198D01*
X19894810Y-15670941D01*
X19897433Y-15670149D01*
X19939921Y-15647558D01*
X19982521Y-15625476D01*
X19984656Y-15623772D01*
X19987074Y-15622486D01*
X20024351Y-15592084D01*
X20061865Y-15562137D01*
X20065669Y-15558386D01*
X20065751Y-15558319D01*
X20065813Y-15558244D01*
X20067037Y-15557037D01*
X21348237Y-14275837D01*
X21378726Y-14238719D01*
X21409624Y-14201896D01*
X21410942Y-14199498D01*
X21412678Y-14197385D01*
X21435388Y-14155031D01*
X21458534Y-14112929D01*
X21459361Y-14110323D01*
X21460654Y-14107911D01*
X21461173Y-14106213D01*
X23857420Y-14106213D01*
X23908034Y-14381986D01*
X24011248Y-14642675D01*
X24163132Y-14878352D01*
X24357899Y-15080040D01*
X24588132Y-15240056D01*
X24845061Y-15352305D01*
X25118899Y-15412512D01*
X25399216Y-15418384D01*
X25675335Y-15369697D01*
X25936739Y-15268305D01*
X26173470Y-15118070D01*
X26376513Y-14924716D01*
X26538132Y-14695606D01*
X26652172Y-14439467D01*
X26714290Y-14166056D01*
X26718762Y-13845811D01*
X26664302Y-13570772D01*
X26557458Y-13311549D01*
X26402299Y-13078015D01*
X26204735Y-12879067D01*
X25972290Y-12722281D01*
X25713820Y-12613630D01*
X25439167Y-12557252D01*
X25158796Y-12555295D01*
X24883383Y-12607832D01*
X24623421Y-12712864D01*
X24388810Y-12866389D01*
X24188487Y-13062560D01*
X24030082Y-13293904D01*
X23919629Y-13551610D01*
X23861335Y-13825862D01*
X23857420Y-14106213D01*
X21461173Y-14106213D01*
X21474713Y-14061927D01*
X21489232Y-14016156D01*
X21489537Y-14013440D01*
X21490337Y-14010822D01*
X21495197Y-13962976D01*
X21500549Y-13915263D01*
X21500587Y-13909919D01*
X21500597Y-13909816D01*
X21500588Y-13909720D01*
X21500600Y-13908000D01*
X21500600Y-10921393D01*
X22526568Y-9895425D01*
X24398100Y-9895425D01*
X24398100Y-10687276D01*
X24412722Y-10760788D01*
X24441405Y-10830034D01*
X24483046Y-10892355D01*
X24536045Y-10945354D01*
X24598366Y-10986995D01*
X24667612Y-11015678D01*
X24741124Y-11030300D01*
X25532975Y-11030300D01*
X25628100Y-10935175D01*
X25628100Y-9800300D01*
X25629100Y-9800300D01*
X25629100Y-10935175D01*
X25724225Y-11030300D01*
X26516076Y-11030300D01*
X26589588Y-11015678D01*
X26658834Y-10986995D01*
X26721155Y-10945354D01*
X26774154Y-10892355D01*
X26815795Y-10830034D01*
X26844478Y-10760788D01*
X26859100Y-10687276D01*
X26859100Y-9895425D01*
X26763975Y-9800300D01*
X25629100Y-9800300D01*
X25628100Y-9800300D01*
X24493225Y-9800300D01*
X24398100Y-9895425D01*
X22526568Y-9895425D01*
X23509669Y-8912324D01*
X24398100Y-8912324D01*
X24398100Y-9704175D01*
X24493225Y-9799300D01*
X25628100Y-9799300D01*
X25628100Y-8664425D01*
X25629100Y-8664425D01*
X25629100Y-9799300D01*
X26763975Y-9799300D01*
X26859100Y-9704175D01*
X26859100Y-8912324D01*
X26844478Y-8838812D01*
X26815795Y-8769566D01*
X26774154Y-8707245D01*
X26721155Y-8654246D01*
X26658834Y-8612605D01*
X26589588Y-8583922D01*
X26516076Y-8569300D01*
X25724225Y-8569300D01*
X25629100Y-8664425D01*
X25628100Y-8664425D01*
X25532975Y-8569300D01*
X24741124Y-8569300D01*
X24667612Y-8583922D01*
X24598366Y-8612605D01*
X24536045Y-8654246D01*
X24483046Y-8707245D01*
X24441405Y-8769566D01*
X24412722Y-8838812D01*
X24398100Y-8912324D01*
X23509669Y-8912324D01*
X24594726Y-7827267D01*
X24635761Y-7905760D01*
X24780029Y-8085193D01*
X24956400Y-8233186D01*
X25158159Y-8344104D01*
X25377619Y-8413721D01*
X25606421Y-8439385D01*
X25622892Y-8439500D01*
X25634308Y-8439500D01*
X25863446Y-8417033D01*
X26083857Y-8350487D01*
X26287144Y-8242397D01*
X26465565Y-8096881D01*
X26612324Y-7919480D01*
X26721830Y-7716952D01*
X26789913Y-7497012D01*
X26813979Y-7268036D01*
X26793112Y-7038746D01*
X26728107Y-6817877D01*
X26621439Y-6613840D01*
X26477171Y-6434407D01*
X26300800Y-6286414D01*
X26099041Y-6175496D01*
X25879581Y-6105879D01*
X25650779Y-6080215D01*
X25634308Y-6080100D01*
X25622892Y-6080100D01*
X25393754Y-6102567D01*
X25173343Y-6169113D01*
X24970056Y-6277203D01*
X24791635Y-6422719D01*
X24644876Y-6600120D01*
X24569460Y-6739600D01*
X24426519Y-6739600D01*
X24378718Y-6744287D01*
X24330827Y-6748477D01*
X24328201Y-6749240D01*
X24325478Y-6749507D01*
X24279444Y-6763406D01*
X24233334Y-6776802D01*
X24230909Y-6778059D01*
X24228286Y-6778851D01*
X24185798Y-6801442D01*
X24143198Y-6823524D01*
X24141063Y-6825228D01*
X24138645Y-6826514D01*
X24101337Y-6856941D01*
X24063854Y-6886864D01*
X24060051Y-6890613D01*
X24059968Y-6890681D01*
X24059905Y-6890758D01*
X24058682Y-6891963D01*
X20612563Y-10338082D01*
X20582074Y-10375200D01*
X20551176Y-10412023D01*
X20549858Y-10414421D01*
X20548122Y-10416534D01*
X20525422Y-10458869D01*
X20502266Y-10500990D01*
X20501439Y-10503598D01*
X20500146Y-10506009D01*
X20486092Y-10551978D01*
X20471568Y-10597763D01*
X20471263Y-10600479D01*
X20470463Y-10603097D01*
X20465603Y-10650943D01*
X20460251Y-10698656D01*
X20460213Y-10704000D01*
X20460203Y-10704103D01*
X20460212Y-10704199D01*
X20460200Y-10705919D01*
X20460200Y-13692526D01*
X19483726Y-14669000D01*
X17320015Y-14669000D01*
X17435810Y-14595514D01*
X17603348Y-14435970D01*
X17736706Y-14246923D01*
X17830805Y-14035573D01*
X17882061Y-13809971D01*
X17885751Y-13545724D01*
X17840814Y-13318779D01*
X17752653Y-13104885D01*
X17624625Y-12912187D01*
X17461607Y-12748027D01*
X17269809Y-12618658D01*
X17056535Y-12529005D01*
X16829909Y-12482486D01*
X16598563Y-12480871D01*
X16371310Y-12524222D01*
X16156805Y-12610887D01*
X15963219Y-12737567D01*
X15797925Y-12899434D01*
X15667219Y-13090325D01*
X15576080Y-13302968D01*
X15527980Y-13529264D01*
X15524749Y-13760592D01*
X15566513Y-13988143D01*
X15651679Y-14203248D01*
X15777004Y-14397714D01*
X15937713Y-14564134D01*
X16088596Y-14669000D01*
X10070015Y-14669000D01*
X10185810Y-14595514D01*
X10353348Y-14435970D01*
X10486706Y-14246923D01*
X10580805Y-14035573D01*
X10632061Y-13809971D01*
X10635751Y-13545724D01*
X10590814Y-13318779D01*
X10502653Y-13104885D01*
X10374625Y-12912187D01*
X10211607Y-12748027D01*
X10019809Y-12618658D01*
X9806535Y-12529005D01*
X9579909Y-12482486D01*
X9348563Y-12480871D01*
X9121310Y-12524222D01*
X8906805Y-12610887D01*
X8713219Y-12737567D01*
X8547925Y-12899434D01*
X8417219Y-13090325D01*
X8326080Y-13302968D01*
X8277980Y-13529264D01*
X8274749Y-13760592D01*
X8316513Y-13988143D01*
X8401679Y-14203248D01*
X8527004Y-14397714D01*
X8687713Y-14564134D01*
X8838596Y-14669000D01*
X8572074Y-14669000D01*
X4992646Y-11089572D01*
X9725078Y-11089572D01*
X9757991Y-11268900D01*
X9825109Y-11438420D01*
X9923875Y-11591675D01*
X10050528Y-11722828D01*
X10200242Y-11826882D01*
X10367317Y-11899875D01*
X10545387Y-11939026D01*
X10727671Y-11942845D01*
X10907224Y-11911185D01*
X11077209Y-11845252D01*
X11231150Y-11747558D01*
X11363183Y-11621824D01*
X11468280Y-11472840D01*
X11542438Y-11306279D01*
X11582832Y-11128486D01*
X11583375Y-11089572D01*
X14575078Y-11089572D01*
X14607991Y-11268900D01*
X14675109Y-11438420D01*
X14773875Y-11591675D01*
X14900528Y-11722828D01*
X15050242Y-11826882D01*
X15217317Y-11899875D01*
X15395387Y-11939026D01*
X15577671Y-11942845D01*
X15757224Y-11911185D01*
X15927209Y-11845252D01*
X16081150Y-11747558D01*
X16213183Y-11621824D01*
X16318280Y-11472840D01*
X16392438Y-11306279D01*
X16432832Y-11128486D01*
X16435739Y-10920238D01*
X16400326Y-10741387D01*
X16330848Y-10572821D01*
X16229952Y-10420959D01*
X16101480Y-10291588D01*
X15950327Y-10189634D01*
X15782250Y-10118981D01*
X15603650Y-10082320D01*
X15421331Y-10081047D01*
X15242237Y-10115211D01*
X15073190Y-10183510D01*
X14920628Y-10283344D01*
X14790363Y-10410909D01*
X14687356Y-10561347D01*
X14615531Y-10728927D01*
X14577624Y-10907266D01*
X14575078Y-11089572D01*
X11583375Y-11089572D01*
X11585739Y-10920238D01*
X11550326Y-10741387D01*
X11480848Y-10572821D01*
X11379952Y-10420959D01*
X11251480Y-10291588D01*
X11100327Y-10189634D01*
X10932250Y-10118981D01*
X10753650Y-10082320D01*
X10571331Y-10081047D01*
X10392237Y-10115211D01*
X10223190Y-10183510D01*
X10070628Y-10283344D01*
X9940363Y-10410909D01*
X9837356Y-10561347D01*
X9765531Y-10728927D01*
X9727624Y-10907266D01*
X9725078Y-11089572D01*
X4992646Y-11089572D01*
X3192463Y-9289389D01*
X3155921Y-9200730D01*
X3093009Y-9106040D01*
X3012903Y-9025372D01*
X2918653Y-8961800D01*
X2813851Y-8917746D01*
X2702488Y-8894886D01*
X2588806Y-8894092D01*
X2477135Y-8915395D01*
X2371728Y-8957982D01*
X2276600Y-9020232D01*
X2195375Y-9099773D01*
X2131147Y-9193576D01*
X2086362Y-9298068D01*
X2062725Y-9409269D01*
X2061138Y-9522943D01*
X-794593Y-9522943D01*
X-796822Y22303257D01*
X-707462Y22303257D01*
X-686940Y22191440D01*
X-647200Y22091070D01*
X-647200Y12127000D01*
X-642512Y12079191D01*
X-638323Y12031309D01*
X-637560Y12028683D01*
X-637293Y12025959D01*
X-623391Y11979912D01*
X-609998Y11933815D01*
X-608741Y11931390D01*
X-607949Y11928767D01*
X-585358Y11886279D01*
X-563276Y11843679D01*
X-561572Y11841544D01*
X-560286Y11839126D01*
X-529884Y11801849D01*
X-499937Y11764335D01*
X-496186Y11760531D01*
X-496119Y11760449D01*
X-496044Y11760387D01*
X-494837Y11759163D01*
X1918163Y9346163D01*
X1955281Y9315674D01*
X1992104Y9284776D01*
X1994502Y9283458D01*
X1996615Y9281722D01*
X2038969Y9259012D01*
X2081071Y9235866D01*
X2083677Y9235039D01*
X2086089Y9233746D01*
X2132073Y9219687D01*
X2177844Y9205168D01*
X2180560Y9204863D01*
X2183178Y9204063D01*
X2231024Y9199203D01*
X2278737Y9193851D01*
X2284081Y9193813D01*
X2284184Y9193803D01*
X2284280Y9193812D01*
X2286000Y9193800D01*
X11680643Y9193800D01*
X11757996Y9160005D01*
X11869029Y9135593D01*
X11982689Y9133212D01*
X12094647Y9152953D01*
X12199957Y9193800D01*
X16379643Y9193800D01*
X16456996Y9160005D01*
X16568029Y9135593D01*
X16681689Y9133212D01*
X16793647Y9152953D01*
X16899638Y9194064D01*
X16995626Y9254980D01*
X17069290Y9325129D01*
X17069290Y6962000D01*
X17056735Y6959605D01*
X16951328Y6917018D01*
X16856200Y6854768D01*
X16774975Y6775227D01*
X16710747Y6681424D01*
X16665962Y6576932D01*
X16642325Y6465731D01*
X16640738Y6352057D01*
X16661260Y6240240D01*
X16703111Y6134538D01*
X16764695Y6038978D01*
X16770851Y6032604D01*
X16710747Y5944824D01*
X16665962Y5840332D01*
X16642325Y5729131D01*
X16640738Y5615457D01*
X16661260Y5503640D01*
X16703111Y5397938D01*
X16764695Y5302378D01*
X16843667Y5220600D01*
X16937019Y5155719D01*
X17041196Y5110205D01*
X17152229Y5085793D01*
X17265889Y5083412D01*
X17377847Y5103153D01*
X17483838Y5144264D01*
X17579826Y5205180D01*
X17583124Y5208321D01*
X17616756Y5211619D01*
X17658764Y5215294D01*
X17661068Y5215964D01*
X17663460Y5216198D01*
X17703869Y5228398D01*
X17744357Y5240161D01*
X17746488Y5241266D01*
X17748788Y5241960D01*
X17786027Y5261761D01*
X17823490Y5281179D01*
X17825368Y5282679D01*
X17827487Y5283805D01*
X17860166Y5310457D01*
X17893148Y5336787D01*
X17896495Y5340087D01*
X17896559Y5340139D01*
X17896608Y5340198D01*
X17897689Y5341264D01*
X18005101Y5448676D01*
X18005101Y1368658D01*
X15969261Y-667181D01*
X15957860Y-676480D01*
X15924905Y-702787D01*
X15921562Y-706083D01*
X15921494Y-706139D01*
X15921442Y-706202D01*
X15920364Y-707265D01*
X15398855Y-1228774D01*
X15411725Y-1199867D01*
X15436912Y-1089007D01*
X15436983Y-1083888D01*
X15943936Y-576935D01*
X15970729Y-544317D01*
X15997829Y-512020D01*
X15998984Y-509919D01*
X16000511Y-508060D01*
X16020459Y-470857D01*
X16040769Y-433913D01*
X16041495Y-431623D01*
X16042630Y-429507D01*
X16054965Y-389162D01*
X16067720Y-348953D01*
X16067988Y-346568D01*
X16068690Y-344270D01*
X16072955Y-302280D01*
X16077655Y-260377D01*
X16077688Y-255681D01*
X16077697Y-255594D01*
X16077689Y-255513D01*
X16077700Y-254000D01*
X16077700Y5991702D01*
X16127485Y6062276D01*
X16173725Y6166133D01*
X16198912Y6276993D01*
X16200725Y6406843D01*
X16178643Y6518362D01*
X16135321Y6623470D01*
X16072409Y6718160D01*
X15992303Y6798828D01*
X15898053Y6862400D01*
X15793251Y6906454D01*
X15681888Y6929314D01*
X15568206Y6930108D01*
X15456535Y6908805D01*
X15351128Y6866218D01*
X15256000Y6803968D01*
X15174775Y6724427D01*
X15110547Y6630624D01*
X15065762Y6526132D01*
X15042125Y6414931D01*
X15040538Y6301257D01*
X15061060Y6189440D01*
X15102911Y6083738D01*
X15164300Y5988481D01*
X15164300Y-64829D01*
X14790179Y-438949D01*
X14694535Y-457195D01*
X14589128Y-499782D01*
X14494000Y-562032D01*
X14412775Y-641573D01*
X14348547Y-735376D01*
X14303762Y-839868D01*
X14287372Y-916974D01*
X14273643Y-847638D01*
X14230321Y-742530D01*
X14167409Y-647840D01*
X14087303Y-567172D01*
X13993053Y-503600D01*
X13888251Y-459546D01*
X13784021Y-438150D01*
X12394700Y951172D01*
X12394700Y8023702D01*
X12444485Y8094276D01*
X12490725Y8198133D01*
X12515912Y8308993D01*
X12517725Y8438843D01*
X12495643Y8550362D01*
X12452321Y8655470D01*
X12389409Y8750160D01*
X12309303Y8830828D01*
X12215053Y8894400D01*
X12110251Y8938454D01*
X11998888Y8961314D01*
X11885206Y8962108D01*
X11773535Y8940805D01*
X11668128Y8898218D01*
X11573000Y8835968D01*
X11491775Y8756427D01*
X11427547Y8662624D01*
X11382762Y8558132D01*
X11359125Y8446931D01*
X11357538Y8333257D01*
X11378060Y8221440D01*
X11419911Y8115738D01*
X11481300Y8020481D01*
X11481300Y762000D01*
X11485419Y719997D01*
X11489094Y677989D01*
X11489764Y675685D01*
X11489998Y673293D01*
X11502198Y632884D01*
X11513961Y592396D01*
X11515066Y590265D01*
X11515760Y587965D01*
X11535561Y550726D01*
X11554979Y513263D01*
X11556479Y511385D01*
X11557605Y509266D01*
X11584257Y476587D01*
X11610587Y443605D01*
X11613887Y440258D01*
X11613939Y440194D01*
X11613998Y440145D01*
X11615064Y439064D01*
X13139284Y-1085155D01*
X13156060Y-1176560D01*
X13197911Y-1282262D01*
X13259495Y-1377822D01*
X13338467Y-1459600D01*
X13431819Y-1524481D01*
X13535996Y-1569995D01*
X13647029Y-1594407D01*
X13760689Y-1596788D01*
X13872647Y-1577047D01*
X13978638Y-1535936D01*
X14074626Y-1475020D01*
X14156953Y-1396621D01*
X14222485Y-1303724D01*
X14268725Y-1199867D01*
X14287871Y-1115596D01*
X14299060Y-1176560D01*
X14340911Y-1282262D01*
X14402495Y-1377822D01*
X14481467Y-1459600D01*
X14574819Y-1524481D01*
X14678996Y-1569995D01*
X14790029Y-1594407D01*
X14903689Y-1596788D01*
X15015647Y-1577047D01*
X15072718Y-1554911D01*
X13291579Y-3336049D01*
X13195935Y-3354295D01*
X13090528Y-3396882D01*
X12995400Y-3459132D01*
X12914175Y-3538673D01*
X12849947Y-3632476D01*
X12805162Y-3736968D01*
X12781525Y-3848169D01*
X12779938Y-3961843D01*
X12800460Y-4073660D01*
X12842311Y-4179362D01*
X12903895Y-4274922D01*
X12921321Y-4292967D01*
X12884792Y-4346317D01*
X12840007Y-4450809D01*
X12816370Y-4562010D01*
X12814783Y-4675684D01*
X12835305Y-4787501D01*
X12877156Y-4893203D01*
X12938740Y-4988763D01*
X13017712Y-5070541D01*
X13111064Y-5135422D01*
X13215241Y-5180936D01*
X13326274Y-5205348D01*
X13439934Y-5207729D01*
X13551892Y-5187988D01*
X13657883Y-5146877D01*
X13753871Y-5085961D01*
X13836198Y-5007562D01*
X13901730Y-4914665D01*
X13947970Y-4810808D01*
X13973157Y-4699948D01*
X13973228Y-4694830D01*
X14656300Y-4011758D01*
X14656300Y-8405371D01*
X14602547Y-8483876D01*
X14557762Y-8588368D01*
X14534125Y-8699569D01*
X14532538Y-8813243D01*
X14553060Y-8925060D01*
X14594911Y-9030762D01*
X14656495Y-9126322D01*
X14735467Y-9208100D01*
X14828819Y-9272981D01*
X14932996Y-9318495D01*
X15044029Y-9342907D01*
X15157689Y-9345288D01*
X15269647Y-9325547D01*
X15375638Y-9284436D01*
X15471626Y-9223520D01*
X15553953Y-9145121D01*
X15619485Y-9052224D01*
X15665725Y-8948367D01*
X15690912Y-8837507D01*
X15692725Y-8707657D01*
X15670643Y-8596138D01*
X15627321Y-8491030D01*
X15569700Y-8404304D01*
X15569700Y-4912786D01*
X24413328Y-4912786D01*
X24431982Y-5006568D01*
X24510920Y-5234506D01*
X24632810Y-5442665D01*
X24792968Y-5623044D01*
X24985239Y-5768712D01*
X25202234Y-5874071D01*
X25435614Y-5935072D01*
X25628100Y-5855175D01*
X25628100Y-4720300D01*
X25629100Y-4720300D01*
X25629100Y-5855175D01*
X25821586Y-5935072D01*
X26054966Y-5874071D01*
X26271961Y-5768712D01*
X26464232Y-5623044D01*
X26624390Y-5442665D01*
X26746280Y-5234506D01*
X26825218Y-5006568D01*
X26843872Y-4912786D01*
X26763975Y-4720300D01*
X25629100Y-4720300D01*
X25628100Y-4720300D01*
X24493225Y-4720300D01*
X24413328Y-4912786D01*
X15569700Y-4912786D01*
X15569700Y-4526814D01*
X24413328Y-4526814D01*
X24493225Y-4719300D01*
X25628100Y-4719300D01*
X25628100Y-3584425D01*
X25629100Y-3584425D01*
X25629100Y-4719300D01*
X26763975Y-4719300D01*
X26843872Y-4526814D01*
X26825218Y-4433032D01*
X26746280Y-4205094D01*
X26624390Y-3996935D01*
X26464232Y-3816556D01*
X26271961Y-3670888D01*
X26054966Y-3565529D01*
X25821586Y-3504528D01*
X25629100Y-3584425D01*
X25628100Y-3584425D01*
X25435614Y-3504528D01*
X25202234Y-3565529D01*
X24985239Y-3670888D01*
X24792968Y-3816556D01*
X24632810Y-3996935D01*
X24510920Y-4205094D01*
X24431982Y-4433032D01*
X24413328Y-4526814D01*
X15569700Y-4526814D01*
X15569700Y-3683172D01*
X17081307Y-2171564D01*
X24443221Y-2171564D01*
X24464088Y-2400854D01*
X24529093Y-2621723D01*
X24635761Y-2825760D01*
X24780029Y-3005193D01*
X24956400Y-3153186D01*
X25158159Y-3264104D01*
X25377619Y-3333721D01*
X25606421Y-3359385D01*
X25622892Y-3359500D01*
X25634308Y-3359500D01*
X25863446Y-3337033D01*
X26083857Y-3270487D01*
X26287144Y-3162397D01*
X26465565Y-3016881D01*
X26612324Y-2839480D01*
X26721830Y-2636952D01*
X26789913Y-2417012D01*
X26813979Y-2188036D01*
X26793112Y-1958746D01*
X26728107Y-1737877D01*
X26621439Y-1533840D01*
X26477171Y-1354407D01*
X26300800Y-1206414D01*
X26099041Y-1095496D01*
X25879581Y-1025879D01*
X25650779Y-1000215D01*
X25634308Y-1000100D01*
X25622892Y-1000100D01*
X25393754Y-1022567D01*
X25173343Y-1089113D01*
X24970056Y-1197203D01*
X24791635Y-1342719D01*
X24644876Y-1520120D01*
X24535370Y-1722648D01*
X24467287Y-1942588D01*
X24443221Y-2171564D01*
X17081307Y-2171564D01*
X19621307Y368436D01*
X24443221Y368436D01*
X24464088Y139146D01*
X24529093Y-81723D01*
X24635761Y-285760D01*
X24780029Y-465193D01*
X24956400Y-613186D01*
X25158159Y-724104D01*
X25377619Y-793721D01*
X25606421Y-819385D01*
X25622892Y-819500D01*
X25634308Y-819500D01*
X25863446Y-797033D01*
X26083857Y-730487D01*
X26287144Y-622397D01*
X26465565Y-476881D01*
X26612324Y-299480D01*
X26721830Y-96952D01*
X26789913Y122988D01*
X26813979Y351964D01*
X26793112Y581254D01*
X26728107Y802123D01*
X26621439Y1006160D01*
X26477171Y1185593D01*
X26300800Y1333586D01*
X26099041Y1444504D01*
X25879581Y1514121D01*
X25650779Y1539785D01*
X25634308Y1539900D01*
X25622892Y1539900D01*
X25393754Y1517433D01*
X25173343Y1450887D01*
X24970056Y1342797D01*
X24791635Y1197281D01*
X24644876Y1019880D01*
X24535370Y817352D01*
X24467287Y597412D01*
X24443221Y368436D01*
X19621307Y368436D01*
X19711844Y458973D01*
X19738611Y491560D01*
X19765738Y523889D01*
X19766895Y525994D01*
X19768419Y527849D01*
X19788357Y565032D01*
X19808678Y601996D01*
X19809404Y604284D01*
X19810539Y606401D01*
X19822865Y646720D01*
X19835629Y686956D01*
X19835897Y689346D01*
X19836598Y691639D01*
X19840859Y733584D01*
X19845564Y775532D01*
X19845597Y780227D01*
X19845606Y780314D01*
X19845598Y780400D01*
X19845609Y781909D01*
X19845609Y2908436D01*
X24443221Y2908436D01*
X24464088Y2679146D01*
X24529093Y2458277D01*
X24635761Y2254240D01*
X24780029Y2074807D01*
X24956400Y1926814D01*
X25158159Y1815896D01*
X25377619Y1746279D01*
X25606421Y1720615D01*
X25622892Y1720500D01*
X25634308Y1720500D01*
X25863446Y1742967D01*
X26083857Y1809513D01*
X26287144Y1917603D01*
X26465565Y2063119D01*
X26612324Y2240520D01*
X26721830Y2443048D01*
X26789913Y2662988D01*
X26813979Y2891964D01*
X26793112Y3121254D01*
X26728107Y3342123D01*
X26621439Y3546160D01*
X26477171Y3725593D01*
X26300800Y3873586D01*
X26099041Y3984504D01*
X25879581Y4054121D01*
X25650779Y4079785D01*
X25634308Y4079900D01*
X25622892Y4079900D01*
X25393754Y4057433D01*
X25173343Y3990887D01*
X24970056Y3882797D01*
X24791635Y3737281D01*
X24644876Y3559880D01*
X24535370Y3357352D01*
X24467287Y3137412D01*
X24443221Y2908436D01*
X19845609Y2908436D01*
X19845609Y5448436D01*
X24443221Y5448436D01*
X24464088Y5219146D01*
X24529093Y4998277D01*
X24635761Y4794240D01*
X24780029Y4614807D01*
X24956400Y4466814D01*
X25158159Y4355896D01*
X25377619Y4286279D01*
X25606421Y4260615D01*
X25622892Y4260500D01*
X25634308Y4260500D01*
X25863446Y4282967D01*
X26083857Y4349513D01*
X26287144Y4457603D01*
X26465565Y4603119D01*
X26612324Y4780520D01*
X26721830Y4983048D01*
X26789913Y5202988D01*
X26813979Y5431964D01*
X26793112Y5661254D01*
X26728107Y5882123D01*
X26621439Y6086160D01*
X26477171Y6265593D01*
X26300800Y6413586D01*
X26099041Y6524504D01*
X25879581Y6594121D01*
X25650779Y6619785D01*
X25634308Y6619900D01*
X25622892Y6619900D01*
X25393754Y6597433D01*
X25173343Y6530887D01*
X24970056Y6422797D01*
X24791635Y6277281D01*
X24644876Y6099880D01*
X24535370Y5897352D01*
X24467287Y5677412D01*
X24443221Y5448436D01*
X19845609Y5448436D01*
X19845609Y7988436D01*
X24443221Y7988436D01*
X24464088Y7759146D01*
X24529093Y7538277D01*
X24635761Y7334240D01*
X24780029Y7154807D01*
X24956400Y7006814D01*
X25158159Y6895896D01*
X25377619Y6826279D01*
X25606421Y6800615D01*
X25622892Y6800500D01*
X25634308Y6800500D01*
X25863446Y6822967D01*
X26083857Y6889513D01*
X26287144Y6997603D01*
X26465565Y7143119D01*
X26612324Y7320520D01*
X26721830Y7523048D01*
X26789913Y7742988D01*
X26813979Y7971964D01*
X26793112Y8201254D01*
X26728107Y8422123D01*
X26621439Y8626160D01*
X26477171Y8805593D01*
X26300800Y8953586D01*
X26099041Y9064504D01*
X25879581Y9134121D01*
X25650779Y9159785D01*
X25634308Y9159900D01*
X25622892Y9159900D01*
X25393754Y9137433D01*
X25173343Y9070887D01*
X24970056Y8962797D01*
X24791635Y8817281D01*
X24644876Y8639880D01*
X24535370Y8437352D01*
X24467287Y8217412D01*
X24443221Y7988436D01*
X19845609Y7988436D01*
X19845609Y14627737D01*
X20998556Y15780684D01*
X21025347Y15813300D01*
X21052449Y15845600D01*
X21053606Y15847705D01*
X21055130Y15849560D01*
X21075068Y15886743D01*
X21095389Y15923707D01*
X21096115Y15925995D01*
X21097250Y15928112D01*
X21109589Y15968472D01*
X21122340Y16008667D01*
X21122608Y16011052D01*
X21123310Y16013350D01*
X21127576Y16055344D01*
X21132275Y16097243D01*
X21132308Y16101938D01*
X21132317Y16102025D01*
X21132309Y16102106D01*
X21132320Y16103620D01*
X21132320Y19038648D01*
X22599249Y20505578D01*
X22686447Y20520953D01*
X22792438Y20562064D01*
X22888426Y20622980D01*
X22970753Y20701379D01*
X23002732Y20746711D01*
X23825700Y19923743D01*
X23825700Y11866400D01*
X23829819Y11824397D01*
X23833494Y11782389D01*
X23834164Y11780085D01*
X23834398Y11777693D01*
X23846598Y11737284D01*
X23858361Y11696796D01*
X23859466Y11694665D01*
X23860160Y11692365D01*
X23879961Y11655126D01*
X23899379Y11617663D01*
X23900879Y11615785D01*
X23902005Y11613666D01*
X23928657Y11580987D01*
X23954987Y11548005D01*
X23958287Y11544658D01*
X23958339Y11544594D01*
X23958398Y11544545D01*
X23959464Y11543464D01*
X24533055Y10969873D01*
X24467287Y10757412D01*
X24443221Y10528436D01*
X24464088Y10299146D01*
X24529093Y10078277D01*
X24635761Y9874240D01*
X24780029Y9694807D01*
X24956400Y9546814D01*
X25158159Y9435896D01*
X25377619Y9366279D01*
X25606421Y9340615D01*
X25622892Y9340500D01*
X25634308Y9340500D01*
X25863446Y9362967D01*
X26083857Y9429513D01*
X26287144Y9537603D01*
X26465565Y9683119D01*
X26612324Y9860520D01*
X26721830Y10063048D01*
X26789913Y10282988D01*
X26813979Y10511964D01*
X26793112Y10741254D01*
X26728107Y10962123D01*
X26621439Y11166160D01*
X26477171Y11345593D01*
X26300800Y11493586D01*
X26099041Y11604504D01*
X25879581Y11674121D01*
X25650779Y11699785D01*
X25634308Y11699900D01*
X25622892Y11699900D01*
X25393754Y11677433D01*
X25181363Y11613308D01*
X24739100Y12055572D01*
X24739100Y12285712D01*
X24780029Y12234807D01*
X24956400Y12086814D01*
X25158159Y11975896D01*
X25377619Y11906279D01*
X25606421Y11880615D01*
X25622892Y11880500D01*
X25634308Y11880500D01*
X25863446Y11902967D01*
X26083857Y11969513D01*
X26287144Y12077603D01*
X26465565Y12223119D01*
X26612324Y12400520D01*
X26721830Y12603048D01*
X26789913Y12822988D01*
X26813979Y13051964D01*
X26793112Y13281254D01*
X26728107Y13502123D01*
X26621439Y13706160D01*
X26477171Y13885593D01*
X26300800Y14033586D01*
X26099041Y14144504D01*
X25879581Y14214121D01*
X25650779Y14239785D01*
X25634308Y14239900D01*
X25622892Y14239900D01*
X25393754Y14217433D01*
X25181363Y14153308D01*
X25145510Y14189162D01*
X25145510Y20726390D01*
X25141391Y20768393D01*
X25137716Y20810401D01*
X25137046Y20812705D01*
X25136812Y20815097D01*
X25124612Y20855506D01*
X25112849Y20895994D01*
X25111744Y20898125D01*
X25111050Y20900425D01*
X25091249Y20937664D01*
X25071831Y20975127D01*
X25070331Y20977005D01*
X25069205Y20979124D01*
X25042553Y21011803D01*
X25016223Y21044785D01*
X25012923Y21048132D01*
X25012871Y21048196D01*
X25012812Y21048245D01*
X25011746Y21049326D01*
X21303828Y24757244D01*
X21302985Y24761501D01*
X22424201Y24761501D01*
X22466204Y24765620D01*
X22508212Y24769295D01*
X22510516Y24769965D01*
X22512908Y24770199D01*
X22553317Y24782399D01*
X22593805Y24794162D01*
X22595936Y24795267D01*
X22598236Y24795961D01*
X22635475Y24815762D01*
X22672938Y24835180D01*
X22674816Y24836680D01*
X22676935Y24837806D01*
X22709614Y24864458D01*
X22742596Y24890788D01*
X22745943Y24894088D01*
X22746007Y24894140D01*
X22746056Y24894199D01*
X22747137Y24895265D01*
X24081316Y26229445D01*
X25532941Y26229445D01*
X25558773Y26088694D01*
X25611452Y25955642D01*
X25688972Y25835355D01*
X25788378Y25732417D01*
X25905886Y25650746D01*
X26037019Y25593456D01*
X26176783Y25562727D01*
X26319853Y25559730D01*
X26460780Y25584579D01*
X26594197Y25636328D01*
X26715022Y25713006D01*
X26818652Y25811692D01*
X26901141Y25928627D01*
X26959345Y26059356D01*
X26991049Y26198902D01*
X26993332Y26362351D01*
X26965536Y26502727D01*
X26911005Y26635031D01*
X26831813Y26754223D01*
X26730979Y26855764D01*
X26612342Y26935786D01*
X26480422Y26991240D01*
X26340244Y27020014D01*
X26197145Y27021013D01*
X26056578Y26994199D01*
X25923897Y26940592D01*
X25804155Y26862235D01*
X25701912Y26762112D01*
X25621065Y26644037D01*
X25564691Y26512507D01*
X25534939Y26372532D01*
X25532941Y26229445D01*
X24081316Y26229445D01*
X24135435Y26283564D01*
X24162202Y26316151D01*
X24189329Y26348480D01*
X24190486Y26350585D01*
X24192010Y26352440D01*
X24211948Y26389623D01*
X24232269Y26426587D01*
X24232995Y26428875D01*
X24234130Y26430992D01*
X24246469Y26471352D01*
X24259220Y26511547D01*
X24259488Y26513932D01*
X24260190Y26516230D01*
X24264456Y26558224D01*
X24269155Y26600123D01*
X24269188Y26604818D01*
X24269197Y26604905D01*
X24269189Y26604986D01*
X24269200Y26606500D01*
X24269200Y27929445D01*
X25532941Y27929445D01*
X25558773Y27788694D01*
X25611452Y27655642D01*
X25688972Y27535355D01*
X25788378Y27432417D01*
X25905886Y27350746D01*
X26037019Y27293456D01*
X26176783Y27262727D01*
X26319853Y27259730D01*
X26460780Y27284579D01*
X26594197Y27336328D01*
X26715022Y27413006D01*
X26818652Y27511692D01*
X26901141Y27628627D01*
X26959345Y27759356D01*
X26991049Y27898902D01*
X26993332Y28062351D01*
X26965536Y28202727D01*
X26911005Y28335031D01*
X26831813Y28454223D01*
X26730979Y28555764D01*
X26612342Y28635786D01*
X26480422Y28691240D01*
X26340244Y28720014D01*
X26197145Y28721013D01*
X26056578Y28694199D01*
X25923897Y28640592D01*
X25804155Y28562235D01*
X25701912Y28462112D01*
X25621065Y28344037D01*
X25564691Y28212507D01*
X25534939Y28072532D01*
X25532941Y27929445D01*
X24269200Y27929445D01*
X24269200Y42557720D01*
X24265081Y42599727D01*
X24261406Y42641730D01*
X24260737Y42644034D01*
X24260502Y42646427D01*
X24248298Y42686848D01*
X24236539Y42727324D01*
X24235434Y42729455D01*
X24234740Y42731755D01*
X24214939Y42768994D01*
X24195521Y42806457D01*
X24194022Y42808335D01*
X24192895Y42810454D01*
X24166223Y42843157D01*
X24139913Y42876114D01*
X24136618Y42879456D01*
X24136561Y42879526D01*
X24136496Y42879579D01*
X24135436Y42880655D01*
X14375920Y52640172D01*
X14375920Y61094592D01*
X19135943Y61094592D01*
X19189389Y60803389D01*
X19298379Y60528112D01*
X19458761Y60279248D01*
X19664427Y60066275D01*
X19907542Y59897305D01*
X20178848Y59778775D01*
X20468009Y59715198D01*
X20764011Y59708998D01*
X21055581Y59760410D01*
X21331611Y59867475D01*
X21581590Y60026116D01*
X21795993Y60230290D01*
X21966656Y60472220D01*
X22087078Y60742691D01*
X22152671Y61031401D01*
X22157393Y61369566D01*
X22099886Y61659995D01*
X21987064Y61933723D01*
X21823223Y62180324D01*
X21614603Y62390404D01*
X21369152Y62555963D01*
X21096219Y62670694D01*
X20806198Y62730227D01*
X20510138Y62732294D01*
X20219315Y62676816D01*
X19944806Y62565907D01*
X19697067Y62403792D01*
X19485535Y62196644D01*
X19318266Y61952355D01*
X19201633Y61680229D01*
X19140077Y61390631D01*
X19135943Y61094592D01*
X14375920Y61094592D01*
X14375920Y61308134D01*
X15482736Y62414951D01*
X15509503Y62447538D01*
X15536630Y62479867D01*
X15537787Y62481972D01*
X15539311Y62483827D01*
X15559249Y62521010D01*
X15579570Y62557974D01*
X15580296Y62560262D01*
X15581431Y62562379D01*
X15593757Y62602698D01*
X15606521Y62642934D01*
X15606789Y62645324D01*
X15607490Y62647617D01*
X15611751Y62689562D01*
X15616456Y62731510D01*
X15616489Y62736205D01*
X15616498Y62736292D01*
X15616490Y62736373D01*
X15616501Y62737887D01*
X15616501Y63326199D01*
X15612382Y63368202D01*
X15608707Y63410210D01*
X15608037Y63412514D01*
X15607803Y63414906D01*
X15595603Y63455315D01*
X15583840Y63495803D01*
X15582735Y63497934D01*
X15582041Y63500234D01*
X15562240Y63537473D01*
X15542822Y63574936D01*
X15541322Y63576814D01*
X15540196Y63578933D01*
X15513544Y63611612D01*
X15487214Y63644594D01*
X15483914Y63647941D01*
X15483862Y63648005D01*
X15483803Y63648054D01*
X15482737Y63649135D01*
X13969510Y65162362D01*
X13969510Y69684952D01*
X14776575Y69684952D01*
X14813028Y69486335D01*
X14887365Y69298581D01*
X14996754Y69128842D01*
X15137030Y68983582D01*
X15302848Y68868335D01*
X15487894Y68787491D01*
X15655050Y68750739D01*
X15515494Y68724117D01*
X15328264Y68648471D01*
X15159292Y68537899D01*
X15015016Y68396613D01*
X14900929Y68229994D01*
X14821379Y68044389D01*
X14779394Y67846867D01*
X14776575Y67644952D01*
X14813028Y67446335D01*
X14887365Y67258581D01*
X14996754Y67088842D01*
X15137030Y66943582D01*
X15302848Y66828335D01*
X15487894Y66747491D01*
X15655050Y66710739D01*
X15515494Y66684117D01*
X15328264Y66608471D01*
X15159292Y66497899D01*
X15015016Y66356613D01*
X14900929Y66189994D01*
X14821379Y66004389D01*
X14779394Y65806867D01*
X14776575Y65604952D01*
X14813028Y65406335D01*
X14887365Y65218581D01*
X14996754Y65048842D01*
X15137030Y64903582D01*
X15302848Y64788335D01*
X15487894Y64707491D01*
X15685118Y64664128D01*
X15887008Y64659899D01*
X16085874Y64694965D01*
X16274143Y64767990D01*
X16444642Y64876191D01*
X16590877Y65015449D01*
X16707279Y65180459D01*
X16789413Y65364936D01*
X16834151Y65561852D01*
X16837372Y65792499D01*
X16798149Y65990588D01*
X16721198Y66177286D01*
X16609449Y66345481D01*
X16467159Y66488768D01*
X16299748Y66601689D01*
X16113592Y66679941D01*
X15956592Y66712169D01*
X16085874Y66734965D01*
X16274143Y66807990D01*
X16444642Y66916191D01*
X16590877Y67055449D01*
X16707279Y67220459D01*
X16789413Y67404936D01*
X16834151Y67601852D01*
X16837372Y67832499D01*
X16798149Y68030588D01*
X16721198Y68217286D01*
X16609449Y68385481D01*
X16467159Y68528768D01*
X16299748Y68641689D01*
X16244407Y68664952D01*
X17316575Y68664952D01*
X17353028Y68466335D01*
X17427365Y68278581D01*
X17536754Y68108842D01*
X17677030Y67963582D01*
X17842848Y67848335D01*
X18027894Y67767491D01*
X18195050Y67730739D01*
X18055494Y67704117D01*
X17868264Y67628471D01*
X17699292Y67517899D01*
X17555016Y67376613D01*
X17440929Y67209994D01*
X17361379Y67024389D01*
X17319394Y66826867D01*
X17316575Y66624952D01*
X17353028Y66426335D01*
X17427365Y66238581D01*
X17536754Y66068842D01*
X17677030Y65923582D01*
X17842848Y65808335D01*
X18027894Y65727491D01*
X18195050Y65690739D01*
X18055494Y65664117D01*
X17868264Y65588471D01*
X17699292Y65477899D01*
X17555016Y65336613D01*
X17440929Y65169994D01*
X17361379Y64984389D01*
X17319394Y64786867D01*
X17316575Y64584952D01*
X17353028Y64386335D01*
X17427365Y64198581D01*
X17536754Y64028842D01*
X17677030Y63883582D01*
X17842848Y63768335D01*
X18027894Y63687491D01*
X18225118Y63644128D01*
X18427008Y63639899D01*
X18625874Y63674965D01*
X18814143Y63747990D01*
X18984642Y63856191D01*
X19130877Y63995449D01*
X19247279Y64160459D01*
X19329413Y64344936D01*
X19374151Y64541852D01*
X19377372Y64772499D01*
X19338149Y64970588D01*
X19261198Y65157286D01*
X19149449Y65325481D01*
X19007159Y65468768D01*
X18839748Y65581689D01*
X18653592Y65659941D01*
X18496592Y65692169D01*
X18625874Y65714965D01*
X18814143Y65787990D01*
X18984642Y65896191D01*
X19130877Y66035449D01*
X19247279Y66200459D01*
X19329413Y66384936D01*
X19374151Y66581852D01*
X19377372Y66812499D01*
X19338149Y67010588D01*
X19261198Y67197286D01*
X19149449Y67365481D01*
X19007159Y67508768D01*
X18839748Y67621689D01*
X18653592Y67699941D01*
X18496592Y67732169D01*
X18625874Y67754965D01*
X18814143Y67827990D01*
X18984642Y67936191D01*
X19130877Y68075449D01*
X19247279Y68240459D01*
X19329413Y68424936D01*
X19374151Y68621852D01*
X19377372Y68852499D01*
X19338149Y69050588D01*
X19261198Y69237286D01*
X19149449Y69405481D01*
X19007159Y69548768D01*
X18839748Y69661689D01*
X18653592Y69739941D01*
X18455782Y69780546D01*
X18253852Y69781956D01*
X18055494Y69744117D01*
X17868264Y69668471D01*
X17699292Y69557899D01*
X17555016Y69416613D01*
X17440929Y69249994D01*
X17361379Y69064389D01*
X17319394Y68866867D01*
X17316575Y68664952D01*
X16244407Y68664952D01*
X16113592Y68719941D01*
X15956592Y68752169D01*
X16085874Y68774965D01*
X16274143Y68847990D01*
X16444642Y68956191D01*
X16590877Y69095449D01*
X16707279Y69260459D01*
X16789413Y69444936D01*
X16834151Y69641852D01*
X16837372Y69872499D01*
X16798149Y70070588D01*
X16721198Y70257286D01*
X16609449Y70425481D01*
X16467159Y70568768D01*
X16299748Y70681689D01*
X16113592Y70759941D01*
X15915782Y70800546D01*
X15713852Y70801956D01*
X15515494Y70764117D01*
X15328264Y70688471D01*
X15159292Y70577899D01*
X15015016Y70436613D01*
X14900929Y70269994D01*
X14821379Y70084389D01*
X14779394Y69886867D01*
X14776575Y69684952D01*
X13969510Y69684952D01*
X13969510Y73094592D01*
X19135943Y73094592D01*
X19189389Y72803389D01*
X19298379Y72528112D01*
X19458761Y72279248D01*
X19664427Y72066275D01*
X19907542Y71897305D01*
X20178848Y71778775D01*
X20468009Y71715198D01*
X20764011Y71708998D01*
X21055581Y71760410D01*
X21331611Y71867475D01*
X21581590Y72026116D01*
X21795993Y72230290D01*
X21966656Y72472220D01*
X22087078Y72742691D01*
X22152671Y73031401D01*
X22157393Y73369566D01*
X22099886Y73659995D01*
X21987064Y73933723D01*
X21823223Y74180324D01*
X21614603Y74390404D01*
X21369152Y74555963D01*
X21096219Y74670694D01*
X20806198Y74730227D01*
X20510138Y74732294D01*
X20219315Y74676816D01*
X19944806Y74565907D01*
X19697067Y74403792D01*
X19485535Y74196644D01*
X19318266Y73952355D01*
X19201633Y73680229D01*
X19140077Y73390631D01*
X19135943Y73094592D01*
X13969510Y73094592D01*
X13969510Y76594592D01*
X19149943Y76594592D01*
X19203389Y76303389D01*
X19312379Y76028112D01*
X19472761Y75779248D01*
X19678427Y75566275D01*
X19921542Y75397305D01*
X20192848Y75278775D01*
X20482009Y75215198D01*
X20778011Y75208998D01*
X21069581Y75260410D01*
X21345611Y75367475D01*
X21595590Y75526116D01*
X21809993Y75730290D01*
X21980656Y75972220D01*
X22101078Y76242691D01*
X22166671Y76531401D01*
X22171393Y76869566D01*
X22113886Y77159995D01*
X22001064Y77433723D01*
X21837223Y77680324D01*
X21628603Y77890404D01*
X21383152Y78055963D01*
X21110219Y78170694D01*
X20820198Y78230227D01*
X20524138Y78232294D01*
X20233315Y78176816D01*
X19958806Y78065907D01*
X19711067Y77903792D01*
X19499535Y77696644D01*
X19332266Y77452355D01*
X19215633Y77180229D01*
X19154077Y76890631D01*
X19149943Y76594592D01*
X13969510Y76594592D01*
X13969510Y78552732D01*
X14025047Y78562525D01*
X14131038Y78603636D01*
X14227026Y78664552D01*
X14309353Y78742951D01*
X14374885Y78835848D01*
X14421125Y78939705D01*
X14446312Y79050565D01*
X14448125Y79180415D01*
X14426043Y79291934D01*
X14382721Y79397042D01*
X14319809Y79491732D01*
X14239703Y79572400D01*
X14145453Y79635972D01*
X14040651Y79680026D01*
X13929288Y79702886D01*
X13815606Y79703680D01*
X13703935Y79682377D01*
X13598528Y79639790D01*
X13563100Y79616607D01*
X13563100Y85184952D01*
X14790575Y85184952D01*
X14827028Y84986335D01*
X14901365Y84798581D01*
X15010754Y84628842D01*
X15151030Y84483582D01*
X15316848Y84368335D01*
X15501894Y84287491D01*
X15669050Y84250739D01*
X15529494Y84224117D01*
X15342264Y84148471D01*
X15173292Y84037899D01*
X15029016Y83896613D01*
X14914929Y83729994D01*
X14835379Y83544389D01*
X14793394Y83346867D01*
X14790575Y83144952D01*
X14827028Y82946335D01*
X14901365Y82758581D01*
X15010754Y82588842D01*
X15151030Y82443582D01*
X15316848Y82328335D01*
X15501894Y82247491D01*
X15669050Y82210739D01*
X15529494Y82184117D01*
X15342264Y82108471D01*
X15173292Y81997899D01*
X15029016Y81856613D01*
X14914929Y81689994D01*
X14835379Y81504389D01*
X14793394Y81306867D01*
X14790575Y81104952D01*
X14827028Y80906335D01*
X14901365Y80718581D01*
X15010754Y80548842D01*
X15151030Y80403582D01*
X15316848Y80288335D01*
X15501894Y80207491D01*
X15699118Y80164128D01*
X15901008Y80159899D01*
X16099874Y80194965D01*
X16288143Y80267990D01*
X16458642Y80376191D01*
X16604877Y80515449D01*
X16721279Y80680459D01*
X16803413Y80864936D01*
X16848151Y81061852D01*
X16851372Y81292499D01*
X16812149Y81490588D01*
X16735198Y81677286D01*
X16623449Y81845481D01*
X16481159Y81988768D01*
X16313748Y82101689D01*
X16127592Y82179941D01*
X15970592Y82212169D01*
X16099874Y82234965D01*
X16288143Y82307990D01*
X16458642Y82416191D01*
X16604877Y82555449D01*
X16721279Y82720459D01*
X16803413Y82904936D01*
X16848151Y83101852D01*
X16851372Y83332499D01*
X16812149Y83530588D01*
X16735198Y83717286D01*
X16623449Y83885481D01*
X16481159Y84028768D01*
X16313748Y84141689D01*
X16258407Y84164952D01*
X17330575Y84164952D01*
X17367028Y83966335D01*
X17441365Y83778581D01*
X17550754Y83608842D01*
X17691030Y83463582D01*
X17856848Y83348335D01*
X18041894Y83267491D01*
X18209050Y83230739D01*
X18069494Y83204117D01*
X17882264Y83128471D01*
X17713292Y83017899D01*
X17569016Y82876613D01*
X17454929Y82709994D01*
X17375379Y82524389D01*
X17333394Y82326867D01*
X17330575Y82124952D01*
X17367028Y81926335D01*
X17441365Y81738581D01*
X17550754Y81568842D01*
X17691030Y81423582D01*
X17856848Y81308335D01*
X18041894Y81227491D01*
X18209050Y81190739D01*
X18069494Y81164117D01*
X17882264Y81088471D01*
X17713292Y80977899D01*
X17569016Y80836613D01*
X17454929Y80669994D01*
X17375379Y80484389D01*
X17333394Y80286867D01*
X17330575Y80084952D01*
X17367028Y79886335D01*
X17441365Y79698581D01*
X17550754Y79528842D01*
X17691030Y79383582D01*
X17856848Y79268335D01*
X18041894Y79187491D01*
X18239118Y79144128D01*
X18441008Y79139899D01*
X18639874Y79174965D01*
X18828143Y79247990D01*
X18998642Y79356191D01*
X19144877Y79495449D01*
X19261279Y79660459D01*
X19343413Y79844936D01*
X19388151Y80041852D01*
X19391372Y80272499D01*
X19352149Y80470588D01*
X19275198Y80657286D01*
X19163449Y80825481D01*
X19021159Y80968768D01*
X18853748Y81081689D01*
X18667592Y81159941D01*
X18510592Y81192169D01*
X18639874Y81214965D01*
X18828143Y81287990D01*
X18998642Y81396191D01*
X19144877Y81535449D01*
X19261279Y81700459D01*
X19343413Y81884936D01*
X19388151Y82081852D01*
X19391372Y82312499D01*
X19352149Y82510588D01*
X19275198Y82697286D01*
X19163449Y82865481D01*
X19021159Y83008768D01*
X18853748Y83121689D01*
X18667592Y83199941D01*
X18510592Y83232169D01*
X18639874Y83254965D01*
X18828143Y83327990D01*
X18998642Y83436191D01*
X19144877Y83575449D01*
X19261279Y83740459D01*
X19343413Y83924936D01*
X19388151Y84121852D01*
X19391372Y84352499D01*
X19352149Y84550588D01*
X19275198Y84737286D01*
X19163449Y84905481D01*
X19021159Y85048768D01*
X18853748Y85161689D01*
X18667592Y85239941D01*
X18469782Y85280546D01*
X18267852Y85281956D01*
X18069494Y85244117D01*
X17882264Y85168471D01*
X17713292Y85057899D01*
X17569016Y84916613D01*
X17454929Y84749994D01*
X17375379Y84564389D01*
X17333394Y84366867D01*
X17330575Y84164952D01*
X16258407Y84164952D01*
X16127592Y84219941D01*
X15970592Y84252169D01*
X16099874Y84274965D01*
X16288143Y84347990D01*
X16458642Y84456191D01*
X16604877Y84595449D01*
X16721279Y84760459D01*
X16803413Y84944936D01*
X16848151Y85141852D01*
X16851372Y85372499D01*
X16812149Y85570588D01*
X16735198Y85757286D01*
X16623449Y85925481D01*
X16481159Y86068768D01*
X16313748Y86181689D01*
X16127592Y86259941D01*
X15929782Y86300546D01*
X15727852Y86301956D01*
X15529494Y86264117D01*
X15342264Y86188471D01*
X15173292Y86077899D01*
X15029016Y85936613D01*
X14914929Y85769994D01*
X14835379Y85584389D01*
X14793394Y85386867D01*
X14790575Y85184952D01*
X13563100Y85184952D01*
X13563100Y86156800D01*
X13558981Y86198807D01*
X13555306Y86240810D01*
X13554637Y86243114D01*
X13554402Y86245507D01*
X13542198Y86285928D01*
X13530439Y86326404D01*
X13529334Y86328535D01*
X13528640Y86330835D01*
X13508839Y86368074D01*
X13489421Y86405537D01*
X13487922Y86407415D01*
X13486795Y86409534D01*
X13460123Y86442237D01*
X13433813Y86475194D01*
X13430518Y86478536D01*
X13430461Y86478606D01*
X13430396Y86478659D01*
X13429336Y86479735D01*
X12391937Y87517135D01*
X12359294Y87543948D01*
X12327021Y87571028D01*
X12324920Y87572183D01*
X12323061Y87573710D01*
X12285858Y87593658D01*
X12248914Y87613968D01*
X12246624Y87614694D01*
X12244508Y87615829D01*
X12204163Y87628164D01*
X12163954Y87640919D01*
X12161569Y87641187D01*
X12159271Y87641889D01*
X12117277Y87646155D01*
X12075378Y87650854D01*
X12070683Y87650887D01*
X12070596Y87650896D01*
X12070515Y87650888D01*
X12069001Y87650899D01*
X8098599Y87650899D01*
X8056596Y87646780D01*
X8014588Y87643105D01*
X8012284Y87642435D01*
X8009892Y87642201D01*
X7969483Y87630001D01*
X7928995Y87618238D01*
X7926864Y87617133D01*
X7924564Y87616439D01*
X7887325Y87596638D01*
X7849862Y87577220D01*
X7847984Y87575720D01*
X7845865Y87574594D01*
X7813186Y87547942D01*
X7780204Y87521612D01*
X7779851Y87521264D01*
X7684135Y87503005D01*
X7578728Y87460418D01*
X7483600Y87398168D01*
X7402375Y87318627D01*
X7338147Y87224824D01*
X7293362Y87120332D01*
X7269725Y87009131D01*
X7268138Y86895457D01*
X7288660Y86783640D01*
X7330511Y86677938D01*
X7392095Y86582378D01*
X7471067Y86500600D01*
X7564419Y86435719D01*
X7668596Y86390205D01*
X7779629Y86365793D01*
X7893289Y86363412D01*
X8005247Y86383153D01*
X8111238Y86424264D01*
X8207226Y86485180D01*
X8289553Y86563579D01*
X8355085Y86656476D01*
X8391159Y86737499D01*
X11879829Y86737499D01*
X12649700Y85967629D01*
X12649700Y40472571D01*
X8584700Y44537572D01*
X8584700Y51473100D01*
X8580581Y51515103D01*
X8576906Y51557111D01*
X8576236Y51559415D01*
X8576002Y51561807D01*
X8563802Y51602216D01*
X8552039Y51642704D01*
X8550934Y51644835D01*
X8550240Y51647135D01*
X8530439Y51684374D01*
X8511021Y51721837D01*
X8509521Y51723715D01*
X8508395Y51725834D01*
X8481743Y51758513D01*
X8455413Y51791495D01*
X8452113Y51794842D01*
X8452061Y51794906D01*
X8452002Y51794955D01*
X8450936Y51796036D01*
X7587828Y52659144D01*
X7568043Y52759062D01*
X7524721Y52864170D01*
X7461809Y52958860D01*
X7381703Y53039528D01*
X7287453Y53103100D01*
X7182651Y53147154D01*
X7071288Y53170014D01*
X6957606Y53170808D01*
X6845935Y53149505D01*
X6740528Y53106918D01*
X6645400Y53044668D01*
X6564175Y52965127D01*
X6499947Y52871324D01*
X6455162Y52766832D01*
X6431525Y52655631D01*
X6429938Y52541957D01*
X6450460Y52430140D01*
X6492311Y52324438D01*
X6553895Y52228878D01*
X6632867Y52147100D01*
X6726219Y52082219D01*
X6830396Y52036705D01*
X6941429Y52012293D01*
X6942967Y52012261D01*
X7671300Y51283928D01*
X7671300Y48435472D01*
X7562428Y48544344D01*
X7542643Y48644262D01*
X7499321Y48749370D01*
X7436409Y48844060D01*
X7356303Y48924728D01*
X7262053Y48988300D01*
X7157251Y49032354D01*
X7045888Y49055214D01*
X6932206Y49056008D01*
X6820535Y49034705D01*
X6715128Y48992118D01*
X6620000Y48929868D01*
X6538775Y48850327D01*
X6474547Y48756524D01*
X6429762Y48652032D01*
X6406125Y48540831D01*
X6404538Y48427157D01*
X6425060Y48315340D01*
X6466911Y48209638D01*
X6528495Y48114078D01*
X6607467Y48032300D01*
X6700819Y47967419D01*
X6804996Y47921905D01*
X6916029Y47897493D01*
X6917567Y47897461D01*
X7252200Y47562828D01*
X7252200Y44812119D01*
X7182651Y44841354D01*
X7071288Y44864214D01*
X6957606Y44865008D01*
X6845935Y44843705D01*
X6740528Y44801118D01*
X6645400Y44738868D01*
X6564175Y44659327D01*
X6499947Y44565524D01*
X6455162Y44461032D01*
X6431525Y44349831D01*
X6429938Y44236157D01*
X6450460Y44124340D01*
X6492311Y44018638D01*
X6553895Y43923078D01*
X6632867Y43841300D01*
X6726219Y43776419D01*
X6830396Y43730905D01*
X6941429Y43706493D01*
X6942967Y43706461D01*
X8665645Y41983783D01*
X8605051Y42009254D01*
X8493688Y42032114D01*
X8380006Y42032908D01*
X8268335Y42011605D01*
X8162928Y41969018D01*
X8067800Y41906768D01*
X7986575Y41827227D01*
X7922347Y41733424D01*
X7877562Y41628932D01*
X7854482Y41520354D01*
X4392945Y38058817D01*
X4366132Y38026174D01*
X4339052Y37993901D01*
X4337897Y37991800D01*
X4336370Y37989941D01*
X4316422Y37952738D01*
X4296112Y37915794D01*
X4295386Y37913504D01*
X4294251Y37911388D01*
X4281916Y37871043D01*
X4269161Y37830834D01*
X4268893Y37828449D01*
X4268191Y37826151D01*
X4263925Y37784157D01*
X4259226Y37742258D01*
X4259193Y37737563D01*
X4259184Y37737476D01*
X4259192Y37737395D01*
X4259181Y37735881D01*
X4259181Y29858415D01*
X4236251Y29868054D01*
X4124888Y29890914D01*
X4011206Y29891708D01*
X3899535Y29870405D01*
X3794128Y29827818D01*
X3699000Y29765568D01*
X3617775Y29686027D01*
X3553547Y29592224D01*
X3511990Y29495264D01*
X2730926Y28714200D01*
X393200Y28714200D01*
X393200Y38710026D01*
X2421220Y40738046D01*
X2497838Y40767764D01*
X2593826Y40828680D01*
X2676153Y40907079D01*
X2741685Y40999976D01*
X2787925Y41103833D01*
X2813112Y41214693D01*
X2814925Y41344543D01*
X2792843Y41456062D01*
X2749521Y41561170D01*
X2691900Y41647896D01*
X2691900Y45107702D01*
X2741685Y45178276D01*
X2787925Y45282133D01*
X2813112Y45392993D01*
X2814925Y45522843D01*
X2792843Y45634362D01*
X2749521Y45739470D01*
X2691900Y45826196D01*
X2691900Y49273302D01*
X2741685Y49343876D01*
X2787925Y49447733D01*
X2813112Y49558593D01*
X2814925Y49688443D01*
X2792843Y49799962D01*
X2749521Y49905070D01*
X2691900Y49991796D01*
X2691900Y70880028D01*
X3269850Y71457978D01*
X3357047Y71473353D01*
X3463038Y71514464D01*
X3559026Y71575380D01*
X3641353Y71653779D01*
X3706885Y71746676D01*
X3753125Y71850533D01*
X3778312Y71961393D01*
X3780125Y72091243D01*
X3758043Y72202762D01*
X3714721Y72307870D01*
X3657100Y72394596D01*
X3657100Y77512400D01*
X4714677Y78569978D01*
X4801875Y78585353D01*
X4907866Y78626464D01*
X5003854Y78687380D01*
X5086181Y78765779D01*
X5151713Y78858676D01*
X5197953Y78962533D01*
X5223140Y79073393D01*
X5224953Y79203243D01*
X5202871Y79314762D01*
X5159549Y79419870D01*
X5096637Y79514560D01*
X5016531Y79595228D01*
X4922281Y79658800D01*
X4817479Y79702854D01*
X4706116Y79725714D01*
X4592434Y79726508D01*
X4480763Y79705205D01*
X4375356Y79662618D01*
X4280228Y79600368D01*
X4199003Y79520827D01*
X4134775Y79427024D01*
X4089990Y79322532D01*
X4066910Y79213954D01*
X3657100Y78804143D01*
X3657100Y88594592D01*
X19149943Y88594592D01*
X19203389Y88303389D01*
X19312379Y88028112D01*
X19472761Y87779248D01*
X19678427Y87566275D01*
X19921542Y87397305D01*
X20192848Y87278775D01*
X20482009Y87215198D01*
X20778011Y87208998D01*
X21069581Y87260410D01*
X21345611Y87367475D01*
X21595590Y87526116D01*
X21809993Y87730290D01*
X21980656Y87972220D01*
X22101078Y88242691D01*
X22166671Y88531401D01*
X22171393Y88869566D01*
X22113886Y89159995D01*
X22001064Y89433723D01*
X21837223Y89680324D01*
X21628603Y89890404D01*
X21383152Y90055963D01*
X21110219Y90170694D01*
X20820198Y90230227D01*
X20524138Y90232294D01*
X20233315Y90176816D01*
X19958806Y90065907D01*
X19711067Y89903792D01*
X19499535Y89696644D01*
X19332266Y89452355D01*
X19215633Y89180229D01*
X19154077Y88890631D01*
X19149943Y88594592D01*
X3657100Y88594592D01*
X3657100Y89760902D01*
X3706885Y89831476D01*
X3753125Y89935333D01*
X3778312Y90046193D01*
X3780125Y90176043D01*
X3758043Y90287562D01*
X3714721Y90392670D01*
X3651809Y90487360D01*
X3571703Y90568028D01*
X3477453Y90631600D01*
X3372651Y90675654D01*
X3261288Y90698514D01*
X3147606Y90699308D01*
X3035935Y90678005D01*
X2930528Y90635418D01*
X2835400Y90573168D01*
X2754175Y90493627D01*
X2689947Y90399824D01*
X2645162Y90295332D01*
X2621525Y90184131D01*
X2619938Y90070457D01*
X2640460Y89958640D01*
X2682311Y89852938D01*
X2743700Y89757681D01*
X2743700Y72393529D01*
X2689947Y72315024D01*
X2645162Y72210532D01*
X2622083Y72101955D01*
X1912264Y71392136D01*
X1885451Y71359493D01*
X1858371Y71327220D01*
X1857216Y71325119D01*
X1855689Y71323260D01*
X1835741Y71286057D01*
X1815431Y71249113D01*
X1814705Y71246823D01*
X1813570Y71244707D01*
X1801235Y71204362D01*
X1788480Y71164153D01*
X1788212Y71161768D01*
X1787510Y71159470D01*
X1783244Y71117476D01*
X1778545Y71075577D01*
X1778512Y71070882D01*
X1778503Y71070795D01*
X1778511Y71070714D01*
X1778500Y71069200D01*
X1778500Y49990729D01*
X1724747Y49912224D01*
X1679962Y49807732D01*
X1656325Y49696531D01*
X1654738Y49582857D01*
X1675260Y49471040D01*
X1717111Y49365338D01*
X1778500Y49270081D01*
X1778500Y45825129D01*
X1724747Y45746624D01*
X1679962Y45642132D01*
X1656325Y45530931D01*
X1654738Y45417257D01*
X1675260Y45305440D01*
X1717111Y45199738D01*
X1778500Y45104481D01*
X1778500Y41646829D01*
X1724747Y41568324D01*
X1683190Y41471364D01*
X-494837Y39293337D01*
X-525326Y39256219D01*
X-556224Y39219396D01*
X-557542Y39216998D01*
X-559278Y39214885D01*
X-581978Y39172550D01*
X-605134Y39130429D01*
X-605961Y39127821D01*
X-607254Y39125410D01*
X-621308Y39079441D01*
X-635832Y39033656D01*
X-636137Y39030940D01*
X-636937Y39028322D01*
X-641797Y38980476D01*
X-647149Y38932763D01*
X-647187Y38927419D01*
X-647197Y38927316D01*
X-647188Y38927220D01*
X-647200Y38925500D01*
X-647200Y22609882D01*
X-682238Y22528132D01*
X-705875Y22416931D01*
X-707462Y22303257D01*
X-796822Y22303257D01*
X-801690Y91843787D01*
X-431580Y91843787D01*
X-380966Y91568014D01*
X-277752Y91307325D01*
X-125868Y91071648D01*
X68899Y90869960D01*
X299132Y90709944D01*
X556061Y90597695D01*
X829899Y90537488D01*
X1110216Y90531616D01*
X1386335Y90580303D01*
X1647739Y90681695D01*
X1884470Y90831930D01*
X2087513Y91025284D01*
X2249132Y91254394D01*
X2363172Y91510533D01*
X2425290Y91783944D01*
X2426125Y91843787D01*
X23857420Y91843787D01*
X23908034Y91568014D01*
X24011248Y91307325D01*
X24163132Y91071648D01*
X24357899Y90869960D01*
X24588132Y90709944D01*
X24845061Y90597695D01*
X25118899Y90537488D01*
X25399216Y90531616D01*
X25675335Y90580303D01*
X25936739Y90681695D01*
X26173470Y90831930D01*
X26376513Y91025284D01*
X26538132Y91254394D01*
X26652172Y91510533D01*
X26714290Y91783944D01*
X26718762Y92104189D01*
X26664302Y92379228D01*
X26557458Y92638451D01*
X26402299Y92871985D01*
X26204735Y93070933D01*
X25972290Y93227719D01*
X25713820Y93336370D01*
X25439167Y93392748D01*
X25158796Y93394705D01*
X24883383Y93342168D01*
X24623421Y93237136D01*
X24388810Y93083611D01*
X24188487Y92887440D01*
X24030082Y92656096D01*
X23919629Y92398390D01*
X23861335Y92124138D01*
X23857420Y91843787D01*
X2426125Y91843787D01*
X2429762Y92104189D01*
X2375302Y92379228D01*
X2268458Y92638451D01*
X2113299Y92871985D01*
X1915735Y93070933D01*
X1683290Y93227719D01*
X1424820Y93336370D01*
X1150167Y93392748D01*
X869796Y93394705D01*
X594383Y93342168D01*
X334421Y93237136D01*
X99810Y93083611D01*
X-100513Y92887440D01*
X-258918Y92656096D01*
X-369371Y92398390D01*
X-427665Y92124138D01*
X-431580Y91843787D01*
X-801690Y91843787D01*
X-801799Y93400211D01*
X-793091Y93489025D01*
X-773047Y93555415D01*
X-740485Y93616654D01*
X-696653Y93670398D01*
X-643213Y93714607D01*
X-582209Y93747592D01*
X-515955Y93768101D01*
X-428430Y93777300D01*
X26713703Y93777300D01*
X26802525Y93768591D01*
G36*
X11201890Y39447538D02*
X11201890Y23912762D01*
X11107179Y23818051D01*
X11073296Y23811587D01*
X11073296Y35928904D01*
X11069177Y35970911D01*
X11065502Y36012914D01*
X11064833Y36015218D01*
X11064598Y36017611D01*
X11052394Y36058032D01*
X11040635Y36098508D01*
X11039530Y36100639D01*
X11038836Y36102939D01*
X11019035Y36140178D01*
X10999617Y36177641D01*
X10998118Y36179519D01*
X10996991Y36181638D01*
X10970319Y36214341D01*
X10944009Y36247298D01*
X10940714Y36250640D01*
X10940657Y36250710D01*
X10940592Y36250763D01*
X10939532Y36251839D01*
X9784928Y37406444D01*
X9765143Y37506362D01*
X9721821Y37611470D01*
X9658909Y37706160D01*
X9578803Y37786828D01*
X9484553Y37850400D01*
X9379751Y37894454D01*
X9268388Y37917314D01*
X9154706Y37918108D01*
X9043035Y37896805D01*
X8937628Y37854218D01*
X8842500Y37791968D01*
X8761275Y37712427D01*
X8697047Y37618624D01*
X8652262Y37514132D01*
X8628625Y37402931D01*
X8628508Y37394523D01*
X8598535Y37388805D01*
X8493128Y37346218D01*
X8398000Y37283968D01*
X8316775Y37204427D01*
X8252547Y37110624D01*
X8207762Y37006132D01*
X8184125Y36894931D01*
X8182538Y36781257D01*
X8203060Y36669440D01*
X8244911Y36563738D01*
X8306300Y36468481D01*
X8306300Y35783872D01*
X8310419Y35741869D01*
X8314094Y35699861D01*
X8314764Y35697557D01*
X8314998Y35695165D01*
X8327198Y35654756D01*
X8338961Y35614268D01*
X8340066Y35612137D01*
X8340760Y35609837D01*
X8360561Y35572598D01*
X8379979Y35535135D01*
X8381479Y35533257D01*
X8382605Y35531138D01*
X8409257Y35498459D01*
X8435587Y35465477D01*
X8438887Y35462130D01*
X8438939Y35462066D01*
X8438998Y35462017D01*
X8440064Y35460936D01*
X8969462Y34931538D01*
X8961093Y34926061D01*
X8879868Y34846520D01*
X8815640Y34752717D01*
X8770855Y34648225D01*
X8747218Y34537024D01*
X8745631Y34423350D01*
X8766153Y34311533D01*
X8808004Y34205831D01*
X8869588Y34110271D01*
X8948560Y34028493D01*
X9041912Y33963612D01*
X9146089Y33918098D01*
X9257122Y33893686D01*
X9258660Y33893654D01*
X9305611Y33846703D01*
X9305611Y32148273D01*
X9230553Y32198900D01*
X9125751Y32242954D01*
X9014388Y32265814D01*
X8900706Y32266608D01*
X8789035Y32245305D01*
X8683628Y32202718D01*
X8588500Y32140468D01*
X8507275Y32060927D01*
X8443047Y31967124D01*
X8398262Y31862632D01*
X8374625Y31751431D01*
X8373038Y31637757D01*
X8393560Y31525940D01*
X8435411Y31420238D01*
X8496995Y31324678D01*
X8575967Y31242900D01*
X8669319Y31178019D01*
X8773496Y31132505D01*
X8884529Y31108093D01*
X8886067Y31108061D01*
X8899201Y31094927D01*
X8899201Y21991073D01*
X8440179Y21532051D01*
X8344535Y21513805D01*
X8239128Y21471218D01*
X8144000Y21408968D01*
X8062775Y21329427D01*
X7998547Y21235624D01*
X7953762Y21131132D01*
X7930125Y21019931D01*
X7928538Y20906257D01*
X7949060Y20794440D01*
X7990911Y20688738D01*
X8052495Y20593178D01*
X8131467Y20511400D01*
X8224819Y20446519D01*
X8328996Y20401005D01*
X8440029Y20376593D01*
X8553689Y20374212D01*
X8665647Y20393953D01*
X8771638Y20435064D01*
X8867626Y20495980D01*
X8882272Y20509927D01*
X8973505Y20446519D01*
X9077682Y20401005D01*
X9188715Y20376593D01*
X9302375Y20374212D01*
X9414333Y20393953D01*
X9520324Y20435064D01*
X9616312Y20495980D01*
X9668168Y20545362D01*
X9692097Y20484924D01*
X9753681Y20389364D01*
X9832653Y20307586D01*
X9926005Y20242705D01*
X10030182Y20197191D01*
X10141215Y20172779D01*
X10254875Y20170398D01*
X10366833Y20190139D01*
X10472824Y20231250D01*
X10568812Y20292166D01*
X10651139Y20370565D01*
X10683117Y20415897D01*
X11227300Y19871714D01*
X11227300Y18520129D01*
X11209316Y18493864D01*
X10082143Y19621037D01*
X10045025Y19651526D01*
X10008202Y19682424D01*
X10005804Y19683742D01*
X10003691Y19685478D01*
X9961356Y19708178D01*
X9919235Y19731334D01*
X9916627Y19732161D01*
X9914216Y19733454D01*
X9868247Y19747508D01*
X9822462Y19762032D01*
X9819746Y19762337D01*
X9817128Y19763137D01*
X9769282Y19767997D01*
X9721569Y19773349D01*
X9716225Y19773387D01*
X9716122Y19773397D01*
X9716026Y19773388D01*
X9714306Y19773400D01*
X3378200Y19773400D01*
X3330399Y19768713D01*
X3282508Y19764523D01*
X3279882Y19763760D01*
X3277159Y19763493D01*
X3231125Y19749594D01*
X3185015Y19736198D01*
X3182590Y19734941D01*
X3179967Y19734149D01*
X3137479Y19711558D01*
X3094879Y19689476D01*
X3092744Y19687772D01*
X3090326Y19686486D01*
X3053018Y19656059D01*
X3015535Y19626136D01*
X3011732Y19622387D01*
X3011649Y19622319D01*
X3011586Y19622242D01*
X3010363Y19621037D01*
X393200Y17003874D01*
X393200Y22095080D01*
X425725Y22168133D01*
X450912Y22278993D01*
X452725Y22408843D01*
X430643Y22520362D01*
X393200Y22611206D01*
X393200Y27673800D01*
X2946400Y27673800D01*
X2994209Y27678488D01*
X3042091Y27682677D01*
X3044717Y27683440D01*
X3047441Y27683707D01*
X3093488Y27697609D01*
X3139585Y27711002D01*
X3142010Y27712259D01*
X3144633Y27713051D01*
X3187121Y27735642D01*
X3229721Y27757724D01*
X3231856Y27759428D01*
X3234274Y27760714D01*
X3271551Y27791116D01*
X3309065Y27821063D01*
X3312869Y27824814D01*
X3312951Y27824881D01*
X3313013Y27824956D01*
X3314237Y27826163D01*
X4242300Y28754226D01*
X4242300Y24171629D01*
X4188547Y24093124D01*
X4143762Y23988632D01*
X4120125Y23877431D01*
X4118538Y23763757D01*
X4139060Y23651940D01*
X4180911Y23546238D01*
X4242495Y23450678D01*
X4321467Y23368900D01*
X4414819Y23304019D01*
X4518996Y23258505D01*
X4630029Y23234093D01*
X4743689Y23231712D01*
X4855647Y23251453D01*
X4961638Y23292564D01*
X5057626Y23353480D01*
X5139953Y23431879D01*
X5205485Y23524776D01*
X5251725Y23628633D01*
X5276912Y23739493D01*
X5278725Y23869343D01*
X5256643Y23980862D01*
X5213321Y24085970D01*
X5155700Y24172696D01*
X5155700Y28955974D01*
X5156834Y28957054D01*
X5222366Y29049951D01*
X5268606Y29153808D01*
X5293793Y29264668D01*
X5295606Y29394518D01*
X5273524Y29506037D01*
X5230202Y29611145D01*
X5172581Y29697871D01*
X5172581Y37546709D01*
X8502249Y40876378D01*
X8589447Y40891753D01*
X8695438Y40932864D01*
X8791426Y40993780D01*
X8873753Y41072179D01*
X8939285Y41165076D01*
X8985525Y41268933D01*
X9010712Y41379793D01*
X9012525Y41509643D01*
X8990443Y41621162D01*
X8963923Y41685505D01*
X11201890Y39447538D01*
X11201890Y39447538D01*
G37*
X11201890Y39447538D02*
X11201890Y23912762D01*
X11107179Y23818051D01*
X11073296Y23811587D01*
X11073296Y35928904D01*
X11069177Y35970911D01*
X11065502Y36012914D01*
X11064833Y36015218D01*
X11064598Y36017611D01*
X11052394Y36058032D01*
X11040635Y36098508D01*
X11039530Y36100639D01*
X11038836Y36102939D01*
X11019035Y36140178D01*
X10999617Y36177641D01*
X10998118Y36179519D01*
X10996991Y36181638D01*
X10970319Y36214341D01*
X10944009Y36247298D01*
X10940714Y36250640D01*
X10940657Y36250710D01*
X10940592Y36250763D01*
X10939532Y36251839D01*
X9784928Y37406444D01*
X9765143Y37506362D01*
X9721821Y37611470D01*
X9658909Y37706160D01*
X9578803Y37786828D01*
X9484553Y37850400D01*
X9379751Y37894454D01*
X9268388Y37917314D01*
X9154706Y37918108D01*
X9043035Y37896805D01*
X8937628Y37854218D01*
X8842500Y37791968D01*
X8761275Y37712427D01*
X8697047Y37618624D01*
X8652262Y37514132D01*
X8628625Y37402931D01*
X8628508Y37394523D01*
X8598535Y37388805D01*
X8493128Y37346218D01*
X8398000Y37283968D01*
X8316775Y37204427D01*
X8252547Y37110624D01*
X8207762Y37006132D01*
X8184125Y36894931D01*
X8182538Y36781257D01*
X8203060Y36669440D01*
X8244911Y36563738D01*
X8306300Y36468481D01*
X8306300Y35783872D01*
X8310419Y35741869D01*
X8314094Y35699861D01*
X8314764Y35697557D01*
X8314998Y35695165D01*
X8327198Y35654756D01*
X8338961Y35614268D01*
X8340066Y35612137D01*
X8340760Y35609837D01*
X8360561Y35572598D01*
X8379979Y35535135D01*
X8381479Y35533257D01*
X8382605Y35531138D01*
X8409257Y35498459D01*
X8435587Y35465477D01*
X8438887Y35462130D01*
X8438939Y35462066D01*
X8438998Y35462017D01*
X8440064Y35460936D01*
X8969462Y34931538D01*
X8961093Y34926061D01*
X8879868Y34846520D01*
X8815640Y34752717D01*
X8770855Y34648225D01*
X8747218Y34537024D01*
X8745631Y34423350D01*
X8766153Y34311533D01*
X8808004Y34205831D01*
X8869588Y34110271D01*
X8948560Y34028493D01*
X9041912Y33963612D01*
X9146089Y33918098D01*
X9257122Y33893686D01*
X9258660Y33893654D01*
X9305611Y33846703D01*
X9305611Y32148273D01*
X9230553Y32198900D01*
X9125751Y32242954D01*
X9014388Y32265814D01*
X8900706Y32266608D01*
X8789035Y32245305D01*
X8683628Y32202718D01*
X8588500Y32140468D01*
X8507275Y32060927D01*
X8443047Y31967124D01*
X8398262Y31862632D01*
X8374625Y31751431D01*
X8373038Y31637757D01*
X8393560Y31525940D01*
X8435411Y31420238D01*
X8496995Y31324678D01*
X8575967Y31242900D01*
X8669319Y31178019D01*
X8773496Y31132505D01*
X8884529Y31108093D01*
X8886067Y31108061D01*
X8899201Y31094927D01*
X8899201Y21991073D01*
X8440179Y21532051D01*
X8344535Y21513805D01*
X8239128Y21471218D01*
X8144000Y21408968D01*
X8062775Y21329427D01*
X7998547Y21235624D01*
X7953762Y21131132D01*
X7930125Y21019931D01*
X7928538Y20906257D01*
X7949060Y20794440D01*
X7990911Y20688738D01*
X8052495Y20593178D01*
X8131467Y20511400D01*
X8224819Y20446519D01*
X8328996Y20401005D01*
X8440029Y20376593D01*
X8553689Y20374212D01*
X8665647Y20393953D01*
X8771638Y20435064D01*
X8867626Y20495980D01*
X8882272Y20509927D01*
X8973505Y20446519D01*
X9077682Y20401005D01*
X9188715Y20376593D01*
X9302375Y20374212D01*
X9414333Y20393953D01*
X9520324Y20435064D01*
X9616312Y20495980D01*
X9668168Y20545362D01*
X9692097Y20484924D01*
X9753681Y20389364D01*
X9832653Y20307586D01*
X9926005Y20242705D01*
X10030182Y20197191D01*
X10141215Y20172779D01*
X10254875Y20170398D01*
X10366833Y20190139D01*
X10472824Y20231250D01*
X10568812Y20292166D01*
X10651139Y20370565D01*
X10683117Y20415897D01*
X11227300Y19871714D01*
X11227300Y18520129D01*
X11209316Y18493864D01*
X10082143Y19621037D01*
X10045025Y19651526D01*
X10008202Y19682424D01*
X10005804Y19683742D01*
X10003691Y19685478D01*
X9961356Y19708178D01*
X9919235Y19731334D01*
X9916627Y19732161D01*
X9914216Y19733454D01*
X9868247Y19747508D01*
X9822462Y19762032D01*
X9819746Y19762337D01*
X9817128Y19763137D01*
X9769282Y19767997D01*
X9721569Y19773349D01*
X9716225Y19773387D01*
X9716122Y19773397D01*
X9716026Y19773388D01*
X9714306Y19773400D01*
X3378200Y19773400D01*
X3330399Y19768713D01*
X3282508Y19764523D01*
X3279882Y19763760D01*
X3277159Y19763493D01*
X3231125Y19749594D01*
X3185015Y19736198D01*
X3182590Y19734941D01*
X3179967Y19734149D01*
X3137479Y19711558D01*
X3094879Y19689476D01*
X3092744Y19687772D01*
X3090326Y19686486D01*
X3053018Y19656059D01*
X3015535Y19626136D01*
X3011732Y19622387D01*
X3011649Y19622319D01*
X3011586Y19622242D01*
X3010363Y19621037D01*
X393200Y17003874D01*
X393200Y22095080D01*
X425725Y22168133D01*
X450912Y22278993D01*
X452725Y22408843D01*
X430643Y22520362D01*
X393200Y22611206D01*
X393200Y27673800D01*
X2946400Y27673800D01*
X2994209Y27678488D01*
X3042091Y27682677D01*
X3044717Y27683440D01*
X3047441Y27683707D01*
X3093488Y27697609D01*
X3139585Y27711002D01*
X3142010Y27712259D01*
X3144633Y27713051D01*
X3187121Y27735642D01*
X3229721Y27757724D01*
X3231856Y27759428D01*
X3234274Y27760714D01*
X3271551Y27791116D01*
X3309065Y27821063D01*
X3312869Y27824814D01*
X3312951Y27824881D01*
X3313013Y27824956D01*
X3314237Y27826163D01*
X4242300Y28754226D01*
X4242300Y24171629D01*
X4188547Y24093124D01*
X4143762Y23988632D01*
X4120125Y23877431D01*
X4118538Y23763757D01*
X4139060Y23651940D01*
X4180911Y23546238D01*
X4242495Y23450678D01*
X4321467Y23368900D01*
X4414819Y23304019D01*
X4518996Y23258505D01*
X4630029Y23234093D01*
X4743689Y23231712D01*
X4855647Y23251453D01*
X4961638Y23292564D01*
X5057626Y23353480D01*
X5139953Y23431879D01*
X5205485Y23524776D01*
X5251725Y23628633D01*
X5276912Y23739493D01*
X5278725Y23869343D01*
X5256643Y23980862D01*
X5213321Y24085970D01*
X5155700Y24172696D01*
X5155700Y28955974D01*
X5156834Y28957054D01*
X5222366Y29049951D01*
X5268606Y29153808D01*
X5293793Y29264668D01*
X5295606Y29394518D01*
X5273524Y29506037D01*
X5230202Y29611145D01*
X5172581Y29697871D01*
X5172581Y37546709D01*
X8502249Y40876378D01*
X8589447Y40891753D01*
X8695438Y40932864D01*
X8791426Y40993780D01*
X8873753Y41072179D01*
X8939285Y41165076D01*
X8985525Y41268933D01*
X9010712Y41379793D01*
X9012525Y41509643D01*
X8990443Y41621162D01*
X8963923Y41685505D01*
X11201890Y39447538D01*
G36*
X14973800Y23480577D02*
X14978488Y23432768D01*
X14982677Y23384886D01*
X14983440Y23382260D01*
X14983707Y23379536D01*
X14997609Y23333489D01*
X15011002Y23287392D01*
X15012259Y23284967D01*
X15013051Y23282344D01*
X15035642Y23239856D01*
X15057724Y23197256D01*
X15059428Y23195121D01*
X15060714Y23192703D01*
X15091116Y23155426D01*
X15121063Y23117912D01*
X15124814Y23114108D01*
X15124881Y23114026D01*
X15124956Y23113964D01*
X15126163Y23112740D01*
X15862800Y22376103D01*
X15862800Y21245480D01*
X12473020Y17855700D01*
X12178086Y17855700D01*
X12190485Y17873276D01*
X12236725Y17977133D01*
X12261912Y18087993D01*
X12263725Y18217843D01*
X12241643Y18329362D01*
X12198321Y18434470D01*
X12140700Y18521196D01*
X12140700Y20060886D01*
X12136581Y20102889D01*
X12132906Y20144897D01*
X12132236Y20147201D01*
X12132002Y20149593D01*
X12119802Y20190002D01*
X12108039Y20230490D01*
X12106934Y20232621D01*
X12106240Y20234921D01*
X12086439Y20272160D01*
X12067021Y20309623D01*
X12065521Y20311501D01*
X12064395Y20313620D01*
X12037743Y20346299D01*
X12011413Y20379281D01*
X12008113Y20382628D01*
X12008061Y20382692D01*
X12008002Y20382741D01*
X12006936Y20383822D01*
X11073296Y21317462D01*
X11073296Y22670010D01*
X11107029Y22662593D01*
X11220689Y22660212D01*
X11332647Y22679953D01*
X11438638Y22721064D01*
X11534626Y22781980D01*
X11616953Y22860379D01*
X11672817Y22939571D01*
X11687467Y22924400D01*
X11780819Y22859519D01*
X11884996Y22814005D01*
X11996029Y22789593D01*
X12109689Y22787212D01*
X12221647Y22806953D01*
X12327638Y22848064D01*
X12423626Y22908980D01*
X12439591Y22924183D01*
X12512967Y22848200D01*
X12606319Y22783319D01*
X12710496Y22737805D01*
X12821529Y22713393D01*
X12935189Y22711012D01*
X13047147Y22730753D01*
X13153138Y22771864D01*
X13249126Y22832780D01*
X13331453Y22911179D01*
X13396985Y23004076D01*
X13443225Y23107933D01*
X13443350Y23108481D01*
X13535996Y23068005D01*
X13647029Y23043593D01*
X13760689Y23041212D01*
X13872647Y23060953D01*
X13978638Y23102064D01*
X14074626Y23162980D01*
X14156953Y23241379D01*
X14222485Y23334276D01*
X14268725Y23438133D01*
X14293912Y23548993D01*
X14295725Y23678843D01*
X14273643Y23790362D01*
X14230321Y23895470D01*
X14167409Y23990160D01*
X14087303Y24070828D01*
X14023220Y24114052D01*
X14061546Y24200133D01*
X14086733Y24310993D01*
X14086804Y24316111D01*
X14973800Y25203107D01*
X14973800Y23480577D01*
X14973800Y23480577D01*
G37*
X14973800Y23480577D02*
X14978488Y23432768D01*
X14982677Y23384886D01*
X14983440Y23382260D01*
X14983707Y23379536D01*
X14997609Y23333489D01*
X15011002Y23287392D01*
X15012259Y23284967D01*
X15013051Y23282344D01*
X15035642Y23239856D01*
X15057724Y23197256D01*
X15059428Y23195121D01*
X15060714Y23192703D01*
X15091116Y23155426D01*
X15121063Y23117912D01*
X15124814Y23114108D01*
X15124881Y23114026D01*
X15124956Y23113964D01*
X15126163Y23112740D01*
X15862800Y22376103D01*
X15862800Y21245480D01*
X12473020Y17855700D01*
X12178086Y17855700D01*
X12190485Y17873276D01*
X12236725Y17977133D01*
X12261912Y18087993D01*
X12263725Y18217843D01*
X12241643Y18329362D01*
X12198321Y18434470D01*
X12140700Y18521196D01*
X12140700Y20060886D01*
X12136581Y20102889D01*
X12132906Y20144897D01*
X12132236Y20147201D01*
X12132002Y20149593D01*
X12119802Y20190002D01*
X12108039Y20230490D01*
X12106934Y20232621D01*
X12106240Y20234921D01*
X12086439Y20272160D01*
X12067021Y20309623D01*
X12065521Y20311501D01*
X12064395Y20313620D01*
X12037743Y20346299D01*
X12011413Y20379281D01*
X12008113Y20382628D01*
X12008061Y20382692D01*
X12008002Y20382741D01*
X12006936Y20383822D01*
X11073296Y21317462D01*
X11073296Y22670010D01*
X11107029Y22662593D01*
X11220689Y22660212D01*
X11332647Y22679953D01*
X11438638Y22721064D01*
X11534626Y22781980D01*
X11616953Y22860379D01*
X11672817Y22939571D01*
X11687467Y22924400D01*
X11780819Y22859519D01*
X11884996Y22814005D01*
X11996029Y22789593D01*
X12109689Y22787212D01*
X12221647Y22806953D01*
X12327638Y22848064D01*
X12423626Y22908980D01*
X12439591Y22924183D01*
X12512967Y22848200D01*
X12606319Y22783319D01*
X12710496Y22737805D01*
X12821529Y22713393D01*
X12935189Y22711012D01*
X13047147Y22730753D01*
X13153138Y22771864D01*
X13249126Y22832780D01*
X13331453Y22911179D01*
X13396985Y23004076D01*
X13443225Y23107933D01*
X13443350Y23108481D01*
X13535996Y23068005D01*
X13647029Y23043593D01*
X13760689Y23041212D01*
X13872647Y23060953D01*
X13978638Y23102064D01*
X14074626Y23162980D01*
X14156953Y23241379D01*
X14222485Y23334276D01*
X14268725Y23438133D01*
X14293912Y23548993D01*
X14295725Y23678843D01*
X14273643Y23790362D01*
X14230321Y23895470D01*
X14167409Y23990160D01*
X14087303Y24070828D01*
X14023220Y24114052D01*
X14061546Y24200133D01*
X14086733Y24310993D01*
X14086804Y24316111D01*
X14973800Y25203107D01*
X14973800Y23480577D01*
G36*
X16745864Y23204184D02*
X16719051Y23171541D01*
X16691971Y23139268D01*
X16690816Y23137167D01*
X16689289Y23135308D01*
X16669341Y23098105D01*
X16649052Y23061199D01*
X16014200Y23696051D01*
X16014200Y25514800D01*
X19056480Y25514800D01*
X16745864Y23204184D01*
X16745864Y23204184D01*
G37*
X16745864Y23204184D02*
X16719051Y23171541D01*
X16691971Y23139268D01*
X16690816Y23137167D01*
X16689289Y23135308D01*
X16669341Y23098105D01*
X16649052Y23061199D01*
X16014200Y23696051D01*
X16014200Y25514800D01*
X19056480Y25514800D01*
X16745864Y23204184D01*
G36*
X20981172Y43904966D02*
X20898651Y43939654D01*
X20794422Y43961050D01*
X20515936Y44239536D01*
X20483293Y44266349D01*
X20451020Y44293429D01*
X20448919Y44294584D01*
X20447060Y44296111D01*
X20409857Y44316059D01*
X20372913Y44336369D01*
X20370623Y44337095D01*
X20368507Y44338230D01*
X20328162Y44350565D01*
X20287953Y44363320D01*
X20285568Y44363588D01*
X20283270Y44364290D01*
X20241276Y44368556D01*
X20199377Y44373255D01*
X20194682Y44373288D01*
X20194595Y44373297D01*
X20194514Y44373289D01*
X20193000Y44373300D01*
X14685232Y44373300D01*
X14602653Y44429000D01*
X14497851Y44473054D01*
X14386488Y44495914D01*
X14272806Y44496708D01*
X14161135Y44475405D01*
X14055728Y44432818D01*
X13960600Y44370568D01*
X13879375Y44291027D01*
X13815147Y44197224D01*
X13770362Y44092732D01*
X13746725Y43981531D01*
X13745138Y43867857D01*
X13765660Y43756040D01*
X13807511Y43650338D01*
X13869095Y43554778D01*
X13948067Y43473000D01*
X14041419Y43408119D01*
X14145596Y43362605D01*
X14256629Y43338193D01*
X14370289Y43335812D01*
X14482247Y43355553D01*
X14588238Y43396664D01*
X14684226Y43457580D01*
X14686662Y43459900D01*
X20003828Y43459900D01*
X20149684Y43314044D01*
X20166460Y43222640D01*
X20208311Y43116938D01*
X20269895Y43021378D01*
X20348867Y42939600D01*
X20442219Y42874719D01*
X20546396Y42829205D01*
X20657429Y42804793D01*
X20771089Y42802412D01*
X20883047Y42822153D01*
X20989038Y42863264D01*
X21085026Y42924180D01*
X21167353Y43002579D01*
X21232885Y43095476D01*
X21279125Y43199333D01*
X21304312Y43310193D01*
X21306125Y43440043D01*
X21284043Y43551562D01*
X21248611Y43637527D01*
X22805701Y42080437D01*
X22805701Y26842472D01*
X22169550Y26206322D01*
X22169725Y26218843D01*
X22147643Y26330362D01*
X22104321Y26435470D01*
X22041409Y26530160D01*
X21961303Y26610828D01*
X21867053Y26674400D01*
X21762251Y26718454D01*
X21650888Y26741314D01*
X21537206Y26742108D01*
X21425535Y26720805D01*
X21320128Y26678218D01*
X21229175Y26618700D01*
X20877374Y26618700D01*
X21932437Y27673763D01*
X21962948Y27710908D01*
X21993824Y27747704D01*
X21995140Y27750098D01*
X21996879Y27752215D01*
X22019599Y27794589D01*
X22042734Y27836671D01*
X22043561Y27839279D01*
X22044854Y27841690D01*
X22058908Y27887659D01*
X22073432Y27933444D01*
X22073737Y27936160D01*
X22074537Y27938778D01*
X22079397Y27986624D01*
X22084749Y28034337D01*
X22084787Y28039681D01*
X22084797Y28039784D01*
X22084788Y28039880D01*
X22084800Y28041600D01*
X22084800Y30629480D01*
X22117325Y30702533D01*
X22142512Y30813393D01*
X22144325Y30943243D01*
X22122243Y31054762D01*
X22078921Y31159870D01*
X22016009Y31254560D01*
X21935903Y31335228D01*
X21841653Y31398800D01*
X21736851Y31442854D01*
X21625488Y31465714D01*
X21511806Y31466508D01*
X21400135Y31445205D01*
X21294728Y31402618D01*
X21199600Y31340368D01*
X21118375Y31260827D01*
X21054147Y31167024D01*
X21009362Y31062532D01*
X20985725Y30951331D01*
X20984138Y30837657D01*
X21004660Y30725840D01*
X21044400Y30625470D01*
X21044400Y28257074D01*
X19342526Y26555200D01*
X15752497Y26555200D01*
X15671850Y26589101D01*
X15685616Y26602210D01*
X15751148Y26695107D01*
X15797388Y26798964D01*
X15822575Y26909824D01*
X15824388Y27039674D01*
X15802306Y27151193D01*
X15758984Y27256301D01*
X15696072Y27350991D01*
X15615966Y27431659D01*
X15521716Y27495231D01*
X15416914Y27539285D01*
X15305551Y27562145D01*
X15191869Y27562939D01*
X15171962Y27559141D01*
X15171962Y28623090D01*
X18408250Y31859378D01*
X18495447Y31874753D01*
X18601438Y31915864D01*
X18697426Y31976780D01*
X18779753Y32055179D01*
X18845285Y32148076D01*
X18891525Y32251933D01*
X18916712Y32362793D01*
X18918525Y32492643D01*
X18896443Y32604162D01*
X18853121Y32709270D01*
X18790209Y32803960D01*
X18710103Y32884628D01*
X18674201Y32908844D01*
X20088722Y34323364D01*
X20137419Y34289519D01*
X20241596Y34244005D01*
X20352629Y34219593D01*
X20466289Y34217212D01*
X20578247Y34236953D01*
X20684238Y34278064D01*
X20780226Y34338980D01*
X20862553Y34417379D01*
X20928085Y34510276D01*
X20974325Y34614133D01*
X20999512Y34724993D01*
X21001325Y34854843D01*
X20979243Y34966362D01*
X20935921Y35071470D01*
X20873009Y35166160D01*
X20792903Y35246828D01*
X20698653Y35310400D01*
X20593851Y35354454D01*
X20482488Y35377314D01*
X20368806Y35378108D01*
X20257135Y35356805D01*
X20151728Y35314218D01*
X20060775Y35254700D01*
X19917486Y35254700D01*
X19875483Y35250581D01*
X19833475Y35246906D01*
X19831171Y35246236D01*
X19828779Y35246002D01*
X19788370Y35233802D01*
X19747882Y35222039D01*
X19745751Y35220934D01*
X19743451Y35220240D01*
X19706172Y35200418D01*
X19668749Y35181020D01*
X19666874Y35179523D01*
X19664752Y35178395D01*
X19632046Y35151720D01*
X19599091Y35125413D01*
X19595748Y35122117D01*
X19595680Y35122061D01*
X19595628Y35121998D01*
X19594550Y35120935D01*
X16847464Y32373850D01*
X16820651Y32341207D01*
X16793571Y32308934D01*
X16792416Y32306833D01*
X16790889Y32304974D01*
X16780238Y32285110D01*
X13985916Y29490788D01*
X13959103Y29458145D01*
X13932023Y29425872D01*
X13930868Y29423771D01*
X13929341Y29421912D01*
X13909393Y29384709D01*
X13889083Y29347765D01*
X13888357Y29345475D01*
X13887222Y29343359D01*
X13874887Y29303014D01*
X13862132Y29262805D01*
X13861864Y29260420D01*
X13861162Y29258122D01*
X13856896Y29216128D01*
X13852197Y29174229D01*
X13852164Y29169534D01*
X13852155Y29169447D01*
X13852163Y29169366D01*
X13852152Y29167852D01*
X13852152Y26156716D01*
X13589880Y25894444D01*
X13608112Y25974693D01*
X13609925Y26104543D01*
X13587843Y26216062D01*
X13544521Y26321170D01*
X13481609Y26415860D01*
X13401503Y26496528D01*
X13334520Y26541708D01*
X13334520Y39815848D01*
X13429336Y39910664D01*
X13456149Y39943307D01*
X13483229Y39975580D01*
X13484384Y39977681D01*
X13485911Y39979540D01*
X13505869Y40016762D01*
X13526169Y40053687D01*
X13526895Y40055975D01*
X13528030Y40058092D01*
X13540369Y40098452D01*
X13553120Y40138647D01*
X13553388Y40141032D01*
X13554090Y40143330D01*
X13558356Y40185324D01*
X13563055Y40227223D01*
X13563088Y40231918D01*
X13563097Y40232005D01*
X13563089Y40232086D01*
X13563100Y40233600D01*
X13563100Y51323038D01*
X20981172Y43904966D01*
X20981172Y43904966D01*
G37*
X20981172Y43904966D02*
X20898651Y43939654D01*
X20794422Y43961050D01*
X20515936Y44239536D01*
X20483293Y44266349D01*
X20451020Y44293429D01*
X20448919Y44294584D01*
X20447060Y44296111D01*
X20409857Y44316059D01*
X20372913Y44336369D01*
X20370623Y44337095D01*
X20368507Y44338230D01*
X20328162Y44350565D01*
X20287953Y44363320D01*
X20285568Y44363588D01*
X20283270Y44364290D01*
X20241276Y44368556D01*
X20199377Y44373255D01*
X20194682Y44373288D01*
X20194595Y44373297D01*
X20194514Y44373289D01*
X20193000Y44373300D01*
X14685232Y44373300D01*
X14602653Y44429000D01*
X14497851Y44473054D01*
X14386488Y44495914D01*
X14272806Y44496708D01*
X14161135Y44475405D01*
X14055728Y44432818D01*
X13960600Y44370568D01*
X13879375Y44291027D01*
X13815147Y44197224D01*
X13770362Y44092732D01*
X13746725Y43981531D01*
X13745138Y43867857D01*
X13765660Y43756040D01*
X13807511Y43650338D01*
X13869095Y43554778D01*
X13948067Y43473000D01*
X14041419Y43408119D01*
X14145596Y43362605D01*
X14256629Y43338193D01*
X14370289Y43335812D01*
X14482247Y43355553D01*
X14588238Y43396664D01*
X14684226Y43457580D01*
X14686662Y43459900D01*
X20003828Y43459900D01*
X20149684Y43314044D01*
X20166460Y43222640D01*
X20208311Y43116938D01*
X20269895Y43021378D01*
X20348867Y42939600D01*
X20442219Y42874719D01*
X20546396Y42829205D01*
X20657429Y42804793D01*
X20771089Y42802412D01*
X20883047Y42822153D01*
X20989038Y42863264D01*
X21085026Y42924180D01*
X21167353Y43002579D01*
X21232885Y43095476D01*
X21279125Y43199333D01*
X21304312Y43310193D01*
X21306125Y43440043D01*
X21284043Y43551562D01*
X21248611Y43637527D01*
X22805701Y42080437D01*
X22805701Y26842472D01*
X22169550Y26206322D01*
X22169725Y26218843D01*
X22147643Y26330362D01*
X22104321Y26435470D01*
X22041409Y26530160D01*
X21961303Y26610828D01*
X21867053Y26674400D01*
X21762251Y26718454D01*
X21650888Y26741314D01*
X21537206Y26742108D01*
X21425535Y26720805D01*
X21320128Y26678218D01*
X21229175Y26618700D01*
X20877374Y26618700D01*
X21932437Y27673763D01*
X21962948Y27710908D01*
X21993824Y27747704D01*
X21995140Y27750098D01*
X21996879Y27752215D01*
X22019599Y27794589D01*
X22042734Y27836671D01*
X22043561Y27839279D01*
X22044854Y27841690D01*
X22058908Y27887659D01*
X22073432Y27933444D01*
X22073737Y27936160D01*
X22074537Y27938778D01*
X22079397Y27986624D01*
X22084749Y28034337D01*
X22084787Y28039681D01*
X22084797Y28039784D01*
X22084788Y28039880D01*
X22084800Y28041600D01*
X22084800Y30629480D01*
X22117325Y30702533D01*
X22142512Y30813393D01*
X22144325Y30943243D01*
X22122243Y31054762D01*
X22078921Y31159870D01*
X22016009Y31254560D01*
X21935903Y31335228D01*
X21841653Y31398800D01*
X21736851Y31442854D01*
X21625488Y31465714D01*
X21511806Y31466508D01*
X21400135Y31445205D01*
X21294728Y31402618D01*
X21199600Y31340368D01*
X21118375Y31260827D01*
X21054147Y31167024D01*
X21009362Y31062532D01*
X20985725Y30951331D01*
X20984138Y30837657D01*
X21004660Y30725840D01*
X21044400Y30625470D01*
X21044400Y28257074D01*
X19342526Y26555200D01*
X15752497Y26555200D01*
X15671850Y26589101D01*
X15685616Y26602210D01*
X15751148Y26695107D01*
X15797388Y26798964D01*
X15822575Y26909824D01*
X15824388Y27039674D01*
X15802306Y27151193D01*
X15758984Y27256301D01*
X15696072Y27350991D01*
X15615966Y27431659D01*
X15521716Y27495231D01*
X15416914Y27539285D01*
X15305551Y27562145D01*
X15191869Y27562939D01*
X15171962Y27559141D01*
X15171962Y28623090D01*
X18408250Y31859378D01*
X18495447Y31874753D01*
X18601438Y31915864D01*
X18697426Y31976780D01*
X18779753Y32055179D01*
X18845285Y32148076D01*
X18891525Y32251933D01*
X18916712Y32362793D01*
X18918525Y32492643D01*
X18896443Y32604162D01*
X18853121Y32709270D01*
X18790209Y32803960D01*
X18710103Y32884628D01*
X18674201Y32908844D01*
X20088722Y34323364D01*
X20137419Y34289519D01*
X20241596Y34244005D01*
X20352629Y34219593D01*
X20466289Y34217212D01*
X20578247Y34236953D01*
X20684238Y34278064D01*
X20780226Y34338980D01*
X20862553Y34417379D01*
X20928085Y34510276D01*
X20974325Y34614133D01*
X20999512Y34724993D01*
X21001325Y34854843D01*
X20979243Y34966362D01*
X20935921Y35071470D01*
X20873009Y35166160D01*
X20792903Y35246828D01*
X20698653Y35310400D01*
X20593851Y35354454D01*
X20482488Y35377314D01*
X20368806Y35378108D01*
X20257135Y35356805D01*
X20151728Y35314218D01*
X20060775Y35254700D01*
X19917486Y35254700D01*
X19875483Y35250581D01*
X19833475Y35246906D01*
X19831171Y35246236D01*
X19828779Y35246002D01*
X19788370Y35233802D01*
X19747882Y35222039D01*
X19745751Y35220934D01*
X19743451Y35220240D01*
X19706172Y35200418D01*
X19668749Y35181020D01*
X19666874Y35179523D01*
X19664752Y35178395D01*
X19632046Y35151720D01*
X19599091Y35125413D01*
X19595748Y35122117D01*
X19595680Y35122061D01*
X19595628Y35121998D01*
X19594550Y35120935D01*
X16847464Y32373850D01*
X16820651Y32341207D01*
X16793571Y32308934D01*
X16792416Y32306833D01*
X16790889Y32304974D01*
X16780238Y32285110D01*
X13985916Y29490788D01*
X13959103Y29458145D01*
X13932023Y29425872D01*
X13930868Y29423771D01*
X13929341Y29421912D01*
X13909393Y29384709D01*
X13889083Y29347765D01*
X13888357Y29345475D01*
X13887222Y29343359D01*
X13874887Y29303014D01*
X13862132Y29262805D01*
X13861864Y29260420D01*
X13861162Y29258122D01*
X13856896Y29216128D01*
X13852197Y29174229D01*
X13852164Y29169534D01*
X13852155Y29169447D01*
X13852163Y29169366D01*
X13852152Y29167852D01*
X13852152Y26156716D01*
X13589880Y25894444D01*
X13608112Y25974693D01*
X13609925Y26104543D01*
X13587843Y26216062D01*
X13544521Y26321170D01*
X13481609Y26415860D01*
X13401503Y26496528D01*
X13334520Y26541708D01*
X13334520Y39815848D01*
X13429336Y39910664D01*
X13456149Y39943307D01*
X13483229Y39975580D01*
X13484384Y39977681D01*
X13485911Y39979540D01*
X13505869Y40016762D01*
X13526169Y40053687D01*
X13526895Y40055975D01*
X13528030Y40058092D01*
X13540369Y40098452D01*
X13553120Y40138647D01*
X13553388Y40141032D01*
X13554090Y40143330D01*
X13558356Y40185324D01*
X13563055Y40227223D01*
X13563088Y40231918D01*
X13563097Y40232005D01*
X13563089Y40232086D01*
X13563100Y40233600D01*
X13563100Y51323038D01*
X20981172Y43904966D01*
M02*
