G04 #@! TF.GenerationSoftware,KiCad,Pcbnew,5.0.0-fee4fd1~65~ubuntu16.04.1*
G04 #@! TF.CreationDate,2018-07-27T11:24:30-07:00*
G04 #@! TF.ProjectId,fk-weather,666B2D776561746865722E6B69636164,0.1*
G04 #@! TF.SameCoordinates,PX791ddc0PY791ddc0*
G04 #@! TF.FileFunction,Copper,L2,Bot,Signal*
G04 #@! TF.FilePolarity,Positive*
%FSLAX46Y46*%
G04 Gerber Fmt 4.6, Leading zero omitted, Abs format (unit mm)*
G04 Created by KiCad (PCBNEW 5.0.0-fee4fd1~65~ubuntu16.04.1) date Fri Jul 27 11:24:30 2018*
%MOMM*%
%LPD*%
G01*
G04 APERTURE LIST*
G04 #@! TA.AperFunction,ComponentPad*
%ADD10C,1.900000*%
G04 #@! TD*
G04 #@! TA.AperFunction,ComponentPad*
%ADD11C,1.600000*%
G04 #@! TD*
G04 #@! TA.AperFunction,ComponentPad*
%ADD12C,1.100000*%
G04 #@! TD*
G04 #@! TA.AperFunction,ComponentPad*
%ADD13C,1.400000*%
G04 #@! TD*
G04 #@! TA.AperFunction,SMDPad,CuDef*
%ADD14R,2.300000X4.500000*%
G04 #@! TD*
G04 #@! TA.AperFunction,ViaPad*
%ADD15C,0.500000*%
G04 #@! TD*
G04 #@! TA.AperFunction,Conductor*
%ADD16C,0.254000*%
G04 #@! TD*
G04 #@! TA.AperFunction,Conductor*
%ADD17C,0.381000*%
G04 #@! TD*
G04 #@! TA.AperFunction,Conductor*
%ADD18C,0.253000*%
G04 #@! TD*
G04 APERTURE END LIST*
D10*
G04 #@! TO.P,J1,10*
G04 #@! TO.N,N/C*
X-6736000Y-62738000D03*
D11*
G04 #@! TO.P,J1,9*
G04 #@! TO.N,Net-(J1-Pad9)*
X-7511000Y-59113000D03*
G04 #@! TO.P,J1,8*
G04 #@! TO.N,Net-(J1-Pad8)*
X-7511000Y-66363000D03*
D12*
G04 #@! TO.P,J1,7*
G04 #@! TO.N,Net-(J1-Pad7)*
X-10161000Y-60313000D03*
G04 #@! TO.P,J1,6*
G04 #@! TO.N,Net-(C10-Pad1)*
X-10161000Y-65163000D03*
X-8836000Y-65538000D03*
G04 #@! TO.P,J1,7*
G04 #@! TO.N,Net-(J1-Pad7)*
X-8836000Y-59938000D03*
G04 #@! TD*
D13*
G04 #@! TO.P,J10,1*
G04 #@! TO.N,Net-(J10-Pad1)*
X-15916972Y4417332D03*
G04 #@! TO.P,J10,2*
G04 #@! TO.N,/RAIN_2*
X-13376972Y3397332D03*
G04 #@! TO.P,J10,3*
G04 #@! TO.N,Net-(J10-Pad3)*
X-15916972Y2377332D03*
G04 #@! TO.P,J10,4*
G04 #@! TO.N,Net-(J10-Pad4)*
X-13376972Y1357332D03*
G04 #@! TO.P,J10,5*
G04 #@! TO.N,/RAIN_5*
X-15916972Y337332D03*
G04 #@! TO.P,J10,6*
G04 #@! TO.N,Net-(J10-Pad6)*
X-13376972Y-682668D03*
G04 #@! TD*
G04 #@! TO.P,J11,1*
G04 #@! TO.N,Net-(J11-Pad1)*
X-15902972Y19917332D03*
G04 #@! TO.P,J11,2*
G04 #@! TO.N,Net-(J11-Pad2)*
X-13362972Y18897332D03*
G04 #@! TO.P,J11,3*
G04 #@! TO.N,Net-(J11-Pad3)*
X-15902972Y17877332D03*
G04 #@! TO.P,J11,4*
G04 #@! TO.N,Net-(J11-Pad4)*
X-13362972Y16857332D03*
G04 #@! TO.P,J11,5*
G04 #@! TO.N,Net-(J11-Pad5)*
X-15902972Y15837332D03*
G04 #@! TO.P,J11,6*
G04 #@! TO.N,Net-(J11-Pad6)*
X-13362972Y14817332D03*
G04 #@! TD*
D14*
G04 #@! TO.P,BT1,1*
G04 #@! TO.N,Net-(BT1-Pad1)*
X-35179000Y-65350000D03*
G04 #@! TO.P,BT1,2*
G04 #@! TO.N,GND*
X-35179000Y-48950000D03*
G04 #@! TD*
D15*
G04 #@! TO.N,GND*
X-32486600Y-27330400D03*
X-34061400Y-27330400D03*
X-22771100Y14516100D03*
X-22771100Y15290800D03*
X-22783800Y16052800D03*
X-27597100Y-36753800D03*
X-28549600Y-36753800D03*
X-28549600Y-35928300D03*
X-27597100Y-35928300D03*
X-25946100Y-24180800D03*
X-24930100Y-25196800D03*
X-23279100Y-31927800D03*
X-23977600Y-32626300D03*
X-33312100Y-31864300D03*
X-32296100Y-31864300D03*
X-25501600Y-35928300D03*
X-26073100Y-35356800D03*
G04 #@! TO.N,3V3*
X-20828000Y-49570000D03*
X-19685000Y-40259000D03*
X-19532600Y-30911800D03*
X-28524200Y24765000D03*
X-28524200Y6680200D03*
X-27079372Y13792200D03*
X-19558000Y-26187400D03*
X-35280600Y-39738300D03*
X-25628600Y-31038800D03*
X-25877937Y-30090969D03*
G04 #@! TO.N,/SWDIO*
X-22783800Y-24638000D03*
X-27613779Y-32689800D03*
G04 #@! TO.N,/SWCLK*
X-20701000Y-22275800D03*
X-27406600Y-33451800D03*
G04 #@! TO.N,/A3*
X-29464000Y-10033000D03*
X-29946600Y-33832800D03*
G04 #@! TO.N,/MOSI*
X-32169100Y-25387300D03*
X-32613600Y-36118800D03*
G04 #@! TO.N,/SCK*
X-31796507Y-22601707D03*
X-31864914Y-36118800D03*
G04 #@! TO.N,/MISO*
X-32359600Y-20243800D03*
X-30912414Y-36322614D03*
G04 #@! TO.N,/USB-*
X-17780000Y-63500000D03*
X-23152100Y-41770300D03*
G04 #@! TO.N,/USB+*
X-17780000Y-62484000D03*
X-22390100Y-41770300D03*
G04 #@! TO.N,Net-(J1-Pad4)*
X-17145000Y-36195000D03*
X-11684000Y-61976000D03*
G04 #@! TO.N,/RAIN*
X-17094200Y-2362200D03*
X-25399693Y-41110207D03*
G04 #@! TO.N,/WIND_DIR*
X-23876000Y21590000D03*
X-28092400Y-31026100D03*
G04 #@! TO.N,/WIND_SPEED*
X-17856200Y13769372D03*
X-25907693Y-41618207D03*
G04 #@! TO.N,/FLASH_CS*
X-29438600Y-38912800D03*
X-31915100Y-19735800D03*
G04 #@! TO.N,/SCL1*
X-25273000Y-42545000D03*
X-23876000Y-42291000D03*
X-24765000Y-44069000D03*
X-29337000Y-53213000D03*
G04 #@! TO.N,/SDA1*
X-24130000Y-44704000D03*
X-28321000Y-53213000D03*
G04 #@! TO.N,/SCL2*
X-23368000Y-53340000D03*
X-33197800Y-39141400D03*
G04 #@! TO.N,/SDA2*
X-23368000Y-54356000D03*
X-34163000Y-38582600D03*
G04 #@! TO.N,/PERIPH_EN*
X-40259000Y-12573000D03*
X-36423600Y-33261300D03*
G04 #@! TO.N,Net-(BT1-Pad1)*
X-29845000Y-61849000D03*
G04 #@! TD*
D16*
G04 #@! TO.N,GND*
X-34061400Y-27330400D02*
X-32486600Y-27330400D01*
X-22783800Y16052800D02*
X-22783800Y15303500D01*
X-22783800Y15303500D02*
X-22771100Y15290800D01*
X-27597100Y-36753800D02*
X-27597100Y-35928300D01*
X-28549600Y-35928300D02*
X-28549600Y-36753800D01*
X-26073100Y-35356800D02*
X-27025600Y-35356800D01*
X-27025600Y-35356800D02*
X-27597100Y-35928300D01*
X-24930100Y-25196800D02*
X-25946100Y-24180800D01*
X-23977600Y-32626300D02*
X-23279100Y-31927800D01*
X-32296100Y-31864300D02*
X-33312100Y-31864300D01*
X-26073100Y-35356800D02*
X-25501600Y-35928300D01*
D17*
G04 #@! TO.N,3V3*
X-35280600Y-39738300D02*
X-35280600Y-38608000D01*
X-34315400Y-37820600D02*
X-34493200Y-37820600D01*
X-34493200Y-37820600D02*
X-35280600Y-38608000D01*
X-19685000Y-40259000D02*
X-19685000Y-41021000D01*
X-19685000Y-41021000D02*
X-20828000Y-42164000D01*
X-20828000Y-42164000D02*
X-20828000Y-49570000D01*
X-21564600Y-31038800D02*
X-21386800Y-30861000D01*
X-21386800Y-30861000D02*
X-19558000Y-29032200D01*
D16*
X-19532600Y-30911800D02*
X-21336000Y-30911800D01*
X-21336000Y-30911800D02*
X-21386800Y-30861000D01*
X-28524200Y12347372D02*
X-28524200Y20142200D01*
X-28524200Y20142200D02*
X-28524200Y20243800D01*
X-28524200Y24765000D02*
X-28524200Y20142200D01*
D17*
X-34315400Y-37820600D02*
X-31408294Y-37820600D01*
X-28434106Y-39738300D02*
X-24739600Y-36043794D01*
X-31408294Y-37820600D02*
X-29490594Y-39738300D01*
X-24739600Y-36043794D02*
X-24739600Y-34482223D01*
X-25628600Y-33593223D02*
X-25628600Y-31038800D01*
X-29490594Y-39738300D02*
X-28434106Y-39738300D01*
X-24739600Y-34482223D02*
X-25628600Y-33593223D01*
D16*
X-28524200Y6680200D02*
X-28524200Y12347372D01*
X-28498800Y6705600D02*
X-28524200Y6680200D01*
X-28524200Y12347372D02*
X-27079372Y13792200D01*
D17*
X-19558000Y-26187400D02*
X-19558000Y-28879800D01*
X-19558000Y-29032200D02*
X-19558000Y-28879800D01*
X-25628600Y-31038800D02*
X-21564600Y-31038800D01*
D16*
G04 #@! TO.N,/SWDIO*
X-26276300Y-28130500D02*
X-22783800Y-24638000D01*
X-27613779Y-32689800D02*
X-26407338Y-31483359D01*
X-26407338Y-31483359D02*
X-26407338Y-28261538D01*
X-26407338Y-28261538D02*
X-26276300Y-28130500D01*
X-27639190Y-32664389D02*
X-27613779Y-32689800D01*
G04 #@! TO.N,/SWCLK*
X-20701000Y-22275800D02*
X-21205114Y-22275800D01*
X-21205114Y-22275800D02*
X-23952200Y-25022886D01*
X-23952200Y-25022886D02*
X-23952200Y-25044400D01*
X-23952200Y-25044400D02*
X-26813748Y-27905948D01*
X-27758950Y-33451800D02*
X-27406600Y-33451800D01*
X-26813748Y-27905948D02*
X-26813748Y-31106255D01*
X-26813748Y-31106255D02*
X-28143189Y-32435696D01*
X-28143189Y-32435696D02*
X-28143189Y-33067561D01*
X-28143189Y-33067561D02*
X-27758950Y-33451800D01*
G04 #@! TO.N,/A3*
X-29464000Y-10033000D02*
X-29464000Y-17437080D01*
X-29464000Y-17437080D02*
X-29464010Y-17437090D01*
X-29946600Y-33832800D02*
X-29476710Y-33362910D01*
X-29476710Y-33362910D02*
X-29464010Y-33362910D01*
X-29464010Y-33362910D02*
X-29464010Y-17437090D01*
G04 #@! TO.N,/MOSI*
X-31766699Y-35271899D02*
X-31766699Y-26085800D01*
X-31766699Y-26085800D02*
X-31766699Y-25789701D01*
X-31766699Y-25789701D02*
X-32169100Y-25387300D01*
X-32613600Y-36118800D02*
X-31766699Y-35271899D01*
G04 #@! TO.N,/SCK*
X-31864914Y-36118800D02*
X-31360289Y-35614175D01*
X-31360289Y-23037925D02*
X-31546508Y-22851706D01*
X-31360289Y-35614175D02*
X-31360289Y-23037925D01*
X-31546508Y-22851706D02*
X-31796507Y-22601707D01*
G04 #@! TO.N,/MISO*
X-32359600Y-20243800D02*
X-32359600Y-21289928D01*
X-32359600Y-21289928D02*
X-30912414Y-22737114D01*
X-30912414Y-22737114D02*
X-30912414Y-23876614D01*
X-30912414Y-36322614D02*
X-30912414Y-23876614D01*
G04 #@! TO.N,/USB-*
X-17780000Y-63500000D02*
X-22660799Y-58619201D01*
X-22660799Y-58619201D02*
X-22660799Y-42261601D01*
X-22660799Y-42261601D02*
X-23152100Y-41770300D01*
G04 #@! TO.N,/USB+*
X-22390100Y-41770300D02*
X-22140101Y-42020299D01*
X-22140101Y-42020299D02*
X-22140101Y-58123899D01*
X-22140101Y-58123899D02*
X-17780000Y-62484000D01*
G04 #@! TO.N,Net-(J1-Pad4)*
X-20446980Y-37718980D02*
X-18923000Y-36195000D01*
X-18923000Y-36195000D02*
X-17145000Y-36195000D01*
X-20446980Y-37845980D02*
X-20446980Y-37718980D01*
X-11684000Y-61976000D02*
X-12037553Y-61976000D01*
X-12037553Y-61976000D02*
X-12291553Y-62230000D01*
X-12291553Y-62230000D02*
X-17272000Y-62230000D01*
X-21733691Y-57768309D02*
X-21733691Y-42256891D01*
X-17272000Y-62230000D02*
X-21733691Y-57768309D01*
X-21733691Y-42256891D02*
X-20446980Y-40970180D01*
X-20446980Y-40970180D02*
X-20446980Y-37845980D01*
G04 #@! TO.N,/RAIN*
X-17094200Y-2362200D02*
X-18211790Y-3479790D01*
X-18211790Y-14452600D02*
X-17860199Y-14804191D01*
X-17860199Y-30420499D02*
X-18888889Y-31449189D01*
X-21310437Y-31449189D02*
X-24053800Y-34192552D01*
X-18211790Y-3479790D02*
X-18211790Y-14452600D01*
X-18888889Y-31449189D02*
X-21310437Y-31449189D01*
X-17860199Y-14804191D02*
X-17860199Y-30420499D01*
X-24053800Y-40449500D02*
X-24714507Y-41110207D01*
X-24053800Y-34192552D02*
X-24053800Y-40449500D01*
X-24714507Y-41110207D02*
X-25399693Y-41110207D01*
G04 #@! TO.N,/WIND_DIR*
X-28092400Y-31026100D02*
X-28244780Y-30873720D01*
X-27432000Y-16840200D02*
X-20904200Y-16840200D01*
X-28244780Y-30873720D02*
X-28244780Y-17652980D01*
X-20904200Y-16840200D02*
X-18618200Y-14554200D01*
X-28244780Y-17652980D02*
X-27432000Y-16840200D01*
X-18618200Y-14554200D02*
X-18618200Y20802600D01*
X-18618200Y20802600D02*
X-19655599Y21839999D01*
X-19655599Y21839999D02*
X-23626001Y21839999D01*
X-23626001Y21839999D02*
X-23876000Y21590000D01*
G04 #@! TO.N,/WIND_SPEED*
X-17856200Y13769372D02*
X-18211790Y13413782D01*
X-18698399Y-31855599D02*
X-21142097Y-31855599D01*
X-18211790Y13413782D02*
X-18211790Y-381010D01*
X-18211790Y-381010D02*
X-16564799Y-2028001D01*
X-16564799Y-2616313D02*
X-17805380Y-3856894D01*
X-16564799Y-2028001D02*
X-16564799Y-2616313D01*
X-17805380Y-3856894D02*
X-17805380Y-14020800D01*
X-23449498Y-34163000D02*
X-23449498Y-40480198D01*
X-17805380Y-14020800D02*
X-17310100Y-14516080D01*
X-21142097Y-31855599D02*
X-23449498Y-34163000D01*
X-17310100Y-14516080D02*
X-17310100Y-30467300D01*
X-17310100Y-30467300D02*
X-18698399Y-31855599D01*
X-23449498Y-40480198D02*
X-24837506Y-41868206D01*
X-24837506Y-41868206D02*
X-25657694Y-41868206D01*
X-25657694Y-41868206D02*
X-25907693Y-41618207D01*
G04 #@! TO.N,/FLASH_CS*
X-31915100Y-19735800D02*
X-30506004Y-21144896D01*
X-30506004Y-21144896D02*
X-30506004Y-35945510D01*
X-30506004Y-35945510D02*
X-29438600Y-37012914D01*
X-29438600Y-37012914D02*
X-29438600Y-38912800D01*
G04 #@! TO.N,/SCL1*
X-24765000Y-44069000D02*
X-24765000Y-48641000D01*
X-24892000Y-48768000D02*
X-29337000Y-53213000D01*
X-24765000Y-48641000D02*
X-24892000Y-48768000D01*
X-25273000Y-42545000D02*
X-24130000Y-42545000D01*
X-24130000Y-42545000D02*
X-23876000Y-42291000D01*
G04 #@! TO.N,/SDA1*
X-28321000Y-53213000D02*
X-24511000Y-49403000D01*
X-24130000Y-44704000D02*
X-24130000Y-49022000D01*
X-24130000Y-49022000D02*
X-24511000Y-49403000D01*
G04 #@! TO.N,/SCL2*
X-25019000Y-43133189D02*
X-24110061Y-43133189D01*
X-25557861Y-43133189D02*
X-25019000Y-43133189D01*
X-25019000Y-43133189D02*
X-29559564Y-43133189D01*
X-29559564Y-43133189D02*
X-30075552Y-42617201D01*
X-24110061Y-43133189D02*
X-23067210Y-44176040D01*
X-23067210Y-44176040D02*
X-23067209Y-53039209D01*
X-23067209Y-53039209D02*
X-23368000Y-53340000D01*
X-33197800Y-39141400D02*
X-33197800Y-39494953D01*
X-33197800Y-39494953D02*
X-30075552Y-42617201D01*
G04 #@! TO.N,/SDA2*
X-23368000Y-54356000D02*
X-23897401Y-53826599D01*
X-23897401Y-53826599D02*
X-23897401Y-52853401D01*
X-23897401Y-52853401D02*
X-23473619Y-52429619D01*
X-23473619Y-52429619D02*
X-23473619Y-44344381D01*
X-23473619Y-44344381D02*
X-24278401Y-43539599D01*
X-24278401Y-43539599D02*
X-29866401Y-43539599D01*
X-29866401Y-43539599D02*
X-34163000Y-39243000D01*
X-34163000Y-39243000D02*
X-34163000Y-38582600D01*
G04 #@! TO.N,/PERIPH_EN*
X-36423600Y-33261300D02*
X-36423600Y-17907000D01*
X-40259000Y-12926553D02*
X-36423600Y-16761953D01*
X-40259000Y-12573000D02*
X-40259000Y-12926553D01*
X-36423600Y-16761953D02*
X-36423600Y-17907000D01*
G04 #@! TO.N,Net-(BT1-Pad1)*
X-29845000Y-61849000D02*
X-33346000Y-65350000D01*
X-33346000Y-65350000D02*
X-35179000Y-65350000D01*
G04 #@! TD*
D18*
G04 #@! TO.N,GND*
G36*
X-6184184Y29270453D02*
X-5979909Y29208779D01*
X-5791499Y29108599D01*
X-5626137Y28973733D01*
X-5490119Y28809315D01*
X-5388627Y28621611D01*
X-5325527Y28417768D01*
X-5301254Y28186819D01*
X-5301255Y-71782286D01*
X-5324019Y-72014453D01*
X-5385694Y-72218730D01*
X-5485872Y-72407137D01*
X-5620739Y-72572501D01*
X-5785157Y-72708519D01*
X-5972861Y-72810011D01*
X-6176704Y-72873111D01*
X-6407643Y-72897383D01*
X-40876758Y-72897383D01*
X-41108925Y-72874619D01*
X-41313202Y-72812944D01*
X-41501609Y-72712766D01*
X-41666973Y-72577899D01*
X-41802991Y-72413481D01*
X-41904483Y-72225777D01*
X-41967583Y-72021934D01*
X-41991855Y-71790995D01*
X-41991855Y-71009526D01*
X-41861255Y-71009526D01*
X-41861255Y-71324640D01*
X-41799779Y-71633698D01*
X-41679191Y-71924825D01*
X-41504123Y-72186832D01*
X-41281304Y-72409651D01*
X-41019297Y-72584719D01*
X-40728170Y-72705307D01*
X-40419112Y-72766783D01*
X-40103998Y-72766783D01*
X-39794940Y-72705307D01*
X-39503813Y-72584719D01*
X-39241806Y-72409651D01*
X-39018987Y-72186832D01*
X-38843919Y-71924825D01*
X-38723331Y-71633698D01*
X-38661855Y-71324640D01*
X-38661855Y-71009526D01*
X-8631255Y-71009526D01*
X-8631255Y-71324640D01*
X-8569779Y-71633698D01*
X-8449191Y-71924825D01*
X-8274123Y-72186832D01*
X-8051304Y-72409651D01*
X-7789297Y-72584719D01*
X-7498170Y-72705307D01*
X-7189112Y-72766783D01*
X-6873998Y-72766783D01*
X-6564940Y-72705307D01*
X-6273813Y-72584719D01*
X-6011806Y-72409651D01*
X-5788987Y-72186832D01*
X-5613919Y-71924825D01*
X-5493331Y-71633698D01*
X-5431855Y-71324640D01*
X-5431855Y-71009526D01*
X-5493331Y-70700468D01*
X-5613919Y-70409341D01*
X-5788987Y-70147334D01*
X-6011806Y-69924515D01*
X-6273813Y-69749447D01*
X-6564940Y-69628859D01*
X-6873998Y-69567383D01*
X-7189112Y-69567383D01*
X-7498170Y-69628859D01*
X-7789297Y-69749447D01*
X-8051304Y-69924515D01*
X-8274123Y-70147334D01*
X-8449191Y-70409341D01*
X-8569779Y-70700468D01*
X-8631255Y-71009526D01*
X-38661855Y-71009526D01*
X-38723331Y-70700468D01*
X-38843919Y-70409341D01*
X-39018987Y-70147334D01*
X-39241806Y-69924515D01*
X-39503813Y-69749447D01*
X-39794940Y-69628859D01*
X-40103998Y-69567383D01*
X-40419112Y-69567383D01*
X-40728170Y-69628859D01*
X-41019297Y-69749447D01*
X-41281304Y-69924515D01*
X-41504123Y-70147334D01*
X-41679191Y-70409341D01*
X-41799779Y-70700468D01*
X-41861255Y-71009526D01*
X-41991855Y-71009526D01*
X-41991855Y-63100000D01*
X-36660295Y-63100000D01*
X-36660295Y-67600000D01*
X-36653929Y-67664632D01*
X-36635077Y-67726781D01*
X-36604462Y-67784058D01*
X-36563261Y-67834261D01*
X-36513058Y-67875462D01*
X-36455781Y-67906077D01*
X-36393632Y-67924929D01*
X-36329000Y-67931295D01*
X-34029000Y-67931295D01*
X-33964368Y-67924929D01*
X-33902219Y-67906077D01*
X-33844942Y-67875462D01*
X-33794739Y-67834261D01*
X-33753538Y-67784058D01*
X-33722923Y-67726781D01*
X-33704071Y-67664632D01*
X-33697705Y-67600000D01*
X-33697705Y-65806700D01*
X-33368428Y-65806700D01*
X-33346000Y-65808909D01*
X-33323572Y-65806700D01*
X-33256471Y-65800091D01*
X-33170383Y-65773977D01*
X-33091044Y-65731569D01*
X-33021502Y-65674498D01*
X-33007197Y-65657067D01*
X-32426487Y-65076357D01*
X-11040700Y-65076357D01*
X-11040700Y-65249643D01*
X-11006893Y-65419599D01*
X-10940580Y-65579694D01*
X-10844307Y-65723776D01*
X-10721776Y-65846307D01*
X-10577694Y-65942580D01*
X-10417599Y-66008893D01*
X-10247643Y-66042700D01*
X-10074357Y-66042700D01*
X-9904401Y-66008893D01*
X-9744306Y-65942580D01*
X-9647414Y-65877839D01*
X-9615580Y-65954694D01*
X-9519307Y-66098776D01*
X-9396776Y-66221307D01*
X-9252694Y-66317580D01*
X-9092599Y-66383893D01*
X-8922643Y-66417700D01*
X-8749357Y-66417700D01*
X-8640700Y-66396086D01*
X-8640700Y-66474266D01*
X-8597286Y-66692521D01*
X-8512127Y-66898114D01*
X-8388495Y-67083142D01*
X-8231142Y-67240495D01*
X-8046114Y-67364127D01*
X-7840521Y-67449286D01*
X-7622266Y-67492700D01*
X-7399734Y-67492700D01*
X-7181479Y-67449286D01*
X-6975886Y-67364127D01*
X-6790858Y-67240495D01*
X-6633505Y-67083142D01*
X-6509873Y-66898114D01*
X-6424714Y-66692521D01*
X-6381300Y-66474266D01*
X-6381300Y-66251734D01*
X-6424714Y-66033479D01*
X-6509873Y-65827886D01*
X-6633505Y-65642858D01*
X-6790858Y-65485505D01*
X-6975886Y-65361873D01*
X-7181479Y-65276714D01*
X-7399734Y-65233300D01*
X-7622266Y-65233300D01*
X-7840521Y-65276714D01*
X-7979582Y-65334315D01*
X-7990107Y-65281401D01*
X-8056420Y-65121306D01*
X-8152693Y-64977224D01*
X-8275224Y-64854693D01*
X-8419306Y-64758420D01*
X-8579401Y-64692107D01*
X-8749357Y-64658300D01*
X-8922643Y-64658300D01*
X-9092599Y-64692107D01*
X-9252694Y-64758420D01*
X-9349586Y-64823161D01*
X-9381420Y-64746306D01*
X-9477693Y-64602224D01*
X-9600224Y-64479693D01*
X-9744306Y-64383420D01*
X-9904401Y-64317107D01*
X-10074357Y-64283300D01*
X-10247643Y-64283300D01*
X-10417599Y-64317107D01*
X-10577694Y-64383420D01*
X-10721776Y-64479693D01*
X-10844307Y-64602224D01*
X-10940580Y-64746306D01*
X-11006893Y-64906401D01*
X-11040700Y-65076357D01*
X-32426487Y-65076357D01*
X-29776576Y-62426446D01*
X-29675908Y-62406423D01*
X-29570409Y-62362724D01*
X-29475463Y-62299282D01*
X-29394718Y-62218537D01*
X-29331276Y-62123591D01*
X-29287577Y-62018092D01*
X-29265300Y-61906095D01*
X-29265300Y-61791905D01*
X-29287577Y-61679908D01*
X-29331276Y-61574409D01*
X-29394718Y-61479463D01*
X-29475463Y-61398718D01*
X-29570409Y-61335276D01*
X-29675908Y-61291577D01*
X-29787905Y-61269300D01*
X-29902095Y-61269300D01*
X-30014092Y-61291577D01*
X-30119591Y-61335276D01*
X-30214537Y-61398718D01*
X-30295282Y-61479463D01*
X-30358724Y-61574409D01*
X-30402423Y-61679908D01*
X-30422446Y-61780576D01*
X-33535170Y-64893300D01*
X-33697705Y-64893300D01*
X-33697705Y-63100000D01*
X-33704071Y-63035368D01*
X-33722923Y-62973219D01*
X-33753538Y-62915942D01*
X-33794739Y-62865739D01*
X-33844942Y-62824538D01*
X-33902219Y-62793923D01*
X-33964368Y-62775071D01*
X-34029000Y-62768705D01*
X-36329000Y-62768705D01*
X-36393632Y-62775071D01*
X-36455781Y-62793923D01*
X-36513058Y-62824538D01*
X-36563261Y-62865739D01*
X-36604462Y-62915942D01*
X-36635077Y-62973219D01*
X-36653929Y-63035368D01*
X-36660295Y-63100000D01*
X-41991855Y-63100000D01*
X-41991855Y-61003508D01*
X-36158700Y-61003508D01*
X-36158700Y-61196492D01*
X-36121050Y-61385768D01*
X-36047199Y-61564062D01*
X-35939982Y-61724522D01*
X-35803522Y-61860982D01*
X-35643062Y-61968199D01*
X-35464768Y-62042050D01*
X-35275492Y-62079700D01*
X-35082508Y-62079700D01*
X-34893232Y-62042050D01*
X-34714938Y-61968199D01*
X-34554478Y-61860982D01*
X-34418018Y-61724522D01*
X-34310801Y-61564062D01*
X-34236950Y-61385768D01*
X-34199300Y-61196492D01*
X-34199300Y-61003508D01*
X-34236950Y-60814232D01*
X-34310801Y-60635938D01*
X-34418018Y-60475478D01*
X-34554478Y-60339018D01*
X-34714938Y-60231801D01*
X-34893232Y-60157950D01*
X-35082508Y-60120300D01*
X-35275492Y-60120300D01*
X-35464768Y-60157950D01*
X-35643062Y-60231801D01*
X-35803522Y-60339018D01*
X-35939982Y-60475478D01*
X-36047199Y-60635938D01*
X-36121050Y-60814232D01*
X-36158700Y-61003508D01*
X-41991855Y-61003508D01*
X-41991855Y-53565819D01*
X-36033700Y-53565819D01*
X-36033700Y-53734181D01*
X-36000855Y-53899307D01*
X-35936426Y-54054852D01*
X-35842889Y-54194840D01*
X-35723840Y-54313889D01*
X-35583852Y-54407426D01*
X-35428307Y-54471855D01*
X-35263181Y-54504700D01*
X-35094819Y-54504700D01*
X-34929693Y-54471855D01*
X-34774148Y-54407426D01*
X-34634160Y-54313889D01*
X-34515111Y-54194840D01*
X-34421574Y-54054852D01*
X-34357145Y-53899307D01*
X-34324300Y-53734181D01*
X-34324300Y-53565819D01*
X-34357145Y-53400693D01*
X-34421574Y-53245148D01*
X-34515111Y-53105160D01*
X-34634160Y-52986111D01*
X-34774148Y-52892574D01*
X-34929693Y-52828145D01*
X-35094819Y-52795300D01*
X-35263181Y-52795300D01*
X-35428307Y-52828145D01*
X-35583852Y-52892574D01*
X-35723840Y-52986111D01*
X-35842889Y-53105160D01*
X-35936426Y-53245148D01*
X-36000855Y-53400693D01*
X-36033700Y-53565819D01*
X-41991855Y-53565819D01*
X-41991855Y-49045625D01*
X-36709500Y-49045625D01*
X-36709500Y-51237476D01*
X-36694878Y-51310988D01*
X-36666195Y-51380234D01*
X-36624554Y-51442555D01*
X-36571555Y-51495554D01*
X-36509234Y-51537195D01*
X-36439988Y-51565878D01*
X-36366476Y-51580500D01*
X-35274625Y-51580500D01*
X-35179500Y-51485375D01*
X-35179500Y-48950500D01*
X-35178500Y-48950500D01*
X-35178500Y-51485375D01*
X-35083375Y-51580500D01*
X-33991524Y-51580500D01*
X-33918012Y-51565878D01*
X-33848766Y-51537195D01*
X-33786445Y-51495554D01*
X-33733446Y-51442555D01*
X-33691805Y-51380234D01*
X-33663122Y-51310988D01*
X-33648500Y-51237476D01*
X-33648500Y-49045625D01*
X-33743625Y-48950500D01*
X-35178500Y-48950500D01*
X-35179500Y-48950500D01*
X-36614375Y-48950500D01*
X-36709500Y-49045625D01*
X-41991855Y-49045625D01*
X-41991855Y-46662524D01*
X-36709500Y-46662524D01*
X-36709500Y-48854375D01*
X-36614375Y-48949500D01*
X-35179500Y-48949500D01*
X-35179500Y-46414625D01*
X-35178500Y-46414625D01*
X-35178500Y-48949500D01*
X-33743625Y-48949500D01*
X-33648500Y-48854375D01*
X-33648500Y-46662524D01*
X-33663122Y-46589012D01*
X-33691805Y-46519766D01*
X-33733446Y-46457445D01*
X-33786445Y-46404446D01*
X-33848766Y-46362805D01*
X-33918012Y-46334122D01*
X-33991524Y-46319500D01*
X-35083375Y-46319500D01*
X-35178500Y-46414625D01*
X-35179500Y-46414625D01*
X-35274625Y-46319500D01*
X-36366476Y-46319500D01*
X-36439988Y-46334122D01*
X-36509234Y-46362805D01*
X-36571555Y-46404446D01*
X-36624554Y-46457445D01*
X-36666195Y-46519766D01*
X-36694878Y-46589012D01*
X-36709500Y-46662524D01*
X-41991855Y-46662524D01*
X-41991855Y-39681205D01*
X-35860300Y-39681205D01*
X-35860300Y-39795395D01*
X-35838023Y-39907392D01*
X-35794324Y-40012891D01*
X-35730882Y-40107837D01*
X-35650137Y-40188582D01*
X-35555191Y-40252024D01*
X-35449692Y-40295723D01*
X-35337695Y-40318000D01*
X-35223505Y-40318000D01*
X-35111508Y-40295723D01*
X-35006009Y-40252024D01*
X-34911063Y-40188582D01*
X-34830318Y-40107837D01*
X-34766876Y-40012891D01*
X-34723177Y-39907392D01*
X-34700900Y-39795395D01*
X-34700900Y-39681205D01*
X-34723177Y-39569208D01*
X-34760400Y-39479343D01*
X-34760400Y-38823473D01*
X-34711108Y-38774181D01*
X-34676724Y-38857191D01*
X-34619700Y-38942533D01*
X-34619700Y-39220572D01*
X-34621909Y-39243000D01*
X-34617475Y-39288018D01*
X-34613091Y-39332528D01*
X-34586977Y-39418616D01*
X-34544569Y-39497955D01*
X-34487498Y-39567498D01*
X-34470067Y-39581803D01*
X-30205200Y-43846671D01*
X-30190899Y-43864097D01*
X-30122288Y-43920404D01*
X-30121357Y-43921168D01*
X-30042018Y-43963576D01*
X-29955930Y-43989690D01*
X-29866401Y-43998508D01*
X-29843973Y-43996299D01*
X-25341596Y-43996299D01*
X-25344700Y-44011905D01*
X-25344700Y-44126095D01*
X-25322423Y-44238092D01*
X-25278724Y-44343591D01*
X-25221700Y-44428932D01*
X-25221699Y-48451828D01*
X-29405423Y-52635553D01*
X-29506092Y-52655577D01*
X-29611591Y-52699276D01*
X-29706537Y-52762718D01*
X-29787282Y-52843463D01*
X-29850724Y-52938409D01*
X-29894423Y-53043908D01*
X-29916700Y-53155905D01*
X-29916700Y-53270095D01*
X-29894423Y-53382092D01*
X-29850724Y-53487591D01*
X-29787282Y-53582537D01*
X-29706537Y-53663282D01*
X-29611591Y-53726724D01*
X-29506092Y-53770423D01*
X-29394095Y-53792700D01*
X-29279905Y-53792700D01*
X-29167908Y-53770423D01*
X-29062409Y-53726724D01*
X-28967463Y-53663282D01*
X-28886718Y-53582537D01*
X-28829000Y-53496157D01*
X-28771282Y-53582537D01*
X-28690537Y-53663282D01*
X-28595591Y-53726724D01*
X-28490092Y-53770423D01*
X-28378095Y-53792700D01*
X-28263905Y-53792700D01*
X-28151908Y-53770423D01*
X-28046409Y-53726724D01*
X-27951463Y-53663282D01*
X-27870718Y-53582537D01*
X-27807276Y-53487591D01*
X-27763577Y-53382092D01*
X-27743553Y-53281423D01*
X-24172206Y-49710077D01*
X-24172202Y-49710072D01*
X-23930319Y-49468189D01*
X-23930319Y-52240448D01*
X-24204472Y-52514602D01*
X-24221898Y-52528903D01*
X-24278969Y-52598445D01*
X-24309507Y-52655577D01*
X-24321377Y-52677784D01*
X-24347492Y-52763873D01*
X-24356310Y-52853401D01*
X-24354100Y-52875838D01*
X-24354101Y-53804171D01*
X-24356310Y-53826599D01*
X-24354101Y-53849026D01*
X-24347492Y-53916127D01*
X-24321378Y-54002215D01*
X-24278970Y-54081554D01*
X-24221899Y-54151097D01*
X-24204468Y-54165402D01*
X-23945447Y-54424424D01*
X-23925423Y-54525092D01*
X-23881724Y-54630591D01*
X-23818282Y-54725537D01*
X-23737537Y-54806282D01*
X-23642591Y-54869724D01*
X-23537092Y-54913423D01*
X-23425095Y-54935700D01*
X-23310905Y-54935700D01*
X-23198908Y-54913423D01*
X-23117499Y-54879702D01*
X-23117499Y-58596773D01*
X-23119708Y-58619201D01*
X-23117499Y-58641628D01*
X-23110890Y-58708729D01*
X-23084776Y-58794817D01*
X-23042368Y-58874156D01*
X-22985297Y-58943699D01*
X-22967866Y-58958004D01*
X-18357446Y-63568424D01*
X-18337423Y-63669092D01*
X-18293724Y-63774591D01*
X-18230282Y-63869537D01*
X-18149537Y-63950282D01*
X-18054591Y-64013724D01*
X-17949092Y-64057423D01*
X-17837095Y-64079700D01*
X-17722905Y-64079700D01*
X-17610908Y-64057423D01*
X-17505409Y-64013724D01*
X-17410463Y-63950282D01*
X-17329718Y-63869537D01*
X-17266276Y-63774591D01*
X-17222577Y-63669092D01*
X-17200300Y-63557095D01*
X-17200300Y-63442905D01*
X-17222577Y-63330908D01*
X-17266276Y-63225409D01*
X-17329718Y-63130463D01*
X-17410463Y-63049718D01*
X-17496843Y-62992000D01*
X-17410463Y-62934282D01*
X-17329718Y-62853537D01*
X-17266276Y-62758591D01*
X-17236498Y-62686700D01*
X-12313981Y-62686700D01*
X-12291553Y-62688909D01*
X-12269125Y-62686700D01*
X-12202024Y-62680091D01*
X-12115936Y-62653977D01*
X-12037331Y-62611961D01*
X-8015700Y-62611961D01*
X-8015700Y-62864039D01*
X-7966522Y-63111275D01*
X-7870055Y-63344165D01*
X-7730008Y-63553761D01*
X-7551761Y-63732008D01*
X-7342165Y-63872055D01*
X-7109275Y-63968522D01*
X-6862039Y-64017700D01*
X-6609961Y-64017700D01*
X-6362725Y-63968522D01*
X-6129835Y-63872055D01*
X-5920239Y-63732008D01*
X-5741992Y-63553761D01*
X-5601945Y-63344165D01*
X-5505478Y-63111275D01*
X-5456300Y-62864039D01*
X-5456300Y-62611961D01*
X-5505478Y-62364725D01*
X-5601945Y-62131835D01*
X-5741992Y-61922239D01*
X-5920239Y-61743992D01*
X-6129835Y-61603945D01*
X-6362725Y-61507478D01*
X-6609961Y-61458300D01*
X-6862039Y-61458300D01*
X-7109275Y-61507478D01*
X-7342165Y-61603945D01*
X-7551761Y-61743992D01*
X-7730008Y-61922239D01*
X-7870055Y-62131835D01*
X-7966522Y-62364725D01*
X-8015700Y-62611961D01*
X-12037331Y-62611961D01*
X-12036597Y-62611569D01*
X-11967055Y-62554498D01*
X-11952749Y-62537066D01*
X-11920984Y-62505301D01*
X-11853092Y-62533423D01*
X-11741095Y-62555700D01*
X-11626905Y-62555700D01*
X-11514908Y-62533423D01*
X-11409409Y-62489724D01*
X-11314463Y-62426282D01*
X-11233718Y-62345537D01*
X-11170276Y-62250591D01*
X-11126577Y-62145092D01*
X-11104300Y-62033095D01*
X-11104300Y-61918905D01*
X-11126577Y-61806908D01*
X-11170276Y-61701409D01*
X-11233718Y-61606463D01*
X-11314463Y-61525718D01*
X-11409409Y-61462276D01*
X-11514908Y-61418577D01*
X-11626905Y-61396300D01*
X-11741095Y-61396300D01*
X-11853092Y-61418577D01*
X-11958591Y-61462276D01*
X-12041157Y-61517446D01*
X-12059979Y-61519300D01*
X-12059981Y-61519300D01*
X-12127082Y-61525909D01*
X-12213170Y-61552023D01*
X-12292509Y-61594431D01*
X-12362051Y-61651502D01*
X-12376357Y-61668934D01*
X-12480723Y-61773300D01*
X-17082829Y-61773300D01*
X-18629772Y-60226357D01*
X-11040700Y-60226357D01*
X-11040700Y-60399643D01*
X-11006893Y-60569599D01*
X-10940580Y-60729694D01*
X-10844307Y-60873776D01*
X-10721776Y-60996307D01*
X-10577694Y-61092580D01*
X-10417599Y-61158893D01*
X-10247643Y-61192700D01*
X-10074357Y-61192700D01*
X-9904401Y-61158893D01*
X-9744306Y-61092580D01*
X-9600224Y-60996307D01*
X-9477693Y-60873776D01*
X-9381420Y-60729694D01*
X-9349586Y-60652839D01*
X-9252694Y-60717580D01*
X-9092599Y-60783893D01*
X-8922643Y-60817700D01*
X-8749357Y-60817700D01*
X-8579401Y-60783893D01*
X-8419306Y-60717580D01*
X-8275224Y-60621307D01*
X-8152693Y-60498776D01*
X-8056420Y-60354694D01*
X-7990107Y-60194599D01*
X-7979582Y-60141685D01*
X-7840521Y-60199286D01*
X-7622266Y-60242700D01*
X-7399734Y-60242700D01*
X-7181479Y-60199286D01*
X-6975886Y-60114127D01*
X-6790858Y-59990495D01*
X-6633505Y-59833142D01*
X-6509873Y-59648114D01*
X-6424714Y-59442521D01*
X-6381300Y-59224266D01*
X-6381300Y-59001734D01*
X-6424714Y-58783479D01*
X-6509873Y-58577886D01*
X-6633505Y-58392858D01*
X-6790858Y-58235505D01*
X-6975886Y-58111873D01*
X-7181479Y-58026714D01*
X-7399734Y-57983300D01*
X-7622266Y-57983300D01*
X-7840521Y-58026714D01*
X-8046114Y-58111873D01*
X-8231142Y-58235505D01*
X-8388495Y-58392858D01*
X-8512127Y-58577886D01*
X-8597286Y-58783479D01*
X-8640700Y-59001734D01*
X-8640700Y-59079914D01*
X-8749357Y-59058300D01*
X-8922643Y-59058300D01*
X-9092599Y-59092107D01*
X-9252694Y-59158420D01*
X-9396776Y-59254693D01*
X-9519307Y-59377224D01*
X-9615580Y-59521306D01*
X-9647414Y-59598161D01*
X-9744306Y-59533420D01*
X-9904401Y-59467107D01*
X-10074357Y-59433300D01*
X-10247643Y-59433300D01*
X-10417599Y-59467107D01*
X-10577694Y-59533420D01*
X-10721776Y-59629693D01*
X-10844307Y-59752224D01*
X-10940580Y-59896306D01*
X-11006893Y-60056401D01*
X-11040700Y-60226357D01*
X-18629772Y-60226357D01*
X-21276991Y-57579139D01*
X-21276991Y-49940828D01*
X-21197537Y-50020282D01*
X-21102591Y-50083724D01*
X-20997092Y-50127423D01*
X-20885095Y-50149700D01*
X-20770905Y-50149700D01*
X-20658908Y-50127423D01*
X-20553409Y-50083724D01*
X-20458463Y-50020282D01*
X-20377718Y-49939537D01*
X-20314276Y-49844591D01*
X-20270577Y-49739092D01*
X-20248300Y-49627095D01*
X-20248300Y-49512905D01*
X-20270577Y-49400908D01*
X-20307800Y-49311043D01*
X-20307800Y-42379473D01*
X-19335240Y-41406913D01*
X-19315383Y-41390617D01*
X-19250377Y-41311406D01*
X-19202072Y-41221035D01*
X-19172327Y-41122977D01*
X-19164800Y-41046555D01*
X-19164800Y-41046553D01*
X-19162283Y-41021001D01*
X-19164800Y-40995448D01*
X-19164800Y-40517957D01*
X-19127577Y-40428092D01*
X-19105300Y-40316095D01*
X-19105300Y-40201905D01*
X-19127577Y-40089908D01*
X-19171276Y-39984409D01*
X-19234718Y-39889463D01*
X-19315463Y-39808718D01*
X-19410409Y-39745276D01*
X-19515908Y-39701577D01*
X-19627905Y-39679300D01*
X-19742095Y-39679300D01*
X-19854092Y-39701577D01*
X-19959591Y-39745276D01*
X-19990280Y-39765782D01*
X-19990280Y-37908150D01*
X-18733829Y-36651700D01*
X-17504932Y-36651700D01*
X-17419591Y-36708724D01*
X-17314092Y-36752423D01*
X-17202095Y-36774700D01*
X-17087905Y-36774700D01*
X-16975908Y-36752423D01*
X-16870409Y-36708724D01*
X-16775463Y-36645282D01*
X-16694718Y-36564537D01*
X-16631276Y-36469591D01*
X-16587577Y-36364092D01*
X-16565300Y-36252095D01*
X-16565300Y-36137905D01*
X-16587577Y-36025908D01*
X-16631276Y-35920409D01*
X-16694718Y-35825463D01*
X-16775463Y-35744718D01*
X-16870409Y-35681276D01*
X-16975908Y-35637577D01*
X-17087905Y-35615300D01*
X-17202095Y-35615300D01*
X-17314092Y-35637577D01*
X-17419591Y-35681276D01*
X-17504932Y-35738300D01*
X-18900573Y-35738300D01*
X-18923001Y-35736091D01*
X-19012530Y-35744909D01*
X-19038644Y-35752831D01*
X-19098617Y-35771023D01*
X-19177956Y-35813431D01*
X-19247498Y-35870502D01*
X-19261799Y-35887928D01*
X-20754048Y-37380178D01*
X-20771478Y-37394482D01*
X-20828549Y-37464024D01*
X-20870957Y-37543363D01*
X-20897071Y-37629451D01*
X-20897071Y-37629452D01*
X-20905889Y-37718980D01*
X-20903680Y-37741408D01*
X-20903680Y-37868407D01*
X-20903679Y-37868417D01*
X-20903680Y-40781009D01*
X-21814627Y-41691956D01*
X-21832677Y-41601208D01*
X-21876376Y-41495709D01*
X-21939818Y-41400763D01*
X-22020563Y-41320018D01*
X-22115509Y-41256576D01*
X-22221008Y-41212877D01*
X-22333005Y-41190600D01*
X-22447195Y-41190600D01*
X-22559192Y-41212877D01*
X-22664691Y-41256576D01*
X-22759637Y-41320018D01*
X-22771100Y-41331481D01*
X-22782563Y-41320018D01*
X-22877509Y-41256576D01*
X-22983008Y-41212877D01*
X-23095005Y-41190600D01*
X-23209195Y-41190600D01*
X-23321192Y-41212877D01*
X-23426691Y-41256576D01*
X-23521637Y-41320018D01*
X-23602382Y-41400763D01*
X-23665824Y-41495709D01*
X-23709523Y-41601208D01*
X-23731800Y-41713205D01*
X-23731800Y-41728626D01*
X-23818905Y-41711300D01*
X-23933095Y-41711300D01*
X-24045092Y-41733577D01*
X-24065432Y-41742002D01*
X-23142426Y-40818997D01*
X-23125000Y-40804696D01*
X-23067929Y-40735154D01*
X-23025521Y-40655815D01*
X-22999407Y-40569727D01*
X-22992798Y-40502626D01*
X-22990589Y-40480198D01*
X-22992798Y-40457770D01*
X-22992798Y-34352170D01*
X-20952926Y-32312299D01*
X-18720827Y-32312299D01*
X-18698399Y-32314508D01*
X-18675971Y-32312299D01*
X-18608870Y-32305690D01*
X-18522782Y-32279576D01*
X-18443443Y-32237168D01*
X-18373901Y-32180097D01*
X-18359596Y-32162666D01*
X-17003028Y-30806099D01*
X-16985602Y-30791798D01*
X-16928531Y-30722256D01*
X-16886123Y-30642917D01*
X-16860009Y-30556829D01*
X-16853400Y-30489728D01*
X-16853400Y-30489726D01*
X-16851191Y-30467301D01*
X-16853400Y-30444876D01*
X-16853400Y-14538508D01*
X-16851191Y-14516080D01*
X-16860009Y-14426551D01*
X-16886123Y-14340463D01*
X-16928531Y-14261124D01*
X-16985602Y-14191582D01*
X-17003027Y-14177282D01*
X-17348680Y-13831630D01*
X-17348680Y-4046064D01*
X-17286592Y-3983976D01*
X-12586672Y-3983976D01*
X-12586672Y-4281360D01*
X-12528655Y-4573031D01*
X-12414851Y-4847779D01*
X-12249633Y-5095046D01*
X-12039350Y-5305329D01*
X-11792083Y-5470547D01*
X-11517335Y-5584351D01*
X-11225664Y-5642368D01*
X-10928280Y-5642368D01*
X-10636609Y-5584351D01*
X-10361861Y-5470547D01*
X-10114594Y-5305329D01*
X-9904311Y-5095046D01*
X-9739093Y-4847779D01*
X-9625289Y-4573031D01*
X-9567272Y-4281360D01*
X-9567272Y-3983976D01*
X-9625289Y-3692305D01*
X-9739093Y-3417557D01*
X-9904311Y-3170290D01*
X-10114594Y-2960007D01*
X-10361861Y-2794789D01*
X-10636609Y-2680985D01*
X-10928280Y-2622968D01*
X-11225664Y-2622968D01*
X-11517335Y-2680985D01*
X-11792083Y-2794789D01*
X-12039350Y-2960007D01*
X-12249633Y-3170290D01*
X-12414851Y-3417557D01*
X-12528655Y-3692305D01*
X-12586672Y-3983976D01*
X-17286592Y-3983976D01*
X-16257722Y-2955108D01*
X-16240301Y-2940811D01*
X-16183230Y-2871269D01*
X-16140822Y-2791930D01*
X-16114708Y-2705842D01*
X-16108099Y-2638741D01*
X-16108099Y-2638739D01*
X-16105890Y-2616314D01*
X-16108099Y-2593889D01*
X-16108099Y-2050428D01*
X-16105890Y-2028000D01*
X-16114708Y-1938472D01*
X-16140822Y-1852385D01*
X-16140822Y-1852384D01*
X-16183230Y-1773045D01*
X-16240301Y-1703503D01*
X-16257726Y-1689203D01*
X-17755090Y-191840D01*
X-17755090Y4518749D01*
X-16946672Y4518749D01*
X-16946672Y4315915D01*
X-16907101Y4116980D01*
X-16829480Y3929586D01*
X-16716792Y3760937D01*
X-16573367Y3617512D01*
X-16404718Y3504824D01*
X-16217324Y3427203D01*
X-16067154Y3397332D01*
X-16217324Y3367461D01*
X-16404718Y3289840D01*
X-16573367Y3177152D01*
X-16716792Y3033727D01*
X-16829480Y2865078D01*
X-16907101Y2677684D01*
X-16946672Y2478749D01*
X-16946672Y2275915D01*
X-16907101Y2076980D01*
X-16829480Y1889586D01*
X-16716792Y1720937D01*
X-16573367Y1577512D01*
X-16404718Y1464824D01*
X-16217324Y1387203D01*
X-16067154Y1357332D01*
X-16217324Y1327461D01*
X-16404718Y1249840D01*
X-16573367Y1137152D01*
X-16716792Y993727D01*
X-16829480Y825078D01*
X-16907101Y637684D01*
X-16946672Y438749D01*
X-16946672Y235915D01*
X-16907101Y36980D01*
X-16829480Y-150414D01*
X-16716792Y-319063D01*
X-16573367Y-462488D01*
X-16404718Y-575176D01*
X-16217324Y-652797D01*
X-16018389Y-692368D01*
X-15815555Y-692368D01*
X-15616620Y-652797D01*
X-15429226Y-575176D01*
X-15260577Y-462488D01*
X-15117152Y-319063D01*
X-15004464Y-150414D01*
X-14926843Y36980D01*
X-14887272Y235915D01*
X-14887272Y438749D01*
X-14926843Y637684D01*
X-15004464Y825078D01*
X-15117152Y993727D01*
X-15260577Y1137152D01*
X-15429226Y1249840D01*
X-15616620Y1327461D01*
X-15766790Y1357332D01*
X-15616620Y1387203D01*
X-15429226Y1464824D01*
X-15260577Y1577512D01*
X-15117152Y1720937D01*
X-15004464Y1889586D01*
X-14926843Y2076980D01*
X-14887272Y2275915D01*
X-14887272Y2478749D01*
X-14926843Y2677684D01*
X-15004464Y2865078D01*
X-15117152Y3033727D01*
X-15260577Y3177152D01*
X-15429226Y3289840D01*
X-15616620Y3367461D01*
X-15766790Y3397332D01*
X-15616620Y3427203D01*
X-15443893Y3498749D01*
X-14406672Y3498749D01*
X-14406672Y3295915D01*
X-14367101Y3096980D01*
X-14289480Y2909586D01*
X-14176792Y2740937D01*
X-14033367Y2597512D01*
X-13864718Y2484824D01*
X-13677324Y2407203D01*
X-13527154Y2377332D01*
X-13677324Y2347461D01*
X-13864718Y2269840D01*
X-14033367Y2157152D01*
X-14176792Y2013727D01*
X-14289480Y1845078D01*
X-14367101Y1657684D01*
X-14406672Y1458749D01*
X-14406672Y1255915D01*
X-14367101Y1056980D01*
X-14289480Y869586D01*
X-14176792Y700937D01*
X-14033367Y557512D01*
X-13864718Y444824D01*
X-13677324Y367203D01*
X-13527154Y337332D01*
X-13677324Y307461D01*
X-13864718Y229840D01*
X-14033367Y117152D01*
X-14176792Y-26273D01*
X-14289480Y-194922D01*
X-14367101Y-382316D01*
X-14406672Y-581251D01*
X-14406672Y-784085D01*
X-14367101Y-983020D01*
X-14289480Y-1170414D01*
X-14176792Y-1339063D01*
X-14033367Y-1482488D01*
X-13864718Y-1595176D01*
X-13677324Y-1672797D01*
X-13478389Y-1712368D01*
X-13275555Y-1712368D01*
X-13076620Y-1672797D01*
X-12889226Y-1595176D01*
X-12720577Y-1482488D01*
X-12577152Y-1339063D01*
X-12464464Y-1170414D01*
X-12386843Y-983020D01*
X-12347272Y-784085D01*
X-12347272Y-581251D01*
X-12386843Y-382316D01*
X-12464464Y-194922D01*
X-12577152Y-26273D01*
X-12720577Y117152D01*
X-12889226Y229840D01*
X-13076620Y307461D01*
X-13226790Y337332D01*
X-13076620Y367203D01*
X-12889226Y444824D01*
X-12720577Y557512D01*
X-12577152Y700937D01*
X-12464464Y869586D01*
X-12386843Y1056980D01*
X-12347272Y1255915D01*
X-12347272Y1458749D01*
X-12386843Y1657684D01*
X-12464464Y1845078D01*
X-12577152Y2013727D01*
X-12720577Y2157152D01*
X-12889226Y2269840D01*
X-13076620Y2347461D01*
X-13226790Y2377332D01*
X-13076620Y2407203D01*
X-12889226Y2484824D01*
X-12720577Y2597512D01*
X-12577152Y2740937D01*
X-12464464Y2909586D01*
X-12386843Y3096980D01*
X-12347272Y3295915D01*
X-12347272Y3498749D01*
X-12386843Y3697684D01*
X-12464464Y3885078D01*
X-12577152Y4053727D01*
X-12720577Y4197152D01*
X-12889226Y4309840D01*
X-13076620Y4387461D01*
X-13275555Y4427032D01*
X-13478389Y4427032D01*
X-13677324Y4387461D01*
X-13864718Y4309840D01*
X-14033367Y4197152D01*
X-14176792Y4053727D01*
X-14289480Y3885078D01*
X-14367101Y3697684D01*
X-14406672Y3498749D01*
X-15443893Y3498749D01*
X-15429226Y3504824D01*
X-15260577Y3617512D01*
X-15117152Y3760937D01*
X-15004464Y3929586D01*
X-14926843Y4116980D01*
X-14887272Y4315915D01*
X-14887272Y4518749D01*
X-14926843Y4717684D01*
X-15004464Y4905078D01*
X-15117152Y5073727D01*
X-15260577Y5217152D01*
X-15429226Y5329840D01*
X-15616620Y5407461D01*
X-15815555Y5447032D01*
X-16018389Y5447032D01*
X-16217324Y5407461D01*
X-16404718Y5329840D01*
X-16573367Y5217152D01*
X-16716792Y5073727D01*
X-16829480Y4905078D01*
X-16907101Y4717684D01*
X-16946672Y4518749D01*
X-17755090Y4518749D01*
X-17755090Y8016024D01*
X-12586672Y8016024D01*
X-12586672Y7718640D01*
X-12528655Y7426969D01*
X-12414851Y7152221D01*
X-12249633Y6904954D01*
X-12039350Y6694671D01*
X-11792083Y6529453D01*
X-11517335Y6415649D01*
X-11225664Y6357632D01*
X-10928280Y6357632D01*
X-10636609Y6415649D01*
X-10361861Y6529453D01*
X-10114594Y6694671D01*
X-9904311Y6904954D01*
X-9739093Y7152221D01*
X-9625289Y7426969D01*
X-9567272Y7718640D01*
X-9567272Y8016024D01*
X-9625289Y8307695D01*
X-9739093Y8582443D01*
X-9904311Y8829710D01*
X-10114594Y9039993D01*
X-10361861Y9205211D01*
X-10636609Y9319015D01*
X-10928280Y9377032D01*
X-11225664Y9377032D01*
X-11517335Y9319015D01*
X-11792083Y9205211D01*
X-12039350Y9039993D01*
X-12249633Y8829710D01*
X-12414851Y8582443D01*
X-12528655Y8307695D01*
X-12586672Y8016024D01*
X-17755090Y8016024D01*
X-17755090Y11516024D01*
X-12572672Y11516024D01*
X-12572672Y11218640D01*
X-12514655Y10926969D01*
X-12400851Y10652221D01*
X-12235633Y10404954D01*
X-12025350Y10194671D01*
X-11778083Y10029453D01*
X-11503335Y9915649D01*
X-11211664Y9857632D01*
X-10914280Y9857632D01*
X-10622609Y9915649D01*
X-10347861Y10029453D01*
X-10100594Y10194671D01*
X-9890311Y10404954D01*
X-9725093Y10652221D01*
X-9611289Y10926969D01*
X-9553272Y11218640D01*
X-9553272Y11516024D01*
X-9611289Y11807695D01*
X-9725093Y12082443D01*
X-9890311Y12329710D01*
X-10100594Y12539993D01*
X-10347861Y12705211D01*
X-10622609Y12819015D01*
X-10914280Y12877032D01*
X-11211664Y12877032D01*
X-11503335Y12819015D01*
X-11778083Y12705211D01*
X-12025350Y12539993D01*
X-12235633Y12329710D01*
X-12400851Y12082443D01*
X-12514655Y11807695D01*
X-12572672Y11516024D01*
X-17755090Y11516024D01*
X-17755090Y13198427D01*
X-17687108Y13211949D01*
X-17581609Y13255648D01*
X-17486663Y13319090D01*
X-17405918Y13399835D01*
X-17342476Y13494781D01*
X-17298777Y13600280D01*
X-17276500Y13712277D01*
X-17276500Y13826467D01*
X-17298777Y13938464D01*
X-17342476Y14043963D01*
X-17405918Y14138909D01*
X-17486663Y14219654D01*
X-17581609Y14283096D01*
X-17687108Y14326795D01*
X-17799105Y14349072D01*
X-17913295Y14349072D01*
X-18025292Y14326795D01*
X-18130791Y14283096D01*
X-18161500Y14262577D01*
X-18161500Y20018749D01*
X-16932672Y20018749D01*
X-16932672Y19815915D01*
X-16893101Y19616980D01*
X-16815480Y19429586D01*
X-16702792Y19260937D01*
X-16559367Y19117512D01*
X-16390718Y19004824D01*
X-16203324Y18927203D01*
X-16053154Y18897332D01*
X-16203324Y18867461D01*
X-16390718Y18789840D01*
X-16559367Y18677152D01*
X-16702792Y18533727D01*
X-16815480Y18365078D01*
X-16893101Y18177684D01*
X-16932672Y17978749D01*
X-16932672Y17775915D01*
X-16893101Y17576980D01*
X-16815480Y17389586D01*
X-16702792Y17220937D01*
X-16559367Y17077512D01*
X-16390718Y16964824D01*
X-16203324Y16887203D01*
X-16053154Y16857332D01*
X-16203324Y16827461D01*
X-16390718Y16749840D01*
X-16559367Y16637152D01*
X-16702792Y16493727D01*
X-16815480Y16325078D01*
X-16893101Y16137684D01*
X-16932672Y15938749D01*
X-16932672Y15735915D01*
X-16893101Y15536980D01*
X-16815480Y15349586D01*
X-16702792Y15180937D01*
X-16559367Y15037512D01*
X-16390718Y14924824D01*
X-16203324Y14847203D01*
X-16004389Y14807632D01*
X-15801555Y14807632D01*
X-15602620Y14847203D01*
X-15415226Y14924824D01*
X-15246577Y15037512D01*
X-15103152Y15180937D01*
X-14990464Y15349586D01*
X-14912843Y15536980D01*
X-14873272Y15735915D01*
X-14873272Y15938749D01*
X-14912843Y16137684D01*
X-14990464Y16325078D01*
X-15103152Y16493727D01*
X-15246577Y16637152D01*
X-15415226Y16749840D01*
X-15602620Y16827461D01*
X-15752790Y16857332D01*
X-15602620Y16887203D01*
X-15415226Y16964824D01*
X-15246577Y17077512D01*
X-15103152Y17220937D01*
X-14990464Y17389586D01*
X-14912843Y17576980D01*
X-14873272Y17775915D01*
X-14873272Y17978749D01*
X-14912843Y18177684D01*
X-14990464Y18365078D01*
X-15103152Y18533727D01*
X-15246577Y18677152D01*
X-15415226Y18789840D01*
X-15602620Y18867461D01*
X-15752790Y18897332D01*
X-15602620Y18927203D01*
X-15429893Y18998749D01*
X-14392672Y18998749D01*
X-14392672Y18795915D01*
X-14353101Y18596980D01*
X-14275480Y18409586D01*
X-14162792Y18240937D01*
X-14019367Y18097512D01*
X-13850718Y17984824D01*
X-13663324Y17907203D01*
X-13513154Y17877332D01*
X-13663324Y17847461D01*
X-13850718Y17769840D01*
X-14019367Y17657152D01*
X-14162792Y17513727D01*
X-14275480Y17345078D01*
X-14353101Y17157684D01*
X-14392672Y16958749D01*
X-14392672Y16755915D01*
X-14353101Y16556980D01*
X-14275480Y16369586D01*
X-14162792Y16200937D01*
X-14019367Y16057512D01*
X-13850718Y15944824D01*
X-13663324Y15867203D01*
X-13513154Y15837332D01*
X-13663324Y15807461D01*
X-13850718Y15729840D01*
X-14019367Y15617152D01*
X-14162792Y15473727D01*
X-14275480Y15305078D01*
X-14353101Y15117684D01*
X-14392672Y14918749D01*
X-14392672Y14715915D01*
X-14353101Y14516980D01*
X-14275480Y14329586D01*
X-14162792Y14160937D01*
X-14019367Y14017512D01*
X-13850718Y13904824D01*
X-13663324Y13827203D01*
X-13464389Y13787632D01*
X-13261555Y13787632D01*
X-13062620Y13827203D01*
X-12875226Y13904824D01*
X-12706577Y14017512D01*
X-12563152Y14160937D01*
X-12450464Y14329586D01*
X-12372843Y14516980D01*
X-12333272Y14715915D01*
X-12333272Y14918749D01*
X-12372843Y15117684D01*
X-12450464Y15305078D01*
X-12563152Y15473727D01*
X-12706577Y15617152D01*
X-12875226Y15729840D01*
X-13062620Y15807461D01*
X-13212790Y15837332D01*
X-13062620Y15867203D01*
X-12875226Y15944824D01*
X-12706577Y16057512D01*
X-12563152Y16200937D01*
X-12450464Y16369586D01*
X-12372843Y16556980D01*
X-12333272Y16755915D01*
X-12333272Y16958749D01*
X-12372843Y17157684D01*
X-12450464Y17345078D01*
X-12563152Y17513727D01*
X-12706577Y17657152D01*
X-12875226Y17769840D01*
X-13062620Y17847461D01*
X-13212790Y17877332D01*
X-13062620Y17907203D01*
X-12875226Y17984824D01*
X-12706577Y18097512D01*
X-12563152Y18240937D01*
X-12450464Y18409586D01*
X-12372843Y18596980D01*
X-12333272Y18795915D01*
X-12333272Y18998749D01*
X-12372843Y19197684D01*
X-12450464Y19385078D01*
X-12563152Y19553727D01*
X-12706577Y19697152D01*
X-12875226Y19809840D01*
X-13062620Y19887461D01*
X-13261555Y19927032D01*
X-13464389Y19927032D01*
X-13663324Y19887461D01*
X-13850718Y19809840D01*
X-14019367Y19697152D01*
X-14162792Y19553727D01*
X-14275480Y19385078D01*
X-14353101Y19197684D01*
X-14392672Y18998749D01*
X-15429893Y18998749D01*
X-15415226Y19004824D01*
X-15246577Y19117512D01*
X-15103152Y19260937D01*
X-14990464Y19429586D01*
X-14912843Y19616980D01*
X-14873272Y19815915D01*
X-14873272Y20018749D01*
X-14912843Y20217684D01*
X-14990464Y20405078D01*
X-15103152Y20573727D01*
X-15246577Y20717152D01*
X-15415226Y20829840D01*
X-15602620Y20907461D01*
X-15801555Y20947032D01*
X-16004389Y20947032D01*
X-16203324Y20907461D01*
X-16390718Y20829840D01*
X-16559367Y20717152D01*
X-16702792Y20573727D01*
X-16815480Y20405078D01*
X-16893101Y20217684D01*
X-16932672Y20018749D01*
X-18161500Y20018749D01*
X-18161500Y20780172D01*
X-18159291Y20802600D01*
X-18168109Y20892129D01*
X-18194223Y20978217D01*
X-18236631Y21057556D01*
X-18251994Y21076276D01*
X-18293702Y21127098D01*
X-18311128Y21141399D01*
X-19316796Y22147066D01*
X-19331101Y22164497D01*
X-19400643Y22221568D01*
X-19479982Y22263976D01*
X-19566070Y22290090D01*
X-19633171Y22296699D01*
X-19655599Y22298908D01*
X-19678027Y22296699D01*
X-23603573Y22296699D01*
X-23626001Y22298908D01*
X-23715530Y22290090D01*
X-23801619Y22263976D01*
X-23822115Y22253020D01*
X-23880957Y22221568D01*
X-23947699Y22166795D01*
X-24045092Y22147423D01*
X-24150591Y22103724D01*
X-24245537Y22040282D01*
X-24326282Y21959537D01*
X-24389724Y21864591D01*
X-24433423Y21759092D01*
X-24455700Y21647095D01*
X-24455700Y21532905D01*
X-24433423Y21420908D01*
X-24389724Y21315409D01*
X-24326282Y21220463D01*
X-24245537Y21139718D01*
X-24150591Y21076276D01*
X-24045092Y21032577D01*
X-23933095Y21010300D01*
X-23818905Y21010300D01*
X-23706908Y21032577D01*
X-23601409Y21076276D01*
X-23506463Y21139718D01*
X-23425718Y21220463D01*
X-23362276Y21315409D01*
X-23334155Y21383299D01*
X-19844769Y21383299D01*
X-19074899Y20613428D01*
X-19074900Y-14365029D01*
X-21093370Y-16383500D01*
X-27409576Y-16383500D01*
X-27432001Y-16381291D01*
X-27454426Y-16383500D01*
X-27454428Y-16383500D01*
X-27521529Y-16390109D01*
X-27607617Y-16416223D01*
X-27686956Y-16458631D01*
X-27756498Y-16515702D01*
X-27770795Y-16533123D01*
X-28551851Y-17314181D01*
X-28569277Y-17328482D01*
X-28626348Y-17398024D01*
X-28657823Y-17456909D01*
X-28668756Y-17477363D01*
X-28694871Y-17563452D01*
X-28703689Y-17652980D01*
X-28701479Y-17675418D01*
X-28701480Y-30851292D01*
X-28703689Y-30873720D01*
X-28701480Y-30896147D01*
X-28694871Y-30963248D01*
X-28672100Y-31038315D01*
X-28672100Y-31083195D01*
X-28649823Y-31195192D01*
X-28606124Y-31300691D01*
X-28542682Y-31395637D01*
X-28461937Y-31476382D01*
X-28366991Y-31539824D01*
X-28261492Y-31583523D01*
X-28149495Y-31605800D01*
X-28035305Y-31605800D01*
X-27940258Y-31586895D01*
X-28450256Y-32096893D01*
X-28467687Y-32111198D01*
X-28524758Y-32180741D01*
X-28567166Y-32260080D01*
X-28574064Y-32282821D01*
X-28593280Y-32346168D01*
X-28602098Y-32435696D01*
X-28599889Y-32458124D01*
X-28599888Y-33045124D01*
X-28602098Y-33067561D01*
X-28593280Y-33157089D01*
X-28573102Y-33223607D01*
X-28567165Y-33243178D01*
X-28524757Y-33322517D01*
X-28467686Y-33392059D01*
X-28450260Y-33406360D01*
X-28097749Y-33758872D01*
X-28083448Y-33776298D01*
X-28013906Y-33833369D01*
X-27934567Y-33875777D01*
X-27848479Y-33901891D01*
X-27763965Y-33910215D01*
X-27681191Y-33965524D01*
X-27575692Y-34009223D01*
X-27463695Y-34031500D01*
X-27349505Y-34031500D01*
X-27237508Y-34009223D01*
X-27132009Y-33965524D01*
X-27037063Y-33902082D01*
X-26956318Y-33821337D01*
X-26892876Y-33726391D01*
X-26849177Y-33620892D01*
X-26826900Y-33508895D01*
X-26826900Y-33394705D01*
X-26849177Y-33282708D01*
X-26892876Y-33177209D01*
X-26956318Y-33082263D01*
X-27037063Y-33001518D01*
X-27098445Y-32960503D01*
X-27056356Y-32858892D01*
X-27036332Y-32758224D01*
X-26148799Y-31870691D01*
X-26148800Y-33567670D01*
X-26151317Y-33593223D01*
X-26148800Y-33618775D01*
X-26148800Y-33618777D01*
X-26141273Y-33695199D01*
X-26111528Y-33793257D01*
X-26063223Y-33883629D01*
X-25998217Y-33962840D01*
X-25978360Y-33979136D01*
X-25259799Y-34697698D01*
X-25259800Y-35828320D01*
X-28649579Y-39218100D01*
X-28945395Y-39218100D01*
X-28924876Y-39187391D01*
X-28881177Y-39081892D01*
X-28858900Y-38969895D01*
X-28858900Y-38855705D01*
X-28881177Y-38743708D01*
X-28924876Y-38638209D01*
X-28981900Y-38552868D01*
X-28981900Y-37035338D01*
X-28979691Y-37012913D01*
X-28981900Y-36990486D01*
X-28988509Y-36923385D01*
X-29014623Y-36837297D01*
X-29057031Y-36757958D01*
X-29114102Y-36688416D01*
X-29131527Y-36674116D01*
X-30049304Y-35756340D01*
X-30049304Y-34403428D01*
X-30003695Y-34412500D01*
X-29889505Y-34412500D01*
X-29777508Y-34390223D01*
X-29672009Y-34346524D01*
X-29577063Y-34283082D01*
X-29496318Y-34202337D01*
X-29432876Y-34107391D01*
X-29389177Y-34001892D01*
X-29369153Y-33901224D01*
X-29216260Y-33748331D01*
X-29209054Y-33744479D01*
X-29139512Y-33687408D01*
X-29082441Y-33617866D01*
X-29040033Y-33538527D01*
X-29013919Y-33452439D01*
X-29005101Y-33362910D01*
X-29007310Y-33340482D01*
X-29007310Y-17459610D01*
X-29007300Y-17459508D01*
X-29005091Y-17437081D01*
X-29007300Y-17414653D01*
X-29007300Y-10392932D01*
X-28950276Y-10307591D01*
X-28906577Y-10202092D01*
X-28884300Y-10090095D01*
X-28884300Y-9975905D01*
X-28906577Y-9863908D01*
X-28950276Y-9758409D01*
X-29013718Y-9663463D01*
X-29094463Y-9582718D01*
X-29189409Y-9519276D01*
X-29294908Y-9475577D01*
X-29406905Y-9453300D01*
X-29521095Y-9453300D01*
X-29633092Y-9475577D01*
X-29738591Y-9519276D01*
X-29833537Y-9582718D01*
X-29914282Y-9663463D01*
X-29977724Y-9758409D01*
X-30021423Y-9863908D01*
X-30043700Y-9975905D01*
X-30043700Y-10090095D01*
X-30021423Y-10202092D01*
X-29977724Y-10307591D01*
X-29920700Y-10392932D01*
X-29920699Y-17414551D01*
X-29922919Y-17437090D01*
X-29920709Y-17459528D01*
X-29920710Y-33161039D01*
X-30015024Y-33255353D01*
X-30049304Y-33262172D01*
X-30049304Y-21167324D01*
X-30047095Y-21144896D01*
X-30055913Y-21055367D01*
X-30082027Y-20969279D01*
X-30124435Y-20889940D01*
X-30181506Y-20820398D01*
X-30198931Y-20806098D01*
X-31337653Y-19667376D01*
X-31357677Y-19566708D01*
X-31401376Y-19461209D01*
X-31464818Y-19366263D01*
X-31545563Y-19285518D01*
X-31640509Y-19222076D01*
X-31746008Y-19178377D01*
X-31858005Y-19156100D01*
X-31972195Y-19156100D01*
X-32084192Y-19178377D01*
X-32189691Y-19222076D01*
X-32284637Y-19285518D01*
X-32365382Y-19366263D01*
X-32428824Y-19461209D01*
X-32472523Y-19566708D01*
X-32494800Y-19678705D01*
X-32494800Y-19679636D01*
X-32528692Y-19686377D01*
X-32634191Y-19730076D01*
X-32729137Y-19793518D01*
X-32809882Y-19874263D01*
X-32873324Y-19969209D01*
X-32917023Y-20074708D01*
X-32939300Y-20186705D01*
X-32939300Y-20300895D01*
X-32917023Y-20412892D01*
X-32873324Y-20518391D01*
X-32816300Y-20603732D01*
X-32816299Y-21267491D01*
X-32818509Y-21289928D01*
X-32809691Y-21379456D01*
X-32783576Y-21465545D01*
X-32741168Y-21544884D01*
X-32684097Y-21614426D01*
X-32666671Y-21628727D01*
X-32152814Y-22142585D01*
X-32166044Y-22151425D01*
X-32246789Y-22232170D01*
X-32310231Y-22327116D01*
X-32353930Y-22432615D01*
X-32376207Y-22544612D01*
X-32376207Y-22658802D01*
X-32353930Y-22770799D01*
X-32310231Y-22876298D01*
X-32246789Y-22971244D01*
X-32166044Y-23051989D01*
X-32071098Y-23115431D01*
X-31965599Y-23159130D01*
X-31864930Y-23179154D01*
X-31816988Y-23227096D01*
X-31816988Y-24925375D01*
X-31894509Y-24873576D01*
X-32000008Y-24829877D01*
X-32112005Y-24807600D01*
X-32226195Y-24807600D01*
X-32338192Y-24829877D01*
X-32443691Y-24873576D01*
X-32538637Y-24937018D01*
X-32619382Y-25017763D01*
X-32682824Y-25112709D01*
X-32726523Y-25218208D01*
X-32748800Y-25330205D01*
X-32748800Y-25444395D01*
X-32726523Y-25556392D01*
X-32682824Y-25661891D01*
X-32619382Y-25756837D01*
X-32538637Y-25837582D01*
X-32443691Y-25901024D01*
X-32338192Y-25944723D01*
X-32237524Y-25964747D01*
X-32223399Y-25978872D01*
X-32223399Y-26108227D01*
X-32223398Y-26108237D01*
X-32223399Y-35082728D01*
X-32682024Y-35541353D01*
X-32782692Y-35561377D01*
X-32888191Y-35605076D01*
X-32983137Y-35668518D01*
X-33063882Y-35749263D01*
X-33127324Y-35844209D01*
X-33171023Y-35949708D01*
X-33193300Y-36061705D01*
X-33193300Y-36175895D01*
X-33171023Y-36287892D01*
X-33127324Y-36393391D01*
X-33063882Y-36488337D01*
X-32983137Y-36569082D01*
X-32888191Y-36632524D01*
X-32782692Y-36676223D01*
X-32670695Y-36698500D01*
X-32556505Y-36698500D01*
X-32444508Y-36676223D01*
X-32339009Y-36632524D01*
X-32244063Y-36569082D01*
X-32239257Y-36564276D01*
X-32234451Y-36569082D01*
X-32139505Y-36632524D01*
X-32034006Y-36676223D01*
X-31922009Y-36698500D01*
X-31807819Y-36698500D01*
X-31695822Y-36676223D01*
X-31590323Y-36632524D01*
X-31495377Y-36569082D01*
X-31454655Y-36528360D01*
X-31426138Y-36597205D01*
X-31362696Y-36692151D01*
X-31281951Y-36772896D01*
X-31187005Y-36836338D01*
X-31081506Y-36880037D01*
X-30969509Y-36902314D01*
X-30855319Y-36902314D01*
X-30743322Y-36880037D01*
X-30637823Y-36836338D01*
X-30542877Y-36772896D01*
X-30462132Y-36692151D01*
X-30439341Y-36658043D01*
X-29895300Y-37202085D01*
X-29895299Y-38552867D01*
X-29913346Y-38579875D01*
X-31022381Y-37470840D01*
X-31038677Y-37450983D01*
X-31117888Y-37385977D01*
X-31208259Y-37337672D01*
X-31306317Y-37307927D01*
X-31382739Y-37300400D01*
X-31382742Y-37300400D01*
X-31408294Y-37297883D01*
X-31433846Y-37300400D01*
X-34467645Y-37300400D01*
X-34493200Y-37297883D01*
X-34518755Y-37300400D01*
X-34595177Y-37307927D01*
X-34693235Y-37337672D01*
X-34783606Y-37385977D01*
X-34862817Y-37450983D01*
X-34879109Y-37470835D01*
X-35630365Y-38222092D01*
X-35650216Y-38238383D01*
X-35666507Y-38258234D01*
X-35715223Y-38317595D01*
X-35763527Y-38407965D01*
X-35793272Y-38506024D01*
X-35803317Y-38608000D01*
X-35800799Y-38633562D01*
X-35800800Y-39479343D01*
X-35838023Y-39569208D01*
X-35860300Y-39681205D01*
X-41991855Y-39681205D01*
X-41991855Y-12515905D01*
X-40838700Y-12515905D01*
X-40838700Y-12630095D01*
X-40816423Y-12742092D01*
X-40772724Y-12847591D01*
X-40717554Y-12930157D01*
X-40715700Y-12948981D01*
X-40709091Y-13016082D01*
X-40682976Y-13102170D01*
X-40640568Y-13181509D01*
X-40583497Y-13251051D01*
X-40566071Y-13265352D01*
X-36880300Y-16951124D01*
X-36880299Y-17884572D01*
X-36880300Y-32901368D01*
X-36937324Y-32986709D01*
X-36981023Y-33092208D01*
X-37003300Y-33204205D01*
X-37003300Y-33318395D01*
X-36981023Y-33430392D01*
X-36937324Y-33535891D01*
X-36873882Y-33630837D01*
X-36793137Y-33711582D01*
X-36698191Y-33775024D01*
X-36592692Y-33818723D01*
X-36480695Y-33841000D01*
X-36366505Y-33841000D01*
X-36254508Y-33818723D01*
X-36149009Y-33775024D01*
X-36054063Y-33711582D01*
X-35973318Y-33630837D01*
X-35909876Y-33535891D01*
X-35866177Y-33430392D01*
X-35843900Y-33318395D01*
X-35843900Y-33204205D01*
X-35866177Y-33092208D01*
X-35909876Y-32986709D01*
X-35966900Y-32901368D01*
X-35966900Y-16784381D01*
X-35964691Y-16761953D01*
X-35973509Y-16672424D01*
X-35999623Y-16586336D01*
X-36042031Y-16506997D01*
X-36046619Y-16501406D01*
X-36099102Y-16437455D01*
X-36116527Y-16423155D01*
X-39729699Y-12809984D01*
X-39701577Y-12742092D01*
X-39679300Y-12630095D01*
X-39679300Y-12515905D01*
X-39701577Y-12403908D01*
X-39745276Y-12298409D01*
X-39808718Y-12203463D01*
X-39889463Y-12122718D01*
X-39984409Y-12059276D01*
X-40089908Y-12015577D01*
X-40201905Y-11993300D01*
X-40316095Y-11993300D01*
X-40428092Y-12015577D01*
X-40533591Y-12059276D01*
X-40628537Y-12122718D01*
X-40709282Y-12203463D01*
X-40772724Y-12298409D01*
X-40816423Y-12403908D01*
X-40838700Y-12515905D01*
X-41991855Y-12515905D01*
X-41991855Y24822095D01*
X-29103900Y24822095D01*
X-29103900Y24707905D01*
X-29081623Y24595908D01*
X-29037924Y24490409D01*
X-28980900Y24405068D01*
X-28980899Y20266238D01*
X-28980900Y20266228D01*
X-28980900Y20119773D01*
X-28980899Y20119763D01*
X-28980900Y12369800D01*
X-28983109Y12347372D01*
X-28980900Y12324945D01*
X-28980899Y12324935D01*
X-28980900Y7040132D01*
X-29037924Y6954791D01*
X-29081623Y6849292D01*
X-29103900Y6737295D01*
X-29103900Y6623105D01*
X-29081623Y6511108D01*
X-29037924Y6405609D01*
X-28974482Y6310663D01*
X-28893737Y6229918D01*
X-28798791Y6166476D01*
X-28693292Y6122777D01*
X-28581295Y6100500D01*
X-28467105Y6100500D01*
X-28355108Y6122777D01*
X-28249609Y6166476D01*
X-28154663Y6229918D01*
X-28073918Y6310663D01*
X-28010476Y6405609D01*
X-27966777Y6511108D01*
X-27944500Y6623105D01*
X-27944500Y6737295D01*
X-27966777Y6849292D01*
X-28010476Y6954791D01*
X-28067500Y7040132D01*
X-28067500Y12158202D01*
X-27010948Y13214753D01*
X-26910280Y13234777D01*
X-26804781Y13278476D01*
X-26709835Y13341918D01*
X-26629090Y13422663D01*
X-26565648Y13517609D01*
X-26521949Y13623108D01*
X-26499672Y13735105D01*
X-26499672Y13849295D01*
X-26521949Y13961292D01*
X-26565648Y14066791D01*
X-26629090Y14161737D01*
X-26709835Y14242482D01*
X-26804781Y14305924D01*
X-26910280Y14349623D01*
X-27022277Y14371900D01*
X-27136467Y14371900D01*
X-27248464Y14349623D01*
X-27353963Y14305924D01*
X-27448909Y14242482D01*
X-27529654Y14161737D01*
X-27593096Y14066791D01*
X-27636795Y13961292D01*
X-27656819Y13860624D01*
X-28067500Y13449943D01*
X-28067500Y23516024D01*
X-12572672Y23516024D01*
X-12572672Y23218640D01*
X-12514655Y22926969D01*
X-12400851Y22652221D01*
X-12235633Y22404954D01*
X-12025350Y22194671D01*
X-11778083Y22029453D01*
X-11503335Y21915649D01*
X-11211664Y21857632D01*
X-10914280Y21857632D01*
X-10622609Y21915649D01*
X-10347861Y22029453D01*
X-10100594Y22194671D01*
X-9890311Y22404954D01*
X-9725093Y22652221D01*
X-9611289Y22926969D01*
X-9553272Y23218640D01*
X-9553272Y23516024D01*
X-9611289Y23807695D01*
X-9725093Y24082443D01*
X-9890311Y24329710D01*
X-10100594Y24539993D01*
X-10347861Y24705211D01*
X-10622609Y24819015D01*
X-10914280Y24877032D01*
X-11211664Y24877032D01*
X-11503335Y24819015D01*
X-11778083Y24705211D01*
X-12025350Y24539993D01*
X-12235633Y24329710D01*
X-12400851Y24082443D01*
X-12514655Y23807695D01*
X-12572672Y23516024D01*
X-28067500Y23516024D01*
X-28067500Y24405068D01*
X-28010476Y24490409D01*
X-27966777Y24595908D01*
X-27944500Y24707905D01*
X-27944500Y24822095D01*
X-27966777Y24934092D01*
X-28010476Y25039591D01*
X-28073918Y25134537D01*
X-28154663Y25215282D01*
X-28249609Y25278724D01*
X-28355108Y25322423D01*
X-28467105Y25344700D01*
X-28581295Y25344700D01*
X-28693292Y25322423D01*
X-28798791Y25278724D01*
X-28893737Y25215282D01*
X-28974482Y25134537D01*
X-29037924Y25039591D01*
X-29081623Y24934092D01*
X-29103900Y24822095D01*
X-41991855Y24822095D01*
X-41991855Y27720474D01*
X-41861255Y27720474D01*
X-41861255Y27405360D01*
X-41799779Y27096302D01*
X-41679191Y26805175D01*
X-41504123Y26543168D01*
X-41281304Y26320349D01*
X-41019297Y26145281D01*
X-40728170Y26024693D01*
X-40419112Y25963217D01*
X-40103998Y25963217D01*
X-39794940Y26024693D01*
X-39503813Y26145281D01*
X-39241806Y26320349D01*
X-39018987Y26543168D01*
X-38843919Y26805175D01*
X-38723331Y27096302D01*
X-38661855Y27405360D01*
X-38661855Y27720474D01*
X-8631255Y27720474D01*
X-8631255Y27405360D01*
X-8569779Y27096302D01*
X-8449191Y26805175D01*
X-8274123Y26543168D01*
X-8051304Y26320349D01*
X-7789297Y26145281D01*
X-7498170Y26024693D01*
X-7189112Y25963217D01*
X-6873998Y25963217D01*
X-6564940Y26024693D01*
X-6273813Y26145281D01*
X-6011806Y26320349D01*
X-5788987Y26543168D01*
X-5613919Y26805175D01*
X-5493331Y27096302D01*
X-5431855Y27405360D01*
X-5431855Y27720474D01*
X-5493331Y28029532D01*
X-5613919Y28320659D01*
X-5788987Y28582666D01*
X-6011806Y28805485D01*
X-6273813Y28980553D01*
X-6564940Y29101141D01*
X-6873998Y29162617D01*
X-7189112Y29162617D01*
X-7498170Y29101141D01*
X-7789297Y28980553D01*
X-8051304Y28805485D01*
X-8274123Y28582666D01*
X-8449191Y28320659D01*
X-8569779Y28029532D01*
X-8631255Y27720474D01*
X-38661855Y27720474D01*
X-38723331Y28029532D01*
X-38843919Y28320659D01*
X-39018987Y28582666D01*
X-39241806Y28805485D01*
X-39503813Y28980553D01*
X-39794940Y29101141D01*
X-40103998Y29162617D01*
X-40419112Y29162617D01*
X-40728170Y29101141D01*
X-41019297Y28980553D01*
X-41281304Y28805485D01*
X-41504123Y28582666D01*
X-41679191Y28320659D01*
X-41799779Y28029532D01*
X-41861255Y27720474D01*
X-41991855Y27720474D01*
X-41991855Y28178120D01*
X-41969091Y28410288D01*
X-41907417Y28614563D01*
X-41807237Y28802973D01*
X-41672371Y28968335D01*
X-41507953Y29104353D01*
X-41320249Y29205845D01*
X-41116406Y29268945D01*
X-40885467Y29293217D01*
X-6416352Y29293217D01*
X-6184184Y29270453D01*
X-6184184Y29270453D01*
G37*
X-6184184Y29270453D02*
X-5979909Y29208779D01*
X-5791499Y29108599D01*
X-5626137Y28973733D01*
X-5490119Y28809315D01*
X-5388627Y28621611D01*
X-5325527Y28417768D01*
X-5301254Y28186819D01*
X-5301255Y-71782286D01*
X-5324019Y-72014453D01*
X-5385694Y-72218730D01*
X-5485872Y-72407137D01*
X-5620739Y-72572501D01*
X-5785157Y-72708519D01*
X-5972861Y-72810011D01*
X-6176704Y-72873111D01*
X-6407643Y-72897383D01*
X-40876758Y-72897383D01*
X-41108925Y-72874619D01*
X-41313202Y-72812944D01*
X-41501609Y-72712766D01*
X-41666973Y-72577899D01*
X-41802991Y-72413481D01*
X-41904483Y-72225777D01*
X-41967583Y-72021934D01*
X-41991855Y-71790995D01*
X-41991855Y-71009526D01*
X-41861255Y-71009526D01*
X-41861255Y-71324640D01*
X-41799779Y-71633698D01*
X-41679191Y-71924825D01*
X-41504123Y-72186832D01*
X-41281304Y-72409651D01*
X-41019297Y-72584719D01*
X-40728170Y-72705307D01*
X-40419112Y-72766783D01*
X-40103998Y-72766783D01*
X-39794940Y-72705307D01*
X-39503813Y-72584719D01*
X-39241806Y-72409651D01*
X-39018987Y-72186832D01*
X-38843919Y-71924825D01*
X-38723331Y-71633698D01*
X-38661855Y-71324640D01*
X-38661855Y-71009526D01*
X-8631255Y-71009526D01*
X-8631255Y-71324640D01*
X-8569779Y-71633698D01*
X-8449191Y-71924825D01*
X-8274123Y-72186832D01*
X-8051304Y-72409651D01*
X-7789297Y-72584719D01*
X-7498170Y-72705307D01*
X-7189112Y-72766783D01*
X-6873998Y-72766783D01*
X-6564940Y-72705307D01*
X-6273813Y-72584719D01*
X-6011806Y-72409651D01*
X-5788987Y-72186832D01*
X-5613919Y-71924825D01*
X-5493331Y-71633698D01*
X-5431855Y-71324640D01*
X-5431855Y-71009526D01*
X-5493331Y-70700468D01*
X-5613919Y-70409341D01*
X-5788987Y-70147334D01*
X-6011806Y-69924515D01*
X-6273813Y-69749447D01*
X-6564940Y-69628859D01*
X-6873998Y-69567383D01*
X-7189112Y-69567383D01*
X-7498170Y-69628859D01*
X-7789297Y-69749447D01*
X-8051304Y-69924515D01*
X-8274123Y-70147334D01*
X-8449191Y-70409341D01*
X-8569779Y-70700468D01*
X-8631255Y-71009526D01*
X-38661855Y-71009526D01*
X-38723331Y-70700468D01*
X-38843919Y-70409341D01*
X-39018987Y-70147334D01*
X-39241806Y-69924515D01*
X-39503813Y-69749447D01*
X-39794940Y-69628859D01*
X-40103998Y-69567383D01*
X-40419112Y-69567383D01*
X-40728170Y-69628859D01*
X-41019297Y-69749447D01*
X-41281304Y-69924515D01*
X-41504123Y-70147334D01*
X-41679191Y-70409341D01*
X-41799779Y-70700468D01*
X-41861255Y-71009526D01*
X-41991855Y-71009526D01*
X-41991855Y-63100000D01*
X-36660295Y-63100000D01*
X-36660295Y-67600000D01*
X-36653929Y-67664632D01*
X-36635077Y-67726781D01*
X-36604462Y-67784058D01*
X-36563261Y-67834261D01*
X-36513058Y-67875462D01*
X-36455781Y-67906077D01*
X-36393632Y-67924929D01*
X-36329000Y-67931295D01*
X-34029000Y-67931295D01*
X-33964368Y-67924929D01*
X-33902219Y-67906077D01*
X-33844942Y-67875462D01*
X-33794739Y-67834261D01*
X-33753538Y-67784058D01*
X-33722923Y-67726781D01*
X-33704071Y-67664632D01*
X-33697705Y-67600000D01*
X-33697705Y-65806700D01*
X-33368428Y-65806700D01*
X-33346000Y-65808909D01*
X-33323572Y-65806700D01*
X-33256471Y-65800091D01*
X-33170383Y-65773977D01*
X-33091044Y-65731569D01*
X-33021502Y-65674498D01*
X-33007197Y-65657067D01*
X-32426487Y-65076357D01*
X-11040700Y-65076357D01*
X-11040700Y-65249643D01*
X-11006893Y-65419599D01*
X-10940580Y-65579694D01*
X-10844307Y-65723776D01*
X-10721776Y-65846307D01*
X-10577694Y-65942580D01*
X-10417599Y-66008893D01*
X-10247643Y-66042700D01*
X-10074357Y-66042700D01*
X-9904401Y-66008893D01*
X-9744306Y-65942580D01*
X-9647414Y-65877839D01*
X-9615580Y-65954694D01*
X-9519307Y-66098776D01*
X-9396776Y-66221307D01*
X-9252694Y-66317580D01*
X-9092599Y-66383893D01*
X-8922643Y-66417700D01*
X-8749357Y-66417700D01*
X-8640700Y-66396086D01*
X-8640700Y-66474266D01*
X-8597286Y-66692521D01*
X-8512127Y-66898114D01*
X-8388495Y-67083142D01*
X-8231142Y-67240495D01*
X-8046114Y-67364127D01*
X-7840521Y-67449286D01*
X-7622266Y-67492700D01*
X-7399734Y-67492700D01*
X-7181479Y-67449286D01*
X-6975886Y-67364127D01*
X-6790858Y-67240495D01*
X-6633505Y-67083142D01*
X-6509873Y-66898114D01*
X-6424714Y-66692521D01*
X-6381300Y-66474266D01*
X-6381300Y-66251734D01*
X-6424714Y-66033479D01*
X-6509873Y-65827886D01*
X-6633505Y-65642858D01*
X-6790858Y-65485505D01*
X-6975886Y-65361873D01*
X-7181479Y-65276714D01*
X-7399734Y-65233300D01*
X-7622266Y-65233300D01*
X-7840521Y-65276714D01*
X-7979582Y-65334315D01*
X-7990107Y-65281401D01*
X-8056420Y-65121306D01*
X-8152693Y-64977224D01*
X-8275224Y-64854693D01*
X-8419306Y-64758420D01*
X-8579401Y-64692107D01*
X-8749357Y-64658300D01*
X-8922643Y-64658300D01*
X-9092599Y-64692107D01*
X-9252694Y-64758420D01*
X-9349586Y-64823161D01*
X-9381420Y-64746306D01*
X-9477693Y-64602224D01*
X-9600224Y-64479693D01*
X-9744306Y-64383420D01*
X-9904401Y-64317107D01*
X-10074357Y-64283300D01*
X-10247643Y-64283300D01*
X-10417599Y-64317107D01*
X-10577694Y-64383420D01*
X-10721776Y-64479693D01*
X-10844307Y-64602224D01*
X-10940580Y-64746306D01*
X-11006893Y-64906401D01*
X-11040700Y-65076357D01*
X-32426487Y-65076357D01*
X-29776576Y-62426446D01*
X-29675908Y-62406423D01*
X-29570409Y-62362724D01*
X-29475463Y-62299282D01*
X-29394718Y-62218537D01*
X-29331276Y-62123591D01*
X-29287577Y-62018092D01*
X-29265300Y-61906095D01*
X-29265300Y-61791905D01*
X-29287577Y-61679908D01*
X-29331276Y-61574409D01*
X-29394718Y-61479463D01*
X-29475463Y-61398718D01*
X-29570409Y-61335276D01*
X-29675908Y-61291577D01*
X-29787905Y-61269300D01*
X-29902095Y-61269300D01*
X-30014092Y-61291577D01*
X-30119591Y-61335276D01*
X-30214537Y-61398718D01*
X-30295282Y-61479463D01*
X-30358724Y-61574409D01*
X-30402423Y-61679908D01*
X-30422446Y-61780576D01*
X-33535170Y-64893300D01*
X-33697705Y-64893300D01*
X-33697705Y-63100000D01*
X-33704071Y-63035368D01*
X-33722923Y-62973219D01*
X-33753538Y-62915942D01*
X-33794739Y-62865739D01*
X-33844942Y-62824538D01*
X-33902219Y-62793923D01*
X-33964368Y-62775071D01*
X-34029000Y-62768705D01*
X-36329000Y-62768705D01*
X-36393632Y-62775071D01*
X-36455781Y-62793923D01*
X-36513058Y-62824538D01*
X-36563261Y-62865739D01*
X-36604462Y-62915942D01*
X-36635077Y-62973219D01*
X-36653929Y-63035368D01*
X-36660295Y-63100000D01*
X-41991855Y-63100000D01*
X-41991855Y-61003508D01*
X-36158700Y-61003508D01*
X-36158700Y-61196492D01*
X-36121050Y-61385768D01*
X-36047199Y-61564062D01*
X-35939982Y-61724522D01*
X-35803522Y-61860982D01*
X-35643062Y-61968199D01*
X-35464768Y-62042050D01*
X-35275492Y-62079700D01*
X-35082508Y-62079700D01*
X-34893232Y-62042050D01*
X-34714938Y-61968199D01*
X-34554478Y-61860982D01*
X-34418018Y-61724522D01*
X-34310801Y-61564062D01*
X-34236950Y-61385768D01*
X-34199300Y-61196492D01*
X-34199300Y-61003508D01*
X-34236950Y-60814232D01*
X-34310801Y-60635938D01*
X-34418018Y-60475478D01*
X-34554478Y-60339018D01*
X-34714938Y-60231801D01*
X-34893232Y-60157950D01*
X-35082508Y-60120300D01*
X-35275492Y-60120300D01*
X-35464768Y-60157950D01*
X-35643062Y-60231801D01*
X-35803522Y-60339018D01*
X-35939982Y-60475478D01*
X-36047199Y-60635938D01*
X-36121050Y-60814232D01*
X-36158700Y-61003508D01*
X-41991855Y-61003508D01*
X-41991855Y-53565819D01*
X-36033700Y-53565819D01*
X-36033700Y-53734181D01*
X-36000855Y-53899307D01*
X-35936426Y-54054852D01*
X-35842889Y-54194840D01*
X-35723840Y-54313889D01*
X-35583852Y-54407426D01*
X-35428307Y-54471855D01*
X-35263181Y-54504700D01*
X-35094819Y-54504700D01*
X-34929693Y-54471855D01*
X-34774148Y-54407426D01*
X-34634160Y-54313889D01*
X-34515111Y-54194840D01*
X-34421574Y-54054852D01*
X-34357145Y-53899307D01*
X-34324300Y-53734181D01*
X-34324300Y-53565819D01*
X-34357145Y-53400693D01*
X-34421574Y-53245148D01*
X-34515111Y-53105160D01*
X-34634160Y-52986111D01*
X-34774148Y-52892574D01*
X-34929693Y-52828145D01*
X-35094819Y-52795300D01*
X-35263181Y-52795300D01*
X-35428307Y-52828145D01*
X-35583852Y-52892574D01*
X-35723840Y-52986111D01*
X-35842889Y-53105160D01*
X-35936426Y-53245148D01*
X-36000855Y-53400693D01*
X-36033700Y-53565819D01*
X-41991855Y-53565819D01*
X-41991855Y-49045625D01*
X-36709500Y-49045625D01*
X-36709500Y-51237476D01*
X-36694878Y-51310988D01*
X-36666195Y-51380234D01*
X-36624554Y-51442555D01*
X-36571555Y-51495554D01*
X-36509234Y-51537195D01*
X-36439988Y-51565878D01*
X-36366476Y-51580500D01*
X-35274625Y-51580500D01*
X-35179500Y-51485375D01*
X-35179500Y-48950500D01*
X-35178500Y-48950500D01*
X-35178500Y-51485375D01*
X-35083375Y-51580500D01*
X-33991524Y-51580500D01*
X-33918012Y-51565878D01*
X-33848766Y-51537195D01*
X-33786445Y-51495554D01*
X-33733446Y-51442555D01*
X-33691805Y-51380234D01*
X-33663122Y-51310988D01*
X-33648500Y-51237476D01*
X-33648500Y-49045625D01*
X-33743625Y-48950500D01*
X-35178500Y-48950500D01*
X-35179500Y-48950500D01*
X-36614375Y-48950500D01*
X-36709500Y-49045625D01*
X-41991855Y-49045625D01*
X-41991855Y-46662524D01*
X-36709500Y-46662524D01*
X-36709500Y-48854375D01*
X-36614375Y-48949500D01*
X-35179500Y-48949500D01*
X-35179500Y-46414625D01*
X-35178500Y-46414625D01*
X-35178500Y-48949500D01*
X-33743625Y-48949500D01*
X-33648500Y-48854375D01*
X-33648500Y-46662524D01*
X-33663122Y-46589012D01*
X-33691805Y-46519766D01*
X-33733446Y-46457445D01*
X-33786445Y-46404446D01*
X-33848766Y-46362805D01*
X-33918012Y-46334122D01*
X-33991524Y-46319500D01*
X-35083375Y-46319500D01*
X-35178500Y-46414625D01*
X-35179500Y-46414625D01*
X-35274625Y-46319500D01*
X-36366476Y-46319500D01*
X-36439988Y-46334122D01*
X-36509234Y-46362805D01*
X-36571555Y-46404446D01*
X-36624554Y-46457445D01*
X-36666195Y-46519766D01*
X-36694878Y-46589012D01*
X-36709500Y-46662524D01*
X-41991855Y-46662524D01*
X-41991855Y-39681205D01*
X-35860300Y-39681205D01*
X-35860300Y-39795395D01*
X-35838023Y-39907392D01*
X-35794324Y-40012891D01*
X-35730882Y-40107837D01*
X-35650137Y-40188582D01*
X-35555191Y-40252024D01*
X-35449692Y-40295723D01*
X-35337695Y-40318000D01*
X-35223505Y-40318000D01*
X-35111508Y-40295723D01*
X-35006009Y-40252024D01*
X-34911063Y-40188582D01*
X-34830318Y-40107837D01*
X-34766876Y-40012891D01*
X-34723177Y-39907392D01*
X-34700900Y-39795395D01*
X-34700900Y-39681205D01*
X-34723177Y-39569208D01*
X-34760400Y-39479343D01*
X-34760400Y-38823473D01*
X-34711108Y-38774181D01*
X-34676724Y-38857191D01*
X-34619700Y-38942533D01*
X-34619700Y-39220572D01*
X-34621909Y-39243000D01*
X-34617475Y-39288018D01*
X-34613091Y-39332528D01*
X-34586977Y-39418616D01*
X-34544569Y-39497955D01*
X-34487498Y-39567498D01*
X-34470067Y-39581803D01*
X-30205200Y-43846671D01*
X-30190899Y-43864097D01*
X-30122288Y-43920404D01*
X-30121357Y-43921168D01*
X-30042018Y-43963576D01*
X-29955930Y-43989690D01*
X-29866401Y-43998508D01*
X-29843973Y-43996299D01*
X-25341596Y-43996299D01*
X-25344700Y-44011905D01*
X-25344700Y-44126095D01*
X-25322423Y-44238092D01*
X-25278724Y-44343591D01*
X-25221700Y-44428932D01*
X-25221699Y-48451828D01*
X-29405423Y-52635553D01*
X-29506092Y-52655577D01*
X-29611591Y-52699276D01*
X-29706537Y-52762718D01*
X-29787282Y-52843463D01*
X-29850724Y-52938409D01*
X-29894423Y-53043908D01*
X-29916700Y-53155905D01*
X-29916700Y-53270095D01*
X-29894423Y-53382092D01*
X-29850724Y-53487591D01*
X-29787282Y-53582537D01*
X-29706537Y-53663282D01*
X-29611591Y-53726724D01*
X-29506092Y-53770423D01*
X-29394095Y-53792700D01*
X-29279905Y-53792700D01*
X-29167908Y-53770423D01*
X-29062409Y-53726724D01*
X-28967463Y-53663282D01*
X-28886718Y-53582537D01*
X-28829000Y-53496157D01*
X-28771282Y-53582537D01*
X-28690537Y-53663282D01*
X-28595591Y-53726724D01*
X-28490092Y-53770423D01*
X-28378095Y-53792700D01*
X-28263905Y-53792700D01*
X-28151908Y-53770423D01*
X-28046409Y-53726724D01*
X-27951463Y-53663282D01*
X-27870718Y-53582537D01*
X-27807276Y-53487591D01*
X-27763577Y-53382092D01*
X-27743553Y-53281423D01*
X-24172206Y-49710077D01*
X-24172202Y-49710072D01*
X-23930319Y-49468189D01*
X-23930319Y-52240448D01*
X-24204472Y-52514602D01*
X-24221898Y-52528903D01*
X-24278969Y-52598445D01*
X-24309507Y-52655577D01*
X-24321377Y-52677784D01*
X-24347492Y-52763873D01*
X-24356310Y-52853401D01*
X-24354100Y-52875838D01*
X-24354101Y-53804171D01*
X-24356310Y-53826599D01*
X-24354101Y-53849026D01*
X-24347492Y-53916127D01*
X-24321378Y-54002215D01*
X-24278970Y-54081554D01*
X-24221899Y-54151097D01*
X-24204468Y-54165402D01*
X-23945447Y-54424424D01*
X-23925423Y-54525092D01*
X-23881724Y-54630591D01*
X-23818282Y-54725537D01*
X-23737537Y-54806282D01*
X-23642591Y-54869724D01*
X-23537092Y-54913423D01*
X-23425095Y-54935700D01*
X-23310905Y-54935700D01*
X-23198908Y-54913423D01*
X-23117499Y-54879702D01*
X-23117499Y-58596773D01*
X-23119708Y-58619201D01*
X-23117499Y-58641628D01*
X-23110890Y-58708729D01*
X-23084776Y-58794817D01*
X-23042368Y-58874156D01*
X-22985297Y-58943699D01*
X-22967866Y-58958004D01*
X-18357446Y-63568424D01*
X-18337423Y-63669092D01*
X-18293724Y-63774591D01*
X-18230282Y-63869537D01*
X-18149537Y-63950282D01*
X-18054591Y-64013724D01*
X-17949092Y-64057423D01*
X-17837095Y-64079700D01*
X-17722905Y-64079700D01*
X-17610908Y-64057423D01*
X-17505409Y-64013724D01*
X-17410463Y-63950282D01*
X-17329718Y-63869537D01*
X-17266276Y-63774591D01*
X-17222577Y-63669092D01*
X-17200300Y-63557095D01*
X-17200300Y-63442905D01*
X-17222577Y-63330908D01*
X-17266276Y-63225409D01*
X-17329718Y-63130463D01*
X-17410463Y-63049718D01*
X-17496843Y-62992000D01*
X-17410463Y-62934282D01*
X-17329718Y-62853537D01*
X-17266276Y-62758591D01*
X-17236498Y-62686700D01*
X-12313981Y-62686700D01*
X-12291553Y-62688909D01*
X-12269125Y-62686700D01*
X-12202024Y-62680091D01*
X-12115936Y-62653977D01*
X-12037331Y-62611961D01*
X-8015700Y-62611961D01*
X-8015700Y-62864039D01*
X-7966522Y-63111275D01*
X-7870055Y-63344165D01*
X-7730008Y-63553761D01*
X-7551761Y-63732008D01*
X-7342165Y-63872055D01*
X-7109275Y-63968522D01*
X-6862039Y-64017700D01*
X-6609961Y-64017700D01*
X-6362725Y-63968522D01*
X-6129835Y-63872055D01*
X-5920239Y-63732008D01*
X-5741992Y-63553761D01*
X-5601945Y-63344165D01*
X-5505478Y-63111275D01*
X-5456300Y-62864039D01*
X-5456300Y-62611961D01*
X-5505478Y-62364725D01*
X-5601945Y-62131835D01*
X-5741992Y-61922239D01*
X-5920239Y-61743992D01*
X-6129835Y-61603945D01*
X-6362725Y-61507478D01*
X-6609961Y-61458300D01*
X-6862039Y-61458300D01*
X-7109275Y-61507478D01*
X-7342165Y-61603945D01*
X-7551761Y-61743992D01*
X-7730008Y-61922239D01*
X-7870055Y-62131835D01*
X-7966522Y-62364725D01*
X-8015700Y-62611961D01*
X-12037331Y-62611961D01*
X-12036597Y-62611569D01*
X-11967055Y-62554498D01*
X-11952749Y-62537066D01*
X-11920984Y-62505301D01*
X-11853092Y-62533423D01*
X-11741095Y-62555700D01*
X-11626905Y-62555700D01*
X-11514908Y-62533423D01*
X-11409409Y-62489724D01*
X-11314463Y-62426282D01*
X-11233718Y-62345537D01*
X-11170276Y-62250591D01*
X-11126577Y-62145092D01*
X-11104300Y-62033095D01*
X-11104300Y-61918905D01*
X-11126577Y-61806908D01*
X-11170276Y-61701409D01*
X-11233718Y-61606463D01*
X-11314463Y-61525718D01*
X-11409409Y-61462276D01*
X-11514908Y-61418577D01*
X-11626905Y-61396300D01*
X-11741095Y-61396300D01*
X-11853092Y-61418577D01*
X-11958591Y-61462276D01*
X-12041157Y-61517446D01*
X-12059979Y-61519300D01*
X-12059981Y-61519300D01*
X-12127082Y-61525909D01*
X-12213170Y-61552023D01*
X-12292509Y-61594431D01*
X-12362051Y-61651502D01*
X-12376357Y-61668934D01*
X-12480723Y-61773300D01*
X-17082829Y-61773300D01*
X-18629772Y-60226357D01*
X-11040700Y-60226357D01*
X-11040700Y-60399643D01*
X-11006893Y-60569599D01*
X-10940580Y-60729694D01*
X-10844307Y-60873776D01*
X-10721776Y-60996307D01*
X-10577694Y-61092580D01*
X-10417599Y-61158893D01*
X-10247643Y-61192700D01*
X-10074357Y-61192700D01*
X-9904401Y-61158893D01*
X-9744306Y-61092580D01*
X-9600224Y-60996307D01*
X-9477693Y-60873776D01*
X-9381420Y-60729694D01*
X-9349586Y-60652839D01*
X-9252694Y-60717580D01*
X-9092599Y-60783893D01*
X-8922643Y-60817700D01*
X-8749357Y-60817700D01*
X-8579401Y-60783893D01*
X-8419306Y-60717580D01*
X-8275224Y-60621307D01*
X-8152693Y-60498776D01*
X-8056420Y-60354694D01*
X-7990107Y-60194599D01*
X-7979582Y-60141685D01*
X-7840521Y-60199286D01*
X-7622266Y-60242700D01*
X-7399734Y-60242700D01*
X-7181479Y-60199286D01*
X-6975886Y-60114127D01*
X-6790858Y-59990495D01*
X-6633505Y-59833142D01*
X-6509873Y-59648114D01*
X-6424714Y-59442521D01*
X-6381300Y-59224266D01*
X-6381300Y-59001734D01*
X-6424714Y-58783479D01*
X-6509873Y-58577886D01*
X-6633505Y-58392858D01*
X-6790858Y-58235505D01*
X-6975886Y-58111873D01*
X-7181479Y-58026714D01*
X-7399734Y-57983300D01*
X-7622266Y-57983300D01*
X-7840521Y-58026714D01*
X-8046114Y-58111873D01*
X-8231142Y-58235505D01*
X-8388495Y-58392858D01*
X-8512127Y-58577886D01*
X-8597286Y-58783479D01*
X-8640700Y-59001734D01*
X-8640700Y-59079914D01*
X-8749357Y-59058300D01*
X-8922643Y-59058300D01*
X-9092599Y-59092107D01*
X-9252694Y-59158420D01*
X-9396776Y-59254693D01*
X-9519307Y-59377224D01*
X-9615580Y-59521306D01*
X-9647414Y-59598161D01*
X-9744306Y-59533420D01*
X-9904401Y-59467107D01*
X-10074357Y-59433300D01*
X-10247643Y-59433300D01*
X-10417599Y-59467107D01*
X-10577694Y-59533420D01*
X-10721776Y-59629693D01*
X-10844307Y-59752224D01*
X-10940580Y-59896306D01*
X-11006893Y-60056401D01*
X-11040700Y-60226357D01*
X-18629772Y-60226357D01*
X-21276991Y-57579139D01*
X-21276991Y-49940828D01*
X-21197537Y-50020282D01*
X-21102591Y-50083724D01*
X-20997092Y-50127423D01*
X-20885095Y-50149700D01*
X-20770905Y-50149700D01*
X-20658908Y-50127423D01*
X-20553409Y-50083724D01*
X-20458463Y-50020282D01*
X-20377718Y-49939537D01*
X-20314276Y-49844591D01*
X-20270577Y-49739092D01*
X-20248300Y-49627095D01*
X-20248300Y-49512905D01*
X-20270577Y-49400908D01*
X-20307800Y-49311043D01*
X-20307800Y-42379473D01*
X-19335240Y-41406913D01*
X-19315383Y-41390617D01*
X-19250377Y-41311406D01*
X-19202072Y-41221035D01*
X-19172327Y-41122977D01*
X-19164800Y-41046555D01*
X-19164800Y-41046553D01*
X-19162283Y-41021001D01*
X-19164800Y-40995448D01*
X-19164800Y-40517957D01*
X-19127577Y-40428092D01*
X-19105300Y-40316095D01*
X-19105300Y-40201905D01*
X-19127577Y-40089908D01*
X-19171276Y-39984409D01*
X-19234718Y-39889463D01*
X-19315463Y-39808718D01*
X-19410409Y-39745276D01*
X-19515908Y-39701577D01*
X-19627905Y-39679300D01*
X-19742095Y-39679300D01*
X-19854092Y-39701577D01*
X-19959591Y-39745276D01*
X-19990280Y-39765782D01*
X-19990280Y-37908150D01*
X-18733829Y-36651700D01*
X-17504932Y-36651700D01*
X-17419591Y-36708724D01*
X-17314092Y-36752423D01*
X-17202095Y-36774700D01*
X-17087905Y-36774700D01*
X-16975908Y-36752423D01*
X-16870409Y-36708724D01*
X-16775463Y-36645282D01*
X-16694718Y-36564537D01*
X-16631276Y-36469591D01*
X-16587577Y-36364092D01*
X-16565300Y-36252095D01*
X-16565300Y-36137905D01*
X-16587577Y-36025908D01*
X-16631276Y-35920409D01*
X-16694718Y-35825463D01*
X-16775463Y-35744718D01*
X-16870409Y-35681276D01*
X-16975908Y-35637577D01*
X-17087905Y-35615300D01*
X-17202095Y-35615300D01*
X-17314092Y-35637577D01*
X-17419591Y-35681276D01*
X-17504932Y-35738300D01*
X-18900573Y-35738300D01*
X-18923001Y-35736091D01*
X-19012530Y-35744909D01*
X-19038644Y-35752831D01*
X-19098617Y-35771023D01*
X-19177956Y-35813431D01*
X-19247498Y-35870502D01*
X-19261799Y-35887928D01*
X-20754048Y-37380178D01*
X-20771478Y-37394482D01*
X-20828549Y-37464024D01*
X-20870957Y-37543363D01*
X-20897071Y-37629451D01*
X-20897071Y-37629452D01*
X-20905889Y-37718980D01*
X-20903680Y-37741408D01*
X-20903680Y-37868407D01*
X-20903679Y-37868417D01*
X-20903680Y-40781009D01*
X-21814627Y-41691956D01*
X-21832677Y-41601208D01*
X-21876376Y-41495709D01*
X-21939818Y-41400763D01*
X-22020563Y-41320018D01*
X-22115509Y-41256576D01*
X-22221008Y-41212877D01*
X-22333005Y-41190600D01*
X-22447195Y-41190600D01*
X-22559192Y-41212877D01*
X-22664691Y-41256576D01*
X-22759637Y-41320018D01*
X-22771100Y-41331481D01*
X-22782563Y-41320018D01*
X-22877509Y-41256576D01*
X-22983008Y-41212877D01*
X-23095005Y-41190600D01*
X-23209195Y-41190600D01*
X-23321192Y-41212877D01*
X-23426691Y-41256576D01*
X-23521637Y-41320018D01*
X-23602382Y-41400763D01*
X-23665824Y-41495709D01*
X-23709523Y-41601208D01*
X-23731800Y-41713205D01*
X-23731800Y-41728626D01*
X-23818905Y-41711300D01*
X-23933095Y-41711300D01*
X-24045092Y-41733577D01*
X-24065432Y-41742002D01*
X-23142426Y-40818997D01*
X-23125000Y-40804696D01*
X-23067929Y-40735154D01*
X-23025521Y-40655815D01*
X-22999407Y-40569727D01*
X-22992798Y-40502626D01*
X-22990589Y-40480198D01*
X-22992798Y-40457770D01*
X-22992798Y-34352170D01*
X-20952926Y-32312299D01*
X-18720827Y-32312299D01*
X-18698399Y-32314508D01*
X-18675971Y-32312299D01*
X-18608870Y-32305690D01*
X-18522782Y-32279576D01*
X-18443443Y-32237168D01*
X-18373901Y-32180097D01*
X-18359596Y-32162666D01*
X-17003028Y-30806099D01*
X-16985602Y-30791798D01*
X-16928531Y-30722256D01*
X-16886123Y-30642917D01*
X-16860009Y-30556829D01*
X-16853400Y-30489728D01*
X-16853400Y-30489726D01*
X-16851191Y-30467301D01*
X-16853400Y-30444876D01*
X-16853400Y-14538508D01*
X-16851191Y-14516080D01*
X-16860009Y-14426551D01*
X-16886123Y-14340463D01*
X-16928531Y-14261124D01*
X-16985602Y-14191582D01*
X-17003027Y-14177282D01*
X-17348680Y-13831630D01*
X-17348680Y-4046064D01*
X-17286592Y-3983976D01*
X-12586672Y-3983976D01*
X-12586672Y-4281360D01*
X-12528655Y-4573031D01*
X-12414851Y-4847779D01*
X-12249633Y-5095046D01*
X-12039350Y-5305329D01*
X-11792083Y-5470547D01*
X-11517335Y-5584351D01*
X-11225664Y-5642368D01*
X-10928280Y-5642368D01*
X-10636609Y-5584351D01*
X-10361861Y-5470547D01*
X-10114594Y-5305329D01*
X-9904311Y-5095046D01*
X-9739093Y-4847779D01*
X-9625289Y-4573031D01*
X-9567272Y-4281360D01*
X-9567272Y-3983976D01*
X-9625289Y-3692305D01*
X-9739093Y-3417557D01*
X-9904311Y-3170290D01*
X-10114594Y-2960007D01*
X-10361861Y-2794789D01*
X-10636609Y-2680985D01*
X-10928280Y-2622968D01*
X-11225664Y-2622968D01*
X-11517335Y-2680985D01*
X-11792083Y-2794789D01*
X-12039350Y-2960007D01*
X-12249633Y-3170290D01*
X-12414851Y-3417557D01*
X-12528655Y-3692305D01*
X-12586672Y-3983976D01*
X-17286592Y-3983976D01*
X-16257722Y-2955108D01*
X-16240301Y-2940811D01*
X-16183230Y-2871269D01*
X-16140822Y-2791930D01*
X-16114708Y-2705842D01*
X-16108099Y-2638741D01*
X-16108099Y-2638739D01*
X-16105890Y-2616314D01*
X-16108099Y-2593889D01*
X-16108099Y-2050428D01*
X-16105890Y-2028000D01*
X-16114708Y-1938472D01*
X-16140822Y-1852385D01*
X-16140822Y-1852384D01*
X-16183230Y-1773045D01*
X-16240301Y-1703503D01*
X-16257726Y-1689203D01*
X-17755090Y-191840D01*
X-17755090Y4518749D01*
X-16946672Y4518749D01*
X-16946672Y4315915D01*
X-16907101Y4116980D01*
X-16829480Y3929586D01*
X-16716792Y3760937D01*
X-16573367Y3617512D01*
X-16404718Y3504824D01*
X-16217324Y3427203D01*
X-16067154Y3397332D01*
X-16217324Y3367461D01*
X-16404718Y3289840D01*
X-16573367Y3177152D01*
X-16716792Y3033727D01*
X-16829480Y2865078D01*
X-16907101Y2677684D01*
X-16946672Y2478749D01*
X-16946672Y2275915D01*
X-16907101Y2076980D01*
X-16829480Y1889586D01*
X-16716792Y1720937D01*
X-16573367Y1577512D01*
X-16404718Y1464824D01*
X-16217324Y1387203D01*
X-16067154Y1357332D01*
X-16217324Y1327461D01*
X-16404718Y1249840D01*
X-16573367Y1137152D01*
X-16716792Y993727D01*
X-16829480Y825078D01*
X-16907101Y637684D01*
X-16946672Y438749D01*
X-16946672Y235915D01*
X-16907101Y36980D01*
X-16829480Y-150414D01*
X-16716792Y-319063D01*
X-16573367Y-462488D01*
X-16404718Y-575176D01*
X-16217324Y-652797D01*
X-16018389Y-692368D01*
X-15815555Y-692368D01*
X-15616620Y-652797D01*
X-15429226Y-575176D01*
X-15260577Y-462488D01*
X-15117152Y-319063D01*
X-15004464Y-150414D01*
X-14926843Y36980D01*
X-14887272Y235915D01*
X-14887272Y438749D01*
X-14926843Y637684D01*
X-15004464Y825078D01*
X-15117152Y993727D01*
X-15260577Y1137152D01*
X-15429226Y1249840D01*
X-15616620Y1327461D01*
X-15766790Y1357332D01*
X-15616620Y1387203D01*
X-15429226Y1464824D01*
X-15260577Y1577512D01*
X-15117152Y1720937D01*
X-15004464Y1889586D01*
X-14926843Y2076980D01*
X-14887272Y2275915D01*
X-14887272Y2478749D01*
X-14926843Y2677684D01*
X-15004464Y2865078D01*
X-15117152Y3033727D01*
X-15260577Y3177152D01*
X-15429226Y3289840D01*
X-15616620Y3367461D01*
X-15766790Y3397332D01*
X-15616620Y3427203D01*
X-15443893Y3498749D01*
X-14406672Y3498749D01*
X-14406672Y3295915D01*
X-14367101Y3096980D01*
X-14289480Y2909586D01*
X-14176792Y2740937D01*
X-14033367Y2597512D01*
X-13864718Y2484824D01*
X-13677324Y2407203D01*
X-13527154Y2377332D01*
X-13677324Y2347461D01*
X-13864718Y2269840D01*
X-14033367Y2157152D01*
X-14176792Y2013727D01*
X-14289480Y1845078D01*
X-14367101Y1657684D01*
X-14406672Y1458749D01*
X-14406672Y1255915D01*
X-14367101Y1056980D01*
X-14289480Y869586D01*
X-14176792Y700937D01*
X-14033367Y557512D01*
X-13864718Y444824D01*
X-13677324Y367203D01*
X-13527154Y337332D01*
X-13677324Y307461D01*
X-13864718Y229840D01*
X-14033367Y117152D01*
X-14176792Y-26273D01*
X-14289480Y-194922D01*
X-14367101Y-382316D01*
X-14406672Y-581251D01*
X-14406672Y-784085D01*
X-14367101Y-983020D01*
X-14289480Y-1170414D01*
X-14176792Y-1339063D01*
X-14033367Y-1482488D01*
X-13864718Y-1595176D01*
X-13677324Y-1672797D01*
X-13478389Y-1712368D01*
X-13275555Y-1712368D01*
X-13076620Y-1672797D01*
X-12889226Y-1595176D01*
X-12720577Y-1482488D01*
X-12577152Y-1339063D01*
X-12464464Y-1170414D01*
X-12386843Y-983020D01*
X-12347272Y-784085D01*
X-12347272Y-581251D01*
X-12386843Y-382316D01*
X-12464464Y-194922D01*
X-12577152Y-26273D01*
X-12720577Y117152D01*
X-12889226Y229840D01*
X-13076620Y307461D01*
X-13226790Y337332D01*
X-13076620Y367203D01*
X-12889226Y444824D01*
X-12720577Y557512D01*
X-12577152Y700937D01*
X-12464464Y869586D01*
X-12386843Y1056980D01*
X-12347272Y1255915D01*
X-12347272Y1458749D01*
X-12386843Y1657684D01*
X-12464464Y1845078D01*
X-12577152Y2013727D01*
X-12720577Y2157152D01*
X-12889226Y2269840D01*
X-13076620Y2347461D01*
X-13226790Y2377332D01*
X-13076620Y2407203D01*
X-12889226Y2484824D01*
X-12720577Y2597512D01*
X-12577152Y2740937D01*
X-12464464Y2909586D01*
X-12386843Y3096980D01*
X-12347272Y3295915D01*
X-12347272Y3498749D01*
X-12386843Y3697684D01*
X-12464464Y3885078D01*
X-12577152Y4053727D01*
X-12720577Y4197152D01*
X-12889226Y4309840D01*
X-13076620Y4387461D01*
X-13275555Y4427032D01*
X-13478389Y4427032D01*
X-13677324Y4387461D01*
X-13864718Y4309840D01*
X-14033367Y4197152D01*
X-14176792Y4053727D01*
X-14289480Y3885078D01*
X-14367101Y3697684D01*
X-14406672Y3498749D01*
X-15443893Y3498749D01*
X-15429226Y3504824D01*
X-15260577Y3617512D01*
X-15117152Y3760937D01*
X-15004464Y3929586D01*
X-14926843Y4116980D01*
X-14887272Y4315915D01*
X-14887272Y4518749D01*
X-14926843Y4717684D01*
X-15004464Y4905078D01*
X-15117152Y5073727D01*
X-15260577Y5217152D01*
X-15429226Y5329840D01*
X-15616620Y5407461D01*
X-15815555Y5447032D01*
X-16018389Y5447032D01*
X-16217324Y5407461D01*
X-16404718Y5329840D01*
X-16573367Y5217152D01*
X-16716792Y5073727D01*
X-16829480Y4905078D01*
X-16907101Y4717684D01*
X-16946672Y4518749D01*
X-17755090Y4518749D01*
X-17755090Y8016024D01*
X-12586672Y8016024D01*
X-12586672Y7718640D01*
X-12528655Y7426969D01*
X-12414851Y7152221D01*
X-12249633Y6904954D01*
X-12039350Y6694671D01*
X-11792083Y6529453D01*
X-11517335Y6415649D01*
X-11225664Y6357632D01*
X-10928280Y6357632D01*
X-10636609Y6415649D01*
X-10361861Y6529453D01*
X-10114594Y6694671D01*
X-9904311Y6904954D01*
X-9739093Y7152221D01*
X-9625289Y7426969D01*
X-9567272Y7718640D01*
X-9567272Y8016024D01*
X-9625289Y8307695D01*
X-9739093Y8582443D01*
X-9904311Y8829710D01*
X-10114594Y9039993D01*
X-10361861Y9205211D01*
X-10636609Y9319015D01*
X-10928280Y9377032D01*
X-11225664Y9377032D01*
X-11517335Y9319015D01*
X-11792083Y9205211D01*
X-12039350Y9039993D01*
X-12249633Y8829710D01*
X-12414851Y8582443D01*
X-12528655Y8307695D01*
X-12586672Y8016024D01*
X-17755090Y8016024D01*
X-17755090Y11516024D01*
X-12572672Y11516024D01*
X-12572672Y11218640D01*
X-12514655Y10926969D01*
X-12400851Y10652221D01*
X-12235633Y10404954D01*
X-12025350Y10194671D01*
X-11778083Y10029453D01*
X-11503335Y9915649D01*
X-11211664Y9857632D01*
X-10914280Y9857632D01*
X-10622609Y9915649D01*
X-10347861Y10029453D01*
X-10100594Y10194671D01*
X-9890311Y10404954D01*
X-9725093Y10652221D01*
X-9611289Y10926969D01*
X-9553272Y11218640D01*
X-9553272Y11516024D01*
X-9611289Y11807695D01*
X-9725093Y12082443D01*
X-9890311Y12329710D01*
X-10100594Y12539993D01*
X-10347861Y12705211D01*
X-10622609Y12819015D01*
X-10914280Y12877032D01*
X-11211664Y12877032D01*
X-11503335Y12819015D01*
X-11778083Y12705211D01*
X-12025350Y12539993D01*
X-12235633Y12329710D01*
X-12400851Y12082443D01*
X-12514655Y11807695D01*
X-12572672Y11516024D01*
X-17755090Y11516024D01*
X-17755090Y13198427D01*
X-17687108Y13211949D01*
X-17581609Y13255648D01*
X-17486663Y13319090D01*
X-17405918Y13399835D01*
X-17342476Y13494781D01*
X-17298777Y13600280D01*
X-17276500Y13712277D01*
X-17276500Y13826467D01*
X-17298777Y13938464D01*
X-17342476Y14043963D01*
X-17405918Y14138909D01*
X-17486663Y14219654D01*
X-17581609Y14283096D01*
X-17687108Y14326795D01*
X-17799105Y14349072D01*
X-17913295Y14349072D01*
X-18025292Y14326795D01*
X-18130791Y14283096D01*
X-18161500Y14262577D01*
X-18161500Y20018749D01*
X-16932672Y20018749D01*
X-16932672Y19815915D01*
X-16893101Y19616980D01*
X-16815480Y19429586D01*
X-16702792Y19260937D01*
X-16559367Y19117512D01*
X-16390718Y19004824D01*
X-16203324Y18927203D01*
X-16053154Y18897332D01*
X-16203324Y18867461D01*
X-16390718Y18789840D01*
X-16559367Y18677152D01*
X-16702792Y18533727D01*
X-16815480Y18365078D01*
X-16893101Y18177684D01*
X-16932672Y17978749D01*
X-16932672Y17775915D01*
X-16893101Y17576980D01*
X-16815480Y17389586D01*
X-16702792Y17220937D01*
X-16559367Y17077512D01*
X-16390718Y16964824D01*
X-16203324Y16887203D01*
X-16053154Y16857332D01*
X-16203324Y16827461D01*
X-16390718Y16749840D01*
X-16559367Y16637152D01*
X-16702792Y16493727D01*
X-16815480Y16325078D01*
X-16893101Y16137684D01*
X-16932672Y15938749D01*
X-16932672Y15735915D01*
X-16893101Y15536980D01*
X-16815480Y15349586D01*
X-16702792Y15180937D01*
X-16559367Y15037512D01*
X-16390718Y14924824D01*
X-16203324Y14847203D01*
X-16004389Y14807632D01*
X-15801555Y14807632D01*
X-15602620Y14847203D01*
X-15415226Y14924824D01*
X-15246577Y15037512D01*
X-15103152Y15180937D01*
X-14990464Y15349586D01*
X-14912843Y15536980D01*
X-14873272Y15735915D01*
X-14873272Y15938749D01*
X-14912843Y16137684D01*
X-14990464Y16325078D01*
X-15103152Y16493727D01*
X-15246577Y16637152D01*
X-15415226Y16749840D01*
X-15602620Y16827461D01*
X-15752790Y16857332D01*
X-15602620Y16887203D01*
X-15415226Y16964824D01*
X-15246577Y17077512D01*
X-15103152Y17220937D01*
X-14990464Y17389586D01*
X-14912843Y17576980D01*
X-14873272Y17775915D01*
X-14873272Y17978749D01*
X-14912843Y18177684D01*
X-14990464Y18365078D01*
X-15103152Y18533727D01*
X-15246577Y18677152D01*
X-15415226Y18789840D01*
X-15602620Y18867461D01*
X-15752790Y18897332D01*
X-15602620Y18927203D01*
X-15429893Y18998749D01*
X-14392672Y18998749D01*
X-14392672Y18795915D01*
X-14353101Y18596980D01*
X-14275480Y18409586D01*
X-14162792Y18240937D01*
X-14019367Y18097512D01*
X-13850718Y17984824D01*
X-13663324Y17907203D01*
X-13513154Y17877332D01*
X-13663324Y17847461D01*
X-13850718Y17769840D01*
X-14019367Y17657152D01*
X-14162792Y17513727D01*
X-14275480Y17345078D01*
X-14353101Y17157684D01*
X-14392672Y16958749D01*
X-14392672Y16755915D01*
X-14353101Y16556980D01*
X-14275480Y16369586D01*
X-14162792Y16200937D01*
X-14019367Y16057512D01*
X-13850718Y15944824D01*
X-13663324Y15867203D01*
X-13513154Y15837332D01*
X-13663324Y15807461D01*
X-13850718Y15729840D01*
X-14019367Y15617152D01*
X-14162792Y15473727D01*
X-14275480Y15305078D01*
X-14353101Y15117684D01*
X-14392672Y14918749D01*
X-14392672Y14715915D01*
X-14353101Y14516980D01*
X-14275480Y14329586D01*
X-14162792Y14160937D01*
X-14019367Y14017512D01*
X-13850718Y13904824D01*
X-13663324Y13827203D01*
X-13464389Y13787632D01*
X-13261555Y13787632D01*
X-13062620Y13827203D01*
X-12875226Y13904824D01*
X-12706577Y14017512D01*
X-12563152Y14160937D01*
X-12450464Y14329586D01*
X-12372843Y14516980D01*
X-12333272Y14715915D01*
X-12333272Y14918749D01*
X-12372843Y15117684D01*
X-12450464Y15305078D01*
X-12563152Y15473727D01*
X-12706577Y15617152D01*
X-12875226Y15729840D01*
X-13062620Y15807461D01*
X-13212790Y15837332D01*
X-13062620Y15867203D01*
X-12875226Y15944824D01*
X-12706577Y16057512D01*
X-12563152Y16200937D01*
X-12450464Y16369586D01*
X-12372843Y16556980D01*
X-12333272Y16755915D01*
X-12333272Y16958749D01*
X-12372843Y17157684D01*
X-12450464Y17345078D01*
X-12563152Y17513727D01*
X-12706577Y17657152D01*
X-12875226Y17769840D01*
X-13062620Y17847461D01*
X-13212790Y17877332D01*
X-13062620Y17907203D01*
X-12875226Y17984824D01*
X-12706577Y18097512D01*
X-12563152Y18240937D01*
X-12450464Y18409586D01*
X-12372843Y18596980D01*
X-12333272Y18795915D01*
X-12333272Y18998749D01*
X-12372843Y19197684D01*
X-12450464Y19385078D01*
X-12563152Y19553727D01*
X-12706577Y19697152D01*
X-12875226Y19809840D01*
X-13062620Y19887461D01*
X-13261555Y19927032D01*
X-13464389Y19927032D01*
X-13663324Y19887461D01*
X-13850718Y19809840D01*
X-14019367Y19697152D01*
X-14162792Y19553727D01*
X-14275480Y19385078D01*
X-14353101Y19197684D01*
X-14392672Y18998749D01*
X-15429893Y18998749D01*
X-15415226Y19004824D01*
X-15246577Y19117512D01*
X-15103152Y19260937D01*
X-14990464Y19429586D01*
X-14912843Y19616980D01*
X-14873272Y19815915D01*
X-14873272Y20018749D01*
X-14912843Y20217684D01*
X-14990464Y20405078D01*
X-15103152Y20573727D01*
X-15246577Y20717152D01*
X-15415226Y20829840D01*
X-15602620Y20907461D01*
X-15801555Y20947032D01*
X-16004389Y20947032D01*
X-16203324Y20907461D01*
X-16390718Y20829840D01*
X-16559367Y20717152D01*
X-16702792Y20573727D01*
X-16815480Y20405078D01*
X-16893101Y20217684D01*
X-16932672Y20018749D01*
X-18161500Y20018749D01*
X-18161500Y20780172D01*
X-18159291Y20802600D01*
X-18168109Y20892129D01*
X-18194223Y20978217D01*
X-18236631Y21057556D01*
X-18251994Y21076276D01*
X-18293702Y21127098D01*
X-18311128Y21141399D01*
X-19316796Y22147066D01*
X-19331101Y22164497D01*
X-19400643Y22221568D01*
X-19479982Y22263976D01*
X-19566070Y22290090D01*
X-19633171Y22296699D01*
X-19655599Y22298908D01*
X-19678027Y22296699D01*
X-23603573Y22296699D01*
X-23626001Y22298908D01*
X-23715530Y22290090D01*
X-23801619Y22263976D01*
X-23822115Y22253020D01*
X-23880957Y22221568D01*
X-23947699Y22166795D01*
X-24045092Y22147423D01*
X-24150591Y22103724D01*
X-24245537Y22040282D01*
X-24326282Y21959537D01*
X-24389724Y21864591D01*
X-24433423Y21759092D01*
X-24455700Y21647095D01*
X-24455700Y21532905D01*
X-24433423Y21420908D01*
X-24389724Y21315409D01*
X-24326282Y21220463D01*
X-24245537Y21139718D01*
X-24150591Y21076276D01*
X-24045092Y21032577D01*
X-23933095Y21010300D01*
X-23818905Y21010300D01*
X-23706908Y21032577D01*
X-23601409Y21076276D01*
X-23506463Y21139718D01*
X-23425718Y21220463D01*
X-23362276Y21315409D01*
X-23334155Y21383299D01*
X-19844769Y21383299D01*
X-19074899Y20613428D01*
X-19074900Y-14365029D01*
X-21093370Y-16383500D01*
X-27409576Y-16383500D01*
X-27432001Y-16381291D01*
X-27454426Y-16383500D01*
X-27454428Y-16383500D01*
X-27521529Y-16390109D01*
X-27607617Y-16416223D01*
X-27686956Y-16458631D01*
X-27756498Y-16515702D01*
X-27770795Y-16533123D01*
X-28551851Y-17314181D01*
X-28569277Y-17328482D01*
X-28626348Y-17398024D01*
X-28657823Y-17456909D01*
X-28668756Y-17477363D01*
X-28694871Y-17563452D01*
X-28703689Y-17652980D01*
X-28701479Y-17675418D01*
X-28701480Y-30851292D01*
X-28703689Y-30873720D01*
X-28701480Y-30896147D01*
X-28694871Y-30963248D01*
X-28672100Y-31038315D01*
X-28672100Y-31083195D01*
X-28649823Y-31195192D01*
X-28606124Y-31300691D01*
X-28542682Y-31395637D01*
X-28461937Y-31476382D01*
X-28366991Y-31539824D01*
X-28261492Y-31583523D01*
X-28149495Y-31605800D01*
X-28035305Y-31605800D01*
X-27940258Y-31586895D01*
X-28450256Y-32096893D01*
X-28467687Y-32111198D01*
X-28524758Y-32180741D01*
X-28567166Y-32260080D01*
X-28574064Y-32282821D01*
X-28593280Y-32346168D01*
X-28602098Y-32435696D01*
X-28599889Y-32458124D01*
X-28599888Y-33045124D01*
X-28602098Y-33067561D01*
X-28593280Y-33157089D01*
X-28573102Y-33223607D01*
X-28567165Y-33243178D01*
X-28524757Y-33322517D01*
X-28467686Y-33392059D01*
X-28450260Y-33406360D01*
X-28097749Y-33758872D01*
X-28083448Y-33776298D01*
X-28013906Y-33833369D01*
X-27934567Y-33875777D01*
X-27848479Y-33901891D01*
X-27763965Y-33910215D01*
X-27681191Y-33965524D01*
X-27575692Y-34009223D01*
X-27463695Y-34031500D01*
X-27349505Y-34031500D01*
X-27237508Y-34009223D01*
X-27132009Y-33965524D01*
X-27037063Y-33902082D01*
X-26956318Y-33821337D01*
X-26892876Y-33726391D01*
X-26849177Y-33620892D01*
X-26826900Y-33508895D01*
X-26826900Y-33394705D01*
X-26849177Y-33282708D01*
X-26892876Y-33177209D01*
X-26956318Y-33082263D01*
X-27037063Y-33001518D01*
X-27098445Y-32960503D01*
X-27056356Y-32858892D01*
X-27036332Y-32758224D01*
X-26148799Y-31870691D01*
X-26148800Y-33567670D01*
X-26151317Y-33593223D01*
X-26148800Y-33618775D01*
X-26148800Y-33618777D01*
X-26141273Y-33695199D01*
X-26111528Y-33793257D01*
X-26063223Y-33883629D01*
X-25998217Y-33962840D01*
X-25978360Y-33979136D01*
X-25259799Y-34697698D01*
X-25259800Y-35828320D01*
X-28649579Y-39218100D01*
X-28945395Y-39218100D01*
X-28924876Y-39187391D01*
X-28881177Y-39081892D01*
X-28858900Y-38969895D01*
X-28858900Y-38855705D01*
X-28881177Y-38743708D01*
X-28924876Y-38638209D01*
X-28981900Y-38552868D01*
X-28981900Y-37035338D01*
X-28979691Y-37012913D01*
X-28981900Y-36990486D01*
X-28988509Y-36923385D01*
X-29014623Y-36837297D01*
X-29057031Y-36757958D01*
X-29114102Y-36688416D01*
X-29131527Y-36674116D01*
X-30049304Y-35756340D01*
X-30049304Y-34403428D01*
X-30003695Y-34412500D01*
X-29889505Y-34412500D01*
X-29777508Y-34390223D01*
X-29672009Y-34346524D01*
X-29577063Y-34283082D01*
X-29496318Y-34202337D01*
X-29432876Y-34107391D01*
X-29389177Y-34001892D01*
X-29369153Y-33901224D01*
X-29216260Y-33748331D01*
X-29209054Y-33744479D01*
X-29139512Y-33687408D01*
X-29082441Y-33617866D01*
X-29040033Y-33538527D01*
X-29013919Y-33452439D01*
X-29005101Y-33362910D01*
X-29007310Y-33340482D01*
X-29007310Y-17459610D01*
X-29007300Y-17459508D01*
X-29005091Y-17437081D01*
X-29007300Y-17414653D01*
X-29007300Y-10392932D01*
X-28950276Y-10307591D01*
X-28906577Y-10202092D01*
X-28884300Y-10090095D01*
X-28884300Y-9975905D01*
X-28906577Y-9863908D01*
X-28950276Y-9758409D01*
X-29013718Y-9663463D01*
X-29094463Y-9582718D01*
X-29189409Y-9519276D01*
X-29294908Y-9475577D01*
X-29406905Y-9453300D01*
X-29521095Y-9453300D01*
X-29633092Y-9475577D01*
X-29738591Y-9519276D01*
X-29833537Y-9582718D01*
X-29914282Y-9663463D01*
X-29977724Y-9758409D01*
X-30021423Y-9863908D01*
X-30043700Y-9975905D01*
X-30043700Y-10090095D01*
X-30021423Y-10202092D01*
X-29977724Y-10307591D01*
X-29920700Y-10392932D01*
X-29920699Y-17414551D01*
X-29922919Y-17437090D01*
X-29920709Y-17459528D01*
X-29920710Y-33161039D01*
X-30015024Y-33255353D01*
X-30049304Y-33262172D01*
X-30049304Y-21167324D01*
X-30047095Y-21144896D01*
X-30055913Y-21055367D01*
X-30082027Y-20969279D01*
X-30124435Y-20889940D01*
X-30181506Y-20820398D01*
X-30198931Y-20806098D01*
X-31337653Y-19667376D01*
X-31357677Y-19566708D01*
X-31401376Y-19461209D01*
X-31464818Y-19366263D01*
X-31545563Y-19285518D01*
X-31640509Y-19222076D01*
X-31746008Y-19178377D01*
X-31858005Y-19156100D01*
X-31972195Y-19156100D01*
X-32084192Y-19178377D01*
X-32189691Y-19222076D01*
X-32284637Y-19285518D01*
X-32365382Y-19366263D01*
X-32428824Y-19461209D01*
X-32472523Y-19566708D01*
X-32494800Y-19678705D01*
X-32494800Y-19679636D01*
X-32528692Y-19686377D01*
X-32634191Y-19730076D01*
X-32729137Y-19793518D01*
X-32809882Y-19874263D01*
X-32873324Y-19969209D01*
X-32917023Y-20074708D01*
X-32939300Y-20186705D01*
X-32939300Y-20300895D01*
X-32917023Y-20412892D01*
X-32873324Y-20518391D01*
X-32816300Y-20603732D01*
X-32816299Y-21267491D01*
X-32818509Y-21289928D01*
X-32809691Y-21379456D01*
X-32783576Y-21465545D01*
X-32741168Y-21544884D01*
X-32684097Y-21614426D01*
X-32666671Y-21628727D01*
X-32152814Y-22142585D01*
X-32166044Y-22151425D01*
X-32246789Y-22232170D01*
X-32310231Y-22327116D01*
X-32353930Y-22432615D01*
X-32376207Y-22544612D01*
X-32376207Y-22658802D01*
X-32353930Y-22770799D01*
X-32310231Y-22876298D01*
X-32246789Y-22971244D01*
X-32166044Y-23051989D01*
X-32071098Y-23115431D01*
X-31965599Y-23159130D01*
X-31864930Y-23179154D01*
X-31816988Y-23227096D01*
X-31816988Y-24925375D01*
X-31894509Y-24873576D01*
X-32000008Y-24829877D01*
X-32112005Y-24807600D01*
X-32226195Y-24807600D01*
X-32338192Y-24829877D01*
X-32443691Y-24873576D01*
X-32538637Y-24937018D01*
X-32619382Y-25017763D01*
X-32682824Y-25112709D01*
X-32726523Y-25218208D01*
X-32748800Y-25330205D01*
X-32748800Y-25444395D01*
X-32726523Y-25556392D01*
X-32682824Y-25661891D01*
X-32619382Y-25756837D01*
X-32538637Y-25837582D01*
X-32443691Y-25901024D01*
X-32338192Y-25944723D01*
X-32237524Y-25964747D01*
X-32223399Y-25978872D01*
X-32223399Y-26108227D01*
X-32223398Y-26108237D01*
X-32223399Y-35082728D01*
X-32682024Y-35541353D01*
X-32782692Y-35561377D01*
X-32888191Y-35605076D01*
X-32983137Y-35668518D01*
X-33063882Y-35749263D01*
X-33127324Y-35844209D01*
X-33171023Y-35949708D01*
X-33193300Y-36061705D01*
X-33193300Y-36175895D01*
X-33171023Y-36287892D01*
X-33127324Y-36393391D01*
X-33063882Y-36488337D01*
X-32983137Y-36569082D01*
X-32888191Y-36632524D01*
X-32782692Y-36676223D01*
X-32670695Y-36698500D01*
X-32556505Y-36698500D01*
X-32444508Y-36676223D01*
X-32339009Y-36632524D01*
X-32244063Y-36569082D01*
X-32239257Y-36564276D01*
X-32234451Y-36569082D01*
X-32139505Y-36632524D01*
X-32034006Y-36676223D01*
X-31922009Y-36698500D01*
X-31807819Y-36698500D01*
X-31695822Y-36676223D01*
X-31590323Y-36632524D01*
X-31495377Y-36569082D01*
X-31454655Y-36528360D01*
X-31426138Y-36597205D01*
X-31362696Y-36692151D01*
X-31281951Y-36772896D01*
X-31187005Y-36836338D01*
X-31081506Y-36880037D01*
X-30969509Y-36902314D01*
X-30855319Y-36902314D01*
X-30743322Y-36880037D01*
X-30637823Y-36836338D01*
X-30542877Y-36772896D01*
X-30462132Y-36692151D01*
X-30439341Y-36658043D01*
X-29895300Y-37202085D01*
X-29895299Y-38552867D01*
X-29913346Y-38579875D01*
X-31022381Y-37470840D01*
X-31038677Y-37450983D01*
X-31117888Y-37385977D01*
X-31208259Y-37337672D01*
X-31306317Y-37307927D01*
X-31382739Y-37300400D01*
X-31382742Y-37300400D01*
X-31408294Y-37297883D01*
X-31433846Y-37300400D01*
X-34467645Y-37300400D01*
X-34493200Y-37297883D01*
X-34518755Y-37300400D01*
X-34595177Y-37307927D01*
X-34693235Y-37337672D01*
X-34783606Y-37385977D01*
X-34862817Y-37450983D01*
X-34879109Y-37470835D01*
X-35630365Y-38222092D01*
X-35650216Y-38238383D01*
X-35666507Y-38258234D01*
X-35715223Y-38317595D01*
X-35763527Y-38407965D01*
X-35793272Y-38506024D01*
X-35803317Y-38608000D01*
X-35800799Y-38633562D01*
X-35800800Y-39479343D01*
X-35838023Y-39569208D01*
X-35860300Y-39681205D01*
X-41991855Y-39681205D01*
X-41991855Y-12515905D01*
X-40838700Y-12515905D01*
X-40838700Y-12630095D01*
X-40816423Y-12742092D01*
X-40772724Y-12847591D01*
X-40717554Y-12930157D01*
X-40715700Y-12948981D01*
X-40709091Y-13016082D01*
X-40682976Y-13102170D01*
X-40640568Y-13181509D01*
X-40583497Y-13251051D01*
X-40566071Y-13265352D01*
X-36880300Y-16951124D01*
X-36880299Y-17884572D01*
X-36880300Y-32901368D01*
X-36937324Y-32986709D01*
X-36981023Y-33092208D01*
X-37003300Y-33204205D01*
X-37003300Y-33318395D01*
X-36981023Y-33430392D01*
X-36937324Y-33535891D01*
X-36873882Y-33630837D01*
X-36793137Y-33711582D01*
X-36698191Y-33775024D01*
X-36592692Y-33818723D01*
X-36480695Y-33841000D01*
X-36366505Y-33841000D01*
X-36254508Y-33818723D01*
X-36149009Y-33775024D01*
X-36054063Y-33711582D01*
X-35973318Y-33630837D01*
X-35909876Y-33535891D01*
X-35866177Y-33430392D01*
X-35843900Y-33318395D01*
X-35843900Y-33204205D01*
X-35866177Y-33092208D01*
X-35909876Y-32986709D01*
X-35966900Y-32901368D01*
X-35966900Y-16784381D01*
X-35964691Y-16761953D01*
X-35973509Y-16672424D01*
X-35999623Y-16586336D01*
X-36042031Y-16506997D01*
X-36046619Y-16501406D01*
X-36099102Y-16437455D01*
X-36116527Y-16423155D01*
X-39729699Y-12809984D01*
X-39701577Y-12742092D01*
X-39679300Y-12630095D01*
X-39679300Y-12515905D01*
X-39701577Y-12403908D01*
X-39745276Y-12298409D01*
X-39808718Y-12203463D01*
X-39889463Y-12122718D01*
X-39984409Y-12059276D01*
X-40089908Y-12015577D01*
X-40201905Y-11993300D01*
X-40316095Y-11993300D01*
X-40428092Y-12015577D01*
X-40533591Y-12059276D01*
X-40628537Y-12122718D01*
X-40709282Y-12203463D01*
X-40772724Y-12298409D01*
X-40816423Y-12403908D01*
X-40838700Y-12515905D01*
X-41991855Y-12515905D01*
X-41991855Y24822095D01*
X-29103900Y24822095D01*
X-29103900Y24707905D01*
X-29081623Y24595908D01*
X-29037924Y24490409D01*
X-28980900Y24405068D01*
X-28980899Y20266238D01*
X-28980900Y20266228D01*
X-28980900Y20119773D01*
X-28980899Y20119763D01*
X-28980900Y12369800D01*
X-28983109Y12347372D01*
X-28980900Y12324945D01*
X-28980899Y12324935D01*
X-28980900Y7040132D01*
X-29037924Y6954791D01*
X-29081623Y6849292D01*
X-29103900Y6737295D01*
X-29103900Y6623105D01*
X-29081623Y6511108D01*
X-29037924Y6405609D01*
X-28974482Y6310663D01*
X-28893737Y6229918D01*
X-28798791Y6166476D01*
X-28693292Y6122777D01*
X-28581295Y6100500D01*
X-28467105Y6100500D01*
X-28355108Y6122777D01*
X-28249609Y6166476D01*
X-28154663Y6229918D01*
X-28073918Y6310663D01*
X-28010476Y6405609D01*
X-27966777Y6511108D01*
X-27944500Y6623105D01*
X-27944500Y6737295D01*
X-27966777Y6849292D01*
X-28010476Y6954791D01*
X-28067500Y7040132D01*
X-28067500Y12158202D01*
X-27010948Y13214753D01*
X-26910280Y13234777D01*
X-26804781Y13278476D01*
X-26709835Y13341918D01*
X-26629090Y13422663D01*
X-26565648Y13517609D01*
X-26521949Y13623108D01*
X-26499672Y13735105D01*
X-26499672Y13849295D01*
X-26521949Y13961292D01*
X-26565648Y14066791D01*
X-26629090Y14161737D01*
X-26709835Y14242482D01*
X-26804781Y14305924D01*
X-26910280Y14349623D01*
X-27022277Y14371900D01*
X-27136467Y14371900D01*
X-27248464Y14349623D01*
X-27353963Y14305924D01*
X-27448909Y14242482D01*
X-27529654Y14161737D01*
X-27593096Y14066791D01*
X-27636795Y13961292D01*
X-27656819Y13860624D01*
X-28067500Y13449943D01*
X-28067500Y23516024D01*
X-12572672Y23516024D01*
X-12572672Y23218640D01*
X-12514655Y22926969D01*
X-12400851Y22652221D01*
X-12235633Y22404954D01*
X-12025350Y22194671D01*
X-11778083Y22029453D01*
X-11503335Y21915649D01*
X-11211664Y21857632D01*
X-10914280Y21857632D01*
X-10622609Y21915649D01*
X-10347861Y22029453D01*
X-10100594Y22194671D01*
X-9890311Y22404954D01*
X-9725093Y22652221D01*
X-9611289Y22926969D01*
X-9553272Y23218640D01*
X-9553272Y23516024D01*
X-9611289Y23807695D01*
X-9725093Y24082443D01*
X-9890311Y24329710D01*
X-10100594Y24539993D01*
X-10347861Y24705211D01*
X-10622609Y24819015D01*
X-10914280Y24877032D01*
X-11211664Y24877032D01*
X-11503335Y24819015D01*
X-11778083Y24705211D01*
X-12025350Y24539993D01*
X-12235633Y24329710D01*
X-12400851Y24082443D01*
X-12514655Y23807695D01*
X-12572672Y23516024D01*
X-28067500Y23516024D01*
X-28067500Y24405068D01*
X-28010476Y24490409D01*
X-27966777Y24595908D01*
X-27944500Y24707905D01*
X-27944500Y24822095D01*
X-27966777Y24934092D01*
X-28010476Y25039591D01*
X-28073918Y25134537D01*
X-28154663Y25215282D01*
X-28249609Y25278724D01*
X-28355108Y25322423D01*
X-28467105Y25344700D01*
X-28581295Y25344700D01*
X-28693292Y25322423D01*
X-28798791Y25278724D01*
X-28893737Y25215282D01*
X-28974482Y25134537D01*
X-29037924Y25039591D01*
X-29081623Y24934092D01*
X-29103900Y24822095D01*
X-41991855Y24822095D01*
X-41991855Y27720474D01*
X-41861255Y27720474D01*
X-41861255Y27405360D01*
X-41799779Y27096302D01*
X-41679191Y26805175D01*
X-41504123Y26543168D01*
X-41281304Y26320349D01*
X-41019297Y26145281D01*
X-40728170Y26024693D01*
X-40419112Y25963217D01*
X-40103998Y25963217D01*
X-39794940Y26024693D01*
X-39503813Y26145281D01*
X-39241806Y26320349D01*
X-39018987Y26543168D01*
X-38843919Y26805175D01*
X-38723331Y27096302D01*
X-38661855Y27405360D01*
X-38661855Y27720474D01*
X-8631255Y27720474D01*
X-8631255Y27405360D01*
X-8569779Y27096302D01*
X-8449191Y26805175D01*
X-8274123Y26543168D01*
X-8051304Y26320349D01*
X-7789297Y26145281D01*
X-7498170Y26024693D01*
X-7189112Y25963217D01*
X-6873998Y25963217D01*
X-6564940Y26024693D01*
X-6273813Y26145281D01*
X-6011806Y26320349D01*
X-5788987Y26543168D01*
X-5613919Y26805175D01*
X-5493331Y27096302D01*
X-5431855Y27405360D01*
X-5431855Y27720474D01*
X-5493331Y28029532D01*
X-5613919Y28320659D01*
X-5788987Y28582666D01*
X-6011806Y28805485D01*
X-6273813Y28980553D01*
X-6564940Y29101141D01*
X-6873998Y29162617D01*
X-7189112Y29162617D01*
X-7498170Y29101141D01*
X-7789297Y28980553D01*
X-8051304Y28805485D01*
X-8274123Y28582666D01*
X-8449191Y28320659D01*
X-8569779Y28029532D01*
X-8631255Y27720474D01*
X-38661855Y27720474D01*
X-38723331Y28029532D01*
X-38843919Y28320659D01*
X-39018987Y28582666D01*
X-39241806Y28805485D01*
X-39503813Y28980553D01*
X-39794940Y29101141D01*
X-40103998Y29162617D01*
X-40419112Y29162617D01*
X-40728170Y29101141D01*
X-41019297Y28980553D01*
X-41281304Y28805485D01*
X-41504123Y28582666D01*
X-41679191Y28320659D01*
X-41799779Y28029532D01*
X-41861255Y27720474D01*
X-41991855Y27720474D01*
X-41991855Y28178120D01*
X-41969091Y28410288D01*
X-41907417Y28614563D01*
X-41807237Y28802973D01*
X-41672371Y28968335D01*
X-41507953Y29104353D01*
X-41320249Y29205845D01*
X-41116406Y29268945D01*
X-40885467Y29293217D01*
X-6416352Y29293217D01*
X-6184184Y29270453D01*
G36*
X-24360867Y-33853749D02*
X-24378298Y-33868054D01*
X-24435369Y-33937597D01*
X-24474794Y-34011355D01*
X-25108400Y-33377750D01*
X-25108400Y-31559000D01*
X-22066119Y-31559000D01*
X-24360867Y-33853749D01*
X-24360867Y-33853749D01*
G37*
X-24360867Y-33853749D02*
X-24378298Y-33868054D01*
X-24435369Y-33937597D01*
X-24474794Y-34011355D01*
X-25108400Y-33377750D01*
X-25108400Y-31559000D01*
X-22066119Y-31559000D01*
X-24360867Y-33853749D01*
G36*
X-18316899Y-14993362D02*
X-18316898Y-30231327D01*
X-18952900Y-30867330D01*
X-18952900Y-30854705D01*
X-18975177Y-30742708D01*
X-19018876Y-30637209D01*
X-19082318Y-30542263D01*
X-19163063Y-30461518D01*
X-19258009Y-30398076D01*
X-19363508Y-30354377D01*
X-19475505Y-30332100D01*
X-19589695Y-30332100D01*
X-19701692Y-30354377D01*
X-19807191Y-30398076D01*
X-19892532Y-30455100D01*
X-20245227Y-30455100D01*
X-19208235Y-29418109D01*
X-19188383Y-29401817D01*
X-19123377Y-29322606D01*
X-19075072Y-29232235D01*
X-19045327Y-29134177D01*
X-19037800Y-29057755D01*
X-19037800Y-29057754D01*
X-19035283Y-29032200D01*
X-19037800Y-29006645D01*
X-19037800Y-26446357D01*
X-19000577Y-26356492D01*
X-18978300Y-26244495D01*
X-18978300Y-26130305D01*
X-19000577Y-26018308D01*
X-19044276Y-25912809D01*
X-19107718Y-25817863D01*
X-19188463Y-25737118D01*
X-19283409Y-25673676D01*
X-19388908Y-25629977D01*
X-19500905Y-25607700D01*
X-19615095Y-25607700D01*
X-19727092Y-25629977D01*
X-19832591Y-25673676D01*
X-19927537Y-25737118D01*
X-20008282Y-25817863D01*
X-20071724Y-25912809D01*
X-20115423Y-26018308D01*
X-20137700Y-26130305D01*
X-20137700Y-26244495D01*
X-20115423Y-26356492D01*
X-20078200Y-26446357D01*
X-20078199Y-28816725D01*
X-21772707Y-30511234D01*
X-21772711Y-30511239D01*
X-21780072Y-30518600D01*
X-25369643Y-30518600D01*
X-25451743Y-30484594D01*
X-25427655Y-30460506D01*
X-25364213Y-30365560D01*
X-25320514Y-30260061D01*
X-25298237Y-30148064D01*
X-25298237Y-30033874D01*
X-25320514Y-29921877D01*
X-25364213Y-29816378D01*
X-25427655Y-29721432D01*
X-25508400Y-29640687D01*
X-25603346Y-29577245D01*
X-25708845Y-29533546D01*
X-25820842Y-29511269D01*
X-25935032Y-29511269D01*
X-25950638Y-29514373D01*
X-25950638Y-28450708D01*
X-22715376Y-25215446D01*
X-22614708Y-25195423D01*
X-22509209Y-25151724D01*
X-22414263Y-25088282D01*
X-22333518Y-25007537D01*
X-22270076Y-24912591D01*
X-22226377Y-24807092D01*
X-22204100Y-24695095D01*
X-22204100Y-24580905D01*
X-22226377Y-24468908D01*
X-22270076Y-24363409D01*
X-22333518Y-24268463D01*
X-22414263Y-24187718D01*
X-22448371Y-24164927D01*
X-21033963Y-22750520D01*
X-20975591Y-22789524D01*
X-20870092Y-22833223D01*
X-20758095Y-22855500D01*
X-20643905Y-22855500D01*
X-20531908Y-22833223D01*
X-20426409Y-22789524D01*
X-20331463Y-22726082D01*
X-20250718Y-22645337D01*
X-20187276Y-22550391D01*
X-20143577Y-22444892D01*
X-20121300Y-22332895D01*
X-20121300Y-22218705D01*
X-20143577Y-22106708D01*
X-20187276Y-22001209D01*
X-20250718Y-21906263D01*
X-20331463Y-21825518D01*
X-20426409Y-21762076D01*
X-20531908Y-21718377D01*
X-20643905Y-21696100D01*
X-20758095Y-21696100D01*
X-20870092Y-21718377D01*
X-20975591Y-21762076D01*
X-21060932Y-21819100D01*
X-21182690Y-21819100D01*
X-21205115Y-21816891D01*
X-21227540Y-21819100D01*
X-21227542Y-21819100D01*
X-21294643Y-21825709D01*
X-21380731Y-21851823D01*
X-21460070Y-21894231D01*
X-21529612Y-21951302D01*
X-21543913Y-21968728D01*
X-24259267Y-24684083D01*
X-24276698Y-24698388D01*
X-24333769Y-24767931D01*
X-24347740Y-24794069D01*
X-27120815Y-27567145D01*
X-27138246Y-27581450D01*
X-27195317Y-27650993D01*
X-27237725Y-27730332D01*
X-27256342Y-27791706D01*
X-27263839Y-27816420D01*
X-27272657Y-27905948D01*
X-27270448Y-27928376D01*
X-27270447Y-30917082D01*
X-27531605Y-31178241D01*
X-27512700Y-31083195D01*
X-27512700Y-30969005D01*
X-27534977Y-30857008D01*
X-27578676Y-30751509D01*
X-27642118Y-30656563D01*
X-27722863Y-30575818D01*
X-27788080Y-30532241D01*
X-27788080Y-17842150D01*
X-27242828Y-17296900D01*
X-20926628Y-17296900D01*
X-20904200Y-17299109D01*
X-20881772Y-17296900D01*
X-20814671Y-17290291D01*
X-20728583Y-17264177D01*
X-20649244Y-17221769D01*
X-20579702Y-17164698D01*
X-20565397Y-17147267D01*
X-18364195Y-14946066D01*
X-18316899Y-14993362D01*
X-18316899Y-14993362D01*
G37*
X-18316899Y-14993362D02*
X-18316898Y-30231327D01*
X-18952900Y-30867330D01*
X-18952900Y-30854705D01*
X-18975177Y-30742708D01*
X-19018876Y-30637209D01*
X-19082318Y-30542263D01*
X-19163063Y-30461518D01*
X-19258009Y-30398076D01*
X-19363508Y-30354377D01*
X-19475505Y-30332100D01*
X-19589695Y-30332100D01*
X-19701692Y-30354377D01*
X-19807191Y-30398076D01*
X-19892532Y-30455100D01*
X-20245227Y-30455100D01*
X-19208235Y-29418109D01*
X-19188383Y-29401817D01*
X-19123377Y-29322606D01*
X-19075072Y-29232235D01*
X-19045327Y-29134177D01*
X-19037800Y-29057755D01*
X-19037800Y-29057754D01*
X-19035283Y-29032200D01*
X-19037800Y-29006645D01*
X-19037800Y-26446357D01*
X-19000577Y-26356492D01*
X-18978300Y-26244495D01*
X-18978300Y-26130305D01*
X-19000577Y-26018308D01*
X-19044276Y-25912809D01*
X-19107718Y-25817863D01*
X-19188463Y-25737118D01*
X-19283409Y-25673676D01*
X-19388908Y-25629977D01*
X-19500905Y-25607700D01*
X-19615095Y-25607700D01*
X-19727092Y-25629977D01*
X-19832591Y-25673676D01*
X-19927537Y-25737118D01*
X-20008282Y-25817863D01*
X-20071724Y-25912809D01*
X-20115423Y-26018308D01*
X-20137700Y-26130305D01*
X-20137700Y-26244495D01*
X-20115423Y-26356492D01*
X-20078200Y-26446357D01*
X-20078199Y-28816725D01*
X-21772707Y-30511234D01*
X-21772711Y-30511239D01*
X-21780072Y-30518600D01*
X-25369643Y-30518600D01*
X-25451743Y-30484594D01*
X-25427655Y-30460506D01*
X-25364213Y-30365560D01*
X-25320514Y-30260061D01*
X-25298237Y-30148064D01*
X-25298237Y-30033874D01*
X-25320514Y-29921877D01*
X-25364213Y-29816378D01*
X-25427655Y-29721432D01*
X-25508400Y-29640687D01*
X-25603346Y-29577245D01*
X-25708845Y-29533546D01*
X-25820842Y-29511269D01*
X-25935032Y-29511269D01*
X-25950638Y-29514373D01*
X-25950638Y-28450708D01*
X-22715376Y-25215446D01*
X-22614708Y-25195423D01*
X-22509209Y-25151724D01*
X-22414263Y-25088282D01*
X-22333518Y-25007537D01*
X-22270076Y-24912591D01*
X-22226377Y-24807092D01*
X-22204100Y-24695095D01*
X-22204100Y-24580905D01*
X-22226377Y-24468908D01*
X-22270076Y-24363409D01*
X-22333518Y-24268463D01*
X-22414263Y-24187718D01*
X-22448371Y-24164927D01*
X-21033963Y-22750520D01*
X-20975591Y-22789524D01*
X-20870092Y-22833223D01*
X-20758095Y-22855500D01*
X-20643905Y-22855500D01*
X-20531908Y-22833223D01*
X-20426409Y-22789524D01*
X-20331463Y-22726082D01*
X-20250718Y-22645337D01*
X-20187276Y-22550391D01*
X-20143577Y-22444892D01*
X-20121300Y-22332895D01*
X-20121300Y-22218705D01*
X-20143577Y-22106708D01*
X-20187276Y-22001209D01*
X-20250718Y-21906263D01*
X-20331463Y-21825518D01*
X-20426409Y-21762076D01*
X-20531908Y-21718377D01*
X-20643905Y-21696100D01*
X-20758095Y-21696100D01*
X-20870092Y-21718377D01*
X-20975591Y-21762076D01*
X-21060932Y-21819100D01*
X-21182690Y-21819100D01*
X-21205115Y-21816891D01*
X-21227540Y-21819100D01*
X-21227542Y-21819100D01*
X-21294643Y-21825709D01*
X-21380731Y-21851823D01*
X-21460070Y-21894231D01*
X-21529612Y-21951302D01*
X-21543913Y-21968728D01*
X-24259267Y-24684083D01*
X-24276698Y-24698388D01*
X-24333769Y-24767931D01*
X-24347740Y-24794069D01*
X-27120815Y-27567145D01*
X-27138246Y-27581450D01*
X-27195317Y-27650993D01*
X-27237725Y-27730332D01*
X-27256342Y-27791706D01*
X-27263839Y-27816420D01*
X-27272657Y-27905948D01*
X-27270448Y-27928376D01*
X-27270447Y-30917082D01*
X-27531605Y-31178241D01*
X-27512700Y-31083195D01*
X-27512700Y-30969005D01*
X-27534977Y-30857008D01*
X-27578676Y-30751509D01*
X-27642118Y-30656563D01*
X-27722863Y-30575818D01*
X-27788080Y-30532241D01*
X-27788080Y-17842150D01*
X-27242828Y-17296900D01*
X-20926628Y-17296900D01*
X-20904200Y-17299109D01*
X-20881772Y-17296900D01*
X-20814671Y-17290291D01*
X-20728583Y-17264177D01*
X-20649244Y-17221769D01*
X-20579702Y-17164698D01*
X-20565397Y-17147267D01*
X-18364195Y-14946066D01*
X-18316899Y-14993362D01*
G04 #@! TD*
M02*
