G04 #@! TF.FileFunction,Paste,Top*
%FSLAX46Y46*%
G04 Gerber Fmt 4.6, Leading zero omitted, Abs format (unit mm)*
G04 Created by KiCad (PCBNEW 4.0.7-e2-6376~58~ubuntu16.04.1) date Fri Jan  5 16:23:06 2018*
%MOMM*%
%LPD*%
G01*
G04 APERTURE LIST*
%ADD10C,0.100000*%
%ADD11R,1.080000X0.810000*%
%ADD12R,1.080000X0.675000*%
%ADD13R,0.675000X1.080000*%
%ADD14R,0.810000X1.080000*%
%ADD15R,1.170000X1.035000*%
%ADD16R,0.675000X1.890000*%
%ADD17R,0.990000X0.900000*%
%ADD18R,0.585000X0.945000*%
%ADD19R,0.630000X0.900000*%
%ADD20R,0.630000X0.540000*%
%ADD21R,1.080000X0.720000*%
%ADD22R,1.980000X0.720000*%
%ADD23R,2.250000X1.800000*%
%ADD24R,0.900000X1.350000*%
%ADD25R,0.360000X1.215000*%
%ADD26C,1.080000*%
%ADD27C,1.530000*%
%ADD28R,1.800000X0.540000*%
%ADD29R,0.855000X0.810000*%
%ADD30R,0.810000X0.855000*%
G04 APERTURE END LIST*
D10*
D11*
X6469200Y-3678455D03*
X8669200Y-3678455D03*
D12*
X19674800Y18440400D03*
X21574800Y18440400D03*
D10*
G36*
X14416640Y32673937D02*
X14893937Y32196640D01*
X14130262Y31432965D01*
X13652965Y31910262D01*
X14416640Y32673937D01*
X14416640Y32673937D01*
G37*
G36*
X13073138Y31330435D02*
X13550435Y30853138D01*
X12786760Y30089463D01*
X12309463Y30566760D01*
X13073138Y31330435D01*
X13073138Y31330435D01*
G37*
G36*
X15432640Y31657937D02*
X15909937Y31180640D01*
X15146262Y30416965D01*
X14668965Y30894262D01*
X15432640Y31657937D01*
X15432640Y31657937D01*
G37*
G36*
X14089138Y30314435D02*
X14566435Y29837138D01*
X13802760Y29073463D01*
X13325463Y29550760D01*
X14089138Y30314435D01*
X14089138Y30314435D01*
G37*
D13*
X16040100Y27104300D03*
X16040100Y29004300D03*
X5651500Y25971500D03*
X5651500Y27871500D03*
X17437100Y27104300D03*
X17437100Y29004300D03*
X8636000Y26482000D03*
X8636000Y28382000D03*
X6858000Y17333000D03*
X6858000Y15433000D03*
X7175500Y26482000D03*
X7175500Y28382000D03*
D14*
X20320000Y27030500D03*
X20320000Y29230500D03*
X21907500Y27030500D03*
X21907500Y29230500D03*
D15*
X24713600Y28815800D03*
X24713600Y25465800D03*
D11*
X26263600Y24840800D03*
X26263600Y29440800D03*
D10*
G36*
X11075422Y26182566D02*
X11234521Y26341665D01*
X12061836Y25514350D01*
X11902737Y25355251D01*
X11075422Y26182566D01*
X11075422Y26182566D01*
G37*
G36*
X10721869Y25829013D02*
X10880968Y25988112D01*
X11708283Y25160797D01*
X11549184Y25001698D01*
X10721869Y25829013D01*
X10721869Y25829013D01*
G37*
G36*
X10368315Y25475459D02*
X10527414Y25634558D01*
X11354729Y24807243D01*
X11195630Y24648144D01*
X10368315Y25475459D01*
X10368315Y25475459D01*
G37*
G36*
X10014762Y25121906D02*
X10173861Y25281005D01*
X11001176Y24453690D01*
X10842077Y24294591D01*
X10014762Y25121906D01*
X10014762Y25121906D01*
G37*
G36*
X9661209Y24768353D02*
X9820308Y24927452D01*
X10647623Y24100137D01*
X10488524Y23941038D01*
X9661209Y24768353D01*
X9661209Y24768353D01*
G37*
G36*
X9307655Y24414799D02*
X9466754Y24573898D01*
X10294069Y23746583D01*
X10134970Y23587484D01*
X9307655Y24414799D01*
X9307655Y24414799D01*
G37*
G36*
X8954102Y24061246D02*
X9113201Y24220345D01*
X9940516Y23393030D01*
X9781417Y23233931D01*
X8954102Y24061246D01*
X8954102Y24061246D01*
G37*
G36*
X8600548Y23707692D02*
X8759647Y23866791D01*
X9586962Y23039476D01*
X9427863Y22880377D01*
X8600548Y23707692D01*
X8600548Y23707692D01*
G37*
G36*
X8246995Y23354139D02*
X8406094Y23513238D01*
X9233409Y22685923D01*
X9074310Y22526824D01*
X8246995Y23354139D01*
X8246995Y23354139D01*
G37*
G36*
X7893442Y23000586D02*
X8052541Y23159685D01*
X8879856Y22332370D01*
X8720757Y22173271D01*
X7893442Y23000586D01*
X7893442Y23000586D01*
G37*
G36*
X7539888Y22647032D02*
X7698987Y22806131D01*
X8526302Y21978816D01*
X8367203Y21819717D01*
X7539888Y22647032D01*
X7539888Y22647032D01*
G37*
G36*
X7186335Y22293479D02*
X7345434Y22452578D01*
X8172749Y21625263D01*
X8013650Y21466164D01*
X7186335Y22293479D01*
X7186335Y22293479D01*
G37*
G36*
X7345434Y19203422D02*
X7186335Y19362521D01*
X8013650Y20189836D01*
X8172749Y20030737D01*
X7345434Y19203422D01*
X7345434Y19203422D01*
G37*
G36*
X7698987Y18849869D02*
X7539888Y19008968D01*
X8367203Y19836283D01*
X8526302Y19677184D01*
X7698987Y18849869D01*
X7698987Y18849869D01*
G37*
G36*
X8052541Y18496315D02*
X7893442Y18655414D01*
X8720757Y19482729D01*
X8879856Y19323630D01*
X8052541Y18496315D01*
X8052541Y18496315D01*
G37*
G36*
X8406094Y18142762D02*
X8246995Y18301861D01*
X9074310Y19129176D01*
X9233409Y18970077D01*
X8406094Y18142762D01*
X8406094Y18142762D01*
G37*
G36*
X8759647Y17789209D02*
X8600548Y17948308D01*
X9427863Y18775623D01*
X9586962Y18616524D01*
X8759647Y17789209D01*
X8759647Y17789209D01*
G37*
G36*
X9113201Y17435655D02*
X8954102Y17594754D01*
X9781417Y18422069D01*
X9940516Y18262970D01*
X9113201Y17435655D01*
X9113201Y17435655D01*
G37*
G36*
X9466754Y17082102D02*
X9307655Y17241201D01*
X10134970Y18068516D01*
X10294069Y17909417D01*
X9466754Y17082102D01*
X9466754Y17082102D01*
G37*
G36*
X9820308Y16728548D02*
X9661209Y16887647D01*
X10488524Y17714962D01*
X10647623Y17555863D01*
X9820308Y16728548D01*
X9820308Y16728548D01*
G37*
G36*
X10173861Y16374995D02*
X10014762Y16534094D01*
X10842077Y17361409D01*
X11001176Y17202310D01*
X10173861Y16374995D01*
X10173861Y16374995D01*
G37*
G36*
X10527414Y16021442D02*
X10368315Y16180541D01*
X11195630Y17007856D01*
X11354729Y16848757D01*
X10527414Y16021442D01*
X10527414Y16021442D01*
G37*
G36*
X10880968Y15667888D02*
X10721869Y15826987D01*
X11549184Y16654302D01*
X11708283Y16495203D01*
X10880968Y15667888D01*
X10880968Y15667888D01*
G37*
G36*
X11234521Y15314335D02*
X11075422Y15473434D01*
X11902737Y16300749D01*
X12061836Y16141650D01*
X11234521Y15314335D01*
X11234521Y15314335D01*
G37*
G36*
X13338164Y16141650D02*
X13497263Y16300749D01*
X14324578Y15473434D01*
X14165479Y15314335D01*
X13338164Y16141650D01*
X13338164Y16141650D01*
G37*
G36*
X13691717Y16495203D02*
X13850816Y16654302D01*
X14678131Y15826987D01*
X14519032Y15667888D01*
X13691717Y16495203D01*
X13691717Y16495203D01*
G37*
G36*
X14045271Y16848757D02*
X14204370Y17007856D01*
X15031685Y16180541D01*
X14872586Y16021442D01*
X14045271Y16848757D01*
X14045271Y16848757D01*
G37*
G36*
X14398824Y17202310D02*
X14557923Y17361409D01*
X15385238Y16534094D01*
X15226139Y16374995D01*
X14398824Y17202310D01*
X14398824Y17202310D01*
G37*
G36*
X14752377Y17555863D02*
X14911476Y17714962D01*
X15738791Y16887647D01*
X15579692Y16728548D01*
X14752377Y17555863D01*
X14752377Y17555863D01*
G37*
G36*
X15105931Y17909417D02*
X15265030Y18068516D01*
X16092345Y17241201D01*
X15933246Y17082102D01*
X15105931Y17909417D01*
X15105931Y17909417D01*
G37*
G36*
X15459484Y18262970D02*
X15618583Y18422069D01*
X16445898Y17594754D01*
X16286799Y17435655D01*
X15459484Y18262970D01*
X15459484Y18262970D01*
G37*
G36*
X15813038Y18616524D02*
X15972137Y18775623D01*
X16799452Y17948308D01*
X16640353Y17789209D01*
X15813038Y18616524D01*
X15813038Y18616524D01*
G37*
G36*
X16166591Y18970077D02*
X16325690Y19129176D01*
X17153005Y18301861D01*
X16993906Y18142762D01*
X16166591Y18970077D01*
X16166591Y18970077D01*
G37*
G36*
X16520144Y19323630D02*
X16679243Y19482729D01*
X17506558Y18655414D01*
X17347459Y18496315D01*
X16520144Y19323630D01*
X16520144Y19323630D01*
G37*
G36*
X16873698Y19677184D02*
X17032797Y19836283D01*
X17860112Y19008968D01*
X17701013Y18849869D01*
X16873698Y19677184D01*
X16873698Y19677184D01*
G37*
G36*
X17227251Y20030737D02*
X17386350Y20189836D01*
X18213665Y19362521D01*
X18054566Y19203422D01*
X17227251Y20030737D01*
X17227251Y20030737D01*
G37*
G36*
X17386350Y21466164D02*
X17227251Y21625263D01*
X18054566Y22452578D01*
X18213665Y22293479D01*
X17386350Y21466164D01*
X17386350Y21466164D01*
G37*
G36*
X17032797Y21819717D02*
X16873698Y21978816D01*
X17701013Y22806131D01*
X17860112Y22647032D01*
X17032797Y21819717D01*
X17032797Y21819717D01*
G37*
G36*
X16679243Y22173271D02*
X16520144Y22332370D01*
X17347459Y23159685D01*
X17506558Y23000586D01*
X16679243Y22173271D01*
X16679243Y22173271D01*
G37*
G36*
X16325690Y22526824D02*
X16166591Y22685923D01*
X16993906Y23513238D01*
X17153005Y23354139D01*
X16325690Y22526824D01*
X16325690Y22526824D01*
G37*
G36*
X15972137Y22880377D02*
X15813038Y23039476D01*
X16640353Y23866791D01*
X16799452Y23707692D01*
X15972137Y22880377D01*
X15972137Y22880377D01*
G37*
G36*
X15618583Y23233931D02*
X15459484Y23393030D01*
X16286799Y24220345D01*
X16445898Y24061246D01*
X15618583Y23233931D01*
X15618583Y23233931D01*
G37*
G36*
X15265030Y23587484D02*
X15105931Y23746583D01*
X15933246Y24573898D01*
X16092345Y24414799D01*
X15265030Y23587484D01*
X15265030Y23587484D01*
G37*
G36*
X14911476Y23941038D02*
X14752377Y24100137D01*
X15579692Y24927452D01*
X15738791Y24768353D01*
X14911476Y23941038D01*
X14911476Y23941038D01*
G37*
G36*
X14557923Y24294591D02*
X14398824Y24453690D01*
X15226139Y25281005D01*
X15385238Y25121906D01*
X14557923Y24294591D01*
X14557923Y24294591D01*
G37*
G36*
X14204370Y24648144D02*
X14045271Y24807243D01*
X14872586Y25634558D01*
X15031685Y25475459D01*
X14204370Y24648144D01*
X14204370Y24648144D01*
G37*
G36*
X13850816Y25001698D02*
X13691717Y25160797D01*
X14519032Y25988112D01*
X14678131Y25829013D01*
X13850816Y25001698D01*
X13850816Y25001698D01*
G37*
G36*
X13497263Y25355251D02*
X13338164Y25514350D01*
X14165479Y26341665D01*
X14324578Y26182566D01*
X13497263Y25355251D01*
X13497263Y25355251D01*
G37*
G36*
X10099523Y29267825D02*
X11308675Y30476977D01*
X12008711Y29776941D01*
X10799559Y28567789D01*
X10099523Y29267825D01*
X10099523Y29267825D01*
G37*
G36*
X11867289Y27500059D02*
X13076441Y28709211D01*
X13776477Y28009175D01*
X12567325Y26800023D01*
X11867289Y27500059D01*
X11867289Y27500059D01*
G37*
D16*
X24638000Y32766000D03*
X24638000Y36366000D03*
X23368000Y32766000D03*
X23368000Y36366000D03*
X22098000Y32766000D03*
X22098000Y36366000D03*
X20828000Y32766000D03*
X20828000Y36366000D03*
X19558000Y32766000D03*
X19558000Y36366000D03*
D17*
X2424800Y42494200D03*
X724800Y42494200D03*
X2385800Y46672500D03*
X685800Y46672500D03*
X2246100Y50812700D03*
X546100Y50812700D03*
D18*
X6207800Y44279200D03*
X4307800Y44279200D03*
X5257800Y41979200D03*
X6207800Y48464500D03*
X4307800Y48464500D03*
X5257800Y46164500D03*
X6195100Y52597700D03*
X4295100Y52597700D03*
X5245100Y50297700D03*
D14*
X12954000Y7344000D03*
X12954000Y9544000D03*
X15621000Y7344000D03*
X15621000Y9544000D03*
D13*
X4699000Y-3669300D03*
X4699000Y-1769300D03*
X5651500Y-11002200D03*
X5651500Y-12902200D03*
D12*
X8320749Y-2040155D03*
X6420749Y-2040155D03*
X10741700Y5205500D03*
X8841700Y5205500D03*
D19*
X14106400Y-8066700D03*
D20*
X14106400Y-6366700D03*
X12106400Y-6366700D03*
X12106400Y-8266700D03*
D11*
X20337600Y22072600D03*
X22537600Y22072600D03*
X22537600Y23596600D03*
X20337600Y23596600D03*
D14*
X7137400Y-11004600D03*
X7137400Y-13204600D03*
D21*
X10756900Y100100D03*
D22*
X10256900Y1600100D03*
D21*
X10756900Y3100100D03*
D23*
X7906900Y1600100D03*
D24*
X8234500Y-5970500D03*
X10434500Y-5970500D03*
D11*
X474800Y44272200D03*
X2674800Y44272200D03*
X435800Y48450500D03*
X2635800Y48450500D03*
X296100Y52590700D03*
X2496100Y52590700D03*
D25*
X11781000Y-11086400D03*
X12431000Y-11086400D03*
X13081000Y-11086400D03*
X13731000Y-11086400D03*
X14381000Y-11086400D03*
D26*
X10656000Y-11011400D03*
X15506000Y-11011400D03*
D27*
X9456000Y-13661400D03*
X16706000Y-13661400D03*
D17*
X953400Y21691600D03*
X2653400Y21691600D03*
D18*
X957116Y16057068D03*
X2857116Y16057068D03*
X1907116Y18357068D03*
D11*
X2979600Y20040600D03*
X779600Y20040600D03*
X20251600Y9702800D03*
X18051600Y9702800D03*
X20251600Y11328400D03*
X18051600Y11328400D03*
D14*
X4064000Y25958800D03*
X4064000Y28158800D03*
D13*
X4445000Y36510000D03*
X4445000Y34610000D03*
D28*
X12352000Y38417500D03*
X12352000Y37147500D03*
X12352000Y35877500D03*
X12352000Y34607500D03*
X6952000Y34607500D03*
X6952000Y35877500D03*
X6952000Y37147500D03*
X6952000Y38417500D03*
D29*
X9979628Y70828532D03*
X9979628Y67678532D03*
X9979628Y62446132D03*
X9979628Y65596132D03*
D30*
X7795428Y85255532D03*
X4645428Y85255532D03*
X12164228Y88913132D03*
X9014228Y88913132D03*
X4645228Y80531132D03*
X7795228Y80531132D03*
X7795428Y82969532D03*
X4645428Y82969532D03*
D11*
X12044828Y85103132D03*
X9844828Y85103132D03*
X12044828Y81851932D03*
X9844828Y81851932D03*
D14*
X12265628Y65273532D03*
X12265628Y63073532D03*
D11*
X12044828Y83477532D03*
X9844828Y83477532D03*
X12044828Y86830332D03*
X9844828Y86830332D03*
X12044828Y80175532D03*
X9844828Y80175532D03*
D14*
X12265628Y68153532D03*
X12265628Y70353532D03*
M02*
