M48
;DRILL file {KiCad 4.0.7-e2-6376~58~ubuntu16.04.1} date Fri Jan  5 16:23:07 2018
;FORMAT={-:-/ absolute / inch / decimal}
FMAT,2
INCH,TZ
T1C0.012
T2C0.028
T3C0.035
T4C0.039
T5C0.043
%
G90
G05
M72
T1
X4.995Y-4.12
X5.088Y-3.046
X5.088Y-3.21
X5.088Y-3.3745
X5.126Y-1.452
X5.126Y-2.164
X5.16Y-3.846
X5.1829Y-1.884
X5.23Y-4.3175
X5.256Y-5.1986
X5.274Y-4.272
X5.275Y-3.0915
X5.276Y-2.9295
X5.276Y-3.2565
X5.3075Y-4.0075
X5.309Y-1.577
X5.312Y-4.294
X5.335Y-4.175
X5.345Y-3.55
X5.3475Y-4.0075
X5.3525Y-3.7525
X5.3625Y-3.53
X5.3645Y-4.175
X5.3672Y-3.6428
X5.395Y-5.0341
X5.402Y-4.183
X5.424Y-5.0336
X5.44Y-4.085
X5.454Y-5.0341
X5.46Y-4.285
X5.47Y-4.6176
X5.47Y-4.67
X5.475Y-4.08
X5.4755Y-5.0126
X5.495Y-4.1675
X5.495Y-4.2
X5.5075Y-4.083
X5.513Y-3.9745
X5.5176Y-5.118
X5.526Y-5.1541
X5.5274Y-5.1822
X5.5318Y-4.04
X5.5325Y-4.1675
X5.5325Y-4.2
X5.54Y-4.07
X5.546Y-1.8849
X5.576Y-2.52
X5.5925Y-4.145
X5.595Y-5.3451
X5.5975Y-3.705
X5.599Y-4.3915
X5.6002Y-3.9377
X5.61Y-3.975
X5.615Y-4.1675
X5.619Y-4.3715
X5.6375Y-3.745
X5.655Y-4.6176
X5.655Y-4.672
X5.675Y-4.0375
X5.678Y-4.748
X5.7025Y-4.01
X5.706Y-4.44
X5.706Y-4.872
X5.7075Y-4.3975
X5.722Y-3.723
X5.728Y-4.096
X5.7375Y-4.3975
X5.804Y-3.63
X5.816Y-4.028
X5.849Y-3.784
X5.849Y-3.89
X5.887Y-4.17
T2
X5.4195Y-5.4335
X5.6105Y-5.4335
T3
X5.6223Y-2.2531
X5.6223Y-2.3334
X5.6223Y-2.4137
X5.6229Y-1.6429
X5.6229Y-1.7232
X5.6229Y-1.8035
X5.7223Y-2.2932
X5.7223Y-2.3736
X5.7223Y-2.4539
X5.7229Y-1.683
X5.7229Y-1.7633
X5.7229Y-1.8436
T4
X6.009Y-4.5646
X6.009Y-4.6646
X6.009Y-4.7646
X6.009Y-4.8646
X6.009Y-4.9646
X6.009Y-5.0646
X6.009Y-5.1646
X6.009Y-5.2646
X6.009Y-5.3646
X6.009Y-5.4646
T5
X5.3723Y-5.5379G85X5.3723Y-5.5379
G05
X5.6577Y-5.5379G85X5.6577Y-5.5379
G05
T0
M30
