G04 #@! TF.FileFunction,Legend,Top*
%FSLAX46Y46*%
G04 Gerber Fmt 4.6, Leading zero omitted, Abs format (unit mm)*
G04 Created by KiCad (PCBNEW 4.0.7-e2-6376~58~ubuntu16.04.1) date Tue Jul 10 13:57:07 2018*
%MOMM*%
%LPD*%
G01*
G04 APERTURE LIST*
%ADD10C,0.100000*%
%ADD11C,0.200000*%
%ADD12C,0.300000*%
%ADD13C,0.110000*%
%ADD14C,0.150000*%
%ADD15C,0.120000*%
%ADD16C,0.010000*%
%ADD17C,0.152400*%
G04 APERTURE END LIST*
D10*
D11*
X21340914Y12164819D02*
X21340914Y13164819D01*
X21579009Y13164819D01*
X21721867Y13117200D01*
X21817105Y13021962D01*
X21864724Y12926724D01*
X21912343Y12736248D01*
X21912343Y12593390D01*
X21864724Y12402914D01*
X21817105Y12307676D01*
X21721867Y12212438D01*
X21579009Y12164819D01*
X21340914Y12164819D01*
X22245676Y13164819D02*
X22864724Y13164819D01*
X22531390Y12783867D01*
X22674248Y12783867D01*
X22769486Y12736248D01*
X22817105Y12688629D01*
X22864724Y12593390D01*
X22864724Y12355295D01*
X22817105Y12260057D01*
X22769486Y12212438D01*
X22674248Y12164819D01*
X22388533Y12164819D01*
X22293295Y12212438D01*
X22245676Y12260057D01*
X23817105Y12164819D02*
X23245676Y12164819D01*
X23531390Y12164819D02*
X23531390Y13164819D01*
X23436152Y13021962D01*
X23340914Y12926724D01*
X23245676Y12879105D01*
X21340914Y10031219D02*
X21340914Y11031219D01*
X21579009Y11031219D01*
X21721867Y10983600D01*
X21817105Y10888362D01*
X21864724Y10793124D01*
X21912343Y10602648D01*
X21912343Y10459790D01*
X21864724Y10269314D01*
X21817105Y10174076D01*
X21721867Y10078838D01*
X21579009Y10031219D01*
X21340914Y10031219D01*
X22245676Y11031219D02*
X22864724Y11031219D01*
X22531390Y10650267D01*
X22674248Y10650267D01*
X22769486Y10602648D01*
X22817105Y10555029D01*
X22864724Y10459790D01*
X22864724Y10221695D01*
X22817105Y10126457D01*
X22769486Y10078838D01*
X22674248Y10031219D01*
X22388533Y10031219D01*
X22293295Y10078838D01*
X22245676Y10126457D01*
X23483771Y11031219D02*
X23579010Y11031219D01*
X23674248Y10983600D01*
X23721867Y10935981D01*
X23769486Y10840743D01*
X23817105Y10650267D01*
X23817105Y10412171D01*
X23769486Y10221695D01*
X23721867Y10126457D01*
X23674248Y10078838D01*
X23579010Y10031219D01*
X23483771Y10031219D01*
X23388533Y10078838D01*
X23340914Y10126457D01*
X23293295Y10221695D01*
X23245676Y10412171D01*
X23245676Y10650267D01*
X23293295Y10840743D01*
X23340914Y10935981D01*
X23388533Y10983600D01*
X23483771Y11031219D01*
X20980496Y-4205600D02*
X20885258Y-4157981D01*
X20742401Y-4157981D01*
X20599543Y-4205600D01*
X20504305Y-4300838D01*
X20456686Y-4396076D01*
X20409067Y-4586552D01*
X20409067Y-4729410D01*
X20456686Y-4919886D01*
X20504305Y-5015124D01*
X20599543Y-5110362D01*
X20742401Y-5157981D01*
X20837639Y-5157981D01*
X20980496Y-5110362D01*
X21028115Y-5062743D01*
X21028115Y-4729410D01*
X20837639Y-4729410D01*
X21456686Y-5157981D02*
X21456686Y-4157981D01*
X22028115Y-5157981D01*
X22028115Y-4157981D01*
X22504305Y-5157981D02*
X22504305Y-4157981D01*
X22742400Y-4157981D01*
X22885258Y-4205600D01*
X22980496Y-4300838D01*
X23028115Y-4396076D01*
X23075734Y-4586552D01*
X23075734Y-4729410D01*
X23028115Y-4919886D01*
X22980496Y-5015124D01*
X22885258Y-5110362D01*
X22742400Y-5157981D01*
X22504305Y-5157981D01*
X20407524Y7538838D02*
X20550381Y7491219D01*
X20788477Y7491219D01*
X20883715Y7538838D01*
X20931334Y7586457D01*
X20978953Y7681695D01*
X20978953Y7776933D01*
X20931334Y7872171D01*
X20883715Y7919790D01*
X20788477Y7967410D01*
X20598000Y8015029D01*
X20502762Y8062648D01*
X20455143Y8110267D01*
X20407524Y8205505D01*
X20407524Y8300743D01*
X20455143Y8395981D01*
X20502762Y8443600D01*
X20598000Y8491219D01*
X20836096Y8491219D01*
X20978953Y8443600D01*
X21407524Y7491219D02*
X21407524Y8491219D01*
X21645619Y8491219D01*
X21788477Y8443600D01*
X21883715Y8348362D01*
X21931334Y8253124D01*
X21978953Y8062648D01*
X21978953Y7919790D01*
X21931334Y7729314D01*
X21883715Y7634076D01*
X21788477Y7538838D01*
X21645619Y7491219D01*
X21407524Y7491219D01*
X22359905Y7776933D02*
X22836096Y7776933D01*
X22264667Y7491219D02*
X22598000Y8491219D01*
X22931334Y7491219D01*
X23217048Y8395981D02*
X23264667Y8443600D01*
X23359905Y8491219D01*
X23598001Y8491219D01*
X23693239Y8443600D01*
X23740858Y8395981D01*
X23788477Y8300743D01*
X23788477Y8205505D01*
X23740858Y8062648D01*
X23169429Y7491219D01*
X23788477Y7491219D01*
X20431333Y4948038D02*
X20574190Y4900419D01*
X20812286Y4900419D01*
X20907524Y4948038D01*
X20955143Y4995657D01*
X21002762Y5090895D01*
X21002762Y5186133D01*
X20955143Y5281371D01*
X20907524Y5328990D01*
X20812286Y5376610D01*
X20621809Y5424229D01*
X20526571Y5471848D01*
X20478952Y5519467D01*
X20431333Y5614705D01*
X20431333Y5709943D01*
X20478952Y5805181D01*
X20526571Y5852800D01*
X20621809Y5900419D01*
X20859905Y5900419D01*
X21002762Y5852800D01*
X22002762Y4995657D02*
X21955143Y4948038D01*
X21812286Y4900419D01*
X21717048Y4900419D01*
X21574190Y4948038D01*
X21478952Y5043276D01*
X21431333Y5138514D01*
X21383714Y5328990D01*
X21383714Y5471848D01*
X21431333Y5662324D01*
X21478952Y5757562D01*
X21574190Y5852800D01*
X21717048Y5900419D01*
X21812286Y5900419D01*
X21955143Y5852800D01*
X22002762Y5805181D01*
X22907524Y4900419D02*
X22431333Y4900419D01*
X22431333Y5900419D01*
X23193238Y5805181D02*
X23240857Y5852800D01*
X23336095Y5900419D01*
X23574191Y5900419D01*
X23669429Y5852800D01*
X23717048Y5805181D01*
X23764667Y5709943D01*
X23764667Y5614705D01*
X23717048Y5471848D01*
X23145619Y4900419D01*
X23764667Y4900419D01*
X20974134Y-6748781D02*
X20497943Y-6748781D01*
X20450324Y-7224971D01*
X20497943Y-7177352D01*
X20593181Y-7129733D01*
X20831277Y-7129733D01*
X20926515Y-7177352D01*
X20974134Y-7224971D01*
X21021753Y-7320210D01*
X21021753Y-7558305D01*
X20974134Y-7653543D01*
X20926515Y-7701162D01*
X20831277Y-7748781D01*
X20593181Y-7748781D01*
X20497943Y-7701162D01*
X20450324Y-7653543D01*
X21307467Y-6748781D02*
X21640800Y-7748781D01*
X21974134Y-6748781D01*
X22497943Y-6748781D02*
X22593182Y-6748781D01*
X22688420Y-6796400D01*
X22736039Y-6844019D01*
X22783658Y-6939257D01*
X22831277Y-7129733D01*
X22831277Y-7367829D01*
X22783658Y-7558305D01*
X22736039Y-7653543D01*
X22688420Y-7701162D01*
X22593182Y-7748781D01*
X22497943Y-7748781D01*
X22402705Y-7701162D01*
X22355086Y-7653543D01*
X22307467Y-7558305D01*
X22259848Y-7367829D01*
X22259848Y-7129733D01*
X22307467Y-6939257D01*
X22355086Y-6844019D01*
X22402705Y-6796400D01*
X22497943Y-6748781D01*
D12*
X14807572Y58884429D02*
X14307572Y59598714D01*
X13950429Y58884429D02*
X13950429Y60384429D01*
X14521857Y60384429D01*
X14664715Y60313000D01*
X14736143Y60241571D01*
X14807572Y60098714D01*
X14807572Y59884429D01*
X14736143Y59741571D01*
X14664715Y59670143D01*
X14521857Y59598714D01*
X13950429Y59598714D01*
X15379000Y59313000D02*
X16093286Y59313000D01*
X15236143Y58884429D02*
X15736143Y60384429D01*
X16236143Y58884429D01*
X16736143Y58884429D02*
X16736143Y60384429D01*
X17450429Y58884429D02*
X17450429Y60384429D01*
X18307572Y58884429D01*
X18307572Y60384429D01*
X13466286Y90991429D02*
X13823429Y89491429D01*
X14109143Y90562857D01*
X14394857Y89491429D01*
X14752000Y90991429D01*
X15323429Y89491429D02*
X15323429Y90991429D01*
X16037715Y89491429D02*
X16037715Y90991429D01*
X16894858Y89491429D01*
X16894858Y90991429D01*
X17609144Y89491429D02*
X17609144Y90991429D01*
X17966287Y90991429D01*
X18180572Y90920000D01*
X18323430Y90777143D01*
X18394858Y90634286D01*
X18466287Y90348571D01*
X18466287Y90134286D01*
X18394858Y89848571D01*
X18323430Y89705714D01*
X18180572Y89562857D01*
X17966287Y89491429D01*
X17609144Y89491429D01*
D13*
X1049428Y22690171D02*
X1049428Y23290171D01*
X1192285Y23290171D01*
X1278000Y23261600D01*
X1335142Y23204457D01*
X1363714Y23147314D01*
X1392285Y23033029D01*
X1392285Y22947314D01*
X1363714Y22833029D01*
X1335142Y22775886D01*
X1278000Y22718743D01*
X1192285Y22690171D01*
X1049428Y22690171D01*
X1963714Y22690171D02*
X1620857Y22690171D01*
X1792285Y22690171D02*
X1792285Y23290171D01*
X1735142Y23204457D01*
X1678000Y23147314D01*
X1620857Y23118743D01*
X2163714Y23290171D02*
X2535143Y23290171D01*
X2335143Y23061600D01*
X2420857Y23061600D01*
X2478000Y23033029D01*
X2506571Y23004457D01*
X2535143Y22947314D01*
X2535143Y22804457D01*
X2506571Y22747314D01*
X2478000Y22718743D01*
X2420857Y22690171D01*
X2249429Y22690171D01*
X2192286Y22718743D01*
X2163714Y22747314D01*
D11*
X20980496Y-9336400D02*
X20885258Y-9288781D01*
X20742401Y-9288781D01*
X20599543Y-9336400D01*
X20504305Y-9431638D01*
X20456686Y-9526876D01*
X20409067Y-9717352D01*
X20409067Y-9860210D01*
X20456686Y-10050686D01*
X20504305Y-10145924D01*
X20599543Y-10241162D01*
X20742401Y-10288781D01*
X20837639Y-10288781D01*
X20980496Y-10241162D01*
X21028115Y-10193543D01*
X21028115Y-9860210D01*
X20837639Y-9860210D01*
X21456686Y-10288781D02*
X21456686Y-9288781D01*
X22028115Y-10288781D01*
X22028115Y-9288781D01*
X22504305Y-10288781D02*
X22504305Y-9288781D01*
X22742400Y-9288781D01*
X22885258Y-9336400D01*
X22980496Y-9431638D01*
X23028115Y-9526876D01*
X23075734Y-9717352D01*
X23075734Y-9860210D01*
X23028115Y-10050686D01*
X22980496Y-10145924D01*
X22885258Y-10241162D01*
X22742400Y-10288781D01*
X22504305Y-10288781D01*
X20402705Y-1516381D02*
X21021753Y-1516381D01*
X20688419Y-1897333D01*
X20831277Y-1897333D01*
X20926515Y-1944952D01*
X20974134Y-1992571D01*
X21021753Y-2087810D01*
X21021753Y-2325905D01*
X20974134Y-2421143D01*
X20926515Y-2468762D01*
X20831277Y-2516381D01*
X20545562Y-2516381D01*
X20450324Y-2468762D01*
X20402705Y-2421143D01*
X21307467Y-1516381D02*
X21640800Y-2516381D01*
X21974134Y-1516381D01*
X22212229Y-1516381D02*
X22831277Y-1516381D01*
X22497943Y-1897333D01*
X22640801Y-1897333D01*
X22736039Y-1944952D01*
X22783658Y-1992571D01*
X22831277Y-2087810D01*
X22831277Y-2325905D01*
X22783658Y-2421143D01*
X22736039Y-2468762D01*
X22640801Y-2516381D01*
X22355086Y-2516381D01*
X22259848Y-2468762D01*
X22212229Y-2421143D01*
X20431333Y-30362D02*
X20574190Y-77981D01*
X20812286Y-77981D01*
X20907524Y-30362D01*
X20955143Y17257D01*
X21002762Y112495D01*
X21002762Y207733D01*
X20955143Y302971D01*
X20907524Y350590D01*
X20812286Y398210D01*
X20621809Y445829D01*
X20526571Y493448D01*
X20478952Y541067D01*
X20431333Y636305D01*
X20431333Y731543D01*
X20478952Y826781D01*
X20526571Y874400D01*
X20621809Y922019D01*
X20859905Y922019D01*
X21002762Y874400D01*
X22002762Y17257D02*
X21955143Y-30362D01*
X21812286Y-77981D01*
X21717048Y-77981D01*
X21574190Y-30362D01*
X21478952Y64876D01*
X21431333Y160114D01*
X21383714Y350590D01*
X21383714Y493448D01*
X21431333Y683924D01*
X21478952Y779162D01*
X21574190Y874400D01*
X21717048Y922019D01*
X21812286Y922019D01*
X21955143Y874400D01*
X22002762Y826781D01*
X22907524Y-77981D02*
X22431333Y-77981D01*
X22431333Y922019D01*
X23764667Y-77981D02*
X23193238Y-77981D01*
X23478952Y-77981D02*
X23478952Y922019D01*
X23383714Y779162D01*
X23288476Y683924D01*
X23193238Y636305D01*
X20407524Y2458838D02*
X20550381Y2411219D01*
X20788477Y2411219D01*
X20883715Y2458838D01*
X20931334Y2506457D01*
X20978953Y2601695D01*
X20978953Y2696933D01*
X20931334Y2792171D01*
X20883715Y2839790D01*
X20788477Y2887410D01*
X20598000Y2935029D01*
X20502762Y2982648D01*
X20455143Y3030267D01*
X20407524Y3125505D01*
X20407524Y3220743D01*
X20455143Y3315981D01*
X20502762Y3363600D01*
X20598000Y3411219D01*
X20836096Y3411219D01*
X20978953Y3363600D01*
X21407524Y2411219D02*
X21407524Y3411219D01*
X21645619Y3411219D01*
X21788477Y3363600D01*
X21883715Y3268362D01*
X21931334Y3173124D01*
X21978953Y2982648D01*
X21978953Y2839790D01*
X21931334Y2649314D01*
X21883715Y2554076D01*
X21788477Y2458838D01*
X21645619Y2411219D01*
X21407524Y2411219D01*
X22359905Y2696933D02*
X22836096Y2696933D01*
X22264667Y2411219D02*
X22598000Y3411219D01*
X22931334Y2411219D01*
X23788477Y2411219D02*
X23217048Y2411219D01*
X23502762Y2411219D02*
X23502762Y3411219D01*
X23407524Y3268362D01*
X23312286Y3173124D01*
X23217048Y3125505D01*
X20383715Y-15109857D02*
X20669429Y-15909857D01*
X20955143Y-15109857D01*
X21640858Y-14709857D02*
X21755143Y-14709857D01*
X21869429Y-14767000D01*
X21926572Y-14824143D01*
X21983715Y-14938429D01*
X22040858Y-15167000D01*
X22040858Y-15452714D01*
X21983715Y-15681286D01*
X21926572Y-15795571D01*
X21869429Y-15852714D01*
X21755143Y-15909857D01*
X21640858Y-15909857D01*
X21526572Y-15852714D01*
X21469429Y-15795571D01*
X21412286Y-15681286D01*
X21355143Y-15452714D01*
X21355143Y-15167000D01*
X21412286Y-14938429D01*
X21469429Y-14824143D01*
X21526572Y-14767000D01*
X21640858Y-14709857D01*
X22555143Y-15795571D02*
X22612286Y-15852714D01*
X22555143Y-15909857D01*
X22498000Y-15852714D01*
X22555143Y-15795571D01*
X22555143Y-15909857D01*
X23298001Y-15224143D02*
X23183715Y-15167000D01*
X23126572Y-15109857D01*
X23069429Y-14995571D01*
X23069429Y-14938429D01*
X23126572Y-14824143D01*
X23183715Y-14767000D01*
X23298001Y-14709857D01*
X23526572Y-14709857D01*
X23640858Y-14767000D01*
X23698001Y-14824143D01*
X23755144Y-14938429D01*
X23755144Y-14995571D01*
X23698001Y-15109857D01*
X23640858Y-15167000D01*
X23526572Y-15224143D01*
X23298001Y-15224143D01*
X23183715Y-15281286D01*
X23126572Y-15338429D01*
X23069429Y-15452714D01*
X23069429Y-15681286D01*
X23126572Y-15795571D01*
X23183715Y-15852714D01*
X23298001Y-15909857D01*
X23526572Y-15909857D01*
X23640858Y-15852714D01*
X23698001Y-15795571D01*
X23755144Y-15681286D01*
X23755144Y-15452714D01*
X23698001Y-15338429D01*
X23640858Y-15281286D01*
X23526572Y-15224143D01*
D14*
X5145000Y37160000D02*
X3745000Y37160000D01*
X5145000Y33960000D02*
X3745000Y33960000D01*
X5145000Y37160000D02*
X5145000Y33960000D01*
X3745000Y33960000D02*
X3745000Y37160000D01*
D12*
X11957538Y26166656D02*
G75*
G03X11957538Y26166656I-70711J0D01*
G01*
D14*
X12700000Y15878253D02*
X17649747Y20828000D01*
X7750253Y20828000D02*
X12700000Y25777747D01*
X12700000Y25777747D02*
X17649747Y20828000D01*
X7750253Y20828000D02*
X12700000Y15878253D01*
X27163600Y29390800D02*
X27163600Y24890800D01*
X27013600Y29390800D02*
X27163600Y29390800D01*
X24563600Y27940800D02*
X24563600Y26340800D01*
X27163600Y24890800D02*
X27013600Y24890800D01*
X11054117Y28461723D02*
X11761223Y27754617D01*
X12114777Y29522383D02*
X12821883Y28815277D01*
D15*
X25313000Y35896000D02*
X25333000Y35896000D01*
X25333000Y35896000D02*
X25333000Y33236000D01*
X25333000Y33236000D02*
X25313000Y33236000D01*
X18883000Y35896000D02*
X18863000Y35896000D01*
X18863000Y35896000D02*
X18863000Y33236000D01*
X18863000Y33236000D02*
X18883000Y33236000D01*
X25313000Y30931000D02*
X25313000Y33236000D01*
D14*
X-25200Y43194200D02*
X3174800Y43194200D01*
X3174800Y43194200D02*
X3174800Y41794200D01*
X3174800Y41794200D02*
X-25200Y41794200D01*
X-25200Y41794200D02*
X-25200Y43194200D01*
X-25200Y43194200D02*
X-225200Y43194200D01*
X-225200Y43194200D02*
X-225200Y41794200D01*
X-225200Y41794200D02*
X-25200Y41794200D01*
X-64200Y47372500D02*
X3135800Y47372500D01*
X3135800Y47372500D02*
X3135800Y45972500D01*
X3135800Y45972500D02*
X-64200Y45972500D01*
X-64200Y45972500D02*
X-64200Y47372500D01*
X-64200Y47372500D02*
X-264200Y47372500D01*
X-264200Y47372500D02*
X-264200Y45972500D01*
X-264200Y45972500D02*
X-64200Y45972500D01*
X-203900Y51512700D02*
X2996100Y51512700D01*
X2996100Y51512700D02*
X2996100Y50112700D01*
X2996100Y50112700D02*
X-203900Y50112700D01*
X-203900Y50112700D02*
X-203900Y51512700D01*
X-203900Y51512700D02*
X-403900Y51512700D01*
X-403900Y51512700D02*
X-403900Y50112700D01*
X-403900Y50112700D02*
X-203900Y50112700D01*
X3757800Y43929200D02*
X3757800Y42529200D01*
X4657800Y42529200D02*
X3757800Y42529200D01*
X6757800Y42529200D02*
X5757800Y42529200D01*
X6757800Y43929200D02*
X6757800Y42529200D01*
X5657800Y43929200D02*
X4857800Y43929200D01*
X3757800Y48114500D02*
X3757800Y46714500D01*
X4657800Y46714500D02*
X3757800Y46714500D01*
X6757800Y46714500D02*
X5757800Y46714500D01*
X6757800Y48114500D02*
X6757800Y46714500D01*
X5657800Y48114500D02*
X4857800Y48114500D01*
X3745100Y52247700D02*
X3745100Y50847700D01*
X4645100Y50847700D02*
X3745100Y50847700D01*
X6745100Y50847700D02*
X5745100Y50847700D01*
X6745100Y52247700D02*
X6745100Y50847700D01*
X5645100Y52247700D02*
X4845100Y52247700D01*
D16*
G36*
X4809967Y69860091D02*
X4809371Y69804213D01*
X4808153Y69756101D01*
X4806129Y69713288D01*
X4803117Y69673310D01*
X4798933Y69633699D01*
X4793393Y69591991D01*
X4786315Y69545720D01*
X4778140Y69496129D01*
X4743088Y69325774D01*
X4696074Y69158864D01*
X4637512Y68995988D01*
X4567814Y68837734D01*
X4487393Y68684692D01*
X4396663Y68537451D01*
X4296037Y68396600D01*
X4185927Y68262729D01*
X4066747Y68136427D01*
X3938910Y68018283D01*
X3802829Y67908887D01*
X3658916Y67808827D01*
X3547903Y67741301D01*
X3389635Y67657696D01*
X3227851Y67586273D01*
X3062501Y67527018D01*
X2893531Y67479919D01*
X2720890Y67444964D01*
X2544525Y67422140D01*
X2364383Y67411433D01*
X2189512Y67412482D01*
X2014632Y67425243D01*
X1841581Y67450395D01*
X1670998Y67487685D01*
X1503522Y67536859D01*
X1339793Y67597666D01*
X1180449Y67669851D01*
X1026129Y67753162D01*
X877474Y67847345D01*
X735122Y67952147D01*
X651120Y68021646D01*
X609690Y68058965D01*
X563060Y68103516D01*
X513682Y68152759D01*
X464010Y68204151D01*
X416496Y68255153D01*
X373593Y68303223D01*
X337755Y68345819D01*
X335471Y68348658D01*
X228614Y68491877D01*
X132468Y68641322D01*
X47411Y68796303D01*
X-26175Y68956135D01*
X-83478Y69107050D01*
X-135765Y69279136D01*
X-175652Y69453315D01*
X-203076Y69629102D01*
X-217971Y69806011D01*
X-220271Y69983555D01*
X-215296Y70094475D01*
X-197112Y70271513D01*
X-166661Y70445904D01*
X-124208Y70617068D01*
X-70017Y70784422D01*
X-4353Y70947384D01*
X72520Y71105373D01*
X160338Y71257806D01*
X258835Y71404102D01*
X367748Y71543678D01*
X486813Y71675953D01*
X517611Y71707290D01*
X647532Y71828384D01*
X784535Y71939186D01*
X928021Y72039519D01*
X1077391Y72129205D01*
X1232047Y72208066D01*
X1391389Y72275925D01*
X1513547Y72318291D01*
X1513547Y72070560D01*
X1504758Y72069306D01*
X1486285Y72063479D01*
X1459985Y72053812D01*
X1427710Y72041039D01*
X1391316Y72025894D01*
X1352657Y72009111D01*
X1313685Y71991468D01*
X1277923Y71973874D01*
X1234661Y71950951D01*
X1186945Y71924450D01*
X1137819Y71896119D01*
X1090329Y71867709D01*
X1047521Y71840967D01*
X1019325Y71822383D01*
X900249Y71735166D01*
X784848Y71638549D01*
X674994Y71534399D01*
X572565Y71424585D01*
X479434Y71310975D01*
X412111Y71217462D01*
X376982Y71156751D01*
X345697Y71084719D01*
X318503Y71002226D01*
X295648Y70910132D01*
X277382Y70809296D01*
X264612Y70707250D01*
X262464Y70674005D01*
X261524Y70632196D01*
X261747Y70585898D01*
X263085Y70539187D01*
X265491Y70496137D01*
X267303Y70474991D01*
X279282Y70391357D01*
X297598Y70313913D01*
X321755Y70244096D01*
X351255Y70183344D01*
X385354Y70133397D01*
X415999Y70100615D01*
X448499Y70076122D01*
X485938Y70058230D01*
X531400Y70045249D01*
X554559Y70040689D01*
X615385Y70026889D01*
X665738Y70008421D01*
X707292Y69984326D01*
X741720Y69953649D01*
X769132Y69917871D01*
X788425Y69884264D01*
X804969Y69846872D01*
X818920Y69804661D01*
X830433Y69756600D01*
X839664Y69701658D01*
X846770Y69638803D01*
X851905Y69567003D01*
X855225Y69485226D01*
X856888Y69392441D01*
X857152Y69334994D01*
X858889Y69185910D01*
X863909Y69048915D01*
X872211Y68924048D01*
X883790Y68811347D01*
X898644Y68710850D01*
X911934Y68643500D01*
X945338Y68518004D01*
X988239Y68398391D01*
X1040165Y68285518D01*
X1100643Y68180242D01*
X1169201Y68083419D01*
X1245365Y67995905D01*
X1296638Y67946302D01*
X1322369Y67923056D01*
X1288978Y67989591D01*
X1272586Y68023515D01*
X1255665Y68060627D01*
X1240700Y68095386D01*
X1233679Y68112844D01*
X1217755Y68158561D01*
X1201508Y68213195D01*
X1185855Y68273025D01*
X1171717Y68334331D01*
X1160011Y68393390D01*
X1152054Y68443475D01*
X1147419Y68488140D01*
X1143959Y68542220D01*
X1141702Y68602484D01*
X1140676Y68665700D01*
X1140906Y68728635D01*
X1142422Y68788058D01*
X1145250Y68840736D01*
X1148408Y68875275D01*
X1173522Y69043343D01*
X1210163Y69214057D01*
X1257904Y69385778D01*
X1316318Y69556867D01*
X1346765Y69635180D01*
X1357487Y69661552D01*
X1367749Y69686357D01*
X1378207Y69711062D01*
X1389519Y69737135D01*
X1402340Y69766045D01*
X1417328Y69799260D01*
X1435138Y69838248D01*
X1456429Y69884478D01*
X1481856Y69939417D01*
X1508873Y69997638D01*
X1581656Y70165931D01*
X1643220Y70332996D01*
X1693540Y70498456D01*
X1732593Y70661934D01*
X1760353Y70823054D01*
X1776794Y70981438D01*
X1781893Y71136710D01*
X1775624Y71288492D01*
X1757963Y71436408D01*
X1728884Y71580081D01*
X1688362Y71719133D01*
X1636373Y71853188D01*
X1632169Y71862676D01*
X1617671Y71893573D01*
X1600794Y71927068D01*
X1582682Y71961160D01*
X1564474Y71993849D01*
X1547313Y72023135D01*
X1532341Y72047017D01*
X1520697Y72063495D01*
X1513547Y72070560D01*
X1513547Y72318291D01*
X1554819Y72332605D01*
X1721737Y72377927D01*
X1891545Y72411714D01*
X2063644Y72433789D01*
X2237436Y72443973D01*
X2365410Y72442596D01*
X2365410Y72211799D01*
X2290318Y72211765D01*
X2213312Y72209960D01*
X2137616Y72206479D01*
X2066458Y72201414D01*
X2003062Y72194860D01*
X1974850Y72190988D01*
X1931926Y72184014D01*
X1886597Y72175848D01*
X1840461Y72166860D01*
X1795117Y72157421D01*
X1752163Y72147901D01*
X1713196Y72138669D01*
X1679816Y72130095D01*
X1653621Y72122549D01*
X1636209Y72116401D01*
X1629178Y72112021D01*
X1629393Y72111042D01*
X1635355Y72107799D01*
X1651900Y72099173D01*
X1678291Y72085542D01*
X1713792Y72067281D01*
X1757668Y72044768D01*
X1809181Y72018379D01*
X1867596Y71988492D01*
X1932176Y71955483D01*
X2002185Y71919730D01*
X2076887Y71881608D01*
X2155546Y71841496D01*
X2237425Y71799769D01*
X2240148Y71798382D01*
X2322098Y71756595D01*
X2400824Y71716377D01*
X2475591Y71678105D01*
X2545666Y71642160D01*
X2610315Y71608920D01*
X2668803Y71578764D01*
X2720397Y71552071D01*
X2764363Y71529221D01*
X2799966Y71510593D01*
X2826473Y71496565D01*
X2843149Y71487517D01*
X2849261Y71483828D01*
X2849274Y71483801D01*
X2844078Y71480026D01*
X2828589Y71470820D01*
X2803737Y71456693D01*
X2770454Y71438157D01*
X2729669Y71415723D01*
X2682315Y71389902D01*
X2629321Y71361204D01*
X2571618Y71330142D01*
X2510137Y71297226D01*
X2488999Y71285949D01*
X2426429Y71252530D01*
X2367287Y71220814D01*
X2312508Y71191310D01*
X2263029Y71164529D01*
X2219785Y71140981D01*
X2183710Y71121174D01*
X2155740Y71105620D01*
X2136811Y71094828D01*
X2127857Y71089307D01*
X2127250Y71088729D01*
X2132769Y71085269D01*
X2148831Y71076372D01*
X2174696Y71062428D01*
X2209620Y71043826D01*
X2252864Y71020956D01*
X2303686Y70994208D01*
X2361344Y70963971D01*
X2425098Y70930635D01*
X2494205Y70894589D01*
X2567924Y70856223D01*
X2645514Y70815926D01*
X2713038Y70780922D01*
X2793394Y70739283D01*
X2870575Y70699253D01*
X2943832Y70661223D01*
X3012417Y70625582D01*
X3075581Y70592722D01*
X3132577Y70563032D01*
X3182656Y70536901D01*
X3225069Y70514721D01*
X3259069Y70496881D01*
X3283907Y70483771D01*
X3298835Y70475781D01*
X3303164Y70473317D01*
X3298327Y70469788D01*
X3283048Y70460722D01*
X3258100Y70446541D01*
X3224257Y70427669D01*
X3182292Y70404528D01*
X3132978Y70377541D01*
X3077087Y70347131D01*
X3015393Y70313721D01*
X2948669Y70277733D01*
X2877688Y70239591D01*
X2803224Y70199717D01*
X2790469Y70192900D01*
X2715406Y70152764D01*
X2643616Y70114311D01*
X2575881Y70077964D01*
X2512981Y70044146D01*
X2455697Y70013277D01*
X2404811Y69985780D01*
X2361102Y69962078D01*
X2325353Y69942592D01*
X2298343Y69927744D01*
X2280855Y69917957D01*
X2273668Y69913652D01*
X2273526Y69913500D01*
X2279009Y69910041D01*
X2294692Y69901352D01*
X2319481Y69888012D01*
X2352280Y69870599D01*
X2391996Y69849692D01*
X2437534Y69825869D01*
X2487800Y69799708D01*
X2541698Y69771787D01*
X2543333Y69770942D01*
X2597329Y69742952D01*
X2647719Y69716662D01*
X2693409Y69692656D01*
X2733304Y69671517D01*
X2766310Y69653828D01*
X2791332Y69640173D01*
X2807276Y69631134D01*
X2813046Y69627294D01*
X2813050Y69627267D01*
X2807579Y69623706D01*
X2791695Y69614608D01*
X2766196Y69600405D01*
X2731878Y69581530D01*
X2689539Y69558416D01*
X2639976Y69531496D01*
X2583984Y69501203D01*
X2522362Y69467969D01*
X2455906Y69432228D01*
X2385413Y69394412D01*
X2316163Y69357351D01*
X2241966Y69317679D01*
X2170584Y69279495D01*
X2102866Y69243256D01*
X2039661Y69209415D01*
X1981817Y69178427D01*
X1930183Y69150748D01*
X1885606Y69126831D01*
X1848935Y69107132D01*
X1821018Y69092106D01*
X1802704Y69082206D01*
X1795188Y69078087D01*
X1771100Y69064447D01*
X2023788Y68933777D01*
X2075968Y68906678D01*
X2124471Y68881266D01*
X2168172Y68858146D01*
X2205944Y68837925D01*
X2236662Y68821208D01*
X2259200Y68808602D01*
X2272431Y68800714D01*
X2275568Y68798233D01*
X2269951Y68794227D01*
X2254367Y68784972D01*
X2230069Y68771167D01*
X2198311Y68753507D01*
X2160347Y68732691D01*
X2117431Y68709416D01*
X2070913Y68684430D01*
X2024528Y68659480D01*
X1982051Y68636340D01*
X1944699Y68615694D01*
X1913689Y68598230D01*
X1890239Y68584632D01*
X1875567Y68575587D01*
X1870889Y68571780D01*
X1870900Y68571768D01*
X1877010Y68568319D01*
X1893522Y68559508D01*
X1919551Y68545796D01*
X1954212Y68527644D01*
X1996622Y68505512D01*
X2045895Y68479863D01*
X2101147Y68451156D01*
X2161494Y68419854D01*
X2226050Y68386416D01*
X2293932Y68351304D01*
X2296106Y68350179D01*
X2363970Y68315059D01*
X2428446Y68281610D01*
X2488661Y68250289D01*
X2543742Y68221555D01*
X2592813Y68195868D01*
X2635000Y68173686D01*
X2669429Y68155467D01*
X2695227Y68141670D01*
X2711518Y68132753D01*
X2717428Y68129176D01*
X2717436Y68129150D01*
X2712053Y68125535D01*
X2696536Y68116102D01*
X2671760Y68101362D01*
X2638602Y68081829D01*
X2597936Y68058013D01*
X2550639Y68030427D01*
X2497586Y67999582D01*
X2439654Y67965991D01*
X2377717Y67930166D01*
X2326999Y67900891D01*
X2262662Y67863688D01*
X2201765Y67828280D01*
X2145169Y67795179D01*
X2093738Y67764901D01*
X2048334Y67737959D01*
X2009819Y67714866D01*
X1979056Y67696136D01*
X1956906Y67682282D01*
X1944233Y67673818D01*
X1941490Y67671280D01*
X1951980Y67667056D01*
X1973501Y67662830D01*
X2004382Y67658730D01*
X2042956Y67654883D01*
X2087552Y67651418D01*
X2136502Y67648461D01*
X2188136Y67646142D01*
X2240786Y67644588D01*
X2292782Y67643927D01*
X2298700Y67643914D01*
X2407915Y67645570D01*
X2508520Y67651048D01*
X2604136Y67660749D01*
X2698385Y67675080D01*
X2794887Y67694442D01*
X2835275Y67703769D01*
X2996744Y67748407D01*
X3152179Y67803889D01*
X3302552Y67870641D01*
X3448835Y67949089D01*
X3575050Y68028203D01*
X3641032Y68073706D01*
X3700730Y68117892D01*
X3757067Y68163184D01*
X3812964Y68212007D01*
X3871344Y68266786D01*
X3918223Y68312944D01*
X3999135Y68396974D01*
X4070953Y68478434D01*
X4136011Y68560288D01*
X4196648Y68645498D01*
X4255199Y68737029D01*
X4263842Y68751312D01*
X4345179Y68898727D01*
X4414810Y69050365D01*
X4472755Y69205566D01*
X4519030Y69363670D01*
X4553654Y69524015D01*
X4576645Y69685943D01*
X4588020Y69848791D01*
X4587798Y70011899D01*
X4575997Y70174606D01*
X4552634Y70336253D01*
X4517728Y70496178D01*
X4471296Y70653721D01*
X4413357Y70808222D01*
X4343929Y70959019D01*
X4263029Y71105452D01*
X4196950Y71208900D01*
X4096789Y71345634D01*
X3987636Y71473697D01*
X3870065Y71592752D01*
X3744650Y71702463D01*
X3611964Y71802492D01*
X3472583Y71892504D01*
X3327080Y71972160D01*
X3176029Y72041126D01*
X3020004Y72099063D01*
X2859579Y72145635D01*
X2695329Y72180505D01*
X2527827Y72203338D01*
X2496945Y72206180D01*
X2435361Y72209969D01*
X2365410Y72211799D01*
X2365410Y72442596D01*
X2412320Y72442090D01*
X2587699Y72427961D01*
X2762973Y72401409D01*
X2819833Y72390071D01*
X2990910Y72347575D01*
X3157102Y72293660D01*
X3317969Y72228781D01*
X3473074Y72153393D01*
X3621979Y72067951D01*
X3764244Y71972909D01*
X3899433Y71868722D01*
X4027106Y71755845D01*
X4146827Y71634733D01*
X4258155Y71505840D01*
X4360654Y71369622D01*
X4453885Y71226532D01*
X4537410Y71077026D01*
X4610790Y70921558D01*
X4673588Y70760583D01*
X4725365Y70594557D01*
X4765683Y70423933D01*
X4777905Y70358000D01*
X4786640Y70305768D01*
X4793661Y70260011D01*
X4799151Y70218290D01*
X4803292Y70178168D01*
X4806265Y70137209D01*
X4808253Y70092973D01*
X4809437Y70043025D01*
X4810000Y69984927D01*
X4810125Y69926200D01*
X4809967Y69860091D01*
X4809967Y69860091D01*
G37*
X4809967Y69860091D02*
X4809371Y69804213D01*
X4808153Y69756101D01*
X4806129Y69713288D01*
X4803117Y69673310D01*
X4798933Y69633699D01*
X4793393Y69591991D01*
X4786315Y69545720D01*
X4778140Y69496129D01*
X4743088Y69325774D01*
X4696074Y69158864D01*
X4637512Y68995988D01*
X4567814Y68837734D01*
X4487393Y68684692D01*
X4396663Y68537451D01*
X4296037Y68396600D01*
X4185927Y68262729D01*
X4066747Y68136427D01*
X3938910Y68018283D01*
X3802829Y67908887D01*
X3658916Y67808827D01*
X3547903Y67741301D01*
X3389635Y67657696D01*
X3227851Y67586273D01*
X3062501Y67527018D01*
X2893531Y67479919D01*
X2720890Y67444964D01*
X2544525Y67422140D01*
X2364383Y67411433D01*
X2189512Y67412482D01*
X2014632Y67425243D01*
X1841581Y67450395D01*
X1670998Y67487685D01*
X1503522Y67536859D01*
X1339793Y67597666D01*
X1180449Y67669851D01*
X1026129Y67753162D01*
X877474Y67847345D01*
X735122Y67952147D01*
X651120Y68021646D01*
X609690Y68058965D01*
X563060Y68103516D01*
X513682Y68152759D01*
X464010Y68204151D01*
X416496Y68255153D01*
X373593Y68303223D01*
X337755Y68345819D01*
X335471Y68348658D01*
X228614Y68491877D01*
X132468Y68641322D01*
X47411Y68796303D01*
X-26175Y68956135D01*
X-83478Y69107050D01*
X-135765Y69279136D01*
X-175652Y69453315D01*
X-203076Y69629102D01*
X-217971Y69806011D01*
X-220271Y69983555D01*
X-215296Y70094475D01*
X-197112Y70271513D01*
X-166661Y70445904D01*
X-124208Y70617068D01*
X-70017Y70784422D01*
X-4353Y70947384D01*
X72520Y71105373D01*
X160338Y71257806D01*
X258835Y71404102D01*
X367748Y71543678D01*
X486813Y71675953D01*
X517611Y71707290D01*
X647532Y71828384D01*
X784535Y71939186D01*
X928021Y72039519D01*
X1077391Y72129205D01*
X1232047Y72208066D01*
X1391389Y72275925D01*
X1513547Y72318291D01*
X1513547Y72070560D01*
X1504758Y72069306D01*
X1486285Y72063479D01*
X1459985Y72053812D01*
X1427710Y72041039D01*
X1391316Y72025894D01*
X1352657Y72009111D01*
X1313685Y71991468D01*
X1277923Y71973874D01*
X1234661Y71950951D01*
X1186945Y71924450D01*
X1137819Y71896119D01*
X1090329Y71867709D01*
X1047521Y71840967D01*
X1019325Y71822383D01*
X900249Y71735166D01*
X784848Y71638549D01*
X674994Y71534399D01*
X572565Y71424585D01*
X479434Y71310975D01*
X412111Y71217462D01*
X376982Y71156751D01*
X345697Y71084719D01*
X318503Y71002226D01*
X295648Y70910132D01*
X277382Y70809296D01*
X264612Y70707250D01*
X262464Y70674005D01*
X261524Y70632196D01*
X261747Y70585898D01*
X263085Y70539187D01*
X265491Y70496137D01*
X267303Y70474991D01*
X279282Y70391357D01*
X297598Y70313913D01*
X321755Y70244096D01*
X351255Y70183344D01*
X385354Y70133397D01*
X415999Y70100615D01*
X448499Y70076122D01*
X485938Y70058230D01*
X531400Y70045249D01*
X554559Y70040689D01*
X615385Y70026889D01*
X665738Y70008421D01*
X707292Y69984326D01*
X741720Y69953649D01*
X769132Y69917871D01*
X788425Y69884264D01*
X804969Y69846872D01*
X818920Y69804661D01*
X830433Y69756600D01*
X839664Y69701658D01*
X846770Y69638803D01*
X851905Y69567003D01*
X855225Y69485226D01*
X856888Y69392441D01*
X857152Y69334994D01*
X858889Y69185910D01*
X863909Y69048915D01*
X872211Y68924048D01*
X883790Y68811347D01*
X898644Y68710850D01*
X911934Y68643500D01*
X945338Y68518004D01*
X988239Y68398391D01*
X1040165Y68285518D01*
X1100643Y68180242D01*
X1169201Y68083419D01*
X1245365Y67995905D01*
X1296638Y67946302D01*
X1322369Y67923056D01*
X1288978Y67989591D01*
X1272586Y68023515D01*
X1255665Y68060627D01*
X1240700Y68095386D01*
X1233679Y68112844D01*
X1217755Y68158561D01*
X1201508Y68213195D01*
X1185855Y68273025D01*
X1171717Y68334331D01*
X1160011Y68393390D01*
X1152054Y68443475D01*
X1147419Y68488140D01*
X1143959Y68542220D01*
X1141702Y68602484D01*
X1140676Y68665700D01*
X1140906Y68728635D01*
X1142422Y68788058D01*
X1145250Y68840736D01*
X1148408Y68875275D01*
X1173522Y69043343D01*
X1210163Y69214057D01*
X1257904Y69385778D01*
X1316318Y69556867D01*
X1346765Y69635180D01*
X1357487Y69661552D01*
X1367749Y69686357D01*
X1378207Y69711062D01*
X1389519Y69737135D01*
X1402340Y69766045D01*
X1417328Y69799260D01*
X1435138Y69838248D01*
X1456429Y69884478D01*
X1481856Y69939417D01*
X1508873Y69997638D01*
X1581656Y70165931D01*
X1643220Y70332996D01*
X1693540Y70498456D01*
X1732593Y70661934D01*
X1760353Y70823054D01*
X1776794Y70981438D01*
X1781893Y71136710D01*
X1775624Y71288492D01*
X1757963Y71436408D01*
X1728884Y71580081D01*
X1688362Y71719133D01*
X1636373Y71853188D01*
X1632169Y71862676D01*
X1617671Y71893573D01*
X1600794Y71927068D01*
X1582682Y71961160D01*
X1564474Y71993849D01*
X1547313Y72023135D01*
X1532341Y72047017D01*
X1520697Y72063495D01*
X1513547Y72070560D01*
X1513547Y72318291D01*
X1554819Y72332605D01*
X1721737Y72377927D01*
X1891545Y72411714D01*
X2063644Y72433789D01*
X2237436Y72443973D01*
X2365410Y72442596D01*
X2365410Y72211799D01*
X2290318Y72211765D01*
X2213312Y72209960D01*
X2137616Y72206479D01*
X2066458Y72201414D01*
X2003062Y72194860D01*
X1974850Y72190988D01*
X1931926Y72184014D01*
X1886597Y72175848D01*
X1840461Y72166860D01*
X1795117Y72157421D01*
X1752163Y72147901D01*
X1713196Y72138669D01*
X1679816Y72130095D01*
X1653621Y72122549D01*
X1636209Y72116401D01*
X1629178Y72112021D01*
X1629393Y72111042D01*
X1635355Y72107799D01*
X1651900Y72099173D01*
X1678291Y72085542D01*
X1713792Y72067281D01*
X1757668Y72044768D01*
X1809181Y72018379D01*
X1867596Y71988492D01*
X1932176Y71955483D01*
X2002185Y71919730D01*
X2076887Y71881608D01*
X2155546Y71841496D01*
X2237425Y71799769D01*
X2240148Y71798382D01*
X2322098Y71756595D01*
X2400824Y71716377D01*
X2475591Y71678105D01*
X2545666Y71642160D01*
X2610315Y71608920D01*
X2668803Y71578764D01*
X2720397Y71552071D01*
X2764363Y71529221D01*
X2799966Y71510593D01*
X2826473Y71496565D01*
X2843149Y71487517D01*
X2849261Y71483828D01*
X2849274Y71483801D01*
X2844078Y71480026D01*
X2828589Y71470820D01*
X2803737Y71456693D01*
X2770454Y71438157D01*
X2729669Y71415723D01*
X2682315Y71389902D01*
X2629321Y71361204D01*
X2571618Y71330142D01*
X2510137Y71297226D01*
X2488999Y71285949D01*
X2426429Y71252530D01*
X2367287Y71220814D01*
X2312508Y71191310D01*
X2263029Y71164529D01*
X2219785Y71140981D01*
X2183710Y71121174D01*
X2155740Y71105620D01*
X2136811Y71094828D01*
X2127857Y71089307D01*
X2127250Y71088729D01*
X2132769Y71085269D01*
X2148831Y71076372D01*
X2174696Y71062428D01*
X2209620Y71043826D01*
X2252864Y71020956D01*
X2303686Y70994208D01*
X2361344Y70963971D01*
X2425098Y70930635D01*
X2494205Y70894589D01*
X2567924Y70856223D01*
X2645514Y70815926D01*
X2713038Y70780922D01*
X2793394Y70739283D01*
X2870575Y70699253D01*
X2943832Y70661223D01*
X3012417Y70625582D01*
X3075581Y70592722D01*
X3132577Y70563032D01*
X3182656Y70536901D01*
X3225069Y70514721D01*
X3259069Y70496881D01*
X3283907Y70483771D01*
X3298835Y70475781D01*
X3303164Y70473317D01*
X3298327Y70469788D01*
X3283048Y70460722D01*
X3258100Y70446541D01*
X3224257Y70427669D01*
X3182292Y70404528D01*
X3132978Y70377541D01*
X3077087Y70347131D01*
X3015393Y70313721D01*
X2948669Y70277733D01*
X2877688Y70239591D01*
X2803224Y70199717D01*
X2790469Y70192900D01*
X2715406Y70152764D01*
X2643616Y70114311D01*
X2575881Y70077964D01*
X2512981Y70044146D01*
X2455697Y70013277D01*
X2404811Y69985780D01*
X2361102Y69962078D01*
X2325353Y69942592D01*
X2298343Y69927744D01*
X2280855Y69917957D01*
X2273668Y69913652D01*
X2273526Y69913500D01*
X2279009Y69910041D01*
X2294692Y69901352D01*
X2319481Y69888012D01*
X2352280Y69870599D01*
X2391996Y69849692D01*
X2437534Y69825869D01*
X2487800Y69799708D01*
X2541698Y69771787D01*
X2543333Y69770942D01*
X2597329Y69742952D01*
X2647719Y69716662D01*
X2693409Y69692656D01*
X2733304Y69671517D01*
X2766310Y69653828D01*
X2791332Y69640173D01*
X2807276Y69631134D01*
X2813046Y69627294D01*
X2813050Y69627267D01*
X2807579Y69623706D01*
X2791695Y69614608D01*
X2766196Y69600405D01*
X2731878Y69581530D01*
X2689539Y69558416D01*
X2639976Y69531496D01*
X2583984Y69501203D01*
X2522362Y69467969D01*
X2455906Y69432228D01*
X2385413Y69394412D01*
X2316163Y69357351D01*
X2241966Y69317679D01*
X2170584Y69279495D01*
X2102866Y69243256D01*
X2039661Y69209415D01*
X1981817Y69178427D01*
X1930183Y69150748D01*
X1885606Y69126831D01*
X1848935Y69107132D01*
X1821018Y69092106D01*
X1802704Y69082206D01*
X1795188Y69078087D01*
X1771100Y69064447D01*
X2023788Y68933777D01*
X2075968Y68906678D01*
X2124471Y68881266D01*
X2168172Y68858146D01*
X2205944Y68837925D01*
X2236662Y68821208D01*
X2259200Y68808602D01*
X2272431Y68800714D01*
X2275568Y68798233D01*
X2269951Y68794227D01*
X2254367Y68784972D01*
X2230069Y68771167D01*
X2198311Y68753507D01*
X2160347Y68732691D01*
X2117431Y68709416D01*
X2070913Y68684430D01*
X2024528Y68659480D01*
X1982051Y68636340D01*
X1944699Y68615694D01*
X1913689Y68598230D01*
X1890239Y68584632D01*
X1875567Y68575587D01*
X1870889Y68571780D01*
X1870900Y68571768D01*
X1877010Y68568319D01*
X1893522Y68559508D01*
X1919551Y68545796D01*
X1954212Y68527644D01*
X1996622Y68505512D01*
X2045895Y68479863D01*
X2101147Y68451156D01*
X2161494Y68419854D01*
X2226050Y68386416D01*
X2293932Y68351304D01*
X2296106Y68350179D01*
X2363970Y68315059D01*
X2428446Y68281610D01*
X2488661Y68250289D01*
X2543742Y68221555D01*
X2592813Y68195868D01*
X2635000Y68173686D01*
X2669429Y68155467D01*
X2695227Y68141670D01*
X2711518Y68132753D01*
X2717428Y68129176D01*
X2717436Y68129150D01*
X2712053Y68125535D01*
X2696536Y68116102D01*
X2671760Y68101362D01*
X2638602Y68081829D01*
X2597936Y68058013D01*
X2550639Y68030427D01*
X2497586Y67999582D01*
X2439654Y67965991D01*
X2377717Y67930166D01*
X2326999Y67900891D01*
X2262662Y67863688D01*
X2201765Y67828280D01*
X2145169Y67795179D01*
X2093738Y67764901D01*
X2048334Y67737959D01*
X2009819Y67714866D01*
X1979056Y67696136D01*
X1956906Y67682282D01*
X1944233Y67673818D01*
X1941490Y67671280D01*
X1951980Y67667056D01*
X1973501Y67662830D01*
X2004382Y67658730D01*
X2042956Y67654883D01*
X2087552Y67651418D01*
X2136502Y67648461D01*
X2188136Y67646142D01*
X2240786Y67644588D01*
X2292782Y67643927D01*
X2298700Y67643914D01*
X2407915Y67645570D01*
X2508520Y67651048D01*
X2604136Y67660749D01*
X2698385Y67675080D01*
X2794887Y67694442D01*
X2835275Y67703769D01*
X2996744Y67748407D01*
X3152179Y67803889D01*
X3302552Y67870641D01*
X3448835Y67949089D01*
X3575050Y68028203D01*
X3641032Y68073706D01*
X3700730Y68117892D01*
X3757067Y68163184D01*
X3812964Y68212007D01*
X3871344Y68266786D01*
X3918223Y68312944D01*
X3999135Y68396974D01*
X4070953Y68478434D01*
X4136011Y68560288D01*
X4196648Y68645498D01*
X4255199Y68737029D01*
X4263842Y68751312D01*
X4345179Y68898727D01*
X4414810Y69050365D01*
X4472755Y69205566D01*
X4519030Y69363670D01*
X4553654Y69524015D01*
X4576645Y69685943D01*
X4588020Y69848791D01*
X4587798Y70011899D01*
X4575997Y70174606D01*
X4552634Y70336253D01*
X4517728Y70496178D01*
X4471296Y70653721D01*
X4413357Y70808222D01*
X4343929Y70959019D01*
X4263029Y71105452D01*
X4196950Y71208900D01*
X4096789Y71345634D01*
X3987636Y71473697D01*
X3870065Y71592752D01*
X3744650Y71702463D01*
X3611964Y71802492D01*
X3472583Y71892504D01*
X3327080Y71972160D01*
X3176029Y72041126D01*
X3020004Y72099063D01*
X2859579Y72145635D01*
X2695329Y72180505D01*
X2527827Y72203338D01*
X2496945Y72206180D01*
X2435361Y72209969D01*
X2365410Y72211799D01*
X2365410Y72442596D01*
X2412320Y72442090D01*
X2587699Y72427961D01*
X2762973Y72401409D01*
X2819833Y72390071D01*
X2990910Y72347575D01*
X3157102Y72293660D01*
X3317969Y72228781D01*
X3473074Y72153393D01*
X3621979Y72067951D01*
X3764244Y71972909D01*
X3899433Y71868722D01*
X4027106Y71755845D01*
X4146827Y71634733D01*
X4258155Y71505840D01*
X4360654Y71369622D01*
X4453885Y71226532D01*
X4537410Y71077026D01*
X4610790Y70921558D01*
X4673588Y70760583D01*
X4725365Y70594557D01*
X4765683Y70423933D01*
X4777905Y70358000D01*
X4786640Y70305768D01*
X4793661Y70260011D01*
X4799151Y70218290D01*
X4803292Y70178168D01*
X4806265Y70137209D01*
X4808253Y70092973D01*
X4809437Y70043025D01*
X4810000Y69984927D01*
X4810125Y69926200D01*
X4809967Y69860091D01*
G36*
X2863776Y54511407D02*
X2863565Y54466152D01*
X2863235Y54426712D01*
X2862804Y54394583D01*
X2862292Y54371261D01*
X2861716Y54358243D01*
X2861347Y54356000D01*
X2854117Y54358217D01*
X2835895Y54364648D01*
X2807544Y54374964D01*
X2769932Y54388837D01*
X2723924Y54405937D01*
X2670387Y54425937D01*
X2610187Y54448506D01*
X2544189Y54473317D01*
X2473259Y54500041D01*
X2398264Y54528349D01*
X2320070Y54557911D01*
X2239542Y54588400D01*
X2157547Y54619486D01*
X2074951Y54650841D01*
X1992620Y54682136D01*
X1911419Y54713042D01*
X1832215Y54743230D01*
X1755874Y54772372D01*
X1683262Y54800138D01*
X1615245Y54826201D01*
X1552689Y54850230D01*
X1496460Y54871898D01*
X1447424Y54890876D01*
X1406446Y54906834D01*
X1374394Y54919445D01*
X1352133Y54928378D01*
X1340529Y54933306D01*
X1339850Y54933635D01*
X1269608Y54973592D01*
X1211327Y55017091D01*
X1164675Y55064505D01*
X1129315Y55116205D01*
X1104913Y55172563D01*
X1096467Y55203725D01*
X1088918Y55249554D01*
X1084365Y55302154D01*
X1083072Y55355894D01*
X1085305Y55405143D01*
X1086472Y55416318D01*
X1098140Y55482563D01*
X1117861Y55548806D01*
X1125295Y55568850D01*
X1136271Y55595649D01*
X1148248Y55622241D01*
X1159941Y55646076D01*
X1170068Y55664603D01*
X1177348Y55675272D01*
X1179604Y55676867D01*
X1187508Y55674292D01*
X1204591Y55667097D01*
X1228944Y55656198D01*
X1258659Y55642509D01*
X1291828Y55626943D01*
X1326542Y55610414D01*
X1360892Y55593837D01*
X1392969Y55578125D01*
X1420865Y55564193D01*
X1442671Y55552954D01*
X1456478Y55545324D01*
X1460500Y55542349D01*
X1457821Y55533924D01*
X1450926Y55518256D01*
X1444573Y55505246D01*
X1423414Y55453680D01*
X1412430Y55403454D01*
X1411928Y55356511D01*
X1416788Y55330725D01*
X1426463Y55310040D01*
X1442718Y55288334D01*
X1462091Y55269336D01*
X1481119Y55256771D01*
X1487678Y55254424D01*
X1496225Y55256156D01*
X1516546Y55262646D01*
X1548640Y55273893D01*
X1592505Y55289895D01*
X1648141Y55310653D01*
X1715545Y55336166D01*
X1794716Y55366434D01*
X1885655Y55401455D01*
X1988358Y55441231D01*
X2102825Y55485759D01*
X2177004Y55514700D01*
X2265436Y55549217D01*
X2350589Y55582414D01*
X2431713Y55614003D01*
X2508059Y55643693D01*
X2578877Y55671193D01*
X2643417Y55696215D01*
X2700930Y55718466D01*
X2750666Y55737659D01*
X2791877Y55753501D01*
X2823812Y55765703D01*
X2845721Y55773975D01*
X2856856Y55778027D01*
X2858128Y55778400D01*
X2859681Y55772220D01*
X2860928Y55754348D01*
X2861851Y55725792D01*
X2862427Y55687558D01*
X2862637Y55640651D01*
X2862460Y55586077D01*
X2862350Y55570965D01*
X2860675Y55363530D01*
X1947655Y55059194D01*
X2270815Y54955391D01*
X2337712Y54933914D01*
X2405397Y54912203D01*
X2472052Y54890840D01*
X2535863Y54870407D01*
X2595014Y54851484D01*
X2647688Y54834653D01*
X2692071Y54820494D01*
X2726345Y54809590D01*
X2728913Y54808774D01*
X2863850Y54765961D01*
X2863850Y54560981D01*
X2863776Y54511407D01*
X2863776Y54511407D01*
G37*
X2863776Y54511407D02*
X2863565Y54466152D01*
X2863235Y54426712D01*
X2862804Y54394583D01*
X2862292Y54371261D01*
X2861716Y54358243D01*
X2861347Y54356000D01*
X2854117Y54358217D01*
X2835895Y54364648D01*
X2807544Y54374964D01*
X2769932Y54388837D01*
X2723924Y54405937D01*
X2670387Y54425937D01*
X2610187Y54448506D01*
X2544189Y54473317D01*
X2473259Y54500041D01*
X2398264Y54528349D01*
X2320070Y54557911D01*
X2239542Y54588400D01*
X2157547Y54619486D01*
X2074951Y54650841D01*
X1992620Y54682136D01*
X1911419Y54713042D01*
X1832215Y54743230D01*
X1755874Y54772372D01*
X1683262Y54800138D01*
X1615245Y54826201D01*
X1552689Y54850230D01*
X1496460Y54871898D01*
X1447424Y54890876D01*
X1406446Y54906834D01*
X1374394Y54919445D01*
X1352133Y54928378D01*
X1340529Y54933306D01*
X1339850Y54933635D01*
X1269608Y54973592D01*
X1211327Y55017091D01*
X1164675Y55064505D01*
X1129315Y55116205D01*
X1104913Y55172563D01*
X1096467Y55203725D01*
X1088918Y55249554D01*
X1084365Y55302154D01*
X1083072Y55355894D01*
X1085305Y55405143D01*
X1086472Y55416318D01*
X1098140Y55482563D01*
X1117861Y55548806D01*
X1125295Y55568850D01*
X1136271Y55595649D01*
X1148248Y55622241D01*
X1159941Y55646076D01*
X1170068Y55664603D01*
X1177348Y55675272D01*
X1179604Y55676867D01*
X1187508Y55674292D01*
X1204591Y55667097D01*
X1228944Y55656198D01*
X1258659Y55642509D01*
X1291828Y55626943D01*
X1326542Y55610414D01*
X1360892Y55593837D01*
X1392969Y55578125D01*
X1420865Y55564193D01*
X1442671Y55552954D01*
X1456478Y55545324D01*
X1460500Y55542349D01*
X1457821Y55533924D01*
X1450926Y55518256D01*
X1444573Y55505246D01*
X1423414Y55453680D01*
X1412430Y55403454D01*
X1411928Y55356511D01*
X1416788Y55330725D01*
X1426463Y55310040D01*
X1442718Y55288334D01*
X1462091Y55269336D01*
X1481119Y55256771D01*
X1487678Y55254424D01*
X1496225Y55256156D01*
X1516546Y55262646D01*
X1548640Y55273893D01*
X1592505Y55289895D01*
X1648141Y55310653D01*
X1715545Y55336166D01*
X1794716Y55366434D01*
X1885655Y55401455D01*
X1988358Y55441231D01*
X2102825Y55485759D01*
X2177004Y55514700D01*
X2265436Y55549217D01*
X2350589Y55582414D01*
X2431713Y55614003D01*
X2508059Y55643693D01*
X2578877Y55671193D01*
X2643417Y55696215D01*
X2700930Y55718466D01*
X2750666Y55737659D01*
X2791877Y55753501D01*
X2823812Y55765703D01*
X2845721Y55773975D01*
X2856856Y55778027D01*
X2858128Y55778400D01*
X2859681Y55772220D01*
X2860928Y55754348D01*
X2861851Y55725792D01*
X2862427Y55687558D01*
X2862637Y55640651D01*
X2862460Y55586077D01*
X2862350Y55570965D01*
X2860675Y55363530D01*
X1947655Y55059194D01*
X2270815Y54955391D01*
X2337712Y54933914D01*
X2405397Y54912203D01*
X2472052Y54890840D01*
X2535863Y54870407D01*
X2595014Y54851484D01*
X2647688Y54834653D01*
X2692071Y54820494D01*
X2726345Y54809590D01*
X2728913Y54808774D01*
X2863850Y54765961D01*
X2863850Y54560981D01*
X2863776Y54511407D01*
G36*
X2885534Y66214090D02*
X2872857Y66126988D01*
X2851353Y66047245D01*
X2820519Y65973539D01*
X2779852Y65904545D01*
X2728850Y65838941D01*
X2698381Y65806038D01*
X2659029Y65765750D01*
X2620152Y65803228D01*
X2602727Y65819879D01*
X2578353Y65842968D01*
X2549377Y65870283D01*
X2518145Y65899610D01*
X2490916Y65925085D01*
X2400556Y66009463D01*
X2439993Y66052973D01*
X2480558Y66101858D01*
X2510704Y66148355D01*
X2531673Y66195104D01*
X2544708Y66244744D01*
X2550152Y66286970D01*
X2549609Y66351274D01*
X2537151Y66411192D01*
X2512821Y66466606D01*
X2476666Y66517400D01*
X2451618Y66543456D01*
X2399654Y66584769D01*
X2342642Y66615106D01*
X2279730Y66634784D01*
X2210069Y66644118D01*
X2178050Y66645030D01*
X2106226Y66639495D01*
X2039455Y66623107D01*
X1978680Y66596233D01*
X1924845Y66559238D01*
X1901561Y66537806D01*
X1863086Y66492097D01*
X1835402Y66442933D01*
X1817842Y66388578D01*
X1809739Y66327296D01*
X1809000Y66296970D01*
X1814169Y66236146D01*
X1829581Y66178120D01*
X1855884Y66121254D01*
X1893730Y66063910D01*
X1909449Y66043882D01*
X1925089Y66024507D01*
X1938062Y66008098D01*
X1945820Y65997884D01*
X1946275Y65997234D01*
X1946432Y65992479D01*
X1941842Y65984197D01*
X1931691Y65971481D01*
X1915164Y65953425D01*
X1891447Y65929124D01*
X1859726Y65897672D01*
X1835561Y65874065D01*
X1718496Y65760153D01*
X1681181Y65796889D01*
X1632979Y65849339D01*
X1588576Y65907320D01*
X1549952Y65967802D01*
X1519086Y66027751D01*
X1501928Y66071411D01*
X1487659Y66124924D01*
X1476935Y66186848D01*
X1470019Y66253325D01*
X1467173Y66320498D01*
X1468661Y66384508D01*
X1474746Y66441499D01*
X1476139Y66449575D01*
X1498760Y66540619D01*
X1532088Y66627145D01*
X1575368Y66707891D01*
X1627844Y66781597D01*
X1688759Y66847003D01*
X1740575Y66890641D01*
X1817981Y66941389D01*
X1899921Y66981054D01*
X1985256Y67009758D01*
X2072847Y67027625D01*
X2161554Y67034780D01*
X2250236Y67031345D01*
X2337755Y67017444D01*
X2422970Y66993202D01*
X2504743Y66958741D01*
X2581932Y66914186D01*
X2653399Y66859660D01*
X2718003Y66795288D01*
X2728167Y66783439D01*
X2782479Y66709647D01*
X2825500Y66631120D01*
X2857419Y66547303D01*
X2878427Y66457641D01*
X2888711Y66361581D01*
X2889888Y66309875D01*
X2885534Y66214090D01*
X2885534Y66214090D01*
G37*
X2885534Y66214090D02*
X2872857Y66126988D01*
X2851353Y66047245D01*
X2820519Y65973539D01*
X2779852Y65904545D01*
X2728850Y65838941D01*
X2698381Y65806038D01*
X2659029Y65765750D01*
X2620152Y65803228D01*
X2602727Y65819879D01*
X2578353Y65842968D01*
X2549377Y65870283D01*
X2518145Y65899610D01*
X2490916Y65925085D01*
X2400556Y66009463D01*
X2439993Y66052973D01*
X2480558Y66101858D01*
X2510704Y66148355D01*
X2531673Y66195104D01*
X2544708Y66244744D01*
X2550152Y66286970D01*
X2549609Y66351274D01*
X2537151Y66411192D01*
X2512821Y66466606D01*
X2476666Y66517400D01*
X2451618Y66543456D01*
X2399654Y66584769D01*
X2342642Y66615106D01*
X2279730Y66634784D01*
X2210069Y66644118D01*
X2178050Y66645030D01*
X2106226Y66639495D01*
X2039455Y66623107D01*
X1978680Y66596233D01*
X1924845Y66559238D01*
X1901561Y66537806D01*
X1863086Y66492097D01*
X1835402Y66442933D01*
X1817842Y66388578D01*
X1809739Y66327296D01*
X1809000Y66296970D01*
X1814169Y66236146D01*
X1829581Y66178120D01*
X1855884Y66121254D01*
X1893730Y66063910D01*
X1909449Y66043882D01*
X1925089Y66024507D01*
X1938062Y66008098D01*
X1945820Y65997884D01*
X1946275Y65997234D01*
X1946432Y65992479D01*
X1941842Y65984197D01*
X1931691Y65971481D01*
X1915164Y65953425D01*
X1891447Y65929124D01*
X1859726Y65897672D01*
X1835561Y65874065D01*
X1718496Y65760153D01*
X1681181Y65796889D01*
X1632979Y65849339D01*
X1588576Y65907320D01*
X1549952Y65967802D01*
X1519086Y66027751D01*
X1501928Y66071411D01*
X1487659Y66124924D01*
X1476935Y66186848D01*
X1470019Y66253325D01*
X1467173Y66320498D01*
X1468661Y66384508D01*
X1474746Y66441499D01*
X1476139Y66449575D01*
X1498760Y66540619D01*
X1532088Y66627145D01*
X1575368Y66707891D01*
X1627844Y66781597D01*
X1688759Y66847003D01*
X1740575Y66890641D01*
X1817981Y66941389D01*
X1899921Y66981054D01*
X1985256Y67009758D01*
X2072847Y67027625D01*
X2161554Y67034780D01*
X2250236Y67031345D01*
X2337755Y67017444D01*
X2422970Y66993202D01*
X2504743Y66958741D01*
X2581932Y66914186D01*
X2653399Y66859660D01*
X2718003Y66795288D01*
X2728167Y66783439D01*
X2782479Y66709647D01*
X2825500Y66631120D01*
X2857419Y66547303D01*
X2878427Y66457641D01*
X2888711Y66361581D01*
X2889888Y66309875D01*
X2885534Y66214090D01*
G36*
X2888650Y64906923D02*
X2884675Y64857210D01*
X2879677Y64822758D01*
X2855903Y64727218D01*
X2821848Y64637943D01*
X2778063Y64555591D01*
X2725101Y64480819D01*
X2663514Y64414288D01*
X2593854Y64356654D01*
X2516674Y64308577D01*
X2432526Y64270714D01*
X2409825Y64262708D01*
X2324083Y64240321D01*
X2235194Y64228774D01*
X2145197Y64227926D01*
X2056132Y64237637D01*
X1970037Y64257767D01*
X1888951Y64288177D01*
X1864150Y64300181D01*
X1781118Y64349660D01*
X1706948Y64408149D01*
X1641904Y64475314D01*
X1586249Y64550820D01*
X1540247Y64634331D01*
X1504162Y64725511D01*
X1488998Y64777408D01*
X1482107Y64806009D01*
X1477160Y64832286D01*
X1473765Y64859703D01*
X1471529Y64891721D01*
X1470059Y64931803D01*
X1469666Y64947800D01*
X1469201Y65005789D01*
X1470744Y65053000D01*
X1474372Y65091211D01*
X1476409Y65104286D01*
X1499154Y65199629D01*
X1532350Y65288757D01*
X1575348Y65371048D01*
X1627496Y65445882D01*
X1688142Y65512639D01*
X1756637Y65570696D01*
X1832329Y65619435D01*
X1914566Y65658234D01*
X2002700Y65686473D01*
X2096077Y65703530D01*
X2106028Y65704634D01*
X2172336Y65707054D01*
X2172336Y65318170D01*
X2106570Y65311283D01*
X2043577Y65294328D01*
X1985167Y65267523D01*
X1933155Y65231087D01*
X1923618Y65222606D01*
X1886332Y65184414D01*
X1858011Y65146217D01*
X1835647Y65103786D01*
X1830530Y65091767D01*
X1816903Y65045755D01*
X1809817Y64993182D01*
X1809323Y64938400D01*
X1815470Y64885764D01*
X1827630Y64841394D01*
X1856445Y64781808D01*
X1894131Y64730796D01*
X1940115Y64689007D01*
X1988725Y64659522D01*
X2036813Y64638828D01*
X2082600Y64625725D01*
X2131183Y64619063D01*
X2174875Y64617600D01*
X2247050Y64622699D01*
X2312159Y64638153D01*
X2370811Y64664199D01*
X2423614Y64701074D01*
X2448246Y64723881D01*
X2490955Y64775547D01*
X2522431Y64832266D01*
X2542507Y64892853D01*
X2551014Y64956126D01*
X2547783Y65020901D01*
X2532647Y65085995D01*
X2508158Y65144956D01*
X2490348Y65172102D01*
X2464343Y65201765D01*
X2433375Y65230917D01*
X2400673Y65256529D01*
X2369469Y65275572D01*
X2368140Y65276231D01*
X2304934Y65300863D01*
X2239061Y65314769D01*
X2172336Y65318170D01*
X2172336Y65707054D01*
X2196457Y65707935D01*
X2287180Y65699473D01*
X2376253Y65679731D01*
X2461730Y65649191D01*
X2541668Y65608336D01*
X2572039Y65588955D01*
X2607142Y65562438D01*
X2645773Y65528834D01*
X2684351Y65491579D01*
X2719292Y65454109D01*
X2743668Y65424375D01*
X2785516Y65360711D01*
X2822430Y65288393D01*
X2852864Y65211008D01*
X2875272Y65132143D01*
X2880562Y65106824D01*
X2886208Y65065070D01*
X2889429Y65015042D01*
X2890239Y64960930D01*
X2888650Y64906923D01*
X2888650Y64906923D01*
G37*
X2888650Y64906923D02*
X2884675Y64857210D01*
X2879677Y64822758D01*
X2855903Y64727218D01*
X2821848Y64637943D01*
X2778063Y64555591D01*
X2725101Y64480819D01*
X2663514Y64414288D01*
X2593854Y64356654D01*
X2516674Y64308577D01*
X2432526Y64270714D01*
X2409825Y64262708D01*
X2324083Y64240321D01*
X2235194Y64228774D01*
X2145197Y64227926D01*
X2056132Y64237637D01*
X1970037Y64257767D01*
X1888951Y64288177D01*
X1864150Y64300181D01*
X1781118Y64349660D01*
X1706948Y64408149D01*
X1641904Y64475314D01*
X1586249Y64550820D01*
X1540247Y64634331D01*
X1504162Y64725511D01*
X1488998Y64777408D01*
X1482107Y64806009D01*
X1477160Y64832286D01*
X1473765Y64859703D01*
X1471529Y64891721D01*
X1470059Y64931803D01*
X1469666Y64947800D01*
X1469201Y65005789D01*
X1470744Y65053000D01*
X1474372Y65091211D01*
X1476409Y65104286D01*
X1499154Y65199629D01*
X1532350Y65288757D01*
X1575348Y65371048D01*
X1627496Y65445882D01*
X1688142Y65512639D01*
X1756637Y65570696D01*
X1832329Y65619435D01*
X1914566Y65658234D01*
X2002700Y65686473D01*
X2096077Y65703530D01*
X2106028Y65704634D01*
X2172336Y65707054D01*
X2172336Y65318170D01*
X2106570Y65311283D01*
X2043577Y65294328D01*
X1985167Y65267523D01*
X1933155Y65231087D01*
X1923618Y65222606D01*
X1886332Y65184414D01*
X1858011Y65146217D01*
X1835647Y65103786D01*
X1830530Y65091767D01*
X1816903Y65045755D01*
X1809817Y64993182D01*
X1809323Y64938400D01*
X1815470Y64885764D01*
X1827630Y64841394D01*
X1856445Y64781808D01*
X1894131Y64730796D01*
X1940115Y64689007D01*
X1988725Y64659522D01*
X2036813Y64638828D01*
X2082600Y64625725D01*
X2131183Y64619063D01*
X2174875Y64617600D01*
X2247050Y64622699D01*
X2312159Y64638153D01*
X2370811Y64664199D01*
X2423614Y64701074D01*
X2448246Y64723881D01*
X2490955Y64775547D01*
X2522431Y64832266D01*
X2542507Y64892853D01*
X2551014Y64956126D01*
X2547783Y65020901D01*
X2532647Y65085995D01*
X2508158Y65144956D01*
X2490348Y65172102D01*
X2464343Y65201765D01*
X2433375Y65230917D01*
X2400673Y65256529D01*
X2369469Y65275572D01*
X2368140Y65276231D01*
X2304934Y65300863D01*
X2239061Y65314769D01*
X2172336Y65318170D01*
X2172336Y65707054D01*
X2196457Y65707935D01*
X2287180Y65699473D01*
X2376253Y65679731D01*
X2461730Y65649191D01*
X2541668Y65608336D01*
X2572039Y65588955D01*
X2607142Y65562438D01*
X2645773Y65528834D01*
X2684351Y65491579D01*
X2719292Y65454109D01*
X2743668Y65424375D01*
X2785516Y65360711D01*
X2822430Y65288393D01*
X2852864Y65211008D01*
X2875272Y65132143D01*
X2880562Y65106824D01*
X2886208Y65065070D01*
X2889429Y65015042D01*
X2890239Y64960930D01*
X2888650Y64906923D01*
G36*
X2887248Y60662299D02*
X2883521Y60610904D01*
X2877784Y60565186D01*
X2870858Y60531375D01*
X2842474Y60448080D01*
X2803575Y60371613D01*
X2754572Y60302338D01*
X2695878Y60240614D01*
X2627908Y60186804D01*
X2551074Y60141269D01*
X2465789Y60104369D01*
X2372466Y60076468D01*
X2343376Y60069991D01*
X2319062Y60066022D01*
X2287251Y60062343D01*
X2250363Y60059073D01*
X2210821Y60056334D01*
X2171047Y60054246D01*
X2133462Y60052931D01*
X2100489Y60052508D01*
X2074549Y60053100D01*
X2058065Y60054826D01*
X2055235Y60055617D01*
X2053249Y60057133D01*
X2051527Y60060614D01*
X2050052Y60066909D01*
X2048804Y60076863D01*
X2047765Y60091325D01*
X2046915Y60111141D01*
X2046236Y60137158D01*
X2045710Y60170225D01*
X2045317Y60211186D01*
X2045039Y60260891D01*
X2044858Y60320186D01*
X2044753Y60389918D01*
X2044708Y60470934D01*
X2044700Y60532055D01*
X2044680Y60608255D01*
X2044620Y60680646D01*
X2044523Y60748243D01*
X2044394Y60810058D01*
X2044236Y60865108D01*
X2044052Y60912407D01*
X2043844Y60950969D01*
X2043617Y60979808D01*
X2043374Y60997940D01*
X2043119Y61004379D01*
X2043113Y61004382D01*
X2030223Y61001524D01*
X2009674Y60994602D01*
X1985240Y60985078D01*
X1960698Y60974416D01*
X1941558Y60965016D01*
X1892031Y60931758D01*
X1851543Y60889898D01*
X1820393Y60840046D01*
X1798877Y60782814D01*
X1787293Y60718811D01*
X1785939Y60648647D01*
X1786088Y60645944D01*
X1795515Y60576629D01*
X1815873Y60510908D01*
X1847731Y60447399D01*
X1891657Y60384718D01*
X1895599Y60379835D01*
X1924757Y60344040D01*
X1827566Y60233372D01*
X1799657Y60201894D01*
X1774294Y60173859D01*
X1752736Y60150614D01*
X1736245Y60133504D01*
X1726079Y60123877D01*
X1723587Y60122252D01*
X1715772Y60126547D01*
X1701616Y60138705D01*
X1682903Y60156828D01*
X1661417Y60179020D01*
X1638943Y60203382D01*
X1617265Y60228018D01*
X1598167Y60251029D01*
X1583433Y60270519D01*
X1581423Y60273446D01*
X1537537Y60349836D01*
X1503649Y60433427D01*
X1480189Y60523068D01*
X1473422Y60563125D01*
X1469819Y60600551D01*
X1468035Y60646196D01*
X1468013Y60695720D01*
X1469696Y60744781D01*
X1473028Y60789038D01*
X1476750Y60817525D01*
X1498188Y60910575D01*
X1530164Y60996690D01*
X1572936Y61076391D01*
X1626762Y61150199D01*
X1659236Y61186454D01*
X1727355Y61248654D01*
X1802512Y61300332D01*
X1884399Y61341325D01*
X1972709Y61371472D01*
X2038350Y61386065D01*
X2076265Y61390790D01*
X2122620Y61393540D01*
X2173472Y61394351D01*
X2224877Y61393257D01*
X2272894Y61390294D01*
X2292350Y61388000D01*
X2292350Y61009612D01*
X2292350Y60724456D01*
X2292375Y60656759D01*
X2292477Y60600676D01*
X2292700Y60555120D01*
X2293084Y60519008D01*
X2293673Y60491251D01*
X2294509Y60470765D01*
X2295634Y60456464D01*
X2297091Y60447262D01*
X2298922Y60442072D01*
X2301168Y60439809D01*
X2303463Y60439376D01*
X2321986Y60441906D01*
X2347874Y60448474D01*
X2376949Y60457821D01*
X2405033Y60468689D01*
X2414025Y60472698D01*
X2466195Y60502605D01*
X2507710Y60539010D01*
X2539204Y60582591D01*
X2559589Y60628761D01*
X2566193Y60651016D01*
X2569974Y60672216D01*
X2571397Y60696731D01*
X2570924Y60728933D01*
X2570748Y60733903D01*
X2569156Y60765487D01*
X2566534Y60788596D01*
X2561975Y60807458D01*
X2554572Y60826296D01*
X2547927Y60840286D01*
X2518132Y60886663D01*
X2477701Y60927235D01*
X2427615Y60961325D01*
X2368858Y60988257D01*
X2306638Y61006434D01*
X2292350Y61009612D01*
X2292350Y61388000D01*
X2313578Y61385496D01*
X2324698Y61383521D01*
X2418753Y61359061D01*
X2506137Y61324563D01*
X2586248Y61280604D01*
X2658484Y61227760D01*
X2722242Y61166605D01*
X2776920Y61097716D01*
X2821917Y61021667D01*
X2856631Y60939034D01*
X2880007Y60852650D01*
X2885344Y60814544D01*
X2888262Y60767718D01*
X2888863Y60715770D01*
X2887248Y60662299D01*
X2887248Y60662299D01*
G37*
X2887248Y60662299D02*
X2883521Y60610904D01*
X2877784Y60565186D01*
X2870858Y60531375D01*
X2842474Y60448080D01*
X2803575Y60371613D01*
X2754572Y60302338D01*
X2695878Y60240614D01*
X2627908Y60186804D01*
X2551074Y60141269D01*
X2465789Y60104369D01*
X2372466Y60076468D01*
X2343376Y60069991D01*
X2319062Y60066022D01*
X2287251Y60062343D01*
X2250363Y60059073D01*
X2210821Y60056334D01*
X2171047Y60054246D01*
X2133462Y60052931D01*
X2100489Y60052508D01*
X2074549Y60053100D01*
X2058065Y60054826D01*
X2055235Y60055617D01*
X2053249Y60057133D01*
X2051527Y60060614D01*
X2050052Y60066909D01*
X2048804Y60076863D01*
X2047765Y60091325D01*
X2046915Y60111141D01*
X2046236Y60137158D01*
X2045710Y60170225D01*
X2045317Y60211186D01*
X2045039Y60260891D01*
X2044858Y60320186D01*
X2044753Y60389918D01*
X2044708Y60470934D01*
X2044700Y60532055D01*
X2044680Y60608255D01*
X2044620Y60680646D01*
X2044523Y60748243D01*
X2044394Y60810058D01*
X2044236Y60865108D01*
X2044052Y60912407D01*
X2043844Y60950969D01*
X2043617Y60979808D01*
X2043374Y60997940D01*
X2043119Y61004379D01*
X2043113Y61004382D01*
X2030223Y61001524D01*
X2009674Y60994602D01*
X1985240Y60985078D01*
X1960698Y60974416D01*
X1941558Y60965016D01*
X1892031Y60931758D01*
X1851543Y60889898D01*
X1820393Y60840046D01*
X1798877Y60782814D01*
X1787293Y60718811D01*
X1785939Y60648647D01*
X1786088Y60645944D01*
X1795515Y60576629D01*
X1815873Y60510908D01*
X1847731Y60447399D01*
X1891657Y60384718D01*
X1895599Y60379835D01*
X1924757Y60344040D01*
X1827566Y60233372D01*
X1799657Y60201894D01*
X1774294Y60173859D01*
X1752736Y60150614D01*
X1736245Y60133504D01*
X1726079Y60123877D01*
X1723587Y60122252D01*
X1715772Y60126547D01*
X1701616Y60138705D01*
X1682903Y60156828D01*
X1661417Y60179020D01*
X1638943Y60203382D01*
X1617265Y60228018D01*
X1598167Y60251029D01*
X1583433Y60270519D01*
X1581423Y60273446D01*
X1537537Y60349836D01*
X1503649Y60433427D01*
X1480189Y60523068D01*
X1473422Y60563125D01*
X1469819Y60600551D01*
X1468035Y60646196D01*
X1468013Y60695720D01*
X1469696Y60744781D01*
X1473028Y60789038D01*
X1476750Y60817525D01*
X1498188Y60910575D01*
X1530164Y60996690D01*
X1572936Y61076391D01*
X1626762Y61150199D01*
X1659236Y61186454D01*
X1727355Y61248654D01*
X1802512Y61300332D01*
X1884399Y61341325D01*
X1972709Y61371472D01*
X2038350Y61386065D01*
X2076265Y61390790D01*
X2122620Y61393540D01*
X2173472Y61394351D01*
X2224877Y61393257D01*
X2272894Y61390294D01*
X2292350Y61388000D01*
X2292350Y61009612D01*
X2292350Y60724456D01*
X2292375Y60656759D01*
X2292477Y60600676D01*
X2292700Y60555120D01*
X2293084Y60519008D01*
X2293673Y60491251D01*
X2294509Y60470765D01*
X2295634Y60456464D01*
X2297091Y60447262D01*
X2298922Y60442072D01*
X2301168Y60439809D01*
X2303463Y60439376D01*
X2321986Y60441906D01*
X2347874Y60448474D01*
X2376949Y60457821D01*
X2405033Y60468689D01*
X2414025Y60472698D01*
X2466195Y60502605D01*
X2507710Y60539010D01*
X2539204Y60582591D01*
X2559589Y60628761D01*
X2566193Y60651016D01*
X2569974Y60672216D01*
X2571397Y60696731D01*
X2570924Y60728933D01*
X2570748Y60733903D01*
X2569156Y60765487D01*
X2566534Y60788596D01*
X2561975Y60807458D01*
X2554572Y60826296D01*
X2547927Y60840286D01*
X2518132Y60886663D01*
X2477701Y60927235D01*
X2427615Y60961325D01*
X2368858Y60988257D01*
X2306638Y61006434D01*
X2292350Y61009612D01*
X2292350Y61388000D01*
X2313578Y61385496D01*
X2324698Y61383521D01*
X2418753Y61359061D01*
X2506137Y61324563D01*
X2586248Y61280604D01*
X2658484Y61227760D01*
X2722242Y61166605D01*
X2776920Y61097716D01*
X2821917Y61021667D01*
X2856631Y60939034D01*
X2880007Y60852650D01*
X2885344Y60814544D01*
X2888262Y60767718D01*
X2888863Y60715770D01*
X2887248Y60662299D01*
G36*
X2885408Y62009933D02*
X2875797Y61921992D01*
X2856562Y61831141D01*
X2827518Y61738158D01*
X2826257Y61734700D01*
X2815566Y61707975D01*
X2801935Y61677479D01*
X2786599Y61645587D01*
X2770791Y61614677D01*
X2755743Y61587121D01*
X2742689Y61565296D01*
X2732863Y61551577D01*
X2729596Y61548531D01*
X2721729Y61549095D01*
X2704955Y61555435D01*
X2678812Y61567770D01*
X2642841Y61586319D01*
X2596580Y61611300D01*
X2590713Y61614522D01*
X2553803Y61634846D01*
X2520734Y61653106D01*
X2493088Y61668424D01*
X2472452Y61679920D01*
X2460409Y61686715D01*
X2457963Y61688172D01*
X2459633Y61694311D01*
X2465994Y61709845D01*
X2476162Y61732757D01*
X2489255Y61761032D01*
X2497116Y61777580D01*
X2513544Y61812949D01*
X2529410Y61849010D01*
X2543142Y61882070D01*
X2553173Y61908435D01*
X2554997Y61913786D01*
X2570633Y61970720D01*
X2579213Y62023651D01*
X2580969Y62071526D01*
X2576135Y62113292D01*
X2564944Y62147893D01*
X2547630Y62174278D01*
X2524425Y62191391D01*
X2495564Y62198179D01*
X2492006Y62198250D01*
X2466533Y62194588D01*
X2445974Y62182431D01*
X2428567Y62162641D01*
X2409400Y62131019D01*
X2388397Y62087403D01*
X2365479Y62031627D01*
X2340571Y61963529D01*
X2333919Y61944250D01*
X2306548Y61867590D01*
X2280531Y61802226D01*
X2255280Y61746907D01*
X2230207Y61700379D01*
X2204723Y61661389D01*
X2195159Y61648732D01*
X2151039Y61599916D01*
X2103936Y61562639D01*
X2052339Y61536182D01*
X1994738Y61519830D01*
X1929622Y61512862D01*
X1908429Y61512495D01*
X1831611Y61517968D01*
X1761534Y61534135D01*
X1698422Y61560792D01*
X1642502Y61597729D01*
X1594001Y61644740D01*
X1553143Y61701619D01*
X1520156Y61768157D01*
X1495266Y61844148D01*
X1482889Y61902220D01*
X1479214Y61931729D01*
X1476453Y61969895D01*
X1474692Y62012838D01*
X1474015Y62056674D01*
X1474508Y62097521D01*
X1476256Y62131498D01*
X1477573Y62144275D01*
X1490903Y62219629D01*
X1511225Y62298507D01*
X1536952Y62375517D01*
X1565609Y62443412D01*
X1578170Y62467972D01*
X1594062Y62496459D01*
X1611844Y62526576D01*
X1630074Y62556024D01*
X1647311Y62582504D01*
X1662113Y62603718D01*
X1673038Y62617367D01*
X1676883Y62620823D01*
X1683343Y62618417D01*
X1698576Y62610147D01*
X1720763Y62597162D01*
X1748088Y62580612D01*
X1778733Y62561646D01*
X1810883Y62541412D01*
X1842719Y62521059D01*
X1872426Y62501738D01*
X1898186Y62484596D01*
X1918183Y62470782D01*
X1930599Y62461446D01*
X1933689Y62458416D01*
X1931701Y62451426D01*
X1924027Y62436100D01*
X1911909Y62414746D01*
X1897615Y62391306D01*
X1855208Y62316316D01*
X1820609Y62239446D01*
X1795553Y62164548D01*
X1795506Y62164374D01*
X1788847Y62136366D01*
X1784553Y62108555D01*
X1782194Y62076871D01*
X1781340Y62037242D01*
X1781315Y62029975D01*
X1781471Y61995054D01*
X1782323Y61970010D01*
X1784241Y61952022D01*
X1787595Y61938272D01*
X1792755Y61925940D01*
X1795719Y61920189D01*
X1816975Y61891871D01*
X1844323Y61874285D01*
X1876748Y61868078D01*
X1877526Y61868074D01*
X1900308Y61871467D01*
X1920698Y61882351D01*
X1939426Y61901722D01*
X1957218Y61930576D01*
X1974801Y61969906D01*
X1992904Y62020708D01*
X1995899Y62029975D01*
X2015395Y62090884D01*
X2031548Y62141054D01*
X2044831Y62181861D01*
X2055716Y62214679D01*
X2064674Y62240882D01*
X2072179Y62261847D01*
X2078701Y62278948D01*
X2084714Y62293560D01*
X2090689Y62307058D01*
X2092108Y62310150D01*
X2129896Y62379278D01*
X2174548Y62437730D01*
X2202978Y62466186D01*
X2247805Y62501406D01*
X2294668Y62526906D01*
X2345940Y62543523D01*
X2403993Y62552095D01*
X2450847Y62553757D01*
X2513485Y62550686D01*
X2568044Y62541219D01*
X2617781Y62524688D01*
X2638362Y62515308D01*
X2698989Y62478665D01*
X2751491Y62432886D01*
X2795682Y62378749D01*
X2831374Y62317032D01*
X2858380Y62248514D01*
X2876513Y62173973D01*
X2885585Y62094186D01*
X2885408Y62009933D01*
X2885408Y62009933D01*
G37*
X2885408Y62009933D02*
X2875797Y61921992D01*
X2856562Y61831141D01*
X2827518Y61738158D01*
X2826257Y61734700D01*
X2815566Y61707975D01*
X2801935Y61677479D01*
X2786599Y61645587D01*
X2770791Y61614677D01*
X2755743Y61587121D01*
X2742689Y61565296D01*
X2732863Y61551577D01*
X2729596Y61548531D01*
X2721729Y61549095D01*
X2704955Y61555435D01*
X2678812Y61567770D01*
X2642841Y61586319D01*
X2596580Y61611300D01*
X2590713Y61614522D01*
X2553803Y61634846D01*
X2520734Y61653106D01*
X2493088Y61668424D01*
X2472452Y61679920D01*
X2460409Y61686715D01*
X2457963Y61688172D01*
X2459633Y61694311D01*
X2465994Y61709845D01*
X2476162Y61732757D01*
X2489255Y61761032D01*
X2497116Y61777580D01*
X2513544Y61812949D01*
X2529410Y61849010D01*
X2543142Y61882070D01*
X2553173Y61908435D01*
X2554997Y61913786D01*
X2570633Y61970720D01*
X2579213Y62023651D01*
X2580969Y62071526D01*
X2576135Y62113292D01*
X2564944Y62147893D01*
X2547630Y62174278D01*
X2524425Y62191391D01*
X2495564Y62198179D01*
X2492006Y62198250D01*
X2466533Y62194588D01*
X2445974Y62182431D01*
X2428567Y62162641D01*
X2409400Y62131019D01*
X2388397Y62087403D01*
X2365479Y62031627D01*
X2340571Y61963529D01*
X2333919Y61944250D01*
X2306548Y61867590D01*
X2280531Y61802226D01*
X2255280Y61746907D01*
X2230207Y61700379D01*
X2204723Y61661389D01*
X2195159Y61648732D01*
X2151039Y61599916D01*
X2103936Y61562639D01*
X2052339Y61536182D01*
X1994738Y61519830D01*
X1929622Y61512862D01*
X1908429Y61512495D01*
X1831611Y61517968D01*
X1761534Y61534135D01*
X1698422Y61560792D01*
X1642502Y61597729D01*
X1594001Y61644740D01*
X1553143Y61701619D01*
X1520156Y61768157D01*
X1495266Y61844148D01*
X1482889Y61902220D01*
X1479214Y61931729D01*
X1476453Y61969895D01*
X1474692Y62012838D01*
X1474015Y62056674D01*
X1474508Y62097521D01*
X1476256Y62131498D01*
X1477573Y62144275D01*
X1490903Y62219629D01*
X1511225Y62298507D01*
X1536952Y62375517D01*
X1565609Y62443412D01*
X1578170Y62467972D01*
X1594062Y62496459D01*
X1611844Y62526576D01*
X1630074Y62556024D01*
X1647311Y62582504D01*
X1662113Y62603718D01*
X1673038Y62617367D01*
X1676883Y62620823D01*
X1683343Y62618417D01*
X1698576Y62610147D01*
X1720763Y62597162D01*
X1748088Y62580612D01*
X1778733Y62561646D01*
X1810883Y62541412D01*
X1842719Y62521059D01*
X1872426Y62501738D01*
X1898186Y62484596D01*
X1918183Y62470782D01*
X1930599Y62461446D01*
X1933689Y62458416D01*
X1931701Y62451426D01*
X1924027Y62436100D01*
X1911909Y62414746D01*
X1897615Y62391306D01*
X1855208Y62316316D01*
X1820609Y62239446D01*
X1795553Y62164548D01*
X1795506Y62164374D01*
X1788847Y62136366D01*
X1784553Y62108555D01*
X1782194Y62076871D01*
X1781340Y62037242D01*
X1781315Y62029975D01*
X1781471Y61995054D01*
X1782323Y61970010D01*
X1784241Y61952022D01*
X1787595Y61938272D01*
X1792755Y61925940D01*
X1795719Y61920189D01*
X1816975Y61891871D01*
X1844323Y61874285D01*
X1876748Y61868078D01*
X1877526Y61868074D01*
X1900308Y61871467D01*
X1920698Y61882351D01*
X1939426Y61901722D01*
X1957218Y61930576D01*
X1974801Y61969906D01*
X1992904Y62020708D01*
X1995899Y62029975D01*
X2015395Y62090884D01*
X2031548Y62141054D01*
X2044831Y62181861D01*
X2055716Y62214679D01*
X2064674Y62240882D01*
X2072179Y62261847D01*
X2078701Y62278948D01*
X2084714Y62293560D01*
X2090689Y62307058D01*
X2092108Y62310150D01*
X2129896Y62379278D01*
X2174548Y62437730D01*
X2202978Y62466186D01*
X2247805Y62501406D01*
X2294668Y62526906D01*
X2345940Y62543523D01*
X2403993Y62552095D01*
X2450847Y62553757D01*
X2513485Y62550686D01*
X2568044Y62541219D01*
X2617781Y62524688D01*
X2638362Y62515308D01*
X2698989Y62478665D01*
X2751491Y62432886D01*
X2795682Y62378749D01*
X2831374Y62317032D01*
X2858380Y62248514D01*
X2876513Y62173973D01*
X2885585Y62094186D01*
X2885408Y62009933D01*
G36*
X2827338Y57500932D02*
X2816585Y57505091D01*
X2794816Y57513556D01*
X2762843Y57526010D01*
X2721478Y57542137D01*
X2671534Y57561618D01*
X2613822Y57584138D01*
X2549155Y57609379D01*
X2478346Y57637024D01*
X2402206Y57666756D01*
X2321548Y57698258D01*
X2237184Y57731213D01*
X2149927Y57765304D01*
X2139950Y57769203D01*
X1489075Y58023524D01*
X1487389Y58202874D01*
X1486942Y58255437D01*
X1486754Y58296703D01*
X1486898Y58328072D01*
X1487446Y58350945D01*
X1488471Y58366725D01*
X1490046Y58376811D01*
X1492243Y58382604D01*
X1495136Y58385507D01*
X1496914Y58386330D01*
X1504199Y58389139D01*
X1522553Y58396272D01*
X1551219Y58407433D01*
X1589436Y58422325D01*
X1636444Y58440653D01*
X1691485Y58462120D01*
X1753798Y58486429D01*
X1822624Y58513285D01*
X1897205Y58542391D01*
X1976779Y58573451D01*
X2060587Y58606169D01*
X2147871Y58640248D01*
X2180192Y58652868D01*
X2268414Y58687298D01*
X2353356Y58720409D01*
X2434265Y58751909D01*
X2510391Y58781509D01*
X2580981Y58808918D01*
X2645285Y58833843D01*
X2702552Y58855996D01*
X2752030Y58875084D01*
X2792967Y58890817D01*
X2824613Y58902905D01*
X2846216Y58911055D01*
X2857025Y58914979D01*
X2858141Y58915300D01*
X2859684Y58909123D01*
X2860926Y58891271D01*
X2861846Y58862770D01*
X2862422Y58824643D01*
X2862635Y58777914D01*
X2862464Y58723605D01*
X2862350Y58707865D01*
X2860675Y58500430D01*
X2413685Y58351435D01*
X2332549Y58324290D01*
X2258053Y58299166D01*
X2190836Y58276286D01*
X2131539Y58255876D01*
X2080800Y58238159D01*
X2039259Y58223360D01*
X2007555Y58211703D01*
X1986328Y58203412D01*
X1976216Y58198712D01*
X1975535Y58197774D01*
X1982867Y58195034D01*
X2001271Y58188586D01*
X2029780Y58178761D01*
X2067424Y58165886D01*
X2113235Y58150292D01*
X2166245Y58132307D01*
X2225484Y58112261D01*
X2289984Y58090483D01*
X2358777Y58067302D01*
X2424113Y58045325D01*
X2863850Y57897542D01*
X2863850Y57486983D01*
X2827338Y57500932D01*
X2827338Y57500932D01*
G37*
X2827338Y57500932D02*
X2816585Y57505091D01*
X2794816Y57513556D01*
X2762843Y57526010D01*
X2721478Y57542137D01*
X2671534Y57561618D01*
X2613822Y57584138D01*
X2549155Y57609379D01*
X2478346Y57637024D01*
X2402206Y57666756D01*
X2321548Y57698258D01*
X2237184Y57731213D01*
X2149927Y57765304D01*
X2139950Y57769203D01*
X1489075Y58023524D01*
X1487389Y58202874D01*
X1486942Y58255437D01*
X1486754Y58296703D01*
X1486898Y58328072D01*
X1487446Y58350945D01*
X1488471Y58366725D01*
X1490046Y58376811D01*
X1492243Y58382604D01*
X1495136Y58385507D01*
X1496914Y58386330D01*
X1504199Y58389139D01*
X1522553Y58396272D01*
X1551219Y58407433D01*
X1589436Y58422325D01*
X1636444Y58440653D01*
X1691485Y58462120D01*
X1753798Y58486429D01*
X1822624Y58513285D01*
X1897205Y58542391D01*
X1976779Y58573451D01*
X2060587Y58606169D01*
X2147871Y58640248D01*
X2180192Y58652868D01*
X2268414Y58687298D01*
X2353356Y58720409D01*
X2434265Y58751909D01*
X2510391Y58781509D01*
X2580981Y58808918D01*
X2645285Y58833843D01*
X2702552Y58855996D01*
X2752030Y58875084D01*
X2792967Y58890817D01*
X2824613Y58902905D01*
X2846216Y58911055D01*
X2857025Y58914979D01*
X2858141Y58915300D01*
X2859684Y58909123D01*
X2860926Y58891271D01*
X2861846Y58862770D01*
X2862422Y58824643D01*
X2862635Y58777914D01*
X2862464Y58723605D01*
X2862350Y58707865D01*
X2860675Y58500430D01*
X2413685Y58351435D01*
X2332549Y58324290D01*
X2258053Y58299166D01*
X2190836Y58276286D01*
X2131539Y58255876D01*
X2080800Y58238159D01*
X2039259Y58223360D01*
X2007555Y58211703D01*
X1986328Y58203412D01*
X1976216Y58198712D01*
X1975535Y58197774D01*
X1982867Y58195034D01*
X2001271Y58188586D01*
X2029780Y58178761D01*
X2067424Y58165886D01*
X2113235Y58150292D01*
X2166245Y58132307D01*
X2225484Y58112261D01*
X2289984Y58090483D01*
X2358777Y58067302D01*
X2424113Y58045325D01*
X2863850Y57897542D01*
X2863850Y57486983D01*
X2827338Y57500932D01*
G36*
X2885890Y63207714D02*
X2885157Y63176197D01*
X2883614Y63151870D01*
X2880998Y63131983D01*
X2877046Y63113781D01*
X2871495Y63094511D01*
X2871211Y63093600D01*
X2849906Y63036567D01*
X2823484Y62987947D01*
X2789602Y62943758D01*
X2771775Y62924744D01*
X2716422Y62877664D01*
X2652887Y62840195D01*
X2581437Y62812468D01*
X2507058Y62795367D01*
X2492516Y62794073D01*
X2465843Y62792902D01*
X2427606Y62791859D01*
X2378376Y62790953D01*
X2318719Y62790190D01*
X2249204Y62789578D01*
X2170401Y62789124D01*
X2082876Y62788835D01*
X1987198Y62788719D01*
X1984375Y62788718D01*
X1501775Y62788608D01*
X1500098Y62985554D01*
X1498420Y63182500D01*
X1913101Y63182500D01*
X1999674Y63182519D01*
X2074541Y63182615D01*
X2138697Y63182852D01*
X2193136Y63183289D01*
X2238852Y63183989D01*
X2276839Y63185013D01*
X2308093Y63186424D01*
X2333606Y63188282D01*
X2354374Y63190650D01*
X2371390Y63193588D01*
X2385649Y63197159D01*
X2398146Y63201424D01*
X2409874Y63206445D01*
X2421827Y63212282D01*
X2425726Y63214263D01*
X2461797Y63239207D01*
X2492955Y63273678D01*
X2513835Y63308951D01*
X2521583Y63326989D01*
X2526496Y63343661D01*
X2529197Y63362783D01*
X2530305Y63388169D01*
X2530465Y63411100D01*
X2530086Y63442999D01*
X2528535Y63466017D01*
X2525197Y63483959D01*
X2519454Y63500632D01*
X2513953Y63512990D01*
X2488829Y63556037D01*
X2458063Y63588898D01*
X2427250Y63609669D01*
X2414238Y63616653D01*
X2402041Y63622681D01*
X2389659Y63627822D01*
X2376090Y63632148D01*
X2360332Y63635729D01*
X2341386Y63638636D01*
X2318250Y63640938D01*
X2289923Y63642706D01*
X2255404Y63644011D01*
X2213691Y63644923D01*
X2163785Y63645512D01*
X2104683Y63645849D01*
X2035386Y63646004D01*
X1954891Y63646048D01*
X1910016Y63646050D01*
X1498600Y63646050D01*
X1498600Y64039750D01*
X2863850Y64039750D01*
X2863850Y63646050D01*
X2776538Y63646062D01*
X2689225Y63646073D01*
X2749550Y63583896D01*
X2786788Y63543586D01*
X2815697Y63507331D01*
X2838387Y63471949D01*
X2856968Y63434260D01*
X2869062Y63403700D01*
X2875353Y63385706D01*
X2879871Y63369788D01*
X2882907Y63353299D01*
X2884753Y63333590D01*
X2885701Y63308015D01*
X2886041Y63273926D01*
X2886075Y63249175D01*
X2885890Y63207714D01*
X2885890Y63207714D01*
G37*
X2885890Y63207714D02*
X2885157Y63176197D01*
X2883614Y63151870D01*
X2880998Y63131983D01*
X2877046Y63113781D01*
X2871495Y63094511D01*
X2871211Y63093600D01*
X2849906Y63036567D01*
X2823484Y62987947D01*
X2789602Y62943758D01*
X2771775Y62924744D01*
X2716422Y62877664D01*
X2652887Y62840195D01*
X2581437Y62812468D01*
X2507058Y62795367D01*
X2492516Y62794073D01*
X2465843Y62792902D01*
X2427606Y62791859D01*
X2378376Y62790953D01*
X2318719Y62790190D01*
X2249204Y62789578D01*
X2170401Y62789124D01*
X2082876Y62788835D01*
X1987198Y62788719D01*
X1984375Y62788718D01*
X1501775Y62788608D01*
X1500098Y62985554D01*
X1498420Y63182500D01*
X1913101Y63182500D01*
X1999674Y63182519D01*
X2074541Y63182615D01*
X2138697Y63182852D01*
X2193136Y63183289D01*
X2238852Y63183989D01*
X2276839Y63185013D01*
X2308093Y63186424D01*
X2333606Y63188282D01*
X2354374Y63190650D01*
X2371390Y63193588D01*
X2385649Y63197159D01*
X2398146Y63201424D01*
X2409874Y63206445D01*
X2421827Y63212282D01*
X2425726Y63214263D01*
X2461797Y63239207D01*
X2492955Y63273678D01*
X2513835Y63308951D01*
X2521583Y63326989D01*
X2526496Y63343661D01*
X2529197Y63362783D01*
X2530305Y63388169D01*
X2530465Y63411100D01*
X2530086Y63442999D01*
X2528535Y63466017D01*
X2525197Y63483959D01*
X2519454Y63500632D01*
X2513953Y63512990D01*
X2488829Y63556037D01*
X2458063Y63588898D01*
X2427250Y63609669D01*
X2414238Y63616653D01*
X2402041Y63622681D01*
X2389659Y63627822D01*
X2376090Y63632148D01*
X2360332Y63635729D01*
X2341386Y63638636D01*
X2318250Y63640938D01*
X2289923Y63642706D01*
X2255404Y63644011D01*
X2213691Y63644923D01*
X2163785Y63645512D01*
X2104683Y63645849D01*
X2035386Y63646004D01*
X1954891Y63646048D01*
X1910016Y63646050D01*
X1498600Y63646050D01*
X1498600Y64039750D01*
X2863850Y64039750D01*
X2863850Y63646050D01*
X2776538Y63646062D01*
X2689225Y63646073D01*
X2749550Y63583896D01*
X2786788Y63543586D01*
X2815697Y63507331D01*
X2838387Y63471949D01*
X2856968Y63434260D01*
X2869062Y63403700D01*
X2875353Y63385706D01*
X2879871Y63369788D01*
X2882907Y63353299D01*
X2884753Y63333590D01*
X2885701Y63308015D01*
X2886041Y63273926D01*
X2886075Y63249175D01*
X2885890Y63207714D01*
G36*
X2891897Y59032929D02*
X2887874Y59016900D01*
X2484597Y59016900D01*
X2480248Y59070502D01*
X2469089Y59146524D01*
X2448585Y59213962D01*
X2418637Y59272937D01*
X2379147Y59323571D01*
X2330014Y59365988D01*
X2271139Y59400309D01*
X2202423Y59426657D01*
X2187575Y59430957D01*
X2175627Y59434123D01*
X2163915Y59436785D01*
X2151233Y59438996D01*
X2136371Y59440810D01*
X2118120Y59442279D01*
X2095273Y59443456D01*
X2066620Y59444395D01*
X2030952Y59445148D01*
X1987062Y59445768D01*
X1933741Y59446310D01*
X1869780Y59446825D01*
X1817688Y59447201D01*
X1498600Y59449448D01*
X1498600Y59842400D01*
X2863850Y59842400D01*
X2863850Y59448700D01*
X2738438Y59448556D01*
X2613025Y59448412D01*
X2652010Y59427397D01*
X2712019Y59390222D01*
X2764993Y59347661D01*
X2809607Y59301146D01*
X2844535Y59252110D01*
X2868452Y59201984D01*
X2872691Y59188990D01*
X2879189Y59162606D01*
X2884914Y59131602D01*
X2889435Y59099483D01*
X2892322Y59069754D01*
X2893142Y59045920D01*
X2891897Y59032929D01*
X2891897Y59032929D01*
G37*
X2891897Y59032929D02*
X2887874Y59016900D01*
X2484597Y59016900D01*
X2480248Y59070502D01*
X2469089Y59146524D01*
X2448585Y59213962D01*
X2418637Y59272937D01*
X2379147Y59323571D01*
X2330014Y59365988D01*
X2271139Y59400309D01*
X2202423Y59426657D01*
X2187575Y59430957D01*
X2175627Y59434123D01*
X2163915Y59436785D01*
X2151233Y59438996D01*
X2136371Y59440810D01*
X2118120Y59442279D01*
X2095273Y59443456D01*
X2066620Y59444395D01*
X2030952Y59445148D01*
X1987062Y59445768D01*
X1933741Y59446310D01*
X1869780Y59446825D01*
X1817688Y59447201D01*
X1498600Y59449448D01*
X1498600Y59842400D01*
X2863850Y59842400D01*
X2863850Y59448700D01*
X2738438Y59448556D01*
X2613025Y59448412D01*
X2652010Y59427397D01*
X2712019Y59390222D01*
X2764993Y59347661D01*
X2809607Y59301146D01*
X2844535Y59252110D01*
X2868452Y59201984D01*
X2872691Y59188990D01*
X2879189Y59162606D01*
X2884914Y59131602D01*
X2889435Y59099483D01*
X2892322Y59069754D01*
X2893142Y59045920D01*
X2891897Y59032929D01*
G36*
X2182813Y56951504D02*
X1501775Y56953032D01*
X1500098Y57149941D01*
X1498420Y57346850D01*
X2863850Y57346850D01*
X2863851Y57148413D01*
X2863851Y56949975D01*
X2182813Y56951504D01*
X2182813Y56951504D01*
G37*
X2182813Y56951504D02*
X1501775Y56953032D01*
X1500098Y57149941D01*
X1498420Y57346850D01*
X2863850Y57346850D01*
X2863851Y57148413D01*
X2863851Y56949975D01*
X2182813Y56951504D01*
G36*
X3374113Y56146700D02*
X3373692Y56097316D01*
X3372308Y56057232D01*
X3369566Y56023063D01*
X3365071Y55991422D01*
X3358427Y55958922D01*
X3349240Y55922178D01*
X3346878Y55913338D01*
X3339611Y55886350D01*
X3174076Y55886350D01*
X3123971Y55886397D01*
X3085183Y55886600D01*
X3056332Y55887054D01*
X3036035Y55887856D01*
X3022910Y55889100D01*
X3015576Y55890882D01*
X3012651Y55893297D01*
X3012752Y55896442D01*
X3013133Y55897463D01*
X3024106Y55930656D01*
X3033409Y55971180D01*
X3040017Y56013680D01*
X3042892Y56052409D01*
X3040442Y56098791D01*
X3030462Y56135463D01*
X3012160Y56163270D01*
X2984748Y56183057D01*
X2947434Y56195669D01*
X2903291Y56201692D01*
X2851376Y56205430D01*
X2849676Y56048827D01*
X2847975Y55892224D01*
X2530475Y55892224D01*
X2527075Y56197500D01*
X1498600Y56197500D01*
X1498600Y56591200D01*
X2527300Y56591200D01*
X2527300Y56749950D01*
X2851150Y56749950D01*
X2851150Y56592926D01*
X2944813Y56589630D01*
X2985777Y56587482D01*
X3025627Y56584129D01*
X3060480Y56579962D01*
X3086100Y56575450D01*
X3153935Y56554469D01*
X3212786Y56524521D01*
X3262775Y56485493D01*
X3304022Y56437267D01*
X3336649Y56379729D01*
X3360776Y56312762D01*
X3360790Y56312712D01*
X3365778Y56293031D01*
X3369381Y56273675D01*
X3371808Y56252050D01*
X3373267Y56225562D01*
X3373966Y56191615D01*
X3374114Y56147615D01*
X3374113Y56146700D01*
X3374113Y56146700D01*
G37*
X3374113Y56146700D02*
X3373692Y56097316D01*
X3372308Y56057232D01*
X3369566Y56023063D01*
X3365071Y55991422D01*
X3358427Y55958922D01*
X3349240Y55922178D01*
X3346878Y55913338D01*
X3339611Y55886350D01*
X3174076Y55886350D01*
X3123971Y55886397D01*
X3085183Y55886600D01*
X3056332Y55887054D01*
X3036035Y55887856D01*
X3022910Y55889100D01*
X3015576Y55890882D01*
X3012651Y55893297D01*
X3012752Y55896442D01*
X3013133Y55897463D01*
X3024106Y55930656D01*
X3033409Y55971180D01*
X3040017Y56013680D01*
X3042892Y56052409D01*
X3040442Y56098791D01*
X3030462Y56135463D01*
X3012160Y56163270D01*
X2984748Y56183057D01*
X2947434Y56195669D01*
X2903291Y56201692D01*
X2851376Y56205430D01*
X2849676Y56048827D01*
X2847975Y55892224D01*
X2530475Y55892224D01*
X2527075Y56197500D01*
X1498600Y56197500D01*
X1498600Y56591200D01*
X2527300Y56591200D01*
X2527300Y56749950D01*
X2851150Y56749950D01*
X2851150Y56592926D01*
X2944813Y56589630D01*
X2985777Y56587482D01*
X3025627Y56584129D01*
X3060480Y56579962D01*
X3086100Y56575450D01*
X3153935Y56554469D01*
X3212786Y56524521D01*
X3262775Y56485493D01*
X3304022Y56437267D01*
X3336649Y56379729D01*
X3360776Y56312762D01*
X3360790Y56312712D01*
X3365778Y56293031D01*
X3369381Y56273675D01*
X3371808Y56252050D01*
X3373267Y56225562D01*
X3373966Y56191615D01*
X3374114Y56147615D01*
X3374113Y56146700D01*
G36*
X3009900Y56940450D02*
X3009900Y57353200D01*
X3359150Y57353200D01*
X3359150Y56940450D01*
X3009900Y56940450D01*
X3009900Y56940450D01*
G37*
X3009900Y56940450D02*
X3009900Y57353200D01*
X3359150Y57353200D01*
X3359150Y56940450D01*
X3009900Y56940450D01*
G36*
X4084740Y69874771D02*
X4069866Y69805673D01*
X4042990Y69734910D01*
X4034750Y69717509D01*
X4018593Y69686636D01*
X4002462Y69661324D01*
X3983233Y69637297D01*
X3957783Y69610280D01*
X3952635Y69605104D01*
X3926087Y69579473D01*
X3903462Y69560426D01*
X3880444Y69544887D01*
X3852713Y69529776D01*
X3834211Y69520688D01*
X3790791Y69500945D01*
X3753830Y69487241D01*
X3719192Y69478611D01*
X3682743Y69474087D01*
X3640348Y69472704D01*
X3629025Y69472731D01*
X3607672Y69473114D01*
X3587678Y69474203D01*
X3568098Y69476392D01*
X3547985Y69480072D01*
X3526395Y69485634D01*
X3502381Y69493469D01*
X3474996Y69503970D01*
X3443296Y69517527D01*
X3406334Y69534534D01*
X3363163Y69555380D01*
X3312839Y69580458D01*
X3254414Y69610159D01*
X3186944Y69644875D01*
X3109481Y69684997D01*
X3082925Y69698784D01*
X3020351Y69731342D01*
X2960937Y69762372D01*
X2905676Y69791348D01*
X2855557Y69817747D01*
X2811573Y69841041D01*
X2774715Y69860706D01*
X2745974Y69876216D01*
X2726341Y69887047D01*
X2716807Y69892673D01*
X2716213Y69893116D01*
X2707325Y69908110D01*
X2705736Y69927229D01*
X2711691Y69944136D01*
X2714121Y69947013D01*
X2722690Y69952931D01*
X2741391Y69964041D01*
X2769059Y69979729D01*
X2804530Y69999381D01*
X2846642Y70022384D01*
X2894230Y70048122D01*
X2946132Y70075982D01*
X3001182Y70105349D01*
X3058218Y70135609D01*
X3116076Y70166148D01*
X3173592Y70196351D01*
X3229603Y70225605D01*
X3282945Y70253295D01*
X3332455Y70278807D01*
X3376968Y70301527D01*
X3415321Y70320839D01*
X3446351Y70336131D01*
X3468894Y70346788D01*
X3481597Y70352132D01*
X3557997Y70372226D01*
X3633565Y70380116D01*
X3645358Y70379440D01*
X3645358Y70242678D01*
X3586076Y70239602D01*
X3530059Y70225940D01*
X3478333Y70202719D01*
X3431924Y70170967D01*
X3391859Y70131713D01*
X3359165Y70085983D01*
X3334868Y70034806D01*
X3319994Y69979210D01*
X3315570Y69920222D01*
X3322623Y69858871D01*
X3324357Y69851112D01*
X3344685Y69790667D01*
X3374981Y69737660D01*
X3414414Y69692849D01*
X3462150Y69656990D01*
X3517360Y69630837D01*
X3579211Y69615148D01*
X3584823Y69614311D01*
X3646154Y69611516D01*
X3704657Y69620025D01*
X3759283Y69638744D01*
X3808985Y69666578D01*
X3852714Y69702433D01*
X3889422Y69745213D01*
X3918060Y69793825D01*
X3937580Y69847172D01*
X3946934Y69904161D01*
X3945072Y69963696D01*
X3941255Y69986525D01*
X3922523Y70049936D01*
X3894252Y70105312D01*
X3856903Y70152166D01*
X3810936Y70190013D01*
X3756810Y70218366D01*
X3706878Y70234140D01*
X3645358Y70242678D01*
X3645358Y70379440D01*
X3707468Y70375874D01*
X3778871Y70359568D01*
X3846941Y70331271D01*
X3868162Y70319529D01*
X3928133Y70277137D01*
X3979707Y70226017D01*
X4021802Y70167482D01*
X4053334Y70102845D01*
X4058425Y70088873D01*
X4078912Y70014691D01*
X4087720Y69943883D01*
X4084740Y69874771D01*
X4084740Y69874771D01*
G37*
X4084740Y69874771D02*
X4069866Y69805673D01*
X4042990Y69734910D01*
X4034750Y69717509D01*
X4018593Y69686636D01*
X4002462Y69661324D01*
X3983233Y69637297D01*
X3957783Y69610280D01*
X3952635Y69605104D01*
X3926087Y69579473D01*
X3903462Y69560426D01*
X3880444Y69544887D01*
X3852713Y69529776D01*
X3834211Y69520688D01*
X3790791Y69500945D01*
X3753830Y69487241D01*
X3719192Y69478611D01*
X3682743Y69474087D01*
X3640348Y69472704D01*
X3629025Y69472731D01*
X3607672Y69473114D01*
X3587678Y69474203D01*
X3568098Y69476392D01*
X3547985Y69480072D01*
X3526395Y69485634D01*
X3502381Y69493469D01*
X3474996Y69503970D01*
X3443296Y69517527D01*
X3406334Y69534534D01*
X3363163Y69555380D01*
X3312839Y69580458D01*
X3254414Y69610159D01*
X3186944Y69644875D01*
X3109481Y69684997D01*
X3082925Y69698784D01*
X3020351Y69731342D01*
X2960937Y69762372D01*
X2905676Y69791348D01*
X2855557Y69817747D01*
X2811573Y69841041D01*
X2774715Y69860706D01*
X2745974Y69876216D01*
X2726341Y69887047D01*
X2716807Y69892673D01*
X2716213Y69893116D01*
X2707325Y69908110D01*
X2705736Y69927229D01*
X2711691Y69944136D01*
X2714121Y69947013D01*
X2722690Y69952931D01*
X2741391Y69964041D01*
X2769059Y69979729D01*
X2804530Y69999381D01*
X2846642Y70022384D01*
X2894230Y70048122D01*
X2946132Y70075982D01*
X3001182Y70105349D01*
X3058218Y70135609D01*
X3116076Y70166148D01*
X3173592Y70196351D01*
X3229603Y70225605D01*
X3282945Y70253295D01*
X3332455Y70278807D01*
X3376968Y70301527D01*
X3415321Y70320839D01*
X3446351Y70336131D01*
X3468894Y70346788D01*
X3481597Y70352132D01*
X3557997Y70372226D01*
X3633565Y70380116D01*
X3645358Y70379440D01*
X3645358Y70242678D01*
X3586076Y70239602D01*
X3530059Y70225940D01*
X3478333Y70202719D01*
X3431924Y70170967D01*
X3391859Y70131713D01*
X3359165Y70085983D01*
X3334868Y70034806D01*
X3319994Y69979210D01*
X3315570Y69920222D01*
X3322623Y69858871D01*
X3324357Y69851112D01*
X3344685Y69790667D01*
X3374981Y69737660D01*
X3414414Y69692849D01*
X3462150Y69656990D01*
X3517360Y69630837D01*
X3579211Y69615148D01*
X3584823Y69614311D01*
X3646154Y69611516D01*
X3704657Y69620025D01*
X3759283Y69638744D01*
X3808985Y69666578D01*
X3852714Y69702433D01*
X3889422Y69745213D01*
X3918060Y69793825D01*
X3937580Y69847172D01*
X3946934Y69904161D01*
X3945072Y69963696D01*
X3941255Y69986525D01*
X3922523Y70049936D01*
X3894252Y70105312D01*
X3856903Y70152166D01*
X3810936Y70190013D01*
X3756810Y70218366D01*
X3706878Y70234140D01*
X3645358Y70242678D01*
X3645358Y70379440D01*
X3707468Y70375874D01*
X3778871Y70359568D01*
X3846941Y70331271D01*
X3868162Y70319529D01*
X3928133Y70277137D01*
X3979707Y70226017D01*
X4021802Y70167482D01*
X4053334Y70102845D01*
X4058425Y70088873D01*
X4078912Y70014691D01*
X4087720Y69943883D01*
X4084740Y69874771D01*
D14*
X14177111Y-8816700D02*
G75*
G03X14177111Y-8816700I-70711J0D01*
G01*
X13756400Y-7366700D02*
X13756400Y-6916700D01*
X12456400Y-7766700D02*
X12456400Y-6866700D01*
X12456400Y-5866700D02*
X13756400Y-5866700D01*
X12456400Y-8766700D02*
X13756400Y-8766700D01*
X1892100Y-4862300D02*
X7892100Y-4862300D01*
X1892100Y-4862300D02*
X1892100Y137700D01*
X1892100Y137700D02*
X7892100Y137700D01*
X7892100Y137700D02*
X7892100Y-4862300D01*
X7812400Y-7956500D02*
X7812400Y-7156500D01*
X6462400Y-7956500D02*
X6462400Y-7156500D01*
D12*
X11405711Y-9928400D02*
G75*
G03X11405711Y-9928400I-70711J0D01*
G01*
D14*
X16881000Y-12536400D02*
X16881000Y-10986400D01*
X16881000Y-10986400D02*
X16331000Y-10986400D01*
X9281000Y-12536400D02*
X9281000Y-10986400D01*
X9281000Y-10986400D02*
X9831000Y-10986400D01*
X16881000Y-14736400D02*
X16881000Y-15836400D01*
X9281000Y-15836400D02*
X9281000Y-14736400D01*
X9281000Y-15836400D02*
X16881000Y-15836400D01*
X3403400Y20991600D02*
X203400Y20991600D01*
X203400Y20991600D02*
X203400Y22391600D01*
X203400Y22391600D02*
X3403400Y22391600D01*
X3403400Y22391600D02*
X3403400Y20991600D01*
X3403400Y20991600D02*
X3603400Y20991600D01*
X3603400Y20991600D02*
X3603400Y22391600D01*
X3603400Y22391600D02*
X3403400Y22391600D01*
X3407116Y16407068D02*
X3407116Y17807068D01*
X2507116Y17807068D02*
X3407116Y17807068D01*
X407116Y17807068D02*
X1407116Y17807068D01*
X407116Y16407068D02*
X407116Y17807068D01*
X1507116Y16407068D02*
X2307116Y16407068D01*
D12*
X7022711Y39012500D02*
G75*
G03X7022711Y39012500I-70711J0D01*
G01*
D14*
X8152000Y38962500D02*
X8152000Y34062500D01*
X8152000Y34062500D02*
X11152000Y34062500D01*
X11152000Y34062500D02*
X11152000Y38962500D01*
X11152000Y38962500D02*
X8152000Y38962500D01*
X10754628Y69753532D02*
X9204628Y69753532D01*
X9204628Y70603532D02*
X9204628Y67903532D01*
X10754628Y70603532D02*
X10754628Y67903532D01*
X9204628Y63521132D02*
X10754628Y63521132D01*
X10754628Y62671132D02*
X10754628Y65371132D01*
X9204628Y62671132D02*
X9204628Y65371132D01*
X6720428Y84480532D02*
X6720428Y86030532D01*
X7570428Y86030532D02*
X4870428Y86030532D01*
X7570428Y84480532D02*
X4870428Y84480532D01*
X11089228Y88138132D02*
X11089228Y89688132D01*
X11939228Y89688132D02*
X9239228Y89688132D01*
X11939228Y88138132D02*
X9239228Y88138132D01*
X5720228Y81306132D02*
X5720228Y79756132D01*
X4870228Y79756132D02*
X7570228Y79756132D01*
X4870228Y81306132D02*
X7570228Y81306132D01*
X6720428Y82194532D02*
X6720428Y83744532D01*
X7570428Y83744532D02*
X4870428Y83744532D01*
X7570428Y82194532D02*
X4870428Y82194532D01*
X26647628Y73321532D02*
X13647628Y73321532D01*
X13647628Y73321532D02*
X13647628Y61121532D01*
X13647628Y61121532D02*
X26647628Y61121532D01*
X26647628Y73321532D02*
X26647628Y61121532D01*
X26661628Y88821532D02*
X13661628Y88821532D01*
X13661628Y88821532D02*
X13661628Y76621532D01*
X13661628Y76621532D02*
X26661628Y76621532D01*
X26661628Y88821532D02*
X26661628Y76621532D01*
D15*
X26958600Y-8529800D02*
X26958600Y14390200D01*
X26958600Y14390200D02*
X24298600Y14390200D01*
X24298600Y14390200D02*
X24298600Y-8529800D01*
X24298600Y-8529800D02*
X26958600Y-8529800D01*
X26958600Y-9799800D02*
X26958600Y-11129800D01*
X26958600Y-11129800D02*
X25628600Y-11129800D01*
D14*
X15139146Y32106996D02*
X14149196Y33096946D01*
X12876404Y29844254D02*
X11886454Y30834204D01*
X15139146Y32106996D02*
X12876404Y29844254D01*
X11886454Y30834204D02*
X14149196Y33096946D01*
X16332946Y30887796D02*
X15342996Y31877746D01*
X14070204Y28625054D02*
X13080254Y29615004D01*
X16332946Y30887796D02*
X14070204Y28625054D01*
X13080254Y29615004D02*
X15342996Y31877746D01*
X15340100Y26454300D02*
X16740100Y26454300D01*
X15340100Y29654300D02*
X16740100Y29654300D01*
X15340100Y26454300D02*
X15340100Y29654300D01*
X16740100Y29654300D02*
X16740100Y26454300D01*
X4773700Y25321500D02*
X6173700Y25321500D01*
X4773700Y28521500D02*
X6173700Y28521500D01*
X4773700Y25321500D02*
X4773700Y28521500D01*
X6173700Y28521500D02*
X6173700Y25321500D01*
X16953000Y26441600D02*
X18353000Y26441600D01*
X16953000Y29641600D02*
X18353000Y29641600D01*
X16953000Y26441600D02*
X16953000Y29641600D01*
X18353000Y29641600D02*
X18353000Y26441600D01*
X7936000Y25832000D02*
X9336000Y25832000D01*
X7936000Y29032000D02*
X9336000Y29032000D01*
X7936000Y25832000D02*
X7936000Y29032000D01*
X9336000Y29032000D02*
X9336000Y25832000D01*
X19024800Y19140400D02*
X19024800Y17740400D01*
X22224800Y19140400D02*
X22224800Y17740400D01*
X19024800Y19140400D02*
X22224800Y19140400D01*
X22224800Y17740400D02*
X19024800Y17740400D01*
X7558000Y17983000D02*
X6158000Y17983000D01*
X7558000Y14783000D02*
X6158000Y14783000D01*
X7558000Y17983000D02*
X7558000Y14783000D01*
X6158000Y14783000D02*
X6158000Y17983000D01*
X-65000Y-8839000D02*
X1335000Y-8839000D01*
X-65000Y-5639000D02*
X1335000Y-5639000D01*
X-65000Y-8839000D02*
X-65000Y-5639000D01*
X1335000Y-5639000D02*
X1335000Y-8839000D01*
X6199100Y-10502200D02*
X4799100Y-10502200D01*
X6199100Y-13702200D02*
X4799100Y-13702200D01*
X6199100Y-10502200D02*
X6199100Y-13702200D01*
X4799100Y-13702200D02*
X4799100Y-10502200D01*
X5079800Y-7151600D02*
X5079800Y-5751600D01*
X1879800Y-7151600D02*
X1879800Y-5751600D01*
X5079800Y-7151600D02*
X1879800Y-7151600D01*
X1879800Y-5751600D02*
X5079800Y-5751600D01*
X7276900Y543100D02*
X7276900Y1943100D01*
X4076900Y543100D02*
X4076900Y1943100D01*
X7276900Y543100D02*
X4076900Y543100D01*
X4076900Y1943100D02*
X7276900Y1943100D01*
X6361200Y25832000D02*
X7761200Y25832000D01*
X6361200Y29032000D02*
X7761200Y29032000D01*
X6361200Y25832000D02*
X6361200Y29032000D01*
X7761200Y29032000D02*
X7761200Y25832000D01*
X1879800Y-7398055D02*
X1879800Y-8798055D01*
X5079800Y-7398055D02*
X5079800Y-8798055D01*
X1879800Y-7398055D02*
X5079800Y-7398055D01*
X5079800Y-8798055D02*
X1879800Y-8798055D01*
X3173500Y25323100D02*
X4573500Y25323100D01*
X3173500Y28523100D02*
X4573500Y28523100D01*
X3173500Y25323100D02*
X3173500Y28523100D01*
X4573500Y28523100D02*
X4573500Y25323100D01*
X-25200Y44972200D02*
X-25200Y43572200D01*
X3174800Y44972200D02*
X3174800Y43572200D01*
X-25200Y44972200D02*
X3174800Y44972200D01*
X3174800Y43572200D02*
X-25200Y43572200D01*
X19620000Y26530500D02*
X21020000Y26530500D01*
X19620000Y29730500D02*
X21020000Y29730500D01*
X19620000Y26530500D02*
X19620000Y29730500D01*
X21020000Y29730500D02*
X21020000Y26530500D01*
X-64200Y49150500D02*
X-64200Y47750500D01*
X3135800Y49150500D02*
X3135800Y47750500D01*
X-64200Y49150500D02*
X3135800Y49150500D01*
X3135800Y47750500D02*
X-64200Y47750500D01*
X21207500Y26530500D02*
X22607500Y26530500D01*
X21207500Y29730500D02*
X22607500Y29730500D01*
X21207500Y26530500D02*
X21207500Y29730500D01*
X22607500Y29730500D02*
X22607500Y26530500D01*
X-203900Y53290700D02*
X-203900Y51890700D01*
X2996100Y53290700D02*
X2996100Y51890700D01*
X-203900Y53290700D02*
X2996100Y53290700D01*
X2996100Y51890700D02*
X-203900Y51890700D01*
X12254000Y6844000D02*
X13654000Y6844000D01*
X12254000Y10044000D02*
X13654000Y10044000D01*
X12254000Y6844000D02*
X12254000Y10044000D01*
X13654000Y10044000D02*
X13654000Y6844000D01*
X14921000Y6844000D02*
X16321000Y6844000D01*
X14921000Y10044000D02*
X16321000Y10044000D01*
X14921000Y6844000D02*
X14921000Y10044000D01*
X16321000Y10044000D02*
X16321000Y6844000D01*
X19837600Y22696400D02*
X19837600Y21296400D01*
X23037600Y22696400D02*
X23037600Y21296400D01*
X19837600Y22696400D02*
X23037600Y22696400D01*
X23037600Y21296400D02*
X19837600Y21296400D01*
X23037600Y22896600D02*
X23037600Y24296600D01*
X19837600Y22896600D02*
X19837600Y24296600D01*
X23037600Y22896600D02*
X19837600Y22896600D01*
X19837600Y24296600D02*
X23037600Y24296600D01*
X7837400Y-10504600D02*
X6437400Y-10504600D01*
X7837400Y-13704600D02*
X6437400Y-13704600D01*
X7837400Y-10504600D02*
X7837400Y-13704600D01*
X6437400Y-13704600D02*
X6437400Y-10504600D01*
X3479600Y19340600D02*
X3479600Y20740600D01*
X279600Y19340600D02*
X279600Y20740600D01*
X3479600Y19340600D02*
X279600Y19340600D01*
X279600Y20740600D02*
X3479600Y20740600D01*
X12544828Y79475532D02*
X12544828Y80875532D01*
X9344828Y79475532D02*
X9344828Y80875532D01*
X12544828Y79475532D02*
X9344828Y79475532D01*
X9344828Y80875532D02*
X12544828Y80875532D01*
X11565628Y67653532D02*
X12965628Y67653532D01*
X11565628Y70853532D02*
X12965628Y70853532D01*
X11565628Y67653532D02*
X11565628Y70853532D01*
X12965628Y70853532D02*
X12965628Y67653532D01*
X17219700Y6845500D02*
X18619700Y6845500D01*
X17219700Y10045500D02*
X18619700Y10045500D01*
X17219700Y6845500D02*
X17219700Y10045500D01*
X18619700Y10045500D02*
X18619700Y6845500D01*
X18632400Y13702200D02*
X17232400Y13702200D01*
X18632400Y10502200D02*
X17232400Y10502200D01*
X18632400Y13702200D02*
X18632400Y10502200D01*
X17232400Y10502200D02*
X17232400Y13702200D01*
X12544828Y84403132D02*
X12544828Y85803132D01*
X9344828Y84403132D02*
X9344828Y85803132D01*
X12544828Y84403132D02*
X9344828Y84403132D01*
X9344828Y85803132D02*
X12544828Y85803132D01*
X12544828Y81151932D02*
X12544828Y82551932D01*
X9344828Y81151932D02*
X9344828Y82551932D01*
X12544828Y81151932D02*
X9344828Y81151932D01*
X9344828Y82551932D02*
X12544828Y82551932D01*
X12965628Y65773532D02*
X11565628Y65773532D01*
X12965628Y62573532D02*
X11565628Y62573532D01*
X12965628Y65773532D02*
X12965628Y62573532D01*
X11565628Y62573532D02*
X11565628Y65773532D01*
X12544828Y82777532D02*
X12544828Y84177532D01*
X9344828Y82777532D02*
X9344828Y84177532D01*
X12544828Y82777532D02*
X9344828Y82777532D01*
X9344828Y84177532D02*
X12544828Y84177532D01*
X12544828Y86130332D02*
X12544828Y87530332D01*
X9344828Y86130332D02*
X9344828Y87530332D01*
X12544828Y86130332D02*
X9344828Y86130332D01*
X9344828Y87530332D02*
X12544828Y87530332D01*
D15*
X3031600Y3326200D02*
X4831600Y3326200D01*
X4831600Y3326200D02*
X4831600Y5176200D01*
X4831600Y5176200D02*
X5571600Y5176200D01*
X3031600Y13146200D02*
X4831600Y13146200D01*
X4831600Y13146200D02*
X4831600Y11296200D01*
X-288400Y3326200D02*
X-838400Y3326200D01*
X-838400Y3326200D02*
X-838400Y13146200D01*
X-838400Y13146200D02*
X-288400Y13146200D01*
X19864000Y-1134000D02*
X19864000Y666000D01*
X19864000Y666000D02*
X18014000Y666000D01*
X18014000Y666000D02*
X18014000Y1406000D01*
X11294000Y-1134000D02*
X11294000Y666000D01*
X11294000Y666000D02*
X13144000Y666000D01*
X19864000Y-4454000D02*
X19864000Y-5004000D01*
X19864000Y-5004000D02*
X11294000Y-5004000D01*
X11294000Y-5004000D02*
X11294000Y-4454000D01*
D14*
X13882600Y44119600D02*
X12482600Y44119600D01*
X13882600Y40919600D02*
X12482600Y40919600D01*
X13882600Y44119600D02*
X13882600Y40919600D01*
X12482600Y40919600D02*
X12482600Y44119600D01*
X14427400Y37225200D02*
X14427400Y35825200D01*
X17627400Y37225200D02*
X17627400Y35825200D01*
X14427400Y37225200D02*
X17627400Y37225200D01*
X17627400Y35825200D02*
X14427400Y35825200D01*
X14427400Y39054000D02*
X14427400Y37654000D01*
X17627400Y39054000D02*
X17627400Y37654000D01*
X14427400Y39054000D02*
X17627400Y39054000D01*
X17627400Y37654000D02*
X14427400Y37654000D01*
D17*
X1219200Y36652200D02*
X1219200Y39446200D01*
X2997200Y36398200D02*
G75*
G03X3251200Y36652200I0J254000D01*
G01*
X3251200Y39446200D02*
G75*
G03X2997200Y39700200I-254000J0D01*
G01*
X1219200Y39446200D02*
G75*
G02X1473200Y39700200I254000J0D01*
G01*
X1473200Y36398200D02*
G75*
G02X1219200Y36652200I0J254000D01*
G01*
X1473200Y36398200D02*
X2997200Y36398200D01*
X1473200Y39700200D02*
X2997200Y39700200D01*
X3251200Y39446200D02*
X3251200Y36652200D01*
D14*
X18731000Y40919600D02*
X20131000Y40919600D01*
X18731000Y44119600D02*
X20131000Y44119600D01*
X18731000Y40919600D02*
X18731000Y44119600D01*
X20131000Y44119600D02*
X20131000Y40919600D01*
D15*
X17739000Y41111600D02*
X17739000Y42911600D01*
X14519000Y42911600D02*
X14519000Y40461600D01*
M02*
