G04 #@! TF.GenerationSoftware,KiCad,Pcbnew,(5.0.0)*
G04 #@! TF.CreationDate,2018-12-20T12:11:05-05:00*
G04 #@! TF.ProjectId,fk-weather,666B2D776561746865722E6B69636164,0.1*
G04 #@! TF.SameCoordinates,PX791ddc0PY791ddc0*
G04 #@! TF.FileFunction,Soldermask,Top*
G04 #@! TF.FilePolarity,Negative*
%FSLAX46Y46*%
G04 Gerber Fmt 4.6, Leading zero omitted, Abs format (unit mm)*
G04 Created by KiCad (PCBNEW (5.0.0)) date 12/20/18 12:11:05*
%MOMM*%
%LPD*%
G01*
G04 APERTURE LIST*
%ADD10C,0.100000*%
G04 APERTURE END LIST*
D10*
G36*
X-10523600Y-72712000D02*
X-11726800Y-72712000D01*
X-11726800Y-71408800D01*
X-10523600Y-71408800D01*
X-10523600Y-72712000D01*
X-10523600Y-72712000D01*
G37*
G36*
X-12161900Y-72709600D02*
X-13365100Y-72709600D01*
X-13365100Y-71406400D01*
X-12161900Y-71406400D01*
X-12161900Y-72709600D01*
X-12161900Y-72709600D01*
G37*
G36*
X-6818474Y-69729429D02*
X-6608139Y-69771267D01*
X-6343964Y-69880691D01*
X-6106214Y-70039551D01*
X-5904023Y-70241742D01*
X-5745163Y-70479492D01*
X-5635739Y-70743667D01*
X-5593901Y-70954002D01*
X-5579955Y-71024112D01*
X-5579955Y-71310054D01*
X-5593901Y-71380165D01*
X-5635739Y-71590499D01*
X-5745163Y-71854674D01*
X-5904023Y-72092424D01*
X-6106214Y-72294615D01*
X-6343964Y-72453475D01*
X-6608139Y-72562899D01*
X-6818473Y-72604737D01*
X-6888584Y-72618683D01*
X-7174526Y-72618683D01*
X-7244637Y-72604737D01*
X-7454971Y-72562899D01*
X-7719146Y-72453475D01*
X-7956896Y-72294615D01*
X-8159087Y-72092424D01*
X-8317947Y-71854674D01*
X-8427371Y-71590499D01*
X-8469209Y-71380165D01*
X-8483155Y-71310054D01*
X-8483155Y-71024112D01*
X-8469209Y-70954002D01*
X-8427371Y-70743667D01*
X-8317947Y-70479492D01*
X-8159087Y-70241742D01*
X-7956896Y-70039551D01*
X-7719146Y-69880691D01*
X-7454971Y-69771267D01*
X-7244637Y-69729429D01*
X-7174526Y-69715483D01*
X-6888584Y-69715483D01*
X-6818474Y-69729429D01*
X-6818474Y-69729429D01*
G37*
G36*
X-40048474Y-69729429D02*
X-39838139Y-69771267D01*
X-39573964Y-69880691D01*
X-39336214Y-70039551D01*
X-39134023Y-70241742D01*
X-38975163Y-70479492D01*
X-38865739Y-70743667D01*
X-38823901Y-70954002D01*
X-38809955Y-71024112D01*
X-38809955Y-71310054D01*
X-38823901Y-71380165D01*
X-38865739Y-71590499D01*
X-38975163Y-71854674D01*
X-39134023Y-72092424D01*
X-39336214Y-72294615D01*
X-39573964Y-72453475D01*
X-39838139Y-72562899D01*
X-40048473Y-72604737D01*
X-40118584Y-72618683D01*
X-40404526Y-72618683D01*
X-40474637Y-72604737D01*
X-40684971Y-72562899D01*
X-40949146Y-72453475D01*
X-41186896Y-72294615D01*
X-41389087Y-72092424D01*
X-41547947Y-71854674D01*
X-41657371Y-71590499D01*
X-41699209Y-71380165D01*
X-41713155Y-71310054D01*
X-41713155Y-71024112D01*
X-41699209Y-70954002D01*
X-41657371Y-70743667D01*
X-41547947Y-70479492D01*
X-41389087Y-70241742D01*
X-41186896Y-70039551D01*
X-40949146Y-69880691D01*
X-40684971Y-69771267D01*
X-40474637Y-69729429D01*
X-40404526Y-69715483D01*
X-40118584Y-69715483D01*
X-40048474Y-69729429D01*
X-40048474Y-69729429D01*
G37*
G36*
X-20120992Y-71899962D02*
X-21824192Y-71899962D01*
X-21824192Y-70696762D01*
X-20120992Y-70696762D01*
X-20120992Y-71899962D01*
X-20120992Y-71899962D01*
G37*
G36*
X-26873392Y-71382462D02*
X-28076592Y-71382462D01*
X-28076592Y-70079262D01*
X-26873392Y-70079262D01*
X-26873392Y-71382462D01*
X-26873392Y-71382462D01*
G37*
G36*
X-24828592Y-71341517D02*
X-26131792Y-71341517D01*
X-26131792Y-70138317D01*
X-24828592Y-70138317D01*
X-24828592Y-71341517D01*
X-24828592Y-71341517D01*
G37*
G36*
X-23128592Y-71341517D02*
X-24431792Y-71341517D01*
X-24431792Y-70138317D01*
X-23128592Y-70138317D01*
X-23128592Y-71341517D01*
X-23128592Y-71341517D01*
G37*
G36*
X-10523600Y-71012000D02*
X-11726800Y-71012000D01*
X-11726800Y-69708800D01*
X-10523600Y-69708800D01*
X-10523600Y-71012000D01*
X-10523600Y-71012000D01*
G37*
G36*
X-12161900Y-71009600D02*
X-13365100Y-71009600D01*
X-13365100Y-69706400D01*
X-12161900Y-69706400D01*
X-12161900Y-71009600D01*
X-12161900Y-71009600D01*
G37*
G36*
X-20120992Y-69699962D02*
X-21824192Y-69699962D01*
X-21824192Y-68496762D01*
X-20120992Y-68496762D01*
X-20120992Y-69699962D01*
X-20120992Y-69699962D01*
G37*
G36*
X-23128592Y-69695062D02*
X-24431792Y-69695062D01*
X-24431792Y-68491862D01*
X-23128592Y-68491862D01*
X-23128592Y-69695062D01*
X-23128592Y-69695062D01*
G37*
G36*
X-24828592Y-69695062D02*
X-26131792Y-69695062D01*
X-26131792Y-68491862D01*
X-24828592Y-68491862D01*
X-24828592Y-69695062D01*
X-24828592Y-69695062D01*
G37*
G36*
X-26873392Y-69682462D02*
X-28076592Y-69682462D01*
X-28076592Y-68379262D01*
X-26873392Y-68379262D01*
X-26873392Y-69682462D01*
X-26873392Y-69682462D01*
G37*
G36*
X-6601059Y-65773945D02*
X-6601056Y-65773946D01*
X-6431103Y-65825500D01*
X-6274474Y-65909220D01*
X-6274472Y-65909221D01*
X-6274473Y-65909221D01*
X-6137188Y-66021888D01*
X-6024519Y-66159174D01*
X-5940802Y-66315799D01*
X-5889245Y-66485760D01*
X-5876200Y-66618209D01*
X-5876200Y-66757792D01*
X-5889245Y-66890241D01*
X-5889246Y-66890243D01*
X-5889246Y-66890244D01*
X-5940800Y-67060197D01*
X-6024520Y-67216826D01*
X-6076580Y-67280261D01*
X-6137188Y-67354112D01*
X-6274474Y-67466781D01*
X-6431099Y-67550498D01*
X-6431102Y-67550499D01*
X-6431104Y-67550500D01*
X-6574385Y-67593963D01*
X-6601060Y-67602055D01*
X-6777800Y-67619462D01*
X-6954541Y-67602055D01*
X-6986182Y-67592457D01*
X-7124497Y-67550500D01*
X-7281126Y-67466780D01*
X-7418412Y-67354112D01*
X-7469245Y-67292172D01*
X-7531081Y-67216826D01*
X-7614798Y-67060201D01*
X-7628885Y-67013761D01*
X-7666354Y-66890243D01*
X-7666355Y-66890240D01*
X-7679400Y-66757791D01*
X-7679400Y-66618208D01*
X-7666355Y-66485759D01*
X-7614799Y-66315801D01*
X-7531079Y-66159173D01*
X-7418412Y-66021888D01*
X-7281126Y-65909219D01*
X-7124501Y-65825502D01*
X-7124498Y-65825501D01*
X-7124496Y-65825500D01*
X-6954543Y-65773946D01*
X-6954540Y-65773945D01*
X-6777800Y-65756538D01*
X-6601059Y-65773945D01*
X-6601059Y-65773945D01*
G37*
G36*
X-10032269Y-59707828D02*
X-10032266Y-59707829D01*
X-10032265Y-59707829D01*
X-9909438Y-59745088D01*
X-9909436Y-59745089D01*
X-9796239Y-59805594D01*
X-9698555Y-59885760D01*
X-9697020Y-59887020D01*
X-9615594Y-59986239D01*
X-9555088Y-60099437D01*
X-9517829Y-60222264D01*
X-9517828Y-60222268D01*
X-9508400Y-60317994D01*
X-9508400Y-61082006D01*
X-9517828Y-61177732D01*
X-9517829Y-61177735D01*
X-9517829Y-61177736D01*
X-9555088Y-61300563D01*
X-9615594Y-61413761D01*
X-9697020Y-61512980D01*
X-9796239Y-61594406D01*
X-9796241Y-61594407D01*
X-9878096Y-61638160D01*
X-9898470Y-61651774D01*
X-9915798Y-61669101D01*
X-9929411Y-61689476D01*
X-9938789Y-61712115D01*
X-9943569Y-61736148D01*
X-9943569Y-61760652D01*
X-9938788Y-61784686D01*
X-9929411Y-61807325D01*
X-9915797Y-61827699D01*
X-9898470Y-61845027D01*
X-9878095Y-61858640D01*
X-9855456Y-61868018D01*
X-9819171Y-61873400D01*
X-9058400Y-61873400D01*
X-9058400Y-65126600D01*
X-9819172Y-65126600D01*
X-9843558Y-65129002D01*
X-9867007Y-65136115D01*
X-9888618Y-65147666D01*
X-9907560Y-65163212D01*
X-9923106Y-65182154D01*
X-9934657Y-65203765D01*
X-9941770Y-65227214D01*
X-9944172Y-65251600D01*
X-9941770Y-65275986D01*
X-9934657Y-65299435D01*
X-9923106Y-65321046D01*
X-9907560Y-65339988D01*
X-9878097Y-65361840D01*
X-9796239Y-65405594D01*
X-9697022Y-65487018D01*
X-9697020Y-65487020D01*
X-9615594Y-65586239D01*
X-9555088Y-65699437D01*
X-9532486Y-65773946D01*
X-9517828Y-65822268D01*
X-9508400Y-65917994D01*
X-9508400Y-66682006D01*
X-9517828Y-66777732D01*
X-9517829Y-66777735D01*
X-9517829Y-66777736D01*
X-9555088Y-66900563D01*
X-9615594Y-67013761D01*
X-9697020Y-67112980D01*
X-9796239Y-67194406D01*
X-9909437Y-67254912D01*
X-10032264Y-67292171D01*
X-10032265Y-67292171D01*
X-10032268Y-67292172D01*
X-10160000Y-67304752D01*
X-10287731Y-67292172D01*
X-10287734Y-67292171D01*
X-10287735Y-67292171D01*
X-10410562Y-67254912D01*
X-10523760Y-67194406D01*
X-10622979Y-67112980D01*
X-10704405Y-67013761D01*
X-10764912Y-66900563D01*
X-10764913Y-66900561D01*
X-10802172Y-66777737D01*
X-10811600Y-66682006D01*
X-10811600Y-65917995D01*
X-10802172Y-65822269D01*
X-10802171Y-65822265D01*
X-10764912Y-65699438D01*
X-10704407Y-65586241D01*
X-10704406Y-65586239D01*
X-10622982Y-65487022D01*
X-10622980Y-65487020D01*
X-10523761Y-65405594D01*
X-10441904Y-65361840D01*
X-10421530Y-65348226D01*
X-10404202Y-65330899D01*
X-10390589Y-65310524D01*
X-10381211Y-65287885D01*
X-10376431Y-65263852D01*
X-10376431Y-65239348D01*
X-10381212Y-65215314D01*
X-10390589Y-65192675D01*
X-10404203Y-65172301D01*
X-10421530Y-65154973D01*
X-10441905Y-65141360D01*
X-10464544Y-65131982D01*
X-10500829Y-65126600D01*
X-10761600Y-65126600D01*
X-10761600Y-61873400D01*
X-10500828Y-61873400D01*
X-10476442Y-61870998D01*
X-10452993Y-61863885D01*
X-10431382Y-61852334D01*
X-10412440Y-61836788D01*
X-10396894Y-61817846D01*
X-10385343Y-61796235D01*
X-10378230Y-61772786D01*
X-10375828Y-61748400D01*
X-10378230Y-61724014D01*
X-10385343Y-61700565D01*
X-10396894Y-61678954D01*
X-10412440Y-61660012D01*
X-10441903Y-61638160D01*
X-10523758Y-61594407D01*
X-10523760Y-61594406D01*
X-10622979Y-61512980D01*
X-10704405Y-61413761D01*
X-10764912Y-61300563D01*
X-10764913Y-61300561D01*
X-10802172Y-61177737D01*
X-10811600Y-61082006D01*
X-10811600Y-60317995D01*
X-10802172Y-60222269D01*
X-10802171Y-60222265D01*
X-10764912Y-60099438D01*
X-10721494Y-60018209D01*
X-10704406Y-59986239D01*
X-10622982Y-59887022D01*
X-10622980Y-59887020D01*
X-10523761Y-59805594D01*
X-10410563Y-59745088D01*
X-10287736Y-59707829D01*
X-10287735Y-59707829D01*
X-10287732Y-59707828D01*
X-10160000Y-59695248D01*
X-10032269Y-59707828D01*
X-10032269Y-59707828D01*
G37*
G36*
X-23334485Y-64452061D02*
X-23332083Y-64476447D01*
X-23324970Y-64499896D01*
X-23313419Y-64521507D01*
X-23297873Y-64540449D01*
X-23278931Y-64555995D01*
X-23257320Y-64567546D01*
X-23233871Y-64574659D01*
X-23209485Y-64577061D01*
X-22734485Y-64577061D01*
X-22734485Y-67280261D01*
X-24937685Y-67280261D01*
X-24937685Y-64577061D01*
X-24462685Y-64577061D01*
X-24438299Y-64574659D01*
X-24414850Y-64567546D01*
X-24393239Y-64555995D01*
X-24374297Y-64540449D01*
X-24358751Y-64521507D01*
X-24347200Y-64499896D01*
X-24340087Y-64476447D01*
X-24337685Y-64452061D01*
X-24337685Y-62377061D01*
X-23334485Y-62377061D01*
X-23334485Y-64452061D01*
X-23334485Y-64452061D01*
G37*
G36*
X-26839885Y-65545461D02*
X-28043085Y-65545461D01*
X-28043085Y-64242261D01*
X-26839885Y-64242261D01*
X-26839885Y-65545461D01*
X-26839885Y-65545461D01*
G37*
G36*
X-7882269Y-62307828D02*
X-7882266Y-62307829D01*
X-7882265Y-62307829D01*
X-7759438Y-62345088D01*
X-7759436Y-62345089D01*
X-7646239Y-62405594D01*
X-7547022Y-62487018D01*
X-7547020Y-62487020D01*
X-7465594Y-62586239D01*
X-7465593Y-62586241D01*
X-7405089Y-62699435D01*
X-7367828Y-62822268D01*
X-7358400Y-62917994D01*
X-7358400Y-64082006D01*
X-7367828Y-64177732D01*
X-7367829Y-64177735D01*
X-7367829Y-64177736D01*
X-7405088Y-64300563D01*
X-7465594Y-64413761D01*
X-7547020Y-64512980D01*
X-7646239Y-64594406D01*
X-7759437Y-64654912D01*
X-7882264Y-64692171D01*
X-7882265Y-64692171D01*
X-7882268Y-64692172D01*
X-8010000Y-64704752D01*
X-8137731Y-64692172D01*
X-8137734Y-64692171D01*
X-8137735Y-64692171D01*
X-8260562Y-64654912D01*
X-8373760Y-64594406D01*
X-8472979Y-64512980D01*
X-8554405Y-64413761D01*
X-8614911Y-64300563D01*
X-8652170Y-64177736D01*
X-8652170Y-64177735D01*
X-8652171Y-64177732D01*
X-8661599Y-64082006D01*
X-8661600Y-62917995D01*
X-8652172Y-62822269D01*
X-8652171Y-62822265D01*
X-8614912Y-62699438D01*
X-8554407Y-62586241D01*
X-8554406Y-62586239D01*
X-8472982Y-62487022D01*
X-8472980Y-62487020D01*
X-8373761Y-62405594D01*
X-8260563Y-62345088D01*
X-8137736Y-62307829D01*
X-8137735Y-62307829D01*
X-8137732Y-62307828D01*
X-8010000Y-62295248D01*
X-7882269Y-62307828D01*
X-7882269Y-62307828D01*
G37*
G36*
X-16362400Y-64459600D02*
X-17165600Y-64459600D01*
X-17165600Y-63556400D01*
X-16362400Y-63556400D01*
X-16362400Y-64459600D01*
X-16362400Y-64459600D01*
G37*
G36*
X-14462400Y-64459600D02*
X-15265600Y-64459600D01*
X-15265600Y-63556400D01*
X-14462400Y-63556400D01*
X-14462400Y-64459600D01*
X-14462400Y-64459600D01*
G37*
G36*
X-30354836Y-64068078D02*
X-31658036Y-64068078D01*
X-31658036Y-61964878D01*
X-30354836Y-61964878D01*
X-30354836Y-64068078D01*
X-30354836Y-64068078D01*
G37*
G36*
X-32854836Y-64068078D02*
X-34158036Y-64068078D01*
X-34158036Y-61964878D01*
X-32854836Y-61964878D01*
X-32854836Y-64068078D01*
X-32854836Y-64068078D01*
G37*
G36*
X-26839885Y-63845461D02*
X-28043085Y-63845461D01*
X-28043085Y-62542261D01*
X-26839885Y-62542261D01*
X-26839885Y-63845461D01*
X-26839885Y-63845461D01*
G37*
G36*
X-24834485Y-63780261D02*
X-25837685Y-63780261D01*
X-25837685Y-62377061D01*
X-24834485Y-62377061D01*
X-24834485Y-63780261D01*
X-24834485Y-63780261D01*
G37*
G36*
X-21834485Y-63780261D02*
X-22837685Y-63780261D01*
X-22837685Y-62377061D01*
X-21834485Y-62377061D01*
X-21834485Y-63780261D01*
X-21834485Y-63780261D01*
G37*
G36*
X-14462400Y-62459600D02*
X-15665600Y-62459600D01*
X-15665600Y-61556400D01*
X-14462400Y-61556400D01*
X-14462400Y-62459600D01*
X-14462400Y-62459600D01*
G37*
G36*
X-16362400Y-62459600D02*
X-17165600Y-62459600D01*
X-17165600Y-61556400D01*
X-16362400Y-61556400D01*
X-16362400Y-62459600D01*
X-16362400Y-62459600D01*
G37*
G36*
X-34959766Y-60377283D02*
X-34822984Y-60433940D01*
X-34699883Y-60516194D01*
X-34595194Y-60620883D01*
X-34512940Y-60743984D01*
X-34456283Y-60880766D01*
X-34427400Y-61025974D01*
X-34427400Y-61174026D01*
X-34456283Y-61319234D01*
X-34512940Y-61456016D01*
X-34595194Y-61579117D01*
X-34699883Y-61683806D01*
X-34822984Y-61766060D01*
X-34959766Y-61822717D01*
X-35104974Y-61851600D01*
X-35253026Y-61851600D01*
X-35398234Y-61822717D01*
X-35535016Y-61766060D01*
X-35658117Y-61683806D01*
X-35762806Y-61579117D01*
X-35845060Y-61456016D01*
X-35901717Y-61319234D01*
X-35930600Y-61174026D01*
X-35930600Y-61025974D01*
X-35901717Y-60880766D01*
X-35845060Y-60743984D01*
X-35762806Y-60620883D01*
X-35658117Y-60516194D01*
X-35535016Y-60433940D01*
X-35398234Y-60377283D01*
X-35253026Y-60348400D01*
X-35104974Y-60348400D01*
X-34959766Y-60377283D01*
X-34959766Y-60377283D01*
G37*
G36*
X-32542200Y-61307200D02*
X-33345400Y-61307200D01*
X-33345400Y-59104000D01*
X-32542200Y-59104000D01*
X-32542200Y-61307200D01*
X-32542200Y-61307200D01*
G37*
G36*
X-28732200Y-61307200D02*
X-29535400Y-61307200D01*
X-29535400Y-59104000D01*
X-28732200Y-59104000D01*
X-28732200Y-61307200D01*
X-28732200Y-61307200D01*
G37*
G36*
X-31272200Y-61307200D02*
X-32075400Y-61307200D01*
X-32075400Y-59104000D01*
X-31272200Y-59104000D01*
X-31272200Y-61307200D01*
X-31272200Y-61307200D01*
G37*
G36*
X-30002200Y-61307200D02*
X-30805400Y-61307200D01*
X-30805400Y-59104000D01*
X-30002200Y-59104000D01*
X-30002200Y-61307200D01*
X-30002200Y-61307200D01*
G37*
G36*
X-6601059Y-59173945D02*
X-6601056Y-59173946D01*
X-6431103Y-59225500D01*
X-6274474Y-59309220D01*
X-6274472Y-59309221D01*
X-6274473Y-59309221D01*
X-6137188Y-59421888D01*
X-6024519Y-59559174D01*
X-5940802Y-59715799D01*
X-5889245Y-59885760D01*
X-5876200Y-60018209D01*
X-5876200Y-60157792D01*
X-5889245Y-60290241D01*
X-5889246Y-60290243D01*
X-5889246Y-60290244D01*
X-5940800Y-60460197D01*
X-6024519Y-60616825D01*
X-6024521Y-60616827D01*
X-6137188Y-60754112D01*
X-6274474Y-60866781D01*
X-6431099Y-60950498D01*
X-6431102Y-60950499D01*
X-6431104Y-60950500D01*
X-6574385Y-60993963D01*
X-6601060Y-61002055D01*
X-6777800Y-61019462D01*
X-6954541Y-61002055D01*
X-6986182Y-60992457D01*
X-7124497Y-60950500D01*
X-7281126Y-60866780D01*
X-7418412Y-60754112D01*
X-7426724Y-60743984D01*
X-7531081Y-60616826D01*
X-7614798Y-60460201D01*
X-7622764Y-60433940D01*
X-7666354Y-60290243D01*
X-7666355Y-60290240D01*
X-7679400Y-60157791D01*
X-7679400Y-60018208D01*
X-7666355Y-59885759D01*
X-7642037Y-59805593D01*
X-7614800Y-59715803D01*
X-7531080Y-59559174D01*
X-7418412Y-59421888D01*
X-7281126Y-59309219D01*
X-7124501Y-59225502D01*
X-7124498Y-59225501D01*
X-7124496Y-59225500D01*
X-6954543Y-59173946D01*
X-6954540Y-59173945D01*
X-6777800Y-59156538D01*
X-6601059Y-59173945D01*
X-6601059Y-59173945D01*
G37*
G36*
X-12925600Y-59682000D02*
X-14228800Y-59682000D01*
X-14228800Y-58478800D01*
X-12925600Y-58478800D01*
X-12925600Y-59682000D01*
X-12925600Y-59682000D01*
G37*
G36*
X-14625600Y-59682000D02*
X-15928800Y-59682000D01*
X-15928800Y-58478800D01*
X-14625600Y-58478800D01*
X-14625600Y-59682000D01*
X-14625600Y-59682000D01*
G37*
G36*
X-16608600Y-59631200D02*
X-17911800Y-59631200D01*
X-17911800Y-58428000D01*
X-16608600Y-58428000D01*
X-16608600Y-59631200D01*
X-16608600Y-59631200D01*
G37*
G36*
X-18308600Y-59631200D02*
X-19611800Y-59631200D01*
X-19611800Y-58428000D01*
X-18308600Y-58428000D01*
X-18308600Y-59631200D01*
X-18308600Y-59631200D01*
G37*
G36*
X-24736600Y-58589800D02*
X-26039800Y-58589800D01*
X-26039800Y-57386600D01*
X-24736600Y-57386600D01*
X-24736600Y-58589800D01*
X-24736600Y-58589800D01*
G37*
G36*
X-26436600Y-58589800D02*
X-27739800Y-58589800D01*
X-27739800Y-57386600D01*
X-26436600Y-57386600D01*
X-26436600Y-58589800D01*
X-26436600Y-58589800D01*
G37*
G36*
X-34566400Y-58005600D02*
X-35869600Y-58005600D01*
X-35869600Y-56802400D01*
X-34566400Y-56802400D01*
X-34566400Y-58005600D01*
X-34566400Y-58005600D01*
G37*
G36*
X-36266400Y-58005600D02*
X-37569600Y-58005600D01*
X-37569600Y-56802400D01*
X-36266400Y-56802400D01*
X-36266400Y-58005600D01*
X-36266400Y-58005600D01*
G37*
G36*
X-14497400Y-57021600D02*
X-17500600Y-57021600D01*
X-17500600Y-55818400D01*
X-14497400Y-55818400D01*
X-14497400Y-57021600D01*
X-14497400Y-57021600D01*
G37*
G36*
X-6242400Y-57021600D02*
X-9245600Y-57021600D01*
X-9245600Y-55818400D01*
X-6242400Y-55818400D01*
X-6242400Y-57021600D01*
X-6242400Y-57021600D01*
G37*
G36*
X-24736600Y-57015000D02*
X-26039800Y-57015000D01*
X-26039800Y-55811800D01*
X-24736600Y-55811800D01*
X-24736600Y-57015000D01*
X-24736600Y-57015000D01*
G37*
G36*
X-26436600Y-57015000D02*
X-27739800Y-57015000D01*
X-27739800Y-55811800D01*
X-26436600Y-55811800D01*
X-26436600Y-57015000D01*
X-26436600Y-57015000D01*
G37*
G36*
X-34566400Y-56227600D02*
X-35869600Y-56227600D01*
X-35869600Y-55024400D01*
X-34566400Y-55024400D01*
X-34566400Y-56227600D01*
X-34566400Y-56227600D01*
G37*
G36*
X-36266400Y-56227600D02*
X-37569600Y-56227600D01*
X-37569600Y-55024400D01*
X-36266400Y-55024400D01*
X-36266400Y-56227600D01*
X-36266400Y-56227600D01*
G37*
G36*
X-32542200Y-55907200D02*
X-33345400Y-55907200D01*
X-33345400Y-53704000D01*
X-32542200Y-53704000D01*
X-32542200Y-55907200D01*
X-32542200Y-55907200D01*
G37*
G36*
X-31272200Y-55907200D02*
X-32075400Y-55907200D01*
X-32075400Y-53704000D01*
X-31272200Y-53704000D01*
X-31272200Y-55907200D01*
X-31272200Y-55907200D01*
G37*
G36*
X-30002200Y-55907200D02*
X-30805400Y-55907200D01*
X-30805400Y-53704000D01*
X-30002200Y-53704000D01*
X-30002200Y-55907200D01*
X-30002200Y-55907200D01*
G37*
G36*
X-28732200Y-55907200D02*
X-29535400Y-55907200D01*
X-29535400Y-53704000D01*
X-28732200Y-53704000D01*
X-28732200Y-55907200D01*
X-28732200Y-55907200D01*
G37*
G36*
X-10142400Y-54971600D02*
X-12045600Y-54971600D01*
X-12045600Y-54168400D01*
X-10142400Y-54168400D01*
X-10142400Y-54971600D01*
X-10142400Y-54971600D01*
G37*
G36*
X-18397400Y-54971600D02*
X-20300600Y-54971600D01*
X-20300600Y-54168400D01*
X-18397400Y-54168400D01*
X-18397400Y-54971600D01*
X-18397400Y-54971600D01*
G37*
G36*
X-34996227Y-53047479D02*
X-34882193Y-53094714D01*
X-34779565Y-53163288D01*
X-34692288Y-53250565D01*
X-34623714Y-53353193D01*
X-34576479Y-53467227D01*
X-34552400Y-53588284D01*
X-34552400Y-53711716D01*
X-34576479Y-53832773D01*
X-34623714Y-53946807D01*
X-34692288Y-54049435D01*
X-34779565Y-54136712D01*
X-34882193Y-54205286D01*
X-34996227Y-54252521D01*
X-35117284Y-54276600D01*
X-35240716Y-54276600D01*
X-35361773Y-54252521D01*
X-35475807Y-54205286D01*
X-35578435Y-54136712D01*
X-35665712Y-54049435D01*
X-35734286Y-53946807D01*
X-35781521Y-53832773D01*
X-35805600Y-53711716D01*
X-35805600Y-53588284D01*
X-35781521Y-53467227D01*
X-35734286Y-53353193D01*
X-35665712Y-53250565D01*
X-35578435Y-53163288D01*
X-35475807Y-53094714D01*
X-35361773Y-53047479D01*
X-35240716Y-53023400D01*
X-35117284Y-53023400D01*
X-34996227Y-53047479D01*
X-34996227Y-53047479D01*
G37*
G36*
X-18397400Y-53721600D02*
X-20300600Y-53721600D01*
X-20300600Y-52918400D01*
X-18397400Y-52918400D01*
X-18397400Y-53721600D01*
X-18397400Y-53721600D01*
G37*
G36*
X-10142400Y-53721600D02*
X-12045600Y-53721600D01*
X-12045600Y-52918400D01*
X-10142400Y-52918400D01*
X-10142400Y-53721600D01*
X-10142400Y-53721600D01*
G37*
G36*
X-32180836Y-52823078D02*
X-33484036Y-52823078D01*
X-33484036Y-51619878D01*
X-32180836Y-51619878D01*
X-32180836Y-52823078D01*
X-32180836Y-52823078D01*
G37*
G36*
X-30480836Y-52823078D02*
X-31784036Y-52823078D01*
X-31784036Y-51619878D01*
X-30480836Y-51619878D01*
X-30480836Y-52823078D01*
X-30480836Y-52823078D01*
G37*
G36*
X-18397400Y-52471600D02*
X-20300600Y-52471600D01*
X-20300600Y-51668400D01*
X-18397400Y-51668400D01*
X-18397400Y-52471600D01*
X-18397400Y-52471600D01*
G37*
G36*
X-10142400Y-52471600D02*
X-12045600Y-52471600D01*
X-12045600Y-51668400D01*
X-10142400Y-51668400D01*
X-10142400Y-52471600D01*
X-10142400Y-52471600D01*
G37*
G36*
X-10142400Y-51221600D02*
X-12045600Y-51221600D01*
X-12045600Y-50418400D01*
X-10142400Y-50418400D01*
X-10142400Y-51221600D01*
X-10142400Y-51221600D01*
G37*
G36*
X-18397400Y-51221600D02*
X-20300600Y-51221600D01*
X-20300600Y-50418400D01*
X-18397400Y-50418400D01*
X-18397400Y-51221600D01*
X-18397400Y-51221600D01*
G37*
G36*
X-10142400Y-49971600D02*
X-12045600Y-49971600D01*
X-12045600Y-49168400D01*
X-10142400Y-49168400D01*
X-10142400Y-49971600D01*
X-10142400Y-49971600D01*
G37*
G36*
X-18397400Y-49971600D02*
X-20300600Y-49971600D01*
X-20300600Y-49168400D01*
X-18397400Y-49168400D01*
X-18397400Y-49971600D01*
X-18397400Y-49971600D01*
G37*
G36*
X-22178384Y-48745600D02*
X-23381584Y-48745600D01*
X-23381584Y-47442400D01*
X-22178384Y-47442400D01*
X-22178384Y-48745600D01*
X-22178384Y-48745600D01*
G37*
G36*
X-23909400Y-48745600D02*
X-25112600Y-48745600D01*
X-25112600Y-47442400D01*
X-23909400Y-47442400D01*
X-23909400Y-48745600D01*
X-23909400Y-48745600D01*
G37*
G36*
X-28033130Y-48587480D02*
X-29286330Y-48587480D01*
X-29286330Y-47734280D01*
X-28033130Y-47734280D01*
X-28033130Y-48587480D01*
X-28033130Y-48587480D01*
G37*
G36*
X-6242400Y-48321600D02*
X-9245600Y-48321600D01*
X-9245600Y-47118400D01*
X-6242400Y-47118400D01*
X-6242400Y-48321600D01*
X-6242400Y-48321600D01*
G37*
G36*
X-14497400Y-48321600D02*
X-17500600Y-48321600D01*
X-17500600Y-47118400D01*
X-14497400Y-47118400D01*
X-14497400Y-48321600D01*
X-14497400Y-48321600D01*
G37*
G36*
X-25733130Y-47637480D02*
X-26986330Y-47637480D01*
X-26986330Y-46784280D01*
X-25733130Y-46784280D01*
X-25733130Y-47637480D01*
X-25733130Y-47637480D01*
G37*
G36*
X-23909400Y-47045600D02*
X-25112600Y-47045600D01*
X-25112600Y-45742400D01*
X-23909400Y-45742400D01*
X-23909400Y-47045600D01*
X-23909400Y-47045600D01*
G37*
G36*
X-22178384Y-47045600D02*
X-23381584Y-47045600D01*
X-23381584Y-45742400D01*
X-22178384Y-45742400D01*
X-22178384Y-47045600D01*
X-22178384Y-47045600D01*
G37*
G36*
X-28033130Y-46687480D02*
X-29286330Y-46687480D01*
X-29286330Y-45834280D01*
X-28033130Y-45834280D01*
X-28033130Y-46687480D01*
X-28033130Y-46687480D01*
G37*
G36*
X-18600800Y-45850000D02*
X-19804000Y-45850000D01*
X-19804000Y-44546800D01*
X-18600800Y-44546800D01*
X-18600800Y-45850000D01*
X-18600800Y-45850000D01*
G37*
G36*
X-20226400Y-45824600D02*
X-21429600Y-45824600D01*
X-21429600Y-44521400D01*
X-20226400Y-44521400D01*
X-20226400Y-45824600D01*
X-20226400Y-45824600D01*
G37*
G36*
X-6242400Y-45728600D02*
X-9245600Y-45728600D01*
X-9245600Y-44525400D01*
X-6242400Y-44525400D01*
X-6242400Y-45728600D01*
X-6242400Y-45728600D01*
G37*
G36*
X-33624800Y-45508800D02*
X-34928000Y-45508800D01*
X-34928000Y-44305600D01*
X-33624800Y-44305600D01*
X-33624800Y-45508800D01*
X-33624800Y-45508800D01*
G37*
G36*
X-31924800Y-45508800D02*
X-33228000Y-45508800D01*
X-33228000Y-44305600D01*
X-31924800Y-44305600D01*
X-31924800Y-45508800D01*
X-31924800Y-45508800D01*
G37*
G36*
X-35404600Y-45458000D02*
X-36707800Y-45458000D01*
X-36707800Y-44254800D01*
X-35404600Y-44254800D01*
X-35404600Y-45458000D01*
X-35404600Y-45458000D01*
G37*
G36*
X-37104600Y-45458000D02*
X-38407800Y-45458000D01*
X-38407800Y-44254800D01*
X-37104600Y-44254800D01*
X-37104600Y-45458000D01*
X-37104600Y-45458000D01*
G37*
G36*
X-13470200Y-45229800D02*
X-15473400Y-45229800D01*
X-15473400Y-43826600D01*
X-13470200Y-43826600D01*
X-13470200Y-45229800D01*
X-13470200Y-45229800D01*
G37*
G36*
X-18600800Y-44150000D02*
X-19804000Y-44150000D01*
X-19804000Y-42846800D01*
X-18600800Y-42846800D01*
X-18600800Y-44150000D01*
X-18600800Y-44150000D01*
G37*
G36*
X-20226400Y-44124600D02*
X-21429600Y-44124600D01*
X-21429600Y-42821400D01*
X-20226400Y-42821400D01*
X-20226400Y-44124600D01*
X-20226400Y-44124600D01*
G37*
G36*
X-10142400Y-43678600D02*
X-12045600Y-43678600D01*
X-12045600Y-42875400D01*
X-10142400Y-42875400D01*
X-10142400Y-43678600D01*
X-10142400Y-43678600D01*
G37*
G36*
X-16120200Y-43379800D02*
X-17873400Y-43379800D01*
X-17873400Y-39576600D01*
X-16120200Y-39576600D01*
X-16120200Y-43379800D01*
X-16120200Y-43379800D01*
G37*
G36*
X-32926400Y-43323600D02*
X-34129600Y-43323600D01*
X-34129600Y-42020400D01*
X-32926400Y-42020400D01*
X-32926400Y-43323600D01*
X-32926400Y-43323600D01*
G37*
G36*
X-10142400Y-42428600D02*
X-12045600Y-42428600D01*
X-12045600Y-41625400D01*
X-10142400Y-41625400D01*
X-10142400Y-42428600D01*
X-10142400Y-42428600D01*
G37*
G36*
X-28862278Y-40895027D02*
X-29925202Y-41957951D01*
X-34134751Y-37748402D01*
X-33071827Y-36685478D01*
X-28862278Y-40895027D01*
X-28862278Y-40895027D01*
G37*
G36*
X-22710449Y-37748402D02*
X-26919998Y-41957951D01*
X-27982922Y-40895027D01*
X-23773373Y-36685478D01*
X-22710449Y-37748402D01*
X-22710449Y-37748402D01*
G37*
G36*
X-32926400Y-41623600D02*
X-34129600Y-41623600D01*
X-34129600Y-40320400D01*
X-32926400Y-40320400D01*
X-32926400Y-41623600D01*
X-32926400Y-41623600D01*
G37*
G36*
X-10142400Y-41178600D02*
X-12045600Y-41178600D01*
X-12045600Y-40375400D01*
X-10142400Y-40375400D01*
X-10142400Y-41178600D01*
X-10142400Y-41178600D01*
G37*
G36*
X-10142400Y-39928600D02*
X-12045600Y-39928600D01*
X-12045600Y-39125400D01*
X-10142400Y-39125400D01*
X-10142400Y-39928600D01*
X-10142400Y-39928600D01*
G37*
G36*
X-20696200Y-39235000D02*
X-21999400Y-39235000D01*
X-21999400Y-38031800D01*
X-20696200Y-38031800D01*
X-20696200Y-39235000D01*
X-20696200Y-39235000D01*
G37*
G36*
X-18996200Y-39235000D02*
X-20299400Y-39235000D01*
X-20299400Y-38031800D01*
X-18996200Y-38031800D01*
X-18996200Y-39235000D01*
X-18996200Y-39235000D01*
G37*
G36*
X-13470200Y-39129800D02*
X-15473400Y-39129800D01*
X-15473400Y-37726600D01*
X-13470200Y-37726600D01*
X-13470200Y-39129800D01*
X-13470200Y-39129800D01*
G37*
G36*
X-6242400Y-38278600D02*
X-9245600Y-38278600D01*
X-9245600Y-37075400D01*
X-6242400Y-37075400D01*
X-6242400Y-38278600D01*
X-6242400Y-38278600D01*
G37*
G36*
X-17370600Y-36060000D02*
X-18673800Y-36060000D01*
X-18673800Y-34856800D01*
X-17370600Y-34856800D01*
X-17370600Y-36060000D01*
X-17370600Y-36060000D01*
G37*
G36*
X-19070600Y-36060000D02*
X-20373800Y-36060000D01*
X-20373800Y-34856800D01*
X-19070600Y-34856800D01*
X-19070600Y-36060000D01*
X-19070600Y-36060000D01*
G37*
G36*
X-28862278Y-31596573D02*
X-33071827Y-35806122D01*
X-34134751Y-34743198D01*
X-29925202Y-30533649D01*
X-28862278Y-31596573D01*
X-28862278Y-31596573D01*
G37*
G36*
X-22710449Y-34743198D02*
X-23773373Y-35806122D01*
X-27982922Y-31596573D01*
X-26919998Y-30533649D01*
X-22710449Y-34743198D01*
X-22710449Y-34743198D01*
G37*
G36*
X-6242400Y-35705600D02*
X-9245600Y-35705600D01*
X-9245600Y-34502400D01*
X-6242400Y-34502400D01*
X-6242400Y-35705600D01*
X-6242400Y-35705600D01*
G37*
G36*
X-17370600Y-34485200D02*
X-18673800Y-34485200D01*
X-18673800Y-33282000D01*
X-17370600Y-33282000D01*
X-17370600Y-34485200D01*
X-17370600Y-34485200D01*
G37*
G36*
X-19070600Y-34485200D02*
X-20373800Y-34485200D01*
X-20373800Y-33282000D01*
X-19070600Y-33282000D01*
X-19070600Y-34485200D01*
X-19070600Y-34485200D01*
G37*
G36*
X-10142400Y-33655600D02*
X-12045600Y-33655600D01*
X-12045600Y-32852400D01*
X-10142400Y-32852400D01*
X-10142400Y-33655600D01*
X-10142400Y-33655600D01*
G37*
G36*
X-10142400Y-32405600D02*
X-12045600Y-32405600D01*
X-12045600Y-31602400D01*
X-10142400Y-31602400D01*
X-10142400Y-32405600D01*
X-10142400Y-32405600D01*
G37*
G36*
X-35047300Y-31653900D02*
X-36250500Y-31653900D01*
X-36250500Y-30350700D01*
X-35047300Y-30350700D01*
X-35047300Y-31653900D01*
X-35047300Y-31653900D01*
G37*
G36*
X-36647500Y-31652300D02*
X-37850700Y-31652300D01*
X-37850700Y-30349100D01*
X-36647500Y-30349100D01*
X-36647500Y-31652300D01*
X-36647500Y-31652300D01*
G37*
G36*
X-10142400Y-31155600D02*
X-12045600Y-31155600D01*
X-12045600Y-30352400D01*
X-10142400Y-30352400D01*
X-10142400Y-31155600D01*
X-10142400Y-31155600D01*
G37*
G36*
X-33459800Y-31143400D02*
X-34663000Y-31143400D01*
X-34663000Y-29840200D01*
X-33459800Y-29840200D01*
X-33459800Y-31143400D01*
X-33459800Y-31143400D01*
G37*
G36*
X-31885000Y-31143400D02*
X-33088200Y-31143400D01*
X-33088200Y-29840200D01*
X-31885000Y-29840200D01*
X-31885000Y-31143400D01*
X-31885000Y-31143400D01*
G37*
G36*
X-22868000Y-30533800D02*
X-24071200Y-30533800D01*
X-24071200Y-29230600D01*
X-22868000Y-29230600D01*
X-22868000Y-30533800D01*
X-22868000Y-30533800D01*
G37*
G36*
X-24480900Y-30521100D02*
X-25684100Y-30521100D01*
X-25684100Y-29217900D01*
X-24480900Y-29217900D01*
X-24480900Y-30521100D01*
X-24480900Y-30521100D01*
G37*
G36*
X-18613500Y-30444900D02*
X-19816700Y-30444900D01*
X-19816700Y-29141700D01*
X-18613500Y-29141700D01*
X-18613500Y-30444900D01*
X-18613500Y-30444900D01*
G37*
G36*
X-20201000Y-30444900D02*
X-21404200Y-30444900D01*
X-21404200Y-29141700D01*
X-20201000Y-29141700D01*
X-20201000Y-30444900D01*
X-20201000Y-30444900D01*
G37*
G36*
X-35047300Y-29953900D02*
X-36250500Y-29953900D01*
X-36250500Y-28650700D01*
X-35047300Y-28650700D01*
X-35047300Y-29953900D01*
X-35047300Y-29953900D01*
G37*
G36*
X-36647500Y-29952300D02*
X-37850700Y-29952300D01*
X-37850700Y-28649100D01*
X-36647500Y-28649100D01*
X-36647500Y-29952300D01*
X-36647500Y-29952300D01*
G37*
G36*
X-6242400Y-29505600D02*
X-9245600Y-29505600D01*
X-9245600Y-28302400D01*
X-6242400Y-28302400D01*
X-6242400Y-29505600D01*
X-6242400Y-29505600D01*
G37*
G36*
X-27883772Y-27982240D02*
X-29370960Y-29469428D01*
X-30292462Y-28547926D01*
X-28805274Y-27060738D01*
X-27883772Y-27982240D01*
X-27883772Y-27982240D01*
G37*
G36*
X-31885000Y-29443400D02*
X-33088200Y-29443400D01*
X-33088200Y-28140200D01*
X-31885000Y-28140200D01*
X-31885000Y-29443400D01*
X-31885000Y-29443400D01*
G37*
G36*
X-33459800Y-29443400D02*
X-34663000Y-29443400D01*
X-34663000Y-28140200D01*
X-33459800Y-28140200D01*
X-33459800Y-29443400D01*
X-33459800Y-29443400D01*
G37*
G36*
X-22868000Y-28833800D02*
X-24071200Y-28833800D01*
X-24071200Y-27530600D01*
X-22868000Y-27530600D01*
X-22868000Y-28833800D01*
X-22868000Y-28833800D01*
G37*
G36*
X-24480900Y-28821100D02*
X-25684100Y-28821100D01*
X-25684100Y-27517900D01*
X-24480900Y-27517900D01*
X-24480900Y-28821100D01*
X-24480900Y-28821100D01*
G37*
G36*
X-18613500Y-28744900D02*
X-19816700Y-28744900D01*
X-19816700Y-27441700D01*
X-18613500Y-27441700D01*
X-18613500Y-28744900D01*
X-18613500Y-28744900D01*
G37*
G36*
X-20201000Y-28744900D02*
X-21404200Y-28744900D01*
X-21404200Y-27441700D01*
X-20201000Y-27441700D01*
X-20201000Y-28744900D01*
X-20201000Y-28744900D01*
G37*
G36*
X-29651538Y-26214474D02*
X-31138726Y-27701662D01*
X-32060228Y-26780160D01*
X-30573040Y-25292972D01*
X-29651538Y-26214474D01*
X-29651538Y-26214474D01*
G37*
G36*
X-26384894Y-26549886D02*
X-27306396Y-27471388D01*
X-28157188Y-26620596D01*
X-27235686Y-25699094D01*
X-26384894Y-26549886D01*
X-26384894Y-26549886D01*
G37*
G36*
X-27604094Y-25432286D02*
X-28525596Y-26353788D01*
X-29376388Y-25502996D01*
X-28454886Y-24581494D01*
X-27604094Y-25432286D01*
X-27604094Y-25432286D01*
G37*
G36*
X-25182812Y-25347804D02*
X-26104314Y-26269306D01*
X-26955106Y-25418514D01*
X-26033604Y-24497012D01*
X-25182812Y-25347804D01*
X-25182812Y-25347804D01*
G37*
G36*
X-21089600Y-25857800D02*
X-22039600Y-25857800D01*
X-22039600Y-23157800D01*
X-21089600Y-23157800D01*
X-21089600Y-25857800D01*
X-21089600Y-25857800D01*
G37*
G36*
X-19819600Y-25857800D02*
X-20769600Y-25857800D01*
X-20769600Y-23157800D01*
X-19819600Y-23157800D01*
X-19819600Y-25857800D01*
X-19819600Y-25857800D01*
G37*
G36*
X-18549600Y-25857800D02*
X-19499600Y-25857800D01*
X-19499600Y-23157800D01*
X-18549600Y-23157800D01*
X-18549600Y-25857800D01*
X-18549600Y-25857800D01*
G37*
G36*
X-16009600Y-25857800D02*
X-16959600Y-25857800D01*
X-16959600Y-23157800D01*
X-16009600Y-23157800D01*
X-16009600Y-25857800D01*
X-16009600Y-25857800D01*
G37*
G36*
X-17279600Y-25857800D02*
X-18229600Y-25857800D01*
X-18229600Y-23157800D01*
X-17279600Y-23157800D01*
X-17279600Y-25857800D01*
X-17279600Y-25857800D01*
G37*
G36*
X-26402012Y-24230204D02*
X-27323514Y-25151706D01*
X-28174306Y-24300914D01*
X-27252804Y-23379412D01*
X-26402012Y-24230204D01*
X-26402012Y-24230204D01*
G37*
G36*
X-36952300Y-23536100D02*
X-38155500Y-23536100D01*
X-38155500Y-22232900D01*
X-36952300Y-22232900D01*
X-36952300Y-23536100D01*
X-36952300Y-23536100D01*
G37*
G36*
X-5914400Y-23472600D02*
X-6817600Y-23472600D01*
X-6817600Y-21819400D01*
X-5914400Y-21819400D01*
X-5914400Y-23472600D01*
X-5914400Y-23472600D01*
G37*
G36*
X-7914400Y-23472600D02*
X-8817600Y-23472600D01*
X-8817600Y-21819400D01*
X-7914400Y-21819400D01*
X-7914400Y-23472600D01*
X-7914400Y-23472600D01*
G37*
G36*
X-26669000Y-22867900D02*
X-29872200Y-22867900D01*
X-29872200Y-22064700D01*
X-26669000Y-22064700D01*
X-26669000Y-22867900D01*
X-26669000Y-22867900D01*
G37*
G36*
X-33069000Y-22867900D02*
X-36272200Y-22867900D01*
X-36272200Y-22064700D01*
X-33069000Y-22064700D01*
X-33069000Y-22867900D01*
X-33069000Y-22867900D01*
G37*
G36*
X-16009600Y-21857800D02*
X-16959600Y-21857800D01*
X-16959600Y-19157800D01*
X-16009600Y-19157800D01*
X-16009600Y-21857800D01*
X-16009600Y-21857800D01*
G37*
G36*
X-21089600Y-21857800D02*
X-22039600Y-21857800D01*
X-22039600Y-19157800D01*
X-21089600Y-19157800D01*
X-21089600Y-21857800D01*
X-21089600Y-21857800D01*
G37*
G36*
X-19819600Y-21857800D02*
X-20769600Y-21857800D01*
X-20769600Y-19157800D01*
X-19819600Y-19157800D01*
X-19819600Y-21857800D01*
X-19819600Y-21857800D01*
G37*
G36*
X-17279600Y-21857800D02*
X-18229600Y-21857800D01*
X-18229600Y-19157800D01*
X-17279600Y-19157800D01*
X-17279600Y-21857800D01*
X-17279600Y-21857800D01*
G37*
G36*
X-18549600Y-21857800D02*
X-19499600Y-21857800D01*
X-19499600Y-19157800D01*
X-18549600Y-19157800D01*
X-18549600Y-21857800D01*
X-18549600Y-21857800D01*
G37*
G36*
X-36952300Y-21836100D02*
X-38155500Y-21836100D01*
X-38155500Y-20532900D01*
X-36952300Y-20532900D01*
X-36952300Y-21836100D01*
X-36952300Y-21836100D01*
G37*
G36*
X-26669000Y-21597900D02*
X-29872200Y-21597900D01*
X-29872200Y-20794700D01*
X-26669000Y-20794700D01*
X-26669000Y-21597900D01*
X-26669000Y-21597900D01*
G37*
G36*
X-33069000Y-21597900D02*
X-36272200Y-21597900D01*
X-36272200Y-20794700D01*
X-33069000Y-20794700D01*
X-33069000Y-21597900D01*
X-33069000Y-21597900D01*
G37*
G36*
X-33069000Y-20327900D02*
X-36272200Y-20327900D01*
X-36272200Y-19524700D01*
X-33069000Y-19524700D01*
X-33069000Y-20327900D01*
X-33069000Y-20327900D01*
G37*
G36*
X-26669000Y-20327900D02*
X-29872200Y-20327900D01*
X-29872200Y-19524700D01*
X-26669000Y-19524700D01*
X-26669000Y-20327900D01*
X-26669000Y-20327900D01*
G37*
G36*
X-33069000Y-19057900D02*
X-36272200Y-19057900D01*
X-36272200Y-18254700D01*
X-33069000Y-18254700D01*
X-33069000Y-19057900D01*
X-33069000Y-19057900D01*
G37*
G36*
X-26669000Y-19057900D02*
X-29872200Y-19057900D01*
X-29872200Y-18254700D01*
X-26669000Y-18254700D01*
X-26669000Y-19057900D01*
X-26669000Y-19057900D01*
G37*
G36*
X-5914400Y-18312600D02*
X-6817600Y-18312600D01*
X-6817600Y-16659400D01*
X-5914400Y-16659400D01*
X-5914400Y-18312600D01*
X-5914400Y-18312600D01*
G37*
G36*
X-7914400Y-18312600D02*
X-8817600Y-18312600D01*
X-8817600Y-16659400D01*
X-7914400Y-16659400D01*
X-7914400Y-18312600D01*
X-7914400Y-18312600D01*
G37*
G36*
X-32151600Y-17264000D02*
X-33454800Y-17264000D01*
X-33454800Y-16060800D01*
X-32151600Y-16060800D01*
X-32151600Y-17264000D01*
X-32151600Y-17264000D01*
G37*
G36*
X-30451600Y-17264000D02*
X-31754800Y-17264000D01*
X-31754800Y-16060800D01*
X-30451600Y-16060800D01*
X-30451600Y-17264000D01*
X-30451600Y-17264000D01*
G37*
G36*
X-27630400Y-17264000D02*
X-28933600Y-17264000D01*
X-28933600Y-16060800D01*
X-27630400Y-16060800D01*
X-27630400Y-17264000D01*
X-27630400Y-17264000D01*
G37*
G36*
X-25930400Y-17264000D02*
X-27233600Y-17264000D01*
X-27233600Y-16060800D01*
X-25930400Y-16060800D01*
X-25930400Y-17264000D01*
X-25930400Y-17264000D01*
G37*
G36*
X-38198600Y-15917800D02*
X-39501800Y-15917800D01*
X-39501800Y-14714600D01*
X-38198600Y-14714600D01*
X-38198600Y-15917800D01*
X-38198600Y-15917800D01*
G37*
G36*
X-39898600Y-15917800D02*
X-41201800Y-15917800D01*
X-41201800Y-14714600D01*
X-39898600Y-14714600D01*
X-39898600Y-15917800D01*
X-39898600Y-15917800D01*
G37*
G36*
X-5672400Y-15747600D02*
X-6775600Y-15747600D01*
X-6775600Y-14044400D01*
X-5672400Y-14044400D01*
X-5672400Y-15747600D01*
X-5672400Y-15747600D01*
G37*
G36*
X-8972400Y-15747600D02*
X-10075600Y-15747600D01*
X-10075600Y-14044400D01*
X-8972400Y-14044400D01*
X-8972400Y-15747600D01*
X-8972400Y-15747600D01*
G37*
G36*
X-27605000Y-15740000D02*
X-28908200Y-15740000D01*
X-28908200Y-14536800D01*
X-27605000Y-14536800D01*
X-27605000Y-15740000D01*
X-27605000Y-15740000D01*
G37*
G36*
X-25905000Y-15740000D02*
X-27208200Y-15740000D01*
X-27208200Y-14536800D01*
X-25905000Y-14536800D01*
X-25905000Y-15740000D01*
X-25905000Y-15740000D01*
G37*
G36*
X-35456600Y-14981200D02*
X-37659800Y-14981200D01*
X-37659800Y-14178000D01*
X-35456600Y-14178000D01*
X-35456600Y-14981200D01*
X-35456600Y-14981200D01*
G37*
G36*
X-30056600Y-14981200D02*
X-32259800Y-14981200D01*
X-32259800Y-14178000D01*
X-30056600Y-14178000D01*
X-30056600Y-14981200D01*
X-30056600Y-14981200D01*
G37*
G36*
X-38198600Y-14419200D02*
X-39501800Y-14419200D01*
X-39501800Y-13216000D01*
X-38198600Y-13216000D01*
X-38198600Y-14419200D01*
X-38198600Y-14419200D01*
G37*
G36*
X-39898600Y-14419200D02*
X-41201800Y-14419200D01*
X-41201800Y-13216000D01*
X-39898600Y-13216000D01*
X-39898600Y-14419200D01*
X-39898600Y-14419200D01*
G37*
G36*
X-25750800Y-13962000D02*
X-27054000Y-13962000D01*
X-27054000Y-12758800D01*
X-25750800Y-12758800D01*
X-25750800Y-13962000D01*
X-25750800Y-13962000D01*
G37*
G36*
X-24050800Y-13962000D02*
X-25354000Y-13962000D01*
X-25354000Y-12758800D01*
X-24050800Y-12758800D01*
X-24050800Y-13962000D01*
X-24050800Y-13962000D01*
G37*
G36*
X-30056600Y-13711200D02*
X-32259800Y-13711200D01*
X-32259800Y-12908000D01*
X-30056600Y-12908000D01*
X-30056600Y-13711200D01*
X-30056600Y-13711200D01*
G37*
G36*
X-35456600Y-13711200D02*
X-37659800Y-13711200D01*
X-37659800Y-12908000D01*
X-35456600Y-12908000D01*
X-35456600Y-13711200D01*
X-35456600Y-13711200D01*
G37*
G36*
X-38666800Y-12892600D02*
X-39870000Y-12892600D01*
X-39870000Y-11589400D01*
X-38666800Y-11589400D01*
X-38666800Y-12892600D01*
X-38666800Y-12892600D01*
G37*
G36*
X-30056600Y-12441200D02*
X-32259800Y-12441200D01*
X-32259800Y-11638000D01*
X-30056600Y-11638000D01*
X-30056600Y-12441200D01*
X-30056600Y-12441200D01*
G37*
G36*
X-35456600Y-12441200D02*
X-37659800Y-12441200D01*
X-37659800Y-11638000D01*
X-35456600Y-11638000D01*
X-35456600Y-12441200D01*
X-35456600Y-12441200D01*
G37*
G36*
X-25676400Y-11269600D02*
X-26979600Y-11269600D01*
X-26979600Y-10066400D01*
X-25676400Y-10066400D01*
X-25676400Y-11269600D01*
X-25676400Y-11269600D01*
G37*
G36*
X-27376400Y-11269600D02*
X-28679600Y-11269600D01*
X-28679600Y-10066400D01*
X-27376400Y-10066400D01*
X-27376400Y-11269600D01*
X-27376400Y-11269600D01*
G37*
G36*
X-38666800Y-11192600D02*
X-39870000Y-11192600D01*
X-39870000Y-9889400D01*
X-38666800Y-9889400D01*
X-38666800Y-11192600D01*
X-38666800Y-11192600D01*
G37*
G36*
X-30056600Y-11171200D02*
X-32259800Y-11171200D01*
X-32259800Y-10368000D01*
X-30056600Y-10368000D01*
X-30056600Y-11171200D01*
X-30056600Y-11171200D01*
G37*
G36*
X-35456600Y-11171200D02*
X-37659800Y-11171200D01*
X-37659800Y-10368000D01*
X-35456600Y-10368000D01*
X-35456600Y-11171200D01*
X-35456600Y-11171200D01*
G37*
G36*
X-8972400Y-10847600D02*
X-10075600Y-10847600D01*
X-10075600Y-9144400D01*
X-8972400Y-9144400D01*
X-8972400Y-10847600D01*
X-8972400Y-10847600D01*
G37*
G36*
X-5672400Y-10847600D02*
X-6775600Y-10847600D01*
X-6775600Y-9144400D01*
X-5672400Y-9144400D01*
X-5672400Y-10847600D01*
X-5672400Y-10847600D01*
G37*
G36*
X-34742400Y-8475600D02*
X-36045600Y-8475600D01*
X-36045600Y-7272400D01*
X-34742400Y-7272400D01*
X-34742400Y-8475600D01*
X-34742400Y-8475600D01*
G37*
G36*
X-27962400Y-8475600D02*
X-29265600Y-8475600D01*
X-29265600Y-7272400D01*
X-27962400Y-7272400D01*
X-27962400Y-8475600D01*
X-27962400Y-8475600D01*
G37*
G36*
X-29662400Y-8475600D02*
X-30965600Y-8475600D01*
X-30965600Y-7272400D01*
X-29662400Y-7272400D01*
X-29662400Y-8475600D01*
X-29662400Y-8475600D01*
G37*
G36*
X-33042400Y-8475600D02*
X-34345600Y-8475600D01*
X-34345600Y-7272400D01*
X-33042400Y-7272400D01*
X-33042400Y-8475600D01*
X-33042400Y-8475600D01*
G37*
G36*
X-31605600Y-6962600D02*
X-32808800Y-6962600D01*
X-32808800Y-5659400D01*
X-31605600Y-5659400D01*
X-31605600Y-6962600D01*
X-31605600Y-6962600D01*
G37*
G36*
X-10826944Y-2875694D02*
X-10703143Y-2900319D01*
X-10606534Y-2940336D01*
X-10469908Y-2996928D01*
X-10259997Y-3137186D01*
X-10081490Y-3315693D01*
X-9941232Y-3525604D01*
X-9844623Y-3758840D01*
X-9795372Y-4006440D01*
X-9795372Y-4258896D01*
X-9844623Y-4506496D01*
X-9941232Y-4739732D01*
X-10081490Y-4949643D01*
X-10259997Y-5128150D01*
X-10469908Y-5268408D01*
X-10606534Y-5325000D01*
X-10703143Y-5365017D01*
X-10826944Y-5389642D01*
X-10950744Y-5414268D01*
X-11203200Y-5414268D01*
X-11327000Y-5389642D01*
X-11450801Y-5365017D01*
X-11547410Y-5325000D01*
X-11684036Y-5268408D01*
X-11893947Y-5128150D01*
X-12072454Y-4949643D01*
X-12212712Y-4739732D01*
X-12309321Y-4506496D01*
X-12358572Y-4258896D01*
X-12358572Y-4006440D01*
X-12309321Y-3758840D01*
X-12212712Y-3525604D01*
X-12072454Y-3315693D01*
X-11893947Y-3137186D01*
X-11684036Y-2996928D01*
X-11547410Y-2940336D01*
X-11450801Y-2900319D01*
X-11327000Y-2875694D01*
X-11203200Y-2851068D01*
X-10950744Y-2851068D01*
X-10826944Y-2875694D01*
X-10826944Y-2875694D01*
G37*
G36*
X-31605600Y-5262600D02*
X-32808800Y-5262600D01*
X-32808800Y-3959400D01*
X-31605600Y-3959400D01*
X-31605600Y-5262600D01*
X-31605600Y-5262600D01*
G37*
G36*
X-21168372Y-3507068D02*
X-22321572Y-3507068D01*
X-22321572Y-2003868D01*
X-21168372Y-2003868D01*
X-21168372Y-3507068D01*
X-21168372Y-3507068D01*
G37*
G36*
X-18857372Y-2682268D02*
X-20060572Y-2682268D01*
X-20060572Y-1379068D01*
X-18857372Y-1379068D01*
X-18857372Y-2682268D01*
X-18857372Y-2682268D01*
G37*
G36*
X-13259304Y111231D02*
X-13143154Y88127D01*
X-12997272Y27701D01*
X-12865982Y-60024D01*
X-12754328Y-171678D01*
X-12666603Y-302968D01*
X-12606177Y-448850D01*
X-12575372Y-603717D01*
X-12575372Y-761619D01*
X-12606177Y-916486D01*
X-12666603Y-1062368D01*
X-12754328Y-1193658D01*
X-12865982Y-1305312D01*
X-12997272Y-1393037D01*
X-13143154Y-1453463D01*
X-13259304Y-1476567D01*
X-13298020Y-1484268D01*
X-13455924Y-1484268D01*
X-13494640Y-1476567D01*
X-13610790Y-1453463D01*
X-13756672Y-1393037D01*
X-13887962Y-1305312D01*
X-13999616Y-1193658D01*
X-14087341Y-1062368D01*
X-14147767Y-916486D01*
X-14178572Y-761619D01*
X-14178572Y-603717D01*
X-14147767Y-448850D01*
X-14087341Y-302968D01*
X-13999616Y-171678D01*
X-13887962Y-60024D01*
X-13756672Y27701D01*
X-13610790Y88127D01*
X-13494640Y111231D01*
X-13455924Y118932D01*
X-13298020Y118932D01*
X-13259304Y111231D01*
X-13259304Y111231D01*
G37*
G36*
X-18857372Y-982268D02*
X-20060572Y-982268D01*
X-20060572Y320932D01*
X-18857372Y320932D01*
X-18857372Y-982268D01*
X-18857372Y-982268D01*
G37*
G36*
X-21168372Y-662268D02*
X-22321572Y-662268D01*
X-22321572Y840932D01*
X-21168372Y840932D01*
X-21168372Y-662268D01*
X-21168372Y-662268D01*
G37*
G36*
X-15799304Y1131231D02*
X-15683154Y1108127D01*
X-15537272Y1047701D01*
X-15405982Y959976D01*
X-15294328Y848322D01*
X-15206603Y717032D01*
X-15146177Y571150D01*
X-15115372Y416283D01*
X-15115372Y258381D01*
X-15146177Y103514D01*
X-15206603Y-42368D01*
X-15294328Y-173658D01*
X-15405982Y-285312D01*
X-15537272Y-373037D01*
X-15683154Y-433463D01*
X-15799304Y-456567D01*
X-15838020Y-464268D01*
X-15995924Y-464268D01*
X-16034640Y-456567D01*
X-16150790Y-433463D01*
X-16296672Y-373037D01*
X-16427962Y-285312D01*
X-16539616Y-173658D01*
X-16627341Y-42368D01*
X-16687767Y103514D01*
X-16718572Y258381D01*
X-16718572Y416283D01*
X-16687767Y571150D01*
X-16627341Y717032D01*
X-16539616Y848322D01*
X-16427962Y959976D01*
X-16296672Y1047701D01*
X-16150790Y1108127D01*
X-16034640Y1131231D01*
X-15995924Y1138932D01*
X-15838020Y1138932D01*
X-15799304Y1131231D01*
X-15799304Y1131231D01*
G37*
G36*
X-13259304Y2151231D02*
X-13143154Y2128127D01*
X-12997272Y2067701D01*
X-12865982Y1979976D01*
X-12754328Y1868322D01*
X-12666603Y1737032D01*
X-12606177Y1591150D01*
X-12575372Y1436283D01*
X-12575372Y1278381D01*
X-12606177Y1123514D01*
X-12666603Y977632D01*
X-12754328Y846342D01*
X-12865982Y734688D01*
X-12997272Y646963D01*
X-13143154Y586537D01*
X-13259304Y563433D01*
X-13298020Y555732D01*
X-13455924Y555732D01*
X-13494640Y563433D01*
X-13610790Y586537D01*
X-13756672Y646963D01*
X-13887962Y734688D01*
X-13999616Y846342D01*
X-14087341Y977632D01*
X-14147767Y1123514D01*
X-14178572Y1278381D01*
X-14178572Y1436283D01*
X-14147767Y1591150D01*
X-14087341Y1737032D01*
X-13999616Y1868322D01*
X-13887962Y1979976D01*
X-13756672Y2067701D01*
X-13610790Y2128127D01*
X-13494640Y2151231D01*
X-13455924Y2158932D01*
X-13298020Y2158932D01*
X-13259304Y2151231D01*
X-13259304Y2151231D01*
G37*
G36*
X-15799304Y3171231D02*
X-15683154Y3148127D01*
X-15537272Y3087701D01*
X-15405982Y2999976D01*
X-15294328Y2888322D01*
X-15206603Y2757032D01*
X-15146177Y2611150D01*
X-15115372Y2456283D01*
X-15115372Y2298381D01*
X-15146177Y2143514D01*
X-15206603Y1997632D01*
X-15294328Y1866342D01*
X-15405982Y1754688D01*
X-15537272Y1666963D01*
X-15683154Y1606537D01*
X-15799304Y1583433D01*
X-15838020Y1575732D01*
X-15995924Y1575732D01*
X-16034640Y1583433D01*
X-16150790Y1606537D01*
X-16296672Y1666963D01*
X-16427962Y1754688D01*
X-16539616Y1866342D01*
X-16627341Y1997632D01*
X-16687767Y2143514D01*
X-16718572Y2298381D01*
X-16718572Y2456283D01*
X-16687767Y2611150D01*
X-16627341Y2757032D01*
X-16539616Y2888322D01*
X-16427962Y2999976D01*
X-16296672Y3087701D01*
X-16150790Y3148127D01*
X-16034640Y3171231D01*
X-15995924Y3178932D01*
X-15838020Y3178932D01*
X-15799304Y3171231D01*
X-15799304Y3171231D01*
G37*
G36*
X-21168372Y1725332D02*
X-22321572Y1725332D01*
X-22321572Y3228532D01*
X-21168372Y3228532D01*
X-21168372Y1725332D01*
X-21168372Y1725332D01*
G37*
G36*
X-18857372Y2397732D02*
X-20060572Y2397732D01*
X-20060572Y3700932D01*
X-18857372Y3700932D01*
X-18857372Y2397732D01*
X-18857372Y2397732D01*
G37*
G36*
X-13259304Y4191231D02*
X-13143154Y4168127D01*
X-12997272Y4107701D01*
X-12865982Y4019976D01*
X-12754328Y3908322D01*
X-12666603Y3777032D01*
X-12606177Y3631150D01*
X-12575372Y3476283D01*
X-12575372Y3318381D01*
X-12606177Y3163514D01*
X-12666603Y3017632D01*
X-12754328Y2886342D01*
X-12865982Y2774688D01*
X-12997272Y2686963D01*
X-13143154Y2626537D01*
X-13259304Y2603433D01*
X-13298020Y2595732D01*
X-13455924Y2595732D01*
X-13494640Y2603433D01*
X-13610790Y2626537D01*
X-13756672Y2686963D01*
X-13887962Y2774688D01*
X-13999616Y2886342D01*
X-14087341Y3017632D01*
X-14147767Y3163514D01*
X-14178572Y3318381D01*
X-14178572Y3476283D01*
X-14147767Y3631150D01*
X-14087341Y3777032D01*
X-13999616Y3908322D01*
X-13887962Y4019976D01*
X-13756672Y4107701D01*
X-13610790Y4168127D01*
X-13494640Y4191231D01*
X-13455924Y4198932D01*
X-13298020Y4198932D01*
X-13259304Y4191231D01*
X-13259304Y4191231D01*
G37*
G36*
X-15799304Y5211231D02*
X-15683154Y5188127D01*
X-15537272Y5127701D01*
X-15405982Y5039976D01*
X-15294328Y4928322D01*
X-15206603Y4797032D01*
X-15146177Y4651150D01*
X-15115372Y4496283D01*
X-15115372Y4338381D01*
X-15146177Y4183514D01*
X-15206603Y4037632D01*
X-15294328Y3906342D01*
X-15405982Y3794688D01*
X-15537272Y3706963D01*
X-15683154Y3646537D01*
X-15799304Y3623433D01*
X-15838020Y3615732D01*
X-15995924Y3615732D01*
X-16034640Y3623433D01*
X-16150790Y3646537D01*
X-16296672Y3706963D01*
X-16427962Y3794688D01*
X-16539616Y3906342D01*
X-16627341Y4037632D01*
X-16687767Y4183514D01*
X-16718572Y4338381D01*
X-16718572Y4496283D01*
X-16687767Y4651150D01*
X-16627341Y4797032D01*
X-16539616Y4928322D01*
X-16427962Y5039976D01*
X-16296672Y5127701D01*
X-16150790Y5188127D01*
X-16034640Y5211231D01*
X-15995924Y5218932D01*
X-15838020Y5218932D01*
X-15799304Y5211231D01*
X-15799304Y5211231D01*
G37*
G36*
X-18857372Y4097732D02*
X-20060572Y4097732D01*
X-20060572Y5400932D01*
X-18857372Y5400932D01*
X-18857372Y4097732D01*
X-18857372Y4097732D01*
G37*
G36*
X-21168372Y4570132D02*
X-22321572Y4570132D01*
X-22321572Y6073332D01*
X-21168372Y6073332D01*
X-21168372Y4570132D01*
X-21168372Y4570132D01*
G37*
G36*
X-10826944Y9124306D02*
X-10703143Y9099681D01*
X-10606534Y9059664D01*
X-10469908Y9003072D01*
X-10259997Y8862814D01*
X-10081490Y8684307D01*
X-9941232Y8474396D01*
X-9844623Y8241160D01*
X-9795372Y7993560D01*
X-9795372Y7741104D01*
X-9844623Y7493504D01*
X-9941232Y7260268D01*
X-10081490Y7050357D01*
X-10259997Y6871850D01*
X-10469908Y6731592D01*
X-10606534Y6675000D01*
X-10703143Y6634983D01*
X-10826944Y6610357D01*
X-10950744Y6585732D01*
X-11203200Y6585732D01*
X-11327000Y6610357D01*
X-11450801Y6634983D01*
X-11547410Y6675000D01*
X-11684036Y6731592D01*
X-11893947Y6871850D01*
X-12072454Y7050357D01*
X-12212712Y7260268D01*
X-12309321Y7493504D01*
X-12358572Y7741104D01*
X-12358572Y7993560D01*
X-12309321Y8241160D01*
X-12212712Y8474396D01*
X-12072454Y8684307D01*
X-11893947Y8862814D01*
X-11684036Y9003072D01*
X-11547410Y9059664D01*
X-11450801Y9099681D01*
X-11327000Y9124306D01*
X-11203200Y9148932D01*
X-10950744Y9148932D01*
X-10826944Y9124306D01*
X-10826944Y9124306D01*
G37*
G36*
X-10812944Y12624306D02*
X-10689143Y12599681D01*
X-10592534Y12559664D01*
X-10455908Y12503072D01*
X-10245997Y12362814D01*
X-10067490Y12184307D01*
X-9927232Y11974396D01*
X-9830623Y11741160D01*
X-9781372Y11493560D01*
X-9781372Y11241104D01*
X-9830623Y10993504D01*
X-9927232Y10760268D01*
X-10067490Y10550357D01*
X-10245997Y10371850D01*
X-10455908Y10231592D01*
X-10592534Y10175000D01*
X-10689143Y10134983D01*
X-10812944Y10110358D01*
X-10936744Y10085732D01*
X-11189200Y10085732D01*
X-11313000Y10110358D01*
X-11436801Y10134983D01*
X-11533410Y10175000D01*
X-11670036Y10231592D01*
X-11879947Y10371850D01*
X-12058454Y10550357D01*
X-12198712Y10760268D01*
X-12295321Y10993504D01*
X-12344572Y11241104D01*
X-12344572Y11493560D01*
X-12295321Y11741160D01*
X-12198712Y11974396D01*
X-12058454Y12184307D01*
X-11879947Y12362814D01*
X-11670036Y12503072D01*
X-11533410Y12559664D01*
X-11436801Y12599681D01*
X-11313000Y12624306D01*
X-11189200Y12648932D01*
X-10936744Y12648932D01*
X-10812944Y12624306D01*
X-10812944Y12624306D01*
G37*
G36*
X-13245304Y15611231D02*
X-13129154Y15588127D01*
X-12983272Y15527701D01*
X-12851982Y15439976D01*
X-12740328Y15328322D01*
X-12652603Y15197032D01*
X-12592177Y15051150D01*
X-12561372Y14896283D01*
X-12561372Y14738381D01*
X-12592177Y14583514D01*
X-12652603Y14437632D01*
X-12740328Y14306342D01*
X-12851982Y14194688D01*
X-12983272Y14106963D01*
X-13129154Y14046537D01*
X-13245304Y14023433D01*
X-13284020Y14015732D01*
X-13441924Y14015732D01*
X-13480640Y14023433D01*
X-13596790Y14046537D01*
X-13742672Y14106963D01*
X-13873962Y14194688D01*
X-13985616Y14306342D01*
X-14073341Y14437632D01*
X-14133767Y14583514D01*
X-14164572Y14738381D01*
X-14164572Y14896283D01*
X-14133767Y15051150D01*
X-14073341Y15197032D01*
X-13985616Y15328322D01*
X-13873962Y15439976D01*
X-13742672Y15527701D01*
X-13596790Y15588127D01*
X-13480640Y15611231D01*
X-13441924Y15618932D01*
X-13284020Y15618932D01*
X-13245304Y15611231D01*
X-13245304Y15611231D01*
G37*
G36*
X-19278172Y14219732D02*
X-20581372Y14219732D01*
X-20581372Y15422932D01*
X-19278172Y15422932D01*
X-19278172Y14219732D01*
X-19278172Y14219732D01*
G37*
G36*
X-20978172Y14219732D02*
X-22281372Y14219732D01*
X-22281372Y15422932D01*
X-20978172Y15422932D01*
X-20978172Y14219732D01*
X-20978172Y14219732D01*
G37*
G36*
X-26175172Y14600332D02*
X-27678372Y14600332D01*
X-27678372Y15753532D01*
X-26175172Y15753532D01*
X-26175172Y14600332D01*
X-26175172Y14600332D01*
G37*
G36*
X-23330372Y14600332D02*
X-24833572Y14600332D01*
X-24833572Y15753532D01*
X-23330372Y15753532D01*
X-23330372Y14600332D01*
X-23330372Y14600332D01*
G37*
G36*
X-15785304Y16631231D02*
X-15669154Y16608127D01*
X-15523272Y16547701D01*
X-15391982Y16459976D01*
X-15280328Y16348322D01*
X-15192603Y16217032D01*
X-15132177Y16071150D01*
X-15109073Y15955000D01*
X-15101372Y15916284D01*
X-15101372Y15758380D01*
X-15109073Y15719664D01*
X-15132177Y15603514D01*
X-15192603Y15457632D01*
X-15280328Y15326342D01*
X-15391982Y15214688D01*
X-15523272Y15126963D01*
X-15669154Y15066537D01*
X-15785304Y15043433D01*
X-15824020Y15035732D01*
X-15981924Y15035732D01*
X-16020640Y15043433D01*
X-16136790Y15066537D01*
X-16282672Y15126963D01*
X-16413962Y15214688D01*
X-16525616Y15326342D01*
X-16613341Y15457632D01*
X-16673767Y15603514D01*
X-16696871Y15719664D01*
X-16704572Y15758380D01*
X-16704572Y15916284D01*
X-16696871Y15955000D01*
X-16673767Y16071150D01*
X-16613341Y16217032D01*
X-16525616Y16348322D01*
X-16413962Y16459976D01*
X-16282672Y16547701D01*
X-16136790Y16608127D01*
X-16020640Y16631231D01*
X-15981924Y16638932D01*
X-15824020Y16638932D01*
X-15785304Y16631231D01*
X-15785304Y16631231D01*
G37*
G36*
X-19278172Y15896132D02*
X-20581372Y15896132D01*
X-20581372Y17099332D01*
X-19278172Y17099332D01*
X-19278172Y15896132D01*
X-19278172Y15896132D01*
G37*
G36*
X-20978172Y15896132D02*
X-22281372Y15896132D01*
X-22281372Y17099332D01*
X-20978172Y17099332D01*
X-20978172Y15896132D01*
X-20978172Y15896132D01*
G37*
G36*
X-13245304Y17651231D02*
X-13129154Y17628127D01*
X-12983272Y17567701D01*
X-12851982Y17479976D01*
X-12740328Y17368322D01*
X-12652603Y17237032D01*
X-12592177Y17091150D01*
X-12561372Y16936283D01*
X-12561372Y16778381D01*
X-12592177Y16623514D01*
X-12652603Y16477632D01*
X-12740328Y16346342D01*
X-12851982Y16234688D01*
X-12983272Y16146963D01*
X-13129154Y16086537D01*
X-13245304Y16063433D01*
X-13284020Y16055732D01*
X-13441924Y16055732D01*
X-13480640Y16063433D01*
X-13596790Y16086537D01*
X-13742672Y16146963D01*
X-13873962Y16234688D01*
X-13985616Y16346342D01*
X-14073341Y16477632D01*
X-14133767Y16623514D01*
X-14164572Y16778381D01*
X-14164572Y16936283D01*
X-14133767Y17091150D01*
X-14073341Y17237032D01*
X-13985616Y17368322D01*
X-13873962Y17479976D01*
X-13742672Y17567701D01*
X-13596790Y17628127D01*
X-13480640Y17651231D01*
X-13441924Y17658932D01*
X-13284020Y17658932D01*
X-13245304Y17651231D01*
X-13245304Y17651231D01*
G37*
G36*
X-23330172Y17038732D02*
X-24833372Y17038732D01*
X-24833372Y18191932D01*
X-23330172Y18191932D01*
X-23330172Y17038732D01*
X-23330172Y17038732D01*
G37*
G36*
X-26174972Y17038732D02*
X-27678172Y17038732D01*
X-27678172Y18191932D01*
X-26174972Y18191932D01*
X-26174972Y17038732D01*
X-26174972Y17038732D01*
G37*
G36*
X-15785304Y18671231D02*
X-15669154Y18648127D01*
X-15523272Y18587701D01*
X-15391982Y18499976D01*
X-15280328Y18388322D01*
X-15192603Y18257032D01*
X-15132177Y18111150D01*
X-15101372Y17956283D01*
X-15101372Y17798381D01*
X-15132177Y17643514D01*
X-15192603Y17497632D01*
X-15280328Y17366342D01*
X-15391982Y17254688D01*
X-15523272Y17166963D01*
X-15669154Y17106537D01*
X-15785304Y17083433D01*
X-15824020Y17075732D01*
X-15981924Y17075732D01*
X-16020640Y17083433D01*
X-16136790Y17106537D01*
X-16282672Y17166963D01*
X-16413962Y17254688D01*
X-16525616Y17366342D01*
X-16613341Y17497632D01*
X-16673767Y17643514D01*
X-16704572Y17798381D01*
X-16704572Y17956283D01*
X-16673767Y18111150D01*
X-16613341Y18257032D01*
X-16525616Y18388322D01*
X-16413962Y18499976D01*
X-16282672Y18587701D01*
X-16136790Y18648127D01*
X-16020640Y18671231D01*
X-15981924Y18678932D01*
X-15824020Y18678932D01*
X-15785304Y18671231D01*
X-15785304Y18671231D01*
G37*
G36*
X-19278172Y17521732D02*
X-20581372Y17521732D01*
X-20581372Y18724932D01*
X-19278172Y18724932D01*
X-19278172Y17521732D01*
X-19278172Y17521732D01*
G37*
G36*
X-20978172Y17521732D02*
X-22281372Y17521732D01*
X-22281372Y18724932D01*
X-20978172Y18724932D01*
X-20978172Y17521732D01*
X-20978172Y17521732D01*
G37*
G36*
X-13245304Y19691231D02*
X-13129154Y19668127D01*
X-12983272Y19607701D01*
X-12851982Y19519976D01*
X-12740328Y19408322D01*
X-12652603Y19277032D01*
X-12592177Y19131150D01*
X-12561372Y18976283D01*
X-12561372Y18818381D01*
X-12592177Y18663514D01*
X-12652603Y18517632D01*
X-12740328Y18386342D01*
X-12851982Y18274688D01*
X-12983272Y18186963D01*
X-13129154Y18126537D01*
X-13245304Y18103433D01*
X-13284020Y18095732D01*
X-13441924Y18095732D01*
X-13480640Y18103433D01*
X-13596790Y18126537D01*
X-13742672Y18186963D01*
X-13873962Y18274688D01*
X-13985616Y18386342D01*
X-14073341Y18517632D01*
X-14133767Y18663514D01*
X-14164572Y18818381D01*
X-14164572Y18976283D01*
X-14133767Y19131150D01*
X-14073341Y19277032D01*
X-13985616Y19408322D01*
X-13873962Y19519976D01*
X-13742672Y19607701D01*
X-13596790Y19668127D01*
X-13480640Y19691231D01*
X-13441924Y19698932D01*
X-13284020Y19698932D01*
X-13245304Y19691231D01*
X-13245304Y19691231D01*
G37*
G36*
X-15785304Y20711231D02*
X-15669154Y20688127D01*
X-15523272Y20627701D01*
X-15391982Y20539976D01*
X-15280328Y20428322D01*
X-15192603Y20297032D01*
X-15132177Y20151150D01*
X-15101372Y19996283D01*
X-15101372Y19838381D01*
X-15132177Y19683514D01*
X-15192603Y19537632D01*
X-15280328Y19406342D01*
X-15391982Y19294688D01*
X-15523272Y19206963D01*
X-15669154Y19146537D01*
X-15785304Y19123433D01*
X-15824020Y19115732D01*
X-15981924Y19115732D01*
X-16020640Y19123433D01*
X-16136790Y19146537D01*
X-16282672Y19206963D01*
X-16413962Y19294688D01*
X-16525616Y19406342D01*
X-16613341Y19537632D01*
X-16673767Y19683514D01*
X-16704572Y19838381D01*
X-16704572Y19996283D01*
X-16673767Y20151150D01*
X-16613341Y20297032D01*
X-16525616Y20428322D01*
X-16413962Y20539976D01*
X-16282672Y20627701D01*
X-16136790Y20688127D01*
X-16020640Y20711231D01*
X-15981924Y20718932D01*
X-15824020Y20718932D01*
X-15785304Y20711231D01*
X-15785304Y20711231D01*
G37*
G36*
X-19278172Y19147332D02*
X-20581372Y19147332D01*
X-20581372Y20350532D01*
X-19278172Y20350532D01*
X-19278172Y19147332D01*
X-19278172Y19147332D01*
G37*
G36*
X-20978172Y19147332D02*
X-22281372Y19147332D01*
X-22281372Y20350532D01*
X-20978172Y20350532D01*
X-20978172Y19147332D01*
X-20978172Y19147332D01*
G37*
G36*
X-26174972Y19324732D02*
X-27678172Y19324732D01*
X-27678172Y20477932D01*
X-26174972Y20477932D01*
X-26174972Y19324732D01*
X-26174972Y19324732D01*
G37*
G36*
X-23330172Y19324732D02*
X-24833372Y19324732D01*
X-24833372Y20477932D01*
X-23330172Y20477932D01*
X-23330172Y19324732D01*
X-23330172Y19324732D01*
G37*
G36*
X-19278172Y20874532D02*
X-20581372Y20874532D01*
X-20581372Y22077732D01*
X-19278172Y22077732D01*
X-19278172Y20874532D01*
X-19278172Y20874532D01*
G37*
G36*
X-20978172Y20874532D02*
X-22281372Y20874532D01*
X-22281372Y22077732D01*
X-20978172Y22077732D01*
X-20978172Y20874532D01*
X-20978172Y20874532D01*
G37*
G36*
X-10812944Y24624307D02*
X-10689143Y24599681D01*
X-10592534Y24559664D01*
X-10455908Y24503072D01*
X-10245997Y24362814D01*
X-10067490Y24184307D01*
X-9927232Y23974396D01*
X-9870640Y23837770D01*
X-9830623Y23741161D01*
X-9781372Y23493559D01*
X-9781372Y23241105D01*
X-9830623Y22993503D01*
X-9870640Y22896894D01*
X-9927232Y22760268D01*
X-10067490Y22550357D01*
X-10245997Y22371850D01*
X-10455908Y22231592D01*
X-10592534Y22175000D01*
X-10689143Y22134983D01*
X-10812944Y22110358D01*
X-10936744Y22085732D01*
X-11189200Y22085732D01*
X-11313000Y22110358D01*
X-11436801Y22134983D01*
X-11533410Y22175000D01*
X-11670036Y22231592D01*
X-11879947Y22371850D01*
X-12058454Y22550357D01*
X-12198712Y22760268D01*
X-12255304Y22896894D01*
X-12295321Y22993503D01*
X-12344572Y23241105D01*
X-12344572Y23493559D01*
X-12295321Y23741161D01*
X-12255304Y23837770D01*
X-12198712Y23974396D01*
X-12058454Y24184307D01*
X-11879947Y24362814D01*
X-11670036Y24503072D01*
X-11533410Y24559664D01*
X-11436801Y24599681D01*
X-11313000Y24624307D01*
X-11189200Y24648932D01*
X-10936744Y24648932D01*
X-10812944Y24624307D01*
X-10812944Y24624307D01*
G37*
G36*
X-21806172Y22982332D02*
X-23309372Y22982332D01*
X-23309372Y24135532D01*
X-21806172Y24135532D01*
X-21806172Y22982332D01*
X-21806172Y22982332D01*
G37*
G36*
X-18961372Y22982332D02*
X-20464572Y22982332D01*
X-20464572Y24135532D01*
X-18961372Y24135532D01*
X-18961372Y22982332D01*
X-18961372Y22982332D01*
G37*
G36*
X-6818473Y29000571D02*
X-6608139Y28958733D01*
X-6343964Y28849309D01*
X-6106214Y28690449D01*
X-5904023Y28488258D01*
X-5745163Y28250508D01*
X-5635739Y27986333D01*
X-5579955Y27705887D01*
X-5579955Y27419947D01*
X-5635739Y27139501D01*
X-5745163Y26875326D01*
X-5904023Y26637576D01*
X-6106214Y26435385D01*
X-6343964Y26276525D01*
X-6608139Y26167101D01*
X-6818473Y26125263D01*
X-6888584Y26111317D01*
X-7174526Y26111317D01*
X-7244637Y26125263D01*
X-7454971Y26167101D01*
X-7719146Y26276525D01*
X-7956896Y26435385D01*
X-8159087Y26637576D01*
X-8317947Y26875326D01*
X-8427371Y27139501D01*
X-8483155Y27419947D01*
X-8483155Y27705887D01*
X-8427371Y27986333D01*
X-8317947Y28250508D01*
X-8159087Y28488258D01*
X-7956896Y28690449D01*
X-7719146Y28849309D01*
X-7454971Y28958733D01*
X-7244637Y29000571D01*
X-7174526Y29014517D01*
X-6888584Y29014517D01*
X-6818473Y29000571D01*
X-6818473Y29000571D01*
G37*
G36*
X-40048473Y29000571D02*
X-39838139Y28958733D01*
X-39573964Y28849309D01*
X-39336214Y28690449D01*
X-39134023Y28488258D01*
X-38975163Y28250508D01*
X-38865739Y27986333D01*
X-38809955Y27705887D01*
X-38809955Y27419947D01*
X-38865739Y27139501D01*
X-38975163Y26875326D01*
X-39134023Y26637576D01*
X-39336214Y26435385D01*
X-39573964Y26276525D01*
X-39838139Y26167101D01*
X-40048473Y26125263D01*
X-40118584Y26111317D01*
X-40404526Y26111317D01*
X-40474637Y26125263D01*
X-40684971Y26167101D01*
X-40949146Y26276525D01*
X-41186896Y26435385D01*
X-41389087Y26637576D01*
X-41547947Y26875326D01*
X-41657371Y27139501D01*
X-41713155Y27419947D01*
X-41713155Y27705887D01*
X-41657371Y27986333D01*
X-41547947Y28250508D01*
X-41389087Y28488258D01*
X-41186896Y28690449D01*
X-40949146Y28849309D01*
X-40684971Y28958733D01*
X-40474637Y29000571D01*
X-40404526Y29014517D01*
X-40118584Y29014517D01*
X-40048473Y29000571D01*
X-40048473Y29000571D01*
G37*
M02*
