G04 #@! TF.GenerationSoftware,KiCad,Pcbnew,(5.0.0)*
G04 #@! TF.CreationDate,2018-12-20T12:11:04-05:00*
G04 #@! TF.ProjectId,fk-weather,666B2D776561746865722E6B69636164,0.1*
G04 #@! TF.SameCoordinates,PX791ddc0PY791ddc0*
G04 #@! TF.FileFunction,Copper,L1,Top,Signal*
G04 #@! TF.FilePolarity,Positive*
%FSLAX46Y46*%
G04 Gerber Fmt 4.6, Leading zero omitted, Abs format (unit mm)*
G04 Created by KiCad (PCBNEW (5.0.0)) date 12/20/18 12:11:04*
%MOMM*%
%LPD*%
G01*
G04 APERTURE LIST*
G04 #@! TA.AperFunction,SMDPad,CuDef*
%ADD10C,1.000000*%
G04 #@! TD*
G04 #@! TA.AperFunction,Conductor*
%ADD11C,0.100000*%
G04 #@! TD*
G04 #@! TA.AperFunction,SMDPad,CuDef*
%ADD12R,1.100000X1.000000*%
G04 #@! TD*
G04 #@! TA.AperFunction,SMDPad,CuDef*
%ADD13R,0.600000X2.000000*%
G04 #@! TD*
G04 #@! TA.AperFunction,SMDPad,CuDef*
%ADD14R,1.700000X0.600000*%
G04 #@! TD*
G04 #@! TA.AperFunction,SMDPad,CuDef*
%ADD15R,2.800000X1.000000*%
G04 #@! TD*
G04 #@! TA.AperFunction,SMDPad,CuDef*
%ADD16R,1.000000X1.100000*%
G04 #@! TD*
G04 #@! TA.AperFunction,SMDPad,CuDef*
%ADD17R,1.550000X0.600000*%
G04 #@! TD*
G04 #@! TA.AperFunction,SMDPad,CuDef*
%ADD18R,1.800000X1.200000*%
G04 #@! TD*
G04 #@! TA.AperFunction,SMDPad,CuDef*
%ADD19R,2.000000X0.600000*%
G04 #@! TD*
G04 #@! TA.AperFunction,ComponentPad*
%ADD20O,1.600000X1.651000*%
G04 #@! TD*
G04 #@! TA.AperFunction,SMDPad,CuDef*
%ADD21R,1.500000X0.450000*%
G04 #@! TD*
G04 #@! TA.AperFunction,ComponentPad*
%ADD22O,1.100000X1.800000*%
G04 #@! TD*
G04 #@! TA.AperFunction,ComponentPad*
%ADD23O,1.100000X2.200000*%
G04 #@! TD*
G04 #@! TA.AperFunction,SMDPad,CuDef*
%ADD24R,0.750000X2.500000*%
G04 #@! TD*
G04 #@! TA.AperFunction,SMDPad,CuDef*
%ADD25R,1.000000X0.700000*%
G04 #@! TD*
G04 #@! TA.AperFunction,SMDPad,CuDef*
%ADD26R,0.600000X0.700000*%
G04 #@! TD*
G04 #@! TA.AperFunction,SMDPad,CuDef*
%ADD27R,1.500000X1.000000*%
G04 #@! TD*
G04 #@! TA.AperFunction,SMDPad,CuDef*
%ADD28R,1.050000X0.650000*%
G04 #@! TD*
G04 #@! TA.AperFunction,SMDPad,CuDef*
%ADD29C,0.250000*%
G04 #@! TD*
G04 #@! TA.AperFunction,SMDPad,CuDef*
%ADD30R,0.800000X1.200000*%
G04 #@! TD*
G04 #@! TA.AperFunction,SMDPad,CuDef*
%ADD31R,0.800000X2.200000*%
G04 #@! TD*
G04 #@! TA.AperFunction,SMDPad,CuDef*
%ADD32R,2.000000X2.500000*%
G04 #@! TD*
G04 #@! TA.AperFunction,SMDPad,CuDef*
%ADD33C,1.100000*%
G04 #@! TD*
G04 #@! TA.AperFunction,SMDPad,CuDef*
%ADD34R,0.700000X1.450000*%
G04 #@! TD*
G04 #@! TA.AperFunction,SMDPad,CuDef*
%ADD35R,0.900000X1.500000*%
G04 #@! TD*
G04 #@! TA.AperFunction,SMDPad,CuDef*
%ADD36R,1.100000X1.900000*%
G04 #@! TD*
G04 #@! TA.AperFunction,SMDPad,CuDef*
%ADD37R,1.300000X0.950000*%
G04 #@! TD*
G04 #@! TA.AperFunction,SMDPad,CuDef*
%ADD38R,0.950000X1.300000*%
G04 #@! TD*
G04 #@! TA.AperFunction,SMDPad,CuDef*
%ADD39R,3.000000X0.600000*%
G04 #@! TD*
G04 #@! TA.AperFunction,ComponentPad*
%ADD40C,1.400000*%
G04 #@! TD*
G04 #@! TA.AperFunction,ViaPad*
%ADD41C,0.500000*%
G04 #@! TD*
G04 #@! TA.AperFunction,Conductor*
%ADD42C,0.254000*%
G04 #@! TD*
G04 #@! TA.AperFunction,Conductor*
%ADD43C,0.508000*%
G04 #@! TD*
G04 #@! TA.AperFunction,Conductor*
%ADD44C,0.203200*%
G04 #@! TD*
G04 #@! TA.AperFunction,Conductor*
%ADD45C,0.762000*%
G04 #@! TD*
G04 #@! TA.AperFunction,Conductor*
%ADD46C,0.381000*%
G04 #@! TD*
G04 #@! TA.AperFunction,Conductor*
%ADD47C,0.253000*%
G04 #@! TD*
G04 APERTURE END LIST*
D10*
G04 #@! TO.P,C2,1*
G04 #@! TO.N,GND*
X-26068959Y-25383159D03*
D11*
G04 #@! TD*
G04 #@! TO.N,GND*
G04 #@! TO.C,C2*
G36*
X-26033604Y-24640697D02*
X-25326497Y-25347804D01*
X-26104314Y-26125621D01*
X-26811421Y-25418514D01*
X-26033604Y-24640697D01*
X-26033604Y-24640697D01*
G37*
D10*
G04 #@! TO.P,C2,2*
G04 #@! TO.N,Net-(C2-Pad2)*
X-27271041Y-26585241D03*
D11*
G04 #@! TD*
G04 #@! TO.N,Net-(C2-Pad2)*
G04 #@! TO.C,C2*
G36*
X-27235686Y-25842779D02*
X-26528579Y-26549886D01*
X-27306396Y-27327703D01*
X-28013503Y-26620596D01*
X-27235686Y-25842779D01*
X-27235686Y-25842779D01*
G37*
D12*
G04 #@! TO.P,R19,2*
G04 #@! TO.N,3V3*
X-25388200Y-56413400D03*
G04 #@! TO.P,R19,1*
G04 #@! TO.N,/SDA1*
X-27088200Y-56413400D03*
G04 #@! TD*
G04 #@! TO.P,R20,1*
G04 #@! TO.N,/SCL1*
X-27088200Y-57988200D03*
G04 #@! TO.P,R20,2*
G04 #@! TO.N,3V3*
X-25388200Y-57988200D03*
G04 #@! TD*
G04 #@! TO.P,R18,2*
G04 #@! TO.N,3V3*
X-32576400Y-44907200D03*
G04 #@! TO.P,R18,1*
G04 #@! TO.N,/SCL2*
X-34276400Y-44907200D03*
G04 #@! TD*
G04 #@! TO.P,R16,1*
G04 #@! TO.N,/SDA2*
X-36056200Y-44856400D03*
G04 #@! TO.P,R16,2*
G04 #@! TO.N,3V3*
X-37756200Y-44856400D03*
G04 #@! TD*
D13*
G04 #@! TO.P,U6,8*
G04 #@! TO.N,3V3*
X-32943800Y-54805600D03*
G04 #@! TO.P,U6,7*
G04 #@! TO.N,Net-(U6-Pad7)*
X-31673800Y-54805600D03*
G04 #@! TO.P,U6,6*
G04 #@! TO.N,/SCL1*
X-30403800Y-54805600D03*
G04 #@! TO.P,U6,5*
G04 #@! TO.N,/SDA1*
X-29133800Y-54805600D03*
G04 #@! TO.P,U6,4*
G04 #@! TO.N,GND*
X-29133800Y-60205600D03*
G04 #@! TO.P,U6,3*
G04 #@! TO.N,Net-(BT1-Pad1)*
X-30403800Y-60205600D03*
G04 #@! TO.P,U6,2*
G04 #@! TO.N,Net-(U6-Pad2)*
X-31673800Y-60205600D03*
G04 #@! TO.P,U6,1*
G04 #@! TO.N,Net-(U6-Pad1)*
X-32943800Y-60205600D03*
G04 #@! TD*
D14*
G04 #@! TO.P,J4,1*
G04 #@! TO.N,3V3*
X-11094000Y-39527000D03*
G04 #@! TO.P,J4,2*
G04 #@! TO.N,GND*
X-11094000Y-40777000D03*
G04 #@! TO.P,J4,3*
G04 #@! TO.N,/SCL1*
X-11094000Y-42027000D03*
G04 #@! TO.P,J4,4*
G04 #@! TO.N,/SDA1*
X-11094000Y-43277000D03*
D15*
G04 #@! TO.P,J4,*
G04 #@! TO.N,*
X-7744000Y-37677000D03*
X-7744000Y-45127000D03*
G04 #@! TD*
D16*
G04 #@! TO.P,C16,1*
G04 #@! TO.N,3V3*
X-39268400Y-12241000D03*
G04 #@! TO.P,C16,2*
G04 #@! TO.N,GND*
X-39268400Y-10541000D03*
G04 #@! TD*
D17*
G04 #@! TO.P,J8,1*
G04 #@! TO.N,GND*
X-16996800Y-39978200D03*
G04 #@! TO.P,J8,2*
G04 #@! TO.N,3V3*
X-16996800Y-40978200D03*
G04 #@! TO.P,J8,3*
G04 #@! TO.N,/SDA1*
X-16996800Y-41978200D03*
G04 #@! TO.P,J8,4*
G04 #@! TO.N,/SCL1*
X-16996800Y-42978200D03*
D18*
G04 #@! TO.P,J8,*
G04 #@! TO.N,*
X-14471800Y-44528200D03*
X-14471800Y-38428200D03*
G04 #@! TD*
D12*
G04 #@! TO.P,C21,2*
G04 #@! TO.N,GND*
X-26582000Y-16662400D03*
G04 #@! TO.P,C21,1*
G04 #@! TO.N,/PERIPH_3V3*
X-28282000Y-16662400D03*
G04 #@! TD*
G04 #@! TO.P,C20,1*
G04 #@! TO.N,/PERIPH_3V3*
X-28256600Y-15138400D03*
G04 #@! TO.P,C20,2*
G04 #@! TO.N,GND*
X-26556600Y-15138400D03*
G04 #@! TD*
G04 #@! TO.P,D1,2*
G04 #@! TO.N,3V3*
X-18960200Y-59029600D03*
G04 #@! TO.P,D1,1*
G04 #@! TO.N,Net-(D1-Pad1)*
X-17260200Y-59029600D03*
G04 #@! TD*
G04 #@! TO.P,R14,2*
G04 #@! TO.N,GND*
X-24702400Y-13360400D03*
G04 #@! TO.P,R14,1*
G04 #@! TO.N,/PERIPH_3V3*
X-26402400Y-13360400D03*
G04 #@! TD*
G04 #@! TO.P,R13,1*
G04 #@! TO.N,/D8_PERIPH_EN*
X-38850200Y-15316200D03*
G04 #@! TO.P,R13,2*
G04 #@! TO.N,GND*
X-40550200Y-15316200D03*
G04 #@! TD*
D16*
G04 #@! TO.P,R15,2*
G04 #@! TO.N,GND*
X-32207200Y-4611000D03*
G04 #@! TO.P,R15,1*
G04 #@! TO.N,/WEATHER_3V3*
X-32207200Y-6311000D03*
G04 #@! TD*
D12*
G04 #@! TO.P,R12,1*
G04 #@! TO.N,Net-(R12-Pad1)*
X-31103200Y-16662400D03*
G04 #@! TO.P,R12,2*
G04 #@! TO.N,3V3*
X-32803200Y-16662400D03*
G04 #@! TD*
D19*
G04 #@! TO.P,U3,8*
G04 #@! TO.N,Net-(R5-Pad1)*
X-31158200Y-10769600D03*
G04 #@! TO.P,U3,7*
G04 #@! TO.N,/WEATHER_3V3*
X-31158200Y-12039600D03*
G04 #@! TO.P,U3,6*
G04 #@! TO.N,/PERIPH_3V3*
X-31158200Y-13309600D03*
G04 #@! TO.P,U3,5*
G04 #@! TO.N,Net-(R12-Pad1)*
X-31158200Y-14579600D03*
G04 #@! TO.P,U3,4*
G04 #@! TO.N,/D8_PERIPH_EN*
X-36558200Y-14579600D03*
G04 #@! TO.P,U3,3*
G04 #@! TO.N,/D7_WEATHER_EN*
X-36558200Y-13309600D03*
G04 #@! TO.P,U3,2*
G04 #@! TO.N,3V3*
X-36558200Y-12039600D03*
G04 #@! TO.P,U3,1*
G04 #@! TO.N,GND*
X-36558200Y-10769600D03*
G04 #@! TD*
D20*
G04 #@! TO.P,J5,*
G04 #@! TO.N,*
X-6777800Y-66688000D03*
X-6777800Y-60088000D03*
G04 #@! TD*
D21*
G04 #@! TO.P,J1,1*
G04 #@! TO.N,VUSB*
X-9910000Y-64800000D03*
D22*
G04 #@! TO.P,J1,6*
G04 #@! TO.N,Net-(C10-Pad1)*
X-10160000Y-66300000D03*
G04 #@! TO.P,J1,7*
G04 #@! TO.N,Net-(J1-Pad7)*
X-10160000Y-60700000D03*
D21*
G04 #@! TO.P,J1,3*
G04 #@! TO.N,/USB+*
X-9910000Y-63500000D03*
G04 #@! TO.P,J1,2*
G04 #@! TO.N,/USB-*
X-9910000Y-64150000D03*
G04 #@! TO.P,J1,4*
G04 #@! TO.N,Net-(J1-Pad4)*
X-9910000Y-62850000D03*
G04 #@! TO.P,J1,5*
G04 #@! TO.N,GND*
X-9910000Y-62200000D03*
D23*
G04 #@! TO.P,J1,8*
G04 #@! TO.N,Net-(J1-Pad8)*
X-8010000Y-63500000D03*
G04 #@! TD*
D24*
G04 #@! TO.P,J6,1*
G04 #@! TO.N,3V3*
X-21564600Y-24507800D03*
G04 #@! TO.P,J6,2*
G04 #@! TO.N,/SWDIO*
X-21564600Y-20507800D03*
G04 #@! TO.P,J6,3*
G04 #@! TO.N,GND*
X-20294600Y-24507800D03*
G04 #@! TO.P,J6,4*
G04 #@! TO.N,/SWCLK*
X-20294600Y-20507800D03*
G04 #@! TO.P,J6,5*
G04 #@! TO.N,GND*
X-19024600Y-24507800D03*
G04 #@! TO.P,J6,6*
G04 #@! TO.N,Net-(J6-Pad6)*
X-19024600Y-20507800D03*
G04 #@! TO.P,J6,7*
G04 #@! TO.N,Net-(J6-Pad7)*
X-17754600Y-24507800D03*
G04 #@! TO.P,J6,8*
G04 #@! TO.N,Net-(J6-Pad8)*
X-17754600Y-20507800D03*
G04 #@! TO.P,J6,9*
G04 #@! TO.N,GND*
X-16484600Y-24507800D03*
G04 #@! TO.P,J6,10*
G04 #@! TO.N,/RST*
X-16484600Y-20507800D03*
G04 #@! TD*
D14*
G04 #@! TO.P,J2,1*
G04 #@! TO.N,3V3*
X-11094000Y-49570000D03*
G04 #@! TO.P,J2,2*
G04 #@! TO.N,GND*
X-11094000Y-50820000D03*
G04 #@! TO.P,J2,3*
G04 #@! TO.N,Net-(J2-Pad3)*
X-11094000Y-52070000D03*
G04 #@! TO.P,J2,4*
G04 #@! TO.N,/SCL2*
X-11094000Y-53320000D03*
G04 #@! TO.P,J2,5*
G04 #@! TO.N,/SDA2*
X-11094000Y-54570000D03*
D15*
G04 #@! TO.P,J2,*
G04 #@! TO.N,*
X-7744000Y-47720000D03*
X-7744000Y-56420000D03*
G04 #@! TD*
D10*
G04 #@! TO.P,C1,1*
G04 #@! TO.N,GND*
X-27288159Y-24265559D03*
D11*
G04 #@! TD*
G04 #@! TO.N,GND*
G04 #@! TO.C,C1*
G36*
X-27252804Y-23523097D02*
X-26545697Y-24230204D01*
X-27323514Y-25008021D01*
X-28030621Y-24300914D01*
X-27252804Y-23523097D01*
X-27252804Y-23523097D01*
G37*
D10*
G04 #@! TO.P,C1,2*
G04 #@! TO.N,Net-(C1-Pad2)*
X-28490241Y-25467641D03*
D11*
G04 #@! TD*
G04 #@! TO.N,Net-(C1-Pad2)*
G04 #@! TO.C,C1*
G36*
X-28454886Y-24725179D02*
X-27747779Y-25432286D01*
X-28525596Y-26210103D01*
X-29232703Y-25502996D01*
X-28454886Y-24725179D01*
X-28454886Y-24725179D01*
G37*
D16*
G04 #@! TO.P,C3,1*
G04 #@! TO.N,3V3*
X-25082500Y-29869500D03*
G04 #@! TO.P,C3,2*
G04 #@! TO.N,GND*
X-25082500Y-28169500D03*
G04 #@! TD*
G04 #@! TO.P,C4,1*
G04 #@! TO.N,Net-(C4-Pad1)*
X-35648900Y-31002300D03*
G04 #@! TO.P,C4,2*
G04 #@! TO.N,GND*
X-35648900Y-29302300D03*
G04 #@! TD*
G04 #@! TO.P,C5,1*
G04 #@! TO.N,Net-(C5-Pad1)*
X-23469600Y-29882200D03*
G04 #@! TO.P,C5,2*
G04 #@! TO.N,GND*
X-23469600Y-28182200D03*
G04 #@! TD*
G04 #@! TO.P,C6,1*
G04 #@! TO.N,Net-(C14-Pad1)*
X-32486600Y-30491800D03*
G04 #@! TO.P,C6,2*
G04 #@! TO.N,GND*
X-32486600Y-28791800D03*
G04 #@! TD*
D12*
G04 #@! TO.P,C7,1*
G04 #@! TO.N,3V3*
X-21347800Y-38633400D03*
G04 #@! TO.P,C7,2*
G04 #@! TO.N,GND*
X-19647800Y-38633400D03*
G04 #@! TD*
D16*
G04 #@! TO.P,C8,1*
G04 #@! TO.N,3V3*
X-33528000Y-40972000D03*
G04 #@! TO.P,C8,2*
G04 #@! TO.N,GND*
X-33528000Y-42672000D03*
G04 #@! TD*
G04 #@! TO.P,C9,1*
G04 #@! TO.N,5V0*
X-27474992Y-70730862D03*
G04 #@! TO.P,C9,2*
G04 #@! TO.N,GND*
X-27474992Y-69030862D03*
G04 #@! TD*
G04 #@! TO.P,C10,1*
G04 #@! TO.N,Net-(C10-Pad1)*
X-12763500Y-70358000D03*
G04 #@! TO.P,C10,2*
G04 #@! TO.N,GND*
X-12763500Y-72058000D03*
G04 #@! TD*
D12*
G04 #@! TO.P,C11,1*
G04 #@! TO.N,5V0*
X-23780192Y-69093462D03*
G04 #@! TO.P,C11,2*
G04 #@! TO.N,GND*
X-25480192Y-69093462D03*
G04 #@! TD*
D16*
G04 #@! TO.P,C12,1*
G04 #@! TO.N,3V3*
X-27441485Y-63193861D03*
G04 #@! TO.P,C12,2*
G04 #@! TO.N,GND*
X-27441485Y-64893861D03*
G04 #@! TD*
D12*
G04 #@! TO.P,C13,1*
G04 #@! TO.N,/WEATHER_3V3*
X-33694000Y-7874000D03*
G04 #@! TO.P,C13,2*
G04 #@! TO.N,GND*
X-35394000Y-7874000D03*
G04 #@! TD*
D16*
G04 #@! TO.P,C14,1*
G04 #@! TO.N,Net-(C14-Pad1)*
X-34061400Y-30491800D03*
G04 #@! TO.P,C14,2*
G04 #@! TO.N,GND*
X-34061400Y-28791800D03*
G04 #@! TD*
D12*
G04 #@! TO.P,C15,1*
G04 #@! TO.N,/WEATHER_3V3*
X-30314000Y-7874000D03*
G04 #@! TO.P,C15,2*
G04 #@! TO.N,GND*
X-28614000Y-7874000D03*
G04 #@! TD*
D16*
G04 #@! TO.P,C18,1*
G04 #@! TO.N,/PERIPH_3V3*
X-37553900Y-21184500D03*
G04 #@! TO.P,C18,2*
G04 #@! TO.N,GND*
X-37553900Y-22884500D03*
G04 #@! TD*
D25*
G04 #@! TO.P,D4,1*
G04 #@! TO.N,GND*
X-15064000Y-62008000D03*
D26*
G04 #@! TO.P,D4,2*
G04 #@! TO.N,/USB+*
X-16764000Y-62008000D03*
G04 #@! TO.P,D4,3*
G04 #@! TO.N,/USB-*
X-16764000Y-64008000D03*
G04 #@! TO.P,D4,4*
G04 #@! TO.N,VUSB*
X-14864000Y-64008000D03*
G04 #@! TD*
D16*
G04 #@! TO.P,D5,2*
G04 #@! TO.N,3V3*
X-22779984Y-48094000D03*
G04 #@! TO.P,D5,1*
G04 #@! TO.N,Net-(D5-Pad1)*
X-22779984Y-46394000D03*
G04 #@! TD*
D27*
G04 #@! TO.P,F1,1*
G04 #@! TO.N,Net-(F1-Pad1)*
X-20972592Y-71298362D03*
G04 #@! TO.P,F1,2*
G04 #@! TO.N,VUSB*
X-20972592Y-69098362D03*
G04 #@! TD*
D12*
G04 #@! TO.P,L1,1*
G04 #@! TO.N,5V0*
X-25480192Y-70739917D03*
G04 #@! TO.P,L1,2*
G04 #@! TO.N,Net-(F1-Pad1)*
X-23780192Y-70739917D03*
G04 #@! TD*
D16*
G04 #@! TO.P,L2,1*
G04 #@! TO.N,Net-(C4-Pad1)*
X-37249100Y-31000700D03*
G04 #@! TO.P,L2,2*
G04 #@! TO.N,3V3*
X-37249100Y-29300700D03*
G04 #@! TD*
D28*
G04 #@! TO.P,Q4,1*
G04 #@! TO.N,/D13*
X-28659730Y-46260880D03*
G04 #@! TO.P,Q4,2*
G04 #@! TO.N,GND*
X-28659730Y-48160880D03*
G04 #@! TO.P,Q4,3*
G04 #@! TO.N,Net-(Q4-Pad3)*
X-26359730Y-47210880D03*
G04 #@! TD*
D16*
G04 #@! TO.P,R2,1*
G04 #@! TO.N,/RESET*
X-20802600Y-29793300D03*
G04 #@! TO.P,R2,2*
G04 #@! TO.N,/RST*
X-20802600Y-28093300D03*
G04 #@! TD*
G04 #@! TO.P,R4,1*
G04 #@! TO.N,3V3*
X-19215100Y-29793300D03*
G04 #@! TO.P,R4,2*
G04 #@! TO.N,/RST*
X-19215100Y-28093300D03*
G04 #@! TD*
G04 #@! TO.P,R6,1*
G04 #@! TO.N,/SDA1*
X-20828000Y-43473000D03*
G04 #@! TO.P,R6,2*
G04 #@! TO.N,3V3*
X-20828000Y-45173000D03*
G04 #@! TD*
G04 #@! TO.P,R7,1*
G04 #@! TO.N,/SCL1*
X-19202400Y-43498400D03*
G04 #@! TO.P,R7,2*
G04 #@! TO.N,3V3*
X-19202400Y-45198400D03*
G04 #@! TD*
D12*
G04 #@! TO.P,R8,1*
G04 #@! TO.N,3V3*
X-19722200Y-35458400D03*
G04 #@! TO.P,R8,2*
G04 #@! TO.N,Net-(J1-Pad4)*
X-18022200Y-35458400D03*
G04 #@! TD*
G04 #@! TO.P,R9,1*
G04 #@! TO.N,Net-(J1-Pad4)*
X-18022200Y-33883600D03*
G04 #@! TO.P,R9,2*
G04 #@! TO.N,/USB_ID*
X-19722200Y-33883600D03*
G04 #@! TD*
D16*
G04 #@! TO.P,R10,1*
G04 #@! TO.N,Net-(C10-Pad1)*
X-11125200Y-70360400D03*
G04 #@! TO.P,R10,2*
G04 #@! TO.N,GND*
X-11125200Y-72060400D03*
G04 #@! TD*
D12*
G04 #@! TO.P,R11,1*
G04 #@! TO.N,/D7_WEATHER_EN*
X-38850200Y-13817600D03*
G04 #@! TO.P,R11,2*
G04 #@! TO.N,GND*
X-40550200Y-13817600D03*
G04 #@! TD*
D16*
G04 #@! TO.P,R17,1*
G04 #@! TO.N,Net-(D5-Pad1)*
X-24511000Y-46394000D03*
G04 #@! TO.P,R17,2*
G04 #@! TO.N,Net-(Q4-Pad3)*
X-24511000Y-48094000D03*
G04 #@! TD*
D12*
G04 #@! TO.P,R22,1*
G04 #@! TO.N,Net-(J11-Pad2)*
X-19929772Y14821332D03*
G04 #@! TO.P,R22,2*
G04 #@! TO.N,GND*
X-21629772Y14821332D03*
G04 #@! TD*
D16*
G04 #@! TO.P,R23,1*
G04 #@! TO.N,Net-(J10-Pad3)*
X-19458972Y3049332D03*
G04 #@! TO.P,R23,2*
G04 #@! TO.N,GND*
X-19458972Y4749332D03*
G04 #@! TD*
D12*
G04 #@! TO.P,R30,1*
G04 #@! TO.N,Net-(J11-Pad5)*
X-19929772Y19748932D03*
G04 #@! TO.P,R30,2*
G04 #@! TO.N,/A1_WIND_DIR*
X-21629772Y19748932D03*
G04 #@! TD*
G04 #@! TO.P,R31,1*
G04 #@! TO.N,Net-(J11-Pad3)*
X-19929772Y16497732D03*
G04 #@! TO.P,R31,2*
G04 #@! TO.N,GND*
X-21629772Y16497732D03*
G04 #@! TD*
D16*
G04 #@! TO.P,R32,1*
G04 #@! TO.N,Net-(J10-Pad4)*
X-19458972Y-330668D03*
G04 #@! TO.P,R32,2*
G04 #@! TO.N,/D6_RAIN*
X-19458972Y-2030668D03*
G04 #@! TD*
D12*
G04 #@! TO.P,R33,1*
G04 #@! TO.N,Net-(J11-Pad4)*
X-19929772Y18123332D03*
G04 #@! TO.P,R33,2*
G04 #@! TO.N,/D10_WIND_SPEED*
X-21629772Y18123332D03*
G04 #@! TD*
G04 #@! TO.P,R34,1*
G04 #@! TO.N,/WEATHER_3V3*
X-19929772Y21476132D03*
G04 #@! TO.P,R34,2*
G04 #@! TO.N,/A1_WIND_DIR*
X-21629772Y21476132D03*
G04 #@! TD*
D29*
G04 #@! TO.P,U1,1*
G04 #@! TO.N,Net-(C2-Pad2)*
X-29553971Y-31225342D03*
D11*
G04 #@! TD*
G04 #@! TO.N,Net-(C2-Pad2)*
G04 #@! TO.C,U1*
G36*
X-30101979Y-30854111D02*
X-29925202Y-30677334D01*
X-29005963Y-31596573D01*
X-29182740Y-31773350D01*
X-30101979Y-30854111D01*
X-30101979Y-30854111D01*
G37*
D29*
G04 #@! TO.P,U1,2*
G04 #@! TO.N,Net-(C1-Pad2)*
X-29907524Y-31578895D03*
D11*
G04 #@! TD*
G04 #@! TO.N,Net-(C1-Pad2)*
G04 #@! TO.C,U1*
G36*
X-30455532Y-31207664D02*
X-30278755Y-31030887D01*
X-29359516Y-31950126D01*
X-29536293Y-32126903D01*
X-30455532Y-31207664D01*
X-30455532Y-31207664D01*
G37*
D29*
G04 #@! TO.P,U1,3*
G04 #@! TO.N,/A0*
X-30261078Y-31932449D03*
D11*
G04 #@! TD*
G04 #@! TO.N,/A0*
G04 #@! TO.C,U1*
G36*
X-30809086Y-31561218D02*
X-30632309Y-31384441D01*
X-29713070Y-32303680D01*
X-29889847Y-32480457D01*
X-30809086Y-31561218D01*
X-30809086Y-31561218D01*
G37*
D29*
G04 #@! TO.P,U1,4*
G04 #@! TO.N,Net-(C14-Pad1)*
X-30614631Y-32286002D03*
D11*
G04 #@! TD*
G04 #@! TO.N,Net-(C14-Pad1)*
G04 #@! TO.C,U1*
G36*
X-31162639Y-31914771D02*
X-30985862Y-31737994D01*
X-30066623Y-32657233D01*
X-30243400Y-32834010D01*
X-31162639Y-31914771D01*
X-31162639Y-31914771D01*
G37*
D29*
G04 #@! TO.P,U1,5*
G04 #@! TO.N,GND*
X-30968184Y-32639555D03*
D11*
G04 #@! TD*
G04 #@! TO.N,GND*
G04 #@! TO.C,U1*
G36*
X-31516192Y-32268324D02*
X-31339415Y-32091547D01*
X-30420176Y-33010786D01*
X-30596953Y-33187563D01*
X-31516192Y-32268324D01*
X-31516192Y-32268324D01*
G37*
D29*
G04 #@! TO.P,U1,6*
G04 #@! TO.N,Net-(C4-Pad1)*
X-31321738Y-32993109D03*
D11*
G04 #@! TD*
G04 #@! TO.N,Net-(C4-Pad1)*
G04 #@! TO.C,U1*
G36*
X-31869746Y-32621878D02*
X-31692969Y-32445101D01*
X-30773730Y-33364340D01*
X-30950507Y-33541117D01*
X-31869746Y-32621878D01*
X-31869746Y-32621878D01*
G37*
D29*
G04 #@! TO.P,U1,7*
G04 #@! TO.N,/A1_WIND_DIR*
X-31675291Y-33346662D03*
D11*
G04 #@! TD*
G04 #@! TO.N,/A1_WIND_DIR*
G04 #@! TO.C,U1*
G36*
X-32223299Y-32975431D02*
X-32046522Y-32798654D01*
X-31127283Y-33717893D01*
X-31304060Y-33894670D01*
X-32223299Y-32975431D01*
X-32223299Y-32975431D01*
G37*
D29*
G04 #@! TO.P,U1,8*
G04 #@! TO.N,Net-(U1-Pad8)*
X-32028845Y-33700216D03*
D11*
G04 #@! TD*
G04 #@! TO.N,Net-(U1-Pad8)*
G04 #@! TO.C,U1*
G36*
X-32576853Y-33328985D02*
X-32400076Y-33152208D01*
X-31480837Y-34071447D01*
X-31657614Y-34248224D01*
X-32576853Y-33328985D01*
X-32576853Y-33328985D01*
G37*
D29*
G04 #@! TO.P,U1,9*
G04 #@! TO.N,/A3*
X-32382398Y-34053769D03*
D11*
G04 #@! TD*
G04 #@! TO.N,/A3*
G04 #@! TO.C,U1*
G36*
X-32930406Y-33682538D02*
X-32753629Y-33505761D01*
X-31834390Y-34425000D01*
X-32011167Y-34601777D01*
X-32930406Y-33682538D01*
X-32930406Y-33682538D01*
G37*
D29*
G04 #@! TO.P,U1,10*
G04 #@! TO.N,/A4*
X-32735951Y-34407322D03*
D11*
G04 #@! TD*
G04 #@! TO.N,/A4*
G04 #@! TO.C,U1*
G36*
X-33283959Y-34036091D02*
X-33107182Y-33859314D01*
X-32187943Y-34778553D01*
X-32364720Y-34955330D01*
X-33283959Y-34036091D01*
X-33283959Y-34036091D01*
G37*
D29*
G04 #@! TO.P,U1,11*
G04 #@! TO.N,/D8_PERIPH_EN*
X-33089505Y-34760876D03*
D11*
G04 #@! TD*
G04 #@! TO.N,/D8_PERIPH_EN*
G04 #@! TO.C,U1*
G36*
X-33637513Y-34389645D02*
X-33460736Y-34212868D01*
X-32541497Y-35132107D01*
X-32718274Y-35308884D01*
X-33637513Y-34389645D01*
X-33637513Y-34389645D01*
G37*
D29*
G04 #@! TO.P,U1,12*
G04 #@! TO.N,/D9*
X-33443058Y-35114429D03*
D11*
G04 #@! TD*
G04 #@! TO.N,/D9*
G04 #@! TO.C,U1*
G36*
X-33991066Y-34743198D02*
X-33814289Y-34566421D01*
X-32895050Y-35485660D01*
X-33071827Y-35662437D01*
X-33991066Y-34743198D01*
X-33991066Y-34743198D01*
G37*
D29*
G04 #@! TO.P,U1,13*
G04 #@! TO.N,/SDA2*
X-33443058Y-37377171D03*
D11*
G04 #@! TD*
G04 #@! TO.N,/SDA2*
G04 #@! TO.C,U1*
G36*
X-33814289Y-37925179D02*
X-33991066Y-37748402D01*
X-33071827Y-36829163D01*
X-32895050Y-37005940D01*
X-33814289Y-37925179D01*
X-33814289Y-37925179D01*
G37*
D29*
G04 #@! TO.P,U1,14*
G04 #@! TO.N,/SCL2*
X-33089505Y-37730724D03*
D11*
G04 #@! TD*
G04 #@! TO.N,/SCL2*
G04 #@! TO.C,U1*
G36*
X-33460736Y-38278732D02*
X-33637513Y-38101955D01*
X-32718274Y-37182716D01*
X-32541497Y-37359493D01*
X-33460736Y-38278732D01*
X-33460736Y-38278732D01*
G37*
D29*
G04 #@! TO.P,U1,15*
G04 #@! TO.N,/D1*
X-32735951Y-38084278D03*
D11*
G04 #@! TD*
G04 #@! TO.N,/D1*
G04 #@! TO.C,U1*
G36*
X-33107182Y-38632286D02*
X-33283959Y-38455509D01*
X-32364720Y-37536270D01*
X-32187943Y-37713047D01*
X-33107182Y-38632286D01*
X-33107182Y-38632286D01*
G37*
D29*
G04 #@! TO.P,U1,16*
G04 #@! TO.N,/D0*
X-32382398Y-38437831D03*
D11*
G04 #@! TD*
G04 #@! TO.N,/D0*
G04 #@! TO.C,U1*
G36*
X-32753629Y-38985839D02*
X-32930406Y-38809062D01*
X-32011167Y-37889823D01*
X-31834390Y-38066600D01*
X-32753629Y-38985839D01*
X-32753629Y-38985839D01*
G37*
D29*
G04 #@! TO.P,U1,17*
G04 #@! TO.N,3V3*
X-32028845Y-38791384D03*
D11*
G04 #@! TD*
G04 #@! TO.N,3V3*
G04 #@! TO.C,U1*
G36*
X-32400076Y-39339392D02*
X-32576853Y-39162615D01*
X-31657614Y-38243376D01*
X-31480837Y-38420153D01*
X-32400076Y-39339392D01*
X-32400076Y-39339392D01*
G37*
D29*
G04 #@! TO.P,U1,18*
G04 #@! TO.N,GND*
X-31675291Y-39144938D03*
D11*
G04 #@! TD*
G04 #@! TO.N,GND*
G04 #@! TO.C,U1*
G36*
X-32046522Y-39692946D02*
X-32223299Y-39516169D01*
X-31304060Y-38596930D01*
X-31127283Y-38773707D01*
X-32046522Y-39692946D01*
X-32046522Y-39692946D01*
G37*
D29*
G04 #@! TO.P,U1,19*
G04 #@! TO.N,/MOSI*
X-31321738Y-39498491D03*
D11*
G04 #@! TD*
G04 #@! TO.N,/MOSI*
G04 #@! TO.C,U1*
G36*
X-31692969Y-40046499D02*
X-31869746Y-39869722D01*
X-30950507Y-38950483D01*
X-30773730Y-39127260D01*
X-31692969Y-40046499D01*
X-31692969Y-40046499D01*
G37*
D29*
G04 #@! TO.P,U1,20*
G04 #@! TO.N,/SCK*
X-30968184Y-39852045D03*
D11*
G04 #@! TD*
G04 #@! TO.N,/SCK*
G04 #@! TO.C,U1*
G36*
X-31339415Y-40400053D02*
X-31516192Y-40223276D01*
X-30596953Y-39304037D01*
X-30420176Y-39480814D01*
X-31339415Y-40400053D01*
X-31339415Y-40400053D01*
G37*
D29*
G04 #@! TO.P,U1,21*
G04 #@! TO.N,/MISO*
X-30614631Y-40205598D03*
D11*
G04 #@! TD*
G04 #@! TO.N,/MISO*
G04 #@! TO.C,U1*
G36*
X-30985862Y-40753606D02*
X-31162639Y-40576829D01*
X-30243400Y-39657590D01*
X-30066623Y-39834367D01*
X-30985862Y-40753606D01*
X-30985862Y-40753606D01*
G37*
D29*
G04 #@! TO.P,U1,22*
G04 #@! TO.N,/ATN*
X-30261078Y-40559151D03*
D11*
G04 #@! TD*
G04 #@! TO.N,/ATN*
G04 #@! TO.C,U1*
G36*
X-30632309Y-41107159D02*
X-30809086Y-40930382D01*
X-29889847Y-40011143D01*
X-29713070Y-40187920D01*
X-30632309Y-41107159D01*
X-30632309Y-41107159D01*
G37*
D29*
G04 #@! TO.P,U1,23*
G04 #@! TO.N,/D2*
X-29907524Y-40912705D03*
D11*
G04 #@! TD*
G04 #@! TO.N,/D2*
G04 #@! TO.C,U1*
G36*
X-30278755Y-41460713D02*
X-30455532Y-41283936D01*
X-29536293Y-40364697D01*
X-29359516Y-40541474D01*
X-30278755Y-41460713D01*
X-30278755Y-41460713D01*
G37*
D29*
G04 #@! TO.P,U1,24*
G04 #@! TO.N,/D5_FLASH_CS*
X-29553971Y-41266258D03*
D11*
G04 #@! TD*
G04 #@! TO.N,/D5_FLASH_CS*
G04 #@! TO.C,U1*
G36*
X-29925202Y-41814266D02*
X-30101979Y-41637489D01*
X-29182740Y-40718250D01*
X-29005963Y-40895027D01*
X-29925202Y-41814266D01*
X-29925202Y-41814266D01*
G37*
D29*
G04 #@! TO.P,U1,25*
G04 #@! TO.N,Net-(U1-Pad25)*
X-27291229Y-41266258D03*
D11*
G04 #@! TD*
G04 #@! TO.N,Net-(U1-Pad25)*
G04 #@! TO.C,U1*
G36*
X-27839237Y-40895027D02*
X-27662460Y-40718250D01*
X-26743221Y-41637489D01*
X-26919998Y-41814266D01*
X-27839237Y-40895027D01*
X-27839237Y-40895027D01*
G37*
D29*
G04 #@! TO.P,U1,26*
G04 #@! TO.N,/D13*
X-26937676Y-40912705D03*
D11*
G04 #@! TD*
G04 #@! TO.N,/D13*
G04 #@! TO.C,U1*
G36*
X-27485684Y-40541474D02*
X-27308907Y-40364697D01*
X-26389668Y-41283936D01*
X-26566445Y-41460713D01*
X-27485684Y-40541474D01*
X-27485684Y-40541474D01*
G37*
D29*
G04 #@! TO.P,U1,27*
G04 #@! TO.N,/D10_WIND_SPEED*
X-26584122Y-40559151D03*
D11*
G04 #@! TD*
G04 #@! TO.N,/D10_WIND_SPEED*
G04 #@! TO.C,U1*
G36*
X-27132130Y-40187920D02*
X-26955353Y-40011143D01*
X-26036114Y-40930382D01*
X-26212891Y-41107159D01*
X-27132130Y-40187920D01*
X-27132130Y-40187920D01*
G37*
D29*
G04 #@! TO.P,U1,28*
G04 #@! TO.N,/D12*
X-26230569Y-40205598D03*
D11*
G04 #@! TD*
G04 #@! TO.N,/D12*
G04 #@! TO.C,U1*
G36*
X-26778577Y-39834367D02*
X-26601800Y-39657590D01*
X-25682561Y-40576829D01*
X-25859338Y-40753606D01*
X-26778577Y-39834367D01*
X-26778577Y-39834367D01*
G37*
D29*
G04 #@! TO.P,U1,29*
G04 #@! TO.N,/D6_RAIN*
X-25877016Y-39852045D03*
D11*
G04 #@! TD*
G04 #@! TO.N,/D6_RAIN*
G04 #@! TO.C,U1*
G36*
X-26425024Y-39480814D02*
X-26248247Y-39304037D01*
X-25329008Y-40223276D01*
X-25505785Y-40400053D01*
X-26425024Y-39480814D01*
X-26425024Y-39480814D01*
G37*
D29*
G04 #@! TO.P,U1,30*
G04 #@! TO.N,/D7_WEATHER_EN*
X-25523462Y-39498491D03*
D11*
G04 #@! TD*
G04 #@! TO.N,/D7_WEATHER_EN*
G04 #@! TO.C,U1*
G36*
X-26071470Y-39127260D02*
X-25894693Y-38950483D01*
X-24975454Y-39869722D01*
X-25152231Y-40046499D01*
X-26071470Y-39127260D01*
X-26071470Y-39127260D01*
G37*
D29*
G04 #@! TO.P,U1,31*
G04 #@! TO.N,/SDA1*
X-25169909Y-39144938D03*
D11*
G04 #@! TD*
G04 #@! TO.N,/SDA1*
G04 #@! TO.C,U1*
G36*
X-25717917Y-38773707D02*
X-25541140Y-38596930D01*
X-24621901Y-39516169D01*
X-24798678Y-39692946D01*
X-25717917Y-38773707D01*
X-25717917Y-38773707D01*
G37*
D29*
G04 #@! TO.P,U1,32*
G04 #@! TO.N,/SCL1*
X-24816355Y-38791384D03*
D11*
G04 #@! TD*
G04 #@! TO.N,/SCL1*
G04 #@! TO.C,U1*
G36*
X-25364363Y-38420153D02*
X-25187586Y-38243376D01*
X-24268347Y-39162615D01*
X-24445124Y-39339392D01*
X-25364363Y-38420153D01*
X-25364363Y-38420153D01*
G37*
D29*
G04 #@! TO.P,U1,33*
G04 #@! TO.N,/USB-*
X-24462802Y-38437831D03*
D11*
G04 #@! TD*
G04 #@! TO.N,/USB-*
G04 #@! TO.C,U1*
G36*
X-25010810Y-38066600D02*
X-24834033Y-37889823D01*
X-23914794Y-38809062D01*
X-24091571Y-38985839D01*
X-25010810Y-38066600D01*
X-25010810Y-38066600D01*
G37*
D29*
G04 #@! TO.P,U1,34*
G04 #@! TO.N,/USB+*
X-24109249Y-38084278D03*
D11*
G04 #@! TD*
G04 #@! TO.N,/USB+*
G04 #@! TO.C,U1*
G36*
X-24657257Y-37713047D02*
X-24480480Y-37536270D01*
X-23561241Y-38455509D01*
X-23738018Y-38632286D01*
X-24657257Y-37713047D01*
X-24657257Y-37713047D01*
G37*
D29*
G04 #@! TO.P,U1,35*
G04 #@! TO.N,GND*
X-23755695Y-37730724D03*
D11*
G04 #@! TD*
G04 #@! TO.N,GND*
G04 #@! TO.C,U1*
G36*
X-24303703Y-37359493D02*
X-24126926Y-37182716D01*
X-23207687Y-38101955D01*
X-23384464Y-38278732D01*
X-24303703Y-37359493D01*
X-24303703Y-37359493D01*
G37*
D29*
G04 #@! TO.P,U1,36*
G04 #@! TO.N,3V3*
X-23402142Y-37377171D03*
D11*
G04 #@! TD*
G04 #@! TO.N,3V3*
G04 #@! TO.C,U1*
G36*
X-23950150Y-37005940D02*
X-23773373Y-36829163D01*
X-22854134Y-37748402D01*
X-23030911Y-37925179D01*
X-23950150Y-37005940D01*
X-23950150Y-37005940D01*
G37*
D29*
G04 #@! TO.P,U1,37*
G04 #@! TO.N,/D30*
X-23402142Y-35114429D03*
D11*
G04 #@! TD*
G04 #@! TO.N,/D30*
G04 #@! TO.C,U1*
G36*
X-23773373Y-35662437D02*
X-23950150Y-35485660D01*
X-23030911Y-34566421D01*
X-22854134Y-34743198D01*
X-23773373Y-35662437D01*
X-23773373Y-35662437D01*
G37*
D29*
G04 #@! TO.P,U1,38*
G04 #@! TO.N,/D31*
X-23755695Y-34760876D03*
D11*
G04 #@! TD*
G04 #@! TO.N,/D31*
G04 #@! TO.C,U1*
G36*
X-24126926Y-35308884D02*
X-24303703Y-35132107D01*
X-23384464Y-34212868D01*
X-23207687Y-34389645D01*
X-24126926Y-35308884D01*
X-24126926Y-35308884D01*
G37*
D29*
G04 #@! TO.P,U1,39*
G04 #@! TO.N,/TX_LED*
X-24109249Y-34407322D03*
D11*
G04 #@! TD*
G04 #@! TO.N,/TX_LED*
G04 #@! TO.C,U1*
G36*
X-24480480Y-34955330D02*
X-24657257Y-34778553D01*
X-23738018Y-33859314D01*
X-23561241Y-34036091D01*
X-24480480Y-34955330D01*
X-24480480Y-34955330D01*
G37*
D29*
G04 #@! TO.P,U1,40*
G04 #@! TO.N,/RESET*
X-24462802Y-34053769D03*
D11*
G04 #@! TD*
G04 #@! TO.N,/RESET*
G04 #@! TO.C,U1*
G36*
X-24834033Y-34601777D02*
X-25010810Y-34425000D01*
X-24091571Y-33505761D01*
X-23914794Y-33682538D01*
X-24834033Y-34601777D01*
X-24834033Y-34601777D01*
G37*
D29*
G04 #@! TO.P,U1,41*
G04 #@! TO.N,/USB_ID*
X-24816355Y-33700216D03*
D11*
G04 #@! TD*
G04 #@! TO.N,/USB_ID*
G04 #@! TO.C,U1*
G36*
X-25187586Y-34248224D02*
X-25364363Y-34071447D01*
X-24445124Y-33152208D01*
X-24268347Y-33328985D01*
X-25187586Y-34248224D01*
X-25187586Y-34248224D01*
G37*
D29*
G04 #@! TO.P,U1,42*
G04 #@! TO.N,GND*
X-25169909Y-33346662D03*
D11*
G04 #@! TD*
G04 #@! TO.N,GND*
G04 #@! TO.C,U1*
G36*
X-25541140Y-33894670D02*
X-25717917Y-33717893D01*
X-24798678Y-32798654D01*
X-24621901Y-32975431D01*
X-25541140Y-33894670D01*
X-25541140Y-33894670D01*
G37*
D29*
G04 #@! TO.P,U1,43*
G04 #@! TO.N,Net-(C5-Pad1)*
X-25523462Y-32993109D03*
D11*
G04 #@! TD*
G04 #@! TO.N,Net-(C5-Pad1)*
G04 #@! TO.C,U1*
G36*
X-25894693Y-33541117D02*
X-26071470Y-33364340D01*
X-25152231Y-32445101D01*
X-24975454Y-32621878D01*
X-25894693Y-33541117D01*
X-25894693Y-33541117D01*
G37*
D29*
G04 #@! TO.P,U1,44*
G04 #@! TO.N,3V3*
X-25877016Y-32639555D03*
D11*
G04 #@! TD*
G04 #@! TO.N,3V3*
G04 #@! TO.C,U1*
G36*
X-26248247Y-33187563D02*
X-26425024Y-33010786D01*
X-25505785Y-32091547D01*
X-25329008Y-32268324D01*
X-26248247Y-33187563D01*
X-26248247Y-33187563D01*
G37*
D29*
G04 #@! TO.P,U1,45*
G04 #@! TO.N,/SWCLK*
X-26230569Y-32286002D03*
D11*
G04 #@! TD*
G04 #@! TO.N,/SWCLK*
G04 #@! TO.C,U1*
G36*
X-26601800Y-32834010D02*
X-26778577Y-32657233D01*
X-25859338Y-31737994D01*
X-25682561Y-31914771D01*
X-26601800Y-32834010D01*
X-26601800Y-32834010D01*
G37*
D29*
G04 #@! TO.P,U1,46*
G04 #@! TO.N,/SWDIO*
X-26584122Y-31932449D03*
D11*
G04 #@! TD*
G04 #@! TO.N,/SWDIO*
G04 #@! TO.C,U1*
G36*
X-26955353Y-32480457D02*
X-27132130Y-32303680D01*
X-26212891Y-31384441D01*
X-26036114Y-31561218D01*
X-26955353Y-32480457D01*
X-26955353Y-32480457D01*
G37*
D29*
G04 #@! TO.P,U1,47*
G04 #@! TO.N,/A5*
X-26937676Y-31578895D03*
D11*
G04 #@! TD*
G04 #@! TO.N,/A5*
G04 #@! TO.C,U1*
G36*
X-27308907Y-32126903D02*
X-27485684Y-31950126D01*
X-26566445Y-31030887D01*
X-26389668Y-31207664D01*
X-27308907Y-32126903D01*
X-27308907Y-32126903D01*
G37*
D29*
G04 #@! TO.P,U1,48*
G04 #@! TO.N,/RX_LED*
X-27291229Y-31225342D03*
D11*
G04 #@! TD*
G04 #@! TO.N,/RX_LED*
G04 #@! TO.C,U1*
G36*
X-27662460Y-31773350D02*
X-27839237Y-31596573D01*
X-26919998Y-30677334D01*
X-26743221Y-30854111D01*
X-27662460Y-31773350D01*
X-27662460Y-31773350D01*
G37*
D30*
G04 #@! TO.P,U2,1*
G04 #@! TO.N,GND*
X-22336085Y-63078661D03*
D31*
G04 #@! TO.P,U2,2*
G04 #@! TO.N,5V0*
X-23836085Y-63578661D03*
D30*
G04 #@! TO.P,U2,3*
G04 #@! TO.N,3V3*
X-25336085Y-63078661D03*
D32*
G04 #@! TO.P,U2,2*
G04 #@! TO.N,5V0*
X-23836085Y-65928661D03*
G04 #@! TD*
D33*
G04 #@! TO.P,Y1,1*
G04 #@! TO.N,Net-(C1-Pad2)*
X-30855883Y-26497317D03*
D11*
G04 #@! TD*
G04 #@! TO.N,Net-(C1-Pad2)*
G04 #@! TO.C,Y1*
G36*
X-31916543Y-26780160D02*
X-30573040Y-25436657D01*
X-29795223Y-26214474D01*
X-31138726Y-27557977D01*
X-31916543Y-26780160D01*
X-31916543Y-26780160D01*
G37*
D33*
G04 #@! TO.P,Y1,2*
G04 #@! TO.N,Net-(C2-Pad2)*
X-29088117Y-28265083D03*
D11*
G04 #@! TD*
G04 #@! TO.N,Net-(C2-Pad2)*
G04 #@! TO.C,Y1*
G36*
X-30148777Y-28547926D02*
X-28805274Y-27204423D01*
X-28027457Y-27982240D01*
X-29370960Y-29325743D01*
X-30148777Y-28547926D01*
X-30148777Y-28547926D01*
G37*
D34*
G04 #@! TO.P,SW1,1*
G04 #@! TO.N,GND*
X-6366000Y-22646000D03*
X-6366000Y-17486000D03*
G04 #@! TO.P,SW1,2*
G04 #@! TO.N,/RST*
X-8366000Y-17486000D03*
X-8366000Y-22646000D03*
G04 #@! TD*
D14*
G04 #@! TO.P,J3,1*
G04 #@! TO.N,GND*
X-11094000Y-30754000D03*
G04 #@! TO.P,J3,2*
G04 #@! TO.N,/D31*
X-11094000Y-32004000D03*
G04 #@! TO.P,J3,3*
G04 #@! TO.N,/D30*
X-11094000Y-33254000D03*
D15*
G04 #@! TO.P,J3,*
G04 #@! TO.N,*
X-7744000Y-28904000D03*
X-7744000Y-35104000D03*
G04 #@! TD*
D35*
G04 #@! TO.P,U5,3*
G04 #@! TO.N,3V3*
X-6224000Y-9996000D03*
G04 #@! TO.P,U5,4*
G04 #@! TO.N,Net-(U5-Pad4)*
X-9524000Y-9996000D03*
G04 #@! TO.P,U5,1*
G04 #@! TO.N,GND*
X-9524000Y-14896000D03*
G04 #@! TO.P,U5,2*
G04 #@! TO.N,/A3*
X-6224000Y-14896000D03*
G04 #@! TD*
D12*
G04 #@! TO.P,C17,1*
G04 #@! TO.N,3V3*
X-32832436Y-52221478D03*
G04 #@! TO.P,C17,2*
G04 #@! TO.N,GND*
X-31132436Y-52221478D03*
G04 #@! TD*
G04 #@! TO.P,C19,1*
G04 #@! TO.N,Net-(C19-Pad1)*
X-36918000Y-57404000D03*
G04 #@! TO.P,C19,2*
G04 #@! TO.N,GND*
X-35218000Y-57404000D03*
G04 #@! TD*
G04 #@! TO.P,R1,1*
G04 #@! TO.N,3V3*
X-35218000Y-55626000D03*
G04 #@! TO.P,R1,2*
G04 #@! TO.N,Net-(C19-Pad1)*
X-36918000Y-55626000D03*
G04 #@! TD*
D36*
G04 #@! TO.P,Y2,1*
G04 #@! TO.N,Net-(U6-Pad2)*
X-31006436Y-63016478D03*
G04 #@! TO.P,Y2,2*
G04 #@! TO.N,Net-(U6-Pad1)*
X-33506436Y-63016478D03*
G04 #@! TD*
D37*
G04 #@! TO.P,D11,1*
G04 #@! TO.N,/D10_WIND_SPEED*
X-24081772Y17615332D03*
G04 #@! TO.P,D11,2*
G04 #@! TO.N,GND*
X-26926572Y17615332D03*
G04 #@! TD*
G04 #@! TO.P,D10,1*
G04 #@! TO.N,/WEATHER_3V3*
X-26926772Y15176932D03*
G04 #@! TO.P,D10,2*
G04 #@! TO.N,/D10_WIND_SPEED*
X-24081972Y15176932D03*
G04 #@! TD*
G04 #@! TO.P,D9,1*
G04 #@! TO.N,/WEATHER_3V3*
X-19712972Y23558932D03*
G04 #@! TO.P,D9,2*
G04 #@! TO.N,/A1_WIND_DIR*
X-22557772Y23558932D03*
G04 #@! TD*
G04 #@! TO.P,D8,1*
G04 #@! TO.N,/A1_WIND_DIR*
X-24081772Y19901332D03*
G04 #@! TO.P,D8,2*
G04 #@! TO.N,GND*
X-26926572Y19901332D03*
G04 #@! TD*
D38*
G04 #@! TO.P,D7,1*
G04 #@! TO.N,/D6_RAIN*
X-21744972Y-2755468D03*
G04 #@! TO.P,D7,2*
G04 #@! TO.N,GND*
X-21744972Y89332D03*
G04 #@! TD*
G04 #@! TO.P,D6,1*
G04 #@! TO.N,/WEATHER_3V3*
X-21744972Y5321732D03*
G04 #@! TO.P,D6,2*
G04 #@! TO.N,/D6_RAIN*
X-21744972Y2476932D03*
G04 #@! TD*
D14*
G04 #@! TO.P,J7,1*
G04 #@! TO.N,3V3*
X-19349000Y-49570000D03*
G04 #@! TO.P,J7,2*
G04 #@! TO.N,GND*
X-19349000Y-50820000D03*
G04 #@! TO.P,J7,3*
G04 #@! TO.N,Net-(J7-Pad3)*
X-19349000Y-52070000D03*
G04 #@! TO.P,J7,4*
G04 #@! TO.N,/SCL2*
X-19349000Y-53320000D03*
G04 #@! TO.P,J7,5*
G04 #@! TO.N,/SDA2*
X-19349000Y-54570000D03*
D15*
G04 #@! TO.P,J7,*
G04 #@! TO.N,*
X-15999000Y-47720000D03*
X-15999000Y-56420000D03*
G04 #@! TD*
D39*
G04 #@! TO.P,U4,8*
G04 #@! TO.N,/PERIPH_3V3*
X-28270600Y-18656300D03*
G04 #@! TO.P,U4,7*
X-28270600Y-19926300D03*
G04 #@! TO.P,U4,6*
G04 #@! TO.N,/SCK*
X-28270600Y-21196300D03*
G04 #@! TO.P,U4,5*
G04 #@! TO.N,/MOSI*
X-28270600Y-22466300D03*
G04 #@! TO.P,U4,4*
G04 #@! TO.N,GND*
X-34670600Y-22466300D03*
G04 #@! TO.P,U4,3*
G04 #@! TO.N,/PERIPH_3V3*
X-34670600Y-21196300D03*
G04 #@! TO.P,U4,2*
G04 #@! TO.N,/MISO*
X-34670600Y-19926300D03*
G04 #@! TO.P,U4,1*
G04 #@! TO.N,/D5_FLASH_CS*
X-34670600Y-18656300D03*
G04 #@! TD*
D40*
G04 #@! TO.P,J10,1*
G04 #@! TO.N,Net-(J10-Pad1)*
X-15916972Y4417332D03*
G04 #@! TO.P,J10,2*
G04 #@! TO.N,/RAIN_2*
X-13376972Y3397332D03*
G04 #@! TO.P,J10,3*
G04 #@! TO.N,Net-(J10-Pad3)*
X-15916972Y2377332D03*
G04 #@! TO.P,J10,4*
G04 #@! TO.N,Net-(J10-Pad4)*
X-13376972Y1357332D03*
G04 #@! TO.P,J10,5*
G04 #@! TO.N,/RAIN_5*
X-15916972Y337332D03*
G04 #@! TO.P,J10,6*
G04 #@! TO.N,Net-(J10-Pad6)*
X-13376972Y-682668D03*
G04 #@! TD*
G04 #@! TO.P,J11,6*
G04 #@! TO.N,Net-(J11-Pad6)*
X-13362972Y14817332D03*
G04 #@! TO.P,J11,5*
G04 #@! TO.N,Net-(J11-Pad5)*
X-15902972Y15837332D03*
G04 #@! TO.P,J11,4*
G04 #@! TO.N,Net-(J11-Pad4)*
X-13362972Y16857332D03*
G04 #@! TO.P,J11,3*
G04 #@! TO.N,Net-(J11-Pad3)*
X-15902972Y17877332D03*
G04 #@! TO.P,J11,2*
G04 #@! TO.N,Net-(J11-Pad2)*
X-13362972Y18897332D03*
G04 #@! TO.P,J11,1*
G04 #@! TO.N,Net-(J11-Pad1)*
X-15902972Y19917332D03*
G04 #@! TD*
D12*
G04 #@! TO.P,R3,1*
G04 #@! TO.N,Net-(D1-Pad1)*
X-15277200Y-59080400D03*
G04 #@! TO.P,R3,2*
G04 #@! TO.N,GND*
X-13577200Y-59080400D03*
G04 #@! TD*
G04 #@! TO.P,R5,2*
G04 #@! TO.N,3V3*
X-26328000Y-10668000D03*
G04 #@! TO.P,R5,1*
G04 #@! TO.N,Net-(R5-Pad1)*
X-28028000Y-10668000D03*
G04 #@! TD*
D41*
G04 #@! TO.N,GND*
X-32486600Y-27330400D03*
X-34061400Y-27330400D03*
X-22771100Y14516100D03*
X-22771100Y15290800D03*
X-22783800Y16052800D03*
X-33312100Y-31864300D03*
X-32296100Y-31864300D03*
X-27762200Y17627600D03*
X-19558000Y5588000D03*
X-22428200Y101600D03*
X-35331400Y-10820400D03*
X-18719800Y-38557200D03*
X-9956800Y-40767000D03*
X-17801410Y-50800000D03*
X-27940000Y-48006000D03*
X-27686000Y-7874000D03*
X-36322000Y-7874000D03*
X-25908000Y-34036000D03*
X-24638000Y-37084000D03*
X-33528000Y-43434000D03*
X-32450086Y-39961324D03*
X-35687000Y-28346400D03*
X-36576000Y-22606000D03*
X-29083000Y-58648600D03*
X-34340800Y-57531000D03*
X-30302200Y-52324000D03*
X-33528000Y-49022000D03*
X-27432000Y-65786000D03*
X-14986000Y-61468000D03*
X-21844000Y-62992000D03*
X-11684000Y-65532000D03*
X-10940452Y-61831543D03*
X-10160000Y-72136000D03*
X-11938000Y-72060400D03*
X-10160000Y-30734000D03*
X-20320000Y-23114000D03*
X-16510000Y-22860000D03*
X-22606000Y-28194000D03*
X-12700000Y-50800000D03*
X-13970000Y-50800000D03*
X-16510000Y-50800000D03*
X-15240000Y-50800000D03*
X-16531410Y-39979600D03*
X-9398000Y-50800000D03*
X-20574000Y-50800000D03*
X-6273800Y-21513800D03*
X-6366000Y-18414200D03*
X-9474200Y-13817600D03*
X-25527000Y-16637000D03*
X-40030400Y-10693400D03*
X-31673800Y-4775200D03*
X-23926800Y-13360400D03*
X-40538400Y-15976600D03*
X-12573000Y-59080400D03*
X-26619200Y-69093462D03*
X-28143200Y-23876000D03*
G04 #@! TO.N,3V3*
X-35179000Y-12065000D03*
X-9931400Y-39497000D03*
X-17801410Y-49276000D03*
X-37846000Y-11938000D03*
X-23876000Y-11938000D03*
X-25146000Y-10668000D03*
X-21590000Y-37846000D03*
X-37236400Y-28295600D03*
X-21488400Y-22834600D03*
X-19227800Y-30581600D03*
X-25069800Y-31445200D03*
X-34391600Y-40995600D03*
X-21615400Y-47675800D03*
X-27686000Y-60960000D03*
X-26416000Y-60960000D03*
X-25146000Y-60960000D03*
X-25146000Y-61976000D03*
X-26416000Y-61976000D03*
X-27686000Y-61976000D03*
X-33782000Y-54864000D03*
X-13970000Y-49276000D03*
X-15240000Y-49276000D03*
X-16510000Y-49276000D03*
X-12700000Y-49276000D03*
X-9398000Y-49276000D03*
X-16531410Y-40995600D03*
X-20574000Y-49276000D03*
X-38912800Y-44907200D03*
X-31724600Y-44958000D03*
X-25388200Y-57226200D03*
X-20066000Y-45173000D03*
X-6197600Y-11099800D03*
X-25400000Y-18999200D03*
X-33578800Y-16637000D03*
X-19939000Y-59055000D03*
X-20523200Y-35483800D03*
G04 #@! TO.N,/SWDIO*
X-22783800Y-24638000D03*
X-27613779Y-32689800D03*
G04 #@! TO.N,/SWCLK*
X-20701000Y-22275800D03*
X-27406600Y-33451800D03*
G04 #@! TO.N,/A3*
X-28524200Y-39954200D03*
X-6959600Y-15062200D03*
G04 #@! TO.N,/MOSI*
X-32169100Y-25387300D03*
X-32613600Y-36118800D03*
G04 #@! TO.N,/SCK*
X-31796507Y-22601707D03*
X-31864914Y-36118800D03*
G04 #@! TO.N,/MISO*
X-32359600Y-20243800D03*
X-30912414Y-36322614D03*
G04 #@! TO.N,/USB-*
X-17780000Y-63500000D03*
X-23152100Y-41770300D03*
X-12471400Y-63601600D03*
G04 #@! TO.N,/USB+*
X-17780000Y-62484000D03*
X-22390100Y-41770300D03*
X-11130311Y-63542748D03*
G04 #@! TO.N,VUSB*
X-8737600Y-62128400D03*
G04 #@! TO.N,Net-(J1-Pad4)*
X-17145000Y-36195000D03*
X-12095296Y-62231589D03*
X-11125343Y-62890355D03*
G04 #@! TO.N,/SCL1*
X-25654000Y-38100000D03*
X-18288000Y-42926000D03*
X-30480000Y-56159400D03*
X-12446000Y-42087800D03*
G04 #@! TO.N,/SDA1*
X-24384000Y-39878000D03*
X-18288000Y-41910000D03*
X-24409400Y-42087800D03*
X-29387800Y-56438800D03*
G04 #@! TO.N,/PERIPH_3V3*
X-28270600Y-17856200D03*
G04 #@! TO.N,Net-(BT1-Pad1)*
X-29845000Y-61849000D03*
G04 #@! TO.N,/D6_RAIN*
X-17094200Y-2362200D03*
X-27218809Y-38444030D03*
G04 #@! TO.N,/A1_WIND_DIR*
X-23876000Y21590000D03*
X-28092400Y-31026100D03*
G04 #@! TO.N,/D10_WIND_SPEED*
X-17856200Y13769372D03*
X-27686000Y-39624000D03*
G04 #@! TO.N,/D8_PERIPH_EN*
X-36423600Y-33261300D03*
X-36499800Y-15163800D03*
G04 #@! TO.N,/D5_FLASH_CS*
X-29438600Y-38912800D03*
X-31915100Y-19735800D03*
G04 #@! TO.N,/D7_WEATHER_EN*
X-26060400Y-42621200D03*
X-35255200Y-13411200D03*
G04 #@! TO.N,/WEATHER_3V3*
X-31242000Y-6350000D03*
X-30226000Y-6350000D03*
X-30226000Y-9398000D03*
X-31242000Y-9398000D03*
X-32258000Y-9398000D03*
X-33274000Y-6350000D03*
X-34290000Y-6350000D03*
X-34290000Y-9398000D03*
X-33274000Y-9398000D03*
X-33274000Y-10414000D03*
X-33274000Y-11430000D03*
X-34290000Y-10414000D03*
X-34290000Y-11430000D03*
X-23876000Y-8128000D03*
X-21564600Y6375400D03*
X-27889200Y15316200D03*
X-18669000Y21539200D03*
X-18719800Y23596600D03*
G04 #@! TD*
D42*
G04 #@! TO.N,GND*
X-26926572Y19901332D02*
X-26926572Y17615332D01*
X-32486600Y-27330400D02*
X-32486600Y-28791800D01*
X-34061400Y-28791800D02*
X-34061400Y-27330400D01*
X-22771100Y14516100D02*
X-21935004Y14516100D01*
X-21935004Y14516100D02*
X-21629772Y14821332D01*
X-22771100Y15290800D02*
X-22771100Y14516100D01*
X-21629772Y16497732D02*
X-22338868Y16497732D01*
X-22338868Y16497732D02*
X-22783800Y16052800D01*
X-21879772Y14821332D02*
X-21879772Y16497732D01*
X-30968184Y-32639555D02*
X-31743439Y-31864300D01*
X-31743439Y-31864300D02*
X-32296100Y-31864300D01*
X-34457600Y-29202300D02*
X-33947100Y-28691800D01*
X-16484600Y-24982800D02*
X-16484600Y-24307800D01*
X-34173100Y-22463800D02*
X-34170600Y-22466300D01*
X-26926572Y17615332D02*
X-27749932Y17615332D01*
X-27749932Y17615332D02*
X-27762200Y17627600D01*
X-19458972Y4749332D02*
X-19458972Y5488972D01*
X-19458972Y5488972D02*
X-19558000Y5588000D01*
X-21744972Y89332D02*
X-22415932Y89332D01*
X-22415932Y89332D02*
X-22428200Y101600D01*
X-36558200Y-10769600D02*
X-35382200Y-10769600D01*
X-35382200Y-10769600D02*
X-35331400Y-10820400D01*
X-19647800Y-38633400D02*
X-18796000Y-38633400D01*
X-18796000Y-38633400D02*
X-18719800Y-38557200D01*
X-11094000Y-40777000D02*
X-9966800Y-40777000D01*
X-9966800Y-40777000D02*
X-9956800Y-40767000D01*
X-11094000Y-50820000D02*
X-9976800Y-50820000D01*
X-9976800Y-50820000D02*
X-9906000Y-50749200D01*
X-28659730Y-48160880D02*
X-28094880Y-48160880D01*
X-28094880Y-48160880D02*
X-27940000Y-48006000D01*
X-28614000Y-7874000D02*
X-27686000Y-7874000D01*
X-35394000Y-7874000D02*
X-36322000Y-7874000D01*
X-25169909Y-33346662D02*
X-25218662Y-33346662D01*
X-25218662Y-33346662D02*
X-25908000Y-34036000D01*
X-23755695Y-37730724D02*
X-24402419Y-37084000D01*
X-24402419Y-37084000D02*
X-24638000Y-37084000D01*
X-33528000Y-42672000D02*
X-33528000Y-43434000D01*
X-31675291Y-39144938D02*
X-32450086Y-39919733D01*
X-32450086Y-39919733D02*
X-32450086Y-39961324D01*
X-35648900Y-29302300D02*
X-35648900Y-28384500D01*
X-35648900Y-28384500D02*
X-35687000Y-28346400D01*
X-36854500Y-22884500D02*
X-36576000Y-22606000D01*
X-37553900Y-22884500D02*
X-36854500Y-22884500D01*
X-36436300Y-22466300D02*
X-36576000Y-22606000D01*
X-34670600Y-22466300D02*
X-36436300Y-22466300D01*
X-35218000Y-57404000D02*
X-34467800Y-57404000D01*
X-34467800Y-57404000D02*
X-34340800Y-57531000D01*
D43*
X-27441485Y-65776515D02*
X-27432000Y-65786000D01*
X-27441485Y-64893861D02*
X-27441485Y-65776515D01*
X-29133800Y-58699400D02*
X-29083000Y-58648600D01*
X-29133800Y-60205600D02*
X-29133800Y-58699400D01*
X-30404722Y-52221478D02*
X-30302200Y-52324000D01*
X-31132436Y-52221478D02*
X-30404722Y-52221478D01*
X-15064000Y-62008000D02*
X-15064000Y-61546000D01*
X-15064000Y-61546000D02*
X-14986000Y-61468000D01*
X-22336085Y-63078661D02*
X-21930661Y-63078661D01*
X-21930661Y-63078661D02*
X-21844000Y-62992000D01*
X-9910000Y-62200000D02*
X-10571995Y-62200000D01*
X-10571995Y-62200000D02*
X-10690453Y-62081542D01*
X-10690453Y-62081542D02*
X-10940452Y-61831543D01*
X-11125200Y-72060400D02*
X-10235600Y-72060400D01*
X-10235600Y-72060400D02*
X-10160000Y-72136000D01*
X-12763500Y-72058000D02*
X-11940400Y-72058000D01*
X-11940400Y-72058000D02*
X-11938000Y-72060400D01*
X-11125200Y-72060400D02*
X-11938000Y-72060400D01*
X-27412392Y-69093462D02*
X-27474992Y-69030862D01*
D44*
X-11094000Y-30754000D02*
X-10180000Y-30754000D01*
X-10180000Y-30754000D02*
X-10160000Y-30734000D01*
D43*
X-19024600Y-24507800D02*
X-20294600Y-24507800D01*
X-20294600Y-24507800D02*
X-20294600Y-23139400D01*
X-20294600Y-23139400D02*
X-20320000Y-23114000D01*
X-16484600Y-24507800D02*
X-16484600Y-22885400D01*
X-16484600Y-22885400D02*
X-16510000Y-22860000D01*
X-23482300Y-28169500D02*
X-23469600Y-28182200D01*
X-25082500Y-28169500D02*
X-23482300Y-28169500D01*
X-23469600Y-28182200D02*
X-22617800Y-28182200D01*
X-22617800Y-28182200D02*
X-22606000Y-28194000D01*
D42*
X-16995400Y-39979600D02*
X-16884963Y-39979600D01*
X-16996800Y-39978200D02*
X-16995400Y-39979600D01*
X-16884963Y-39979600D02*
X-16531410Y-39979600D01*
D44*
X-6366000Y-22646000D02*
X-6366000Y-21606000D01*
X-6366000Y-21606000D02*
X-6273800Y-21513800D01*
X-6366000Y-18414200D02*
X-6400800Y-18449000D01*
X-6366000Y-17486000D02*
X-6366000Y-18414200D01*
X-9524000Y-14896000D02*
X-9524000Y-13867400D01*
X-9524000Y-13867400D02*
X-9474200Y-13817600D01*
D43*
X-26556600Y-16637000D02*
X-26582000Y-16662400D01*
X-26556600Y-15138400D02*
X-26556600Y-16637000D01*
X-25552400Y-16662400D02*
X-25527000Y-16637000D01*
X-26582000Y-16662400D02*
X-25552400Y-16662400D01*
D45*
X-39039800Y-10769600D02*
X-39268400Y-10541000D01*
X-36558200Y-10769600D02*
X-39039800Y-10769600D01*
X-39268400Y-10541000D02*
X-39878000Y-10541000D01*
X-39878000Y-10541000D02*
X-40030400Y-10693400D01*
D43*
X-32207200Y-4611000D02*
X-31838000Y-4611000D01*
X-31838000Y-4611000D02*
X-31673800Y-4775200D01*
X-24702400Y-13360400D02*
X-23926800Y-13360400D01*
D42*
X-40550200Y-13817600D02*
X-40550200Y-15316200D01*
X-40550200Y-15316200D02*
X-40550200Y-15964800D01*
X-40550200Y-15964800D02*
X-40538400Y-15976600D01*
X-13577200Y-59080400D02*
X-12573000Y-59080400D01*
D43*
X-25480192Y-69093462D02*
X-26619200Y-69093462D01*
X-26619200Y-69093462D02*
X-27412392Y-69093462D01*
X-27186559Y-24265559D02*
X-26068959Y-25383159D01*
X-27288159Y-24265559D02*
X-27186559Y-24265559D01*
X-27753641Y-24265559D02*
X-28143200Y-23876000D01*
X-27288159Y-24265559D02*
X-27753641Y-24265559D01*
X-24892000Y-27979000D02*
X-25082500Y-28169500D01*
X-26068959Y-25383159D02*
X-24892000Y-26560118D01*
X-24892000Y-26560118D02*
X-24892000Y-27979000D01*
D42*
G04 #@! TO.N,Net-(C1-Pad2)*
X-29519917Y-26497317D02*
X-30855883Y-26497317D01*
X-28490241Y-25467641D02*
X-29519917Y-26497317D01*
X-30855883Y-30630536D02*
X-29907524Y-31578895D01*
X-30855883Y-26497317D02*
X-30855883Y-30630536D01*
G04 #@! TO.N,Net-(C2-Pad2)*
X-28950883Y-28265083D02*
X-27271041Y-26585241D01*
X-29088117Y-28265083D02*
X-28950883Y-28265083D01*
X-29088117Y-28265083D02*
X-30251400Y-29428366D01*
X-30251400Y-30527913D02*
X-29553971Y-31225342D01*
X-30251400Y-29428366D02*
X-30251400Y-30527913D01*
G04 #@! TO.N,3V3*
X-36558200Y-12039600D02*
X-35204400Y-12039600D01*
X-35204400Y-12039600D02*
X-35179000Y-12065000D01*
X-21397800Y-38633400D02*
X-21499400Y-38531800D01*
X-21347800Y-38633400D02*
X-21397800Y-38633400D01*
X-22247513Y-38531800D02*
X-23402142Y-37377171D01*
X-21499400Y-38531800D02*
X-22247513Y-38531800D01*
X-11094000Y-39527000D02*
X-9961400Y-39527000D01*
X-9961400Y-39527000D02*
X-9931400Y-39497000D01*
X-26328000Y-10668000D02*
X-25146000Y-10668000D01*
X-21347800Y-38633400D02*
X-21347800Y-38088200D01*
X-21347800Y-38088200D02*
X-21590000Y-37846000D01*
X-33528000Y-40290539D02*
X-33528000Y-40972000D01*
X-32028845Y-38791384D02*
X-33528000Y-40290539D01*
X-37249100Y-29300700D02*
X-37249100Y-28308300D01*
X-37249100Y-28308300D02*
X-37236400Y-28295600D01*
X-21564600Y-24507800D02*
X-21564600Y-22910800D01*
X-21564600Y-22910800D02*
X-21488400Y-22834600D01*
X-19215100Y-29793300D02*
X-19215100Y-30568900D01*
X-19215100Y-30568900D02*
X-19227800Y-30581600D01*
X-25082500Y-29869500D02*
X-25082500Y-31432500D01*
X-25082500Y-31432500D02*
X-25069800Y-31445200D01*
X-25069800Y-31832339D02*
X-25069800Y-31445200D01*
X-25877016Y-32639555D02*
X-25069800Y-31832339D01*
X-33528000Y-40972000D02*
X-34368000Y-40972000D01*
X-34368000Y-40972000D02*
X-34391600Y-40995600D01*
X-22033600Y-48094000D02*
X-21615400Y-47675800D01*
X-22779984Y-48094000D02*
X-22033600Y-48094000D01*
X-32832436Y-54694236D02*
X-32943800Y-54805600D01*
X-32832436Y-52221478D02*
X-32832436Y-54694236D01*
X-35218000Y-55626000D02*
X-34544000Y-55626000D01*
X-34544000Y-55626000D02*
X-33782000Y-54864000D01*
X-33723600Y-54805600D02*
X-33782000Y-54864000D01*
X-32943800Y-54805600D02*
X-33723600Y-54805600D01*
X-16996800Y-40978200D02*
X-16979400Y-40995600D01*
X-16979400Y-40995600D02*
X-16884963Y-40995600D01*
X-16884963Y-40995600D02*
X-16531410Y-40995600D01*
D44*
X-37756200Y-44856400D02*
X-38862000Y-44856400D01*
X-38862000Y-44856400D02*
X-38912800Y-44907200D01*
X-32576400Y-44907200D02*
X-31775400Y-44907200D01*
X-31775400Y-44907200D02*
X-31724600Y-44958000D01*
X-25388200Y-56413400D02*
X-25388200Y-57226200D01*
X-25388200Y-57226200D02*
X-25388200Y-57988200D01*
X-19227800Y-45173000D02*
X-19202400Y-45198400D01*
X-20828000Y-45173000D02*
X-20066000Y-45173000D01*
X-20066000Y-45173000D02*
X-19227800Y-45173000D01*
X-6224000Y-9996000D02*
X-6224000Y-11073400D01*
X-6224000Y-11073400D02*
X-6197600Y-11099800D01*
D45*
X-38149000Y-12241000D02*
X-37846000Y-11938000D01*
X-39268400Y-12241000D02*
X-38149000Y-12241000D01*
X-36659800Y-11938000D02*
X-36558200Y-12039600D01*
X-37846000Y-11938000D02*
X-36659800Y-11938000D01*
X-32803200Y-16662400D02*
X-33553400Y-16662400D01*
X-33553400Y-16662400D02*
X-33578800Y-16637000D01*
D42*
X-18960200Y-59029600D02*
X-19913600Y-59029600D01*
X-19913600Y-59029600D02*
X-19939000Y-59055000D01*
X-19722200Y-35458400D02*
X-20497800Y-35458400D01*
X-20497800Y-35458400D02*
X-20523200Y-35483800D01*
G04 #@! TO.N,Net-(C4-Pad1)*
X-35648900Y-31002300D02*
X-35648900Y-31806300D01*
X-35648900Y-31806300D02*
X-34992420Y-32462780D01*
X-34992420Y-32462780D02*
X-31852067Y-32462780D01*
X-31852067Y-32462780D02*
X-31321738Y-32993109D01*
X-37249100Y-31000700D02*
X-35650500Y-31000700D01*
X-35650500Y-31000700D02*
X-35648900Y-31002300D01*
X-37045900Y-31102300D02*
X-37058600Y-31115000D01*
X-35486100Y-31117300D02*
X-35471100Y-31102300D01*
G04 #@! TO.N,Net-(C5-Pad1)*
X-25523462Y-32993109D02*
X-23469600Y-30939247D01*
X-23469600Y-30939247D02*
X-23469600Y-29882200D01*
X-25523462Y-32993109D02*
X-25523462Y-32860751D01*
G04 #@! TO.N,/SWDIO*
X-21564600Y-20707800D02*
X-21564600Y-22011800D01*
X-21564600Y-22011800D02*
X-22783800Y-23231000D01*
X-22783800Y-23231000D02*
X-22783800Y-24638000D01*
X-26584122Y-31932449D02*
X-27341473Y-32689800D01*
X-27341473Y-32689800D02*
X-27613779Y-32689800D01*
G04 #@! TO.N,/SWCLK*
X-20294600Y-20707800D02*
X-20294600Y-21869400D01*
X-20294600Y-21869400D02*
X-20701000Y-22275800D01*
X-27406600Y-33451800D02*
X-27396367Y-33451800D01*
X-27396367Y-33451800D02*
X-26230569Y-32286002D01*
G04 #@! TO.N,/RST*
X-15595600Y-22900800D02*
X-15595600Y-27406600D01*
X-15595600Y-27406600D02*
X-16282300Y-28093300D01*
X-16282300Y-28093300D02*
X-16834500Y-28093300D01*
X-16834500Y-28093300D02*
X-19215100Y-28093300D01*
X-8366000Y-17486000D02*
X-8366000Y-18465000D01*
X-8366000Y-18465000D02*
X-8366000Y-22646000D01*
X-8366000Y-22646000D02*
X-8970000Y-22646000D01*
X-8970000Y-22646000D02*
X-9224800Y-22900800D01*
X-9224800Y-22900800D02*
X-15595600Y-22900800D01*
X-20802600Y-28093300D02*
X-19215100Y-28093300D01*
X-15595600Y-22900800D02*
X-16484600Y-22011800D01*
X-16484600Y-22011800D02*
X-16484600Y-20707800D01*
G04 #@! TO.N,/RESET*
X-20955010Y-30545977D02*
X-20955010Y-30445140D01*
X-20955010Y-30445140D02*
X-20955010Y-30043300D01*
X-20548600Y-29979800D02*
X-20548600Y-30276800D01*
X-24462802Y-34053769D02*
X-20955010Y-30545977D01*
D44*
G04 #@! TO.N,/A3*
X-31852069Y-34584098D02*
X-30973302Y-34584098D01*
X-32382398Y-34053769D02*
X-31852069Y-34584098D01*
X-28397200Y-37160200D02*
X-28397200Y-40360600D01*
X-30973302Y-34584098D02*
X-28397200Y-37160200D01*
X-28397200Y-40360600D02*
X-28397200Y-40081200D01*
X-28397200Y-40081200D02*
X-28524200Y-39954200D01*
X-6390200Y-15062200D02*
X-6224000Y-14896000D01*
X-6959600Y-15062200D02*
X-6390200Y-15062200D01*
D42*
G04 #@! TO.N,/MOSI*
X-28770600Y-22466300D02*
X-29470600Y-22466300D01*
X-29470600Y-22466300D02*
X-32169100Y-25164800D01*
X-32169100Y-25164800D02*
X-32169100Y-25387300D01*
X-31321738Y-39498491D02*
X-30791409Y-38968162D01*
X-30791409Y-38968162D02*
X-30791409Y-37940991D01*
X-30791409Y-37940991D02*
X-32613600Y-36118800D01*
G04 #@! TO.N,/SCK*
X-28770600Y-21196300D02*
X-29470600Y-21196300D01*
X-29470600Y-21196300D02*
X-30876007Y-22601707D01*
X-30876007Y-22601707D02*
X-31796507Y-22601707D01*
X-30968184Y-39852045D02*
X-30384999Y-39268860D01*
X-30384999Y-39268860D02*
X-30384999Y-37598715D01*
X-30384999Y-37598715D02*
X-31864914Y-36118800D01*
G04 #@! TO.N,/MISO*
X-34170600Y-19926300D02*
X-32677100Y-19926300D01*
X-32677100Y-19926300D02*
X-32359600Y-20243800D01*
X-30614631Y-40205598D02*
X-29978589Y-39569556D01*
X-29978589Y-39569556D02*
X-29978589Y-37256439D01*
X-29978589Y-37256439D02*
X-30912414Y-36322614D01*
G04 #@! TO.N,/USB-*
X-16510000Y-63246000D02*
X-17526000Y-63246000D01*
X-16764000Y-64008000D02*
X-16764000Y-63404000D01*
X-16606000Y-63246000D02*
X-16510000Y-63246000D01*
X-16764000Y-63404000D02*
X-16606000Y-63246000D01*
X-17526000Y-63246000D02*
X-17780000Y-63500000D01*
D44*
X-9910000Y-64150000D02*
X-11923000Y-64150000D01*
X-11923000Y-64150000D02*
X-12221401Y-63851599D01*
X-12721399Y-63351601D02*
X-12471400Y-63601600D01*
X-12827000Y-63246000D02*
X-12721399Y-63351601D01*
X-16606000Y-63246000D02*
X-12827000Y-63246000D01*
X-12221401Y-63851599D02*
X-12471400Y-63601600D01*
X-23152100Y-39748533D02*
X-24462802Y-38437831D01*
X-23152100Y-41770300D02*
X-23152100Y-39748533D01*
D42*
G04 #@! TO.N,/USB+*
X-16638000Y-62738000D02*
X-16510000Y-62738000D01*
X-16510000Y-62738000D02*
X-17526000Y-62738000D01*
X-16764000Y-62008000D02*
X-16764000Y-62612000D01*
X-16764000Y-62612000D02*
X-16638000Y-62738000D01*
X-17526000Y-62738000D02*
X-17780000Y-62484000D01*
D44*
X-16510000Y-62738000D02*
X-12169178Y-62738000D01*
X-12169178Y-62738000D02*
X-11368365Y-63538813D01*
X-11368365Y-63538813D02*
X-10902013Y-63538813D01*
X-10863200Y-63500000D02*
X-9910000Y-63500000D01*
X-10902013Y-63538813D02*
X-10863200Y-63500000D01*
X-22390100Y-39803427D02*
X-22390100Y-41770300D01*
X-24109249Y-38084278D02*
X-22390100Y-39803427D01*
D42*
G04 #@! TO.N,/D30*
X-23402142Y-35114429D02*
X-22631400Y-34343687D01*
X-22631400Y-34343687D02*
X-22631400Y-33807400D01*
X-22631400Y-33807400D02*
X-21615410Y-32791410D01*
X-21615410Y-32791410D02*
X-13563590Y-32791410D01*
X-13563590Y-32791410D02*
X-13101000Y-33254000D01*
X-13101000Y-33254000D02*
X-11094000Y-33254000D01*
X-11114000Y-33274000D02*
X-11094000Y-33254000D01*
G04 #@! TO.N,/D31*
X-12198000Y-32004000D02*
X-12446000Y-32252000D01*
X-13843000Y-32385000D02*
X-12579000Y-32385000D01*
X-12579000Y-32385000D02*
X-12446000Y-32252000D01*
X-11094000Y-32004000D02*
X-12198000Y-32004000D01*
X-20396200Y-32385000D02*
X-13843000Y-32385000D01*
X-21107400Y-32385000D02*
X-20396200Y-32385000D01*
X-23225366Y-33639366D02*
X-21971000Y-32385000D01*
X-21971000Y-32385000D02*
X-21107400Y-32385000D01*
X-23755695Y-34760876D02*
X-23225366Y-34230547D01*
X-23225366Y-34230547D02*
X-23225366Y-33639366D01*
G04 #@! TO.N,/USB_ID*
X-21005800Y-33883600D02*
X-19722200Y-33883600D01*
X-23241000Y-36118800D02*
X-21005800Y-33883600D01*
X-24422100Y-36118800D02*
X-23241000Y-36118800D01*
X-25449664Y-35091236D02*
X-24422100Y-36118800D01*
X-24816355Y-33700216D02*
X-25449664Y-34333525D01*
X-25449664Y-34333525D02*
X-25449664Y-35091236D01*
D46*
G04 #@! TO.N,5V0*
X-25468392Y-70751717D02*
X-25480192Y-70739917D01*
D43*
X-27465937Y-70739917D02*
X-27474992Y-70730862D01*
X-25480192Y-70739917D02*
X-27465937Y-70739917D01*
D42*
G04 #@! TO.N,Net-(C10-Pad1)*
X-11127600Y-70108000D02*
X-11125200Y-70110400D01*
D46*
G04 #@! TO.N,5V0*
X-23836085Y-64828661D02*
X-23836085Y-63728661D01*
D42*
X-23730192Y-69093462D02*
X-23780192Y-69093462D01*
D43*
X-23780192Y-64884554D02*
X-23836085Y-64828661D01*
X-23780192Y-69093462D02*
X-23780192Y-64884554D01*
X-25426647Y-70739917D02*
X-23780192Y-69093462D01*
X-25480192Y-70739917D02*
X-25426647Y-70739917D01*
D45*
G04 #@! TO.N,Net-(C10-Pad1)*
X-11125200Y-67615200D02*
X-11125200Y-70360400D01*
X-10160000Y-66300000D02*
X-10160000Y-66650000D01*
X-10160000Y-66650000D02*
X-11125200Y-67615200D01*
X-12761100Y-70360400D02*
X-12763500Y-70358000D01*
X-11125200Y-70360400D02*
X-12761100Y-70360400D01*
D46*
G04 #@! TO.N,VUSB*
X-7640145Y-64942910D02*
X-8386890Y-64942910D01*
X-7117090Y-64419855D02*
X-7640145Y-64942910D01*
X-7117090Y-62580145D02*
X-7117090Y-64419855D01*
X-7818834Y-61878401D02*
X-7117090Y-62580145D01*
X-8737600Y-62128400D02*
X-8487601Y-61878401D01*
X-8487601Y-61878401D02*
X-7818834Y-61878401D01*
X-8529800Y-64800000D02*
X-9910000Y-64800000D01*
X-8386890Y-64942910D02*
X-8529800Y-64800000D01*
X-20972592Y-69098362D02*
X-17790362Y-69098362D01*
X-17790362Y-69098362D02*
X-14020800Y-65328800D01*
X-10435000Y-64800000D02*
X-9910000Y-64800000D01*
X-14020800Y-65328800D02*
X-13492000Y-64800000D01*
X-13492000Y-64800000D02*
X-10435000Y-64800000D01*
X-13462000Y-64770000D02*
X-14020800Y-65328800D01*
X-12395200Y-64770000D02*
X-13462000Y-64770000D01*
X-14864000Y-64008000D02*
X-13157200Y-64008000D01*
X-13157200Y-64008000D02*
X-12395200Y-64770000D01*
D42*
G04 #@! TO.N,Net-(J1-Pad4)*
X-12039600Y-62255400D02*
X-12071485Y-62255400D01*
X-12071485Y-62255400D02*
X-12095296Y-62231589D01*
D44*
X-11845297Y-62481588D02*
X-12095296Y-62231589D01*
X-9910000Y-62850000D02*
X-11476885Y-62850000D01*
X-11476885Y-62850000D02*
X-11845297Y-62481588D01*
X-11084988Y-62850000D02*
X-11125343Y-62890355D01*
X-9910000Y-62850000D02*
X-11084988Y-62850000D01*
D42*
X-17285600Y-36195000D02*
X-18022200Y-35458400D01*
X-17145000Y-36195000D02*
X-17285600Y-36195000D01*
X-18022200Y-35458400D02*
X-18022200Y-33883600D01*
D46*
G04 #@! TO.N,Net-(F1-Pad1)*
X-20972592Y-71298362D02*
X-22290747Y-71298362D01*
X-22290747Y-71298362D02*
X-22849192Y-70739917D01*
X-22849192Y-70739917D02*
X-23780192Y-70739917D01*
D42*
G04 #@! TO.N,Net-(D5-Pad1)*
X-22779984Y-46394000D02*
X-24511000Y-46394000D01*
G04 #@! TO.N,/D13*
X-28659730Y-46260880D02*
X-28659730Y-45681880D01*
X-28659730Y-45681880D02*
X-28448000Y-45470150D01*
X-28448000Y-45470150D02*
X-28448000Y-40970200D01*
X-28448000Y-40970200D02*
X-27914600Y-40436800D01*
X-27914600Y-40436800D02*
X-27733519Y-40255719D01*
X-28168600Y-40690800D02*
X-27914600Y-40436800D01*
X-27733519Y-40255719D02*
X-27594662Y-40255719D01*
X-27594662Y-40255719D02*
X-26937676Y-40912705D01*
G04 #@! TO.N,Net-(Q4-Pad3)*
X-26359730Y-47210880D02*
X-26359730Y-47789880D01*
X-26055610Y-48094000D02*
X-25265000Y-48094000D01*
X-26359730Y-47789880D02*
X-26055610Y-48094000D01*
X-25265000Y-48094000D02*
X-24511000Y-48094000D01*
G04 #@! TO.N,Net-(J10-Pad3)*
X-19458972Y3049332D02*
X-16588972Y3049332D01*
X-16588972Y3049332D02*
X-15916972Y2377332D01*
G04 #@! TO.N,Net-(J10-Pad4)*
X-13376972Y1357332D02*
X-16936972Y1357332D01*
X-16936972Y1357332D02*
X-18374972Y-80668D01*
X-19458972Y-80668D02*
X-18374972Y-80668D01*
G04 #@! TO.N,Net-(J11-Pad2)*
X-19679772Y14821332D02*
X-16192932Y14821332D01*
X-16192932Y14821332D02*
X-14706600Y13335000D01*
X-14706600Y13335000D02*
X-12217400Y13335000D01*
X-12217400Y13335000D02*
X-11557000Y13995400D01*
X-11557000Y13995400D02*
X-11557000Y17091360D01*
X-11557000Y17091360D02*
X-13362972Y18897332D01*
G04 #@! TO.N,Net-(J11-Pad3)*
X-15902972Y17877332D02*
X-17446172Y17877332D01*
X-17446172Y17877332D02*
X-18825772Y16497732D01*
X-18825772Y16497732D02*
X-19679772Y16497732D01*
G04 #@! TO.N,Net-(J11-Pad4)*
X-13362972Y16857332D02*
X-14352921Y16857332D01*
X-14352921Y16857332D02*
X-14748783Y17253194D01*
X-15011400Y18923000D02*
X-18026104Y18923000D01*
X-14748783Y17253194D02*
X-14748783Y18660383D01*
X-14748783Y18660383D02*
X-15011400Y18923000D01*
X-18825772Y18123332D02*
X-19679772Y18123332D01*
X-18026104Y18923000D02*
X-18825772Y18123332D01*
G04 #@! TO.N,Net-(J11-Pad5)*
X-19679772Y19748932D02*
X-19529772Y19748932D01*
X-12933458Y15837332D02*
X-15902972Y15837332D01*
X-19529772Y19748932D02*
X-18272904Y21005800D01*
X-18272904Y21005800D02*
X-15104373Y21005800D01*
X-15104373Y21005800D02*
X-14342373Y20243800D01*
X-14342373Y20243800D02*
X-14342373Y18152373D01*
X-14342373Y18152373D02*
X-14026733Y17836733D01*
X-14026733Y17836733D02*
X-12892859Y17836733D01*
X-12892859Y17836733D02*
X-12383571Y17327445D01*
X-12383571Y17327445D02*
X-12383571Y16387219D01*
X-12383571Y16387219D02*
X-12933458Y15837332D01*
D44*
G04 #@! TO.N,/SCL1*
X-24816355Y-38791384D02*
X-24962616Y-38791384D01*
X-24962616Y-38791384D02*
X-25654000Y-38100000D01*
X-17049000Y-42926000D02*
X-16996800Y-42978200D01*
X-18288000Y-42926000D02*
X-17049000Y-42926000D01*
X-30480000Y-54881800D02*
X-30403800Y-54805600D01*
X-30480000Y-56159400D02*
X-30480000Y-54881800D01*
X-30480000Y-56540400D02*
X-30480000Y-56159400D01*
X-29794200Y-57226200D02*
X-30480000Y-56540400D01*
X-28603400Y-57226200D02*
X-29794200Y-57226200D01*
X-27088200Y-57988200D02*
X-27841400Y-57988200D01*
X-27841400Y-57988200D02*
X-28603400Y-57226200D01*
X-11154800Y-42087800D02*
X-11094000Y-42027000D01*
X-12446000Y-42087800D02*
X-11154800Y-42087800D01*
X-18860400Y-43498400D02*
X-18288000Y-42926000D01*
X-19202400Y-43498400D02*
X-18860400Y-43498400D01*
G04 #@! TO.N,/SDA1*
X-25169909Y-39144938D02*
X-25117062Y-39144938D01*
X-25117062Y-39144938D02*
X-24384000Y-39878000D01*
X-17065000Y-41910000D02*
X-16996800Y-41978200D01*
X-18288000Y-41910000D02*
X-17065000Y-41910000D01*
X-24384000Y-39878000D02*
X-24384000Y-42062400D01*
X-24384000Y-42062400D02*
X-24409400Y-42087800D01*
X-29387800Y-55059600D02*
X-29133800Y-54805600D01*
X-29387800Y-56438800D02*
X-29387800Y-55059600D01*
X-27113600Y-56438800D02*
X-27088200Y-56413400D01*
X-29387800Y-56438800D02*
X-27113600Y-56438800D01*
X-12147200Y-43277000D02*
X-11094000Y-43277000D01*
X-14719800Y-43277000D02*
X-12147200Y-43277000D01*
X-16018600Y-41978200D02*
X-14719800Y-43277000D01*
X-16996800Y-41978200D02*
X-16018600Y-41978200D01*
X-20828000Y-43423000D02*
X-20828000Y-43473000D01*
X-19315000Y-41910000D02*
X-20828000Y-43423000D01*
X-18288000Y-41910000D02*
X-19315000Y-41910000D01*
D42*
G04 #@! TO.N,/SCL2*
X-19349000Y-53320000D02*
X-11094000Y-53320000D01*
X-11114000Y-53340000D02*
X-11094000Y-53320000D01*
D44*
X-34276400Y-45784400D02*
X-34276400Y-44907200D01*
X-19349000Y-53320000D02*
X-26740800Y-53320000D01*
X-26740800Y-53320000D02*
X-34276400Y-45784400D01*
X-34326400Y-44907200D02*
X-34276400Y-44907200D01*
X-35356800Y-43876800D02*
X-34326400Y-44907200D01*
X-35356800Y-39998019D02*
X-35356800Y-43876800D01*
X-33089505Y-37730724D02*
X-35356800Y-39998019D01*
D42*
G04 #@! TO.N,/SDA2*
X-11094000Y-54570000D02*
X-19349000Y-54570000D01*
X-19349000Y-54570000D02*
X-23154000Y-54570000D01*
D44*
X-35737800Y-40284400D02*
X-35737800Y-40157400D01*
X-35737800Y-39649400D02*
X-35737800Y-40284400D01*
X-33443058Y-37377171D02*
X-33465571Y-37377171D01*
X-33465571Y-37377171D02*
X-35737800Y-39649400D01*
X-25146000Y-54570000D02*
X-25287600Y-54570000D01*
X-24307800Y-54570000D02*
X-19349000Y-54570000D01*
X-23154000Y-54570000D02*
X-24307800Y-54570000D01*
X-24307800Y-54570000D02*
X-25146000Y-54570000D01*
X-25993708Y-54570000D02*
X-25146000Y-54570000D01*
X-34736200Y-46126400D02*
X-34437308Y-46126400D01*
X-36056200Y-44856400D02*
X-36006200Y-44856400D01*
X-36006200Y-44856400D02*
X-34736200Y-46126400D01*
X-25993708Y-54570000D02*
X-19349000Y-54570000D01*
X-26080708Y-54483000D02*
X-25993708Y-54570000D01*
X-34437308Y-46126400D02*
X-26080708Y-54483000D01*
X-36056200Y-43676200D02*
X-36056200Y-44856400D01*
X-35737800Y-43357800D02*
X-36056200Y-43676200D01*
X-35737800Y-43357800D02*
X-35737800Y-40284400D01*
D42*
G04 #@! TO.N,Net-(U1-Pad25)*
X-27291229Y-41266258D02*
X-27275642Y-41266258D01*
G04 #@! TO.N,/PERIPH_3V3*
X-34170600Y-21196300D02*
X-36145100Y-21196300D01*
X-28770600Y-18656300D02*
X-28770600Y-19926300D01*
X-28770600Y-19926300D02*
X-31258586Y-19926300D01*
X-31258586Y-19926300D02*
X-32528586Y-21196300D01*
X-32528586Y-21196300D02*
X-32916600Y-21196300D01*
X-32916600Y-21196300D02*
X-34170600Y-21196300D01*
X-34682400Y-21184500D02*
X-34670600Y-21196300D01*
X-37553900Y-21184500D02*
X-34682400Y-21184500D01*
D46*
X-29286200Y-13309600D02*
X-28270600Y-14325200D01*
D43*
X-30458200Y-13309600D02*
X-29286200Y-13309600D01*
X-31158200Y-13309600D02*
X-30458200Y-13309600D01*
X-28256600Y-14130400D02*
X-28256600Y-15138400D01*
X-29077400Y-13309600D02*
X-28256600Y-14130400D01*
X-29286200Y-13309600D02*
X-29077400Y-13309600D01*
X-28256600Y-16637000D02*
X-28282000Y-16662400D01*
X-28256600Y-15138400D02*
X-28256600Y-16637000D01*
D46*
X-28270600Y-14325200D02*
X-28270600Y-17856200D01*
X-28270600Y-17856200D02*
X-28270600Y-18656300D01*
D43*
X-27511200Y-13309600D02*
X-29077400Y-13309600D01*
X-27460400Y-13360400D02*
X-27511200Y-13309600D01*
X-26402400Y-13360400D02*
X-27460400Y-13360400D01*
D42*
G04 #@! TO.N,Net-(BT1-Pad1)*
X-30331436Y-60128478D02*
X-30331436Y-61362564D01*
X-30331436Y-61362564D02*
X-29845000Y-61849000D01*
G04 #@! TO.N,Net-(C19-Pad1)*
X-36918000Y-57404000D02*
X-36918000Y-55626000D01*
G04 #@! TO.N,Net-(U6-Pad2)*
X-31601436Y-60128478D02*
X-31601436Y-62421478D01*
X-31601436Y-62421478D02*
X-31006436Y-63016478D01*
G04 #@! TO.N,Net-(U6-Pad1)*
X-32871436Y-60128478D02*
X-32871436Y-62381478D01*
X-32871436Y-62381478D02*
X-33506436Y-63016478D01*
G04 #@! TO.N,/D6_RAIN*
X-19458972Y-2030668D02*
X-17425732Y-2030668D01*
X-17425732Y-2030668D02*
X-17094200Y-2362200D01*
X-20474972Y-2214468D02*
X-20474972Y-2032000D01*
X-19458972Y-2030668D02*
X-20212972Y-2030668D01*
X-20212972Y-2030668D02*
X-20214304Y-2032000D01*
X-20474972Y-2032000D02*
X-20474972Y-1114668D01*
X-20214304Y-2032000D02*
X-20474972Y-2032000D01*
X-21744972Y-2755468D02*
X-21015972Y-2755468D01*
X-21015972Y-2755468D02*
X-20474972Y-2214468D01*
X-19377440Y-2362200D02*
X-19458972Y-2280668D01*
X-20474972Y1783332D02*
X-20474972Y-1114668D01*
X-19458972Y-2130668D02*
X-19458972Y-2280668D01*
X-21744972Y2324332D02*
X-21015972Y2324332D01*
X-21015972Y2324332D02*
X-20474972Y1783332D01*
D44*
X-25877016Y-39852045D02*
X-27218809Y-38510252D01*
X-27218809Y-38510252D02*
X-27218809Y-38444030D01*
D42*
G04 #@! TO.N,/A1_WIND_DIR*
X-21629772Y21476132D02*
X-21629772Y19748932D01*
X-24081772Y19901332D02*
X-21782172Y19901332D01*
X-21782172Y19901332D02*
X-21629772Y19748932D01*
X-21629772Y21476132D02*
X-21629772Y22805932D01*
X-21629772Y22805932D02*
X-22382772Y23558932D01*
X-22382772Y23558932D02*
X-22557772Y23558932D01*
X-23876000Y21590000D02*
X-21993640Y21590000D01*
X-21993640Y21590000D02*
X-21879772Y21476132D01*
X-23776772Y19748932D02*
X-23929172Y19901332D01*
X-31675291Y-33346662D02*
X-31144962Y-33876991D01*
X-31144962Y-33876991D02*
X-30774305Y-33876991D01*
X-30774305Y-33876991D02*
X-28105100Y-31207786D01*
X-28105100Y-31207786D02*
X-28105100Y-31038800D01*
X-28105100Y-31038800D02*
X-28092400Y-31026100D01*
G04 #@! TO.N,/D10_WIND_SPEED*
X-24081772Y17615332D02*
X-23177772Y17615332D01*
X-23177772Y17615332D02*
X-22669772Y18123332D01*
X-22669772Y18123332D02*
X-21629772Y18123332D01*
X-24081972Y15176932D02*
X-24081972Y14447932D01*
X-24081972Y14447932D02*
X-23403412Y13769372D01*
X-23403412Y13769372D02*
X-23190200Y13769372D01*
X-23190200Y13769372D02*
X-17856200Y13769372D01*
X-24081772Y17615332D02*
X-24081772Y15177132D01*
X-24081772Y15177132D02*
X-24081972Y15176932D01*
X-23929372Y17615132D02*
X-23929172Y17615332D01*
D44*
X-26584122Y-40559151D02*
X-26750849Y-40559151D01*
X-26750849Y-40559151D02*
X-27686000Y-39624000D01*
D42*
G04 #@! TO.N,/D8_PERIPH_EN*
X-33089505Y-34760876D02*
X-34589081Y-33261300D01*
X-34589081Y-33261300D02*
X-36423600Y-33261300D01*
X-36436300Y-33274000D02*
X-36423600Y-33261300D01*
D44*
X-36499800Y-14638000D02*
X-36558200Y-14579600D01*
X-36499800Y-15163800D02*
X-36499800Y-14638000D01*
D42*
X-37820600Y-14579600D02*
X-36558200Y-14579600D01*
X-38850200Y-15316200D02*
X-38557200Y-15316200D01*
X-38557200Y-15316200D02*
X-37820600Y-14579600D01*
G04 #@! TO.N,/D5_FLASH_CS*
X-29184600Y-39166800D02*
X-29438600Y-38912800D01*
X-34170600Y-18656300D02*
X-32916600Y-18656300D01*
X-32916600Y-18656300D02*
X-31915100Y-19657800D01*
X-31915100Y-19657800D02*
X-31915100Y-19735800D01*
X-29438600Y-39823316D02*
X-29023642Y-40238274D01*
X-29023642Y-40238274D02*
X-29023642Y-40735929D01*
X-29023642Y-40735929D02*
X-29553971Y-41266258D01*
X-29438600Y-38912800D02*
X-29438600Y-39823316D01*
G04 #@! TO.N,Net-(U5-Pad4)*
X-9524000Y-10296000D02*
X-9524000Y-9996000D01*
G04 #@! TO.N,Net-(C14-Pad1)*
X-30614631Y-32286002D02*
X-32408833Y-30491800D01*
X-32408833Y-30491800D02*
X-32486600Y-30491800D01*
X-34061400Y-30491800D02*
X-32486600Y-30491800D01*
X-32308833Y-30591800D02*
X-32486600Y-30591800D01*
D44*
G04 #@! TO.N,/D7_WEATHER_EN*
X-24993133Y-41553933D02*
X-26060400Y-42621200D01*
X-25523462Y-39498491D02*
X-24993133Y-40028820D01*
X-24993133Y-40028820D02*
X-24993133Y-41553933D01*
X-36456600Y-13411200D02*
X-36558200Y-13309600D01*
X-35255200Y-13411200D02*
X-36456600Y-13411200D01*
D42*
X-38342200Y-13309600D02*
X-36558200Y-13309600D01*
X-38850200Y-13817600D02*
X-38342200Y-13309600D01*
G04 #@! TO.N,Net-(R5-Pad1)*
X-31056600Y-10668000D02*
X-31158200Y-10769600D01*
X-28028000Y-10668000D02*
X-31056600Y-10668000D01*
G04 #@! TO.N,/WEATHER_3V3*
X-19560372Y21595532D02*
X-19679772Y21476132D01*
D44*
X-21744972Y5321732D02*
X-21744972Y6195028D01*
X-21744972Y6195028D02*
X-21564600Y6375400D01*
X-26926772Y15176932D02*
X-27749932Y15176932D01*
X-27749932Y15176932D02*
X-27889200Y15316200D01*
X-18732068Y21476132D02*
X-18669000Y21539200D01*
X-19929772Y21476132D02*
X-18732068Y21476132D01*
X-19712972Y23558932D02*
X-18757468Y23558932D01*
X-18757468Y23558932D02*
X-18719800Y23596600D01*
D42*
G04 #@! TO.N,Net-(R12-Pad1)*
X-31103200Y-14634600D02*
X-31158200Y-14579600D01*
X-31103200Y-16662400D02*
X-31103200Y-14634600D01*
G04 #@! TO.N,Net-(D1-Pad1)*
X-15328000Y-59029600D02*
X-15277200Y-59080400D01*
X-17260200Y-59029600D02*
X-15328000Y-59029600D01*
G04 #@! TD*
D47*
G04 #@! TO.N,3V3*
G36*
X-23621500Y-61976500D02*
X-24130000Y-61976500D01*
X-24154679Y-61978931D01*
X-24178409Y-61986129D01*
X-24200280Y-61997819D01*
X-24219449Y-62013551D01*
X-24235181Y-62032720D01*
X-24246871Y-62054591D01*
X-24254069Y-62078321D01*
X-24256500Y-62103000D01*
X-24256500Y-62149377D01*
X-24300717Y-62153732D01*
X-24362866Y-62172584D01*
X-24420143Y-62203199D01*
X-24470346Y-62244400D01*
X-24511547Y-62294603D01*
X-24542162Y-62351880D01*
X-24561014Y-62414029D01*
X-24567380Y-62478661D01*
X-24567380Y-64262500D01*
X-26621631Y-64262500D01*
X-26635408Y-64217080D01*
X-26666023Y-64159803D01*
X-26707224Y-64109600D01*
X-26757427Y-64068399D01*
X-26814704Y-64037784D01*
X-26876853Y-64018932D01*
X-26941485Y-64012566D01*
X-27941485Y-64012566D01*
X-28006117Y-64018932D01*
X-28068266Y-64037784D01*
X-28125543Y-64068399D01*
X-28175746Y-64109600D01*
X-28194500Y-64132452D01*
X-28194500Y-60451500D01*
X-23621500Y-60451500D01*
X-23621500Y-61976500D01*
X-23621500Y-61976500D01*
G37*
X-23621500Y-61976500D02*
X-24130000Y-61976500D01*
X-24154679Y-61978931D01*
X-24178409Y-61986129D01*
X-24200280Y-61997819D01*
X-24219449Y-62013551D01*
X-24235181Y-62032720D01*
X-24246871Y-62054591D01*
X-24254069Y-62078321D01*
X-24256500Y-62103000D01*
X-24256500Y-62149377D01*
X-24300717Y-62153732D01*
X-24362866Y-62172584D01*
X-24420143Y-62203199D01*
X-24470346Y-62244400D01*
X-24511547Y-62294603D01*
X-24542162Y-62351880D01*
X-24561014Y-62414029D01*
X-24567380Y-62478661D01*
X-24567380Y-64262500D01*
X-26621631Y-64262500D01*
X-26635408Y-64217080D01*
X-26666023Y-64159803D01*
X-26707224Y-64109600D01*
X-26757427Y-64068399D01*
X-26814704Y-64037784D01*
X-26876853Y-64018932D01*
X-26941485Y-64012566D01*
X-27941485Y-64012566D01*
X-28006117Y-64018932D01*
X-28068266Y-64037784D01*
X-28125543Y-64068399D01*
X-28175746Y-64109600D01*
X-28194500Y-64132452D01*
X-28194500Y-60451500D01*
X-23621500Y-60451500D01*
X-23621500Y-61976500D01*
G36*
X-8762500Y-49911500D02*
X-20955500Y-49911500D01*
X-20955500Y-48640500D01*
X-8762500Y-48640500D01*
X-8762500Y-49911500D01*
X-8762500Y-49911500D01*
G37*
X-8762500Y-49911500D02*
X-20955500Y-49911500D01*
X-20955500Y-48640500D01*
X-8762500Y-48640500D01*
X-8762500Y-49911500D01*
G04 #@! TO.N,GND*
G36*
X-8762500Y-51435500D02*
X-20955500Y-51435500D01*
X-20955500Y-50418500D01*
X-8762500Y-50418500D01*
X-8762500Y-51435500D01*
X-8762500Y-51435500D01*
G37*
X-8762500Y-51435500D02*
X-20955500Y-51435500D01*
X-20955500Y-50418500D01*
X-8762500Y-50418500D01*
X-8762500Y-51435500D01*
G04 #@! TO.N,/WEATHER_3V3*
G36*
X-29590500Y-10211300D02*
X-29953230Y-10211300D01*
X-29974142Y-10194138D01*
X-30031419Y-10163523D01*
X-30093568Y-10144671D01*
X-30158200Y-10138305D01*
X-32158200Y-10138305D01*
X-32222832Y-10144671D01*
X-32284981Y-10163523D01*
X-32342258Y-10194138D01*
X-32392461Y-10235339D01*
X-32433662Y-10285542D01*
X-32464277Y-10342819D01*
X-32483129Y-10404968D01*
X-32489495Y-10469600D01*
X-32489495Y-11069600D01*
X-32483129Y-11134232D01*
X-32464277Y-11196381D01*
X-32433662Y-11253658D01*
X-32392461Y-11303861D01*
X-32342258Y-11345062D01*
X-32284981Y-11375677D01*
X-32222832Y-11394529D01*
X-32158200Y-11400895D01*
X-30158200Y-11400895D01*
X-30093568Y-11394529D01*
X-30031419Y-11375677D01*
X-29974142Y-11345062D01*
X-29923939Y-11303861D01*
X-29882738Y-11253658D01*
X-29852123Y-11196381D01*
X-29833271Y-11134232D01*
X-29832332Y-11124700D01*
X-29590500Y-11124700D01*
X-29590500Y-12573500D01*
X-34417500Y-12573500D01*
X-34417500Y-5968500D01*
X-29590500Y-5968500D01*
X-29590500Y-10211300D01*
X-29590500Y-10211300D01*
G37*
X-29590500Y-10211300D02*
X-29953230Y-10211300D01*
X-29974142Y-10194138D01*
X-30031419Y-10163523D01*
X-30093568Y-10144671D01*
X-30158200Y-10138305D01*
X-32158200Y-10138305D01*
X-32222832Y-10144671D01*
X-32284981Y-10163523D01*
X-32342258Y-10194138D01*
X-32392461Y-10235339D01*
X-32433662Y-10285542D01*
X-32464277Y-10342819D01*
X-32483129Y-10404968D01*
X-32489495Y-10469600D01*
X-32489495Y-11069600D01*
X-32483129Y-11134232D01*
X-32464277Y-11196381D01*
X-32433662Y-11253658D01*
X-32392461Y-11303861D01*
X-32342258Y-11345062D01*
X-32284981Y-11375677D01*
X-32222832Y-11394529D01*
X-32158200Y-11400895D01*
X-30158200Y-11400895D01*
X-30093568Y-11394529D01*
X-30031419Y-11375677D01*
X-29974142Y-11345062D01*
X-29923939Y-11303861D01*
X-29882738Y-11253658D01*
X-29852123Y-11196381D01*
X-29833271Y-11134232D01*
X-29832332Y-11124700D01*
X-29590500Y-11124700D01*
X-29590500Y-12573500D01*
X-34417500Y-12573500D01*
X-34417500Y-5968500D01*
X-29590500Y-5968500D01*
X-29590500Y-10211300D01*
G04 #@! TD*
M02*
