M48
;DRILL file {KiCad (5.0.0)} date 12/20/18 12:17:41
;FORMAT={-:-/ absolute / inch / decimal}
FMAT,2
INCH,TZ
T1C0.0118
T2C0.0197
T3C0.0354
T4C0.0472
T5C0.0413
T6C0.0512
T7C0.0929
T8C0.1063
%
G90
G05
M72
T1
X-1.596Y-0.629
X-1.576Y-0.421
X-1.532Y-1.768
X-1.49Y-0.47
X-1.466Y-1.114
X-1.44Y-0.89
X-1.437Y-0.597
X-1.434Y-1.3095
X-1.43Y-0.31
X-1.405Y-1.116
X-1.391Y-0.426
X-1.388Y-0.528
X-1.385Y-0.475
X-1.354Y-1.614
X-1.352Y-2.265
X-1.35Y-0.25
X-1.35Y-0.37
X-1.35Y-0.41
X-1.35Y-0.45
X-1.341Y-1.076
X-1.33Y-2.16
X-1.322Y-0.655
X-1.32Y-1.71
X-1.32Y-1.93
X-1.3115Y-1.2545
X-1.31Y-0.25
X-1.31Y-0.37
X-1.31Y-0.41
X-1.31Y-0.45
X-1.284Y-1.422
X-1.279Y-1.076
X-1.2776Y-1.5733
X-1.274Y-0.797
X-1.2715Y-1.2545
X-1.27Y-0.37
X-1.2665Y-0.9995
X-1.2565Y-0.777
X-1.2545Y-1.422
X-1.2518Y-0.8898
X-1.249Y-1.77
X-1.247Y-0.188
X-1.23Y-0.25
X-1.23Y-0.37
X-1.217Y-1.43
X-1.2Y-2.211
X-1.193Y-2.06
X-1.19Y-0.25
X-1.19Y-0.37
X-1.175Y-2.435
X-1.159Y-1.532
X-1.157Y-2.222
X-1.145Y-2.309
X-1.123Y-1.573
X-1.113Y-0.703
X-1.108Y-0.94
X-1.106Y-1.2215
X-1.1Y-1.89
X-1.098Y0.603
X-1.093Y0.694
X-1.09Y-0.31
X-1.09Y-1.56
X-1.09Y-2.4
X-1.09Y-2.44
X-1.0872Y-1.287
X-1.08Y-2.59
X-1.079Y-1.317
X-1.0716Y-1.5135
X-1.048Y-2.7202
X-1.04Y-2.4
X-1.04Y-2.44
X-1.026Y-1.678
X-1.02Y-1.34
X-1.01Y-1.5
X-1.005Y-0.655
X-1.Y-0.748
X-0.9995Y-2.253
X-0.99Y-0.42
X-0.99Y-2.4
X-0.99Y-2.44
X-0.987Y-1.238
X-0.97Y-1.46
X-0.961Y-1.657
X-0.96Y-1.57
X-0.942Y-0.526
X-0.94Y0.85
X-0.94Y-0.32
X-0.94Y-0.47
X-0.9115Y-1.6445
X-0.897Y0.632
X-0.897Y-0.97
X-0.8965Y0.602
X-0.8965Y0.5715
X-0.89Y-1.11
X-0.883Y0.004
X-0.8815Y-1.6445
X-0.86Y-2.48
X-0.851Y-1.877
X-0.85Y-1.49
X-0.849Y0.251
X-0.846Y-0.899
X-0.815Y-0.877
X-0.81Y-1.94
X-0.81Y-2.
X-0.808Y-1.397
X-0.8Y-0.91
X-0.79Y-1.7785
X-0.785Y-2.325
X-0.77Y0.22
X-0.757Y-1.204
X-0.737Y0.929
X-0.737Y-1.518
X-0.735Y0.848
X-0.72Y-1.65
X-0.72Y-1.69
X-0.703Y0.5421
X-0.7008Y-1.94
X-0.7008Y-2.
X-0.7Y-2.46
X-0.7Y-2.5
X-0.675Y-1.425
X-0.673Y-0.093
X-0.6508Y-1.574
X-0.6508Y-1.614
X-0.65Y-0.9
X-0.65Y-1.94
X-0.65Y-2.
X-0.6Y-1.94
X-0.6Y-2.
X-0.59Y-2.42
X-0.55Y-1.94
X-0.55Y-2.
X-0.5Y-1.94
X-0.5Y-2.
X-0.495Y-2.326
X-0.491Y-2.504
X-0.49Y-1.657
X-0.481Y-0.749
X-0.4762Y-2.4501
X-0.47Y-2.837
X-0.46Y-2.58
X-0.4382Y-2.5017
X-0.438Y-2.476
X-0.4307Y-2.4343
X-0.4Y-1.21
X-0.4Y-2.84
X-0.392Y-1.605
X-0.391Y-1.555
X-0.373Y-0.544
X-0.37Y-1.94
X-0.37Y-2.
X-0.344Y-2.446
X-0.274Y-0.593
X-0.2506Y-0.725
X-0.247Y-0.847
X-0.244Y-0.437
T3
X-0.6267Y0.1739
X-0.6267Y0.0936
X-0.6267Y0.0133
X-0.5267Y0.1338
X-0.5267Y0.0534
X-0.5267Y-0.0269
X-0.6261Y0.7841
X-0.6261Y0.7038
X-0.6261Y0.6235
X-0.5261Y0.744
X-0.5261Y0.6637
X-0.5261Y0.5834
T5
X-1.385Y-2.1122
T6
X-1.385Y-2.4055
T7
X-0.4361Y0.3097
X-0.4361Y-0.1627
X-0.4356Y0.92
X-0.4356Y0.4475
T8
X-0.2768Y-2.8019
X-1.5851Y1.0852
X-1.5851Y-2.8019
X-0.2768Y1.0852
T2
X-0.4Y-2.4035G85X-0.4Y-2.376
G05
X-0.4Y-2.624G85X-0.4Y-2.5965
G05
X-0.3154Y-2.5217G85X-0.3154Y-2.4783
G05
T4
X-0.2668Y-2.3643G85X-0.2668Y-2.367
G05
X-0.2668Y-2.6241G85X-0.2668Y-2.6269
G05
T0
M30
