G04 #@! TF.GenerationSoftware,KiCad,Pcbnew,(5.0.0)*
G04 #@! TF.CreationDate,2018-12-20T12:17:44-05:00*
G04 #@! TF.ProjectId,fk-weather,666B2D776561746865722E6B69636164,0.1*
G04 #@! TF.SameCoordinates,PX791ddc0PY791ddc0*
G04 #@! TF.FileFunction,Paste,Top*
G04 #@! TF.FilePolarity,Positive*
%FSLAX46Y46*%
G04 Gerber Fmt 4.6, Leading zero omitted, Abs format (unit mm)*
G04 Created by KiCad (PCBNEW (5.0.0)) date 12/20/18 12:17:44*
%MOMM*%
%LPD*%
G01*
G04 APERTURE LIST*
%ADD10R,0.900000X0.990000*%
%ADD11C,0.900000*%
%ADD12C,0.100000*%
%ADD13R,0.990000X0.900000*%
%ADD14R,0.540000X1.800000*%
%ADD15R,1.530000X0.540000*%
%ADD16R,2.520000X0.900000*%
%ADD17R,1.395000X0.540000*%
%ADD18R,1.620000X1.080000*%
%ADD19R,1.800000X0.540000*%
%ADD20R,1.350000X0.405000*%
%ADD21R,0.675000X2.250000*%
%ADD22R,0.900000X0.630000*%
%ADD23R,0.540000X0.630000*%
%ADD24R,1.350000X0.900000*%
%ADD25R,0.945000X0.585000*%
%ADD26C,0.225000*%
%ADD27R,0.720000X1.080000*%
%ADD28R,0.720000X1.980000*%
%ADD29R,1.800000X2.250000*%
%ADD30C,0.990000*%
%ADD31R,0.630000X1.305000*%
%ADD32R,0.810000X1.350000*%
%ADD33R,0.990000X1.710000*%
%ADD34R,1.170000X0.855000*%
%ADD35R,0.855000X1.170000*%
%ADD36R,2.700000X0.540000*%
G04 APERTURE END LIST*
D10*
G04 #@! TO.C,C22*
X-12293600Y-21754200D03*
X-12293600Y-20054200D03*
G04 #@! TD*
D11*
G04 #@! TO.C,C2*
X-26068959Y-25383159D03*
D12*
G36*
X-26037139Y-24714943D02*
X-25400743Y-25351339D01*
X-26100779Y-26051375D01*
X-26737175Y-25414979D01*
X-26037139Y-24714943D01*
X-26037139Y-24714943D01*
G37*
D11*
X-27271041Y-26585241D03*
D12*
G36*
X-27239221Y-25917025D02*
X-26602825Y-26553421D01*
X-27302861Y-27253457D01*
X-27939257Y-26617061D01*
X-27239221Y-25917025D01*
X-27239221Y-25917025D01*
G37*
G04 #@! TD*
D13*
G04 #@! TO.C,R19*
X-25388200Y-56413400D03*
X-27088200Y-56413400D03*
G04 #@! TD*
G04 #@! TO.C,R20*
X-27088200Y-57988200D03*
X-25388200Y-57988200D03*
G04 #@! TD*
G04 #@! TO.C,R18*
X-32576400Y-44907200D03*
X-34276400Y-44907200D03*
G04 #@! TD*
G04 #@! TO.C,R16*
X-36056200Y-44856400D03*
X-37756200Y-44856400D03*
G04 #@! TD*
D14*
G04 #@! TO.C,U6*
X-32943800Y-54805600D03*
X-31673800Y-54805600D03*
X-30403800Y-54805600D03*
X-29133800Y-54805600D03*
X-29133800Y-60205600D03*
X-30403800Y-60205600D03*
X-31673800Y-60205600D03*
X-32943800Y-60205600D03*
G04 #@! TD*
D15*
G04 #@! TO.C,J4*
X-11094000Y-39527000D03*
X-11094000Y-40777000D03*
X-11094000Y-42027000D03*
X-11094000Y-43277000D03*
D16*
X-7744000Y-37677000D03*
X-7744000Y-45127000D03*
G04 #@! TD*
D10*
G04 #@! TO.C,C16*
X-39268400Y-12241000D03*
X-39268400Y-10541000D03*
G04 #@! TD*
D17*
G04 #@! TO.C,J8*
X-16996800Y-39978200D03*
X-16996800Y-40978200D03*
X-16996800Y-41978200D03*
X-16996800Y-42978200D03*
D18*
X-14471800Y-44528200D03*
X-14471800Y-38428200D03*
G04 #@! TD*
D13*
G04 #@! TO.C,C21*
X-26582000Y-16662400D03*
X-28282000Y-16662400D03*
G04 #@! TD*
G04 #@! TO.C,C20*
X-28256600Y-15138400D03*
X-26556600Y-15138400D03*
G04 #@! TD*
G04 #@! TO.C,D1*
X-18960200Y-59029600D03*
X-17260200Y-59029600D03*
G04 #@! TD*
G04 #@! TO.C,R14*
X-24702400Y-13360400D03*
X-26402400Y-13360400D03*
G04 #@! TD*
G04 #@! TO.C,R13*
X-38850200Y-15316200D03*
X-40550200Y-15316200D03*
G04 #@! TD*
D10*
G04 #@! TO.C,R15*
X-32207200Y-4611000D03*
X-32207200Y-6311000D03*
G04 #@! TD*
D13*
G04 #@! TO.C,R12*
X-31103200Y-16662400D03*
X-32803200Y-16662400D03*
G04 #@! TD*
D19*
G04 #@! TO.C,U3*
X-31158200Y-10769600D03*
X-31158200Y-12039600D03*
X-31158200Y-13309600D03*
X-31158200Y-14579600D03*
X-36558200Y-14579600D03*
X-36558200Y-13309600D03*
X-36558200Y-12039600D03*
X-36558200Y-10769600D03*
G04 #@! TD*
D20*
G04 #@! TO.C,J1*
X-9910000Y-64800000D03*
X-9910000Y-63500000D03*
X-9910000Y-64150000D03*
X-9910000Y-62850000D03*
X-9910000Y-62200000D03*
G04 #@! TD*
D21*
G04 #@! TO.C,J6*
X-21564600Y-24507800D03*
X-21564600Y-20507800D03*
X-20294600Y-24507800D03*
X-20294600Y-20507800D03*
X-19024600Y-24507800D03*
X-19024600Y-20507800D03*
X-17754600Y-24507800D03*
X-17754600Y-20507800D03*
X-16484600Y-24507800D03*
X-16484600Y-20507800D03*
G04 #@! TD*
D15*
G04 #@! TO.C,J2*
X-11094000Y-49570000D03*
X-11094000Y-50820000D03*
X-11094000Y-52070000D03*
X-11094000Y-53320000D03*
X-11094000Y-54570000D03*
D16*
X-7744000Y-47720000D03*
X-7744000Y-56420000D03*
G04 #@! TD*
D11*
G04 #@! TO.C,C1*
X-27288159Y-24265559D03*
D12*
G36*
X-27256339Y-23597343D02*
X-26619943Y-24233739D01*
X-27319979Y-24933775D01*
X-27956375Y-24297379D01*
X-27256339Y-23597343D01*
X-27256339Y-23597343D01*
G37*
D11*
X-28490241Y-25467641D03*
D12*
G36*
X-28458421Y-24799425D02*
X-27822025Y-25435821D01*
X-28522061Y-26135857D01*
X-29158457Y-25499461D01*
X-28458421Y-24799425D01*
X-28458421Y-24799425D01*
G37*
G04 #@! TD*
D10*
G04 #@! TO.C,C3*
X-25082500Y-29869500D03*
X-25082500Y-28169500D03*
G04 #@! TD*
G04 #@! TO.C,C4*
X-35648900Y-31002300D03*
X-35648900Y-29302300D03*
G04 #@! TD*
G04 #@! TO.C,C5*
X-23469600Y-29882200D03*
X-23469600Y-28182200D03*
G04 #@! TD*
G04 #@! TO.C,C6*
X-32486600Y-30491800D03*
X-32486600Y-28791800D03*
G04 #@! TD*
D13*
G04 #@! TO.C,C7*
X-21347800Y-38633400D03*
X-19647800Y-38633400D03*
G04 #@! TD*
D10*
G04 #@! TO.C,C8*
X-33528000Y-40972000D03*
X-33528000Y-42672000D03*
G04 #@! TD*
G04 #@! TO.C,C9*
X-27474992Y-70730862D03*
X-27474992Y-69030862D03*
G04 #@! TD*
G04 #@! TO.C,C10*
X-12763500Y-70358000D03*
X-12763500Y-72058000D03*
G04 #@! TD*
D13*
G04 #@! TO.C,C11*
X-23780192Y-69093462D03*
X-25480192Y-69093462D03*
G04 #@! TD*
D10*
G04 #@! TO.C,C12*
X-27441485Y-63193861D03*
X-27441485Y-64893861D03*
G04 #@! TD*
D13*
G04 #@! TO.C,C13*
X-33694000Y-7874000D03*
X-35394000Y-7874000D03*
G04 #@! TD*
D10*
G04 #@! TO.C,C14*
X-34061400Y-30491800D03*
X-34061400Y-28791800D03*
G04 #@! TD*
D13*
G04 #@! TO.C,C15*
X-30314000Y-7874000D03*
X-28614000Y-7874000D03*
G04 #@! TD*
D10*
G04 #@! TO.C,C18*
X-37553900Y-21184500D03*
X-37553900Y-22884500D03*
G04 #@! TD*
D22*
G04 #@! TO.C,D4*
X-15064000Y-62008000D03*
D23*
X-16764000Y-62008000D03*
X-16764000Y-64008000D03*
X-14864000Y-64008000D03*
G04 #@! TD*
D10*
G04 #@! TO.C,D5*
X-22779984Y-48094000D03*
X-22779984Y-46394000D03*
G04 #@! TD*
D24*
G04 #@! TO.C,F1*
X-20972592Y-71298362D03*
X-20972592Y-69098362D03*
G04 #@! TD*
D13*
G04 #@! TO.C,L1*
X-25480192Y-70739917D03*
X-23780192Y-70739917D03*
G04 #@! TD*
D10*
G04 #@! TO.C,L2*
X-37249100Y-31000700D03*
X-37249100Y-29300700D03*
G04 #@! TD*
D25*
G04 #@! TO.C,Q4*
X-28659730Y-46260880D03*
X-28659730Y-48160880D03*
X-26359730Y-47210880D03*
G04 #@! TD*
D10*
G04 #@! TO.C,R2*
X-20802600Y-29793300D03*
X-20802600Y-28093300D03*
G04 #@! TD*
G04 #@! TO.C,R4*
X-19215100Y-29793300D03*
X-19215100Y-28093300D03*
G04 #@! TD*
G04 #@! TO.C,R6*
X-20828000Y-43473000D03*
X-20828000Y-45173000D03*
G04 #@! TD*
G04 #@! TO.C,R7*
X-19202400Y-43498400D03*
X-19202400Y-45198400D03*
G04 #@! TD*
D13*
G04 #@! TO.C,R8*
X-19722200Y-35458400D03*
X-18022200Y-35458400D03*
G04 #@! TD*
G04 #@! TO.C,R9*
X-18022200Y-33883600D03*
X-19722200Y-33883600D03*
G04 #@! TD*
D10*
G04 #@! TO.C,R10*
X-11125200Y-70360400D03*
X-11125200Y-72060400D03*
G04 #@! TD*
D13*
G04 #@! TO.C,R11*
X-38850200Y-13817600D03*
X-40550200Y-13817600D03*
G04 #@! TD*
D10*
G04 #@! TO.C,R17*
X-24511000Y-46394000D03*
X-24511000Y-48094000D03*
G04 #@! TD*
D13*
G04 #@! TO.C,R22*
X-19929772Y14821332D03*
X-21629772Y14821332D03*
G04 #@! TD*
D10*
G04 #@! TO.C,R23*
X-19458972Y3049332D03*
X-19458972Y4749332D03*
G04 #@! TD*
D13*
G04 #@! TO.C,R30*
X-19929772Y19748932D03*
X-21629772Y19748932D03*
G04 #@! TD*
G04 #@! TO.C,R31*
X-19929772Y16497732D03*
X-21629772Y16497732D03*
G04 #@! TD*
D10*
G04 #@! TO.C,R32*
X-19458972Y-330668D03*
X-19458972Y-2030668D03*
G04 #@! TD*
D13*
G04 #@! TO.C,R33*
X-19929772Y18123332D03*
X-21629772Y18123332D03*
G04 #@! TD*
G04 #@! TO.C,R34*
X-19929772Y21476132D03*
X-21629772Y21476132D03*
G04 #@! TD*
D26*
G04 #@! TO.C,U1*
X-29553971Y-31225342D03*
D12*
G36*
X-30047178Y-30891234D02*
X-29888079Y-30732135D01*
X-29060764Y-31559450D01*
X-29219863Y-31718549D01*
X-30047178Y-30891234D01*
X-30047178Y-30891234D01*
G37*
D26*
X-29907524Y-31578895D03*
D12*
G36*
X-30400731Y-31244787D02*
X-30241632Y-31085688D01*
X-29414317Y-31913003D01*
X-29573416Y-32072102D01*
X-30400731Y-31244787D01*
X-30400731Y-31244787D01*
G37*
D26*
X-30261078Y-31932449D03*
D12*
G36*
X-30754285Y-31598341D02*
X-30595186Y-31439242D01*
X-29767871Y-32266557D01*
X-29926970Y-32425656D01*
X-30754285Y-31598341D01*
X-30754285Y-31598341D01*
G37*
D26*
X-30614631Y-32286002D03*
D12*
G36*
X-31107838Y-31951894D02*
X-30948739Y-31792795D01*
X-30121424Y-32620110D01*
X-30280523Y-32779209D01*
X-31107838Y-31951894D01*
X-31107838Y-31951894D01*
G37*
D26*
X-30968184Y-32639555D03*
D12*
G36*
X-31461391Y-32305447D02*
X-31302292Y-32146348D01*
X-30474977Y-32973663D01*
X-30634076Y-33132762D01*
X-31461391Y-32305447D01*
X-31461391Y-32305447D01*
G37*
D26*
X-31321738Y-32993109D03*
D12*
G36*
X-31814945Y-32659001D02*
X-31655846Y-32499902D01*
X-30828531Y-33327217D01*
X-30987630Y-33486316D01*
X-31814945Y-32659001D01*
X-31814945Y-32659001D01*
G37*
D26*
X-31675291Y-33346662D03*
D12*
G36*
X-32168498Y-33012554D02*
X-32009399Y-32853455D01*
X-31182084Y-33680770D01*
X-31341183Y-33839869D01*
X-32168498Y-33012554D01*
X-32168498Y-33012554D01*
G37*
D26*
X-32028845Y-33700216D03*
D12*
G36*
X-32522052Y-33366108D02*
X-32362953Y-33207009D01*
X-31535638Y-34034324D01*
X-31694737Y-34193423D01*
X-32522052Y-33366108D01*
X-32522052Y-33366108D01*
G37*
D26*
X-32382398Y-34053769D03*
D12*
G36*
X-32875605Y-33719661D02*
X-32716506Y-33560562D01*
X-31889191Y-34387877D01*
X-32048290Y-34546976D01*
X-32875605Y-33719661D01*
X-32875605Y-33719661D01*
G37*
D26*
X-32735951Y-34407322D03*
D12*
G36*
X-33229158Y-34073214D02*
X-33070059Y-33914115D01*
X-32242744Y-34741430D01*
X-32401843Y-34900529D01*
X-33229158Y-34073214D01*
X-33229158Y-34073214D01*
G37*
D26*
X-33089505Y-34760876D03*
D12*
G36*
X-33582712Y-34426768D02*
X-33423613Y-34267669D01*
X-32596298Y-35094984D01*
X-32755397Y-35254083D01*
X-33582712Y-34426768D01*
X-33582712Y-34426768D01*
G37*
D26*
X-33443058Y-35114429D03*
D12*
G36*
X-33936265Y-34780321D02*
X-33777166Y-34621222D01*
X-32949851Y-35448537D01*
X-33108950Y-35607636D01*
X-33936265Y-34780321D01*
X-33936265Y-34780321D01*
G37*
D26*
X-33443058Y-37377171D03*
D12*
G36*
X-33777166Y-37870378D02*
X-33936265Y-37711279D01*
X-33108950Y-36883964D01*
X-32949851Y-37043063D01*
X-33777166Y-37870378D01*
X-33777166Y-37870378D01*
G37*
D26*
X-33089505Y-37730724D03*
D12*
G36*
X-33423613Y-38223931D02*
X-33582712Y-38064832D01*
X-32755397Y-37237517D01*
X-32596298Y-37396616D01*
X-33423613Y-38223931D01*
X-33423613Y-38223931D01*
G37*
D26*
X-32735951Y-38084278D03*
D12*
G36*
X-33070059Y-38577485D02*
X-33229158Y-38418386D01*
X-32401843Y-37591071D01*
X-32242744Y-37750170D01*
X-33070059Y-38577485D01*
X-33070059Y-38577485D01*
G37*
D26*
X-32382398Y-38437831D03*
D12*
G36*
X-32716506Y-38931038D02*
X-32875605Y-38771939D01*
X-32048290Y-37944624D01*
X-31889191Y-38103723D01*
X-32716506Y-38931038D01*
X-32716506Y-38931038D01*
G37*
D26*
X-32028845Y-38791384D03*
D12*
G36*
X-32362953Y-39284591D02*
X-32522052Y-39125492D01*
X-31694737Y-38298177D01*
X-31535638Y-38457276D01*
X-32362953Y-39284591D01*
X-32362953Y-39284591D01*
G37*
D26*
X-31675291Y-39144938D03*
D12*
G36*
X-32009399Y-39638145D02*
X-32168498Y-39479046D01*
X-31341183Y-38651731D01*
X-31182084Y-38810830D01*
X-32009399Y-39638145D01*
X-32009399Y-39638145D01*
G37*
D26*
X-31321738Y-39498491D03*
D12*
G36*
X-31655846Y-39991698D02*
X-31814945Y-39832599D01*
X-30987630Y-39005284D01*
X-30828531Y-39164383D01*
X-31655846Y-39991698D01*
X-31655846Y-39991698D01*
G37*
D26*
X-30968184Y-39852045D03*
D12*
G36*
X-31302292Y-40345252D02*
X-31461391Y-40186153D01*
X-30634076Y-39358838D01*
X-30474977Y-39517937D01*
X-31302292Y-40345252D01*
X-31302292Y-40345252D01*
G37*
D26*
X-30614631Y-40205598D03*
D12*
G36*
X-30948739Y-40698805D02*
X-31107838Y-40539706D01*
X-30280523Y-39712391D01*
X-30121424Y-39871490D01*
X-30948739Y-40698805D01*
X-30948739Y-40698805D01*
G37*
D26*
X-30261078Y-40559151D03*
D12*
G36*
X-30595186Y-41052358D02*
X-30754285Y-40893259D01*
X-29926970Y-40065944D01*
X-29767871Y-40225043D01*
X-30595186Y-41052358D01*
X-30595186Y-41052358D01*
G37*
D26*
X-29907524Y-40912705D03*
D12*
G36*
X-30241632Y-41405912D02*
X-30400731Y-41246813D01*
X-29573416Y-40419498D01*
X-29414317Y-40578597D01*
X-30241632Y-41405912D01*
X-30241632Y-41405912D01*
G37*
D26*
X-29553971Y-41266258D03*
D12*
G36*
X-29888079Y-41759465D02*
X-30047178Y-41600366D01*
X-29219863Y-40773051D01*
X-29060764Y-40932150D01*
X-29888079Y-41759465D01*
X-29888079Y-41759465D01*
G37*
D26*
X-27291229Y-41266258D03*
D12*
G36*
X-27784436Y-40932150D02*
X-27625337Y-40773051D01*
X-26798022Y-41600366D01*
X-26957121Y-41759465D01*
X-27784436Y-40932150D01*
X-27784436Y-40932150D01*
G37*
D26*
X-26937676Y-40912705D03*
D12*
G36*
X-27430883Y-40578597D02*
X-27271784Y-40419498D01*
X-26444469Y-41246813D01*
X-26603568Y-41405912D01*
X-27430883Y-40578597D01*
X-27430883Y-40578597D01*
G37*
D26*
X-26584122Y-40559151D03*
D12*
G36*
X-27077329Y-40225043D02*
X-26918230Y-40065944D01*
X-26090915Y-40893259D01*
X-26250014Y-41052358D01*
X-27077329Y-40225043D01*
X-27077329Y-40225043D01*
G37*
D26*
X-26230569Y-40205598D03*
D12*
G36*
X-26723776Y-39871490D02*
X-26564677Y-39712391D01*
X-25737362Y-40539706D01*
X-25896461Y-40698805D01*
X-26723776Y-39871490D01*
X-26723776Y-39871490D01*
G37*
D26*
X-25877016Y-39852045D03*
D12*
G36*
X-26370223Y-39517937D02*
X-26211124Y-39358838D01*
X-25383809Y-40186153D01*
X-25542908Y-40345252D01*
X-26370223Y-39517937D01*
X-26370223Y-39517937D01*
G37*
D26*
X-25523462Y-39498491D03*
D12*
G36*
X-26016669Y-39164383D02*
X-25857570Y-39005284D01*
X-25030255Y-39832599D01*
X-25189354Y-39991698D01*
X-26016669Y-39164383D01*
X-26016669Y-39164383D01*
G37*
D26*
X-25169909Y-39144938D03*
D12*
G36*
X-25663116Y-38810830D02*
X-25504017Y-38651731D01*
X-24676702Y-39479046D01*
X-24835801Y-39638145D01*
X-25663116Y-38810830D01*
X-25663116Y-38810830D01*
G37*
D26*
X-24816355Y-38791384D03*
D12*
G36*
X-25309562Y-38457276D02*
X-25150463Y-38298177D01*
X-24323148Y-39125492D01*
X-24482247Y-39284591D01*
X-25309562Y-38457276D01*
X-25309562Y-38457276D01*
G37*
D26*
X-24462802Y-38437831D03*
D12*
G36*
X-24956009Y-38103723D02*
X-24796910Y-37944624D01*
X-23969595Y-38771939D01*
X-24128694Y-38931038D01*
X-24956009Y-38103723D01*
X-24956009Y-38103723D01*
G37*
D26*
X-24109249Y-38084278D03*
D12*
G36*
X-24602456Y-37750170D02*
X-24443357Y-37591071D01*
X-23616042Y-38418386D01*
X-23775141Y-38577485D01*
X-24602456Y-37750170D01*
X-24602456Y-37750170D01*
G37*
D26*
X-23755695Y-37730724D03*
D12*
G36*
X-24248902Y-37396616D02*
X-24089803Y-37237517D01*
X-23262488Y-38064832D01*
X-23421587Y-38223931D01*
X-24248902Y-37396616D01*
X-24248902Y-37396616D01*
G37*
D26*
X-23402142Y-37377171D03*
D12*
G36*
X-23895349Y-37043063D02*
X-23736250Y-36883964D01*
X-22908935Y-37711279D01*
X-23068034Y-37870378D01*
X-23895349Y-37043063D01*
X-23895349Y-37043063D01*
G37*
D26*
X-23402142Y-35114429D03*
D12*
G36*
X-23736250Y-35607636D02*
X-23895349Y-35448537D01*
X-23068034Y-34621222D01*
X-22908935Y-34780321D01*
X-23736250Y-35607636D01*
X-23736250Y-35607636D01*
G37*
D26*
X-23755695Y-34760876D03*
D12*
G36*
X-24089803Y-35254083D02*
X-24248902Y-35094984D01*
X-23421587Y-34267669D01*
X-23262488Y-34426768D01*
X-24089803Y-35254083D01*
X-24089803Y-35254083D01*
G37*
D26*
X-24109249Y-34407322D03*
D12*
G36*
X-24443357Y-34900529D02*
X-24602456Y-34741430D01*
X-23775141Y-33914115D01*
X-23616042Y-34073214D01*
X-24443357Y-34900529D01*
X-24443357Y-34900529D01*
G37*
D26*
X-24462802Y-34053769D03*
D12*
G36*
X-24796910Y-34546976D02*
X-24956009Y-34387877D01*
X-24128694Y-33560562D01*
X-23969595Y-33719661D01*
X-24796910Y-34546976D01*
X-24796910Y-34546976D01*
G37*
D26*
X-24816355Y-33700216D03*
D12*
G36*
X-25150463Y-34193423D02*
X-25309562Y-34034324D01*
X-24482247Y-33207009D01*
X-24323148Y-33366108D01*
X-25150463Y-34193423D01*
X-25150463Y-34193423D01*
G37*
D26*
X-25169909Y-33346662D03*
D12*
G36*
X-25504017Y-33839869D02*
X-25663116Y-33680770D01*
X-24835801Y-32853455D01*
X-24676702Y-33012554D01*
X-25504017Y-33839869D01*
X-25504017Y-33839869D01*
G37*
D26*
X-25523462Y-32993109D03*
D12*
G36*
X-25857570Y-33486316D02*
X-26016669Y-33327217D01*
X-25189354Y-32499902D01*
X-25030255Y-32659001D01*
X-25857570Y-33486316D01*
X-25857570Y-33486316D01*
G37*
D26*
X-25877016Y-32639555D03*
D12*
G36*
X-26211124Y-33132762D02*
X-26370223Y-32973663D01*
X-25542908Y-32146348D01*
X-25383809Y-32305447D01*
X-26211124Y-33132762D01*
X-26211124Y-33132762D01*
G37*
D26*
X-26230569Y-32286002D03*
D12*
G36*
X-26564677Y-32779209D02*
X-26723776Y-32620110D01*
X-25896461Y-31792795D01*
X-25737362Y-31951894D01*
X-26564677Y-32779209D01*
X-26564677Y-32779209D01*
G37*
D26*
X-26584122Y-31932449D03*
D12*
G36*
X-26918230Y-32425656D02*
X-27077329Y-32266557D01*
X-26250014Y-31439242D01*
X-26090915Y-31598341D01*
X-26918230Y-32425656D01*
X-26918230Y-32425656D01*
G37*
D26*
X-26937676Y-31578895D03*
D12*
G36*
X-27271784Y-32072102D02*
X-27430883Y-31913003D01*
X-26603568Y-31085688D01*
X-26444469Y-31244787D01*
X-27271784Y-32072102D01*
X-27271784Y-32072102D01*
G37*
D26*
X-27291229Y-31225342D03*
D12*
G36*
X-27625337Y-31718549D02*
X-27784436Y-31559450D01*
X-26957121Y-30732135D01*
X-26798022Y-30891234D01*
X-27625337Y-31718549D01*
X-27625337Y-31718549D01*
G37*
G04 #@! TD*
D27*
G04 #@! TO.C,U2*
X-22336085Y-63078661D03*
D28*
X-23836085Y-63578661D03*
D27*
X-25336085Y-63078661D03*
D29*
X-23836085Y-65928661D03*
G04 #@! TD*
D30*
G04 #@! TO.C,Y1*
X-30855883Y-26497317D03*
D12*
G36*
X-31810477Y-26751875D02*
X-30601325Y-25542723D01*
X-29901289Y-26242759D01*
X-31110441Y-27451911D01*
X-31810477Y-26751875D01*
X-31810477Y-26751875D01*
G37*
D30*
X-29088117Y-28265083D03*
D12*
G36*
X-30042711Y-28519641D02*
X-28833559Y-27310489D01*
X-28133523Y-28010525D01*
X-29342675Y-29219677D01*
X-30042711Y-28519641D01*
X-30042711Y-28519641D01*
G37*
G04 #@! TD*
D31*
G04 #@! TO.C,SW1*
X-6366000Y-22646000D03*
X-6366000Y-17486000D03*
X-8366000Y-17486000D03*
X-8366000Y-22646000D03*
G04 #@! TD*
D15*
G04 #@! TO.C,J3*
X-11094000Y-30754000D03*
X-11094000Y-32004000D03*
X-11094000Y-33254000D03*
D16*
X-7744000Y-28904000D03*
X-7744000Y-35104000D03*
G04 #@! TD*
D32*
G04 #@! TO.C,U5*
X-6224000Y-9996000D03*
X-9524000Y-9996000D03*
X-9524000Y-14896000D03*
X-6224000Y-14896000D03*
G04 #@! TD*
D13*
G04 #@! TO.C,C17*
X-32832436Y-52221478D03*
X-31132436Y-52221478D03*
G04 #@! TD*
G04 #@! TO.C,C19*
X-36918000Y-57404000D03*
X-35218000Y-57404000D03*
G04 #@! TD*
G04 #@! TO.C,R1*
X-35218000Y-55626000D03*
X-36918000Y-55626000D03*
G04 #@! TD*
D33*
G04 #@! TO.C,Y2*
X-31006436Y-63016478D03*
X-33506436Y-63016478D03*
G04 #@! TD*
D34*
G04 #@! TO.C,D11*
X-24081772Y17615332D03*
X-26926572Y17615332D03*
G04 #@! TD*
G04 #@! TO.C,D10*
X-26926772Y15176932D03*
X-24081972Y15176932D03*
G04 #@! TD*
G04 #@! TO.C,D9*
X-19712972Y23558932D03*
X-22557772Y23558932D03*
G04 #@! TD*
G04 #@! TO.C,D8*
X-24081772Y19901332D03*
X-26926572Y19901332D03*
G04 #@! TD*
D35*
G04 #@! TO.C,D7*
X-21744972Y-2755468D03*
X-21744972Y89332D03*
G04 #@! TD*
G04 #@! TO.C,D6*
X-21744972Y5321732D03*
X-21744972Y2476932D03*
G04 #@! TD*
D15*
G04 #@! TO.C,J7*
X-19349000Y-49570000D03*
X-19349000Y-50820000D03*
X-19349000Y-52070000D03*
X-19349000Y-53320000D03*
X-19349000Y-54570000D03*
D16*
X-15999000Y-47720000D03*
X-15999000Y-56420000D03*
G04 #@! TD*
D36*
G04 #@! TO.C,U4*
X-28270600Y-18656300D03*
X-28270600Y-19926300D03*
X-28270600Y-21196300D03*
X-28270600Y-22466300D03*
X-34670600Y-22466300D03*
X-34670600Y-21196300D03*
X-34670600Y-19926300D03*
X-34670600Y-18656300D03*
G04 #@! TD*
D13*
G04 #@! TO.C,R3*
X-15277200Y-59080400D03*
X-13577200Y-59080400D03*
G04 #@! TD*
G04 #@! TO.C,R5*
X-26328000Y-10668000D03*
X-28028000Y-10668000D03*
G04 #@! TD*
M02*
