G04 #@! TF.GenerationSoftware,KiCad,Pcbnew,(5.0.0)*
G04 #@! TF.CreationDate,2018-12-20T12:11:05-05:00*
G04 #@! TF.ProjectId,fk-weather,666B2D776561746865722E6B69636164,0.1*
G04 #@! TF.SameCoordinates,PX791ddc0PY791ddc0*
G04 #@! TF.FileFunction,Copper,L4,Bot,Signal*
G04 #@! TF.FilePolarity,Positive*
%FSLAX46Y46*%
G04 Gerber Fmt 4.6, Leading zero omitted, Abs format (unit mm)*
G04 Created by KiCad (PCBNEW (5.0.0)) date 12/20/18 12:11:05*
%MOMM*%
%LPD*%
G01*
G04 APERTURE LIST*
G04 #@! TA.AperFunction,SMDPad,CuDef*
%ADD10R,1.168400X1.600200*%
G04 #@! TD*
G04 #@! TA.AperFunction,SMDPad,CuDef*
%ADD11R,1.600200X1.168400*%
G04 #@! TD*
G04 #@! TA.AperFunction,SMDPad,CuDef*
%ADD12R,1.400000X1.600000*%
G04 #@! TD*
G04 #@! TA.AperFunction,SMDPad,CuDef*
%ADD13R,1.350000X0.400000*%
G04 #@! TD*
G04 #@! TA.AperFunction,ComponentPad*
%ADD14O,1.600000X1.651000*%
G04 #@! TD*
G04 #@! TA.AperFunction,SMDPad,CuDef*
%ADD15R,1.400000X1.900000*%
G04 #@! TD*
G04 #@! TA.AperFunction,ComponentPad*
%ADD16O,1.100000X1.800000*%
G04 #@! TD*
G04 #@! TA.AperFunction,ComponentPad*
%ADD17O,1.100000X2.200000*%
G04 #@! TD*
G04 #@! TA.AperFunction,SMDPad,CuDef*
%ADD18R,2.300000X4.500000*%
G04 #@! TD*
G04 #@! TA.AperFunction,ComponentPad*
%ADD19C,1.400000*%
G04 #@! TD*
G04 #@! TA.AperFunction,ViaPad*
%ADD20C,0.500000*%
G04 #@! TD*
G04 #@! TA.AperFunction,Conductor*
%ADD21C,0.254000*%
G04 #@! TD*
G04 #@! TA.AperFunction,Conductor*
%ADD22C,0.508000*%
G04 #@! TD*
G04 #@! TA.AperFunction,Conductor*
%ADD23C,0.762000*%
G04 #@! TD*
G04 #@! TA.AperFunction,Conductor*
%ADD24C,0.203200*%
G04 #@! TD*
G04 APERTURE END LIST*
D10*
G04 #@! TO.P,J9,2*
G04 #@! TO.N,/PERIPH_3V3*
X-28194000Y-19024600D03*
G04 #@! TO.P,J9,1*
G04 #@! TO.N,3V3*
X-26670000Y-19024600D03*
G04 #@! TD*
D11*
G04 #@! TO.P,J12,1*
G04 #@! TO.N,3V3*
X-23876000Y-10668000D03*
G04 #@! TO.P,J12,2*
G04 #@! TO.N,/WEATHER_3V3*
X-23876000Y-9144000D03*
G04 #@! TD*
D12*
G04 #@! TO.P,J5,6*
G04 #@! TO.N,Net-(J5-Pad6)*
X-8527800Y-60188000D03*
D13*
G04 #@! TO.P,J5,5*
G04 #@! TO.N,GND*
X-9447800Y-64688000D03*
G04 #@! TO.P,J5,4*
G04 #@! TO.N,Net-(J1-Pad4)*
X-9447800Y-64038000D03*
G04 #@! TO.P,J5,1*
G04 #@! TO.N,VUSB*
X-9447800Y-62088000D03*
G04 #@! TO.P,J5,2*
G04 #@! TO.N,/USB-*
X-9447800Y-62738000D03*
D14*
G04 #@! TO.P,J5,*
G04 #@! TO.N,*
X-6777800Y-66688000D03*
D15*
G04 #@! TO.P,J5,8*
G04 #@! TO.N,Net-(J5-Pad8)*
X-6527800Y-62188000D03*
D14*
G04 #@! TO.P,J5,*
G04 #@! TO.N,*
X-6777800Y-60088000D03*
D15*
G04 #@! TO.P,J5,9*
G04 #@! TO.N,Net-(J5-Pad9)*
X-6527800Y-64588000D03*
D13*
G04 #@! TO.P,J5,3*
G04 #@! TO.N,/USB+*
X-9447800Y-63388000D03*
D12*
G04 #@! TO.P,J5,7*
G04 #@! TO.N,Net-(C10-Pad1)*
X-8527800Y-66588000D03*
G04 #@! TD*
D16*
G04 #@! TO.P,J1,6*
G04 #@! TO.N,Net-(C10-Pad1)*
X-10160000Y-66300000D03*
G04 #@! TO.P,J1,7*
G04 #@! TO.N,Net-(J1-Pad7)*
X-10160000Y-60700000D03*
D17*
G04 #@! TO.P,J1,8*
G04 #@! TO.N,Net-(J1-Pad8)*
X-8010000Y-63500000D03*
G04 #@! TD*
D18*
G04 #@! TO.P,BT1,1*
G04 #@! TO.N,Net-(BT1-Pad1)*
X-35179000Y-65350000D03*
G04 #@! TO.P,BT1,2*
G04 #@! TO.N,GND*
X-35179000Y-48950000D03*
G04 #@! TD*
D19*
G04 #@! TO.P,J10,1*
G04 #@! TO.N,Net-(J10-Pad1)*
X-15916972Y4417332D03*
G04 #@! TO.P,J10,2*
G04 #@! TO.N,/RAIN_2*
X-13376972Y3397332D03*
G04 #@! TO.P,J10,3*
G04 #@! TO.N,Net-(J10-Pad3)*
X-15916972Y2377332D03*
G04 #@! TO.P,J10,4*
G04 #@! TO.N,Net-(J10-Pad4)*
X-13376972Y1357332D03*
G04 #@! TO.P,J10,5*
G04 #@! TO.N,/RAIN_5*
X-15916972Y337332D03*
G04 #@! TO.P,J10,6*
G04 #@! TO.N,Net-(J10-Pad6)*
X-13376972Y-682668D03*
G04 #@! TD*
G04 #@! TO.P,J11,6*
G04 #@! TO.N,Net-(J11-Pad6)*
X-13362972Y14817332D03*
G04 #@! TO.P,J11,5*
G04 #@! TO.N,Net-(J11-Pad5)*
X-15902972Y15837332D03*
G04 #@! TO.P,J11,4*
G04 #@! TO.N,Net-(J11-Pad4)*
X-13362972Y16857332D03*
G04 #@! TO.P,J11,3*
G04 #@! TO.N,Net-(J11-Pad3)*
X-15902972Y17877332D03*
G04 #@! TO.P,J11,2*
G04 #@! TO.N,Net-(J11-Pad2)*
X-13362972Y18897332D03*
G04 #@! TO.P,J11,1*
G04 #@! TO.N,Net-(J11-Pad1)*
X-15902972Y19917332D03*
G04 #@! TD*
D20*
G04 #@! TO.N,GND*
X-32486600Y-27330400D03*
X-34061400Y-27330400D03*
X-22771100Y14516100D03*
X-22771100Y15290800D03*
X-22783800Y16052800D03*
X-33312100Y-31864300D03*
X-32296100Y-31864300D03*
X-27762200Y17627600D03*
X-19558000Y5588000D03*
X-22428200Y101600D03*
X-35331400Y-10820400D03*
X-18719800Y-38557200D03*
X-9956800Y-40767000D03*
X-17801410Y-50800000D03*
X-27940000Y-48006000D03*
X-27686000Y-7874000D03*
X-36322000Y-7874000D03*
X-25908000Y-34036000D03*
X-24638000Y-37084000D03*
X-33528000Y-43434000D03*
X-32450086Y-39961324D03*
X-35687000Y-28346400D03*
X-36576000Y-22606000D03*
X-29083000Y-58648600D03*
X-34340800Y-57531000D03*
X-30302200Y-52324000D03*
X-33528000Y-49022000D03*
X-27432000Y-65786000D03*
X-14986000Y-61468000D03*
X-21844000Y-62992000D03*
X-11684000Y-65532000D03*
X-10940452Y-61831543D03*
X-10160000Y-72136000D03*
X-11938000Y-72060400D03*
X-10160000Y-30734000D03*
X-20320000Y-23114000D03*
X-16510000Y-22860000D03*
X-22606000Y-28194000D03*
X-12700000Y-50800000D03*
X-13970000Y-50800000D03*
X-16510000Y-50800000D03*
X-15240000Y-50800000D03*
X-16531410Y-39979600D03*
X-9398000Y-50800000D03*
X-20574000Y-50800000D03*
X-6273800Y-21513800D03*
X-6366000Y-18414200D03*
X-9474200Y-13817600D03*
X-25527000Y-16637000D03*
X-40030400Y-10693400D03*
X-31673800Y-4775200D03*
X-23926800Y-13360400D03*
X-40538400Y-15976600D03*
X-12573000Y-59080400D03*
X-26619200Y-69093462D03*
X-28143200Y-23876000D03*
G04 #@! TO.N,3V3*
X-35179000Y-12065000D03*
X-9931400Y-39497000D03*
X-17801410Y-49276000D03*
X-37846000Y-11938000D03*
X-23876000Y-11938000D03*
X-25146000Y-10668000D03*
X-21590000Y-37846000D03*
X-37236400Y-28295600D03*
X-21488400Y-22834600D03*
X-19227800Y-30581600D03*
X-25069800Y-31445200D03*
X-34391600Y-40995600D03*
X-21615400Y-47675800D03*
X-27686000Y-60960000D03*
X-26416000Y-60960000D03*
X-25146000Y-60960000D03*
X-25146000Y-61976000D03*
X-26416000Y-61976000D03*
X-27686000Y-61976000D03*
X-33782000Y-54864000D03*
X-13970000Y-49276000D03*
X-15240000Y-49276000D03*
X-16510000Y-49276000D03*
X-12700000Y-49276000D03*
X-9398000Y-49276000D03*
X-16531410Y-40995600D03*
X-20574000Y-49276000D03*
X-38912800Y-44907200D03*
X-31724600Y-44958000D03*
X-25388200Y-57226200D03*
X-20066000Y-45173000D03*
X-6197600Y-11099800D03*
X-25400000Y-18999200D03*
X-33578800Y-16637000D03*
X-19939000Y-59055000D03*
X-20523200Y-35483800D03*
G04 #@! TO.N,/SWDIO*
X-22783800Y-24638000D03*
X-27613779Y-32689800D03*
G04 #@! TO.N,/SWCLK*
X-20701000Y-22275800D03*
X-27406600Y-33451800D03*
G04 #@! TO.N,/A3*
X-28524200Y-39954200D03*
X-6959600Y-15062200D03*
G04 #@! TO.N,/MOSI*
X-32169100Y-25387300D03*
X-32613600Y-36118800D03*
G04 #@! TO.N,/SCK*
X-31796507Y-22601707D03*
X-31864914Y-36118800D03*
G04 #@! TO.N,/MISO*
X-32359600Y-20243800D03*
X-30912414Y-36322614D03*
G04 #@! TO.N,/USB-*
X-17780000Y-63500000D03*
X-23152100Y-41770300D03*
X-12471400Y-63601600D03*
G04 #@! TO.N,/USB+*
X-17780000Y-62484000D03*
X-22390100Y-41770300D03*
X-11130311Y-63542748D03*
G04 #@! TO.N,VUSB*
X-8737600Y-62128400D03*
G04 #@! TO.N,Net-(J1-Pad4)*
X-17145000Y-36195000D03*
X-12095296Y-62231589D03*
X-11125343Y-62890355D03*
G04 #@! TO.N,/SCL1*
X-25654000Y-38100000D03*
X-18288000Y-42926000D03*
X-30480000Y-56159400D03*
X-12446000Y-42087800D03*
G04 #@! TO.N,/SDA1*
X-24384000Y-39878000D03*
X-18288000Y-41910000D03*
X-24409400Y-42087800D03*
X-29387800Y-56438800D03*
G04 #@! TO.N,/PERIPH_3V3*
X-28270600Y-17856200D03*
G04 #@! TO.N,Net-(BT1-Pad1)*
X-29845000Y-61849000D03*
G04 #@! TO.N,/D6_RAIN*
X-17094200Y-2362200D03*
X-27218809Y-38444030D03*
G04 #@! TO.N,/A1_WIND_DIR*
X-23876000Y21590000D03*
X-28092400Y-31026100D03*
G04 #@! TO.N,/D10_WIND_SPEED*
X-17856200Y13769372D03*
X-27686000Y-39624000D03*
G04 #@! TO.N,/D8_PERIPH_EN*
X-36423600Y-33261300D03*
X-36499800Y-15163800D03*
G04 #@! TO.N,/D5_FLASH_CS*
X-29438600Y-38912800D03*
X-31915100Y-19735800D03*
G04 #@! TO.N,/D7_WEATHER_EN*
X-26060400Y-42621200D03*
X-35255200Y-13411200D03*
G04 #@! TO.N,/WEATHER_3V3*
X-31242000Y-6350000D03*
X-30226000Y-6350000D03*
X-30226000Y-9398000D03*
X-31242000Y-9398000D03*
X-32258000Y-9398000D03*
X-33274000Y-6350000D03*
X-34290000Y-6350000D03*
X-34290000Y-9398000D03*
X-33274000Y-9398000D03*
X-33274000Y-10414000D03*
X-33274000Y-11430000D03*
X-34290000Y-10414000D03*
X-34290000Y-11430000D03*
X-23876000Y-8128000D03*
X-21564600Y6375400D03*
X-27889200Y15316200D03*
X-18669000Y21539200D03*
X-18719800Y23596600D03*
G04 #@! TD*
D21*
G04 #@! TO.N,GND*
X-22783800Y16052800D02*
X-22783800Y15303500D01*
X-22783800Y15303500D02*
X-22771100Y15290800D01*
X-32296100Y-31864300D02*
X-33312100Y-31864300D01*
X-35179000Y-48950000D02*
X-33600000Y-48950000D01*
X-33600000Y-48950000D02*
X-33528000Y-49022000D01*
D22*
X-9447800Y-64688000D02*
X-10840000Y-64688000D01*
X-10840000Y-64688000D02*
X-11684000Y-65532000D01*
D21*
G04 #@! TO.N,3V3*
X-23876000Y-10668000D02*
X-23876000Y-11938000D01*
D23*
X-26670000Y-19024600D02*
X-25425400Y-19024600D01*
X-25425400Y-19024600D02*
X-25400000Y-18999200D01*
D21*
G04 #@! TO.N,/SWDIO*
X-26276300Y-28130500D02*
X-22783800Y-24638000D01*
X-27613779Y-32689800D02*
X-26407338Y-31483359D01*
X-26407338Y-31483359D02*
X-26407338Y-28261538D01*
X-26407338Y-28261538D02*
X-26276300Y-28130500D01*
X-27639190Y-32664389D02*
X-27613779Y-32689800D01*
G04 #@! TO.N,/SWCLK*
X-26813748Y-27905948D02*
X-26813748Y-31106255D01*
X-21713114Y-22275800D02*
X-23952200Y-24514886D01*
X-27760153Y-33451800D02*
X-27406600Y-33451800D01*
X-26813748Y-31106255D02*
X-28143189Y-32435696D01*
X-28143189Y-33068764D02*
X-27760153Y-33451800D01*
X-23952200Y-25044400D02*
X-26813748Y-27905948D01*
X-28143189Y-32435696D02*
X-28143189Y-33068764D01*
X-20701000Y-22275800D02*
X-21713114Y-22275800D01*
X-23952200Y-24514886D02*
X-23952200Y-25044400D01*
D24*
G04 #@! TO.N,/A3*
X-28274201Y-40204199D02*
X-26674001Y-40204199D01*
X-28524200Y-39954200D02*
X-28274201Y-40204199D01*
X-26674001Y-40204199D02*
X-26238200Y-39768398D01*
X-26238200Y-39768398D02*
X-26238200Y-37617400D01*
X-26238200Y-37617400D02*
X-23977600Y-35356800D01*
X-23977600Y-35356800D02*
X-23647400Y-35356800D01*
X-23647400Y-35356800D02*
X-20726400Y-32435800D01*
X-20726400Y-32435800D02*
X-14351000Y-32435800D01*
X-14351000Y-32435800D02*
X-7391400Y-25476200D01*
X-7391400Y-25476200D02*
X-7391400Y-15494000D01*
X-7391400Y-15494000D02*
X-6959600Y-15062200D01*
D21*
G04 #@! TO.N,/MOSI*
X-31766699Y-26085800D02*
X-31766699Y-25789701D01*
X-31766699Y-25789701D02*
X-32169100Y-25387300D01*
X-32613600Y-36118800D02*
X-31766699Y-35271899D01*
X-31766699Y-35271899D02*
X-31766699Y-26085800D01*
G04 #@! TO.N,/SCK*
X-31360289Y-23037925D02*
X-31546508Y-22851706D01*
X-31546508Y-22851706D02*
X-31796507Y-22601707D01*
X-31864914Y-36118800D02*
X-31360289Y-35614175D01*
X-31360289Y-35614175D02*
X-31360289Y-23037925D01*
G04 #@! TO.N,/MISO*
X-32359600Y-21289928D02*
X-30912414Y-22737114D01*
X-32359600Y-20243800D02*
X-32359600Y-21289928D01*
X-30912414Y-36322614D02*
X-30912414Y-23876614D01*
X-30912414Y-22737114D02*
X-30912414Y-23876614D01*
G04 #@! TO.N,/USB-*
X-17780000Y-63500000D02*
X-22660799Y-58619201D01*
X-22660799Y-58619201D02*
X-22660799Y-42261601D01*
X-22660799Y-42261601D02*
X-23152100Y-41770300D01*
X-10494182Y-62738000D02*
X-10871229Y-62360953D01*
X-10871229Y-62360953D02*
X-11379457Y-62360953D01*
X-11379457Y-62360953D02*
X-12221401Y-63202897D01*
X-12221401Y-63202897D02*
X-12221401Y-63351601D01*
X-12221401Y-63351601D02*
X-12471400Y-63601600D01*
X-9447800Y-62738000D02*
X-10494182Y-62738000D01*
G04 #@! TO.N,/USB+*
X-22144801Y-58119199D02*
X-18029999Y-62234001D01*
X-18029999Y-62234001D02*
X-17780000Y-62484000D01*
X-22144801Y-47421687D02*
X-22144801Y-58119199D01*
X-22140101Y-47416987D02*
X-22144801Y-47421687D01*
X-22140101Y-42020299D02*
X-22140101Y-47416987D01*
X-22390100Y-41770300D02*
X-22140101Y-42020299D01*
D24*
X-10975563Y-63388000D02*
X-11130311Y-63542748D01*
X-9447800Y-63388000D02*
X-10975563Y-63388000D01*
D23*
G04 #@! TO.N,Net-(C10-Pad1)*
X-8815800Y-66300000D02*
X-8527800Y-66588000D01*
X-10160000Y-66300000D02*
X-8815800Y-66300000D01*
D24*
G04 #@! TO.N,VUSB*
X-9407400Y-62128400D02*
X-9447800Y-62088000D01*
X-8737600Y-62128400D02*
X-9407400Y-62128400D01*
G04 #@! TO.N,Net-(J1-Pad4)*
X-9447800Y-64038000D02*
X-10326000Y-64038000D01*
X-11372233Y-64046750D02*
X-11634313Y-63784670D01*
X-11223842Y-62890355D02*
X-11125343Y-62890355D01*
X-11634313Y-63300826D02*
X-11223842Y-62890355D01*
X-11634313Y-63784670D02*
X-11634313Y-63300826D01*
X-10334750Y-64046750D02*
X-11372233Y-64046750D01*
X-10326000Y-64038000D02*
X-10334750Y-64046750D01*
D21*
X-12192000Y-62134885D02*
X-12095296Y-62231589D01*
X-12192000Y-61209038D02*
X-12192000Y-62134885D01*
X-6096000Y-55113038D02*
X-12192000Y-61209038D01*
X-6096000Y-38608000D02*
X-6096000Y-55113038D01*
X-17145000Y-36195000D02*
X-8509000Y-36195000D01*
X-8509000Y-36195000D02*
X-6096000Y-38608000D01*
D24*
G04 #@! TO.N,/SCL1*
X-23758311Y-41249611D02*
X-19964389Y-41249611D01*
X-19964389Y-41249611D02*
X-18537999Y-42676001D01*
X-25654000Y-38100000D02*
X-25654000Y-39353922D01*
X-18537999Y-42676001D02*
X-18288000Y-42926000D01*
X-25510922Y-39497000D02*
X-23758311Y-41249611D01*
X-25654000Y-39353922D02*
X-25510922Y-39497000D01*
X-18288000Y-42926000D02*
X-17934447Y-42926000D01*
X-17934447Y-42926000D02*
X-13284200Y-42926000D01*
X-13284200Y-42926000D02*
X-12446000Y-42087800D01*
X-25510922Y-39497000D02*
X-25510922Y-51190322D01*
X-25510922Y-51190322D02*
X-30480000Y-56159400D01*
G04 #@! TO.N,/SDA1*
X-18537999Y-41660001D02*
X-18288000Y-41910000D01*
X-19304000Y-40894000D02*
X-18537999Y-41660001D01*
X-23368000Y-40894000D02*
X-19304000Y-40894000D01*
X-24384000Y-39878000D02*
X-23368000Y-40894000D01*
X-24409400Y-42087800D02*
X-24409400Y-51460400D01*
X-24409400Y-51460400D02*
X-29137801Y-56188801D01*
X-29137801Y-56188801D02*
X-29387800Y-56438800D01*
D23*
G04 #@! TO.N,/PERIPH_3V3*
X-28194000Y-17932800D02*
X-28270600Y-17856200D01*
X-28194000Y-19024600D02*
X-28194000Y-17932800D01*
D21*
G04 #@! TO.N,Net-(BT1-Pad1)*
X-29845000Y-61849000D02*
X-33346000Y-65350000D01*
X-33346000Y-65350000D02*
X-35179000Y-65350000D01*
G04 #@! TO.N,/D6_RAIN*
X-17094200Y-2362200D02*
X-18211790Y-3479790D01*
X-18211790Y-14452600D02*
X-17860199Y-14804191D01*
X-17860199Y-30420499D02*
X-18888889Y-31449189D01*
X-21310437Y-31449189D02*
X-24053800Y-34192552D01*
X-18211790Y-3479790D02*
X-18211790Y-14452600D01*
X-18888889Y-31449189D02*
X-21310437Y-31449189D01*
X-17860199Y-14804191D02*
X-17860199Y-30420499D01*
D24*
X-27218809Y-38090477D02*
X-27218809Y-38444030D01*
X-27218809Y-37357561D02*
X-27218809Y-38090477D01*
X-24053800Y-34192552D02*
X-27218809Y-37357561D01*
D21*
G04 #@! TO.N,/A1_WIND_DIR*
X-19503314Y21590000D02*
X-23522447Y21590000D01*
X-18618200Y20704886D02*
X-19503314Y21590000D01*
X-23522447Y21590000D02*
X-23876000Y21590000D01*
X-18618200Y-14554200D02*
X-18618200Y20704886D01*
X-27613799Y-23549799D02*
X-18618200Y-14554200D01*
X-27613799Y-30547499D02*
X-27613799Y-23549799D01*
X-28092400Y-31026100D02*
X-27613799Y-30547499D01*
G04 #@! TO.N,/D10_WIND_SPEED*
X-17856200Y13769372D02*
X-18211790Y13413782D01*
X-18698399Y-31855599D02*
X-21142097Y-31855599D01*
X-18211790Y13413782D02*
X-18211790Y-381010D01*
X-18211790Y-381010D02*
X-16564799Y-2028001D01*
X-16564799Y-2616313D02*
X-17805380Y-3856894D01*
X-16564799Y-2028001D02*
X-16564799Y-2616313D01*
X-17805380Y-3856894D02*
X-17805380Y-14020800D01*
X-17805380Y-14020800D02*
X-17310100Y-14516080D01*
X-21142097Y-31855599D02*
X-23449498Y-34163000D01*
X-17310100Y-14516080D02*
X-17310100Y-30467300D01*
X-17310100Y-30467300D02*
X-18698399Y-31855599D01*
D24*
X-26670000Y-37383502D02*
X-23449498Y-34163000D01*
X-26670000Y-38608000D02*
X-26670000Y-37383502D01*
X-27686000Y-39624000D02*
X-26670000Y-38608000D01*
D21*
G04 #@! TO.N,/D8_PERIPH_EN*
X-36423600Y-23237114D02*
X-36046599Y-22860113D01*
X-36423600Y-21974886D02*
X-36423600Y-17907000D01*
X-36423600Y-17907000D02*
X-36423600Y-16761953D01*
X-36423600Y-33261300D02*
X-36423600Y-23237114D01*
X-36046599Y-22351887D02*
X-36423600Y-21974886D01*
X-36046599Y-22860113D02*
X-36046599Y-22351887D01*
D24*
X-36423600Y-16761953D02*
X-36423600Y-15240000D01*
X-36423600Y-15240000D02*
X-36499800Y-15163800D01*
D21*
G04 #@! TO.N,/D5_FLASH_CS*
X-29438600Y-37012914D02*
X-29438600Y-38912800D01*
X-30506004Y-21144896D02*
X-30506004Y-35945510D01*
X-31915100Y-19735800D02*
X-30506004Y-21144896D01*
X-30506004Y-35945510D02*
X-29438600Y-37012914D01*
D24*
G04 #@! TO.N,/D7_WEATHER_EN*
X-26060400Y-42621200D02*
X-27228800Y-41452800D01*
X-27228800Y-41452800D02*
X-29337000Y-41452800D01*
X-29337000Y-41452800D02*
X-34772600Y-36017200D01*
X-34772600Y-36017200D02*
X-34772600Y-13893800D01*
X-34772600Y-13893800D02*
X-35255200Y-13411200D01*
D21*
G04 #@! TO.N,/WEATHER_3V3*
X-23876000Y-9144000D02*
X-23876000Y-8128000D01*
G04 #@! TD*
M02*
