G04 #@! TF.GenerationSoftware,KiCad,Pcbnew,(5.0.0)*
G04 #@! TF.CreationDate,2018-12-20T12:17:44-05:00*
G04 #@! TF.ProjectId,fk-weather,666B2D776561746865722E6B69636164,0.1*
G04 #@! TF.SameCoordinates,PX791ddc0PY791ddc0*
G04 #@! TF.FileFunction,Legend,Top*
G04 #@! TF.FilePolarity,Positive*
%FSLAX46Y46*%
G04 Gerber Fmt 4.6, Leading zero omitted, Abs format (unit mm)*
G04 Created by KiCad (PCBNEW (5.0.0)) date 12/20/18 12:17:44*
%MOMM*%
%LPD*%
G01*
G04 APERTURE LIST*
%ADD10C,0.200000*%
%ADD11C,0.300000*%
%ADD12C,0.150000*%
%ADD13C,0.010000*%
%ADD14C,0.120000*%
G04 APERTURE END LIST*
D10*
X-19545134Y-61056780D02*
X-19545134Y-60056780D01*
X-19164181Y-60056780D01*
X-19068943Y-60104400D01*
X-19021324Y-60152019D01*
X-18973705Y-60247257D01*
X-18973705Y-60390114D01*
X-19021324Y-60485352D01*
X-19068943Y-60532971D01*
X-19164181Y-60580590D01*
X-19545134Y-60580590D01*
X-18640372Y-60056780D02*
X-18402277Y-61056780D01*
X-18211800Y-60342495D01*
X-18021324Y-61056780D01*
X-17783229Y-60056780D01*
X-16830848Y-61056780D02*
X-17164181Y-60580590D01*
X-17402277Y-61056780D02*
X-17402277Y-60056780D01*
X-17021324Y-60056780D01*
X-16926086Y-60104400D01*
X-16878467Y-60152019D01*
X-16830848Y-60247257D01*
X-16830848Y-60390114D01*
X-16878467Y-60485352D01*
X-16926086Y-60532971D01*
X-17021324Y-60580590D01*
X-17402277Y-60580590D01*
X-12088524Y-27658961D02*
X-11945667Y-27706580D01*
X-11707572Y-27706580D01*
X-11612334Y-27658961D01*
X-11564715Y-27611342D01*
X-11517096Y-27516104D01*
X-11517096Y-27420866D01*
X-11564715Y-27325628D01*
X-11612334Y-27278009D01*
X-11707572Y-27230390D01*
X-11898048Y-27182771D01*
X-11993286Y-27135152D01*
X-12040905Y-27087533D01*
X-12088524Y-26992295D01*
X-12088524Y-26897057D01*
X-12040905Y-26801819D01*
X-11993286Y-26754200D01*
X-11898048Y-26706580D01*
X-11659953Y-26706580D01*
X-11517096Y-26754200D01*
X-11088524Y-27182771D02*
X-10755191Y-27182771D01*
X-10612334Y-27706580D02*
X-11088524Y-27706580D01*
X-11088524Y-26706580D01*
X-10612334Y-26706580D01*
X-9612334Y-27706580D02*
X-9945667Y-27230390D01*
X-10183762Y-27706580D02*
X-10183762Y-26706580D01*
X-9802810Y-26706580D01*
X-9707572Y-26754200D01*
X-9659953Y-26801819D01*
X-9612334Y-26897057D01*
X-9612334Y-27039914D01*
X-9659953Y-27135152D01*
X-9707572Y-27182771D01*
X-9802810Y-27230390D01*
X-10183762Y-27230390D01*
X-9183762Y-27706580D02*
X-9183762Y-26706580D01*
X-8755191Y-27420866D02*
X-8279000Y-27420866D01*
X-8850429Y-27706580D02*
X-8517096Y-26706580D01*
X-8183762Y-27706580D01*
X-7374239Y-27706580D02*
X-7850429Y-27706580D01*
X-7850429Y-26706580D01*
X-8066020Y-24810980D02*
X-8399353Y-24334790D01*
X-8637448Y-24810980D02*
X-8637448Y-23810980D01*
X-8256496Y-23810980D01*
X-8161258Y-23858600D01*
X-8113639Y-23906219D01*
X-8066020Y-24001457D01*
X-8066020Y-24144314D01*
X-8113639Y-24239552D01*
X-8161258Y-24287171D01*
X-8256496Y-24334790D01*
X-8637448Y-24334790D01*
X-7685067Y-24763361D02*
X-7542210Y-24810980D01*
X-7304115Y-24810980D01*
X-7208877Y-24763361D01*
X-7161258Y-24715742D01*
X-7113639Y-24620504D01*
X-7113639Y-24525266D01*
X-7161258Y-24430028D01*
X-7208877Y-24382409D01*
X-7304115Y-24334790D01*
X-7494591Y-24287171D01*
X-7589829Y-24239552D01*
X-7637448Y-24191933D01*
X-7685067Y-24096695D01*
X-7685067Y-24001457D01*
X-7637448Y-23906219D01*
X-7589829Y-23858600D01*
X-7494591Y-23810980D01*
X-7256496Y-23810980D01*
X-7113639Y-23858600D01*
X-6827924Y-23810980D02*
X-6256496Y-23810980D01*
X-6542210Y-24810980D02*
X-6542210Y-23810980D01*
X-19773496Y-37514161D02*
X-19630639Y-37561780D01*
X-19392543Y-37561780D01*
X-19297305Y-37514161D01*
X-19249686Y-37466542D01*
X-19202067Y-37371304D01*
X-19202067Y-37276066D01*
X-19249686Y-37180828D01*
X-19297305Y-37133209D01*
X-19392543Y-37085590D01*
X-19583020Y-37037971D01*
X-19678258Y-36990352D01*
X-19725877Y-36942733D01*
X-19773496Y-36847495D01*
X-19773496Y-36752257D01*
X-19725877Y-36657019D01*
X-19678258Y-36609400D01*
X-19583020Y-36561780D01*
X-19344924Y-36561780D01*
X-19202067Y-36609400D01*
X-18773496Y-37037971D02*
X-18440162Y-37037971D01*
X-18297305Y-37561780D02*
X-18773496Y-37561780D01*
X-18773496Y-36561780D01*
X-18297305Y-36561780D01*
X-17868734Y-37561780D02*
X-17868734Y-36561780D01*
X-17297305Y-37561780D01*
X-17297305Y-36561780D01*
X-16868734Y-37514161D02*
X-16725877Y-37561780D01*
X-16487781Y-37561780D01*
X-16392543Y-37514161D01*
X-16344924Y-37466542D01*
X-16297305Y-37371304D01*
X-16297305Y-37276066D01*
X-16344924Y-37180828D01*
X-16392543Y-37133209D01*
X-16487781Y-37085590D01*
X-16678258Y-37037971D01*
X-16773496Y-36990352D01*
X-16821115Y-36942733D01*
X-16868734Y-36847495D01*
X-16868734Y-36752257D01*
X-16821115Y-36657019D01*
X-16773496Y-36609400D01*
X-16678258Y-36561780D01*
X-16440162Y-36561780D01*
X-16297305Y-36609400D01*
X-15678258Y-36561780D02*
X-15487781Y-36561780D01*
X-15392543Y-36609400D01*
X-15297305Y-36704638D01*
X-15249686Y-36895114D01*
X-15249686Y-37228447D01*
X-15297305Y-37418923D01*
X-15392543Y-37514161D01*
X-15487781Y-37561780D01*
X-15678258Y-37561780D01*
X-15773496Y-37514161D01*
X-15868734Y-37418923D01*
X-15916353Y-37228447D01*
X-15916353Y-36895114D01*
X-15868734Y-36704638D01*
X-15773496Y-36609400D01*
X-15678258Y-36561780D01*
X-14249686Y-37561780D02*
X-14583020Y-37085590D01*
X-14821115Y-37561780D02*
X-14821115Y-36561780D01*
X-14440162Y-36561780D01*
X-14344924Y-36609400D01*
X-14297305Y-36657019D01*
X-14249686Y-36752257D01*
X-14249686Y-36895114D01*
X-14297305Y-36990352D01*
X-14344924Y-37037971D01*
X-14440162Y-37085590D01*
X-14821115Y-37085590D01*
X-13868734Y-37514161D02*
X-13725877Y-37561780D01*
X-13487781Y-37561780D01*
X-13392543Y-37514161D01*
X-13344924Y-37466542D01*
X-13297305Y-37371304D01*
X-13297305Y-37276066D01*
X-13344924Y-37180828D01*
X-13392543Y-37133209D01*
X-13487781Y-37085590D01*
X-13678258Y-37037971D01*
X-13773496Y-36990352D01*
X-13821115Y-36942733D01*
X-13868734Y-36847495D01*
X-13868734Y-36752257D01*
X-13821115Y-36657019D01*
X-13773496Y-36609400D01*
X-13678258Y-36561780D01*
X-13440162Y-36561780D01*
X-13297305Y-36609400D01*
X-23823467Y-52935142D02*
X-23871086Y-52982761D01*
X-24013943Y-53030380D01*
X-24109181Y-53030380D01*
X-24252039Y-52982761D01*
X-24347277Y-52887523D01*
X-24394896Y-52792285D01*
X-24442515Y-52601809D01*
X-24442515Y-52458952D01*
X-24394896Y-52268476D01*
X-24347277Y-52173238D01*
X-24252039Y-52078000D01*
X-24109181Y-52030380D01*
X-24013943Y-52030380D01*
X-23871086Y-52078000D01*
X-23823467Y-52125619D01*
X-23204420Y-52030380D02*
X-23013943Y-52030380D01*
X-22918705Y-52078000D01*
X-22823467Y-52173238D01*
X-22775848Y-52363714D01*
X-22775848Y-52697047D01*
X-22823467Y-52887523D01*
X-22918705Y-52982761D01*
X-23013943Y-53030380D01*
X-23204420Y-53030380D01*
X-23299658Y-52982761D01*
X-23394896Y-52887523D01*
X-23442515Y-52697047D01*
X-23442515Y-52363714D01*
X-23394896Y-52173238D01*
X-23299658Y-52078000D01*
X-23204420Y-52030380D01*
X-21775848Y-53030380D02*
X-22109181Y-52554190D01*
X-22347277Y-53030380D02*
X-22347277Y-52030380D01*
X-21966324Y-52030380D01*
X-21871086Y-52078000D01*
X-21823467Y-52125619D01*
X-21775848Y-52220857D01*
X-21775848Y-52363714D01*
X-21823467Y-52458952D01*
X-21871086Y-52506571D01*
X-21966324Y-52554190D01*
X-22347277Y-52554190D01*
X-21347277Y-52506571D02*
X-21013943Y-52506571D01*
X-20871086Y-53030380D02*
X-21347277Y-53030380D01*
X-21347277Y-52030380D01*
X-20871086Y-52030380D01*
D11*
X-16917029Y-6469771D02*
X-17417029Y-5755485D01*
X-17774172Y-6469771D02*
X-17774172Y-4969771D01*
X-17202743Y-4969771D01*
X-17059886Y-5041200D01*
X-16988458Y-5112628D01*
X-16917029Y-5255485D01*
X-16917029Y-5469771D01*
X-16988458Y-5612628D01*
X-17059886Y-5684057D01*
X-17202743Y-5755485D01*
X-17774172Y-5755485D01*
X-16345600Y-6041200D02*
X-15631315Y-6041200D01*
X-16488458Y-6469771D02*
X-15988458Y-4969771D01*
X-15488458Y-6469771D01*
X-14988458Y-6469771D02*
X-14988458Y-4969771D01*
X-14274172Y-6469771D02*
X-14274172Y-4969771D01*
X-13417029Y-6469771D01*
X-13417029Y-4969771D01*
X-18258315Y25637229D02*
X-17901172Y24137229D01*
X-17615458Y25208658D01*
X-17329743Y24137229D01*
X-16972600Y25637229D01*
X-16401172Y24137229D02*
X-16401172Y25637229D01*
X-15686886Y24137229D02*
X-15686886Y25637229D01*
X-14829743Y24137229D01*
X-14829743Y25637229D01*
X-14115458Y24137229D02*
X-14115458Y25637229D01*
X-13758315Y25637229D01*
X-13544029Y25565800D01*
X-13401172Y25422943D01*
X-13329743Y25280086D01*
X-13258315Y24994372D01*
X-13258315Y24780086D01*
X-13329743Y24494372D01*
X-13401172Y24351515D01*
X-13544029Y24208658D01*
X-13758315Y24137229D01*
X-14115458Y24137229D01*
D10*
X-24912486Y-45207180D02*
X-24912486Y-44207180D01*
X-24674391Y-44207180D01*
X-24531534Y-44254800D01*
X-24436296Y-44350038D01*
X-24388677Y-44445276D01*
X-24341058Y-44635752D01*
X-24341058Y-44778609D01*
X-24388677Y-44969085D01*
X-24436296Y-45064323D01*
X-24531534Y-45159561D01*
X-24674391Y-45207180D01*
X-24912486Y-45207180D01*
X-23388677Y-45207180D02*
X-23960105Y-45207180D01*
X-23674391Y-45207180D02*
X-23674391Y-44207180D01*
X-23769629Y-44350038D01*
X-23864867Y-44445276D01*
X-23960105Y-44492895D01*
X-23055343Y-44207180D02*
X-22436296Y-44207180D01*
X-22769629Y-44588133D01*
X-22626772Y-44588133D01*
X-22531534Y-44635752D01*
X-22483915Y-44683371D01*
X-22436296Y-44778609D01*
X-22436296Y-45016704D01*
X-22483915Y-45111942D01*
X-22531534Y-45159561D01*
X-22626772Y-45207180D01*
X-22912486Y-45207180D01*
X-23007724Y-45159561D01*
X-23055343Y-45111942D01*
X-33738486Y4992620D02*
X-33500391Y3992620D01*
X-33309915Y4706905D01*
X-33119439Y3992620D01*
X-32881343Y4992620D01*
X-32119439Y4040239D02*
X-32214677Y3992620D01*
X-32405153Y3992620D01*
X-32500391Y4040239D01*
X-32548010Y4135477D01*
X-32548010Y4516429D01*
X-32500391Y4611667D01*
X-32405153Y4659286D01*
X-32214677Y4659286D01*
X-32119439Y4611667D01*
X-32071820Y4516429D01*
X-32071820Y4421191D01*
X-32548010Y4325953D01*
X-31214677Y3992620D02*
X-31214677Y4516429D01*
X-31262296Y4611667D01*
X-31357534Y4659286D01*
X-31548010Y4659286D01*
X-31643248Y4611667D01*
X-31214677Y4040239D02*
X-31309915Y3992620D01*
X-31548010Y3992620D01*
X-31643248Y4040239D01*
X-31690867Y4135477D01*
X-31690867Y4230715D01*
X-31643248Y4325953D01*
X-31548010Y4373572D01*
X-31309915Y4373572D01*
X-31214677Y4421191D01*
X-30881343Y4659286D02*
X-30500391Y4659286D01*
X-30738486Y4992620D02*
X-30738486Y4135477D01*
X-30690867Y4040239D01*
X-30595629Y3992620D01*
X-30500391Y3992620D01*
X-30167058Y3992620D02*
X-30167058Y4992620D01*
X-29738486Y3992620D02*
X-29738486Y4516429D01*
X-29786105Y4611667D01*
X-29881343Y4659286D01*
X-30024200Y4659286D01*
X-30119439Y4611667D01*
X-30167058Y4564048D01*
X-28881343Y4040239D02*
X-28976581Y3992620D01*
X-29167058Y3992620D01*
X-29262296Y4040239D01*
X-29309915Y4135477D01*
X-29309915Y4516429D01*
X-29262296Y4611667D01*
X-29167058Y4659286D01*
X-28976581Y4659286D01*
X-28881343Y4611667D01*
X-28833724Y4516429D01*
X-28833724Y4421191D01*
X-29309915Y4325953D01*
X-28405153Y3992620D02*
X-28405153Y4659286D01*
X-28405153Y4468810D02*
X-28357534Y4564048D01*
X-28309915Y4611667D01*
X-28214677Y4659286D01*
X-28119439Y4659286D01*
X-27119439Y4659286D02*
X-26881343Y3992620D01*
X-26643248Y4659286D01*
X-26071820Y4992620D02*
X-25976581Y4992620D01*
X-25881343Y4945000D01*
X-25833724Y4897381D01*
X-25786105Y4802143D01*
X-25738486Y4611667D01*
X-25738486Y4373572D01*
X-25786105Y4183096D01*
X-25833724Y4087858D01*
X-25881343Y4040239D01*
X-25976581Y3992620D01*
X-26071820Y3992620D01*
X-26167058Y4040239D01*
X-26214677Y4087858D01*
X-26262296Y4183096D01*
X-26309915Y4373572D01*
X-26309915Y4611667D01*
X-26262296Y4802143D01*
X-26214677Y4897381D01*
X-26167058Y4945000D01*
X-26071820Y4992620D01*
X-25309915Y4087858D02*
X-25262296Y4040239D01*
X-25309915Y3992620D01*
X-25357534Y4040239D01*
X-25309915Y4087858D01*
X-25309915Y3992620D01*
X-24309915Y3992620D02*
X-24881343Y3992620D01*
X-24595629Y3992620D02*
X-24595629Y4992620D01*
X-24690867Y4849762D01*
X-24786105Y4754524D01*
X-24881343Y4706905D01*
X-23357534Y3992620D02*
X-23928962Y3992620D01*
X-23643248Y3992620D02*
X-23643248Y4992620D01*
X-23738486Y4849762D01*
X-23833724Y4754524D01*
X-23928962Y4706905D01*
D12*
G04 #@! TO.C,C22*
X-12993600Y-22504200D02*
X-11593600Y-22504200D01*
X-12993600Y-19304200D02*
X-11593600Y-19304200D01*
X-12993600Y-22504200D02*
X-12993600Y-19304200D01*
X-11593600Y-19304200D02*
X-11593600Y-22504200D01*
D13*
G04 #@! TO.C,G\002A\002A\002A*
G36*
X-36254418Y-69386450D02*
X-36244969Y-69435989D01*
X-36235841Y-69480018D01*
X-36227678Y-69515719D01*
X-36221122Y-69540271D01*
X-36216925Y-69550751D01*
X-36205942Y-69557454D01*
X-36182452Y-69568839D01*
X-36149712Y-69583413D01*
X-36110983Y-69599682D01*
X-36103674Y-69602657D01*
X-35999649Y-69644777D01*
X-35968208Y-69623299D01*
X-35901430Y-69577832D01*
X-35847372Y-69541384D01*
X-35804905Y-69513229D01*
X-35772902Y-69492640D01*
X-35750235Y-69478890D01*
X-35735775Y-69471254D01*
X-35728582Y-69469000D01*
X-35718737Y-69474798D01*
X-35699712Y-69490621D01*
X-35673873Y-69514112D01*
X-35643583Y-69542915D01*
X-35611209Y-69574673D01*
X-35579115Y-69607030D01*
X-35549667Y-69637630D01*
X-35525230Y-69664115D01*
X-35508168Y-69684129D01*
X-35500846Y-69695316D01*
X-35500733Y-69696024D01*
X-35505324Y-69706338D01*
X-35518030Y-69727971D01*
X-35537252Y-69758377D01*
X-35561391Y-69795006D01*
X-35581023Y-69823958D01*
X-35608153Y-69863867D01*
X-35632037Y-69899682D01*
X-35650943Y-69928752D01*
X-35663138Y-69948424D01*
X-35666759Y-69955193D01*
X-35665934Y-69969594D01*
X-35658729Y-69995330D01*
X-35646718Y-70028788D01*
X-35631475Y-70066352D01*
X-35614575Y-70104410D01*
X-35597591Y-70139348D01*
X-35582098Y-70167551D01*
X-35569669Y-70185405D01*
X-35564706Y-70189506D01*
X-35552716Y-70192738D01*
X-35527532Y-70198354D01*
X-35492615Y-70205674D01*
X-35451424Y-70214021D01*
X-35407421Y-70222714D01*
X-35364066Y-70231075D01*
X-35324819Y-70238426D01*
X-35293140Y-70244086D01*
X-35272490Y-70247377D01*
X-35266932Y-70247933D01*
X-35265935Y-70255973D01*
X-35265271Y-70278394D01*
X-35264963Y-70312644D01*
X-35265029Y-70356174D01*
X-35265490Y-70406434D01*
X-35265604Y-70415118D01*
X-35267900Y-70582303D01*
X-35301766Y-70589074D01*
X-35322589Y-70593193D01*
X-35355829Y-70599717D01*
X-35397279Y-70607822D01*
X-35442735Y-70616686D01*
X-35453286Y-70618740D01*
X-35570939Y-70641633D01*
X-35615967Y-70751700D01*
X-35632324Y-70792543D01*
X-35646073Y-70828509D01*
X-35656018Y-70856350D01*
X-35660966Y-70872813D01*
X-35661298Y-70875068D01*
X-35656818Y-70886214D01*
X-35644225Y-70908634D01*
X-35625108Y-70939723D01*
X-35601054Y-70976875D01*
X-35581308Y-71006301D01*
X-35554633Y-71046201D01*
X-35531690Y-71081891D01*
X-35514076Y-71110775D01*
X-35503387Y-71130259D01*
X-35500875Y-71137055D01*
X-35506601Y-71146841D01*
X-35522314Y-71165855D01*
X-35545668Y-71191726D01*
X-35574315Y-71222079D01*
X-35605910Y-71254541D01*
X-35638106Y-71286738D01*
X-35668558Y-71316297D01*
X-35694920Y-71340845D01*
X-35714845Y-71358007D01*
X-35725987Y-71365411D01*
X-35726717Y-71365533D01*
X-35736664Y-71360932D01*
X-35757944Y-71348198D01*
X-35788035Y-71328935D01*
X-35824416Y-71304745D01*
X-35853203Y-71285100D01*
X-35892325Y-71258395D01*
X-35926710Y-71235440D01*
X-35953908Y-71217830D01*
X-35971469Y-71207159D01*
X-35976799Y-71204667D01*
X-35987176Y-71208243D01*
X-36008455Y-71217727D01*
X-36036495Y-71231250D01*
X-36043679Y-71234843D01*
X-36071969Y-71248630D01*
X-36093761Y-71258385D01*
X-36105287Y-71262448D01*
X-36106144Y-71262360D01*
X-36110012Y-71254063D01*
X-36119362Y-71232391D01*
X-36133246Y-71199633D01*
X-36150713Y-71158079D01*
X-36170811Y-71110016D01*
X-36192591Y-71057734D01*
X-36215103Y-71003522D01*
X-36237395Y-70949668D01*
X-36258518Y-70898462D01*
X-36277522Y-70852191D01*
X-36293455Y-70813146D01*
X-36305367Y-70783615D01*
X-36312309Y-70765886D01*
X-36312467Y-70765462D01*
X-36320359Y-70742655D01*
X-36321702Y-70730237D01*
X-36316211Y-70722862D01*
X-36309960Y-70718895D01*
X-36295732Y-70708980D01*
X-36273157Y-70691580D01*
X-36246770Y-70670204D01*
X-36242957Y-70667033D01*
X-36192506Y-70614940D01*
X-36156044Y-70556132D01*
X-36133356Y-70492828D01*
X-36124227Y-70427245D01*
X-36128444Y-70361602D01*
X-36145791Y-70298117D01*
X-36176055Y-70239009D01*
X-36219021Y-70186494D01*
X-36274475Y-70142791D01*
X-36294750Y-70131069D01*
X-36361433Y-70104478D01*
X-36430320Y-70093281D01*
X-36499004Y-70096755D01*
X-36565075Y-70114181D01*
X-36626127Y-70144840D01*
X-36679752Y-70188010D01*
X-36723541Y-70242972D01*
X-36734977Y-70262732D01*
X-36762422Y-70331219D01*
X-36773904Y-70401278D01*
X-36769990Y-70470811D01*
X-36751247Y-70537719D01*
X-36718242Y-70599903D01*
X-36671543Y-70655265D01*
X-36617276Y-70698173D01*
X-36594960Y-70714235D01*
X-36579972Y-70728092D01*
X-36576000Y-70734945D01*
X-36579133Y-70745493D01*
X-36587880Y-70769135D01*
X-36601258Y-70803371D01*
X-36618286Y-70845699D01*
X-36637983Y-70893617D01*
X-36642705Y-70904969D01*
X-36665943Y-70960830D01*
X-36689738Y-71018253D01*
X-36712284Y-71072859D01*
X-36731772Y-71120268D01*
X-36745486Y-71153866D01*
X-36760667Y-71190461D01*
X-36774239Y-71221696D01*
X-36784583Y-71243932D01*
X-36789641Y-71253057D01*
X-36797980Y-71256536D01*
X-36814149Y-71252928D01*
X-36840805Y-71241460D01*
X-36857094Y-71233447D01*
X-36886353Y-71219744D01*
X-36910346Y-71210394D01*
X-36924720Y-71207048D01*
X-36926151Y-71207278D01*
X-36936130Y-71213149D01*
X-36957431Y-71226951D01*
X-36987462Y-71246965D01*
X-37023631Y-71271470D01*
X-37048157Y-71288271D01*
X-37086852Y-71314455D01*
X-37121132Y-71336841D01*
X-37148395Y-71353792D01*
X-37166041Y-71363674D01*
X-37171046Y-71365533D01*
X-37180162Y-71359794D01*
X-37199001Y-71343858D01*
X-37225459Y-71319646D01*
X-37257432Y-71289078D01*
X-37289439Y-71257465D01*
X-37324073Y-71222069D01*
X-37354090Y-71190083D01*
X-37377567Y-71163663D01*
X-37392580Y-71144967D01*
X-37397266Y-71136524D01*
X-37395879Y-71130083D01*
X-37391029Y-71119656D01*
X-37381683Y-71103636D01*
X-37366809Y-71080419D01*
X-37345374Y-71048397D01*
X-37316346Y-71005965D01*
X-37278691Y-70951517D01*
X-37273413Y-70943911D01*
X-37255647Y-70917084D01*
X-37242505Y-70894889D01*
X-37236432Y-70881511D01*
X-37236279Y-70880411D01*
X-37239185Y-70869201D01*
X-37247248Y-70845403D01*
X-37259347Y-70812155D01*
X-37274360Y-70772595D01*
X-37279926Y-70758273D01*
X-37295235Y-70718478D01*
X-37307476Y-70688450D01*
X-37319212Y-70666422D01*
X-37333006Y-70650625D01*
X-37351420Y-70639291D01*
X-37377017Y-70630653D01*
X-37412358Y-70622941D01*
X-37460008Y-70614389D01*
X-37498246Y-70607640D01*
X-37541948Y-70599609D01*
X-37579713Y-70592293D01*
X-37608398Y-70586330D01*
X-37624858Y-70582359D01*
X-37627363Y-70581442D01*
X-37629522Y-70572025D01*
X-37631409Y-70548345D01*
X-37632913Y-70513070D01*
X-37633924Y-70468871D01*
X-37634330Y-70418416D01*
X-37634333Y-70413470D01*
X-37634333Y-70249806D01*
X-37492516Y-70223201D01*
X-37444404Y-70213947D01*
X-37401159Y-70205202D01*
X-37365945Y-70197639D01*
X-37341927Y-70191931D01*
X-37333293Y-70189328D01*
X-37323226Y-70178783D01*
X-37309222Y-70155880D01*
X-37292858Y-70124238D01*
X-37275711Y-70087472D01*
X-37259355Y-70049199D01*
X-37245368Y-70013035D01*
X-37235326Y-69982596D01*
X-37230805Y-69961499D01*
X-37231240Y-69955193D01*
X-37237692Y-69943701D01*
X-37252069Y-69920950D01*
X-37272640Y-69889593D01*
X-37297672Y-69852280D01*
X-37316976Y-69823958D01*
X-37343679Y-69784395D01*
X-37366622Y-69749188D01*
X-37384205Y-69720891D01*
X-37394827Y-69702060D01*
X-37397266Y-69695784D01*
X-37391408Y-69685726D01*
X-37375420Y-69666603D01*
X-37351679Y-69640763D01*
X-37322565Y-69610555D01*
X-37290455Y-69578327D01*
X-37257729Y-69546429D01*
X-37226765Y-69517207D01*
X-37199941Y-69493010D01*
X-37179636Y-69476188D01*
X-37168229Y-69469087D01*
X-37167574Y-69469000D01*
X-37151317Y-69473912D01*
X-37133825Y-69484532D01*
X-37119823Y-69494670D01*
X-37094820Y-69512163D01*
X-37061859Y-69534904D01*
X-37023980Y-69560789D01*
X-37006135Y-69572906D01*
X-36898638Y-69645748D01*
X-36794469Y-69603081D01*
X-36755026Y-69586493D01*
X-36720988Y-69571368D01*
X-36695600Y-69559206D01*
X-36682104Y-69551508D01*
X-36681168Y-69550690D01*
X-36675687Y-69538413D01*
X-36668735Y-69513776D01*
X-36661470Y-69481147D01*
X-36658362Y-69464767D01*
X-36650020Y-69418286D01*
X-36640544Y-69365487D01*
X-36631791Y-69316717D01*
X-36630631Y-69310250D01*
X-36616574Y-69231933D01*
X-36282687Y-69231933D01*
X-36254418Y-69386450D01*
X-36254418Y-69386450D01*
G37*
X-36254418Y-69386450D02*
X-36244969Y-69435989D01*
X-36235841Y-69480018D01*
X-36227678Y-69515719D01*
X-36221122Y-69540271D01*
X-36216925Y-69550751D01*
X-36205942Y-69557454D01*
X-36182452Y-69568839D01*
X-36149712Y-69583413D01*
X-36110983Y-69599682D01*
X-36103674Y-69602657D01*
X-35999649Y-69644777D01*
X-35968208Y-69623299D01*
X-35901430Y-69577832D01*
X-35847372Y-69541384D01*
X-35804905Y-69513229D01*
X-35772902Y-69492640D01*
X-35750235Y-69478890D01*
X-35735775Y-69471254D01*
X-35728582Y-69469000D01*
X-35718737Y-69474798D01*
X-35699712Y-69490621D01*
X-35673873Y-69514112D01*
X-35643583Y-69542915D01*
X-35611209Y-69574673D01*
X-35579115Y-69607030D01*
X-35549667Y-69637630D01*
X-35525230Y-69664115D01*
X-35508168Y-69684129D01*
X-35500846Y-69695316D01*
X-35500733Y-69696024D01*
X-35505324Y-69706338D01*
X-35518030Y-69727971D01*
X-35537252Y-69758377D01*
X-35561391Y-69795006D01*
X-35581023Y-69823958D01*
X-35608153Y-69863867D01*
X-35632037Y-69899682D01*
X-35650943Y-69928752D01*
X-35663138Y-69948424D01*
X-35666759Y-69955193D01*
X-35665934Y-69969594D01*
X-35658729Y-69995330D01*
X-35646718Y-70028788D01*
X-35631475Y-70066352D01*
X-35614575Y-70104410D01*
X-35597591Y-70139348D01*
X-35582098Y-70167551D01*
X-35569669Y-70185405D01*
X-35564706Y-70189506D01*
X-35552716Y-70192738D01*
X-35527532Y-70198354D01*
X-35492615Y-70205674D01*
X-35451424Y-70214021D01*
X-35407421Y-70222714D01*
X-35364066Y-70231075D01*
X-35324819Y-70238426D01*
X-35293140Y-70244086D01*
X-35272490Y-70247377D01*
X-35266932Y-70247933D01*
X-35265935Y-70255973D01*
X-35265271Y-70278394D01*
X-35264963Y-70312644D01*
X-35265029Y-70356174D01*
X-35265490Y-70406434D01*
X-35265604Y-70415118D01*
X-35267900Y-70582303D01*
X-35301766Y-70589074D01*
X-35322589Y-70593193D01*
X-35355829Y-70599717D01*
X-35397279Y-70607822D01*
X-35442735Y-70616686D01*
X-35453286Y-70618740D01*
X-35570939Y-70641633D01*
X-35615967Y-70751700D01*
X-35632324Y-70792543D01*
X-35646073Y-70828509D01*
X-35656018Y-70856350D01*
X-35660966Y-70872813D01*
X-35661298Y-70875068D01*
X-35656818Y-70886214D01*
X-35644225Y-70908634D01*
X-35625108Y-70939723D01*
X-35601054Y-70976875D01*
X-35581308Y-71006301D01*
X-35554633Y-71046201D01*
X-35531690Y-71081891D01*
X-35514076Y-71110775D01*
X-35503387Y-71130259D01*
X-35500875Y-71137055D01*
X-35506601Y-71146841D01*
X-35522314Y-71165855D01*
X-35545668Y-71191726D01*
X-35574315Y-71222079D01*
X-35605910Y-71254541D01*
X-35638106Y-71286738D01*
X-35668558Y-71316297D01*
X-35694920Y-71340845D01*
X-35714845Y-71358007D01*
X-35725987Y-71365411D01*
X-35726717Y-71365533D01*
X-35736664Y-71360932D01*
X-35757944Y-71348198D01*
X-35788035Y-71328935D01*
X-35824416Y-71304745D01*
X-35853203Y-71285100D01*
X-35892325Y-71258395D01*
X-35926710Y-71235440D01*
X-35953908Y-71217830D01*
X-35971469Y-71207159D01*
X-35976799Y-71204667D01*
X-35987176Y-71208243D01*
X-36008455Y-71217727D01*
X-36036495Y-71231250D01*
X-36043679Y-71234843D01*
X-36071969Y-71248630D01*
X-36093761Y-71258385D01*
X-36105287Y-71262448D01*
X-36106144Y-71262360D01*
X-36110012Y-71254063D01*
X-36119362Y-71232391D01*
X-36133246Y-71199633D01*
X-36150713Y-71158079D01*
X-36170811Y-71110016D01*
X-36192591Y-71057734D01*
X-36215103Y-71003522D01*
X-36237395Y-70949668D01*
X-36258518Y-70898462D01*
X-36277522Y-70852191D01*
X-36293455Y-70813146D01*
X-36305367Y-70783615D01*
X-36312309Y-70765886D01*
X-36312467Y-70765462D01*
X-36320359Y-70742655D01*
X-36321702Y-70730237D01*
X-36316211Y-70722862D01*
X-36309960Y-70718895D01*
X-36295732Y-70708980D01*
X-36273157Y-70691580D01*
X-36246770Y-70670204D01*
X-36242957Y-70667033D01*
X-36192506Y-70614940D01*
X-36156044Y-70556132D01*
X-36133356Y-70492828D01*
X-36124227Y-70427245D01*
X-36128444Y-70361602D01*
X-36145791Y-70298117D01*
X-36176055Y-70239009D01*
X-36219021Y-70186494D01*
X-36274475Y-70142791D01*
X-36294750Y-70131069D01*
X-36361433Y-70104478D01*
X-36430320Y-70093281D01*
X-36499004Y-70096755D01*
X-36565075Y-70114181D01*
X-36626127Y-70144840D01*
X-36679752Y-70188010D01*
X-36723541Y-70242972D01*
X-36734977Y-70262732D01*
X-36762422Y-70331219D01*
X-36773904Y-70401278D01*
X-36769990Y-70470811D01*
X-36751247Y-70537719D01*
X-36718242Y-70599903D01*
X-36671543Y-70655265D01*
X-36617276Y-70698173D01*
X-36594960Y-70714235D01*
X-36579972Y-70728092D01*
X-36576000Y-70734945D01*
X-36579133Y-70745493D01*
X-36587880Y-70769135D01*
X-36601258Y-70803371D01*
X-36618286Y-70845699D01*
X-36637983Y-70893617D01*
X-36642705Y-70904969D01*
X-36665943Y-70960830D01*
X-36689738Y-71018253D01*
X-36712284Y-71072859D01*
X-36731772Y-71120268D01*
X-36745486Y-71153866D01*
X-36760667Y-71190461D01*
X-36774239Y-71221696D01*
X-36784583Y-71243932D01*
X-36789641Y-71253057D01*
X-36797980Y-71256536D01*
X-36814149Y-71252928D01*
X-36840805Y-71241460D01*
X-36857094Y-71233447D01*
X-36886353Y-71219744D01*
X-36910346Y-71210394D01*
X-36924720Y-71207048D01*
X-36926151Y-71207278D01*
X-36936130Y-71213149D01*
X-36957431Y-71226951D01*
X-36987462Y-71246965D01*
X-37023631Y-71271470D01*
X-37048157Y-71288271D01*
X-37086852Y-71314455D01*
X-37121132Y-71336841D01*
X-37148395Y-71353792D01*
X-37166041Y-71363674D01*
X-37171046Y-71365533D01*
X-37180162Y-71359794D01*
X-37199001Y-71343858D01*
X-37225459Y-71319646D01*
X-37257432Y-71289078D01*
X-37289439Y-71257465D01*
X-37324073Y-71222069D01*
X-37354090Y-71190083D01*
X-37377567Y-71163663D01*
X-37392580Y-71144967D01*
X-37397266Y-71136524D01*
X-37395879Y-71130083D01*
X-37391029Y-71119656D01*
X-37381683Y-71103636D01*
X-37366809Y-71080419D01*
X-37345374Y-71048397D01*
X-37316346Y-71005965D01*
X-37278691Y-70951517D01*
X-37273413Y-70943911D01*
X-37255647Y-70917084D01*
X-37242505Y-70894889D01*
X-37236432Y-70881511D01*
X-37236279Y-70880411D01*
X-37239185Y-70869201D01*
X-37247248Y-70845403D01*
X-37259347Y-70812155D01*
X-37274360Y-70772595D01*
X-37279926Y-70758273D01*
X-37295235Y-70718478D01*
X-37307476Y-70688450D01*
X-37319212Y-70666422D01*
X-37333006Y-70650625D01*
X-37351420Y-70639291D01*
X-37377017Y-70630653D01*
X-37412358Y-70622941D01*
X-37460008Y-70614389D01*
X-37498246Y-70607640D01*
X-37541948Y-70599609D01*
X-37579713Y-70592293D01*
X-37608398Y-70586330D01*
X-37624858Y-70582359D01*
X-37627363Y-70581442D01*
X-37629522Y-70572025D01*
X-37631409Y-70548345D01*
X-37632913Y-70513070D01*
X-37633924Y-70468871D01*
X-37634330Y-70418416D01*
X-37634333Y-70413470D01*
X-37634333Y-70249806D01*
X-37492516Y-70223201D01*
X-37444404Y-70213947D01*
X-37401159Y-70205202D01*
X-37365945Y-70197639D01*
X-37341927Y-70191931D01*
X-37333293Y-70189328D01*
X-37323226Y-70178783D01*
X-37309222Y-70155880D01*
X-37292858Y-70124238D01*
X-37275711Y-70087472D01*
X-37259355Y-70049199D01*
X-37245368Y-70013035D01*
X-37235326Y-69982596D01*
X-37230805Y-69961499D01*
X-37231240Y-69955193D01*
X-37237692Y-69943701D01*
X-37252069Y-69920950D01*
X-37272640Y-69889593D01*
X-37297672Y-69852280D01*
X-37316976Y-69823958D01*
X-37343679Y-69784395D01*
X-37366622Y-69749188D01*
X-37384205Y-69720891D01*
X-37394827Y-69702060D01*
X-37397266Y-69695784D01*
X-37391408Y-69685726D01*
X-37375420Y-69666603D01*
X-37351679Y-69640763D01*
X-37322565Y-69610555D01*
X-37290455Y-69578327D01*
X-37257729Y-69546429D01*
X-37226765Y-69517207D01*
X-37199941Y-69493010D01*
X-37179636Y-69476188D01*
X-37168229Y-69469087D01*
X-37167574Y-69469000D01*
X-37151317Y-69473912D01*
X-37133825Y-69484532D01*
X-37119823Y-69494670D01*
X-37094820Y-69512163D01*
X-37061859Y-69534904D01*
X-37023980Y-69560789D01*
X-37006135Y-69572906D01*
X-36898638Y-69645748D01*
X-36794469Y-69603081D01*
X-36755026Y-69586493D01*
X-36720988Y-69571368D01*
X-36695600Y-69559206D01*
X-36682104Y-69551508D01*
X-36681168Y-69550690D01*
X-36675687Y-69538413D01*
X-36668735Y-69513776D01*
X-36661470Y-69481147D01*
X-36658362Y-69464767D01*
X-36650020Y-69418286D01*
X-36640544Y-69365487D01*
X-36631791Y-69316717D01*
X-36630631Y-69310250D01*
X-36616574Y-69231933D01*
X-36282687Y-69231933D01*
X-36254418Y-69386450D01*
G36*
X-35458400Y-71674567D02*
X-35462633Y-71678800D01*
X-35466866Y-71674567D01*
X-35462633Y-71670333D01*
X-35458400Y-71674567D01*
X-35458400Y-71674567D01*
G37*
X-35458400Y-71674567D02*
X-35462633Y-71678800D01*
X-35466866Y-71674567D01*
X-35462633Y-71670333D01*
X-35458400Y-71674567D01*
G36*
X-35046991Y-71604548D02*
X-34999458Y-71615032D01*
X-34963497Y-71637846D01*
X-34939229Y-71672847D01*
X-34926773Y-71719890D01*
X-34925000Y-71750495D01*
X-34925000Y-71797333D01*
X-35022937Y-71797333D01*
X-35064793Y-71797433D01*
X-35092427Y-71798104D01*
X-35108549Y-71799906D01*
X-35115871Y-71803397D01*
X-35117103Y-71809137D01*
X-35115335Y-71816383D01*
X-35099608Y-71843918D01*
X-35073808Y-71860180D01*
X-35041381Y-71864094D01*
X-35005769Y-71854585D01*
X-35000751Y-71852134D01*
X-34982909Y-71844447D01*
X-34969476Y-71845653D01*
X-34952061Y-71856714D01*
X-34950448Y-71857903D01*
X-34934494Y-71870946D01*
X-34930830Y-71879995D01*
X-34937582Y-71890328D01*
X-34938547Y-71891402D01*
X-34970292Y-71914850D01*
X-35011381Y-71928516D01*
X-35056791Y-71931580D01*
X-35101499Y-71923224D01*
X-35111266Y-71919554D01*
X-35135302Y-71904294D01*
X-35157760Y-71881962D01*
X-35162066Y-71876161D01*
X-35172299Y-71859317D01*
X-35178606Y-71842263D01*
X-35181906Y-71820245D01*
X-35183121Y-71788509D01*
X-35183233Y-71766824D01*
X-35181891Y-71724982D01*
X-35119733Y-71724982D01*
X-35116684Y-71731844D01*
X-35105434Y-71735874D01*
X-35082827Y-71737722D01*
X-35056233Y-71738067D01*
X-35022931Y-71737438D01*
X-35003374Y-71735120D01*
X-34994407Y-71730462D01*
X-34992733Y-71724982D01*
X-34999793Y-71706932D01*
X-35017096Y-71688503D01*
X-35038832Y-71674698D01*
X-35056233Y-71670333D01*
X-35077207Y-71676408D01*
X-35098620Y-71691300D01*
X-35114662Y-71710006D01*
X-35119733Y-71724982D01*
X-35181891Y-71724982D01*
X-35181756Y-71720778D01*
X-35176055Y-71687185D01*
X-35164227Y-71661725D01*
X-35144369Y-71640077D01*
X-35118955Y-71620896D01*
X-35096205Y-71608330D01*
X-35072425Y-71603755D01*
X-35046991Y-71604548D01*
X-35046991Y-71604548D01*
G37*
X-35046991Y-71604548D02*
X-34999458Y-71615032D01*
X-34963497Y-71637846D01*
X-34939229Y-71672847D01*
X-34926773Y-71719890D01*
X-34925000Y-71750495D01*
X-34925000Y-71797333D01*
X-35022937Y-71797333D01*
X-35064793Y-71797433D01*
X-35092427Y-71798104D01*
X-35108549Y-71799906D01*
X-35115871Y-71803397D01*
X-35117103Y-71809137D01*
X-35115335Y-71816383D01*
X-35099608Y-71843918D01*
X-35073808Y-71860180D01*
X-35041381Y-71864094D01*
X-35005769Y-71854585D01*
X-35000751Y-71852134D01*
X-34982909Y-71844447D01*
X-34969476Y-71845653D01*
X-34952061Y-71856714D01*
X-34950448Y-71857903D01*
X-34934494Y-71870946D01*
X-34930830Y-71879995D01*
X-34937582Y-71890328D01*
X-34938547Y-71891402D01*
X-34970292Y-71914850D01*
X-35011381Y-71928516D01*
X-35056791Y-71931580D01*
X-35101499Y-71923224D01*
X-35111266Y-71919554D01*
X-35135302Y-71904294D01*
X-35157760Y-71881962D01*
X-35162066Y-71876161D01*
X-35172299Y-71859317D01*
X-35178606Y-71842263D01*
X-35181906Y-71820245D01*
X-35183121Y-71788509D01*
X-35183233Y-71766824D01*
X-35181891Y-71724982D01*
X-35119733Y-71724982D01*
X-35116684Y-71731844D01*
X-35105434Y-71735874D01*
X-35082827Y-71737722D01*
X-35056233Y-71738067D01*
X-35022931Y-71737438D01*
X-35003374Y-71735120D01*
X-34994407Y-71730462D01*
X-34992733Y-71724982D01*
X-34999793Y-71706932D01*
X-35017096Y-71688503D01*
X-35038832Y-71674698D01*
X-35056233Y-71670333D01*
X-35077207Y-71676408D01*
X-35098620Y-71691300D01*
X-35114662Y-71710006D01*
X-35119733Y-71724982D01*
X-35181891Y-71724982D01*
X-35181756Y-71720778D01*
X-35176055Y-71687185D01*
X-35164227Y-71661725D01*
X-35144369Y-71640077D01*
X-35118955Y-71620896D01*
X-35096205Y-71608330D01*
X-35072425Y-71603755D01*
X-35046991Y-71604548D01*
G36*
X-35291757Y-71605196D02*
X-35250943Y-71618569D01*
X-35217614Y-71644086D01*
X-35207244Y-71657114D01*
X-35207197Y-71666601D01*
X-35218250Y-71679553D01*
X-35221966Y-71683281D01*
X-35242737Y-71704052D01*
X-35277632Y-71686788D01*
X-35314859Y-71675341D01*
X-35346538Y-71679187D01*
X-35370898Y-71697111D01*
X-35386163Y-71727899D01*
X-35390666Y-71764210D01*
X-35387226Y-71805397D01*
X-35375927Y-71833565D01*
X-35355300Y-71851377D01*
X-35339038Y-71857848D01*
X-35316151Y-71862859D01*
X-35297798Y-71860137D01*
X-35275543Y-71848769D01*
X-35243954Y-71830131D01*
X-35222574Y-71851511D01*
X-35208853Y-71866283D01*
X-35206321Y-71875910D01*
X-35214124Y-71887153D01*
X-35217594Y-71891012D01*
X-35251392Y-71916542D01*
X-35293391Y-71930574D01*
X-35338456Y-71932048D01*
X-35373729Y-71923288D01*
X-35413710Y-71898961D01*
X-35441727Y-71862736D01*
X-35457671Y-71814805D01*
X-35461660Y-71767700D01*
X-35458280Y-71719080D01*
X-35447022Y-71681630D01*
X-35426214Y-71650761D01*
X-35414754Y-71639147D01*
X-35378091Y-71615374D01*
X-35335616Y-71604094D01*
X-35291757Y-71605196D01*
X-35291757Y-71605196D01*
G37*
X-35291757Y-71605196D02*
X-35250943Y-71618569D01*
X-35217614Y-71644086D01*
X-35207244Y-71657114D01*
X-35207197Y-71666601D01*
X-35218250Y-71679553D01*
X-35221966Y-71683281D01*
X-35242737Y-71704052D01*
X-35277632Y-71686788D01*
X-35314859Y-71675341D01*
X-35346538Y-71679187D01*
X-35370898Y-71697111D01*
X-35386163Y-71727899D01*
X-35390666Y-71764210D01*
X-35387226Y-71805397D01*
X-35375927Y-71833565D01*
X-35355300Y-71851377D01*
X-35339038Y-71857848D01*
X-35316151Y-71862859D01*
X-35297798Y-71860137D01*
X-35275543Y-71848769D01*
X-35243954Y-71830131D01*
X-35222574Y-71851511D01*
X-35208853Y-71866283D01*
X-35206321Y-71875910D01*
X-35214124Y-71887153D01*
X-35217594Y-71891012D01*
X-35251392Y-71916542D01*
X-35293391Y-71930574D01*
X-35338456Y-71932048D01*
X-35373729Y-71923288D01*
X-35413710Y-71898961D01*
X-35441727Y-71862736D01*
X-35457671Y-71814805D01*
X-35461660Y-71767700D01*
X-35458280Y-71719080D01*
X-35447022Y-71681630D01*
X-35426214Y-71650761D01*
X-35414754Y-71639147D01*
X-35378091Y-71615374D01*
X-35335616Y-71604094D01*
X-35291757Y-71605196D01*
G36*
X-35614194Y-71603917D02*
X-35604437Y-71609518D01*
X-35602333Y-71620845D01*
X-35601542Y-71633167D01*
X-35596329Y-71633078D01*
X-35584511Y-71622962D01*
X-35563896Y-71612546D01*
X-35534756Y-71607103D01*
X-35503584Y-71606816D01*
X-35476869Y-71611870D01*
X-35463404Y-71619533D01*
X-35456883Y-71629019D01*
X-35458987Y-71639781D01*
X-35471087Y-71656816D01*
X-35474908Y-71661516D01*
X-35490803Y-71679295D01*
X-35502448Y-71685711D01*
X-35515509Y-71683130D01*
X-35520973Y-71680763D01*
X-35549609Y-71675803D01*
X-35576203Y-71684911D01*
X-35593785Y-71704048D01*
X-35597878Y-71720821D01*
X-35600623Y-71751693D01*
X-35601836Y-71793867D01*
X-35601729Y-71825103D01*
X-35600258Y-71928567D01*
X-35670066Y-71933773D01*
X-35670066Y-71602600D01*
X-35636200Y-71602600D01*
X-35614194Y-71603917D01*
X-35614194Y-71603917D01*
G37*
X-35614194Y-71603917D02*
X-35604437Y-71609518D01*
X-35602333Y-71620845D01*
X-35601542Y-71633167D01*
X-35596329Y-71633078D01*
X-35584511Y-71622962D01*
X-35563896Y-71612546D01*
X-35534756Y-71607103D01*
X-35503584Y-71606816D01*
X-35476869Y-71611870D01*
X-35463404Y-71619533D01*
X-35456883Y-71629019D01*
X-35458987Y-71639781D01*
X-35471087Y-71656816D01*
X-35474908Y-71661516D01*
X-35490803Y-71679295D01*
X-35502448Y-71685711D01*
X-35515509Y-71683130D01*
X-35520973Y-71680763D01*
X-35549609Y-71675803D01*
X-35576203Y-71684911D01*
X-35593785Y-71704048D01*
X-35597878Y-71720821D01*
X-35600623Y-71751693D01*
X-35601836Y-71793867D01*
X-35601729Y-71825103D01*
X-35600258Y-71928567D01*
X-35670066Y-71933773D01*
X-35670066Y-71602600D01*
X-35636200Y-71602600D01*
X-35614194Y-71603917D01*
G36*
X-35771218Y-71604230D02*
X-35736903Y-71606833D01*
X-35736903Y-71928567D01*
X-35771218Y-71931170D01*
X-35793981Y-71931381D01*
X-35804028Y-71926609D01*
X-35805533Y-71920369D01*
X-35807150Y-71912092D01*
X-35814993Y-71912485D01*
X-35830513Y-71919882D01*
X-35865368Y-71930553D01*
X-35903543Y-71930984D01*
X-35937239Y-71921270D01*
X-35942077Y-71918544D01*
X-35961550Y-71904412D01*
X-35975758Y-71887922D01*
X-35985495Y-71866280D01*
X-35991559Y-71836692D01*
X-35994743Y-71796366D01*
X-35995844Y-71742507D01*
X-35995885Y-71729600D01*
X-35996033Y-71606833D01*
X-35960050Y-71604230D01*
X-35924066Y-71601626D01*
X-35924066Y-71712565D01*
X-35923912Y-71757984D01*
X-35923107Y-71789708D01*
X-35921142Y-71810974D01*
X-35917505Y-71825019D01*
X-35911686Y-71835080D01*
X-35903285Y-71844285D01*
X-35884070Y-71858600D01*
X-35865747Y-71865039D01*
X-35864800Y-71865067D01*
X-35846854Y-71859315D01*
X-35827418Y-71845364D01*
X-35826315Y-71844285D01*
X-35817836Y-71834979D01*
X-35812044Y-71824892D01*
X-35808428Y-71810786D01*
X-35806478Y-71789422D01*
X-35805684Y-71757565D01*
X-35805533Y-71712565D01*
X-35805533Y-71601626D01*
X-35771218Y-71604230D01*
X-35771218Y-71604230D01*
G37*
X-35771218Y-71604230D02*
X-35736903Y-71606833D01*
X-35736903Y-71928567D01*
X-35771218Y-71931170D01*
X-35793981Y-71931381D01*
X-35804028Y-71926609D01*
X-35805533Y-71920369D01*
X-35807150Y-71912092D01*
X-35814993Y-71912485D01*
X-35830513Y-71919882D01*
X-35865368Y-71930553D01*
X-35903543Y-71930984D01*
X-35937239Y-71921270D01*
X-35942077Y-71918544D01*
X-35961550Y-71904412D01*
X-35975758Y-71887922D01*
X-35985495Y-71866280D01*
X-35991559Y-71836692D01*
X-35994743Y-71796366D01*
X-35995844Y-71742507D01*
X-35995885Y-71729600D01*
X-35996033Y-71606833D01*
X-35960050Y-71604230D01*
X-35924066Y-71601626D01*
X-35924066Y-71712565D01*
X-35923912Y-71757984D01*
X-35923107Y-71789708D01*
X-35921142Y-71810974D01*
X-35917505Y-71825019D01*
X-35911686Y-71835080D01*
X-35903285Y-71844285D01*
X-35884070Y-71858600D01*
X-35865747Y-71865039D01*
X-35864800Y-71865067D01*
X-35846854Y-71859315D01*
X-35827418Y-71845364D01*
X-35826315Y-71844285D01*
X-35817836Y-71834979D01*
X-35812044Y-71824892D01*
X-35808428Y-71810786D01*
X-35806478Y-71789422D01*
X-35805684Y-71757565D01*
X-35805533Y-71712565D01*
X-35805533Y-71601626D01*
X-35771218Y-71604230D01*
G36*
X-36173834Y-71604098D02*
X-36167389Y-71604514D01*
X-36136407Y-71608203D01*
X-36114787Y-71615992D01*
X-36094986Y-71630974D01*
X-36088909Y-71636716D01*
X-36063181Y-71669803D01*
X-36048354Y-71710035D01*
X-36043582Y-71760344D01*
X-36044702Y-71790178D01*
X-36054000Y-71844423D01*
X-36073405Y-71885342D01*
X-36103145Y-71913363D01*
X-36113863Y-71919198D01*
X-36154891Y-71931173D01*
X-36197753Y-71931179D01*
X-36236194Y-71919476D01*
X-36245886Y-71913750D01*
X-36273818Y-71892364D01*
X-36292284Y-71870679D01*
X-36303124Y-71844456D01*
X-36308177Y-71809456D01*
X-36309280Y-71768398D01*
X-36237333Y-71768398D01*
X-36236792Y-71801013D01*
X-36234267Y-71821498D01*
X-36228409Y-71834644D01*
X-36217865Y-71845243D01*
X-36215025Y-71847519D01*
X-36192712Y-71861687D01*
X-36172714Y-71863645D01*
X-36148994Y-71855315D01*
X-36131141Y-71842468D01*
X-36122497Y-71829511D01*
X-36118250Y-71804942D01*
X-36117138Y-71772940D01*
X-36118927Y-71740383D01*
X-36123386Y-71714149D01*
X-36126681Y-71705294D01*
X-36144481Y-71686159D01*
X-36169125Y-71675358D01*
X-36192810Y-71676091D01*
X-36214731Y-71686641D01*
X-36228223Y-71701861D01*
X-36235131Y-71725578D01*
X-36237302Y-71761619D01*
X-36237333Y-71768398D01*
X-36309280Y-71768398D01*
X-36309300Y-71767683D01*
X-36307862Y-71721502D01*
X-36302296Y-71687818D01*
X-36290727Y-71662345D01*
X-36271275Y-71640796D01*
X-36245021Y-71620901D01*
X-36224382Y-71609136D01*
X-36203101Y-71604052D01*
X-36173834Y-71604098D01*
X-36173834Y-71604098D01*
G37*
X-36173834Y-71604098D02*
X-36167389Y-71604514D01*
X-36136407Y-71608203D01*
X-36114787Y-71615992D01*
X-36094986Y-71630974D01*
X-36088909Y-71636716D01*
X-36063181Y-71669803D01*
X-36048354Y-71710035D01*
X-36043582Y-71760344D01*
X-36044702Y-71790178D01*
X-36054000Y-71844423D01*
X-36073405Y-71885342D01*
X-36103145Y-71913363D01*
X-36113863Y-71919198D01*
X-36154891Y-71931173D01*
X-36197753Y-71931179D01*
X-36236194Y-71919476D01*
X-36245886Y-71913750D01*
X-36273818Y-71892364D01*
X-36292284Y-71870679D01*
X-36303124Y-71844456D01*
X-36308177Y-71809456D01*
X-36309280Y-71768398D01*
X-36237333Y-71768398D01*
X-36236792Y-71801013D01*
X-36234267Y-71821498D01*
X-36228409Y-71834644D01*
X-36217865Y-71845243D01*
X-36215025Y-71847519D01*
X-36192712Y-71861687D01*
X-36172714Y-71863645D01*
X-36148994Y-71855315D01*
X-36131141Y-71842468D01*
X-36122497Y-71829511D01*
X-36118250Y-71804942D01*
X-36117138Y-71772940D01*
X-36118927Y-71740383D01*
X-36123386Y-71714149D01*
X-36126681Y-71705294D01*
X-36144481Y-71686159D01*
X-36169125Y-71675358D01*
X-36192810Y-71676091D01*
X-36214731Y-71686641D01*
X-36228223Y-71701861D01*
X-36235131Y-71725578D01*
X-36237302Y-71761619D01*
X-36237333Y-71768398D01*
X-36309280Y-71768398D01*
X-36309300Y-71767683D01*
X-36307862Y-71721502D01*
X-36302296Y-71687818D01*
X-36290727Y-71662345D01*
X-36271275Y-71640796D01*
X-36245021Y-71620901D01*
X-36224382Y-71609136D01*
X-36203101Y-71604052D01*
X-36173834Y-71604098D01*
G36*
X-36417603Y-71610030D02*
X-36377372Y-71626989D01*
X-36366052Y-71634773D01*
X-36346604Y-71649840D01*
X-36367814Y-71674524D01*
X-36389024Y-71699207D01*
X-36419299Y-71684770D01*
X-36454244Y-71672816D01*
X-36485311Y-71670710D01*
X-36509328Y-71677835D01*
X-36523120Y-71693577D01*
X-36525200Y-71705323D01*
X-36523085Y-71714829D01*
X-36514709Y-71721599D01*
X-36497026Y-71726738D01*
X-36466989Y-71731352D01*
X-36446796Y-71733760D01*
X-36401446Y-71744928D01*
X-36367996Y-71765734D01*
X-36347645Y-71794497D01*
X-36341593Y-71829538D01*
X-36350693Y-71868355D01*
X-36371190Y-71896821D01*
X-36403407Y-71917636D01*
X-36443534Y-71929900D01*
X-36487763Y-71932711D01*
X-36532284Y-71925170D01*
X-36554833Y-71916605D01*
X-36580228Y-71903538D01*
X-36601548Y-71890587D01*
X-36605633Y-71887627D01*
X-36615941Y-71878460D01*
X-36616454Y-71870426D01*
X-36606246Y-71858008D01*
X-36599517Y-71851146D01*
X-36576467Y-71827819D01*
X-36543331Y-71846443D01*
X-36511711Y-71859352D01*
X-36479695Y-71864469D01*
X-36450850Y-71862358D01*
X-36428740Y-71853581D01*
X-36416932Y-71838701D01*
X-36416395Y-71826407D01*
X-36423149Y-71815148D01*
X-36440639Y-71807451D01*
X-36461766Y-71803096D01*
X-36507389Y-71794776D01*
X-36539484Y-71786459D01*
X-36561400Y-71776773D01*
X-36576486Y-71764344D01*
X-36585316Y-71752422D01*
X-36597325Y-71719689D01*
X-36597237Y-71683962D01*
X-36585449Y-71651960D01*
X-36578834Y-71643107D01*
X-36547826Y-71620068D01*
X-36507503Y-71606753D01*
X-36462537Y-71603346D01*
X-36417603Y-71610030D01*
X-36417603Y-71610030D01*
G37*
X-36417603Y-71610030D02*
X-36377372Y-71626989D01*
X-36366052Y-71634773D01*
X-36346604Y-71649840D01*
X-36367814Y-71674524D01*
X-36389024Y-71699207D01*
X-36419299Y-71684770D01*
X-36454244Y-71672816D01*
X-36485311Y-71670710D01*
X-36509328Y-71677835D01*
X-36523120Y-71693577D01*
X-36525200Y-71705323D01*
X-36523085Y-71714829D01*
X-36514709Y-71721599D01*
X-36497026Y-71726738D01*
X-36466989Y-71731352D01*
X-36446796Y-71733760D01*
X-36401446Y-71744928D01*
X-36367996Y-71765734D01*
X-36347645Y-71794497D01*
X-36341593Y-71829538D01*
X-36350693Y-71868355D01*
X-36371190Y-71896821D01*
X-36403407Y-71917636D01*
X-36443534Y-71929900D01*
X-36487763Y-71932711D01*
X-36532284Y-71925170D01*
X-36554833Y-71916605D01*
X-36580228Y-71903538D01*
X-36601548Y-71890587D01*
X-36605633Y-71887627D01*
X-36615941Y-71878460D01*
X-36616454Y-71870426D01*
X-36606246Y-71858008D01*
X-36599517Y-71851146D01*
X-36576467Y-71827819D01*
X-36543331Y-71846443D01*
X-36511711Y-71859352D01*
X-36479695Y-71864469D01*
X-36450850Y-71862358D01*
X-36428740Y-71853581D01*
X-36416932Y-71838701D01*
X-36416395Y-71826407D01*
X-36423149Y-71815148D01*
X-36440639Y-71807451D01*
X-36461766Y-71803096D01*
X-36507389Y-71794776D01*
X-36539484Y-71786459D01*
X-36561400Y-71776773D01*
X-36576486Y-71764344D01*
X-36585316Y-71752422D01*
X-36597325Y-71719689D01*
X-36597237Y-71683962D01*
X-36585449Y-71651960D01*
X-36578834Y-71643107D01*
X-36547826Y-71620068D01*
X-36507503Y-71606753D01*
X-36462537Y-71603346D01*
X-36417603Y-71610030D01*
G36*
X-36867660Y-71607543D02*
X-36840994Y-71619190D01*
X-36822127Y-71632564D01*
X-36808296Y-71648130D01*
X-36798706Y-71668666D01*
X-36792558Y-71696946D01*
X-36789056Y-71735746D01*
X-36787402Y-71787843D01*
X-36787145Y-71806702D01*
X-36785802Y-71928567D01*
X-36855400Y-71933773D01*
X-36855400Y-71824158D01*
X-36856248Y-71770058D01*
X-36859376Y-71730641D01*
X-36865662Y-71703718D01*
X-36875980Y-71687096D01*
X-36891207Y-71678586D01*
X-36912221Y-71675995D01*
X-36914666Y-71675978D01*
X-36936339Y-71678111D01*
X-36952121Y-71685975D01*
X-36962890Y-71701760D01*
X-36969528Y-71727659D01*
X-36972914Y-71765865D01*
X-36973928Y-71818570D01*
X-36973933Y-71823671D01*
X-36973933Y-71932800D01*
X-37008066Y-71932800D01*
X-37031950Y-71930240D01*
X-37045416Y-71923568D01*
X-37046368Y-71921932D01*
X-37047588Y-71910286D01*
X-37048406Y-71884645D01*
X-37048791Y-71847942D01*
X-37048709Y-71803112D01*
X-37048219Y-71758949D01*
X-37045900Y-71606833D01*
X-37014082Y-71604201D01*
X-36989684Y-71604929D01*
X-36978024Y-71612913D01*
X-36977273Y-71614575D01*
X-36971977Y-71622636D01*
X-36962032Y-71621681D01*
X-36948128Y-71615090D01*
X-36908646Y-71603689D01*
X-36867660Y-71607543D01*
X-36867660Y-71607543D01*
G37*
X-36867660Y-71607543D02*
X-36840994Y-71619190D01*
X-36822127Y-71632564D01*
X-36808296Y-71648130D01*
X-36798706Y-71668666D01*
X-36792558Y-71696946D01*
X-36789056Y-71735746D01*
X-36787402Y-71787843D01*
X-36787145Y-71806702D01*
X-36785802Y-71928567D01*
X-36855400Y-71933773D01*
X-36855400Y-71824158D01*
X-36856248Y-71770058D01*
X-36859376Y-71730641D01*
X-36865662Y-71703718D01*
X-36875980Y-71687096D01*
X-36891207Y-71678586D01*
X-36912221Y-71675995D01*
X-36914666Y-71675978D01*
X-36936339Y-71678111D01*
X-36952121Y-71685975D01*
X-36962890Y-71701760D01*
X-36969528Y-71727659D01*
X-36972914Y-71765865D01*
X-36973928Y-71818570D01*
X-36973933Y-71823671D01*
X-36973933Y-71932800D01*
X-37008066Y-71932800D01*
X-37031950Y-71930240D01*
X-37045416Y-71923568D01*
X-37046368Y-71921932D01*
X-37047588Y-71910286D01*
X-37048406Y-71884645D01*
X-37048791Y-71847942D01*
X-37048709Y-71803112D01*
X-37048219Y-71758949D01*
X-37045900Y-71606833D01*
X-37014082Y-71604201D01*
X-36989684Y-71604929D01*
X-36978024Y-71612913D01*
X-36977273Y-71614575D01*
X-36971977Y-71622636D01*
X-36962032Y-71621681D01*
X-36948128Y-71615090D01*
X-36908646Y-71603689D01*
X-36867660Y-71607543D01*
G36*
X-37179406Y-71613227D02*
X-37141813Y-71632479D01*
X-37115048Y-71664697D01*
X-37099003Y-71709989D01*
X-37094647Y-71741282D01*
X-37090148Y-71797333D01*
X-37295247Y-71797333D01*
X-37286657Y-71819927D01*
X-37275110Y-71840861D01*
X-37263584Y-71853524D01*
X-37240289Y-71862634D01*
X-37210212Y-71863964D01*
X-37181535Y-71857661D01*
X-37170482Y-71851839D01*
X-37156563Y-71843980D01*
X-37144480Y-71845179D01*
X-37126840Y-71856239D01*
X-37126265Y-71856648D01*
X-37109689Y-71869881D01*
X-37101261Y-71879407D01*
X-37100991Y-71880460D01*
X-37107393Y-71888312D01*
X-37123437Y-71901273D01*
X-37131628Y-71907063D01*
X-37168760Y-71924426D01*
X-37211415Y-71932200D01*
X-37253678Y-71930116D01*
X-37289637Y-71917909D01*
X-37295209Y-71914463D01*
X-37325635Y-71888606D01*
X-37345365Y-71857912D01*
X-37356006Y-71818691D01*
X-37359166Y-71767700D01*
X-37355238Y-71721133D01*
X-37287200Y-71721133D01*
X-37285601Y-71730032D01*
X-37278390Y-71735130D01*
X-37261947Y-71737462D01*
X-37232651Y-71738062D01*
X-37227933Y-71738067D01*
X-37196787Y-71737610D01*
X-37178943Y-71735549D01*
X-37170782Y-71730851D01*
X-37168683Y-71722481D01*
X-37168667Y-71721133D01*
X-37176237Y-71698745D01*
X-37195380Y-71680452D01*
X-37220740Y-71670843D01*
X-37227933Y-71670333D01*
X-37254052Y-71676822D01*
X-37275394Y-71693230D01*
X-37286605Y-71714968D01*
X-37287200Y-71721133D01*
X-37355238Y-71721133D01*
X-37354243Y-71709339D01*
X-37339267Y-71664450D01*
X-37313933Y-71632657D01*
X-37277932Y-71613583D01*
X-37230959Y-71606853D01*
X-37227933Y-71606833D01*
X-37179406Y-71613227D01*
X-37179406Y-71613227D01*
G37*
X-37179406Y-71613227D02*
X-37141813Y-71632479D01*
X-37115048Y-71664697D01*
X-37099003Y-71709989D01*
X-37094647Y-71741282D01*
X-37090148Y-71797333D01*
X-37295247Y-71797333D01*
X-37286657Y-71819927D01*
X-37275110Y-71840861D01*
X-37263584Y-71853524D01*
X-37240289Y-71862634D01*
X-37210212Y-71863964D01*
X-37181535Y-71857661D01*
X-37170482Y-71851839D01*
X-37156563Y-71843980D01*
X-37144480Y-71845179D01*
X-37126840Y-71856239D01*
X-37126265Y-71856648D01*
X-37109689Y-71869881D01*
X-37101261Y-71879407D01*
X-37100991Y-71880460D01*
X-37107393Y-71888312D01*
X-37123437Y-71901273D01*
X-37131628Y-71907063D01*
X-37168760Y-71924426D01*
X-37211415Y-71932200D01*
X-37253678Y-71930116D01*
X-37289637Y-71917909D01*
X-37295209Y-71914463D01*
X-37325635Y-71888606D01*
X-37345365Y-71857912D01*
X-37356006Y-71818691D01*
X-37359166Y-71767700D01*
X-37355238Y-71721133D01*
X-37287200Y-71721133D01*
X-37285601Y-71730032D01*
X-37278390Y-71735130D01*
X-37261947Y-71737462D01*
X-37232651Y-71738062D01*
X-37227933Y-71738067D01*
X-37196787Y-71737610D01*
X-37178943Y-71735549D01*
X-37170782Y-71730851D01*
X-37168683Y-71722481D01*
X-37168667Y-71721133D01*
X-37176237Y-71698745D01*
X-37195380Y-71680452D01*
X-37220740Y-71670843D01*
X-37227933Y-71670333D01*
X-37254052Y-71676822D01*
X-37275394Y-71693230D01*
X-37286605Y-71714968D01*
X-37287200Y-71721133D01*
X-37355238Y-71721133D01*
X-37354243Y-71709339D01*
X-37339267Y-71664450D01*
X-37313933Y-71632657D01*
X-37277932Y-71613583D01*
X-37230959Y-71606853D01*
X-37227933Y-71606833D01*
X-37179406Y-71613227D01*
G36*
X-37820028Y-71605313D02*
X-37780385Y-71617933D01*
X-37745940Y-71642825D01*
X-37731183Y-71660809D01*
X-37721099Y-71677656D01*
X-37714923Y-71695064D01*
X-37711732Y-71717824D01*
X-37710610Y-71750729D01*
X-37710533Y-71768413D01*
X-37711131Y-71807399D01*
X-37713492Y-71834190D01*
X-37718474Y-71853500D01*
X-37726929Y-71870043D01*
X-37729752Y-71874398D01*
X-37759644Y-71905116D01*
X-37798417Y-71924984D01*
X-37841445Y-71932946D01*
X-37884104Y-71927947D01*
X-37911694Y-71915912D01*
X-37940001Y-71893980D01*
X-37958641Y-71866888D01*
X-37969105Y-71831162D01*
X-37972883Y-71783331D01*
X-37972968Y-71773213D01*
X-37972477Y-71762359D01*
X-37905267Y-71762359D01*
X-37901495Y-71807853D01*
X-37890016Y-71838786D01*
X-37870587Y-71855795D01*
X-37869406Y-71856290D01*
X-37849976Y-71863108D01*
X-37836121Y-71862974D01*
X-37817920Y-71855767D01*
X-37817699Y-71855666D01*
X-37794323Y-71835973D01*
X-37781291Y-71803050D01*
X-37778382Y-71769418D01*
X-37780677Y-71731181D01*
X-37788269Y-71705616D01*
X-37802667Y-71688890D01*
X-37812449Y-71682870D01*
X-37835719Y-71675199D01*
X-37860046Y-71679082D01*
X-37862352Y-71679866D01*
X-37885169Y-71691807D01*
X-37898566Y-71710480D01*
X-37904489Y-71739625D01*
X-37905267Y-71762359D01*
X-37972477Y-71762359D01*
X-37970605Y-71721042D01*
X-37963354Y-71683983D01*
X-37959256Y-71673563D01*
X-37934484Y-71639090D01*
X-37900644Y-71616091D01*
X-37861304Y-71604765D01*
X-37820028Y-71605313D01*
X-37820028Y-71605313D01*
G37*
X-37820028Y-71605313D02*
X-37780385Y-71617933D01*
X-37745940Y-71642825D01*
X-37731183Y-71660809D01*
X-37721099Y-71677656D01*
X-37714923Y-71695064D01*
X-37711732Y-71717824D01*
X-37710610Y-71750729D01*
X-37710533Y-71768413D01*
X-37711131Y-71807399D01*
X-37713492Y-71834190D01*
X-37718474Y-71853500D01*
X-37726929Y-71870043D01*
X-37729752Y-71874398D01*
X-37759644Y-71905116D01*
X-37798417Y-71924984D01*
X-37841445Y-71932946D01*
X-37884104Y-71927947D01*
X-37911694Y-71915912D01*
X-37940001Y-71893980D01*
X-37958641Y-71866888D01*
X-37969105Y-71831162D01*
X-37972883Y-71783331D01*
X-37972968Y-71773213D01*
X-37972477Y-71762359D01*
X-37905267Y-71762359D01*
X-37901495Y-71807853D01*
X-37890016Y-71838786D01*
X-37870587Y-71855795D01*
X-37869406Y-71856290D01*
X-37849976Y-71863108D01*
X-37836121Y-71862974D01*
X-37817920Y-71855767D01*
X-37817699Y-71855666D01*
X-37794323Y-71835973D01*
X-37781291Y-71803050D01*
X-37778382Y-71769418D01*
X-37780677Y-71731181D01*
X-37788269Y-71705616D01*
X-37802667Y-71688890D01*
X-37812449Y-71682870D01*
X-37835719Y-71675199D01*
X-37860046Y-71679082D01*
X-37862352Y-71679866D01*
X-37885169Y-71691807D01*
X-37898566Y-71710480D01*
X-37904489Y-71739625D01*
X-37905267Y-71762359D01*
X-37972477Y-71762359D01*
X-37970605Y-71721042D01*
X-37963354Y-71683983D01*
X-37959256Y-71673563D01*
X-37934484Y-71639090D01*
X-37900644Y-71616091D01*
X-37861304Y-71604765D01*
X-37820028Y-71605313D01*
G36*
X-37338000Y-72419633D02*
X-37342233Y-72423866D01*
X-37346466Y-72419633D01*
X-37342233Y-72415400D01*
X-37338000Y-72419633D01*
X-37338000Y-72419633D01*
G37*
X-37338000Y-72419633D02*
X-37342233Y-72423866D01*
X-37346466Y-72419633D01*
X-37342233Y-72415400D01*
X-37338000Y-72419633D01*
G36*
X-35368921Y-72109611D02*
X-35342225Y-72120237D01*
X-35307152Y-72143603D01*
X-35283742Y-72174433D01*
X-35270107Y-72215844D01*
X-35265917Y-72246114D01*
X-35261315Y-72296867D01*
X-35364661Y-72296867D01*
X-35407868Y-72296955D01*
X-35436790Y-72297565D01*
X-35454074Y-72299211D01*
X-35462369Y-72302410D01*
X-35464322Y-72307677D01*
X-35462581Y-72315529D01*
X-35462468Y-72315917D01*
X-35447052Y-72341598D01*
X-35421279Y-72358463D01*
X-35390034Y-72365080D01*
X-35358198Y-72360016D01*
X-35341643Y-72351345D01*
X-35327911Y-72343552D01*
X-35316266Y-72344874D01*
X-35299617Y-72356339D01*
X-35297894Y-72357695D01*
X-35281643Y-72371517D01*
X-35273001Y-72380784D01*
X-35272602Y-72381758D01*
X-35278792Y-72388501D01*
X-35295122Y-72400811D01*
X-35307695Y-72409275D01*
X-35335717Y-72424313D01*
X-35363950Y-72430883D01*
X-35390245Y-72431796D01*
X-35419808Y-72430249D01*
X-35444498Y-72426867D01*
X-35454166Y-72424210D01*
X-35487603Y-72401498D01*
X-35513168Y-72366006D01*
X-35529323Y-72320657D01*
X-35534553Y-72271522D01*
X-35530840Y-72237600D01*
X-35465986Y-72237600D01*
X-35402926Y-72237600D01*
X-35369757Y-72236964D01*
X-35350326Y-72234620D01*
X-35341470Y-72229911D01*
X-35339866Y-72224515D01*
X-35345490Y-72209964D01*
X-35359174Y-72192155D01*
X-35360648Y-72190648D01*
X-35387607Y-72173165D01*
X-35415034Y-72171120D01*
X-35439194Y-72183686D01*
X-35456348Y-72210033D01*
X-35457069Y-72212021D01*
X-35465986Y-72237600D01*
X-35530840Y-72237600D01*
X-35528505Y-72216274D01*
X-35511618Y-72170588D01*
X-35485554Y-72135771D01*
X-35451975Y-72113131D01*
X-35412543Y-72103975D01*
X-35368921Y-72109611D01*
X-35368921Y-72109611D01*
G37*
X-35368921Y-72109611D02*
X-35342225Y-72120237D01*
X-35307152Y-72143603D01*
X-35283742Y-72174433D01*
X-35270107Y-72215844D01*
X-35265917Y-72246114D01*
X-35261315Y-72296867D01*
X-35364661Y-72296867D01*
X-35407868Y-72296955D01*
X-35436790Y-72297565D01*
X-35454074Y-72299211D01*
X-35462369Y-72302410D01*
X-35464322Y-72307677D01*
X-35462581Y-72315529D01*
X-35462468Y-72315917D01*
X-35447052Y-72341598D01*
X-35421279Y-72358463D01*
X-35390034Y-72365080D01*
X-35358198Y-72360016D01*
X-35341643Y-72351345D01*
X-35327911Y-72343552D01*
X-35316266Y-72344874D01*
X-35299617Y-72356339D01*
X-35297894Y-72357695D01*
X-35281643Y-72371517D01*
X-35273001Y-72380784D01*
X-35272602Y-72381758D01*
X-35278792Y-72388501D01*
X-35295122Y-72400811D01*
X-35307695Y-72409275D01*
X-35335717Y-72424313D01*
X-35363950Y-72430883D01*
X-35390245Y-72431796D01*
X-35419808Y-72430249D01*
X-35444498Y-72426867D01*
X-35454166Y-72424210D01*
X-35487603Y-72401498D01*
X-35513168Y-72366006D01*
X-35529323Y-72320657D01*
X-35534553Y-72271522D01*
X-35530840Y-72237600D01*
X-35465986Y-72237600D01*
X-35402926Y-72237600D01*
X-35369757Y-72236964D01*
X-35350326Y-72234620D01*
X-35341470Y-72229911D01*
X-35339866Y-72224515D01*
X-35345490Y-72209964D01*
X-35359174Y-72192155D01*
X-35360648Y-72190648D01*
X-35387607Y-72173165D01*
X-35415034Y-72171120D01*
X-35439194Y-72183686D01*
X-35456348Y-72210033D01*
X-35457069Y-72212021D01*
X-35465986Y-72237600D01*
X-35530840Y-72237600D01*
X-35528505Y-72216274D01*
X-35511618Y-72170588D01*
X-35485554Y-72135771D01*
X-35451975Y-72113131D01*
X-35412543Y-72103975D01*
X-35368921Y-72109611D01*
G36*
X-35564991Y-72110350D02*
X-35543408Y-72119339D01*
X-35536116Y-72129832D01*
X-35542138Y-72145879D01*
X-35552726Y-72161202D01*
X-35565427Y-72176040D01*
X-35578602Y-72182296D01*
X-35598982Y-72182265D01*
X-35610787Y-72180990D01*
X-35635028Y-72179591D01*
X-35652746Y-72183394D01*
X-35664939Y-72194511D01*
X-35672607Y-72215053D01*
X-35676748Y-72247131D01*
X-35678361Y-72292856D01*
X-35678533Y-72324150D01*
X-35678533Y-72432333D01*
X-35754733Y-72432333D01*
X-35754733Y-72272878D01*
X-35754541Y-72222699D01*
X-35754007Y-72178594D01*
X-35753193Y-72143257D01*
X-35752161Y-72119385D01*
X-35750976Y-72109672D01*
X-35750940Y-72109629D01*
X-35740907Y-72107977D01*
X-35720486Y-72108480D01*
X-35712840Y-72109107D01*
X-35688408Y-72113979D01*
X-35678825Y-72122971D01*
X-35678533Y-72125501D01*
X-35676942Y-72133803D01*
X-35669465Y-72130211D01*
X-35663161Y-72124713D01*
X-35634439Y-72109136D01*
X-35598274Y-72104536D01*
X-35564991Y-72110350D01*
X-35564991Y-72110350D01*
G37*
X-35564991Y-72110350D02*
X-35543408Y-72119339D01*
X-35536116Y-72129832D01*
X-35542138Y-72145879D01*
X-35552726Y-72161202D01*
X-35565427Y-72176040D01*
X-35578602Y-72182296D01*
X-35598982Y-72182265D01*
X-35610787Y-72180990D01*
X-35635028Y-72179591D01*
X-35652746Y-72183394D01*
X-35664939Y-72194511D01*
X-35672607Y-72215053D01*
X-35676748Y-72247131D01*
X-35678361Y-72292856D01*
X-35678533Y-72324150D01*
X-35678533Y-72432333D01*
X-35754733Y-72432333D01*
X-35754733Y-72272878D01*
X-35754541Y-72222699D01*
X-35754007Y-72178594D01*
X-35753193Y-72143257D01*
X-35752161Y-72119385D01*
X-35750976Y-72109672D01*
X-35750940Y-72109629D01*
X-35740907Y-72107977D01*
X-35720486Y-72108480D01*
X-35712840Y-72109107D01*
X-35688408Y-72113979D01*
X-35678825Y-72122971D01*
X-35678533Y-72125501D01*
X-35676942Y-72133803D01*
X-35669465Y-72130211D01*
X-35663161Y-72124713D01*
X-35634439Y-72109136D01*
X-35598274Y-72104536D01*
X-35564991Y-72110350D01*
G36*
X-35890380Y-72110986D02*
X-35861864Y-72122194D01*
X-35859071Y-72124116D01*
X-35842745Y-72137730D01*
X-35830905Y-72152573D01*
X-35822841Y-72171538D01*
X-35817845Y-72197516D01*
X-35815207Y-72233399D01*
X-35814219Y-72282078D01*
X-35814125Y-72307450D01*
X-35814000Y-72432333D01*
X-35847161Y-72432333D01*
X-35869888Y-72429832D01*
X-35883157Y-72423483D01*
X-35884203Y-72421750D01*
X-35889856Y-72415412D01*
X-35899301Y-72421750D01*
X-35915767Y-72428522D01*
X-35942763Y-72431532D01*
X-35974337Y-72430902D01*
X-36004539Y-72426756D01*
X-36027418Y-72419219D01*
X-36027677Y-72419080D01*
X-36055566Y-72395093D01*
X-36071623Y-72362298D01*
X-36074300Y-72329338D01*
X-36008733Y-72329338D01*
X-36003280Y-72348400D01*
X-35985766Y-72359773D01*
X-35954461Y-72364391D01*
X-35943330Y-72364600D01*
X-35916529Y-72363740D01*
X-35901566Y-72359785D01*
X-35893378Y-72350673D01*
X-35889990Y-72342882D01*
X-35882349Y-72318607D01*
X-35884161Y-72304740D01*
X-35897823Y-72298442D01*
X-35925736Y-72296873D01*
X-35928856Y-72296867D01*
X-35970918Y-72299982D01*
X-35997374Y-72309367D01*
X-36008373Y-72325083D01*
X-36008733Y-72329338D01*
X-36074300Y-72329338D01*
X-36074648Y-72325067D01*
X-36063623Y-72288123D01*
X-36044306Y-72263085D01*
X-36015645Y-72247041D01*
X-35975248Y-72239002D01*
X-35941420Y-72237600D01*
X-35910141Y-72237149D01*
X-35892176Y-72235115D01*
X-35883917Y-72230472D01*
X-35881755Y-72222198D01*
X-35881733Y-72220667D01*
X-35889105Y-72197384D01*
X-35908193Y-72180426D01*
X-35934458Y-72171380D01*
X-35963360Y-72171830D01*
X-35989759Y-72182936D01*
X-36003397Y-72190582D01*
X-36015338Y-72189274D01*
X-36032682Y-72178065D01*
X-36034116Y-72177007D01*
X-36051807Y-72161433D01*
X-36055189Y-72148572D01*
X-36044007Y-72134292D01*
X-36030862Y-72123815D01*
X-36004146Y-72111936D01*
X-35967705Y-72105846D01*
X-35927722Y-72105532D01*
X-35890380Y-72110986D01*
X-35890380Y-72110986D01*
G37*
X-35890380Y-72110986D02*
X-35861864Y-72122194D01*
X-35859071Y-72124116D01*
X-35842745Y-72137730D01*
X-35830905Y-72152573D01*
X-35822841Y-72171538D01*
X-35817845Y-72197516D01*
X-35815207Y-72233399D01*
X-35814219Y-72282078D01*
X-35814125Y-72307450D01*
X-35814000Y-72432333D01*
X-35847161Y-72432333D01*
X-35869888Y-72429832D01*
X-35883157Y-72423483D01*
X-35884203Y-72421750D01*
X-35889856Y-72415412D01*
X-35899301Y-72421750D01*
X-35915767Y-72428522D01*
X-35942763Y-72431532D01*
X-35974337Y-72430902D01*
X-36004539Y-72426756D01*
X-36027418Y-72419219D01*
X-36027677Y-72419080D01*
X-36055566Y-72395093D01*
X-36071623Y-72362298D01*
X-36074300Y-72329338D01*
X-36008733Y-72329338D01*
X-36003280Y-72348400D01*
X-35985766Y-72359773D01*
X-35954461Y-72364391D01*
X-35943330Y-72364600D01*
X-35916529Y-72363740D01*
X-35901566Y-72359785D01*
X-35893378Y-72350673D01*
X-35889990Y-72342882D01*
X-35882349Y-72318607D01*
X-35884161Y-72304740D01*
X-35897823Y-72298442D01*
X-35925736Y-72296873D01*
X-35928856Y-72296867D01*
X-35970918Y-72299982D01*
X-35997374Y-72309367D01*
X-36008373Y-72325083D01*
X-36008733Y-72329338D01*
X-36074300Y-72329338D01*
X-36074648Y-72325067D01*
X-36063623Y-72288123D01*
X-36044306Y-72263085D01*
X-36015645Y-72247041D01*
X-35975248Y-72239002D01*
X-35941420Y-72237600D01*
X-35910141Y-72237149D01*
X-35892176Y-72235115D01*
X-35883917Y-72230472D01*
X-35881755Y-72222198D01*
X-35881733Y-72220667D01*
X-35889105Y-72197384D01*
X-35908193Y-72180426D01*
X-35934458Y-72171380D01*
X-35963360Y-72171830D01*
X-35989759Y-72182936D01*
X-36003397Y-72190582D01*
X-36015338Y-72189274D01*
X-36032682Y-72178065D01*
X-36034116Y-72177007D01*
X-36051807Y-72161433D01*
X-36055189Y-72148572D01*
X-36044007Y-72134292D01*
X-36030862Y-72123815D01*
X-36004146Y-72111936D01*
X-35967705Y-72105846D01*
X-35927722Y-72105532D01*
X-35890380Y-72110986D01*
G36*
X-36114567Y-72107891D02*
X-36092461Y-72109418D01*
X-36082951Y-72115103D01*
X-36081588Y-72124142D01*
X-36084429Y-72137148D01*
X-36091765Y-72163280D01*
X-36102714Y-72199608D01*
X-36116396Y-72243201D01*
X-36129645Y-72284167D01*
X-36176816Y-72428100D01*
X-36240820Y-72428100D01*
X-36271583Y-72323221D01*
X-36302346Y-72218343D01*
X-36324192Y-72289355D01*
X-36335697Y-72326977D01*
X-36346658Y-72363199D01*
X-36355084Y-72391435D01*
X-36356525Y-72396350D01*
X-36364168Y-72418745D01*
X-36373174Y-72429184D01*
X-36388787Y-72432195D01*
X-36398214Y-72432333D01*
X-36429415Y-72432333D01*
X-36464392Y-72324383D01*
X-36486466Y-72255920D01*
X-36503520Y-72202217D01*
X-36515940Y-72161987D01*
X-36524111Y-72133942D01*
X-36528420Y-72116795D01*
X-36529252Y-72109259D01*
X-36529018Y-72108774D01*
X-36519782Y-72107788D01*
X-36499602Y-72108388D01*
X-36489445Y-72109088D01*
X-36464076Y-72113227D01*
X-36452496Y-72121229D01*
X-36451026Y-72126130D01*
X-36447479Y-72146090D01*
X-36440683Y-72173874D01*
X-36431763Y-72205886D01*
X-36421842Y-72238532D01*
X-36412045Y-72268219D01*
X-36403498Y-72291351D01*
X-36397324Y-72304336D01*
X-36394958Y-72305333D01*
X-36390280Y-72292384D01*
X-36381657Y-72267275D01*
X-36370427Y-72233935D01*
X-36360859Y-72205167D01*
X-36348882Y-72169470D01*
X-36338770Y-72140278D01*
X-36331723Y-72120996D01*
X-36329078Y-72114974D01*
X-36319523Y-72112076D01*
X-36302308Y-72109307D01*
X-36292533Y-72108636D01*
X-36284876Y-72111047D01*
X-36277962Y-72119006D01*
X-36270411Y-72134980D01*
X-36260846Y-72161438D01*
X-36247890Y-72200846D01*
X-36243350Y-72214897D01*
X-36208318Y-72323428D01*
X-36178376Y-72215579D01*
X-36148433Y-72107731D01*
X-36114567Y-72107891D01*
X-36114567Y-72107891D01*
G37*
X-36114567Y-72107891D02*
X-36092461Y-72109418D01*
X-36082951Y-72115103D01*
X-36081588Y-72124142D01*
X-36084429Y-72137148D01*
X-36091765Y-72163280D01*
X-36102714Y-72199608D01*
X-36116396Y-72243201D01*
X-36129645Y-72284167D01*
X-36176816Y-72428100D01*
X-36240820Y-72428100D01*
X-36271583Y-72323221D01*
X-36302346Y-72218343D01*
X-36324192Y-72289355D01*
X-36335697Y-72326977D01*
X-36346658Y-72363199D01*
X-36355084Y-72391435D01*
X-36356525Y-72396350D01*
X-36364168Y-72418745D01*
X-36373174Y-72429184D01*
X-36388787Y-72432195D01*
X-36398214Y-72432333D01*
X-36429415Y-72432333D01*
X-36464392Y-72324383D01*
X-36486466Y-72255920D01*
X-36503520Y-72202217D01*
X-36515940Y-72161987D01*
X-36524111Y-72133942D01*
X-36528420Y-72116795D01*
X-36529252Y-72109259D01*
X-36529018Y-72108774D01*
X-36519782Y-72107788D01*
X-36499602Y-72108388D01*
X-36489445Y-72109088D01*
X-36464076Y-72113227D01*
X-36452496Y-72121229D01*
X-36451026Y-72126130D01*
X-36447479Y-72146090D01*
X-36440683Y-72173874D01*
X-36431763Y-72205886D01*
X-36421842Y-72238532D01*
X-36412045Y-72268219D01*
X-36403498Y-72291351D01*
X-36397324Y-72304336D01*
X-36394958Y-72305333D01*
X-36390280Y-72292384D01*
X-36381657Y-72267275D01*
X-36370427Y-72233935D01*
X-36360859Y-72205167D01*
X-36348882Y-72169470D01*
X-36338770Y-72140278D01*
X-36331723Y-72120996D01*
X-36329078Y-72114974D01*
X-36319523Y-72112076D01*
X-36302308Y-72109307D01*
X-36292533Y-72108636D01*
X-36284876Y-72111047D01*
X-36277962Y-72119006D01*
X-36270411Y-72134980D01*
X-36260846Y-72161438D01*
X-36247890Y-72200846D01*
X-36243350Y-72214897D01*
X-36208318Y-72323428D01*
X-36178376Y-72215579D01*
X-36148433Y-72107731D01*
X-36114567Y-72107891D01*
G36*
X-36559066Y-72432333D02*
X-36592933Y-72432333D01*
X-36616339Y-72430297D01*
X-36626084Y-72423462D01*
X-36626800Y-72419416D01*
X-36628498Y-72411505D01*
X-36636564Y-72412142D01*
X-36651779Y-72419416D01*
X-36676145Y-72427503D01*
X-36706648Y-72432003D01*
X-36716126Y-72432333D01*
X-36744051Y-72430132D01*
X-36764512Y-72421016D01*
X-36783463Y-72404364D01*
X-36801232Y-72383233D01*
X-36811495Y-72360127D01*
X-36817524Y-72327635D01*
X-36817601Y-72327024D01*
X-36820142Y-72290213D01*
X-36820134Y-72273795D01*
X-36746723Y-72273795D01*
X-36743661Y-72307380D01*
X-36736342Y-72334813D01*
X-36728400Y-72347666D01*
X-36702993Y-72362425D01*
X-36674326Y-72361617D01*
X-36655216Y-72352213D01*
X-36642296Y-72334452D01*
X-36634161Y-72306019D01*
X-36630858Y-72272051D01*
X-36632432Y-72237681D01*
X-36638930Y-72208044D01*
X-36650400Y-72188275D01*
X-36653704Y-72185691D01*
X-36677118Y-72178931D01*
X-36705059Y-72180933D01*
X-36728099Y-72190874D01*
X-36729850Y-72192345D01*
X-36739870Y-72210657D01*
X-36745477Y-72239680D01*
X-36746723Y-72273795D01*
X-36820134Y-72273795D01*
X-36820119Y-72248044D01*
X-36818566Y-72221933D01*
X-36814459Y-72189477D01*
X-36807892Y-72167607D01*
X-36796329Y-72149975D01*
X-36784932Y-72137781D01*
X-36749626Y-72112676D01*
X-36711103Y-72104022D01*
X-36670679Y-72112028D01*
X-36658550Y-72117620D01*
X-36626800Y-72134174D01*
X-36626800Y-71975133D01*
X-36559066Y-71975133D01*
X-36559066Y-72432333D01*
X-36559066Y-72432333D01*
G37*
X-36559066Y-72432333D02*
X-36592933Y-72432333D01*
X-36616339Y-72430297D01*
X-36626084Y-72423462D01*
X-36626800Y-72419416D01*
X-36628498Y-72411505D01*
X-36636564Y-72412142D01*
X-36651779Y-72419416D01*
X-36676145Y-72427503D01*
X-36706648Y-72432003D01*
X-36716126Y-72432333D01*
X-36744051Y-72430132D01*
X-36764512Y-72421016D01*
X-36783463Y-72404364D01*
X-36801232Y-72383233D01*
X-36811495Y-72360127D01*
X-36817524Y-72327635D01*
X-36817601Y-72327024D01*
X-36820142Y-72290213D01*
X-36820134Y-72273795D01*
X-36746723Y-72273795D01*
X-36743661Y-72307380D01*
X-36736342Y-72334813D01*
X-36728400Y-72347666D01*
X-36702993Y-72362425D01*
X-36674326Y-72361617D01*
X-36655216Y-72352213D01*
X-36642296Y-72334452D01*
X-36634161Y-72306019D01*
X-36630858Y-72272051D01*
X-36632432Y-72237681D01*
X-36638930Y-72208044D01*
X-36650400Y-72188275D01*
X-36653704Y-72185691D01*
X-36677118Y-72178931D01*
X-36705059Y-72180933D01*
X-36728099Y-72190874D01*
X-36729850Y-72192345D01*
X-36739870Y-72210657D01*
X-36745477Y-72239680D01*
X-36746723Y-72273795D01*
X-36820134Y-72273795D01*
X-36820119Y-72248044D01*
X-36818566Y-72221933D01*
X-36814459Y-72189477D01*
X-36807892Y-72167607D01*
X-36796329Y-72149975D01*
X-36784932Y-72137781D01*
X-36749626Y-72112676D01*
X-36711103Y-72104022D01*
X-36670679Y-72112028D01*
X-36658550Y-72117620D01*
X-36626800Y-72134174D01*
X-36626800Y-71975133D01*
X-36559066Y-71975133D01*
X-36559066Y-72432333D01*
G36*
X-36860864Y-72106090D02*
X-36837856Y-72115149D01*
X-36812686Y-72128165D01*
X-36834841Y-72157211D01*
X-36850343Y-72175389D01*
X-36864416Y-72182695D01*
X-36884909Y-72182362D01*
X-36893286Y-72181283D01*
X-36919150Y-72179667D01*
X-36936261Y-72184959D01*
X-36947521Y-72194254D01*
X-36954921Y-72202976D01*
X-36959960Y-72213810D01*
X-36963086Y-72229941D01*
X-36964746Y-72254556D01*
X-36965386Y-72290840D01*
X-36965466Y-72322267D01*
X-36965466Y-72432333D01*
X-37032492Y-72432333D01*
X-37034962Y-72270742D01*
X-37035647Y-72220396D01*
X-37036086Y-72176277D01*
X-37036265Y-72141013D01*
X-37036172Y-72117235D01*
X-37035794Y-72107573D01*
X-37035756Y-72107493D01*
X-37027144Y-72107179D01*
X-37007648Y-72108404D01*
X-36999773Y-72109107D01*
X-36975303Y-72114183D01*
X-36965562Y-72122938D01*
X-36965466Y-72124065D01*
X-36961979Y-72129774D01*
X-36949649Y-72125677D01*
X-36937950Y-72118974D01*
X-36899573Y-72104072D01*
X-36860864Y-72106090D01*
X-36860864Y-72106090D01*
G37*
X-36860864Y-72106090D02*
X-36837856Y-72115149D01*
X-36812686Y-72128165D01*
X-36834841Y-72157211D01*
X-36850343Y-72175389D01*
X-36864416Y-72182695D01*
X-36884909Y-72182362D01*
X-36893286Y-72181283D01*
X-36919150Y-72179667D01*
X-36936261Y-72184959D01*
X-36947521Y-72194254D01*
X-36954921Y-72202976D01*
X-36959960Y-72213810D01*
X-36963086Y-72229941D01*
X-36964746Y-72254556D01*
X-36965386Y-72290840D01*
X-36965466Y-72322267D01*
X-36965466Y-72432333D01*
X-37032492Y-72432333D01*
X-37034962Y-72270742D01*
X-37035647Y-72220396D01*
X-37036086Y-72176277D01*
X-37036265Y-72141013D01*
X-37036172Y-72117235D01*
X-37035794Y-72107573D01*
X-37035756Y-72107493D01*
X-37027144Y-72107179D01*
X-37007648Y-72108404D01*
X-36999773Y-72109107D01*
X-36975303Y-72114183D01*
X-36965562Y-72122938D01*
X-36965466Y-72124065D01*
X-36961979Y-72129774D01*
X-36949649Y-72125677D01*
X-36937950Y-72118974D01*
X-36899573Y-72104072D01*
X-36860864Y-72106090D01*
G36*
X-37187068Y-72108125D02*
X-37146406Y-72125031D01*
X-37122644Y-72145364D01*
X-37114390Y-72155779D01*
X-37108547Y-72166210D01*
X-37104700Y-72179655D01*
X-37102431Y-72199114D01*
X-37101325Y-72227584D01*
X-37100964Y-72268065D01*
X-37100933Y-72301749D01*
X-37100933Y-72432333D01*
X-37134800Y-72432333D01*
X-37156006Y-72430389D01*
X-37167802Y-72425534D01*
X-37168667Y-72423569D01*
X-37173849Y-72419129D01*
X-37185043Y-72423569D01*
X-37210935Y-72430833D01*
X-37245393Y-72432333D01*
X-37281210Y-72428472D01*
X-37311180Y-72419651D01*
X-37317844Y-72416165D01*
X-37340977Y-72393880D01*
X-37357594Y-72362730D01*
X-37363400Y-72332866D01*
X-37362662Y-72329883D01*
X-37294518Y-72329883D01*
X-37290637Y-72347208D01*
X-37280850Y-72355455D01*
X-37261274Y-72361548D01*
X-37234308Y-72364009D01*
X-37206740Y-72362903D01*
X-37185357Y-72358300D01*
X-37178826Y-72354440D01*
X-37171230Y-72338838D01*
X-37168667Y-72320573D01*
X-37169486Y-72307390D01*
X-37174621Y-72300308D01*
X-37188084Y-72297433D01*
X-37213887Y-72296869D01*
X-37218862Y-72296867D01*
X-37255863Y-72299313D01*
X-37278270Y-72306882D01*
X-37282362Y-72310171D01*
X-37294518Y-72329883D01*
X-37362662Y-72329883D01*
X-37356676Y-72305693D01*
X-37339632Y-72277685D01*
X-37316956Y-72255847D01*
X-37308549Y-72250954D01*
X-37280981Y-72242743D01*
X-37243650Y-72238174D01*
X-37224537Y-72237600D01*
X-37194625Y-72237176D01*
X-37177875Y-72235047D01*
X-37170523Y-72229926D01*
X-37168801Y-72220526D01*
X-37168796Y-72218550D01*
X-37173166Y-72194622D01*
X-37187869Y-72180264D01*
X-37215902Y-72172668D01*
X-37218068Y-72172367D01*
X-37251238Y-72172352D01*
X-37274624Y-72181869D01*
X-37289925Y-72190448D01*
X-37301649Y-72189891D01*
X-37317401Y-72179333D01*
X-37320865Y-72176610D01*
X-37336430Y-72161843D01*
X-37343445Y-72150222D01*
X-37343422Y-72148700D01*
X-37333896Y-72138074D01*
X-37313183Y-72125806D01*
X-37286564Y-72114200D01*
X-37259321Y-72105557D01*
X-37236735Y-72102180D01*
X-37236723Y-72102180D01*
X-37187068Y-72108125D01*
X-37187068Y-72108125D01*
G37*
X-37187068Y-72108125D02*
X-37146406Y-72125031D01*
X-37122644Y-72145364D01*
X-37114390Y-72155779D01*
X-37108547Y-72166210D01*
X-37104700Y-72179655D01*
X-37102431Y-72199114D01*
X-37101325Y-72227584D01*
X-37100964Y-72268065D01*
X-37100933Y-72301749D01*
X-37100933Y-72432333D01*
X-37134800Y-72432333D01*
X-37156006Y-72430389D01*
X-37167802Y-72425534D01*
X-37168667Y-72423569D01*
X-37173849Y-72419129D01*
X-37185043Y-72423569D01*
X-37210935Y-72430833D01*
X-37245393Y-72432333D01*
X-37281210Y-72428472D01*
X-37311180Y-72419651D01*
X-37317844Y-72416165D01*
X-37340977Y-72393880D01*
X-37357594Y-72362730D01*
X-37363400Y-72332866D01*
X-37362662Y-72329883D01*
X-37294518Y-72329883D01*
X-37290637Y-72347208D01*
X-37280850Y-72355455D01*
X-37261274Y-72361548D01*
X-37234308Y-72364009D01*
X-37206740Y-72362903D01*
X-37185357Y-72358300D01*
X-37178826Y-72354440D01*
X-37171230Y-72338838D01*
X-37168667Y-72320573D01*
X-37169486Y-72307390D01*
X-37174621Y-72300308D01*
X-37188084Y-72297433D01*
X-37213887Y-72296869D01*
X-37218862Y-72296867D01*
X-37255863Y-72299313D01*
X-37278270Y-72306882D01*
X-37282362Y-72310171D01*
X-37294518Y-72329883D01*
X-37362662Y-72329883D01*
X-37356676Y-72305693D01*
X-37339632Y-72277685D01*
X-37316956Y-72255847D01*
X-37308549Y-72250954D01*
X-37280981Y-72242743D01*
X-37243650Y-72238174D01*
X-37224537Y-72237600D01*
X-37194625Y-72237176D01*
X-37177875Y-72235047D01*
X-37170523Y-72229926D01*
X-37168801Y-72220526D01*
X-37168796Y-72218550D01*
X-37173166Y-72194622D01*
X-37187869Y-72180264D01*
X-37215902Y-72172668D01*
X-37218068Y-72172367D01*
X-37251238Y-72172352D01*
X-37274624Y-72181869D01*
X-37289925Y-72190448D01*
X-37301649Y-72189891D01*
X-37317401Y-72179333D01*
X-37320865Y-72176610D01*
X-37336430Y-72161843D01*
X-37343445Y-72150222D01*
X-37343422Y-72148700D01*
X-37333896Y-72138074D01*
X-37313183Y-72125806D01*
X-37286564Y-72114200D01*
X-37259321Y-72105557D01*
X-37236735Y-72102180D01*
X-37236723Y-72102180D01*
X-37187068Y-72108125D01*
G36*
X-37603861Y-71603917D02*
X-37594104Y-71609518D01*
X-37592000Y-71620845D01*
X-37590994Y-71633276D01*
X-37585101Y-71632410D01*
X-37575724Y-71624361D01*
X-37551073Y-71611186D01*
X-37517980Y-71604735D01*
X-37483901Y-71605903D01*
X-37464940Y-71611091D01*
X-37442236Y-71625536D01*
X-37421704Y-71646304D01*
X-37420330Y-71648168D01*
X-37411892Y-71661779D01*
X-37406405Y-71676844D01*
X-37403255Y-71697274D01*
X-37401826Y-71726977D01*
X-37401500Y-71767700D01*
X-37401860Y-71809941D01*
X-37403351Y-71839165D01*
X-37406589Y-71859284D01*
X-37412189Y-71874207D01*
X-37420330Y-71887232D01*
X-37440172Y-71908149D01*
X-37463099Y-71923501D01*
X-37464940Y-71924308D01*
X-37495715Y-71930844D01*
X-37530298Y-71929189D01*
X-37561232Y-71920234D01*
X-37575724Y-71911038D01*
X-37582124Y-71905835D01*
X-37586579Y-71905296D01*
X-37589441Y-71911692D01*
X-37591063Y-71927294D01*
X-37591796Y-71954373D01*
X-37591993Y-71995200D01*
X-37592000Y-72016030D01*
X-37592000Y-72135751D01*
X-37564483Y-72118974D01*
X-37526176Y-72104545D01*
X-37487367Y-72105588D01*
X-37451557Y-72121120D01*
X-37422245Y-72150160D01*
X-37415587Y-72160743D01*
X-37408199Y-72175516D01*
X-37403095Y-72191276D01*
X-37399863Y-72211436D01*
X-37398091Y-72239410D01*
X-37397368Y-72278614D01*
X-37397266Y-72312836D01*
X-37397266Y-72432333D01*
X-37473466Y-72432333D01*
X-37473466Y-72319345D01*
X-37474086Y-72267171D01*
X-37476565Y-72229576D01*
X-37481837Y-72204232D01*
X-37490835Y-72188811D01*
X-37504492Y-72180984D01*
X-37523741Y-72178424D01*
X-37529971Y-72178333D01*
X-37551044Y-72180536D01*
X-37566495Y-72188618D01*
X-37577249Y-72204790D01*
X-37584230Y-72231263D01*
X-37588365Y-72270247D01*
X-37590556Y-72323128D01*
X-37593346Y-72432333D01*
X-37659733Y-72432333D01*
X-37659733Y-71753339D01*
X-37587695Y-71753339D01*
X-37586671Y-71789882D01*
X-37579759Y-71823351D01*
X-37567296Y-71848311D01*
X-37560715Y-71854782D01*
X-37538759Y-71861961D01*
X-37512292Y-71859174D01*
X-37489384Y-71847791D01*
X-37483422Y-71841669D01*
X-37478071Y-71825686D01*
X-37475230Y-71798750D01*
X-37474756Y-71766210D01*
X-37476511Y-71733418D01*
X-37480353Y-71705725D01*
X-37486143Y-71688481D01*
X-37487482Y-71686798D01*
X-37505696Y-71678490D01*
X-37531014Y-71677250D01*
X-37555540Y-71682511D01*
X-37570738Y-71692770D01*
X-37582497Y-71719157D01*
X-37587695Y-71753339D01*
X-37659733Y-71753339D01*
X-37659733Y-71602600D01*
X-37625867Y-71602600D01*
X-37603861Y-71603917D01*
X-37603861Y-71603917D01*
G37*
X-37603861Y-71603917D02*
X-37594104Y-71609518D01*
X-37592000Y-71620845D01*
X-37590994Y-71633276D01*
X-37585101Y-71632410D01*
X-37575724Y-71624361D01*
X-37551073Y-71611186D01*
X-37517980Y-71604735D01*
X-37483901Y-71605903D01*
X-37464940Y-71611091D01*
X-37442236Y-71625536D01*
X-37421704Y-71646304D01*
X-37420330Y-71648168D01*
X-37411892Y-71661779D01*
X-37406405Y-71676844D01*
X-37403255Y-71697274D01*
X-37401826Y-71726977D01*
X-37401500Y-71767700D01*
X-37401860Y-71809941D01*
X-37403351Y-71839165D01*
X-37406589Y-71859284D01*
X-37412189Y-71874207D01*
X-37420330Y-71887232D01*
X-37440172Y-71908149D01*
X-37463099Y-71923501D01*
X-37464940Y-71924308D01*
X-37495715Y-71930844D01*
X-37530298Y-71929189D01*
X-37561232Y-71920234D01*
X-37575724Y-71911038D01*
X-37582124Y-71905835D01*
X-37586579Y-71905296D01*
X-37589441Y-71911692D01*
X-37591063Y-71927294D01*
X-37591796Y-71954373D01*
X-37591993Y-71995200D01*
X-37592000Y-72016030D01*
X-37592000Y-72135751D01*
X-37564483Y-72118974D01*
X-37526176Y-72104545D01*
X-37487367Y-72105588D01*
X-37451557Y-72121120D01*
X-37422245Y-72150160D01*
X-37415587Y-72160743D01*
X-37408199Y-72175516D01*
X-37403095Y-72191276D01*
X-37399863Y-72211436D01*
X-37398091Y-72239410D01*
X-37397368Y-72278614D01*
X-37397266Y-72312836D01*
X-37397266Y-72432333D01*
X-37473466Y-72432333D01*
X-37473466Y-72319345D01*
X-37474086Y-72267171D01*
X-37476565Y-72229576D01*
X-37481837Y-72204232D01*
X-37490835Y-72188811D01*
X-37504492Y-72180984D01*
X-37523741Y-72178424D01*
X-37529971Y-72178333D01*
X-37551044Y-72180536D01*
X-37566495Y-72188618D01*
X-37577249Y-72204790D01*
X-37584230Y-72231263D01*
X-37588365Y-72270247D01*
X-37590556Y-72323128D01*
X-37593346Y-72432333D01*
X-37659733Y-72432333D01*
X-37659733Y-71753339D01*
X-37587695Y-71753339D01*
X-37586671Y-71789882D01*
X-37579759Y-71823351D01*
X-37567296Y-71848311D01*
X-37560715Y-71854782D01*
X-37538759Y-71861961D01*
X-37512292Y-71859174D01*
X-37489384Y-71847791D01*
X-37483422Y-71841669D01*
X-37478071Y-71825686D01*
X-37475230Y-71798750D01*
X-37474756Y-71766210D01*
X-37476511Y-71733418D01*
X-37480353Y-71705725D01*
X-37486143Y-71688481D01*
X-37487482Y-71686798D01*
X-37505696Y-71678490D01*
X-37531014Y-71677250D01*
X-37555540Y-71682511D01*
X-37570738Y-71692770D01*
X-37582497Y-71719157D01*
X-37587695Y-71753339D01*
X-37659733Y-71753339D01*
X-37659733Y-71602600D01*
X-37625867Y-71602600D01*
X-37603861Y-71603917D01*
D12*
G04 #@! TO.C,C2*
X-25043654Y-25347804D02*
X-26033604Y-24357854D01*
X-27306396Y-27610546D02*
X-28296346Y-26620596D01*
X-25043654Y-25347804D02*
X-27306396Y-27610546D01*
X-28296346Y-26620596D02*
X-26033604Y-24357854D01*
G04 #@! TO.C,R19*
X-24638200Y-57113400D02*
X-27838200Y-57113400D01*
X-27838200Y-55713400D02*
X-24638200Y-55713400D01*
X-24638200Y-55713400D02*
X-24638200Y-57113400D01*
X-27838200Y-55713400D02*
X-27838200Y-57113400D01*
G04 #@! TO.C,R20*
X-27838200Y-57288200D02*
X-27838200Y-58688200D01*
X-24638200Y-57288200D02*
X-24638200Y-58688200D01*
X-27838200Y-57288200D02*
X-24638200Y-57288200D01*
X-24638200Y-58688200D02*
X-27838200Y-58688200D01*
G04 #@! TO.C,R18*
X-31826400Y-45607200D02*
X-35026400Y-45607200D01*
X-35026400Y-44207200D02*
X-31826400Y-44207200D01*
X-31826400Y-44207200D02*
X-31826400Y-45607200D01*
X-35026400Y-44207200D02*
X-35026400Y-45607200D01*
G04 #@! TO.C,R16*
X-35306200Y-45556400D02*
X-35306200Y-44156400D01*
X-38506200Y-45556400D02*
X-38506200Y-44156400D01*
X-35306200Y-45556400D02*
X-38506200Y-45556400D01*
X-38506200Y-44156400D02*
X-35306200Y-44156400D01*
D11*
G04 #@! TO.C,U6*
X-33468089Y-60205600D02*
G75*
G03X-33468089Y-60205600I-70711J0D01*
G01*
D12*
X-33488800Y-59005600D02*
X-28588800Y-59005600D01*
X-28588800Y-59005600D02*
X-28588800Y-56005600D01*
X-28588800Y-56005600D02*
X-33488800Y-56005600D01*
X-33488800Y-56005600D02*
X-33488800Y-59005600D01*
D14*
G04 #@! TO.C,J4*
X-9404000Y-37117000D02*
X-11204000Y-37117000D01*
X-11204000Y-37117000D02*
X-11204000Y-38967000D01*
X-11204000Y-38967000D02*
X-11944000Y-38967000D01*
X-9404000Y-45687000D02*
X-11204000Y-45687000D01*
X-11204000Y-45687000D02*
X-11204000Y-43837000D01*
X-6084000Y-37117000D02*
X-5534000Y-37117000D01*
X-5534000Y-37117000D02*
X-5534000Y-45687000D01*
X-5534000Y-45687000D02*
X-6084000Y-45687000D01*
D12*
G04 #@! TO.C,C16*
X-39968400Y-12991000D02*
X-38568400Y-12991000D01*
X-39968400Y-9791000D02*
X-38568400Y-9791000D01*
X-39968400Y-12991000D02*
X-39968400Y-9791000D01*
X-38568400Y-9791000D02*
X-38568400Y-12991000D01*
G04 #@! TO.C,J8*
X-13721800Y-37978200D02*
X-13721800Y-44978200D01*
X-13721800Y-44978200D02*
X-16671800Y-44978200D01*
X-16671800Y-44978200D02*
X-16671800Y-37978200D01*
X-16671800Y-37978200D02*
X-13721800Y-37978200D01*
G04 #@! TO.C,C21*
X-25832000Y-17362400D02*
X-29032000Y-17362400D01*
X-29032000Y-15962400D02*
X-25832000Y-15962400D01*
X-25832000Y-15962400D02*
X-25832000Y-17362400D01*
X-29032000Y-15962400D02*
X-29032000Y-17362400D01*
G04 #@! TO.C,C20*
X-29006600Y-14438400D02*
X-29006600Y-15838400D01*
X-25806600Y-14438400D02*
X-25806600Y-15838400D01*
X-29006600Y-14438400D02*
X-25806600Y-14438400D01*
X-25806600Y-15838400D02*
X-29006600Y-15838400D01*
G04 #@! TO.C,D1*
X-16510200Y-59729600D02*
X-19710200Y-59729600D01*
X-19710200Y-59729600D02*
X-19710200Y-58329600D01*
X-19710200Y-58329600D02*
X-16510200Y-58329600D01*
X-16510200Y-58329600D02*
X-16510200Y-59729600D01*
X-16510200Y-59729600D02*
X-16310200Y-59729600D01*
X-16310200Y-59729600D02*
X-16310200Y-58329600D01*
X-16310200Y-58329600D02*
X-16510200Y-58329600D01*
G04 #@! TO.C,R14*
X-23952400Y-14060400D02*
X-27152400Y-14060400D01*
X-27152400Y-12660400D02*
X-23952400Y-12660400D01*
X-23952400Y-12660400D02*
X-23952400Y-14060400D01*
X-27152400Y-12660400D02*
X-27152400Y-14060400D01*
G04 #@! TO.C,R13*
X-38100200Y-16016200D02*
X-38100200Y-14616200D01*
X-41300200Y-16016200D02*
X-41300200Y-14616200D01*
X-38100200Y-16016200D02*
X-41300200Y-16016200D01*
X-41300200Y-14616200D02*
X-38100200Y-14616200D01*
G04 #@! TO.C,R15*
X-31507200Y-3861000D02*
X-31507200Y-7061000D01*
X-32907200Y-7061000D02*
X-32907200Y-3861000D01*
X-32907200Y-3861000D02*
X-31507200Y-3861000D01*
X-32907200Y-7061000D02*
X-31507200Y-7061000D01*
G04 #@! TO.C,R12*
X-30353200Y-17362400D02*
X-30353200Y-15962400D01*
X-33553200Y-17362400D02*
X-33553200Y-15962400D01*
X-30353200Y-17362400D02*
X-33553200Y-17362400D01*
X-33553200Y-15962400D02*
X-30353200Y-15962400D01*
D11*
G04 #@! TO.C,U3*
X-36487489Y-10174600D02*
G75*
G03X-36487489Y-10174600I-70711J0D01*
G01*
D12*
X-35358200Y-10224600D02*
X-35358200Y-15124600D01*
X-35358200Y-15124600D02*
X-32358200Y-15124600D01*
X-32358200Y-15124600D02*
X-32358200Y-10224600D01*
X-32358200Y-10224600D02*
X-35358200Y-10224600D01*
G04 #@! TO.C,J1*
X-11160000Y-67500000D02*
X-7160000Y-67500000D01*
X-7160000Y-67500000D02*
X-7160000Y-59500000D01*
X-7160000Y-59500000D02*
X-11160000Y-59500000D01*
X-11160000Y-59500000D02*
X-11160000Y-67500000D01*
G04 #@! TO.C,J6*
X-22199600Y-20807800D02*
X-22199600Y-24207800D01*
X-15849600Y-20807800D02*
X-15849600Y-24207800D01*
X-20739100Y-26000300D02*
X-20739100Y-26444800D01*
X-20739100Y-26444800D02*
X-17310100Y-26444800D01*
X-17310100Y-26444800D02*
X-17310100Y-26000300D01*
D14*
G04 #@! TO.C,J2*
X-9404000Y-47160000D02*
X-11204000Y-47160000D01*
X-11204000Y-47160000D02*
X-11204000Y-49010000D01*
X-11204000Y-49010000D02*
X-11944000Y-49010000D01*
X-9404000Y-56980000D02*
X-11204000Y-56980000D01*
X-11204000Y-56980000D02*
X-11204000Y-55130000D01*
X-6084000Y-47160000D02*
X-5534000Y-47160000D01*
X-5534000Y-47160000D02*
X-5534000Y-56980000D01*
X-5534000Y-56980000D02*
X-6084000Y-56980000D01*
D12*
G04 #@! TO.C,C1*
X-26262854Y-24230204D02*
X-27252804Y-23240254D01*
X-28525596Y-26492946D02*
X-29515546Y-25502996D01*
X-26262854Y-24230204D02*
X-28525596Y-26492946D01*
X-29515546Y-25502996D02*
X-27252804Y-23240254D01*
G04 #@! TO.C,C3*
X-25782500Y-30619500D02*
X-24382500Y-30619500D01*
X-25782500Y-27419500D02*
X-24382500Y-27419500D01*
X-25782500Y-30619500D02*
X-25782500Y-27419500D01*
X-24382500Y-27419500D02*
X-24382500Y-30619500D01*
G04 #@! TO.C,C4*
X-36348900Y-31752300D02*
X-34948900Y-31752300D01*
X-36348900Y-28552300D02*
X-34948900Y-28552300D01*
X-36348900Y-31752300D02*
X-36348900Y-28552300D01*
X-34948900Y-28552300D02*
X-34948900Y-31752300D01*
G04 #@! TO.C,C5*
X-24169600Y-30632200D02*
X-22769600Y-30632200D01*
X-24169600Y-27432200D02*
X-22769600Y-27432200D01*
X-24169600Y-30632200D02*
X-24169600Y-27432200D01*
X-22769600Y-27432200D02*
X-22769600Y-30632200D01*
G04 #@! TO.C,C6*
X-33186600Y-31241800D02*
X-31786600Y-31241800D01*
X-33186600Y-28041800D02*
X-31786600Y-28041800D01*
X-33186600Y-31241800D02*
X-33186600Y-28041800D01*
X-31786600Y-28041800D02*
X-31786600Y-31241800D01*
G04 #@! TO.C,C7*
X-22097800Y-37933400D02*
X-22097800Y-39333400D01*
X-18897800Y-37933400D02*
X-18897800Y-39333400D01*
X-22097800Y-37933400D02*
X-18897800Y-37933400D01*
X-18897800Y-39333400D02*
X-22097800Y-39333400D01*
G04 #@! TO.C,C8*
X-32828000Y-40222000D02*
X-34228000Y-40222000D01*
X-32828000Y-43422000D02*
X-34228000Y-43422000D01*
X-32828000Y-40222000D02*
X-32828000Y-43422000D01*
X-34228000Y-43422000D02*
X-34228000Y-40222000D01*
G04 #@! TO.C,C9*
X-28174992Y-71480862D02*
X-26774992Y-71480862D01*
X-28174992Y-68280862D02*
X-26774992Y-68280862D01*
X-28174992Y-71480862D02*
X-28174992Y-68280862D01*
X-26774992Y-68280862D02*
X-26774992Y-71480862D01*
G04 #@! TO.C,C10*
X-12063500Y-69608000D02*
X-13463500Y-69608000D01*
X-12063500Y-72808000D02*
X-13463500Y-72808000D01*
X-12063500Y-69608000D02*
X-12063500Y-72808000D01*
X-13463500Y-72808000D02*
X-13463500Y-69608000D01*
G04 #@! TO.C,C11*
X-23030192Y-69793462D02*
X-23030192Y-68393462D01*
X-26230192Y-69793462D02*
X-26230192Y-68393462D01*
X-23030192Y-69793462D02*
X-26230192Y-69793462D01*
X-26230192Y-68393462D02*
X-23030192Y-68393462D01*
G04 #@! TO.C,C12*
X-26741485Y-62443861D02*
X-28141485Y-62443861D01*
X-26741485Y-65643861D02*
X-28141485Y-65643861D01*
X-26741485Y-62443861D02*
X-26741485Y-65643861D01*
X-28141485Y-65643861D02*
X-28141485Y-62443861D01*
G04 #@! TO.C,C13*
X-32944000Y-8574000D02*
X-32944000Y-7174000D01*
X-36144000Y-8574000D02*
X-36144000Y-7174000D01*
X-32944000Y-8574000D02*
X-36144000Y-8574000D01*
X-36144000Y-7174000D02*
X-32944000Y-7174000D01*
G04 #@! TO.C,C14*
X-34761400Y-31241800D02*
X-33361400Y-31241800D01*
X-34761400Y-28041800D02*
X-33361400Y-28041800D01*
X-34761400Y-31241800D02*
X-34761400Y-28041800D01*
X-33361400Y-28041800D02*
X-33361400Y-31241800D01*
G04 #@! TO.C,C15*
X-31064000Y-7174000D02*
X-31064000Y-8574000D01*
X-27864000Y-7174000D02*
X-27864000Y-8574000D01*
X-31064000Y-7174000D02*
X-27864000Y-7174000D01*
X-27864000Y-8574000D02*
X-31064000Y-8574000D01*
G04 #@! TO.C,C18*
X-36853900Y-20434500D02*
X-38253900Y-20434500D01*
X-36853900Y-23634500D02*
X-38253900Y-23634500D01*
X-36853900Y-20434500D02*
X-36853900Y-23634500D01*
X-38253900Y-23634500D02*
X-38253900Y-20434500D01*
G04 #@! TO.C,D4*
X-14243289Y-62008000D02*
G75*
G03X-14243289Y-62008000I-70711J0D01*
G01*
X-15764000Y-62358000D02*
X-16214000Y-62358000D01*
X-15364000Y-63658000D02*
X-16264000Y-63658000D01*
X-17264000Y-63658000D02*
X-17264000Y-62358000D01*
X-14364000Y-63658000D02*
X-14364000Y-62358000D01*
G04 #@! TO.C,D5*
X-22079984Y-45644000D02*
X-22079984Y-48844000D01*
X-22079984Y-48844000D02*
X-23479984Y-48844000D01*
X-23479984Y-48844000D02*
X-23479984Y-45644000D01*
X-23479984Y-45644000D02*
X-22079984Y-45644000D01*
X-22079984Y-45644000D02*
X-22079984Y-45444000D01*
X-22079984Y-45444000D02*
X-23479984Y-45444000D01*
X-23479984Y-45444000D02*
X-23479984Y-45644000D01*
G04 #@! TO.C,F1*
X-20297592Y-70598362D02*
X-20297592Y-69798362D01*
X-21647592Y-70598362D02*
X-21647592Y-69798362D01*
G04 #@! TO.C,L1*
X-26230192Y-70039917D02*
X-26230192Y-71439917D01*
X-23030192Y-70039917D02*
X-23030192Y-71439917D01*
X-26230192Y-70039917D02*
X-23030192Y-70039917D01*
X-23030192Y-71439917D02*
X-26230192Y-71439917D01*
G04 #@! TO.C,L2*
X-37949100Y-31750700D02*
X-36549100Y-31750700D01*
X-37949100Y-28550700D02*
X-36549100Y-28550700D01*
X-37949100Y-31750700D02*
X-37949100Y-28550700D01*
X-36549100Y-28550700D02*
X-36549100Y-31750700D01*
G04 #@! TO.C,Q4*
X-28309730Y-48710880D02*
X-26909730Y-48710880D01*
X-26909730Y-47810880D02*
X-26909730Y-48710880D01*
X-26909730Y-45710880D02*
X-26909730Y-46710880D01*
X-28309730Y-45710880D02*
X-26909730Y-45710880D01*
X-28309730Y-46810880D02*
X-28309730Y-47610880D01*
G04 #@! TO.C,R2*
X-21502600Y-30543300D02*
X-20102600Y-30543300D01*
X-21502600Y-27343300D02*
X-20102600Y-27343300D01*
X-21502600Y-30543300D02*
X-21502600Y-27343300D01*
X-20102600Y-27343300D02*
X-20102600Y-30543300D01*
G04 #@! TO.C,R4*
X-19915100Y-30543300D02*
X-18515100Y-30543300D01*
X-19915100Y-27343300D02*
X-18515100Y-27343300D01*
X-19915100Y-30543300D02*
X-19915100Y-27343300D01*
X-18515100Y-27343300D02*
X-18515100Y-30543300D01*
G04 #@! TO.C,R6*
X-20128000Y-42723000D02*
X-21528000Y-42723000D01*
X-20128000Y-45923000D02*
X-21528000Y-45923000D01*
X-20128000Y-42723000D02*
X-20128000Y-45923000D01*
X-21528000Y-45923000D02*
X-21528000Y-42723000D01*
G04 #@! TO.C,R7*
X-18502400Y-42748400D02*
X-19902400Y-42748400D01*
X-18502400Y-45948400D02*
X-19902400Y-45948400D01*
X-18502400Y-42748400D02*
X-18502400Y-45948400D01*
X-19902400Y-45948400D02*
X-19902400Y-42748400D01*
G04 #@! TO.C,R8*
X-20472200Y-34758400D02*
X-20472200Y-36158400D01*
X-17272200Y-34758400D02*
X-17272200Y-36158400D01*
X-20472200Y-34758400D02*
X-17272200Y-34758400D01*
X-17272200Y-36158400D02*
X-20472200Y-36158400D01*
G04 #@! TO.C,R9*
X-17272200Y-34583600D02*
X-17272200Y-33183600D01*
X-20472200Y-34583600D02*
X-20472200Y-33183600D01*
X-17272200Y-34583600D02*
X-20472200Y-34583600D01*
X-20472200Y-33183600D02*
X-17272200Y-33183600D01*
G04 #@! TO.C,R10*
X-10425200Y-69610400D02*
X-11825200Y-69610400D01*
X-10425200Y-72810400D02*
X-11825200Y-72810400D01*
X-10425200Y-69610400D02*
X-10425200Y-72810400D01*
X-11825200Y-72810400D02*
X-11825200Y-69610400D01*
G04 #@! TO.C,R11*
X-38100200Y-14517600D02*
X-38100200Y-13117600D01*
X-41300200Y-14517600D02*
X-41300200Y-13117600D01*
X-38100200Y-14517600D02*
X-41300200Y-14517600D01*
X-41300200Y-13117600D02*
X-38100200Y-13117600D01*
G04 #@! TO.C,R17*
X-23811000Y-45644000D02*
X-25211000Y-45644000D01*
X-23811000Y-48844000D02*
X-25211000Y-48844000D01*
X-23811000Y-45644000D02*
X-23811000Y-48844000D01*
X-25211000Y-48844000D02*
X-25211000Y-45644000D01*
G04 #@! TO.C,R22*
X-19179772Y14121332D02*
X-19179772Y15521332D01*
X-22379772Y14121332D02*
X-22379772Y15521332D01*
X-19179772Y14121332D02*
X-22379772Y14121332D01*
X-22379772Y15521332D02*
X-19179772Y15521332D01*
G04 #@! TO.C,R23*
X-20158972Y2299332D02*
X-18758972Y2299332D01*
X-20158972Y5499332D02*
X-18758972Y5499332D01*
X-20158972Y2299332D02*
X-20158972Y5499332D01*
X-18758972Y5499332D02*
X-18758972Y2299332D01*
G04 #@! TO.C,R30*
X-19179772Y19048932D02*
X-19179772Y20448932D01*
X-22379772Y19048932D02*
X-22379772Y20448932D01*
X-19179772Y19048932D02*
X-22379772Y19048932D01*
X-22379772Y20448932D02*
X-19179772Y20448932D01*
G04 #@! TO.C,R31*
X-19179772Y15797732D02*
X-19179772Y17197732D01*
X-22379772Y15797732D02*
X-22379772Y17197732D01*
X-19179772Y15797732D02*
X-22379772Y15797732D01*
X-22379772Y17197732D02*
X-19179772Y17197732D01*
G04 #@! TO.C,R32*
X-18758972Y419332D02*
X-20158972Y419332D01*
X-18758972Y-2780668D02*
X-20158972Y-2780668D01*
X-18758972Y419332D02*
X-18758972Y-2780668D01*
X-20158972Y-2780668D02*
X-20158972Y419332D01*
G04 #@! TO.C,R33*
X-19179772Y17423332D02*
X-19179772Y18823332D01*
X-22379772Y17423332D02*
X-22379772Y18823332D01*
X-19179772Y17423332D02*
X-22379772Y17423332D01*
X-22379772Y18823332D02*
X-19179772Y18823332D01*
G04 #@! TO.C,R34*
X-19179772Y20776132D02*
X-19179772Y22176132D01*
X-22379772Y20776132D02*
X-22379772Y22176132D01*
X-19179772Y20776132D02*
X-22379772Y20776132D01*
X-22379772Y22176132D02*
X-19179772Y22176132D01*
D11*
G04 #@! TO.C,U1*
X-29165062Y-30907144D02*
G75*
G03X-29165062Y-30907144I-70711J0D01*
G01*
D12*
X-28422600Y-41195547D02*
X-23472853Y-36245800D01*
X-33372347Y-36245800D02*
X-28422600Y-31296053D01*
X-28422600Y-31296053D02*
X-23472853Y-36245800D01*
X-33372347Y-36245800D02*
X-28422600Y-41195547D01*
G04 #@! TO.C,U2*
X-21336085Y-67828661D02*
X-21336085Y-61828661D01*
X-21336085Y-67828661D02*
X-26336085Y-67828661D01*
X-26336085Y-67828661D02*
X-26336085Y-61828661D01*
X-26336085Y-61828661D02*
X-21336085Y-61828661D01*
G04 #@! TO.C,Y1*
X-30855883Y-27557977D02*
X-30148777Y-28265083D01*
X-29795223Y-26497317D02*
X-29088117Y-27204423D01*
D14*
G04 #@! TO.C,SW1*
X-5616000Y-22516000D02*
X-5716000Y-22516000D01*
X-9116000Y-22516000D02*
X-9016000Y-22516000D01*
X-9016000Y-17616000D02*
X-9116000Y-17616000D01*
X-5616000Y-17616000D02*
X-5716000Y-17616000D01*
X-7016000Y-17616000D02*
X-7716000Y-17616000D01*
X-7016000Y-22516000D02*
X-7716000Y-22516000D01*
X-5616000Y-22516000D02*
X-5616000Y-17616000D01*
X-9116000Y-17616000D02*
X-9116000Y-22516000D01*
G04 #@! TO.C,J3*
X-9404000Y-28344000D02*
X-11204000Y-28344000D01*
X-11204000Y-28344000D02*
X-11204000Y-30194000D01*
X-11204000Y-30194000D02*
X-11944000Y-30194000D01*
X-9404000Y-35664000D02*
X-11204000Y-35664000D01*
X-11204000Y-35664000D02*
X-11204000Y-33814000D01*
X-6084000Y-28344000D02*
X-5534000Y-28344000D01*
X-5534000Y-28344000D02*
X-5534000Y-35664000D01*
X-5534000Y-35664000D02*
X-6084000Y-35664000D01*
D12*
G04 #@! TO.C,U5*
X-5374000Y-9946000D02*
X-5574000Y-9946000D01*
X-5374000Y-11496000D02*
X-5374000Y-9946000D01*
X-7574000Y-9946000D02*
X-6874000Y-9946000D01*
X-5374000Y-14946000D02*
X-5374000Y-11446000D01*
X-7574000Y-9946000D02*
X-10174000Y-9946000D01*
X-10145579Y-15367000D02*
G75*
G03X-10145579Y-15367000I-141421J0D01*
G01*
X-6874000Y-14946000D02*
X-8874000Y-14946000D01*
X-10174000Y-14946000D02*
X-10374000Y-14946000D01*
X-10374000Y-14946000D02*
X-10374000Y-9946000D01*
X-10374000Y-9946000D02*
X-10174000Y-9946000D01*
X-5374000Y-14946000D02*
X-5524000Y-14946000D01*
G04 #@! TO.C,C17*
X-33582436Y-51521478D02*
X-33582436Y-52921478D01*
X-30382436Y-51521478D02*
X-30382436Y-52921478D01*
X-33582436Y-51521478D02*
X-30382436Y-51521478D01*
X-30382436Y-52921478D02*
X-33582436Y-52921478D01*
G04 #@! TO.C,C19*
X-37668000Y-56704000D02*
X-37668000Y-58104000D01*
X-34468000Y-56704000D02*
X-34468000Y-58104000D01*
X-37668000Y-56704000D02*
X-34468000Y-56704000D01*
X-34468000Y-58104000D02*
X-37668000Y-58104000D01*
G04 #@! TO.C,R1*
X-34468000Y-56326000D02*
X-34468000Y-54926000D01*
X-37668000Y-56326000D02*
X-37668000Y-54926000D01*
X-34468000Y-56326000D02*
X-37668000Y-56326000D01*
X-37668000Y-54926000D02*
X-34468000Y-54926000D01*
G04 #@! TO.C,Y2*
X-31756436Y-62266478D02*
X-32756436Y-62266478D01*
X-31756436Y-63766478D02*
X-32756436Y-63766478D01*
G04 #@! TO.C,D11*
X-25004172Y16840332D02*
X-25004172Y18390332D01*
X-24154172Y18390332D02*
X-26854172Y18390332D01*
X-24154172Y16840332D02*
X-26854172Y16840332D01*
G04 #@! TO.C,D10*
X-26004372Y15951932D02*
X-26004372Y14401932D01*
X-26854372Y14401932D02*
X-24154372Y14401932D01*
X-26854372Y15951932D02*
X-24154372Y15951932D01*
G04 #@! TO.C,D9*
X-20635372Y22783932D02*
X-20635372Y24333932D01*
X-19785372Y24333932D02*
X-22485372Y24333932D01*
X-19785372Y22783932D02*
X-22485372Y22783932D01*
G04 #@! TO.C,D8*
X-25004172Y19126332D02*
X-25004172Y20676332D01*
X-24154172Y20676332D02*
X-26854172Y20676332D01*
X-24154172Y19126332D02*
X-26854172Y19126332D01*
G04 #@! TO.C,D7*
X-22519972Y-1833068D02*
X-20969972Y-1833068D01*
X-20969972Y-2683068D02*
X-20969972Y16932D01*
X-22519972Y-2683068D02*
X-22519972Y16932D01*
G04 #@! TO.C,D6*
X-20969972Y4399332D02*
X-22519972Y4399332D01*
X-22519972Y5249332D02*
X-22519972Y2549332D01*
X-20969972Y5249332D02*
X-20969972Y2549332D01*
D14*
G04 #@! TO.C,J7*
X-17659000Y-47160000D02*
X-19459000Y-47160000D01*
X-19459000Y-47160000D02*
X-19459000Y-49010000D01*
X-19459000Y-49010000D02*
X-20199000Y-49010000D01*
X-17659000Y-56980000D02*
X-19459000Y-56980000D01*
X-19459000Y-56980000D02*
X-19459000Y-55130000D01*
X-14339000Y-47160000D02*
X-13789000Y-47160000D01*
X-13789000Y-47160000D02*
X-13789000Y-56980000D01*
X-13789000Y-56980000D02*
X-14339000Y-56980000D01*
D11*
G04 #@! TO.C,U4*
X-34099889Y-18061300D02*
G75*
G03X-34099889Y-18061300I-70711J0D01*
G01*
D12*
X-32970600Y-18111300D02*
X-32970600Y-23011300D01*
X-32970600Y-23011300D02*
X-29970600Y-23011300D01*
X-29970600Y-23011300D02*
X-29970600Y-18111300D01*
X-29970600Y-18111300D02*
X-32970600Y-18111300D01*
G04 #@! TO.C,J10*
X-5076972Y7967332D02*
X-18076972Y7967332D01*
X-18076972Y7967332D02*
X-18076972Y-4232668D01*
X-18076972Y-4232668D02*
X-5076972Y-4232668D01*
X-5076972Y7967332D02*
X-5076972Y-4232668D01*
G04 #@! TO.C,J11*
X-5062972Y23467332D02*
X-5062972Y11267332D01*
X-18062972Y11267332D02*
X-5062972Y11267332D01*
X-18062972Y23467332D02*
X-18062972Y11267332D01*
X-5062972Y23467332D02*
X-18062972Y23467332D01*
G04 #@! TO.C,R3*
X-16027200Y-58380400D02*
X-16027200Y-59780400D01*
X-12827200Y-58380400D02*
X-12827200Y-59780400D01*
X-16027200Y-58380400D02*
X-12827200Y-58380400D01*
X-12827200Y-59780400D02*
X-16027200Y-59780400D01*
G04 #@! TO.C,R5*
X-25578000Y-11368000D02*
X-28778000Y-11368000D01*
X-28778000Y-9968000D02*
X-25578000Y-9968000D01*
X-25578000Y-9968000D02*
X-25578000Y-11368000D01*
X-28778000Y-9968000D02*
X-28778000Y-11368000D01*
D13*
G04 #@! TO.C,G\002A\002A\002A*
G36*
X-38708971Y10968140D02*
X-38639873Y10953266D01*
X-38569110Y10926390D01*
X-38551709Y10918150D01*
X-38520836Y10901993D01*
X-38495524Y10885862D01*
X-38471497Y10866633D01*
X-38444480Y10841183D01*
X-38439304Y10836035D01*
X-38413673Y10809487D01*
X-38394626Y10786862D01*
X-38379087Y10763844D01*
X-38363976Y10736113D01*
X-38354888Y10717611D01*
X-38335145Y10674191D01*
X-38321441Y10637230D01*
X-38312811Y10602592D01*
X-38308287Y10566143D01*
X-38306904Y10523748D01*
X-38306931Y10512425D01*
X-38307314Y10491072D01*
X-38308403Y10471078D01*
X-38310592Y10451498D01*
X-38314272Y10431385D01*
X-38319834Y10409795D01*
X-38327669Y10385781D01*
X-38338170Y10358396D01*
X-38351727Y10326696D01*
X-38368734Y10289734D01*
X-38389580Y10246563D01*
X-38414658Y10196239D01*
X-38444359Y10137814D01*
X-38479075Y10070344D01*
X-38519197Y9992881D01*
X-38532984Y9966325D01*
X-38565542Y9903751D01*
X-38596572Y9844337D01*
X-38625548Y9789076D01*
X-38651947Y9738957D01*
X-38675241Y9694973D01*
X-38694906Y9658115D01*
X-38710416Y9629374D01*
X-38721247Y9609741D01*
X-38726873Y9600207D01*
X-38727316Y9599613D01*
X-38742310Y9590725D01*
X-38761429Y9589136D01*
X-38778336Y9595091D01*
X-38781213Y9597521D01*
X-38787131Y9606090D01*
X-38798241Y9624791D01*
X-38813929Y9652459D01*
X-38833581Y9687930D01*
X-38856584Y9730042D01*
X-38882322Y9777630D01*
X-38910182Y9829532D01*
X-38939549Y9884582D01*
X-38969809Y9941618D01*
X-39000348Y9999476D01*
X-39030551Y10056992D01*
X-39059805Y10113003D01*
X-39087495Y10166345D01*
X-39113007Y10215855D01*
X-39135727Y10260368D01*
X-39155039Y10298721D01*
X-39170331Y10329751D01*
X-39180988Y10352294D01*
X-39186332Y10364997D01*
X-39206426Y10441397D01*
X-39214316Y10516965D01*
X-39213640Y10528758D01*
X-39076878Y10528758D01*
X-39073802Y10469476D01*
X-39060140Y10413459D01*
X-39036919Y10361733D01*
X-39005167Y10315324D01*
X-38965913Y10275259D01*
X-38920183Y10242565D01*
X-38869006Y10218268D01*
X-38813410Y10203394D01*
X-38754422Y10198970D01*
X-38693071Y10206023D01*
X-38685312Y10207757D01*
X-38624867Y10228085D01*
X-38571860Y10258381D01*
X-38527049Y10297814D01*
X-38491190Y10345550D01*
X-38465037Y10400760D01*
X-38449348Y10462611D01*
X-38448511Y10468223D01*
X-38445716Y10529554D01*
X-38454225Y10588057D01*
X-38472944Y10642683D01*
X-38500778Y10692385D01*
X-38536633Y10736114D01*
X-38579413Y10772822D01*
X-38628025Y10801460D01*
X-38681372Y10820980D01*
X-38738361Y10830334D01*
X-38797896Y10828472D01*
X-38820725Y10824655D01*
X-38884136Y10805923D01*
X-38939512Y10777652D01*
X-38986366Y10740303D01*
X-39024213Y10694336D01*
X-39052566Y10640210D01*
X-39068340Y10590278D01*
X-39076878Y10528758D01*
X-39213640Y10528758D01*
X-39210074Y10590868D01*
X-39193768Y10662271D01*
X-39165471Y10730341D01*
X-39153729Y10751562D01*
X-39111337Y10811533D01*
X-39060217Y10863107D01*
X-39001682Y10905202D01*
X-38937045Y10936734D01*
X-38923073Y10941825D01*
X-38848891Y10962312D01*
X-38778083Y10971120D01*
X-38708971Y10968140D01*
X-38708971Y10968140D01*
G37*
X-38708971Y10968140D02*
X-38639873Y10953266D01*
X-38569110Y10926390D01*
X-38551709Y10918150D01*
X-38520836Y10901993D01*
X-38495524Y10885862D01*
X-38471497Y10866633D01*
X-38444480Y10841183D01*
X-38439304Y10836035D01*
X-38413673Y10809487D01*
X-38394626Y10786862D01*
X-38379087Y10763844D01*
X-38363976Y10736113D01*
X-38354888Y10717611D01*
X-38335145Y10674191D01*
X-38321441Y10637230D01*
X-38312811Y10602592D01*
X-38308287Y10566143D01*
X-38306904Y10523748D01*
X-38306931Y10512425D01*
X-38307314Y10491072D01*
X-38308403Y10471078D01*
X-38310592Y10451498D01*
X-38314272Y10431385D01*
X-38319834Y10409795D01*
X-38327669Y10385781D01*
X-38338170Y10358396D01*
X-38351727Y10326696D01*
X-38368734Y10289734D01*
X-38389580Y10246563D01*
X-38414658Y10196239D01*
X-38444359Y10137814D01*
X-38479075Y10070344D01*
X-38519197Y9992881D01*
X-38532984Y9966325D01*
X-38565542Y9903751D01*
X-38596572Y9844337D01*
X-38625548Y9789076D01*
X-38651947Y9738957D01*
X-38675241Y9694973D01*
X-38694906Y9658115D01*
X-38710416Y9629374D01*
X-38721247Y9609741D01*
X-38726873Y9600207D01*
X-38727316Y9599613D01*
X-38742310Y9590725D01*
X-38761429Y9589136D01*
X-38778336Y9595091D01*
X-38781213Y9597521D01*
X-38787131Y9606090D01*
X-38798241Y9624791D01*
X-38813929Y9652459D01*
X-38833581Y9687930D01*
X-38856584Y9730042D01*
X-38882322Y9777630D01*
X-38910182Y9829532D01*
X-38939549Y9884582D01*
X-38969809Y9941618D01*
X-39000348Y9999476D01*
X-39030551Y10056992D01*
X-39059805Y10113003D01*
X-39087495Y10166345D01*
X-39113007Y10215855D01*
X-39135727Y10260368D01*
X-39155039Y10298721D01*
X-39170331Y10329751D01*
X-39180988Y10352294D01*
X-39186332Y10364997D01*
X-39206426Y10441397D01*
X-39214316Y10516965D01*
X-39213640Y10528758D01*
X-39076878Y10528758D01*
X-39073802Y10469476D01*
X-39060140Y10413459D01*
X-39036919Y10361733D01*
X-39005167Y10315324D01*
X-38965913Y10275259D01*
X-38920183Y10242565D01*
X-38869006Y10218268D01*
X-38813410Y10203394D01*
X-38754422Y10198970D01*
X-38693071Y10206023D01*
X-38685312Y10207757D01*
X-38624867Y10228085D01*
X-38571860Y10258381D01*
X-38527049Y10297814D01*
X-38491190Y10345550D01*
X-38465037Y10400760D01*
X-38449348Y10462611D01*
X-38448511Y10468223D01*
X-38445716Y10529554D01*
X-38454225Y10588057D01*
X-38472944Y10642683D01*
X-38500778Y10692385D01*
X-38536633Y10736114D01*
X-38579413Y10772822D01*
X-38628025Y10801460D01*
X-38681372Y10820980D01*
X-38738361Y10830334D01*
X-38797896Y10828472D01*
X-38820725Y10824655D01*
X-38884136Y10805923D01*
X-38939512Y10777652D01*
X-38986366Y10740303D01*
X-39024213Y10694336D01*
X-39052566Y10640210D01*
X-39068340Y10590278D01*
X-39076878Y10528758D01*
X-39213640Y10528758D01*
X-39210074Y10590868D01*
X-39193768Y10662271D01*
X-39165471Y10730341D01*
X-39153729Y10751562D01*
X-39111337Y10811533D01*
X-39060217Y10863107D01*
X-39001682Y10905202D01*
X-38937045Y10936734D01*
X-38923073Y10941825D01*
X-38848891Y10962312D01*
X-38778083Y10971120D01*
X-38708971Y10968140D01*
G36*
X-25774650Y9893300D02*
X-26187400Y9893300D01*
X-26187400Y10242550D01*
X-25774650Y10242550D01*
X-25774650Y9893300D01*
X-25774650Y9893300D01*
G37*
X-25774650Y9893300D02*
X-26187400Y9893300D01*
X-26187400Y10242550D01*
X-25774650Y10242550D01*
X-25774650Y9893300D01*
G36*
X-24980900Y10257513D02*
X-24931516Y10257092D01*
X-24891432Y10255708D01*
X-24857263Y10252966D01*
X-24825622Y10248471D01*
X-24793122Y10241827D01*
X-24756378Y10232640D01*
X-24747538Y10230278D01*
X-24720550Y10223011D01*
X-24720550Y10057476D01*
X-24720597Y10007371D01*
X-24720800Y9968583D01*
X-24721254Y9939732D01*
X-24722056Y9919435D01*
X-24723300Y9906310D01*
X-24725082Y9898976D01*
X-24727497Y9896051D01*
X-24730642Y9896152D01*
X-24731663Y9896533D01*
X-24764856Y9907506D01*
X-24805380Y9916809D01*
X-24847880Y9923417D01*
X-24886609Y9926292D01*
X-24932991Y9923842D01*
X-24969663Y9913862D01*
X-24997470Y9895560D01*
X-25017257Y9868148D01*
X-25029869Y9830834D01*
X-25035892Y9786691D01*
X-25039630Y9734776D01*
X-24883027Y9733076D01*
X-24726424Y9731375D01*
X-24726424Y9413875D01*
X-25031700Y9410475D01*
X-25031700Y8382000D01*
X-25425400Y8382000D01*
X-25425400Y9410700D01*
X-25584150Y9410700D01*
X-25584150Y9734550D01*
X-25427126Y9734550D01*
X-25423830Y9828213D01*
X-25421682Y9869177D01*
X-25418329Y9909027D01*
X-25414162Y9943880D01*
X-25409650Y9969500D01*
X-25388669Y10037335D01*
X-25358721Y10096186D01*
X-25319693Y10146175D01*
X-25271467Y10187422D01*
X-25213929Y10220049D01*
X-25146962Y10244176D01*
X-25146912Y10244190D01*
X-25127231Y10249178D01*
X-25107875Y10252781D01*
X-25086250Y10255208D01*
X-25059762Y10256667D01*
X-25025815Y10257366D01*
X-24981815Y10257514D01*
X-24980900Y10257513D01*
X-24980900Y10257513D01*
G37*
X-24980900Y10257513D02*
X-24931516Y10257092D01*
X-24891432Y10255708D01*
X-24857263Y10252966D01*
X-24825622Y10248471D01*
X-24793122Y10241827D01*
X-24756378Y10232640D01*
X-24747538Y10230278D01*
X-24720550Y10223011D01*
X-24720550Y10057476D01*
X-24720597Y10007371D01*
X-24720800Y9968583D01*
X-24721254Y9939732D01*
X-24722056Y9919435D01*
X-24723300Y9906310D01*
X-24725082Y9898976D01*
X-24727497Y9896051D01*
X-24730642Y9896152D01*
X-24731663Y9896533D01*
X-24764856Y9907506D01*
X-24805380Y9916809D01*
X-24847880Y9923417D01*
X-24886609Y9926292D01*
X-24932991Y9923842D01*
X-24969663Y9913862D01*
X-24997470Y9895560D01*
X-25017257Y9868148D01*
X-25029869Y9830834D01*
X-25035892Y9786691D01*
X-25039630Y9734776D01*
X-24883027Y9733076D01*
X-24726424Y9731375D01*
X-24726424Y9413875D01*
X-25031700Y9410475D01*
X-25031700Y8382000D01*
X-25425400Y8382000D01*
X-25425400Y9410700D01*
X-25584150Y9410700D01*
X-25584150Y9734550D01*
X-25427126Y9734550D01*
X-25423830Y9828213D01*
X-25421682Y9869177D01*
X-25418329Y9909027D01*
X-25414162Y9943880D01*
X-25409650Y9969500D01*
X-25388669Y10037335D01*
X-25358721Y10096186D01*
X-25319693Y10146175D01*
X-25271467Y10187422D01*
X-25213929Y10220049D01*
X-25146962Y10244176D01*
X-25146912Y10244190D01*
X-25127231Y10249178D01*
X-25107875Y10252781D01*
X-25086250Y10255208D01*
X-25059762Y10256667D01*
X-25025815Y10257366D01*
X-24981815Y10257514D01*
X-24980900Y10257513D01*
G36*
X-25785704Y9066213D02*
X-25787232Y8385175D01*
X-25984141Y8383498D01*
X-26181050Y8381820D01*
X-26181050Y9747250D01*
X-25982613Y9747251D01*
X-25784175Y9747251D01*
X-25785704Y9066213D01*
X-25785704Y9066213D01*
G37*
X-25785704Y9066213D02*
X-25787232Y8385175D01*
X-25984141Y8383498D01*
X-26181050Y8381820D01*
X-26181050Y9747250D01*
X-25982613Y9747251D01*
X-25784175Y9747251D01*
X-25785704Y9066213D01*
G36*
X-27867129Y9775297D02*
X-27851100Y9771274D01*
X-27851100Y9367997D01*
X-27904702Y9363648D01*
X-27980724Y9352489D01*
X-28048162Y9331985D01*
X-28107137Y9302037D01*
X-28157771Y9262547D01*
X-28200188Y9213414D01*
X-28234509Y9154539D01*
X-28260857Y9085823D01*
X-28265157Y9070975D01*
X-28268323Y9059027D01*
X-28270985Y9047315D01*
X-28273196Y9034633D01*
X-28275010Y9019771D01*
X-28276479Y9001520D01*
X-28277656Y8978673D01*
X-28278595Y8950020D01*
X-28279348Y8914352D01*
X-28279968Y8870462D01*
X-28280510Y8817141D01*
X-28281025Y8753180D01*
X-28281401Y8701088D01*
X-28283648Y8382000D01*
X-28676600Y8382000D01*
X-28676600Y9747250D01*
X-28282900Y9747250D01*
X-28282756Y9621838D01*
X-28282612Y9496425D01*
X-28261597Y9535410D01*
X-28224422Y9595419D01*
X-28181861Y9648393D01*
X-28135346Y9693007D01*
X-28086310Y9727935D01*
X-28036184Y9751852D01*
X-28023190Y9756091D01*
X-27996806Y9762589D01*
X-27965802Y9768314D01*
X-27933683Y9772835D01*
X-27903954Y9775722D01*
X-27880120Y9776542D01*
X-27867129Y9775297D01*
X-27867129Y9775297D01*
G37*
X-27867129Y9775297D02*
X-27851100Y9771274D01*
X-27851100Y9367997D01*
X-27904702Y9363648D01*
X-27980724Y9352489D01*
X-28048162Y9331985D01*
X-28107137Y9302037D01*
X-28157771Y9262547D01*
X-28200188Y9213414D01*
X-28234509Y9154539D01*
X-28260857Y9085823D01*
X-28265157Y9070975D01*
X-28268323Y9059027D01*
X-28270985Y9047315D01*
X-28273196Y9034633D01*
X-28275010Y9019771D01*
X-28276479Y9001520D01*
X-28277656Y8978673D01*
X-28278595Y8950020D01*
X-28279348Y8914352D01*
X-28279968Y8870462D01*
X-28280510Y8817141D01*
X-28281025Y8753180D01*
X-28281401Y8701088D01*
X-28283648Y8382000D01*
X-28676600Y8382000D01*
X-28676600Y9747250D01*
X-28282900Y9747250D01*
X-28282756Y9621838D01*
X-28282612Y9496425D01*
X-28261597Y9535410D01*
X-28224422Y9595419D01*
X-28181861Y9648393D01*
X-28135346Y9693007D01*
X-28086310Y9727935D01*
X-28036184Y9751852D01*
X-28023190Y9756091D01*
X-27996806Y9762589D01*
X-27965802Y9768314D01*
X-27933683Y9772835D01*
X-27903954Y9775722D01*
X-27880120Y9776542D01*
X-27867129Y9775297D01*
G36*
X-32041914Y9769290D02*
X-32010397Y9768557D01*
X-31986070Y9767014D01*
X-31966183Y9764398D01*
X-31947981Y9760446D01*
X-31928711Y9754895D01*
X-31927800Y9754611D01*
X-31870767Y9733306D01*
X-31822147Y9706884D01*
X-31777958Y9673002D01*
X-31758944Y9655175D01*
X-31711864Y9599822D01*
X-31674395Y9536287D01*
X-31646668Y9464837D01*
X-31629567Y9390458D01*
X-31628273Y9375916D01*
X-31627102Y9349243D01*
X-31626059Y9311006D01*
X-31625153Y9261776D01*
X-31624390Y9202119D01*
X-31623778Y9132604D01*
X-31623324Y9053801D01*
X-31623035Y8966276D01*
X-31622919Y8870598D01*
X-31622918Y8867775D01*
X-31622808Y8385175D01*
X-31819754Y8383498D01*
X-32016700Y8381820D01*
X-32016700Y8796501D01*
X-32016719Y8883074D01*
X-32016815Y8957941D01*
X-32017052Y9022097D01*
X-32017489Y9076536D01*
X-32018189Y9122252D01*
X-32019213Y9160239D01*
X-32020624Y9191493D01*
X-32022482Y9217006D01*
X-32024850Y9237774D01*
X-32027788Y9254790D01*
X-32031359Y9269049D01*
X-32035624Y9281546D01*
X-32040645Y9293274D01*
X-32046482Y9305227D01*
X-32048463Y9309126D01*
X-32073407Y9345197D01*
X-32107878Y9376355D01*
X-32143151Y9397235D01*
X-32161189Y9404983D01*
X-32177861Y9409896D01*
X-32196983Y9412597D01*
X-32222369Y9413705D01*
X-32245300Y9413865D01*
X-32277199Y9413486D01*
X-32300217Y9411935D01*
X-32318159Y9408597D01*
X-32334832Y9402854D01*
X-32347190Y9397353D01*
X-32390237Y9372229D01*
X-32423098Y9341463D01*
X-32443869Y9310650D01*
X-32450853Y9297638D01*
X-32456881Y9285441D01*
X-32462022Y9273059D01*
X-32466348Y9259490D01*
X-32469929Y9243732D01*
X-32472836Y9224786D01*
X-32475138Y9201650D01*
X-32476906Y9173323D01*
X-32478211Y9138804D01*
X-32479123Y9097091D01*
X-32479712Y9047185D01*
X-32480049Y8988083D01*
X-32480204Y8918786D01*
X-32480248Y8838291D01*
X-32480250Y8793416D01*
X-32480250Y8382000D01*
X-32873950Y8382000D01*
X-32873950Y9747250D01*
X-32480250Y9747250D01*
X-32480262Y9659938D01*
X-32480273Y9572625D01*
X-32418096Y9632950D01*
X-32377786Y9670188D01*
X-32341531Y9699097D01*
X-32306149Y9721787D01*
X-32268460Y9740368D01*
X-32237900Y9752462D01*
X-32219906Y9758753D01*
X-32203988Y9763271D01*
X-32187499Y9766307D01*
X-32167790Y9768153D01*
X-32142215Y9769101D01*
X-32108126Y9769441D01*
X-32083375Y9769475D01*
X-32041914Y9769290D01*
X-32041914Y9769290D01*
G37*
X-32041914Y9769290D02*
X-32010397Y9768557D01*
X-31986070Y9767014D01*
X-31966183Y9764398D01*
X-31947981Y9760446D01*
X-31928711Y9754895D01*
X-31927800Y9754611D01*
X-31870767Y9733306D01*
X-31822147Y9706884D01*
X-31777958Y9673002D01*
X-31758944Y9655175D01*
X-31711864Y9599822D01*
X-31674395Y9536287D01*
X-31646668Y9464837D01*
X-31629567Y9390458D01*
X-31628273Y9375916D01*
X-31627102Y9349243D01*
X-31626059Y9311006D01*
X-31625153Y9261776D01*
X-31624390Y9202119D01*
X-31623778Y9132604D01*
X-31623324Y9053801D01*
X-31623035Y8966276D01*
X-31622919Y8870598D01*
X-31622918Y8867775D01*
X-31622808Y8385175D01*
X-31819754Y8383498D01*
X-32016700Y8381820D01*
X-32016700Y8796501D01*
X-32016719Y8883074D01*
X-32016815Y8957941D01*
X-32017052Y9022097D01*
X-32017489Y9076536D01*
X-32018189Y9122252D01*
X-32019213Y9160239D01*
X-32020624Y9191493D01*
X-32022482Y9217006D01*
X-32024850Y9237774D01*
X-32027788Y9254790D01*
X-32031359Y9269049D01*
X-32035624Y9281546D01*
X-32040645Y9293274D01*
X-32046482Y9305227D01*
X-32048463Y9309126D01*
X-32073407Y9345197D01*
X-32107878Y9376355D01*
X-32143151Y9397235D01*
X-32161189Y9404983D01*
X-32177861Y9409896D01*
X-32196983Y9412597D01*
X-32222369Y9413705D01*
X-32245300Y9413865D01*
X-32277199Y9413486D01*
X-32300217Y9411935D01*
X-32318159Y9408597D01*
X-32334832Y9402854D01*
X-32347190Y9397353D01*
X-32390237Y9372229D01*
X-32423098Y9341463D01*
X-32443869Y9310650D01*
X-32450853Y9297638D01*
X-32456881Y9285441D01*
X-32462022Y9273059D01*
X-32466348Y9259490D01*
X-32469929Y9243732D01*
X-32472836Y9224786D01*
X-32475138Y9201650D01*
X-32476906Y9173323D01*
X-32478211Y9138804D01*
X-32479123Y9097091D01*
X-32479712Y9047185D01*
X-32480049Y8988083D01*
X-32480204Y8918786D01*
X-32480248Y8838291D01*
X-32480250Y8793416D01*
X-32480250Y8382000D01*
X-32873950Y8382000D01*
X-32873950Y9747250D01*
X-32480250Y9747250D01*
X-32480262Y9659938D01*
X-32480273Y9572625D01*
X-32418096Y9632950D01*
X-32377786Y9670188D01*
X-32341531Y9699097D01*
X-32306149Y9721787D01*
X-32268460Y9740368D01*
X-32237900Y9752462D01*
X-32219906Y9758753D01*
X-32203988Y9763271D01*
X-32187499Y9766307D01*
X-32167790Y9768153D01*
X-32142215Y9769101D01*
X-32108126Y9769441D01*
X-32083375Y9769475D01*
X-32041914Y9769290D01*
G36*
X-26335132Y9710738D02*
X-26339291Y9699985D01*
X-26347756Y9678216D01*
X-26360210Y9646243D01*
X-26376337Y9604878D01*
X-26395818Y9554934D01*
X-26418338Y9497222D01*
X-26443579Y9432555D01*
X-26471224Y9361746D01*
X-26500956Y9285606D01*
X-26532458Y9204948D01*
X-26565413Y9120584D01*
X-26599504Y9033327D01*
X-26603403Y9023350D01*
X-26857724Y8372475D01*
X-27037074Y8370789D01*
X-27089637Y8370342D01*
X-27130903Y8370154D01*
X-27162272Y8370298D01*
X-27185145Y8370846D01*
X-27200925Y8371871D01*
X-27211011Y8373446D01*
X-27216804Y8375643D01*
X-27219707Y8378536D01*
X-27220530Y8380314D01*
X-27223339Y8387599D01*
X-27230472Y8405953D01*
X-27241633Y8434619D01*
X-27256525Y8472836D01*
X-27274853Y8519844D01*
X-27296320Y8574885D01*
X-27320629Y8637198D01*
X-27347485Y8706024D01*
X-27376591Y8780605D01*
X-27407651Y8860179D01*
X-27440369Y8943987D01*
X-27474448Y9031271D01*
X-27487068Y9063592D01*
X-27521498Y9151814D01*
X-27554609Y9236756D01*
X-27586109Y9317665D01*
X-27615709Y9393791D01*
X-27643118Y9464381D01*
X-27668043Y9528685D01*
X-27690196Y9585952D01*
X-27709284Y9635430D01*
X-27725017Y9676367D01*
X-27737105Y9708013D01*
X-27745255Y9729616D01*
X-27749179Y9740425D01*
X-27749500Y9741541D01*
X-27743323Y9743084D01*
X-27725471Y9744326D01*
X-27696970Y9745246D01*
X-27658843Y9745822D01*
X-27612114Y9746035D01*
X-27557805Y9745864D01*
X-27542065Y9745750D01*
X-27334630Y9744075D01*
X-27185635Y9297085D01*
X-27158490Y9215949D01*
X-27133366Y9141453D01*
X-27110486Y9074236D01*
X-27090076Y9014939D01*
X-27072359Y8964200D01*
X-27057560Y8922659D01*
X-27045903Y8890955D01*
X-27037612Y8869728D01*
X-27032912Y8859616D01*
X-27031974Y8858935D01*
X-27029234Y8866267D01*
X-27022786Y8884671D01*
X-27012961Y8913180D01*
X-27000086Y8950824D01*
X-26984492Y8996635D01*
X-26966507Y9049645D01*
X-26946461Y9108884D01*
X-26924683Y9173384D01*
X-26901502Y9242177D01*
X-26879525Y9307513D01*
X-26731742Y9747250D01*
X-26321183Y9747250D01*
X-26335132Y9710738D01*
X-26335132Y9710738D01*
G37*
X-26335132Y9710738D02*
X-26339291Y9699985D01*
X-26347756Y9678216D01*
X-26360210Y9646243D01*
X-26376337Y9604878D01*
X-26395818Y9554934D01*
X-26418338Y9497222D01*
X-26443579Y9432555D01*
X-26471224Y9361746D01*
X-26500956Y9285606D01*
X-26532458Y9204948D01*
X-26565413Y9120584D01*
X-26599504Y9033327D01*
X-26603403Y9023350D01*
X-26857724Y8372475D01*
X-27037074Y8370789D01*
X-27089637Y8370342D01*
X-27130903Y8370154D01*
X-27162272Y8370298D01*
X-27185145Y8370846D01*
X-27200925Y8371871D01*
X-27211011Y8373446D01*
X-27216804Y8375643D01*
X-27219707Y8378536D01*
X-27220530Y8380314D01*
X-27223339Y8387599D01*
X-27230472Y8405953D01*
X-27241633Y8434619D01*
X-27256525Y8472836D01*
X-27274853Y8519844D01*
X-27296320Y8574885D01*
X-27320629Y8637198D01*
X-27347485Y8706024D01*
X-27376591Y8780605D01*
X-27407651Y8860179D01*
X-27440369Y8943987D01*
X-27474448Y9031271D01*
X-27487068Y9063592D01*
X-27521498Y9151814D01*
X-27554609Y9236756D01*
X-27586109Y9317665D01*
X-27615709Y9393791D01*
X-27643118Y9464381D01*
X-27668043Y9528685D01*
X-27690196Y9585952D01*
X-27709284Y9635430D01*
X-27725017Y9676367D01*
X-27737105Y9708013D01*
X-27745255Y9729616D01*
X-27749179Y9740425D01*
X-27749500Y9741541D01*
X-27743323Y9743084D01*
X-27725471Y9744326D01*
X-27696970Y9745246D01*
X-27658843Y9745822D01*
X-27612114Y9746035D01*
X-27557805Y9745864D01*
X-27542065Y9745750D01*
X-27334630Y9744075D01*
X-27185635Y9297085D01*
X-27158490Y9215949D01*
X-27133366Y9141453D01*
X-27110486Y9074236D01*
X-27090076Y9014939D01*
X-27072359Y8964200D01*
X-27057560Y8922659D01*
X-27045903Y8890955D01*
X-27037612Y8869728D01*
X-27032912Y8859616D01*
X-27031974Y8858935D01*
X-27029234Y8866267D01*
X-27022786Y8884671D01*
X-27012961Y8913180D01*
X-27000086Y8950824D01*
X-26984492Y8996635D01*
X-26966507Y9049645D01*
X-26946461Y9108884D01*
X-26924683Y9173384D01*
X-26901502Y9242177D01*
X-26879525Y9307513D01*
X-26731742Y9747250D01*
X-26321183Y9747250D01*
X-26335132Y9710738D01*
G36*
X-30844133Y9768808D02*
X-30756192Y9759197D01*
X-30665341Y9739962D01*
X-30572358Y9710918D01*
X-30568900Y9709657D01*
X-30542175Y9698966D01*
X-30511679Y9685335D01*
X-30479787Y9669999D01*
X-30448877Y9654191D01*
X-30421321Y9639143D01*
X-30399496Y9626089D01*
X-30385777Y9616263D01*
X-30382731Y9612996D01*
X-30383295Y9605129D01*
X-30389635Y9588355D01*
X-30401970Y9562212D01*
X-30420519Y9526241D01*
X-30445500Y9479980D01*
X-30448722Y9474113D01*
X-30469046Y9437203D01*
X-30487306Y9404134D01*
X-30502624Y9376488D01*
X-30514120Y9355852D01*
X-30520915Y9343809D01*
X-30522372Y9341363D01*
X-30528511Y9343033D01*
X-30544045Y9349394D01*
X-30566957Y9359562D01*
X-30595232Y9372655D01*
X-30611780Y9380516D01*
X-30647149Y9396944D01*
X-30683210Y9412810D01*
X-30716270Y9426542D01*
X-30742635Y9436573D01*
X-30747986Y9438397D01*
X-30804920Y9454033D01*
X-30857851Y9462613D01*
X-30905726Y9464369D01*
X-30947492Y9459535D01*
X-30982093Y9448344D01*
X-31008478Y9431030D01*
X-31025591Y9407825D01*
X-31032379Y9378964D01*
X-31032450Y9375406D01*
X-31028788Y9349933D01*
X-31016631Y9329374D01*
X-30996841Y9311967D01*
X-30965219Y9292800D01*
X-30921603Y9271797D01*
X-30865827Y9248879D01*
X-30797729Y9223971D01*
X-30778450Y9217319D01*
X-30701790Y9189948D01*
X-30636426Y9163931D01*
X-30581107Y9138680D01*
X-30534579Y9113607D01*
X-30495589Y9088123D01*
X-30482932Y9078559D01*
X-30434116Y9034439D01*
X-30396839Y8987336D01*
X-30370382Y8935739D01*
X-30354030Y8878138D01*
X-30347062Y8813022D01*
X-30346695Y8791829D01*
X-30352168Y8715011D01*
X-30368335Y8644934D01*
X-30394992Y8581822D01*
X-30431929Y8525902D01*
X-30478940Y8477401D01*
X-30535819Y8436543D01*
X-30602357Y8403556D01*
X-30678348Y8378666D01*
X-30736420Y8366289D01*
X-30765929Y8362614D01*
X-30804095Y8359853D01*
X-30847038Y8358092D01*
X-30890874Y8357415D01*
X-30931721Y8357908D01*
X-30965698Y8359656D01*
X-30978475Y8360973D01*
X-31053829Y8374303D01*
X-31132707Y8394625D01*
X-31209717Y8420352D01*
X-31277612Y8449009D01*
X-31302172Y8461570D01*
X-31330659Y8477462D01*
X-31360776Y8495244D01*
X-31390224Y8513474D01*
X-31416704Y8530711D01*
X-31437918Y8545513D01*
X-31451567Y8556438D01*
X-31455023Y8560283D01*
X-31452617Y8566743D01*
X-31444347Y8581976D01*
X-31431362Y8604163D01*
X-31414812Y8631488D01*
X-31395846Y8662133D01*
X-31375612Y8694283D01*
X-31355259Y8726119D01*
X-31335938Y8755826D01*
X-31318796Y8781586D01*
X-31304982Y8801583D01*
X-31295646Y8813999D01*
X-31292616Y8817089D01*
X-31285626Y8815101D01*
X-31270300Y8807427D01*
X-31248946Y8795309D01*
X-31225506Y8781015D01*
X-31150516Y8738608D01*
X-31073646Y8704009D01*
X-30998748Y8678953D01*
X-30998574Y8678906D01*
X-30970566Y8672247D01*
X-30942755Y8667953D01*
X-30911071Y8665594D01*
X-30871442Y8664740D01*
X-30864175Y8664715D01*
X-30829254Y8664871D01*
X-30804210Y8665723D01*
X-30786222Y8667641D01*
X-30772472Y8670995D01*
X-30760140Y8676155D01*
X-30754389Y8679119D01*
X-30726071Y8700375D01*
X-30708485Y8727723D01*
X-30702278Y8760148D01*
X-30702274Y8760926D01*
X-30705667Y8783708D01*
X-30716551Y8804098D01*
X-30735922Y8822826D01*
X-30764776Y8840618D01*
X-30804106Y8858201D01*
X-30854908Y8876304D01*
X-30864175Y8879299D01*
X-30925084Y8898795D01*
X-30975254Y8914948D01*
X-31016061Y8928231D01*
X-31048879Y8939116D01*
X-31075082Y8948074D01*
X-31096047Y8955579D01*
X-31113148Y8962101D01*
X-31127760Y8968114D01*
X-31141258Y8974089D01*
X-31144350Y8975508D01*
X-31213478Y9013296D01*
X-31271930Y9057948D01*
X-31300386Y9086378D01*
X-31335606Y9131205D01*
X-31361106Y9178068D01*
X-31377723Y9229340D01*
X-31386295Y9287393D01*
X-31387957Y9334247D01*
X-31384886Y9396885D01*
X-31375419Y9451444D01*
X-31358888Y9501181D01*
X-31349508Y9521762D01*
X-31312865Y9582389D01*
X-31267086Y9634891D01*
X-31212949Y9679082D01*
X-31151232Y9714774D01*
X-31082714Y9741780D01*
X-31008173Y9759913D01*
X-30928386Y9768985D01*
X-30844133Y9768808D01*
X-30844133Y9768808D01*
G37*
X-30844133Y9768808D02*
X-30756192Y9759197D01*
X-30665341Y9739962D01*
X-30572358Y9710918D01*
X-30568900Y9709657D01*
X-30542175Y9698966D01*
X-30511679Y9685335D01*
X-30479787Y9669999D01*
X-30448877Y9654191D01*
X-30421321Y9639143D01*
X-30399496Y9626089D01*
X-30385777Y9616263D01*
X-30382731Y9612996D01*
X-30383295Y9605129D01*
X-30389635Y9588355D01*
X-30401970Y9562212D01*
X-30420519Y9526241D01*
X-30445500Y9479980D01*
X-30448722Y9474113D01*
X-30469046Y9437203D01*
X-30487306Y9404134D01*
X-30502624Y9376488D01*
X-30514120Y9355852D01*
X-30520915Y9343809D01*
X-30522372Y9341363D01*
X-30528511Y9343033D01*
X-30544045Y9349394D01*
X-30566957Y9359562D01*
X-30595232Y9372655D01*
X-30611780Y9380516D01*
X-30647149Y9396944D01*
X-30683210Y9412810D01*
X-30716270Y9426542D01*
X-30742635Y9436573D01*
X-30747986Y9438397D01*
X-30804920Y9454033D01*
X-30857851Y9462613D01*
X-30905726Y9464369D01*
X-30947492Y9459535D01*
X-30982093Y9448344D01*
X-31008478Y9431030D01*
X-31025591Y9407825D01*
X-31032379Y9378964D01*
X-31032450Y9375406D01*
X-31028788Y9349933D01*
X-31016631Y9329374D01*
X-30996841Y9311967D01*
X-30965219Y9292800D01*
X-30921603Y9271797D01*
X-30865827Y9248879D01*
X-30797729Y9223971D01*
X-30778450Y9217319D01*
X-30701790Y9189948D01*
X-30636426Y9163931D01*
X-30581107Y9138680D01*
X-30534579Y9113607D01*
X-30495589Y9088123D01*
X-30482932Y9078559D01*
X-30434116Y9034439D01*
X-30396839Y8987336D01*
X-30370382Y8935739D01*
X-30354030Y8878138D01*
X-30347062Y8813022D01*
X-30346695Y8791829D01*
X-30352168Y8715011D01*
X-30368335Y8644934D01*
X-30394992Y8581822D01*
X-30431929Y8525902D01*
X-30478940Y8477401D01*
X-30535819Y8436543D01*
X-30602357Y8403556D01*
X-30678348Y8378666D01*
X-30736420Y8366289D01*
X-30765929Y8362614D01*
X-30804095Y8359853D01*
X-30847038Y8358092D01*
X-30890874Y8357415D01*
X-30931721Y8357908D01*
X-30965698Y8359656D01*
X-30978475Y8360973D01*
X-31053829Y8374303D01*
X-31132707Y8394625D01*
X-31209717Y8420352D01*
X-31277612Y8449009D01*
X-31302172Y8461570D01*
X-31330659Y8477462D01*
X-31360776Y8495244D01*
X-31390224Y8513474D01*
X-31416704Y8530711D01*
X-31437918Y8545513D01*
X-31451567Y8556438D01*
X-31455023Y8560283D01*
X-31452617Y8566743D01*
X-31444347Y8581976D01*
X-31431362Y8604163D01*
X-31414812Y8631488D01*
X-31395846Y8662133D01*
X-31375612Y8694283D01*
X-31355259Y8726119D01*
X-31335938Y8755826D01*
X-31318796Y8781586D01*
X-31304982Y8801583D01*
X-31295646Y8813999D01*
X-31292616Y8817089D01*
X-31285626Y8815101D01*
X-31270300Y8807427D01*
X-31248946Y8795309D01*
X-31225506Y8781015D01*
X-31150516Y8738608D01*
X-31073646Y8704009D01*
X-30998748Y8678953D01*
X-30998574Y8678906D01*
X-30970566Y8672247D01*
X-30942755Y8667953D01*
X-30911071Y8665594D01*
X-30871442Y8664740D01*
X-30864175Y8664715D01*
X-30829254Y8664871D01*
X-30804210Y8665723D01*
X-30786222Y8667641D01*
X-30772472Y8670995D01*
X-30760140Y8676155D01*
X-30754389Y8679119D01*
X-30726071Y8700375D01*
X-30708485Y8727723D01*
X-30702278Y8760148D01*
X-30702274Y8760926D01*
X-30705667Y8783708D01*
X-30716551Y8804098D01*
X-30735922Y8822826D01*
X-30764776Y8840618D01*
X-30804106Y8858201D01*
X-30854908Y8876304D01*
X-30864175Y8879299D01*
X-30925084Y8898795D01*
X-30975254Y8914948D01*
X-31016061Y8928231D01*
X-31048879Y8939116D01*
X-31075082Y8948074D01*
X-31096047Y8955579D01*
X-31113148Y8962101D01*
X-31127760Y8968114D01*
X-31141258Y8974089D01*
X-31144350Y8975508D01*
X-31213478Y9013296D01*
X-31271930Y9057948D01*
X-31300386Y9086378D01*
X-31335606Y9131205D01*
X-31361106Y9178068D01*
X-31377723Y9229340D01*
X-31386295Y9287393D01*
X-31387957Y9334247D01*
X-31384886Y9396885D01*
X-31375419Y9451444D01*
X-31358888Y9501181D01*
X-31349508Y9521762D01*
X-31312865Y9582389D01*
X-31267086Y9634891D01*
X-31212949Y9679082D01*
X-31151232Y9714774D01*
X-31082714Y9741780D01*
X-31008173Y9759913D01*
X-30928386Y9768985D01*
X-30844133Y9768808D01*
G36*
X-29496499Y9770648D02*
X-29445104Y9766921D01*
X-29399386Y9761184D01*
X-29365575Y9754258D01*
X-29282280Y9725874D01*
X-29205813Y9686975D01*
X-29136538Y9637972D01*
X-29074814Y9579278D01*
X-29021004Y9511308D01*
X-28975469Y9434474D01*
X-28938569Y9349189D01*
X-28910668Y9255866D01*
X-28904191Y9226776D01*
X-28900222Y9202462D01*
X-28896543Y9170651D01*
X-28893273Y9133763D01*
X-28890534Y9094221D01*
X-28888446Y9054447D01*
X-28887131Y9016862D01*
X-28886708Y8983889D01*
X-28887300Y8957949D01*
X-28889026Y8941465D01*
X-28889817Y8938635D01*
X-28891333Y8936649D01*
X-28894814Y8934927D01*
X-28901109Y8933452D01*
X-28911063Y8932204D01*
X-28925525Y8931165D01*
X-28945341Y8930315D01*
X-28971358Y8929636D01*
X-29004425Y8929110D01*
X-29045386Y8928717D01*
X-29095091Y8928439D01*
X-29154386Y8928258D01*
X-29224118Y8928153D01*
X-29305134Y8928108D01*
X-29366255Y8928100D01*
X-29442455Y8928080D01*
X-29514846Y8928020D01*
X-29582443Y8927923D01*
X-29644258Y8927794D01*
X-29699308Y8927636D01*
X-29746607Y8927452D01*
X-29785169Y8927244D01*
X-29814008Y8927017D01*
X-29832140Y8926774D01*
X-29838579Y8926519D01*
X-29838582Y8926513D01*
X-29835724Y8913623D01*
X-29828802Y8893074D01*
X-29819278Y8868640D01*
X-29808616Y8844098D01*
X-29799216Y8824958D01*
X-29765958Y8775431D01*
X-29724098Y8734943D01*
X-29674246Y8703793D01*
X-29617014Y8682277D01*
X-29553011Y8670693D01*
X-29482847Y8669339D01*
X-29480144Y8669488D01*
X-29410829Y8678915D01*
X-29345108Y8699273D01*
X-29281599Y8731131D01*
X-29218918Y8775057D01*
X-29214035Y8778999D01*
X-29178240Y8808157D01*
X-29067572Y8710966D01*
X-29036094Y8683057D01*
X-29008059Y8657694D01*
X-28984814Y8636136D01*
X-28967704Y8619645D01*
X-28958077Y8609479D01*
X-28956452Y8606987D01*
X-28960747Y8599172D01*
X-28972905Y8585016D01*
X-28991028Y8566303D01*
X-29013220Y8544817D01*
X-29037582Y8522343D01*
X-29062218Y8500665D01*
X-29085229Y8481567D01*
X-29104719Y8466833D01*
X-29107646Y8464823D01*
X-29184036Y8420937D01*
X-29267627Y8387049D01*
X-29357268Y8363589D01*
X-29397325Y8356822D01*
X-29434751Y8353219D01*
X-29480396Y8351435D01*
X-29529920Y8351413D01*
X-29578981Y8353096D01*
X-29623238Y8356428D01*
X-29651725Y8360150D01*
X-29744775Y8381588D01*
X-29830890Y8413564D01*
X-29910591Y8456336D01*
X-29984399Y8510162D01*
X-30020654Y8542636D01*
X-30082854Y8610755D01*
X-30134532Y8685912D01*
X-30175525Y8767799D01*
X-30205672Y8856109D01*
X-30220265Y8921750D01*
X-30224990Y8959665D01*
X-30227740Y9006020D01*
X-30228551Y9056872D01*
X-30227457Y9108277D01*
X-30224494Y9156294D01*
X-30222200Y9175750D01*
X-29843812Y9175750D01*
X-29558656Y9175750D01*
X-29490959Y9175775D01*
X-29434876Y9175877D01*
X-29389320Y9176100D01*
X-29353208Y9176484D01*
X-29325451Y9177073D01*
X-29304965Y9177909D01*
X-29290664Y9179034D01*
X-29281462Y9180491D01*
X-29276272Y9182322D01*
X-29274009Y9184568D01*
X-29273576Y9186863D01*
X-29276106Y9205386D01*
X-29282674Y9231274D01*
X-29292021Y9260349D01*
X-29302889Y9288433D01*
X-29306898Y9297425D01*
X-29336805Y9349595D01*
X-29373210Y9391110D01*
X-29416791Y9422604D01*
X-29462961Y9442989D01*
X-29485216Y9449593D01*
X-29506416Y9453374D01*
X-29530931Y9454797D01*
X-29563133Y9454324D01*
X-29568103Y9454148D01*
X-29599687Y9452556D01*
X-29622796Y9449934D01*
X-29641658Y9445375D01*
X-29660496Y9437972D01*
X-29674486Y9431327D01*
X-29720863Y9401532D01*
X-29761435Y9361101D01*
X-29795525Y9311015D01*
X-29822457Y9252258D01*
X-29840634Y9190038D01*
X-29843812Y9175750D01*
X-30222200Y9175750D01*
X-30219696Y9196978D01*
X-30217721Y9208098D01*
X-30193261Y9302153D01*
X-30158763Y9389537D01*
X-30114804Y9469648D01*
X-30061960Y9541884D01*
X-30000805Y9605642D01*
X-29931916Y9660320D01*
X-29855867Y9705317D01*
X-29773234Y9740031D01*
X-29686850Y9763407D01*
X-29648744Y9768744D01*
X-29601918Y9771662D01*
X-29549970Y9772263D01*
X-29496499Y9770648D01*
X-29496499Y9770648D01*
G37*
X-29496499Y9770648D02*
X-29445104Y9766921D01*
X-29399386Y9761184D01*
X-29365575Y9754258D01*
X-29282280Y9725874D01*
X-29205813Y9686975D01*
X-29136538Y9637972D01*
X-29074814Y9579278D01*
X-29021004Y9511308D01*
X-28975469Y9434474D01*
X-28938569Y9349189D01*
X-28910668Y9255866D01*
X-28904191Y9226776D01*
X-28900222Y9202462D01*
X-28896543Y9170651D01*
X-28893273Y9133763D01*
X-28890534Y9094221D01*
X-28888446Y9054447D01*
X-28887131Y9016862D01*
X-28886708Y8983889D01*
X-28887300Y8957949D01*
X-28889026Y8941465D01*
X-28889817Y8938635D01*
X-28891333Y8936649D01*
X-28894814Y8934927D01*
X-28901109Y8933452D01*
X-28911063Y8932204D01*
X-28925525Y8931165D01*
X-28945341Y8930315D01*
X-28971358Y8929636D01*
X-29004425Y8929110D01*
X-29045386Y8928717D01*
X-29095091Y8928439D01*
X-29154386Y8928258D01*
X-29224118Y8928153D01*
X-29305134Y8928108D01*
X-29366255Y8928100D01*
X-29442455Y8928080D01*
X-29514846Y8928020D01*
X-29582443Y8927923D01*
X-29644258Y8927794D01*
X-29699308Y8927636D01*
X-29746607Y8927452D01*
X-29785169Y8927244D01*
X-29814008Y8927017D01*
X-29832140Y8926774D01*
X-29838579Y8926519D01*
X-29838582Y8926513D01*
X-29835724Y8913623D01*
X-29828802Y8893074D01*
X-29819278Y8868640D01*
X-29808616Y8844098D01*
X-29799216Y8824958D01*
X-29765958Y8775431D01*
X-29724098Y8734943D01*
X-29674246Y8703793D01*
X-29617014Y8682277D01*
X-29553011Y8670693D01*
X-29482847Y8669339D01*
X-29480144Y8669488D01*
X-29410829Y8678915D01*
X-29345108Y8699273D01*
X-29281599Y8731131D01*
X-29218918Y8775057D01*
X-29214035Y8778999D01*
X-29178240Y8808157D01*
X-29067572Y8710966D01*
X-29036094Y8683057D01*
X-29008059Y8657694D01*
X-28984814Y8636136D01*
X-28967704Y8619645D01*
X-28958077Y8609479D01*
X-28956452Y8606987D01*
X-28960747Y8599172D01*
X-28972905Y8585016D01*
X-28991028Y8566303D01*
X-29013220Y8544817D01*
X-29037582Y8522343D01*
X-29062218Y8500665D01*
X-29085229Y8481567D01*
X-29104719Y8466833D01*
X-29107646Y8464823D01*
X-29184036Y8420937D01*
X-29267627Y8387049D01*
X-29357268Y8363589D01*
X-29397325Y8356822D01*
X-29434751Y8353219D01*
X-29480396Y8351435D01*
X-29529920Y8351413D01*
X-29578981Y8353096D01*
X-29623238Y8356428D01*
X-29651725Y8360150D01*
X-29744775Y8381588D01*
X-29830890Y8413564D01*
X-29910591Y8456336D01*
X-29984399Y8510162D01*
X-30020654Y8542636D01*
X-30082854Y8610755D01*
X-30134532Y8685912D01*
X-30175525Y8767799D01*
X-30205672Y8856109D01*
X-30220265Y8921750D01*
X-30224990Y8959665D01*
X-30227740Y9006020D01*
X-30228551Y9056872D01*
X-30227457Y9108277D01*
X-30224494Y9156294D01*
X-30222200Y9175750D01*
X-29843812Y9175750D01*
X-29558656Y9175750D01*
X-29490959Y9175775D01*
X-29434876Y9175877D01*
X-29389320Y9176100D01*
X-29353208Y9176484D01*
X-29325451Y9177073D01*
X-29304965Y9177909D01*
X-29290664Y9179034D01*
X-29281462Y9180491D01*
X-29276272Y9182322D01*
X-29274009Y9184568D01*
X-29273576Y9186863D01*
X-29276106Y9205386D01*
X-29282674Y9231274D01*
X-29292021Y9260349D01*
X-29302889Y9288433D01*
X-29306898Y9297425D01*
X-29336805Y9349595D01*
X-29373210Y9391110D01*
X-29416791Y9422604D01*
X-29462961Y9442989D01*
X-29485216Y9449593D01*
X-29506416Y9453374D01*
X-29530931Y9454797D01*
X-29563133Y9454324D01*
X-29568103Y9454148D01*
X-29599687Y9452556D01*
X-29622796Y9449934D01*
X-29641658Y9445375D01*
X-29660496Y9437972D01*
X-29674486Y9431327D01*
X-29720863Y9401532D01*
X-29761435Y9361101D01*
X-29795525Y9311015D01*
X-29822457Y9252258D01*
X-29840634Y9190038D01*
X-29843812Y9175750D01*
X-30222200Y9175750D01*
X-30219696Y9196978D01*
X-30217721Y9208098D01*
X-30193261Y9302153D01*
X-30158763Y9389537D01*
X-30114804Y9469648D01*
X-30061960Y9541884D01*
X-30000805Y9605642D01*
X-29931916Y9660320D01*
X-29855867Y9705317D01*
X-29773234Y9740031D01*
X-29686850Y9763407D01*
X-29648744Y9768744D01*
X-29601918Y9771662D01*
X-29549970Y9772263D01*
X-29496499Y9770648D01*
G36*
X-33741123Y9772050D02*
X-33691410Y9768075D01*
X-33656958Y9763077D01*
X-33561418Y9739303D01*
X-33472143Y9705248D01*
X-33389791Y9661463D01*
X-33315019Y9608501D01*
X-33248488Y9546914D01*
X-33190854Y9477254D01*
X-33142777Y9400074D01*
X-33104914Y9315926D01*
X-33096908Y9293225D01*
X-33074521Y9207483D01*
X-33062974Y9118594D01*
X-33062126Y9028597D01*
X-33071837Y8939532D01*
X-33091967Y8853437D01*
X-33122377Y8772351D01*
X-33134381Y8747550D01*
X-33183860Y8664518D01*
X-33242349Y8590348D01*
X-33309514Y8525304D01*
X-33385020Y8469649D01*
X-33468531Y8423647D01*
X-33559711Y8387562D01*
X-33611608Y8372398D01*
X-33640209Y8365507D01*
X-33666486Y8360560D01*
X-33693903Y8357165D01*
X-33725921Y8354929D01*
X-33766003Y8353459D01*
X-33782000Y8353066D01*
X-33839989Y8352601D01*
X-33887200Y8354144D01*
X-33925411Y8357772D01*
X-33938486Y8359809D01*
X-34033829Y8382554D01*
X-34122957Y8415750D01*
X-34205248Y8458748D01*
X-34280082Y8510896D01*
X-34346839Y8571542D01*
X-34404896Y8640037D01*
X-34453635Y8715729D01*
X-34492434Y8797966D01*
X-34520673Y8886100D01*
X-34537730Y8979477D01*
X-34538834Y8989428D01*
X-34541254Y9055736D01*
X-34152370Y9055736D01*
X-34145483Y8989970D01*
X-34128528Y8926977D01*
X-34101723Y8868567D01*
X-34065287Y8816555D01*
X-34056806Y8807018D01*
X-34018614Y8769732D01*
X-33980417Y8741411D01*
X-33937986Y8719047D01*
X-33925967Y8713930D01*
X-33879955Y8700303D01*
X-33827382Y8693217D01*
X-33772600Y8692723D01*
X-33719964Y8698870D01*
X-33675594Y8711030D01*
X-33616008Y8739845D01*
X-33564996Y8777531D01*
X-33523207Y8823515D01*
X-33493722Y8872125D01*
X-33473028Y8920213D01*
X-33459925Y8966000D01*
X-33453263Y9014583D01*
X-33451800Y9058275D01*
X-33456899Y9130450D01*
X-33472353Y9195559D01*
X-33498399Y9254211D01*
X-33535274Y9307014D01*
X-33558081Y9331646D01*
X-33609747Y9374355D01*
X-33666466Y9405831D01*
X-33727053Y9425907D01*
X-33790326Y9434414D01*
X-33855101Y9431183D01*
X-33920195Y9416047D01*
X-33979156Y9391558D01*
X-34006302Y9373748D01*
X-34035965Y9347743D01*
X-34065117Y9316775D01*
X-34090729Y9284073D01*
X-34109772Y9252869D01*
X-34110431Y9251540D01*
X-34135063Y9188334D01*
X-34148969Y9122461D01*
X-34152370Y9055736D01*
X-34541254Y9055736D01*
X-34542135Y9079857D01*
X-34533673Y9170580D01*
X-34513931Y9259653D01*
X-34483391Y9345130D01*
X-34442536Y9425068D01*
X-34423155Y9455439D01*
X-34396638Y9490542D01*
X-34363034Y9529173D01*
X-34325779Y9567751D01*
X-34288309Y9602692D01*
X-34258575Y9627068D01*
X-34194911Y9668916D01*
X-34122593Y9705830D01*
X-34045208Y9736264D01*
X-33966343Y9758672D01*
X-33941024Y9763962D01*
X-33899270Y9769608D01*
X-33849242Y9772829D01*
X-33795130Y9773639D01*
X-33741123Y9772050D01*
X-33741123Y9772050D01*
G37*
X-33741123Y9772050D02*
X-33691410Y9768075D01*
X-33656958Y9763077D01*
X-33561418Y9739303D01*
X-33472143Y9705248D01*
X-33389791Y9661463D01*
X-33315019Y9608501D01*
X-33248488Y9546914D01*
X-33190854Y9477254D01*
X-33142777Y9400074D01*
X-33104914Y9315926D01*
X-33096908Y9293225D01*
X-33074521Y9207483D01*
X-33062974Y9118594D01*
X-33062126Y9028597D01*
X-33071837Y8939532D01*
X-33091967Y8853437D01*
X-33122377Y8772351D01*
X-33134381Y8747550D01*
X-33183860Y8664518D01*
X-33242349Y8590348D01*
X-33309514Y8525304D01*
X-33385020Y8469649D01*
X-33468531Y8423647D01*
X-33559711Y8387562D01*
X-33611608Y8372398D01*
X-33640209Y8365507D01*
X-33666486Y8360560D01*
X-33693903Y8357165D01*
X-33725921Y8354929D01*
X-33766003Y8353459D01*
X-33782000Y8353066D01*
X-33839989Y8352601D01*
X-33887200Y8354144D01*
X-33925411Y8357772D01*
X-33938486Y8359809D01*
X-34033829Y8382554D01*
X-34122957Y8415750D01*
X-34205248Y8458748D01*
X-34280082Y8510896D01*
X-34346839Y8571542D01*
X-34404896Y8640037D01*
X-34453635Y8715729D01*
X-34492434Y8797966D01*
X-34520673Y8886100D01*
X-34537730Y8979477D01*
X-34538834Y8989428D01*
X-34541254Y9055736D01*
X-34152370Y9055736D01*
X-34145483Y8989970D01*
X-34128528Y8926977D01*
X-34101723Y8868567D01*
X-34065287Y8816555D01*
X-34056806Y8807018D01*
X-34018614Y8769732D01*
X-33980417Y8741411D01*
X-33937986Y8719047D01*
X-33925967Y8713930D01*
X-33879955Y8700303D01*
X-33827382Y8693217D01*
X-33772600Y8692723D01*
X-33719964Y8698870D01*
X-33675594Y8711030D01*
X-33616008Y8739845D01*
X-33564996Y8777531D01*
X-33523207Y8823515D01*
X-33493722Y8872125D01*
X-33473028Y8920213D01*
X-33459925Y8966000D01*
X-33453263Y9014583D01*
X-33451800Y9058275D01*
X-33456899Y9130450D01*
X-33472353Y9195559D01*
X-33498399Y9254211D01*
X-33535274Y9307014D01*
X-33558081Y9331646D01*
X-33609747Y9374355D01*
X-33666466Y9405831D01*
X-33727053Y9425907D01*
X-33790326Y9434414D01*
X-33855101Y9431183D01*
X-33920195Y9416047D01*
X-33979156Y9391558D01*
X-34006302Y9373748D01*
X-34035965Y9347743D01*
X-34065117Y9316775D01*
X-34090729Y9284073D01*
X-34109772Y9252869D01*
X-34110431Y9251540D01*
X-34135063Y9188334D01*
X-34148969Y9122461D01*
X-34152370Y9055736D01*
X-34541254Y9055736D01*
X-34542135Y9079857D01*
X-34533673Y9170580D01*
X-34513931Y9259653D01*
X-34483391Y9345130D01*
X-34442536Y9425068D01*
X-34423155Y9455439D01*
X-34396638Y9490542D01*
X-34363034Y9529173D01*
X-34325779Y9567751D01*
X-34288309Y9602692D01*
X-34258575Y9627068D01*
X-34194911Y9668916D01*
X-34122593Y9705830D01*
X-34045208Y9736264D01*
X-33966343Y9758672D01*
X-33941024Y9763962D01*
X-33899270Y9769608D01*
X-33849242Y9772829D01*
X-33795130Y9773639D01*
X-33741123Y9772050D01*
G36*
X-35048290Y9768934D02*
X-34961188Y9756257D01*
X-34881445Y9734753D01*
X-34807739Y9703919D01*
X-34738745Y9663252D01*
X-34673141Y9612250D01*
X-34640238Y9581781D01*
X-34599950Y9542429D01*
X-34637428Y9503552D01*
X-34654079Y9486127D01*
X-34677168Y9461753D01*
X-34704483Y9432777D01*
X-34733810Y9401545D01*
X-34759285Y9374316D01*
X-34843663Y9283956D01*
X-34887173Y9323393D01*
X-34936058Y9363958D01*
X-34982555Y9394104D01*
X-35029304Y9415073D01*
X-35078944Y9428108D01*
X-35121170Y9433552D01*
X-35185474Y9433009D01*
X-35245392Y9420551D01*
X-35300806Y9396221D01*
X-35351600Y9360066D01*
X-35377656Y9335018D01*
X-35418969Y9283054D01*
X-35449306Y9226042D01*
X-35468984Y9163130D01*
X-35478318Y9093469D01*
X-35479230Y9061450D01*
X-35473695Y8989626D01*
X-35457307Y8922855D01*
X-35430433Y8862080D01*
X-35393438Y8808245D01*
X-35372006Y8784961D01*
X-35326297Y8746486D01*
X-35277133Y8718802D01*
X-35222778Y8701242D01*
X-35161496Y8693139D01*
X-35131170Y8692400D01*
X-35070346Y8697569D01*
X-35012320Y8712981D01*
X-34955454Y8739284D01*
X-34898110Y8777130D01*
X-34878082Y8792849D01*
X-34858707Y8808489D01*
X-34842298Y8821462D01*
X-34832084Y8829220D01*
X-34831434Y8829675D01*
X-34826679Y8829832D01*
X-34818397Y8825242D01*
X-34805681Y8815091D01*
X-34787625Y8798564D01*
X-34763324Y8774847D01*
X-34731872Y8743126D01*
X-34708265Y8718961D01*
X-34594353Y8601896D01*
X-34631089Y8564581D01*
X-34683539Y8516379D01*
X-34741520Y8471976D01*
X-34802002Y8433352D01*
X-34861951Y8402486D01*
X-34905611Y8385328D01*
X-34959124Y8371059D01*
X-35021048Y8360335D01*
X-35087525Y8353419D01*
X-35154698Y8350573D01*
X-35218708Y8352061D01*
X-35275699Y8358146D01*
X-35283775Y8359539D01*
X-35374819Y8382160D01*
X-35461345Y8415488D01*
X-35542091Y8458768D01*
X-35615797Y8511244D01*
X-35681203Y8572159D01*
X-35724841Y8623975D01*
X-35775589Y8701381D01*
X-35815254Y8783321D01*
X-35843958Y8868656D01*
X-35861825Y8956247D01*
X-35868980Y9044954D01*
X-35865545Y9133636D01*
X-35851644Y9221155D01*
X-35827402Y9306370D01*
X-35792941Y9388143D01*
X-35748386Y9465332D01*
X-35693860Y9536799D01*
X-35629488Y9601403D01*
X-35617639Y9611567D01*
X-35543847Y9665879D01*
X-35465320Y9708900D01*
X-35381503Y9740819D01*
X-35291841Y9761827D01*
X-35195781Y9772111D01*
X-35144075Y9773288D01*
X-35048290Y9768934D01*
X-35048290Y9768934D01*
G37*
X-35048290Y9768934D02*
X-34961188Y9756257D01*
X-34881445Y9734753D01*
X-34807739Y9703919D01*
X-34738745Y9663252D01*
X-34673141Y9612250D01*
X-34640238Y9581781D01*
X-34599950Y9542429D01*
X-34637428Y9503552D01*
X-34654079Y9486127D01*
X-34677168Y9461753D01*
X-34704483Y9432777D01*
X-34733810Y9401545D01*
X-34759285Y9374316D01*
X-34843663Y9283956D01*
X-34887173Y9323393D01*
X-34936058Y9363958D01*
X-34982555Y9394104D01*
X-35029304Y9415073D01*
X-35078944Y9428108D01*
X-35121170Y9433552D01*
X-35185474Y9433009D01*
X-35245392Y9420551D01*
X-35300806Y9396221D01*
X-35351600Y9360066D01*
X-35377656Y9335018D01*
X-35418969Y9283054D01*
X-35449306Y9226042D01*
X-35468984Y9163130D01*
X-35478318Y9093469D01*
X-35479230Y9061450D01*
X-35473695Y8989626D01*
X-35457307Y8922855D01*
X-35430433Y8862080D01*
X-35393438Y8808245D01*
X-35372006Y8784961D01*
X-35326297Y8746486D01*
X-35277133Y8718802D01*
X-35222778Y8701242D01*
X-35161496Y8693139D01*
X-35131170Y8692400D01*
X-35070346Y8697569D01*
X-35012320Y8712981D01*
X-34955454Y8739284D01*
X-34898110Y8777130D01*
X-34878082Y8792849D01*
X-34858707Y8808489D01*
X-34842298Y8821462D01*
X-34832084Y8829220D01*
X-34831434Y8829675D01*
X-34826679Y8829832D01*
X-34818397Y8825242D01*
X-34805681Y8815091D01*
X-34787625Y8798564D01*
X-34763324Y8774847D01*
X-34731872Y8743126D01*
X-34708265Y8718961D01*
X-34594353Y8601896D01*
X-34631089Y8564581D01*
X-34683539Y8516379D01*
X-34741520Y8471976D01*
X-34802002Y8433352D01*
X-34861951Y8402486D01*
X-34905611Y8385328D01*
X-34959124Y8371059D01*
X-35021048Y8360335D01*
X-35087525Y8353419D01*
X-35154698Y8350573D01*
X-35218708Y8352061D01*
X-35275699Y8358146D01*
X-35283775Y8359539D01*
X-35374819Y8382160D01*
X-35461345Y8415488D01*
X-35542091Y8458768D01*
X-35615797Y8511244D01*
X-35681203Y8572159D01*
X-35724841Y8623975D01*
X-35775589Y8701381D01*
X-35815254Y8783321D01*
X-35843958Y8868656D01*
X-35861825Y8956247D01*
X-35868980Y9044954D01*
X-35865545Y9133636D01*
X-35851644Y9221155D01*
X-35827402Y9306370D01*
X-35792941Y9388143D01*
X-35748386Y9465332D01*
X-35693860Y9536799D01*
X-35629488Y9601403D01*
X-35617639Y9611567D01*
X-35543847Y9665879D01*
X-35465320Y9708900D01*
X-35381503Y9740819D01*
X-35291841Y9761827D01*
X-35195781Y9772111D01*
X-35144075Y9773288D01*
X-35048290Y9768934D01*
G36*
X-23345607Y9747176D02*
X-23300352Y9746965D01*
X-23260912Y9746635D01*
X-23228783Y9746204D01*
X-23205461Y9745692D01*
X-23192443Y9745116D01*
X-23190200Y9744747D01*
X-23192417Y9737517D01*
X-23198848Y9719295D01*
X-23209164Y9690944D01*
X-23223037Y9653332D01*
X-23240137Y9607324D01*
X-23260137Y9553787D01*
X-23282706Y9493587D01*
X-23307517Y9427589D01*
X-23334241Y9356659D01*
X-23362549Y9281664D01*
X-23392111Y9203470D01*
X-23422600Y9122942D01*
X-23453686Y9040947D01*
X-23485041Y8958351D01*
X-23516336Y8876020D01*
X-23547242Y8794819D01*
X-23577430Y8715615D01*
X-23606572Y8639274D01*
X-23634338Y8566662D01*
X-23660401Y8498645D01*
X-23684430Y8436089D01*
X-23706098Y8379860D01*
X-23725076Y8330824D01*
X-23741034Y8289846D01*
X-23753645Y8257794D01*
X-23762578Y8235533D01*
X-23767506Y8223929D01*
X-23767835Y8223250D01*
X-23807792Y8153008D01*
X-23851291Y8094727D01*
X-23898705Y8048075D01*
X-23950405Y8012715D01*
X-24006763Y7988313D01*
X-24037925Y7979867D01*
X-24083754Y7972318D01*
X-24136354Y7967765D01*
X-24190094Y7966472D01*
X-24239343Y7968705D01*
X-24250518Y7969872D01*
X-24316763Y7981540D01*
X-24383006Y8001261D01*
X-24403050Y8008695D01*
X-24429849Y8019671D01*
X-24456441Y8031648D01*
X-24480276Y8043341D01*
X-24498803Y8053468D01*
X-24509472Y8060748D01*
X-24511067Y8063004D01*
X-24508492Y8070908D01*
X-24501297Y8087991D01*
X-24490398Y8112344D01*
X-24476709Y8142059D01*
X-24461143Y8175228D01*
X-24444614Y8209942D01*
X-24428037Y8244292D01*
X-24412325Y8276369D01*
X-24398393Y8304265D01*
X-24387154Y8326071D01*
X-24379524Y8339878D01*
X-24376549Y8343900D01*
X-24368124Y8341221D01*
X-24352456Y8334326D01*
X-24339446Y8327973D01*
X-24287880Y8306814D01*
X-24237654Y8295830D01*
X-24190711Y8295328D01*
X-24164925Y8300188D01*
X-24144240Y8309863D01*
X-24122534Y8326118D01*
X-24103536Y8345491D01*
X-24090971Y8364519D01*
X-24088624Y8371078D01*
X-24090356Y8379625D01*
X-24096846Y8399946D01*
X-24108093Y8432040D01*
X-24124095Y8475905D01*
X-24144853Y8531541D01*
X-24170366Y8598945D01*
X-24200634Y8678116D01*
X-24235655Y8769055D01*
X-24275431Y8871758D01*
X-24319959Y8986225D01*
X-24348900Y9060404D01*
X-24383417Y9148836D01*
X-24416614Y9233989D01*
X-24448203Y9315113D01*
X-24477893Y9391459D01*
X-24505393Y9462277D01*
X-24530415Y9526817D01*
X-24552666Y9584330D01*
X-24571859Y9634066D01*
X-24587701Y9675277D01*
X-24599903Y9707212D01*
X-24608175Y9729121D01*
X-24612227Y9740256D01*
X-24612600Y9741528D01*
X-24606420Y9743081D01*
X-24588548Y9744328D01*
X-24559992Y9745251D01*
X-24521758Y9745827D01*
X-24474851Y9746037D01*
X-24420277Y9745860D01*
X-24405165Y9745750D01*
X-24197730Y9744075D01*
X-23893394Y8831055D01*
X-23789591Y9154215D01*
X-23768114Y9221112D01*
X-23746403Y9288797D01*
X-23725040Y9355452D01*
X-23704607Y9419263D01*
X-23685684Y9478414D01*
X-23668853Y9531088D01*
X-23654694Y9575471D01*
X-23643790Y9609745D01*
X-23642974Y9612313D01*
X-23600161Y9747250D01*
X-23395181Y9747250D01*
X-23345607Y9747176D01*
X-23345607Y9747176D01*
G37*
X-23345607Y9747176D02*
X-23300352Y9746965D01*
X-23260912Y9746635D01*
X-23228783Y9746204D01*
X-23205461Y9745692D01*
X-23192443Y9745116D01*
X-23190200Y9744747D01*
X-23192417Y9737517D01*
X-23198848Y9719295D01*
X-23209164Y9690944D01*
X-23223037Y9653332D01*
X-23240137Y9607324D01*
X-23260137Y9553787D01*
X-23282706Y9493587D01*
X-23307517Y9427589D01*
X-23334241Y9356659D01*
X-23362549Y9281664D01*
X-23392111Y9203470D01*
X-23422600Y9122942D01*
X-23453686Y9040947D01*
X-23485041Y8958351D01*
X-23516336Y8876020D01*
X-23547242Y8794819D01*
X-23577430Y8715615D01*
X-23606572Y8639274D01*
X-23634338Y8566662D01*
X-23660401Y8498645D01*
X-23684430Y8436089D01*
X-23706098Y8379860D01*
X-23725076Y8330824D01*
X-23741034Y8289846D01*
X-23753645Y8257794D01*
X-23762578Y8235533D01*
X-23767506Y8223929D01*
X-23767835Y8223250D01*
X-23807792Y8153008D01*
X-23851291Y8094727D01*
X-23898705Y8048075D01*
X-23950405Y8012715D01*
X-24006763Y7988313D01*
X-24037925Y7979867D01*
X-24083754Y7972318D01*
X-24136354Y7967765D01*
X-24190094Y7966472D01*
X-24239343Y7968705D01*
X-24250518Y7969872D01*
X-24316763Y7981540D01*
X-24383006Y8001261D01*
X-24403050Y8008695D01*
X-24429849Y8019671D01*
X-24456441Y8031648D01*
X-24480276Y8043341D01*
X-24498803Y8053468D01*
X-24509472Y8060748D01*
X-24511067Y8063004D01*
X-24508492Y8070908D01*
X-24501297Y8087991D01*
X-24490398Y8112344D01*
X-24476709Y8142059D01*
X-24461143Y8175228D01*
X-24444614Y8209942D01*
X-24428037Y8244292D01*
X-24412325Y8276369D01*
X-24398393Y8304265D01*
X-24387154Y8326071D01*
X-24379524Y8339878D01*
X-24376549Y8343900D01*
X-24368124Y8341221D01*
X-24352456Y8334326D01*
X-24339446Y8327973D01*
X-24287880Y8306814D01*
X-24237654Y8295830D01*
X-24190711Y8295328D01*
X-24164925Y8300188D01*
X-24144240Y8309863D01*
X-24122534Y8326118D01*
X-24103536Y8345491D01*
X-24090971Y8364519D01*
X-24088624Y8371078D01*
X-24090356Y8379625D01*
X-24096846Y8399946D01*
X-24108093Y8432040D01*
X-24124095Y8475905D01*
X-24144853Y8531541D01*
X-24170366Y8598945D01*
X-24200634Y8678116D01*
X-24235655Y8769055D01*
X-24275431Y8871758D01*
X-24319959Y8986225D01*
X-24348900Y9060404D01*
X-24383417Y9148836D01*
X-24416614Y9233989D01*
X-24448203Y9315113D01*
X-24477893Y9391459D01*
X-24505393Y9462277D01*
X-24530415Y9526817D01*
X-24552666Y9584330D01*
X-24571859Y9634066D01*
X-24587701Y9675277D01*
X-24599903Y9707212D01*
X-24608175Y9729121D01*
X-24612227Y9740256D01*
X-24612600Y9741528D01*
X-24606420Y9743081D01*
X-24588548Y9744328D01*
X-24559992Y9745251D01*
X-24521758Y9745827D01*
X-24474851Y9746037D01*
X-24420277Y9745860D01*
X-24405165Y9745750D01*
X-24197730Y9744075D01*
X-23893394Y8831055D01*
X-23789591Y9154215D01*
X-23768114Y9221112D01*
X-23746403Y9288797D01*
X-23725040Y9355452D01*
X-23704607Y9419263D01*
X-23685684Y9478414D01*
X-23668853Y9531088D01*
X-23654694Y9575471D01*
X-23643790Y9609745D01*
X-23642974Y9612313D01*
X-23600161Y9747250D01*
X-23395181Y9747250D01*
X-23345607Y9747176D01*
G36*
X-38694291Y11693367D02*
X-38638413Y11692771D01*
X-38590301Y11691553D01*
X-38547488Y11689529D01*
X-38507510Y11686517D01*
X-38467899Y11682333D01*
X-38426191Y11676793D01*
X-38379920Y11669715D01*
X-38330329Y11661540D01*
X-38159974Y11626488D01*
X-37993064Y11579474D01*
X-37830188Y11520912D01*
X-37671934Y11451214D01*
X-37518892Y11370793D01*
X-37371651Y11280063D01*
X-37230800Y11179437D01*
X-37096929Y11069327D01*
X-36970627Y10950147D01*
X-36852483Y10822310D01*
X-36743087Y10686229D01*
X-36643027Y10542316D01*
X-36575501Y10431303D01*
X-36491896Y10273035D01*
X-36420473Y10111251D01*
X-36361218Y9945901D01*
X-36314119Y9776931D01*
X-36279164Y9604290D01*
X-36256340Y9427925D01*
X-36245633Y9247783D01*
X-36246682Y9072912D01*
X-36259443Y8898032D01*
X-36284595Y8724981D01*
X-36321885Y8554398D01*
X-36371059Y8386922D01*
X-36431866Y8223193D01*
X-36504051Y8063849D01*
X-36587362Y7909529D01*
X-36681545Y7760874D01*
X-36786347Y7618522D01*
X-36855846Y7534520D01*
X-36893165Y7493090D01*
X-36937716Y7446460D01*
X-36986959Y7397082D01*
X-37038351Y7347410D01*
X-37089353Y7299896D01*
X-37137423Y7256993D01*
X-37180019Y7221155D01*
X-37182858Y7218871D01*
X-37326077Y7112014D01*
X-37475522Y7015868D01*
X-37630503Y6930811D01*
X-37790335Y6857225D01*
X-37941250Y6799922D01*
X-38113336Y6747635D01*
X-38287515Y6707748D01*
X-38463302Y6680324D01*
X-38640211Y6665429D01*
X-38817755Y6663129D01*
X-38928675Y6668104D01*
X-39105713Y6686288D01*
X-39280104Y6716739D01*
X-39451268Y6759192D01*
X-39618622Y6813383D01*
X-39781584Y6879047D01*
X-39939573Y6955920D01*
X-40092006Y7043738D01*
X-40238302Y7142235D01*
X-40377878Y7251148D01*
X-40510153Y7370213D01*
X-40541490Y7401011D01*
X-40662584Y7530932D01*
X-40773386Y7667935D01*
X-40873719Y7811421D01*
X-40963405Y7960791D01*
X-41042266Y8115447D01*
X-41110125Y8274789D01*
X-41152491Y8396947D01*
X-40904760Y8396947D01*
X-40903506Y8388158D01*
X-40897679Y8369685D01*
X-40888012Y8343385D01*
X-40875239Y8311110D01*
X-40860094Y8274716D01*
X-40843311Y8236057D01*
X-40825668Y8197085D01*
X-40808074Y8161323D01*
X-40785151Y8118061D01*
X-40758650Y8070345D01*
X-40730319Y8021219D01*
X-40701909Y7973729D01*
X-40675167Y7930921D01*
X-40656583Y7902725D01*
X-40569366Y7783649D01*
X-40472749Y7668248D01*
X-40368599Y7558394D01*
X-40258785Y7455965D01*
X-40145175Y7362834D01*
X-40051662Y7295511D01*
X-39990951Y7260382D01*
X-39918919Y7229097D01*
X-39836426Y7201903D01*
X-39744332Y7179048D01*
X-39643496Y7160782D01*
X-39541450Y7148012D01*
X-39508205Y7145864D01*
X-39466396Y7144924D01*
X-39420098Y7145147D01*
X-39373387Y7146485D01*
X-39330337Y7148891D01*
X-39309191Y7150703D01*
X-39225557Y7162682D01*
X-39148113Y7180998D01*
X-39078296Y7205155D01*
X-39017544Y7234655D01*
X-38967597Y7268754D01*
X-38934815Y7299399D01*
X-38910322Y7331899D01*
X-38892430Y7369338D01*
X-38879449Y7414800D01*
X-38874889Y7437959D01*
X-38861089Y7498785D01*
X-38842621Y7549138D01*
X-38818526Y7590692D01*
X-38787849Y7625120D01*
X-38752071Y7652532D01*
X-38718464Y7671825D01*
X-38681072Y7688369D01*
X-38638861Y7702320D01*
X-38590800Y7713833D01*
X-38535858Y7723064D01*
X-38473003Y7730170D01*
X-38401203Y7735305D01*
X-38319426Y7738625D01*
X-38226641Y7740288D01*
X-38169194Y7740552D01*
X-38020110Y7742289D01*
X-37883115Y7747309D01*
X-37758248Y7755611D01*
X-37645547Y7767190D01*
X-37545050Y7782044D01*
X-37477700Y7795334D01*
X-37352204Y7828738D01*
X-37232591Y7871639D01*
X-37119718Y7923565D01*
X-37014442Y7984043D01*
X-36917619Y8052601D01*
X-36830105Y8128765D01*
X-36780502Y8180038D01*
X-36757256Y8205769D01*
X-36823791Y8172378D01*
X-36857715Y8155986D01*
X-36894827Y8139065D01*
X-36929586Y8124100D01*
X-36947044Y8117079D01*
X-36992761Y8101155D01*
X-37047395Y8084908D01*
X-37107225Y8069255D01*
X-37168531Y8055117D01*
X-37227590Y8043411D01*
X-37277675Y8035454D01*
X-37322340Y8030819D01*
X-37376420Y8027359D01*
X-37436684Y8025102D01*
X-37499900Y8024076D01*
X-37562835Y8024306D01*
X-37622258Y8025822D01*
X-37674936Y8028650D01*
X-37709475Y8031808D01*
X-37877543Y8056922D01*
X-38048257Y8093563D01*
X-38219978Y8141304D01*
X-38391067Y8199718D01*
X-38469380Y8230165D01*
X-38495752Y8240887D01*
X-38520557Y8251149D01*
X-38545262Y8261607D01*
X-38571335Y8272919D01*
X-38600245Y8285740D01*
X-38633460Y8300728D01*
X-38672448Y8318538D01*
X-38718678Y8339829D01*
X-38773617Y8365256D01*
X-38831838Y8392273D01*
X-39000131Y8465056D01*
X-39167196Y8526620D01*
X-39332656Y8576940D01*
X-39496134Y8615993D01*
X-39657254Y8643753D01*
X-39815638Y8660194D01*
X-39970910Y8665293D01*
X-40122692Y8659024D01*
X-40270608Y8641363D01*
X-40414281Y8612284D01*
X-40553333Y8571762D01*
X-40687388Y8519773D01*
X-40696876Y8515569D01*
X-40727773Y8501071D01*
X-40761268Y8484194D01*
X-40795360Y8466082D01*
X-40828049Y8447874D01*
X-40857335Y8430713D01*
X-40881217Y8415741D01*
X-40897695Y8404097D01*
X-40904760Y8396947D01*
X-41152491Y8396947D01*
X-41166805Y8438219D01*
X-41212127Y8605137D01*
X-41245914Y8774945D01*
X-41267989Y8947044D01*
X-41278173Y9120836D01*
X-41276796Y9248810D01*
X-41045999Y9248810D01*
X-41045965Y9173718D01*
X-41044160Y9096712D01*
X-41040679Y9021016D01*
X-41035614Y8949858D01*
X-41029060Y8886462D01*
X-41025188Y8858250D01*
X-41018214Y8815326D01*
X-41010048Y8769997D01*
X-41001060Y8723861D01*
X-40991621Y8678517D01*
X-40982101Y8635563D01*
X-40972869Y8596596D01*
X-40964295Y8563216D01*
X-40956749Y8537021D01*
X-40950601Y8519609D01*
X-40946221Y8512578D01*
X-40945242Y8512793D01*
X-40941999Y8518755D01*
X-40933373Y8535300D01*
X-40919742Y8561691D01*
X-40901481Y8597192D01*
X-40878968Y8641068D01*
X-40852579Y8692581D01*
X-40822692Y8750996D01*
X-40789683Y8815576D01*
X-40753930Y8885585D01*
X-40715808Y8960287D01*
X-40675696Y9038946D01*
X-40633969Y9120825D01*
X-40632582Y9123548D01*
X-40590795Y9205498D01*
X-40550577Y9284224D01*
X-40512305Y9358991D01*
X-40476360Y9429066D01*
X-40443120Y9493715D01*
X-40412964Y9552203D01*
X-40386271Y9603797D01*
X-40363421Y9647763D01*
X-40344793Y9683366D01*
X-40330765Y9709873D01*
X-40321717Y9726549D01*
X-40318028Y9732661D01*
X-40318001Y9732674D01*
X-40314226Y9727478D01*
X-40305020Y9711989D01*
X-40290893Y9687137D01*
X-40272357Y9653854D01*
X-40249923Y9613069D01*
X-40224102Y9565715D01*
X-40195404Y9512721D01*
X-40164342Y9455018D01*
X-40131426Y9393537D01*
X-40120149Y9372399D01*
X-40086730Y9309829D01*
X-40055014Y9250687D01*
X-40025510Y9195908D01*
X-39998729Y9146429D01*
X-39975181Y9103185D01*
X-39955374Y9067110D01*
X-39939820Y9039140D01*
X-39929028Y9020211D01*
X-39923507Y9011257D01*
X-39922929Y9010650D01*
X-39919469Y9016169D01*
X-39910572Y9032231D01*
X-39896628Y9058096D01*
X-39878026Y9093020D01*
X-39855156Y9136264D01*
X-39828408Y9187086D01*
X-39798171Y9244744D01*
X-39764835Y9308498D01*
X-39728789Y9377605D01*
X-39690423Y9451324D01*
X-39650126Y9528914D01*
X-39615122Y9596438D01*
X-39573483Y9676794D01*
X-39533453Y9753975D01*
X-39495423Y9827232D01*
X-39459782Y9895817D01*
X-39426922Y9958981D01*
X-39397232Y10015977D01*
X-39371101Y10066056D01*
X-39348921Y10108469D01*
X-39331081Y10142469D01*
X-39317971Y10167307D01*
X-39309981Y10182235D01*
X-39307517Y10186564D01*
X-39303988Y10181727D01*
X-39294922Y10166448D01*
X-39280741Y10141500D01*
X-39261869Y10107657D01*
X-39238728Y10065692D01*
X-39211741Y10016378D01*
X-39181331Y9960487D01*
X-39147921Y9898793D01*
X-39111933Y9832069D01*
X-39073791Y9761088D01*
X-39033917Y9686624D01*
X-39027100Y9673869D01*
X-38986964Y9598806D01*
X-38948511Y9527016D01*
X-38912164Y9459281D01*
X-38878346Y9396381D01*
X-38847477Y9339097D01*
X-38819980Y9288211D01*
X-38796278Y9244502D01*
X-38776792Y9208753D01*
X-38761944Y9181743D01*
X-38752157Y9164255D01*
X-38747852Y9157068D01*
X-38747700Y9156926D01*
X-38744241Y9162409D01*
X-38735552Y9178092D01*
X-38722212Y9202881D01*
X-38704799Y9235680D01*
X-38683892Y9275396D01*
X-38660069Y9320934D01*
X-38633908Y9371200D01*
X-38605987Y9425098D01*
X-38605142Y9426733D01*
X-38577152Y9480729D01*
X-38550862Y9531119D01*
X-38526856Y9576809D01*
X-38505717Y9616704D01*
X-38488028Y9649710D01*
X-38474373Y9674732D01*
X-38465334Y9690676D01*
X-38461494Y9696446D01*
X-38461467Y9696450D01*
X-38457906Y9690979D01*
X-38448808Y9675095D01*
X-38434605Y9649596D01*
X-38415730Y9615278D01*
X-38392616Y9572939D01*
X-38365696Y9523376D01*
X-38335403Y9467384D01*
X-38302169Y9405762D01*
X-38266428Y9339306D01*
X-38228612Y9268813D01*
X-38191551Y9199563D01*
X-38151879Y9125366D01*
X-38113695Y9053984D01*
X-38077456Y8986266D01*
X-38043615Y8923061D01*
X-38012627Y8865217D01*
X-37984948Y8813583D01*
X-37961031Y8769006D01*
X-37941332Y8732335D01*
X-37926306Y8704418D01*
X-37916406Y8686104D01*
X-37912287Y8678588D01*
X-37898647Y8654500D01*
X-37767977Y8907188D01*
X-37740878Y8959368D01*
X-37715466Y9007871D01*
X-37692346Y9051572D01*
X-37672125Y9089344D01*
X-37655408Y9120062D01*
X-37642802Y9142600D01*
X-37634914Y9155831D01*
X-37632433Y9158968D01*
X-37628427Y9153351D01*
X-37619172Y9137767D01*
X-37605367Y9113469D01*
X-37587707Y9081711D01*
X-37566891Y9043747D01*
X-37543616Y9000831D01*
X-37518630Y8954313D01*
X-37493680Y8907928D01*
X-37470540Y8865451D01*
X-37449894Y8828099D01*
X-37432430Y8797089D01*
X-37418832Y8773639D01*
X-37409787Y8758967D01*
X-37405980Y8754289D01*
X-37405968Y8754300D01*
X-37402519Y8760410D01*
X-37393708Y8776922D01*
X-37379996Y8802951D01*
X-37361844Y8837612D01*
X-37339712Y8880022D01*
X-37314063Y8929295D01*
X-37285356Y8984547D01*
X-37254054Y9044894D01*
X-37220616Y9109450D01*
X-37185504Y9177332D01*
X-37184379Y9179506D01*
X-37149259Y9247370D01*
X-37115810Y9311846D01*
X-37084489Y9372061D01*
X-37055755Y9427142D01*
X-37030068Y9476213D01*
X-37007886Y9518400D01*
X-36989667Y9552829D01*
X-36975870Y9578627D01*
X-36966953Y9594918D01*
X-36963376Y9600828D01*
X-36963350Y9600836D01*
X-36959735Y9595453D01*
X-36950302Y9579936D01*
X-36935562Y9555160D01*
X-36916029Y9522002D01*
X-36892213Y9481336D01*
X-36864627Y9434039D01*
X-36833782Y9380986D01*
X-36800191Y9323054D01*
X-36764366Y9261117D01*
X-36735091Y9210399D01*
X-36697888Y9146062D01*
X-36662480Y9085165D01*
X-36629379Y9028569D01*
X-36599101Y8977138D01*
X-36572159Y8931734D01*
X-36549066Y8893219D01*
X-36530336Y8862456D01*
X-36516482Y8840306D01*
X-36508018Y8827633D01*
X-36505480Y8824890D01*
X-36501256Y8835380D01*
X-36497030Y8856901D01*
X-36492930Y8887782D01*
X-36489083Y8926356D01*
X-36485618Y8970952D01*
X-36482661Y9019902D01*
X-36480342Y9071536D01*
X-36478788Y9124186D01*
X-36478127Y9176182D01*
X-36478114Y9182100D01*
X-36479770Y9291315D01*
X-36485248Y9391920D01*
X-36494949Y9487536D01*
X-36509280Y9581785D01*
X-36528642Y9678287D01*
X-36537969Y9718675D01*
X-36582607Y9880144D01*
X-36638089Y10035579D01*
X-36704841Y10185952D01*
X-36783289Y10332235D01*
X-36862403Y10458450D01*
X-36907906Y10524432D01*
X-36952092Y10584130D01*
X-36997384Y10640467D01*
X-37046207Y10696364D01*
X-37100986Y10754744D01*
X-37147144Y10801623D01*
X-37231174Y10882535D01*
X-37312634Y10954353D01*
X-37394488Y11019411D01*
X-37479698Y11080048D01*
X-37571229Y11138599D01*
X-37585512Y11147242D01*
X-37732927Y11228579D01*
X-37884565Y11298210D01*
X-38039766Y11356155D01*
X-38197870Y11402430D01*
X-38358215Y11437054D01*
X-38520143Y11460045D01*
X-38682991Y11471420D01*
X-38846099Y11471198D01*
X-39008806Y11459397D01*
X-39170453Y11436034D01*
X-39330378Y11401128D01*
X-39487921Y11354696D01*
X-39642422Y11296757D01*
X-39793219Y11227329D01*
X-39939652Y11146429D01*
X-40043100Y11080350D01*
X-40179834Y10980189D01*
X-40307897Y10871036D01*
X-40426952Y10753465D01*
X-40536663Y10628050D01*
X-40636692Y10495364D01*
X-40726704Y10355983D01*
X-40806360Y10210480D01*
X-40875326Y10059429D01*
X-40933263Y9903404D01*
X-40979835Y9742979D01*
X-41014705Y9578729D01*
X-41037538Y9411227D01*
X-41040380Y9380345D01*
X-41044169Y9318761D01*
X-41045999Y9248810D01*
X-41276796Y9248810D01*
X-41276290Y9295720D01*
X-41262161Y9471099D01*
X-41235609Y9646373D01*
X-41224271Y9703233D01*
X-41181775Y9874310D01*
X-41127860Y10040502D01*
X-41062981Y10201369D01*
X-40987593Y10356474D01*
X-40902151Y10505379D01*
X-40807109Y10647644D01*
X-40702922Y10782833D01*
X-40590045Y10910506D01*
X-40468933Y11030227D01*
X-40340040Y11141555D01*
X-40203822Y11244054D01*
X-40060732Y11337285D01*
X-39911226Y11420810D01*
X-39755758Y11494190D01*
X-39594783Y11556988D01*
X-39428757Y11608765D01*
X-39258133Y11649083D01*
X-39192200Y11661305D01*
X-39139968Y11670040D01*
X-39094211Y11677061D01*
X-39052490Y11682551D01*
X-39012368Y11686692D01*
X-38971409Y11689665D01*
X-38927173Y11691653D01*
X-38877225Y11692837D01*
X-38819127Y11693400D01*
X-38760400Y11693525D01*
X-38694291Y11693367D01*
X-38694291Y11693367D01*
G37*
X-38694291Y11693367D02*
X-38638413Y11692771D01*
X-38590301Y11691553D01*
X-38547488Y11689529D01*
X-38507510Y11686517D01*
X-38467899Y11682333D01*
X-38426191Y11676793D01*
X-38379920Y11669715D01*
X-38330329Y11661540D01*
X-38159974Y11626488D01*
X-37993064Y11579474D01*
X-37830188Y11520912D01*
X-37671934Y11451214D01*
X-37518892Y11370793D01*
X-37371651Y11280063D01*
X-37230800Y11179437D01*
X-37096929Y11069327D01*
X-36970627Y10950147D01*
X-36852483Y10822310D01*
X-36743087Y10686229D01*
X-36643027Y10542316D01*
X-36575501Y10431303D01*
X-36491896Y10273035D01*
X-36420473Y10111251D01*
X-36361218Y9945901D01*
X-36314119Y9776931D01*
X-36279164Y9604290D01*
X-36256340Y9427925D01*
X-36245633Y9247783D01*
X-36246682Y9072912D01*
X-36259443Y8898032D01*
X-36284595Y8724981D01*
X-36321885Y8554398D01*
X-36371059Y8386922D01*
X-36431866Y8223193D01*
X-36504051Y8063849D01*
X-36587362Y7909529D01*
X-36681545Y7760874D01*
X-36786347Y7618522D01*
X-36855846Y7534520D01*
X-36893165Y7493090D01*
X-36937716Y7446460D01*
X-36986959Y7397082D01*
X-37038351Y7347410D01*
X-37089353Y7299896D01*
X-37137423Y7256993D01*
X-37180019Y7221155D01*
X-37182858Y7218871D01*
X-37326077Y7112014D01*
X-37475522Y7015868D01*
X-37630503Y6930811D01*
X-37790335Y6857225D01*
X-37941250Y6799922D01*
X-38113336Y6747635D01*
X-38287515Y6707748D01*
X-38463302Y6680324D01*
X-38640211Y6665429D01*
X-38817755Y6663129D01*
X-38928675Y6668104D01*
X-39105713Y6686288D01*
X-39280104Y6716739D01*
X-39451268Y6759192D01*
X-39618622Y6813383D01*
X-39781584Y6879047D01*
X-39939573Y6955920D01*
X-40092006Y7043738D01*
X-40238302Y7142235D01*
X-40377878Y7251148D01*
X-40510153Y7370213D01*
X-40541490Y7401011D01*
X-40662584Y7530932D01*
X-40773386Y7667935D01*
X-40873719Y7811421D01*
X-40963405Y7960791D01*
X-41042266Y8115447D01*
X-41110125Y8274789D01*
X-41152491Y8396947D01*
X-40904760Y8396947D01*
X-40903506Y8388158D01*
X-40897679Y8369685D01*
X-40888012Y8343385D01*
X-40875239Y8311110D01*
X-40860094Y8274716D01*
X-40843311Y8236057D01*
X-40825668Y8197085D01*
X-40808074Y8161323D01*
X-40785151Y8118061D01*
X-40758650Y8070345D01*
X-40730319Y8021219D01*
X-40701909Y7973729D01*
X-40675167Y7930921D01*
X-40656583Y7902725D01*
X-40569366Y7783649D01*
X-40472749Y7668248D01*
X-40368599Y7558394D01*
X-40258785Y7455965D01*
X-40145175Y7362834D01*
X-40051662Y7295511D01*
X-39990951Y7260382D01*
X-39918919Y7229097D01*
X-39836426Y7201903D01*
X-39744332Y7179048D01*
X-39643496Y7160782D01*
X-39541450Y7148012D01*
X-39508205Y7145864D01*
X-39466396Y7144924D01*
X-39420098Y7145147D01*
X-39373387Y7146485D01*
X-39330337Y7148891D01*
X-39309191Y7150703D01*
X-39225557Y7162682D01*
X-39148113Y7180998D01*
X-39078296Y7205155D01*
X-39017544Y7234655D01*
X-38967597Y7268754D01*
X-38934815Y7299399D01*
X-38910322Y7331899D01*
X-38892430Y7369338D01*
X-38879449Y7414800D01*
X-38874889Y7437959D01*
X-38861089Y7498785D01*
X-38842621Y7549138D01*
X-38818526Y7590692D01*
X-38787849Y7625120D01*
X-38752071Y7652532D01*
X-38718464Y7671825D01*
X-38681072Y7688369D01*
X-38638861Y7702320D01*
X-38590800Y7713833D01*
X-38535858Y7723064D01*
X-38473003Y7730170D01*
X-38401203Y7735305D01*
X-38319426Y7738625D01*
X-38226641Y7740288D01*
X-38169194Y7740552D01*
X-38020110Y7742289D01*
X-37883115Y7747309D01*
X-37758248Y7755611D01*
X-37645547Y7767190D01*
X-37545050Y7782044D01*
X-37477700Y7795334D01*
X-37352204Y7828738D01*
X-37232591Y7871639D01*
X-37119718Y7923565D01*
X-37014442Y7984043D01*
X-36917619Y8052601D01*
X-36830105Y8128765D01*
X-36780502Y8180038D01*
X-36757256Y8205769D01*
X-36823791Y8172378D01*
X-36857715Y8155986D01*
X-36894827Y8139065D01*
X-36929586Y8124100D01*
X-36947044Y8117079D01*
X-36992761Y8101155D01*
X-37047395Y8084908D01*
X-37107225Y8069255D01*
X-37168531Y8055117D01*
X-37227590Y8043411D01*
X-37277675Y8035454D01*
X-37322340Y8030819D01*
X-37376420Y8027359D01*
X-37436684Y8025102D01*
X-37499900Y8024076D01*
X-37562835Y8024306D01*
X-37622258Y8025822D01*
X-37674936Y8028650D01*
X-37709475Y8031808D01*
X-37877543Y8056922D01*
X-38048257Y8093563D01*
X-38219978Y8141304D01*
X-38391067Y8199718D01*
X-38469380Y8230165D01*
X-38495752Y8240887D01*
X-38520557Y8251149D01*
X-38545262Y8261607D01*
X-38571335Y8272919D01*
X-38600245Y8285740D01*
X-38633460Y8300728D01*
X-38672448Y8318538D01*
X-38718678Y8339829D01*
X-38773617Y8365256D01*
X-38831838Y8392273D01*
X-39000131Y8465056D01*
X-39167196Y8526620D01*
X-39332656Y8576940D01*
X-39496134Y8615993D01*
X-39657254Y8643753D01*
X-39815638Y8660194D01*
X-39970910Y8665293D01*
X-40122692Y8659024D01*
X-40270608Y8641363D01*
X-40414281Y8612284D01*
X-40553333Y8571762D01*
X-40687388Y8519773D01*
X-40696876Y8515569D01*
X-40727773Y8501071D01*
X-40761268Y8484194D01*
X-40795360Y8466082D01*
X-40828049Y8447874D01*
X-40857335Y8430713D01*
X-40881217Y8415741D01*
X-40897695Y8404097D01*
X-40904760Y8396947D01*
X-41152491Y8396947D01*
X-41166805Y8438219D01*
X-41212127Y8605137D01*
X-41245914Y8774945D01*
X-41267989Y8947044D01*
X-41278173Y9120836D01*
X-41276796Y9248810D01*
X-41045999Y9248810D01*
X-41045965Y9173718D01*
X-41044160Y9096712D01*
X-41040679Y9021016D01*
X-41035614Y8949858D01*
X-41029060Y8886462D01*
X-41025188Y8858250D01*
X-41018214Y8815326D01*
X-41010048Y8769997D01*
X-41001060Y8723861D01*
X-40991621Y8678517D01*
X-40982101Y8635563D01*
X-40972869Y8596596D01*
X-40964295Y8563216D01*
X-40956749Y8537021D01*
X-40950601Y8519609D01*
X-40946221Y8512578D01*
X-40945242Y8512793D01*
X-40941999Y8518755D01*
X-40933373Y8535300D01*
X-40919742Y8561691D01*
X-40901481Y8597192D01*
X-40878968Y8641068D01*
X-40852579Y8692581D01*
X-40822692Y8750996D01*
X-40789683Y8815576D01*
X-40753930Y8885585D01*
X-40715808Y8960287D01*
X-40675696Y9038946D01*
X-40633969Y9120825D01*
X-40632582Y9123548D01*
X-40590795Y9205498D01*
X-40550577Y9284224D01*
X-40512305Y9358991D01*
X-40476360Y9429066D01*
X-40443120Y9493715D01*
X-40412964Y9552203D01*
X-40386271Y9603797D01*
X-40363421Y9647763D01*
X-40344793Y9683366D01*
X-40330765Y9709873D01*
X-40321717Y9726549D01*
X-40318028Y9732661D01*
X-40318001Y9732674D01*
X-40314226Y9727478D01*
X-40305020Y9711989D01*
X-40290893Y9687137D01*
X-40272357Y9653854D01*
X-40249923Y9613069D01*
X-40224102Y9565715D01*
X-40195404Y9512721D01*
X-40164342Y9455018D01*
X-40131426Y9393537D01*
X-40120149Y9372399D01*
X-40086730Y9309829D01*
X-40055014Y9250687D01*
X-40025510Y9195908D01*
X-39998729Y9146429D01*
X-39975181Y9103185D01*
X-39955374Y9067110D01*
X-39939820Y9039140D01*
X-39929028Y9020211D01*
X-39923507Y9011257D01*
X-39922929Y9010650D01*
X-39919469Y9016169D01*
X-39910572Y9032231D01*
X-39896628Y9058096D01*
X-39878026Y9093020D01*
X-39855156Y9136264D01*
X-39828408Y9187086D01*
X-39798171Y9244744D01*
X-39764835Y9308498D01*
X-39728789Y9377605D01*
X-39690423Y9451324D01*
X-39650126Y9528914D01*
X-39615122Y9596438D01*
X-39573483Y9676794D01*
X-39533453Y9753975D01*
X-39495423Y9827232D01*
X-39459782Y9895817D01*
X-39426922Y9958981D01*
X-39397232Y10015977D01*
X-39371101Y10066056D01*
X-39348921Y10108469D01*
X-39331081Y10142469D01*
X-39317971Y10167307D01*
X-39309981Y10182235D01*
X-39307517Y10186564D01*
X-39303988Y10181727D01*
X-39294922Y10166448D01*
X-39280741Y10141500D01*
X-39261869Y10107657D01*
X-39238728Y10065692D01*
X-39211741Y10016378D01*
X-39181331Y9960487D01*
X-39147921Y9898793D01*
X-39111933Y9832069D01*
X-39073791Y9761088D01*
X-39033917Y9686624D01*
X-39027100Y9673869D01*
X-38986964Y9598806D01*
X-38948511Y9527016D01*
X-38912164Y9459281D01*
X-38878346Y9396381D01*
X-38847477Y9339097D01*
X-38819980Y9288211D01*
X-38796278Y9244502D01*
X-38776792Y9208753D01*
X-38761944Y9181743D01*
X-38752157Y9164255D01*
X-38747852Y9157068D01*
X-38747700Y9156926D01*
X-38744241Y9162409D01*
X-38735552Y9178092D01*
X-38722212Y9202881D01*
X-38704799Y9235680D01*
X-38683892Y9275396D01*
X-38660069Y9320934D01*
X-38633908Y9371200D01*
X-38605987Y9425098D01*
X-38605142Y9426733D01*
X-38577152Y9480729D01*
X-38550862Y9531119D01*
X-38526856Y9576809D01*
X-38505717Y9616704D01*
X-38488028Y9649710D01*
X-38474373Y9674732D01*
X-38465334Y9690676D01*
X-38461494Y9696446D01*
X-38461467Y9696450D01*
X-38457906Y9690979D01*
X-38448808Y9675095D01*
X-38434605Y9649596D01*
X-38415730Y9615278D01*
X-38392616Y9572939D01*
X-38365696Y9523376D01*
X-38335403Y9467384D01*
X-38302169Y9405762D01*
X-38266428Y9339306D01*
X-38228612Y9268813D01*
X-38191551Y9199563D01*
X-38151879Y9125366D01*
X-38113695Y9053984D01*
X-38077456Y8986266D01*
X-38043615Y8923061D01*
X-38012627Y8865217D01*
X-37984948Y8813583D01*
X-37961031Y8769006D01*
X-37941332Y8732335D01*
X-37926306Y8704418D01*
X-37916406Y8686104D01*
X-37912287Y8678588D01*
X-37898647Y8654500D01*
X-37767977Y8907188D01*
X-37740878Y8959368D01*
X-37715466Y9007871D01*
X-37692346Y9051572D01*
X-37672125Y9089344D01*
X-37655408Y9120062D01*
X-37642802Y9142600D01*
X-37634914Y9155831D01*
X-37632433Y9158968D01*
X-37628427Y9153351D01*
X-37619172Y9137767D01*
X-37605367Y9113469D01*
X-37587707Y9081711D01*
X-37566891Y9043747D01*
X-37543616Y9000831D01*
X-37518630Y8954313D01*
X-37493680Y8907928D01*
X-37470540Y8865451D01*
X-37449894Y8828099D01*
X-37432430Y8797089D01*
X-37418832Y8773639D01*
X-37409787Y8758967D01*
X-37405980Y8754289D01*
X-37405968Y8754300D01*
X-37402519Y8760410D01*
X-37393708Y8776922D01*
X-37379996Y8802951D01*
X-37361844Y8837612D01*
X-37339712Y8880022D01*
X-37314063Y8929295D01*
X-37285356Y8984547D01*
X-37254054Y9044894D01*
X-37220616Y9109450D01*
X-37185504Y9177332D01*
X-37184379Y9179506D01*
X-37149259Y9247370D01*
X-37115810Y9311846D01*
X-37084489Y9372061D01*
X-37055755Y9427142D01*
X-37030068Y9476213D01*
X-37007886Y9518400D01*
X-36989667Y9552829D01*
X-36975870Y9578627D01*
X-36966953Y9594918D01*
X-36963376Y9600828D01*
X-36963350Y9600836D01*
X-36959735Y9595453D01*
X-36950302Y9579936D01*
X-36935562Y9555160D01*
X-36916029Y9522002D01*
X-36892213Y9481336D01*
X-36864627Y9434039D01*
X-36833782Y9380986D01*
X-36800191Y9323054D01*
X-36764366Y9261117D01*
X-36735091Y9210399D01*
X-36697888Y9146062D01*
X-36662480Y9085165D01*
X-36629379Y9028569D01*
X-36599101Y8977138D01*
X-36572159Y8931734D01*
X-36549066Y8893219D01*
X-36530336Y8862456D01*
X-36516482Y8840306D01*
X-36508018Y8827633D01*
X-36505480Y8824890D01*
X-36501256Y8835380D01*
X-36497030Y8856901D01*
X-36492930Y8887782D01*
X-36489083Y8926356D01*
X-36485618Y8970952D01*
X-36482661Y9019902D01*
X-36480342Y9071536D01*
X-36478788Y9124186D01*
X-36478127Y9176182D01*
X-36478114Y9182100D01*
X-36479770Y9291315D01*
X-36485248Y9391920D01*
X-36494949Y9487536D01*
X-36509280Y9581785D01*
X-36528642Y9678287D01*
X-36537969Y9718675D01*
X-36582607Y9880144D01*
X-36638089Y10035579D01*
X-36704841Y10185952D01*
X-36783289Y10332235D01*
X-36862403Y10458450D01*
X-36907906Y10524432D01*
X-36952092Y10584130D01*
X-36997384Y10640467D01*
X-37046207Y10696364D01*
X-37100986Y10754744D01*
X-37147144Y10801623D01*
X-37231174Y10882535D01*
X-37312634Y10954353D01*
X-37394488Y11019411D01*
X-37479698Y11080048D01*
X-37571229Y11138599D01*
X-37585512Y11147242D01*
X-37732927Y11228579D01*
X-37884565Y11298210D01*
X-38039766Y11356155D01*
X-38197870Y11402430D01*
X-38358215Y11437054D01*
X-38520143Y11460045D01*
X-38682991Y11471420D01*
X-38846099Y11471198D01*
X-39008806Y11459397D01*
X-39170453Y11436034D01*
X-39330378Y11401128D01*
X-39487921Y11354696D01*
X-39642422Y11296757D01*
X-39793219Y11227329D01*
X-39939652Y11146429D01*
X-40043100Y11080350D01*
X-40179834Y10980189D01*
X-40307897Y10871036D01*
X-40426952Y10753465D01*
X-40536663Y10628050D01*
X-40636692Y10495364D01*
X-40726704Y10355983D01*
X-40806360Y10210480D01*
X-40875326Y10059429D01*
X-40933263Y9903404D01*
X-40979835Y9742979D01*
X-41014705Y9578729D01*
X-41037538Y9411227D01*
X-41040380Y9380345D01*
X-41044169Y9318761D01*
X-41045999Y9248810D01*
X-41276796Y9248810D01*
X-41276290Y9295720D01*
X-41262161Y9471099D01*
X-41235609Y9646373D01*
X-41224271Y9703233D01*
X-41181775Y9874310D01*
X-41127860Y10040502D01*
X-41062981Y10201369D01*
X-40987593Y10356474D01*
X-40902151Y10505379D01*
X-40807109Y10647644D01*
X-40702922Y10782833D01*
X-40590045Y10910506D01*
X-40468933Y11030227D01*
X-40340040Y11141555D01*
X-40203822Y11244054D01*
X-40060732Y11337285D01*
X-39911226Y11420810D01*
X-39755758Y11494190D01*
X-39594783Y11556988D01*
X-39428757Y11608765D01*
X-39258133Y11649083D01*
X-39192200Y11661305D01*
X-39139968Y11670040D01*
X-39094211Y11677061D01*
X-39052490Y11682551D01*
X-39012368Y11686692D01*
X-38971409Y11689665D01*
X-38927173Y11691653D01*
X-38877225Y11692837D01*
X-38819127Y11693400D01*
X-38760400Y11693525D01*
X-38694291Y11693367D01*
G36*
X-24434800Y7217228D02*
X-24863272Y7217228D01*
X-24861308Y7364185D01*
X-24859343Y7511143D01*
X-24647072Y7513067D01*
X-24434800Y7514990D01*
X-24434800Y7217228D01*
X-24434800Y7217228D01*
G37*
X-24434800Y7217228D02*
X-24863272Y7217228D01*
X-24861308Y7364185D01*
X-24859343Y7511143D01*
X-24647072Y7513067D01*
X-24434800Y7514990D01*
X-24434800Y7217228D01*
G36*
X-29529315Y7217228D02*
X-29957787Y7217228D01*
X-29955822Y7364185D01*
X-29953857Y7511143D01*
X-29741586Y7513067D01*
X-29529315Y7514990D01*
X-29529315Y7217228D01*
X-29529315Y7217228D01*
G37*
X-29529315Y7217228D02*
X-29957787Y7217228D01*
X-29955822Y7364185D01*
X-29953857Y7511143D01*
X-29741586Y7513067D01*
X-29529315Y7514990D01*
X-29529315Y7217228D01*
G36*
X-26912807Y6645255D02*
X-26876834Y6627363D01*
X-26856726Y6608288D01*
X-26834631Y6572027D01*
X-26825070Y6532927D01*
X-26827491Y6493746D01*
X-26841344Y6457239D01*
X-26866080Y6426161D01*
X-26897314Y6405051D01*
X-26936475Y6392055D01*
X-26974076Y6392781D01*
X-27009865Y6405486D01*
X-27043883Y6429651D01*
X-27067384Y6461614D01*
X-27079831Y6498636D01*
X-27080688Y6537977D01*
X-27069419Y6576898D01*
X-27049512Y6608073D01*
X-27019420Y6634906D01*
X-26984248Y6648666D01*
X-26956785Y6651171D01*
X-26912807Y6645255D01*
X-26912807Y6645255D01*
G37*
X-26912807Y6645255D02*
X-26876834Y6627363D01*
X-26856726Y6608288D01*
X-26834631Y6572027D01*
X-26825070Y6532927D01*
X-26827491Y6493746D01*
X-26841344Y6457239D01*
X-26866080Y6426161D01*
X-26897314Y6405051D01*
X-26936475Y6392055D01*
X-26974076Y6392781D01*
X-27009865Y6405486D01*
X-27043883Y6429651D01*
X-27067384Y6461614D01*
X-27079831Y6498636D01*
X-27080688Y6537977D01*
X-27069419Y6576898D01*
X-27049512Y6608073D01*
X-27019420Y6634906D01*
X-26984248Y6648666D01*
X-26956785Y6651171D01*
X-26912807Y6645255D01*
G36*
X-24449315Y5969000D02*
X-24862972Y5969000D01*
X-24862972Y7108371D01*
X-24449315Y7108371D01*
X-24449315Y5969000D01*
X-24449315Y5969000D01*
G37*
X-24449315Y5969000D02*
X-24862972Y5969000D01*
X-24862972Y7108371D01*
X-24449315Y7108371D01*
X-24449315Y5969000D01*
G36*
X-25717563Y7126120D02*
X-25715686Y6737469D01*
X-25396904Y7108371D01*
X-25169852Y7108371D01*
X-25114109Y7108252D01*
X-25063329Y7107913D01*
X-25019248Y7107386D01*
X-24983604Y7106698D01*
X-24958132Y7105881D01*
X-24944572Y7104965D01*
X-24942800Y7104479D01*
X-24947377Y7098554D01*
X-24960282Y7083133D01*
X-24980284Y7059638D01*
X-25006146Y7029490D01*
X-25036636Y6994110D01*
X-25070518Y6954920D01*
X-25106559Y6913343D01*
X-25143525Y6870799D01*
X-25180181Y6828710D01*
X-25215293Y6788498D01*
X-25247627Y6751585D01*
X-25275949Y6719391D01*
X-25299025Y6693339D01*
X-25315620Y6674850D01*
X-25318840Y6671328D01*
X-25337018Y6651571D01*
X-25142300Y6326614D01*
X-25104567Y6263665D01*
X-25068845Y6204114D01*
X-25035877Y6149194D01*
X-25006402Y6100137D01*
X-24981162Y6058175D01*
X-24960898Y6024541D01*
X-24946350Y6000468D01*
X-24938261Y5987188D01*
X-24937099Y5985328D01*
X-24926617Y5969000D01*
X-25375838Y5969000D01*
X-25493538Y6161110D01*
X-25611238Y6353221D01*
X-25665171Y6293553D01*
X-25719103Y6233885D01*
X-25719209Y6101443D01*
X-25719315Y5969000D01*
X-26125715Y5969000D01*
X-26125715Y7514771D01*
X-25719441Y7514771D01*
X-25717563Y7126120D01*
X-25717563Y7126120D01*
G37*
X-25717563Y7126120D02*
X-25715686Y6737469D01*
X-25396904Y7108371D01*
X-25169852Y7108371D01*
X-25114109Y7108252D01*
X-25063329Y7107913D01*
X-25019248Y7107386D01*
X-24983604Y7106698D01*
X-24958132Y7105881D01*
X-24944572Y7104965D01*
X-24942800Y7104479D01*
X-24947377Y7098554D01*
X-24960282Y7083133D01*
X-24980284Y7059638D01*
X-25006146Y7029490D01*
X-25036636Y6994110D01*
X-25070518Y6954920D01*
X-25106559Y6913343D01*
X-25143525Y6870799D01*
X-25180181Y6828710D01*
X-25215293Y6788498D01*
X-25247627Y6751585D01*
X-25275949Y6719391D01*
X-25299025Y6693339D01*
X-25315620Y6674850D01*
X-25318840Y6671328D01*
X-25337018Y6651571D01*
X-25142300Y6326614D01*
X-25104567Y6263665D01*
X-25068845Y6204114D01*
X-25035877Y6149194D01*
X-25006402Y6100137D01*
X-24981162Y6058175D01*
X-24960898Y6024541D01*
X-24946350Y6000468D01*
X-24938261Y5987188D01*
X-24937099Y5985328D01*
X-24926617Y5969000D01*
X-25375838Y5969000D01*
X-25493538Y6161110D01*
X-25611238Y6353221D01*
X-25665171Y6293553D01*
X-25719103Y6233885D01*
X-25719209Y6101443D01*
X-25719315Y5969000D01*
X-26125715Y5969000D01*
X-26125715Y7514771D01*
X-25719441Y7514771D01*
X-25717563Y7126120D01*
G36*
X-27687782Y6740071D02*
X-27685934Y5969000D01*
X-28099723Y5969000D01*
X-28097876Y6740071D01*
X-28096029Y7511143D01*
X-27689629Y7511143D01*
X-27687782Y6740071D01*
X-27687782Y6740071D01*
G37*
X-27687782Y6740071D02*
X-27685934Y5969000D01*
X-28099723Y5969000D01*
X-28097876Y6740071D01*
X-28096029Y7511143D01*
X-27689629Y7511143D01*
X-27687782Y6740071D01*
G36*
X-29529315Y5969000D02*
X-29935715Y5969000D01*
X-29935715Y7108371D01*
X-29529315Y7108371D01*
X-29529315Y5969000D01*
X-29529315Y5969000D01*
G37*
X-29529315Y5969000D02*
X-29935715Y5969000D01*
X-29935715Y7108371D01*
X-29529315Y7108371D01*
X-29529315Y5969000D01*
G36*
X-30295413Y7527174D02*
X-30243618Y7523986D01*
X-30195431Y7519070D01*
X-30153847Y7512588D01*
X-30121864Y7504705D01*
X-30108072Y7499134D01*
X-30103600Y7495545D01*
X-30100310Y7488805D01*
X-30098025Y7476914D01*
X-30096567Y7457872D01*
X-30095758Y7429681D01*
X-30095422Y7390341D01*
X-30095372Y7356068D01*
X-30095562Y7313058D01*
X-30096091Y7275216D01*
X-30096896Y7244866D01*
X-30097917Y7224330D01*
X-30099089Y7215934D01*
X-30099117Y7215903D01*
X-30107642Y7215487D01*
X-30125554Y7218422D01*
X-30140612Y7221950D01*
X-30175971Y7228420D01*
X-30215357Y7231363D01*
X-30254125Y7230824D01*
X-30287633Y7226849D01*
X-30309611Y7220298D01*
X-30331832Y7202190D01*
X-30347791Y7173596D01*
X-30355920Y7137765D01*
X-30356629Y7122906D01*
X-30356629Y7094192D01*
X-30227815Y7092210D01*
X-30099000Y7090228D01*
X-30097036Y6943271D01*
X-30095071Y6796314D01*
X-30356629Y6796314D01*
X-30356629Y5969000D01*
X-30763029Y5969000D01*
X-30763029Y6796314D01*
X-30893657Y6796314D01*
X-30893657Y7108371D01*
X-30765161Y7108371D01*
X-30760925Y7175500D01*
X-30750104Y7254090D01*
X-30728279Y7323467D01*
X-30695675Y7383359D01*
X-30652513Y7433494D01*
X-30599017Y7473600D01*
X-30535409Y7503407D01*
X-30478754Y7519366D01*
X-30442487Y7524729D01*
X-30397843Y7527709D01*
X-30347820Y7528469D01*
X-30295413Y7527174D01*
X-30295413Y7527174D01*
G37*
X-30295413Y7527174D02*
X-30243618Y7523986D01*
X-30195431Y7519070D01*
X-30153847Y7512588D01*
X-30121864Y7504705D01*
X-30108072Y7499134D01*
X-30103600Y7495545D01*
X-30100310Y7488805D01*
X-30098025Y7476914D01*
X-30096567Y7457872D01*
X-30095758Y7429681D01*
X-30095422Y7390341D01*
X-30095372Y7356068D01*
X-30095562Y7313058D01*
X-30096091Y7275216D01*
X-30096896Y7244866D01*
X-30097917Y7224330D01*
X-30099089Y7215934D01*
X-30099117Y7215903D01*
X-30107642Y7215487D01*
X-30125554Y7218422D01*
X-30140612Y7221950D01*
X-30175971Y7228420D01*
X-30215357Y7231363D01*
X-30254125Y7230824D01*
X-30287633Y7226849D01*
X-30309611Y7220298D01*
X-30331832Y7202190D01*
X-30347791Y7173596D01*
X-30355920Y7137765D01*
X-30356629Y7122906D01*
X-30356629Y7094192D01*
X-30227815Y7092210D01*
X-30099000Y7090228D01*
X-30097036Y6943271D01*
X-30095071Y6796314D01*
X-30356629Y6796314D01*
X-30356629Y5969000D01*
X-30763029Y5969000D01*
X-30763029Y6796314D01*
X-30893657Y6796314D01*
X-30893657Y7108371D01*
X-30765161Y7108371D01*
X-30760925Y7175500D01*
X-30750104Y7254090D01*
X-30728279Y7323467D01*
X-30695675Y7383359D01*
X-30652513Y7433494D01*
X-30599017Y7473600D01*
X-30535409Y7503407D01*
X-30478754Y7519366D01*
X-30442487Y7524729D01*
X-30397843Y7527709D01*
X-30347820Y7528469D01*
X-30295413Y7527174D01*
G36*
X-23732522Y7255328D02*
X-23730557Y7108371D01*
X-23454814Y7108371D01*
X-23456764Y6943271D01*
X-23458715Y6778171D01*
X-23594786Y6776197D01*
X-23730857Y6774222D01*
X-23730857Y6563565D01*
X-23730752Y6497762D01*
X-23730264Y6444882D01*
X-23729130Y6403333D01*
X-23727091Y6371524D01*
X-23723886Y6347864D01*
X-23719253Y6330762D01*
X-23712933Y6318627D01*
X-23704665Y6309866D01*
X-23694187Y6302890D01*
X-23687552Y6299323D01*
X-23663690Y6292159D01*
X-23630416Y6288894D01*
X-23592291Y6289514D01*
X-23553880Y6294000D01*
X-23527657Y6299885D01*
X-23502440Y6306951D01*
X-23480696Y6312810D01*
X-23471415Y6315160D01*
X-23455086Y6319035D01*
X-23455086Y6004487D01*
X-23494256Y5987164D01*
X-23533376Y5971235D01*
X-23570346Y5959649D01*
X-23609002Y5951677D01*
X-23653179Y5946596D01*
X-23706712Y5943678D01*
X-23727229Y5943062D01*
X-23785175Y5942426D01*
X-23830722Y5943900D01*
X-23865842Y5947577D01*
X-23880539Y5950369D01*
X-23948674Y5972024D01*
X-24006488Y6003835D01*
X-24054255Y6046060D01*
X-24092247Y6098960D01*
X-24120736Y6162791D01*
X-24127664Y6184778D01*
X-24130908Y6198132D01*
X-24133604Y6214611D01*
X-24135822Y6235740D01*
X-24137636Y6263045D01*
X-24139119Y6298049D01*
X-24140343Y6342280D01*
X-24141381Y6397261D01*
X-24142307Y6464519D01*
X-24142721Y6500585D01*
X-24145721Y6774543D01*
X-24267886Y6774543D01*
X-24267886Y7108371D01*
X-24144815Y7108371D01*
X-24142851Y7255328D01*
X-24140886Y7402285D01*
X-23734486Y7402285D01*
X-23732522Y7255328D01*
X-23732522Y7255328D01*
G37*
X-23732522Y7255328D02*
X-23730557Y7108371D01*
X-23454814Y7108371D01*
X-23456764Y6943271D01*
X-23458715Y6778171D01*
X-23594786Y6776197D01*
X-23730857Y6774222D01*
X-23730857Y6563565D01*
X-23730752Y6497762D01*
X-23730264Y6444882D01*
X-23729130Y6403333D01*
X-23727091Y6371524D01*
X-23723886Y6347864D01*
X-23719253Y6330762D01*
X-23712933Y6318627D01*
X-23704665Y6309866D01*
X-23694187Y6302890D01*
X-23687552Y6299323D01*
X-23663690Y6292159D01*
X-23630416Y6288894D01*
X-23592291Y6289514D01*
X-23553880Y6294000D01*
X-23527657Y6299885D01*
X-23502440Y6306951D01*
X-23480696Y6312810D01*
X-23471415Y6315160D01*
X-23455086Y6319035D01*
X-23455086Y6004487D01*
X-23494256Y5987164D01*
X-23533376Y5971235D01*
X-23570346Y5959649D01*
X-23609002Y5951677D01*
X-23653179Y5946596D01*
X-23706712Y5943678D01*
X-23727229Y5943062D01*
X-23785175Y5942426D01*
X-23830722Y5943900D01*
X-23865842Y5947577D01*
X-23880539Y5950369D01*
X-23948674Y5972024D01*
X-24006488Y6003835D01*
X-24054255Y6046060D01*
X-24092247Y6098960D01*
X-24120736Y6162791D01*
X-24127664Y6184778D01*
X-24130908Y6198132D01*
X-24133604Y6214611D01*
X-24135822Y6235740D01*
X-24137636Y6263045D01*
X-24139119Y6298049D01*
X-24140343Y6342280D01*
X-24141381Y6397261D01*
X-24142307Y6464519D01*
X-24142721Y6500585D01*
X-24145721Y6774543D01*
X-24267886Y6774543D01*
X-24267886Y7108371D01*
X-24144815Y7108371D01*
X-24142851Y7255328D01*
X-24140886Y7402285D01*
X-23734486Y7402285D01*
X-23732522Y7255328D01*
G36*
X-26308920Y6738257D02*
X-26307069Y5965371D01*
X-26513935Y5967403D01*
X-26720800Y5969435D01*
X-26720800Y6108644D01*
X-26771551Y6060768D01*
X-26798962Y6036461D01*
X-26827872Y6013321D01*
X-26853310Y5995258D01*
X-26860451Y5990871D01*
X-26924965Y5961452D01*
X-26995885Y5942913D01*
X-27069333Y5935889D01*
X-27141433Y5941015D01*
X-27152600Y5943008D01*
X-27235271Y5966070D01*
X-27310529Y6001361D01*
X-27377861Y6048342D01*
X-27436757Y6106473D01*
X-27486706Y6175216D01*
X-27527196Y6254031D01*
X-27557717Y6342380D01*
X-27566958Y6379991D01*
X-27575869Y6437987D01*
X-27579814Y6504274D01*
X-27578897Y6573579D01*
X-27573222Y6640632D01*
X-27562894Y6700160D01*
X-27560438Y6710091D01*
X-27550905Y6742686D01*
X-27539051Y6777543D01*
X-27526011Y6811940D01*
X-27512921Y6843159D01*
X-27500917Y6868479D01*
X-27491133Y6885180D01*
X-27485087Y6890594D01*
X-27479975Y6884876D01*
X-27467615Y6868733D01*
X-27449059Y6843645D01*
X-27425360Y6811095D01*
X-27397570Y6772562D01*
X-27366742Y6729528D01*
X-27333929Y6683474D01*
X-27300185Y6635879D01*
X-27266561Y6588226D01*
X-27234110Y6541996D01*
X-27203886Y6498668D01*
X-27176940Y6459723D01*
X-27154327Y6426644D01*
X-27138807Y6403503D01*
X-27111811Y6362663D01*
X-26723421Y6172449D01*
X-26653548Y6138291D01*
X-26587628Y6106183D01*
X-26526798Y6076673D01*
X-26472198Y6050307D01*
X-26424967Y6027632D01*
X-26386243Y6009195D01*
X-26357164Y5995543D01*
X-26338870Y5987222D01*
X-26332508Y5984759D01*
X-26336002Y5991052D01*
X-26346955Y6008283D01*
X-26364657Y6035390D01*
X-26388404Y6071312D01*
X-26417487Y6114986D01*
X-26451199Y6165350D01*
X-26488835Y6221342D01*
X-26529686Y6281900D01*
X-26567121Y6337220D01*
X-26804257Y6687158D01*
X-27099219Y6839707D01*
X-27159691Y6870927D01*
X-27216207Y6899998D01*
X-27267464Y6926257D01*
X-27312158Y6949042D01*
X-27348986Y6967689D01*
X-27376645Y6981536D01*
X-27393830Y6989921D01*
X-27399227Y6992257D01*
X-27408438Y6986186D01*
X-27424243Y6968620D01*
X-27445803Y6940529D01*
X-27454397Y6928608D01*
X-27467842Y6911941D01*
X-27478676Y6902444D01*
X-27482841Y6901567D01*
X-27489110Y6908653D01*
X-27501973Y6925424D01*
X-27519760Y6949631D01*
X-27540800Y6979027D01*
X-27548969Y6990617D01*
X-27572197Y7023582D01*
X-27594073Y7054406D01*
X-27612458Y7080086D01*
X-27625209Y7097621D01*
X-27627268Y7100383D01*
X-27633185Y7108662D01*
X-27635279Y7113623D01*
X-27632113Y7114747D01*
X-27622247Y7111517D01*
X-27604244Y7103415D01*
X-27576666Y7089924D01*
X-27538075Y7070525D01*
X-27522588Y7062694D01*
X-27399343Y7000335D01*
X-27377572Y7020935D01*
X-27341236Y7049894D01*
X-27295213Y7078291D01*
X-27244166Y7103386D01*
X-27221543Y7112589D01*
X-27198449Y7120955D01*
X-27178517Y7126709D01*
X-27158092Y7130339D01*
X-27133516Y7132330D01*
X-27101134Y7133170D01*
X-27065515Y7133340D01*
X-27022296Y7133060D01*
X-26990002Y7131871D01*
X-26965052Y7129375D01*
X-26943866Y7125171D01*
X-26922862Y7118860D01*
X-26916743Y7116737D01*
X-26864645Y7093723D01*
X-26812990Y7062778D01*
X-26767683Y7027615D01*
X-26753404Y7013967D01*
X-26724429Y6984287D01*
X-26720800Y7247715D01*
X-26717172Y7511143D01*
X-26310772Y7511143D01*
X-26308920Y6738257D01*
X-26308920Y6738257D01*
G37*
X-26308920Y6738257D02*
X-26307069Y5965371D01*
X-26513935Y5967403D01*
X-26720800Y5969435D01*
X-26720800Y6108644D01*
X-26771551Y6060768D01*
X-26798962Y6036461D01*
X-26827872Y6013321D01*
X-26853310Y5995258D01*
X-26860451Y5990871D01*
X-26924965Y5961452D01*
X-26995885Y5942913D01*
X-27069333Y5935889D01*
X-27141433Y5941015D01*
X-27152600Y5943008D01*
X-27235271Y5966070D01*
X-27310529Y6001361D01*
X-27377861Y6048342D01*
X-27436757Y6106473D01*
X-27486706Y6175216D01*
X-27527196Y6254031D01*
X-27557717Y6342380D01*
X-27566958Y6379991D01*
X-27575869Y6437987D01*
X-27579814Y6504274D01*
X-27578897Y6573579D01*
X-27573222Y6640632D01*
X-27562894Y6700160D01*
X-27560438Y6710091D01*
X-27550905Y6742686D01*
X-27539051Y6777543D01*
X-27526011Y6811940D01*
X-27512921Y6843159D01*
X-27500917Y6868479D01*
X-27491133Y6885180D01*
X-27485087Y6890594D01*
X-27479975Y6884876D01*
X-27467615Y6868733D01*
X-27449059Y6843645D01*
X-27425360Y6811095D01*
X-27397570Y6772562D01*
X-27366742Y6729528D01*
X-27333929Y6683474D01*
X-27300185Y6635879D01*
X-27266561Y6588226D01*
X-27234110Y6541996D01*
X-27203886Y6498668D01*
X-27176940Y6459723D01*
X-27154327Y6426644D01*
X-27138807Y6403503D01*
X-27111811Y6362663D01*
X-26723421Y6172449D01*
X-26653548Y6138291D01*
X-26587628Y6106183D01*
X-26526798Y6076673D01*
X-26472198Y6050307D01*
X-26424967Y6027632D01*
X-26386243Y6009195D01*
X-26357164Y5995543D01*
X-26338870Y5987222D01*
X-26332508Y5984759D01*
X-26336002Y5991052D01*
X-26346955Y6008283D01*
X-26364657Y6035390D01*
X-26388404Y6071312D01*
X-26417487Y6114986D01*
X-26451199Y6165350D01*
X-26488835Y6221342D01*
X-26529686Y6281900D01*
X-26567121Y6337220D01*
X-26804257Y6687158D01*
X-27099219Y6839707D01*
X-27159691Y6870927D01*
X-27216207Y6899998D01*
X-27267464Y6926257D01*
X-27312158Y6949042D01*
X-27348986Y6967689D01*
X-27376645Y6981536D01*
X-27393830Y6989921D01*
X-27399227Y6992257D01*
X-27408438Y6986186D01*
X-27424243Y6968620D01*
X-27445803Y6940529D01*
X-27454397Y6928608D01*
X-27467842Y6911941D01*
X-27478676Y6902444D01*
X-27482841Y6901567D01*
X-27489110Y6908653D01*
X-27501973Y6925424D01*
X-27519760Y6949631D01*
X-27540800Y6979027D01*
X-27548969Y6990617D01*
X-27572197Y7023582D01*
X-27594073Y7054406D01*
X-27612458Y7080086D01*
X-27625209Y7097621D01*
X-27627268Y7100383D01*
X-27633185Y7108662D01*
X-27635279Y7113623D01*
X-27632113Y7114747D01*
X-27622247Y7111517D01*
X-27604244Y7103415D01*
X-27576666Y7089924D01*
X-27538075Y7070525D01*
X-27522588Y7062694D01*
X-27399343Y7000335D01*
X-27377572Y7020935D01*
X-27341236Y7049894D01*
X-27295213Y7078291D01*
X-27244166Y7103386D01*
X-27221543Y7112589D01*
X-27198449Y7120955D01*
X-27178517Y7126709D01*
X-27158092Y7130339D01*
X-27133516Y7132330D01*
X-27101134Y7133170D01*
X-27065515Y7133340D01*
X-27022296Y7133060D01*
X-26990002Y7131871D01*
X-26965052Y7129375D01*
X-26943866Y7125171D01*
X-26922862Y7118860D01*
X-26916743Y7116737D01*
X-26864645Y7093723D01*
X-26812990Y7062778D01*
X-26767683Y7027615D01*
X-26753404Y7013967D01*
X-26724429Y6984287D01*
X-26720800Y7247715D01*
X-26717172Y7511143D01*
X-26310772Y7511143D01*
X-26308920Y6738257D01*
G36*
X-28746308Y7133711D02*
X-28691875Y7129714D01*
X-28644354Y7122939D01*
X-28618954Y7117006D01*
X-28534646Y7085602D01*
X-28458886Y7042746D01*
X-28392350Y6989055D01*
X-28335710Y6925149D01*
X-28289644Y6851647D01*
X-28261953Y6789308D01*
X-28242070Y6729687D01*
X-28227642Y6670076D01*
X-28217808Y6605939D01*
X-28211708Y6532742D01*
X-28211084Y6521131D01*
X-28206279Y6426200D01*
X-28979345Y6426200D01*
X-28974433Y6406243D01*
X-28957718Y6364637D01*
X-28929967Y6324472D01*
X-28894458Y6289575D01*
X-28854474Y6263773D01*
X-28850816Y6262049D01*
X-28793648Y6243717D01*
X-28732990Y6238492D01*
X-28670790Y6246024D01*
X-28608999Y6265964D01*
X-28549566Y6297964D01*
X-28517026Y6321845D01*
X-28477144Y6354332D01*
X-28368229Y6262962D01*
X-28334715Y6234588D01*
X-28305381Y6209256D01*
X-28281921Y6188472D01*
X-28266031Y6173741D01*
X-28259407Y6166568D01*
X-28259315Y6166272D01*
X-28264445Y6158136D01*
X-28278208Y6142909D01*
X-28298163Y6122885D01*
X-28321870Y6100354D01*
X-28346888Y6077609D01*
X-28370777Y6056943D01*
X-28391095Y6040648D01*
X-28399469Y6034642D01*
X-28462121Y5999205D01*
X-28534513Y5969727D01*
X-28586556Y5954159D01*
X-28630008Y5945662D01*
X-28682750Y5939478D01*
X-28739724Y5935852D01*
X-28795871Y5935030D01*
X-28846132Y5937257D01*
X-28872261Y5940299D01*
X-28965325Y5961565D01*
X-29051872Y5994789D01*
X-29130810Y6039298D01*
X-29201050Y6094417D01*
X-29261502Y6159472D01*
X-29289753Y6198588D01*
X-29330836Y6273582D01*
X-29359948Y6354024D01*
X-29377371Y6438185D01*
X-29383383Y6524334D01*
X-29378263Y6610741D01*
X-29374755Y6629400D01*
X-28986843Y6629400D01*
X-28593143Y6629400D01*
X-28593143Y6647270D01*
X-28597380Y6673317D01*
X-28608584Y6705375D01*
X-28624500Y6738251D01*
X-28642868Y6766752D01*
X-28647649Y6772666D01*
X-28681443Y6804031D01*
X-28719969Y6823361D01*
X-28765938Y6831827D01*
X-28785934Y6832440D01*
X-28834983Y6827863D01*
X-28875215Y6813689D01*
X-28909637Y6788741D01*
X-28917507Y6780872D01*
X-28936964Y6755194D01*
X-28956243Y6721273D01*
X-28972325Y6685101D01*
X-28982189Y6652669D01*
X-28982217Y6652531D01*
X-28986843Y6629400D01*
X-29374755Y6629400D01*
X-29362293Y6695676D01*
X-29335751Y6777407D01*
X-29298917Y6854206D01*
X-29252071Y6924340D01*
X-29195493Y6986082D01*
X-29157282Y7018157D01*
X-29109200Y7050066D01*
X-29053164Y7080164D01*
X-28995403Y7105380D01*
X-28948743Y7120918D01*
X-28908873Y7128534D01*
X-28859029Y7133171D01*
X-28803433Y7134880D01*
X-28746308Y7133711D01*
X-28746308Y7133711D01*
G37*
X-28746308Y7133711D02*
X-28691875Y7129714D01*
X-28644354Y7122939D01*
X-28618954Y7117006D01*
X-28534646Y7085602D01*
X-28458886Y7042746D01*
X-28392350Y6989055D01*
X-28335710Y6925149D01*
X-28289644Y6851647D01*
X-28261953Y6789308D01*
X-28242070Y6729687D01*
X-28227642Y6670076D01*
X-28217808Y6605939D01*
X-28211708Y6532742D01*
X-28211084Y6521131D01*
X-28206279Y6426200D01*
X-28979345Y6426200D01*
X-28974433Y6406243D01*
X-28957718Y6364637D01*
X-28929967Y6324472D01*
X-28894458Y6289575D01*
X-28854474Y6263773D01*
X-28850816Y6262049D01*
X-28793648Y6243717D01*
X-28732990Y6238492D01*
X-28670790Y6246024D01*
X-28608999Y6265964D01*
X-28549566Y6297964D01*
X-28517026Y6321845D01*
X-28477144Y6354332D01*
X-28368229Y6262962D01*
X-28334715Y6234588D01*
X-28305381Y6209256D01*
X-28281921Y6188472D01*
X-28266031Y6173741D01*
X-28259407Y6166568D01*
X-28259315Y6166272D01*
X-28264445Y6158136D01*
X-28278208Y6142909D01*
X-28298163Y6122885D01*
X-28321870Y6100354D01*
X-28346888Y6077609D01*
X-28370777Y6056943D01*
X-28391095Y6040648D01*
X-28399469Y6034642D01*
X-28462121Y5999205D01*
X-28534513Y5969727D01*
X-28586556Y5954159D01*
X-28630008Y5945662D01*
X-28682750Y5939478D01*
X-28739724Y5935852D01*
X-28795871Y5935030D01*
X-28846132Y5937257D01*
X-28872261Y5940299D01*
X-28965325Y5961565D01*
X-29051872Y5994789D01*
X-29130810Y6039298D01*
X-29201050Y6094417D01*
X-29261502Y6159472D01*
X-29289753Y6198588D01*
X-29330836Y6273582D01*
X-29359948Y6354024D01*
X-29377371Y6438185D01*
X-29383383Y6524334D01*
X-29378263Y6610741D01*
X-29374755Y6629400D01*
X-28986843Y6629400D01*
X-28593143Y6629400D01*
X-28593143Y6647270D01*
X-28597380Y6673317D01*
X-28608584Y6705375D01*
X-28624500Y6738251D01*
X-28642868Y6766752D01*
X-28647649Y6772666D01*
X-28681443Y6804031D01*
X-28719969Y6823361D01*
X-28765938Y6831827D01*
X-28785934Y6832440D01*
X-28834983Y6827863D01*
X-28875215Y6813689D01*
X-28909637Y6788741D01*
X-28917507Y6780872D01*
X-28936964Y6755194D01*
X-28956243Y6721273D01*
X-28972325Y6685101D01*
X-28982189Y6652669D01*
X-28982217Y6652531D01*
X-28986843Y6629400D01*
X-29374755Y6629400D01*
X-29362293Y6695676D01*
X-29335751Y6777407D01*
X-29298917Y6854206D01*
X-29252071Y6924340D01*
X-29195493Y6986082D01*
X-29157282Y7018157D01*
X-29109200Y7050066D01*
X-29053164Y7080164D01*
X-28995403Y7105380D01*
X-28948743Y7120918D01*
X-28908873Y7128534D01*
X-28859029Y7133171D01*
X-28803433Y7134880D01*
X-28746308Y7133711D01*
G04 #@! TD*
M02*
