G04 #@! TF.GenerationSoftware,KiCad,Pcbnew,(5.0.0)*
G04 #@! TF.CreationDate,2019-01-02T13:47:13-06:00*
G04 #@! TF.ProjectId,fk-weather-v0.11-02x03,666B2D776561746865722D76302E3131,0.1*
G04 #@! TF.SameCoordinates,PX791ddc0PY791ddc0*
G04 #@! TF.FileFunction,Paste,Bot*
G04 #@! TF.FilePolarity,Positive*
%FSLAX46Y46*%
G04 Gerber Fmt 4.6, Leading zero omitted, Abs format (unit mm)*
G04 Created by KiCad (PCBNEW (5.0.0)) date 01/02/19 13:47:13*
%MOMM*%
%LPD*%
G01*
G04 APERTURE LIST*
%ADD10R,1.260000X1.440000*%
%ADD11R,1.215000X0.360000*%
%ADD12R,1.260000X1.710000*%
%ADD13R,2.070000X4.050000*%
%ADD14C,2.250000*%
G04 APERTURE END LIST*
D10*
G04 #@! TO.C,J5*
X55883600Y-121777400D03*
D11*
X54963600Y-118577400D03*
D12*
X57883600Y-119777400D03*
X57883600Y-117377400D03*
D11*
X54963600Y-117927400D03*
X54963600Y-117277400D03*
X54963600Y-119227400D03*
X54963600Y-119877400D03*
D10*
X55883600Y-115377400D03*
G04 #@! TD*
G04 #@! TO.C,J5*
X15383600Y-121777400D03*
D11*
X14463600Y-118577400D03*
D12*
X17383600Y-119777400D03*
X17383600Y-117377400D03*
D11*
X14463600Y-117927400D03*
X14463600Y-117277400D03*
X14463600Y-119227400D03*
X14463600Y-119877400D03*
D10*
X15383600Y-115377400D03*
G04 #@! TD*
G04 #@! TO.C,J5*
X-25116400Y-121777400D03*
D11*
X-26036400Y-118577400D03*
D12*
X-23116400Y-119777400D03*
X-23116400Y-117377400D03*
D11*
X-26036400Y-117927400D03*
X-26036400Y-117277400D03*
X-26036400Y-119227400D03*
X-26036400Y-119877400D03*
D10*
X-25116400Y-115377400D03*
G04 #@! TD*
G04 #@! TO.C,J5*
X55883600Y-15777400D03*
D11*
X54963600Y-12577400D03*
D12*
X57883600Y-13777400D03*
X57883600Y-11377400D03*
D11*
X54963600Y-11927400D03*
X54963600Y-11277400D03*
X54963600Y-13227400D03*
X54963600Y-13877400D03*
D10*
X55883600Y-9377400D03*
G04 #@! TD*
G04 #@! TO.C,J5*
X15383600Y-15777400D03*
D11*
X14463600Y-12577400D03*
D12*
X17383600Y-13777400D03*
X17383600Y-11377400D03*
D11*
X14463600Y-11927400D03*
X14463600Y-11277400D03*
X14463600Y-13227400D03*
X14463600Y-13877400D03*
D10*
X15383600Y-9377400D03*
G04 #@! TD*
D13*
G04 #@! TO.C,BT1*
X29232400Y-104139400D03*
X29232400Y-120539400D03*
G04 #@! TD*
G04 #@! TO.C,BT1*
X-11267600Y-104139400D03*
X-11267600Y-120539400D03*
G04 #@! TD*
G04 #@! TO.C,BT1*
X-51767600Y-104139400D03*
X-51767600Y-120539400D03*
G04 #@! TD*
G04 #@! TO.C,BT1*
X29232400Y1860600D03*
X29232400Y-14539400D03*
G04 #@! TD*
G04 #@! TO.C,BT1*
X-11267600Y1860600D03*
X-11267600Y-14539400D03*
G04 #@! TD*
D14*
G04 #@! TO.C,REF\002A\002A*
X65511400Y86510600D03*
G04 #@! TD*
G04 #@! TO.C,REF\002A\002A*
X-64988600Y-134489400D03*
G04 #@! TD*
G04 #@! TO.C,REF\002A\002A*
X-64988600Y86510600D03*
G04 #@! TD*
D10*
G04 #@! TO.C,J5*
X-25116400Y-9377400D03*
D11*
X-26036400Y-13877400D03*
X-26036400Y-13227400D03*
X-26036400Y-11277400D03*
X-26036400Y-11927400D03*
D12*
X-23116400Y-11377400D03*
X-23116400Y-13777400D03*
D11*
X-26036400Y-12577400D03*
D10*
X-25116400Y-15777400D03*
G04 #@! TD*
D13*
G04 #@! TO.C,BT1*
X-51767600Y-14539400D03*
X-51767600Y1860600D03*
G04 #@! TD*
M02*
