G04 #@! TF.GenerationSoftware,KiCad,Pcbnew,(5.0.0)*
G04 #@! TF.CreationDate,2019-01-02T13:47:13-06:00*
G04 #@! TF.ProjectId,fk-weather-v0.11-02x03,666B2D776561746865722D76302E3131,0.1*
G04 #@! TF.SameCoordinates,PX791ddc0PY791ddc0*
G04 #@! TF.FileFunction,Profile,NP*
%FSLAX46Y46*%
G04 Gerber Fmt 4.6, Leading zero omitted, Abs format (unit mm)*
G04 Created by KiCad (PCBNEW (5.0.0)) date 01/02/19 13:47:13*
%MOMM*%
%LPD*%
G01*
G04 APERTURE LIST*
%ADD10C,0.150000*%
%ADD11C,0.200000*%
G04 APERTURE END LIST*
D10*
X62511400Y62010600D02*
X59511400Y62010600D01*
X62511400Y59010600D02*
X59511400Y59010600D01*
X62511400Y510600D02*
X59511400Y510600D01*
X62511400Y-2489400D02*
X59511400Y-2489400D01*
X62511400Y-46989400D02*
X59511400Y-46989400D01*
X62511400Y-43989400D02*
X59511400Y-43989400D01*
X62511400Y-105489400D02*
X59511400Y-105489400D01*
X62511400Y-108489400D02*
X59511400Y-108489400D01*
X43011400Y-128489400D02*
X43011400Y-131489400D01*
X40011400Y-131489400D02*
X40011400Y-128489400D01*
X2511400Y-128489400D02*
X2511400Y-131489400D01*
X-488600Y-131489400D02*
X-488600Y-128489400D01*
X-37988600Y-128489400D02*
X-37988600Y-131489400D01*
X-40988600Y-131489400D02*
X-40988600Y-128489400D01*
X58014845Y-128491483D02*
G75*
G03X59514845Y-126991483I0J1500000D01*
G01*
X17514845Y-128491483D02*
G75*
G03X19014845Y-126991483I0J1500000D01*
G01*
X-22985155Y-128491483D02*
G75*
G03X-21485155Y-126991483I0J1500000D01*
G01*
X58014845Y-22491483D02*
G75*
G03X59514845Y-20991483I0J1500000D01*
G01*
X17514845Y-22491483D02*
G75*
G03X19014845Y-20991483I0J1500000D01*
G01*
X19011400Y-43989400D02*
X22011400Y-43989400D01*
X-21488600Y-43989400D02*
X-18488600Y-43989400D01*
X-61988600Y-43989400D02*
X-58988600Y-43989400D01*
X19011400Y62010600D02*
X22011400Y62010600D01*
X-21488600Y62010600D02*
X-18488600Y62010600D01*
X22011400Y-46989400D02*
X19011400Y-46989400D01*
X-18488600Y-46989400D02*
X-21488600Y-46989400D01*
X-58988600Y-46989400D02*
X-61988600Y-46989400D01*
X22011400Y59010600D02*
X19011400Y59010600D01*
X-18488600Y59010600D02*
X-21488600Y59010600D01*
X22011400Y-105489400D02*
X22011400Y-46989400D01*
X-18488600Y-105489400D02*
X-18488600Y-46989400D01*
X-58988600Y-105489400D02*
X-58988600Y-46989400D01*
X22011400Y510600D02*
X22011400Y59010600D01*
X-18488600Y510600D02*
X-18488600Y59010600D01*
X22011400Y-105489400D02*
X19011400Y-105489400D01*
X-18488600Y-105489400D02*
X-21488600Y-105489400D01*
X-58988600Y-105489400D02*
X-61988600Y-105489400D01*
X22011400Y510600D02*
X19011400Y510600D01*
X-18488600Y510600D02*
X-21488600Y510600D01*
X22011400Y-126989400D02*
X22011400Y-108489400D01*
X-18488600Y-126989400D02*
X-18488600Y-108489400D01*
X-58988600Y-126989400D02*
X-58988600Y-108489400D01*
X22011400Y-20989400D02*
X22011400Y-2489400D01*
X-18488600Y-20989400D02*
X-18488600Y-2489400D01*
X40011400Y-25489400D02*
X23514845Y-25491483D01*
X-488600Y-25489400D02*
X-16985155Y-25491483D01*
X-40988600Y-25489400D02*
X-57485155Y-25491483D01*
X40011400Y80510600D02*
X23514845Y80508517D01*
X-488600Y80510600D02*
X-16985155Y80508517D01*
X59514845Y-26991483D02*
G75*
G03X58014845Y-25491483I-1500000J0D01*
G01*
X19014845Y-26991483D02*
G75*
G03X17514845Y-25491483I-1500000J0D01*
G01*
X-21485155Y-26991483D02*
G75*
G03X-22985155Y-25491483I-1500000J0D01*
G01*
X59514845Y79008517D02*
G75*
G03X58014845Y80508517I-1500000J0D01*
G01*
X19014845Y79008517D02*
G75*
G03X17514845Y80508517I-1500000J0D01*
G01*
X59511400Y-26989400D02*
X59511400Y-43989400D01*
X19011400Y-26989400D02*
X19011400Y-43989400D01*
X-21488600Y-26989400D02*
X-21488600Y-43989400D01*
X59511400Y79010600D02*
X59511400Y62010600D01*
X19011400Y79010600D02*
X19011400Y62010600D01*
X22011400Y-43989400D02*
X22011400Y-26989400D01*
X-18488600Y-43989400D02*
X-18488600Y-26989400D01*
X-58988600Y-43989400D02*
X-58988600Y-26989400D01*
X22011400Y62010600D02*
X22011400Y79010600D01*
X-18488600Y62010600D02*
X-18488600Y79010600D01*
D11*
X43011400Y-25489400D02*
X58011400Y-25489400D01*
X2511400Y-25489400D02*
X17511400Y-25489400D01*
X-37988600Y-25489400D02*
X-22988600Y-25489400D01*
X43011400Y80510600D02*
X58011400Y80510600D01*
X2511400Y80510600D02*
X17511400Y80510600D01*
D10*
X22011400Y-108489400D02*
X19011400Y-108489400D01*
X-18488600Y-108489400D02*
X-21488600Y-108489400D01*
X-58988600Y-108489400D02*
X-61988600Y-108489400D01*
X22011400Y-2489400D02*
X19011400Y-2489400D01*
X-18488600Y-2489400D02*
X-21488600Y-2489400D01*
X59511400Y-46989400D02*
X59511400Y-105489400D01*
X19011400Y-46989400D02*
X19011400Y-105489400D01*
X-21488600Y-46989400D02*
X-21488600Y-105489400D01*
X59511400Y59010600D02*
X59511400Y510600D01*
X19011400Y59010600D02*
X19011400Y510600D01*
X40011400Y-25489400D02*
X40011400Y-22489400D01*
X-488600Y-25489400D02*
X-488600Y-22489400D01*
X-40988600Y-25489400D02*
X-40988600Y-22489400D01*
X40011400Y80510600D02*
X40011400Y83510600D01*
X-488600Y80510600D02*
X-488600Y83510600D01*
X43011400Y-22489400D02*
X43011400Y-25489400D01*
X2511400Y-22489400D02*
X2511400Y-25489400D01*
X-37988600Y-22489400D02*
X-37988600Y-25489400D01*
X43011400Y83510600D02*
X43011400Y80510600D01*
X2511400Y83510600D02*
X2511400Y80510600D01*
X40011400Y-128489400D02*
X23511400Y-128489400D01*
X-488600Y-128489400D02*
X-16988600Y-128489400D01*
X-40988600Y-128489400D02*
X-57488600Y-128489400D01*
X40011400Y-22489400D02*
X23511400Y-22489400D01*
X-488600Y-22489400D02*
X-16988600Y-22489400D01*
X58011400Y-128489400D02*
X43011400Y-128489400D01*
X17511400Y-128489400D02*
X2511400Y-128489400D01*
X-22988600Y-128489400D02*
X-37988600Y-128489400D01*
X58011400Y-22489400D02*
X43011400Y-22489400D01*
X17511400Y-22489400D02*
X2511400Y-22489400D01*
X22014845Y-126991483D02*
G75*
G03X23514845Y-128491483I1500000J0D01*
G01*
X-18485155Y-126991483D02*
G75*
G03X-16985155Y-128491483I1500000J0D01*
G01*
X-58985155Y-126991483D02*
G75*
G03X-57485155Y-128491483I1500000J0D01*
G01*
X22014845Y-20991483D02*
G75*
G03X23514845Y-22491483I1500000J0D01*
G01*
X-18485155Y-20991483D02*
G75*
G03X-16985155Y-22491483I1500000J0D01*
G01*
X23514845Y-25491483D02*
G75*
G03X22014845Y-26991483I0J-1500000D01*
G01*
X-16985155Y-25491483D02*
G75*
G03X-18485155Y-26991483I0J-1500000D01*
G01*
X-57485155Y-25491483D02*
G75*
G03X-58985155Y-26991483I0J-1500000D01*
G01*
X23514845Y80508517D02*
G75*
G03X22014845Y79008517I0J-1500000D01*
G01*
X-16985155Y80508517D02*
G75*
G03X-18485155Y79008517I0J-1500000D01*
G01*
X59511400Y-108489400D02*
X59511400Y-126989400D01*
X19011400Y-108489400D02*
X19011400Y-126989400D01*
X-21488600Y-108489400D02*
X-21488600Y-126989400D01*
X59511400Y-2489400D02*
X59511400Y-20989400D01*
X19011400Y-2489400D02*
X19011400Y-20989400D01*
X68511400Y89510600D02*
X-67988600Y89510600D01*
X68511400Y-137489400D02*
X68511400Y89510600D01*
X-68488600Y-137489400D02*
X68511400Y-137489400D01*
X-67988600Y89510600D02*
X-68488600Y-137489400D01*
X2511400Y-131489400D02*
X40011400Y-131489400D01*
X-37988600Y-131489400D02*
X-488600Y-131489400D01*
X-61988600Y-131489400D02*
X-40988600Y-131489400D01*
X-61988600Y-108489400D02*
X-61988600Y-131489400D01*
X-61988600Y-46989400D02*
X-61988600Y-105489400D01*
X-61988600Y-2489400D02*
X-61988600Y-43989400D01*
X-61988600Y59010600D02*
X-61988600Y510600D01*
X-61988600Y83510600D02*
X-61988600Y62010600D01*
X-40988600Y83510600D02*
X-61988600Y83510600D01*
X-488600Y83510600D02*
X-37988600Y83510600D01*
X40011400Y83510600D02*
X2511400Y83510600D01*
X62511400Y83510600D02*
X43011400Y83510600D01*
X62511400Y62010600D02*
X62511400Y83510600D01*
X62511400Y510600D02*
X62511400Y59010600D01*
X62511400Y-43989400D02*
X62511400Y-2489400D01*
X62511400Y-105489400D02*
X62511400Y-46989400D01*
X62511400Y-131489400D02*
X62511400Y-108489400D01*
X43011400Y-131489400D02*
X62511400Y-131489400D01*
X-40988600Y-22489400D02*
X-57488600Y-22489400D01*
X-22988600Y-22489400D02*
X-37988600Y-22489400D01*
X-21488600Y-2489400D02*
X-21488600Y-20989400D01*
X-21488600Y59010600D02*
X-21488600Y510600D01*
X-21488600Y79010600D02*
X-21488600Y62010600D01*
X-37988600Y83510600D02*
X-37988600Y80510600D01*
X-40988600Y80510600D02*
X-40988600Y83510600D01*
X-58988600Y62010600D02*
X-58988600Y79010600D01*
X-61988600Y62010600D02*
X-58988600Y62010600D01*
X-58988600Y59010600D02*
X-61988600Y59010600D01*
X-58988600Y510600D02*
X-58988600Y59010600D01*
X-58988600Y510600D02*
X-61988600Y510600D01*
X-58988600Y-2489400D02*
X-61988600Y-2489400D01*
X-58988600Y-20989400D02*
X-58988600Y-2489400D01*
D11*
X-37988600Y80510600D02*
X-22988600Y80510600D01*
D10*
X-57485155Y80508517D02*
G75*
G03X-58985155Y79008517I0J-1500000D01*
G01*
X-58985155Y-20991483D02*
G75*
G03X-57485155Y-22491483I1500000J0D01*
G01*
X-22985155Y-22491483D02*
G75*
G03X-21485155Y-20991483I0J1500000D01*
G01*
X-21485155Y79008517D02*
G75*
G03X-22985155Y80508517I-1500000J0D01*
G01*
X-40988600Y80510600D02*
X-57485155Y80508517D01*
M02*
