G04 #@! TF.GenerationSoftware,KiCad,Pcbnew,(5.0.0)*
G04 #@! TF.CreationDate,2019-01-02T13:47:13-06:00*
G04 #@! TF.ProjectId,fk-weather-v0.11-02x03,666B2D776561746865722D76302E3131,0.1*
G04 #@! TF.SameCoordinates,PX791ddc0PY791ddc0*
G04 #@! TF.FileFunction,Legend,Bot*
G04 #@! TF.FilePolarity,Positive*
%FSLAX46Y46*%
G04 Gerber Fmt 4.6, Leading zero omitted, Abs format (unit mm)*
G04 Created by KiCad (PCBNEW (5.0.0)) date 01/02/19 13:47:13*
%MOMM*%
%LPD*%
G01*
G04 APERTURE LIST*
%ADD10C,0.152400*%
%ADD11C,0.150000*%
%ADD12C,0.100000*%
G04 APERTURE END LIST*
D10*
G04 #@! TO.C,J12*
X41551400Y-66492400D02*
X41551400Y-63698400D01*
X39773400Y-66746400D02*
X41297400Y-66746400D01*
X39773400Y-63444400D02*
X41297400Y-63444400D01*
X39773400Y-63444400D02*
G75*
G03X39519400Y-63698400I0J-254000D01*
G01*
X39519400Y-66492400D02*
G75*
G03X39773400Y-66746400I254000J0D01*
G01*
X41551400Y-66492400D02*
G75*
G02X41297400Y-66746400I-254000J0D01*
G01*
X41297400Y-63444400D02*
G75*
G02X41551400Y-63698400I0J-254000D01*
G01*
X39519400Y-63698400D02*
X39519400Y-66492400D01*
X1051400Y-66492400D02*
X1051400Y-63698400D01*
X-726600Y-66746400D02*
X797400Y-66746400D01*
X-726600Y-63444400D02*
X797400Y-63444400D01*
X-726600Y-63444400D02*
G75*
G03X-980600Y-63698400I0J-254000D01*
G01*
X-980600Y-66492400D02*
G75*
G03X-726600Y-66746400I254000J0D01*
G01*
X1051400Y-66492400D02*
G75*
G02X797400Y-66746400I-254000J0D01*
G01*
X797400Y-63444400D02*
G75*
G02X1051400Y-63698400I0J-254000D01*
G01*
X-980600Y-63698400D02*
X-980600Y-66492400D01*
X-39448600Y-66492400D02*
X-39448600Y-63698400D01*
X-41226600Y-66746400D02*
X-39702600Y-66746400D01*
X-41226600Y-63444400D02*
X-39702600Y-63444400D01*
X-41226600Y-63444400D02*
G75*
G03X-41480600Y-63698400I0J-254000D01*
G01*
X-41480600Y-66492400D02*
G75*
G03X-41226600Y-66746400I254000J0D01*
G01*
X-39448600Y-66492400D02*
G75*
G02X-39702600Y-66746400I-254000J0D01*
G01*
X-39702600Y-63444400D02*
G75*
G02X-39448600Y-63698400I0J-254000D01*
G01*
X-41480600Y-63698400D02*
X-41480600Y-66492400D01*
X41551400Y39507600D02*
X41551400Y42301600D01*
X39773400Y39253600D02*
X41297400Y39253600D01*
X39773400Y42555600D02*
X41297400Y42555600D01*
X39773400Y42555600D02*
G75*
G03X39519400Y42301600I0J-254000D01*
G01*
X39519400Y39507600D02*
G75*
G03X39773400Y39253600I254000J0D01*
G01*
X41551400Y39507600D02*
G75*
G02X41297400Y39253600I-254000J0D01*
G01*
X41297400Y42555600D02*
G75*
G02X41551400Y42301600I0J-254000D01*
G01*
X39519400Y42301600D02*
X39519400Y39507600D01*
X1051400Y39507600D02*
X1051400Y42301600D01*
X-726600Y39253600D02*
X797400Y39253600D01*
X-726600Y42555600D02*
X797400Y42555600D01*
X-726600Y42555600D02*
G75*
G03X-980600Y42301600I0J-254000D01*
G01*
X-980600Y39507600D02*
G75*
G03X-726600Y39253600I254000J0D01*
G01*
X1051400Y39507600D02*
G75*
G02X797400Y39253600I-254000J0D01*
G01*
X797400Y42555600D02*
G75*
G02X1051400Y42301600I0J-254000D01*
G01*
X-980600Y42301600D02*
X-980600Y39507600D01*
D11*
G04 #@! TO.C,J5*
X59163600Y-119577400D02*
X59163600Y-117577400D01*
X59163600Y-117567400D02*
X59163600Y-115967400D01*
X59163600Y-121187400D02*
X59163600Y-119587400D01*
X18663600Y-119577400D02*
X18663600Y-117577400D01*
X18663600Y-117567400D02*
X18663600Y-115967400D01*
X18663600Y-121187400D02*
X18663600Y-119587400D01*
X-21836400Y-119577400D02*
X-21836400Y-117577400D01*
X-21836400Y-117567400D02*
X-21836400Y-115967400D01*
X-21836400Y-121187400D02*
X-21836400Y-119587400D01*
X59163600Y-13577400D02*
X59163600Y-11577400D01*
X59163600Y-11567400D02*
X59163600Y-9967400D01*
X59163600Y-15187400D02*
X59163600Y-13587400D01*
X18663600Y-13577400D02*
X18663600Y-11577400D01*
X18663600Y-11567400D02*
X18663600Y-9967400D01*
X18663600Y-15187400D02*
X18663600Y-13587400D01*
D10*
G04 #@! TO.C,J9*
X35582400Y-75230000D02*
X38376400Y-75230000D01*
X35328400Y-73452000D02*
G75*
G02X35582400Y-73198000I254000J0D01*
G01*
X38376400Y-73198000D02*
G75*
G02X38630400Y-73452000I0J-254000D01*
G01*
X38376400Y-75230000D02*
G75*
G03X38630400Y-74976000I0J254000D01*
G01*
X35328400Y-74976000D02*
G75*
G03X35582400Y-75230000I254000J0D01*
G01*
X35328400Y-74976000D02*
X35328400Y-73452000D01*
X38630400Y-74976000D02*
X38630400Y-73452000D01*
X38376400Y-73198000D02*
X35582400Y-73198000D01*
X-4917600Y-75230000D02*
X-2123600Y-75230000D01*
X-5171600Y-73452000D02*
G75*
G02X-4917600Y-73198000I254000J0D01*
G01*
X-2123600Y-73198000D02*
G75*
G02X-1869600Y-73452000I0J-254000D01*
G01*
X-2123600Y-75230000D02*
G75*
G03X-1869600Y-74976000I0J254000D01*
G01*
X-5171600Y-74976000D02*
G75*
G03X-4917600Y-75230000I254000J0D01*
G01*
X-5171600Y-74976000D02*
X-5171600Y-73452000D01*
X-1869600Y-74976000D02*
X-1869600Y-73452000D01*
X-2123600Y-73198000D02*
X-4917600Y-73198000D01*
X-45417600Y-75230000D02*
X-42623600Y-75230000D01*
X-45671600Y-73452000D02*
G75*
G02X-45417600Y-73198000I254000J0D01*
G01*
X-42623600Y-73198000D02*
G75*
G02X-42369600Y-73452000I0J-254000D01*
G01*
X-42623600Y-75230000D02*
G75*
G03X-42369600Y-74976000I0J254000D01*
G01*
X-45671600Y-74976000D02*
G75*
G03X-45417600Y-75230000I254000J0D01*
G01*
X-45671600Y-74976000D02*
X-45671600Y-73452000D01*
X-42369600Y-74976000D02*
X-42369600Y-73452000D01*
X-42623600Y-73198000D02*
X-45417600Y-73198000D01*
X35582400Y30770000D02*
X38376400Y30770000D01*
X35328400Y32548000D02*
G75*
G02X35582400Y32802000I254000J0D01*
G01*
X38376400Y32802000D02*
G75*
G02X38630400Y32548000I0J-254000D01*
G01*
X38376400Y30770000D02*
G75*
G03X38630400Y31024000I0J254000D01*
G01*
X35328400Y31024000D02*
G75*
G03X35582400Y30770000I254000J0D01*
G01*
X35328400Y31024000D02*
X35328400Y32548000D01*
X38630400Y31024000D02*
X38630400Y32548000D01*
X38376400Y32802000D02*
X35582400Y32802000D01*
X-4917600Y30770000D02*
X-2123600Y30770000D01*
X-5171600Y32548000D02*
G75*
G02X-4917600Y32802000I254000J0D01*
G01*
X-2123600Y32802000D02*
G75*
G02X-1869600Y32548000I0J-254000D01*
G01*
X-2123600Y30770000D02*
G75*
G03X-1869600Y31024000I0J254000D01*
G01*
X-5171600Y31024000D02*
G75*
G03X-4917600Y30770000I254000J0D01*
G01*
X-5171600Y31024000D02*
X-5171600Y32548000D01*
X-1869600Y31024000D02*
X-1869600Y32548000D01*
X-2123600Y32802000D02*
X-4917600Y32802000D01*
D12*
G04 #@! TO.C,BT1*
X22737604Y-118450921D02*
X22737604Y-119492604D01*
X22737604Y-119492604D02*
X27649907Y-119492604D01*
X35724273Y-119492604D02*
X35724273Y-118450921D01*
X27723935Y-118450921D02*
X22737604Y-118450921D01*
X30817258Y-119492604D02*
X35724273Y-119492604D01*
X35724273Y-118450921D02*
X30737942Y-118450921D01*
X27649907Y-119492604D02*
X27655195Y-119492604D01*
X-17762396Y-118450921D02*
X-17762396Y-119492604D01*
X-17762396Y-119492604D02*
X-12850093Y-119492604D01*
X-4775727Y-119492604D02*
X-4775727Y-118450921D01*
X-12776065Y-118450921D02*
X-17762396Y-118450921D01*
X-9682742Y-119492604D02*
X-4775727Y-119492604D01*
X-4775727Y-118450921D02*
X-9762058Y-118450921D01*
X-12850093Y-119492604D02*
X-12844805Y-119492604D01*
X-58262396Y-118450921D02*
X-58262396Y-119492604D01*
X-58262396Y-119492604D02*
X-53350093Y-119492604D01*
X-45275727Y-119492604D02*
X-45275727Y-118450921D01*
X-53276065Y-118450921D02*
X-58262396Y-118450921D01*
X-50182742Y-119492604D02*
X-45275727Y-119492604D01*
X-45275727Y-118450921D02*
X-50262058Y-118450921D01*
X-53350093Y-119492604D02*
X-53344805Y-119492604D01*
X22737604Y-12450921D02*
X22737604Y-13492604D01*
X22737604Y-13492604D02*
X27649907Y-13492604D01*
X35724273Y-13492604D02*
X35724273Y-12450921D01*
X27723935Y-12450921D02*
X22737604Y-12450921D01*
X30817258Y-13492604D02*
X35724273Y-13492604D01*
X35724273Y-12450921D02*
X30737942Y-12450921D01*
X27649907Y-13492604D02*
X27655195Y-13492604D01*
X-17762396Y-12450921D02*
X-17762396Y-13492604D01*
X-17762396Y-13492604D02*
X-12850093Y-13492604D01*
X-4775727Y-13492604D02*
X-4775727Y-12450921D01*
X-12776065Y-12450921D02*
X-17762396Y-12450921D01*
X-9682742Y-13492604D02*
X-4775727Y-13492604D01*
X-4775727Y-12450921D02*
X-9762058Y-12450921D01*
X-12850093Y-13492604D02*
X-12844805Y-13492604D01*
D10*
G04 #@! TO.C,J9*
X-42623600Y32802000D02*
X-45417600Y32802000D01*
X-42369600Y31024000D02*
X-42369600Y32548000D01*
X-45671600Y31024000D02*
X-45671600Y32548000D01*
X-45671600Y31024000D02*
G75*
G03X-45417600Y30770000I254000J0D01*
G01*
X-42623600Y30770000D02*
G75*
G03X-42369600Y31024000I0J254000D01*
G01*
X-42623600Y32802000D02*
G75*
G02X-42369600Y32548000I0J-254000D01*
G01*
X-45671600Y32548000D02*
G75*
G02X-45417600Y32802000I254000J0D01*
G01*
X-45417600Y30770000D02*
X-42623600Y30770000D01*
G04 #@! TO.C,J12*
X-41480600Y42301600D02*
X-41480600Y39507600D01*
X-39702600Y42555600D02*
G75*
G02X-39448600Y42301600I0J-254000D01*
G01*
X-39448600Y39507600D02*
G75*
G02X-39702600Y39253600I-254000J0D01*
G01*
X-41480600Y39507600D02*
G75*
G03X-41226600Y39253600I254000J0D01*
G01*
X-41226600Y42555600D02*
G75*
G03X-41480600Y42301600I0J-254000D01*
G01*
X-41226600Y42555600D02*
X-39702600Y42555600D01*
X-41226600Y39253600D02*
X-39702600Y39253600D01*
X-39448600Y39507600D02*
X-39448600Y42301600D01*
D11*
G04 #@! TO.C,J5*
X-21836400Y-15187400D02*
X-21836400Y-13587400D01*
X-21836400Y-11567400D02*
X-21836400Y-9967400D01*
X-21836400Y-13577400D02*
X-21836400Y-11577400D01*
D12*
G04 #@! TO.C,BT1*
X-53350093Y-13492604D02*
X-53344805Y-13492604D01*
X-45275727Y-12450921D02*
X-50262058Y-12450921D01*
X-50182742Y-13492604D02*
X-45275727Y-13492604D01*
X-53276065Y-12450921D02*
X-58262396Y-12450921D01*
X-45275727Y-13492604D02*
X-45275727Y-12450921D01*
X-58262396Y-13492604D02*
X-53350093Y-13492604D01*
X-58262396Y-12450921D02*
X-58262396Y-13492604D01*
G04 #@! TD*
M02*
