G04 #@! TF.GenerationSoftware,KiCad,Pcbnew,(5.0.0)*
G04 #@! TF.CreationDate,2019-01-02T13:47:13-06:00*
G04 #@! TF.ProjectId,fk-weather-v0.11-02x03,666B2D776561746865722D76302E3131,0.1*
G04 #@! TF.SameCoordinates,PX791ddc0PY791ddc0*
G04 #@! TF.FileFunction,Paste,Top*
G04 #@! TF.FilePolarity,Positive*
%FSLAX46Y46*%
G04 Gerber Fmt 4.6, Leading zero omitted, Abs format (unit mm)*
G04 Created by KiCad (PCBNEW (5.0.0)) date 01/02/19 13:47:13*
%MOMM*%
%LPD*%
G01*
G04 APERTURE LIST*
%ADD10R,0.900000X0.990000*%
%ADD11R,2.520000X0.900000*%
%ADD12R,1.530000X0.540000*%
%ADD13R,0.990000X0.900000*%
%ADD14R,1.620000X1.080000*%
%ADD15R,1.395000X0.540000*%
%ADD16R,0.675000X2.250000*%
%ADD17R,0.540000X1.800000*%
%ADD18R,1.350000X0.405000*%
%ADD19R,1.800000X0.540000*%
%ADD20R,0.630000X1.305000*%
%ADD21R,1.800000X2.250000*%
%ADD22R,0.720000X1.080000*%
%ADD23R,0.720000X1.980000*%
%ADD24C,0.225000*%
%ADD25C,0.100000*%
%ADD26C,0.990000*%
%ADD27R,0.810000X1.350000*%
%ADD28R,1.350000X0.900000*%
%ADD29R,0.945000X0.585000*%
%ADD30R,0.540000X0.630000*%
%ADD31R,0.900000X0.630000*%
%ADD32C,0.900000*%
%ADD33R,1.170000X0.855000*%
%ADD34R,0.990000X1.710000*%
%ADD35R,2.700000X0.540000*%
%ADD36R,0.855000X1.170000*%
%ADD37C,2.250000*%
G04 APERTURE END LIST*
D10*
G04 #@! TO.C,R15*
X32204200Y-61500400D03*
X32204200Y-59800400D03*
G04 #@! TD*
G04 #@! TO.C,R15*
X-8295800Y-61500400D03*
X-8295800Y-59800400D03*
G04 #@! TD*
G04 #@! TO.C,R15*
X-48795800Y-61500400D03*
X-48795800Y-59800400D03*
G04 #@! TD*
G04 #@! TO.C,R15*
X32204200Y44499600D03*
X32204200Y46199600D03*
G04 #@! TD*
G04 #@! TO.C,R15*
X-8295800Y44499600D03*
X-8295800Y46199600D03*
G04 #@! TD*
D11*
G04 #@! TO.C,J4*
X56667400Y-100316400D03*
X56667400Y-92866400D03*
D12*
X53317400Y-98466400D03*
X53317400Y-97216400D03*
X53317400Y-95966400D03*
X53317400Y-94716400D03*
G04 #@! TD*
D11*
G04 #@! TO.C,J4*
X16167400Y-100316400D03*
X16167400Y-92866400D03*
D12*
X12817400Y-98466400D03*
X12817400Y-97216400D03*
X12817400Y-95966400D03*
X12817400Y-94716400D03*
G04 #@! TD*
D11*
G04 #@! TO.C,J4*
X-24332600Y-100316400D03*
X-24332600Y-92866400D03*
D12*
X-27682600Y-98466400D03*
X-27682600Y-97216400D03*
X-27682600Y-95966400D03*
X-27682600Y-94716400D03*
G04 #@! TD*
D11*
G04 #@! TO.C,J4*
X56667400Y5683600D03*
X56667400Y13133600D03*
D12*
X53317400Y7533600D03*
X53317400Y8783600D03*
X53317400Y10033600D03*
X53317400Y11283600D03*
G04 #@! TD*
D11*
G04 #@! TO.C,J4*
X16167400Y5683600D03*
X16167400Y13133600D03*
D12*
X12817400Y7533600D03*
X12817400Y8783600D03*
X12817400Y10033600D03*
X12817400Y11283600D03*
G04 #@! TD*
D13*
G04 #@! TO.C,R13*
X23861200Y-70505600D03*
X25561200Y-70505600D03*
G04 #@! TD*
G04 #@! TO.C,R13*
X-16638800Y-70505600D03*
X-14938800Y-70505600D03*
G04 #@! TD*
G04 #@! TO.C,R13*
X-57138800Y-70505600D03*
X-55438800Y-70505600D03*
G04 #@! TD*
G04 #@! TO.C,R13*
X23861200Y35494400D03*
X25561200Y35494400D03*
G04 #@! TD*
G04 #@! TO.C,R13*
X-16638800Y35494400D03*
X-14938800Y35494400D03*
G04 #@! TD*
D14*
G04 #@! TO.C,J8*
X49939600Y-93617600D03*
X49939600Y-99717600D03*
D15*
X47414600Y-98167600D03*
X47414600Y-97167600D03*
X47414600Y-96167600D03*
X47414600Y-95167600D03*
G04 #@! TD*
D14*
G04 #@! TO.C,J8*
X9439600Y-93617600D03*
X9439600Y-99717600D03*
D15*
X6914600Y-98167600D03*
X6914600Y-97167600D03*
X6914600Y-96167600D03*
X6914600Y-95167600D03*
G04 #@! TD*
D14*
G04 #@! TO.C,J8*
X-31060400Y-93617600D03*
X-31060400Y-99717600D03*
D15*
X-33585400Y-98167600D03*
X-33585400Y-97167600D03*
X-33585400Y-96167600D03*
X-33585400Y-95167600D03*
G04 #@! TD*
D14*
G04 #@! TO.C,J8*
X49939600Y12382400D03*
X49939600Y6282400D03*
D15*
X47414600Y7832400D03*
X47414600Y8832400D03*
X47414600Y9832400D03*
X47414600Y10832400D03*
G04 #@! TD*
D14*
G04 #@! TO.C,J8*
X9439600Y12382400D03*
X9439600Y6282400D03*
D15*
X6914600Y7832400D03*
X6914600Y8832400D03*
X6914600Y9832400D03*
X6914600Y10832400D03*
G04 #@! TD*
D13*
G04 #@! TO.C,R16*
X26655200Y-100045800D03*
X28355200Y-100045800D03*
G04 #@! TD*
G04 #@! TO.C,R16*
X-13844800Y-100045800D03*
X-12144800Y-100045800D03*
G04 #@! TD*
G04 #@! TO.C,R16*
X-54344800Y-100045800D03*
X-52644800Y-100045800D03*
G04 #@! TD*
G04 #@! TO.C,R16*
X26655200Y5954200D03*
X28355200Y5954200D03*
G04 #@! TD*
G04 #@! TO.C,R16*
X-13844800Y5954200D03*
X-12144800Y5954200D03*
G04 #@! TD*
G04 #@! TO.C,D1*
X47151200Y-114219000D03*
X45451200Y-114219000D03*
G04 #@! TD*
G04 #@! TO.C,D1*
X6651200Y-114219000D03*
X4951200Y-114219000D03*
G04 #@! TD*
G04 #@! TO.C,D1*
X-33848800Y-114219000D03*
X-35548800Y-114219000D03*
G04 #@! TD*
G04 #@! TO.C,D1*
X47151200Y-8219000D03*
X45451200Y-8219000D03*
G04 #@! TD*
G04 #@! TO.C,D1*
X6651200Y-8219000D03*
X4951200Y-8219000D03*
G04 #@! TD*
D16*
G04 #@! TO.C,J6*
X47926800Y-75697200D03*
X47926800Y-79697200D03*
X46656800Y-75697200D03*
X46656800Y-79697200D03*
X45386800Y-75697200D03*
X45386800Y-79697200D03*
X44116800Y-75697200D03*
X44116800Y-79697200D03*
X42846800Y-75697200D03*
X42846800Y-79697200D03*
G04 #@! TD*
G04 #@! TO.C,J6*
X7426800Y-75697200D03*
X7426800Y-79697200D03*
X6156800Y-75697200D03*
X6156800Y-79697200D03*
X4886800Y-75697200D03*
X4886800Y-79697200D03*
X3616800Y-75697200D03*
X3616800Y-79697200D03*
X2346800Y-75697200D03*
X2346800Y-79697200D03*
G04 #@! TD*
G04 #@! TO.C,J6*
X-33073200Y-75697200D03*
X-33073200Y-79697200D03*
X-34343200Y-75697200D03*
X-34343200Y-79697200D03*
X-35613200Y-75697200D03*
X-35613200Y-79697200D03*
X-36883200Y-75697200D03*
X-36883200Y-79697200D03*
X-38153200Y-75697200D03*
X-38153200Y-79697200D03*
G04 #@! TD*
G04 #@! TO.C,J6*
X47926800Y30302800D03*
X47926800Y26302800D03*
X46656800Y30302800D03*
X46656800Y26302800D03*
X45386800Y30302800D03*
X45386800Y26302800D03*
X44116800Y30302800D03*
X44116800Y26302800D03*
X42846800Y30302800D03*
X42846800Y26302800D03*
G04 #@! TD*
G04 #@! TO.C,J6*
X7426800Y30302800D03*
X7426800Y26302800D03*
X6156800Y30302800D03*
X6156800Y26302800D03*
X4886800Y30302800D03*
X4886800Y26302800D03*
X3616800Y30302800D03*
X3616800Y26302800D03*
X2346800Y30302800D03*
X2346800Y26302800D03*
G04 #@! TD*
D13*
G04 #@! TO.C,C21*
X36129400Y-71851800D03*
X37829400Y-71851800D03*
G04 #@! TD*
G04 #@! TO.C,C21*
X-4370600Y-71851800D03*
X-2670600Y-71851800D03*
G04 #@! TD*
G04 #@! TO.C,C21*
X-44870600Y-71851800D03*
X-43170600Y-71851800D03*
G04 #@! TD*
G04 #@! TO.C,C21*
X36129400Y34148200D03*
X37829400Y34148200D03*
G04 #@! TD*
G04 #@! TO.C,C21*
X-4370600Y34148200D03*
X-2670600Y34148200D03*
G04 #@! TD*
G04 #@! TO.C,R12*
X31608200Y-71851800D03*
X33308200Y-71851800D03*
G04 #@! TD*
G04 #@! TO.C,R12*
X-8891800Y-71851800D03*
X-7191800Y-71851800D03*
G04 #@! TD*
G04 #@! TO.C,R12*
X-49391800Y-71851800D03*
X-47691800Y-71851800D03*
G04 #@! TD*
G04 #@! TO.C,R12*
X31608200Y34148200D03*
X33308200Y34148200D03*
G04 #@! TD*
G04 #@! TO.C,R12*
X-8891800Y34148200D03*
X-7191800Y34148200D03*
G04 #@! TD*
D10*
G04 #@! TO.C,C16*
X25143000Y-65730400D03*
X25143000Y-67430400D03*
G04 #@! TD*
G04 #@! TO.C,C16*
X-15357000Y-65730400D03*
X-15357000Y-67430400D03*
G04 #@! TD*
G04 #@! TO.C,C16*
X-55857000Y-65730400D03*
X-55857000Y-67430400D03*
G04 #@! TD*
G04 #@! TO.C,C16*
X25143000Y40269600D03*
X25143000Y38569600D03*
G04 #@! TD*
G04 #@! TO.C,C16*
X-15357000Y40269600D03*
X-15357000Y38569600D03*
G04 #@! TD*
D17*
G04 #@! TO.C,U6*
X31467600Y-115395000D03*
X32737600Y-115395000D03*
X34007600Y-115395000D03*
X35277600Y-115395000D03*
X35277600Y-109995000D03*
X34007600Y-109995000D03*
X32737600Y-109995000D03*
X31467600Y-109995000D03*
G04 #@! TD*
G04 #@! TO.C,U6*
X-9032400Y-115395000D03*
X-7762400Y-115395000D03*
X-6492400Y-115395000D03*
X-5222400Y-115395000D03*
X-5222400Y-109995000D03*
X-6492400Y-109995000D03*
X-7762400Y-109995000D03*
X-9032400Y-109995000D03*
G04 #@! TD*
G04 #@! TO.C,U6*
X-49532400Y-115395000D03*
X-48262400Y-115395000D03*
X-46992400Y-115395000D03*
X-45722400Y-115395000D03*
X-45722400Y-109995000D03*
X-46992400Y-109995000D03*
X-48262400Y-109995000D03*
X-49532400Y-109995000D03*
G04 #@! TD*
G04 #@! TO.C,U6*
X31467600Y-9395000D03*
X32737600Y-9395000D03*
X34007600Y-9395000D03*
X35277600Y-9395000D03*
X35277600Y-3995000D03*
X34007600Y-3995000D03*
X32737600Y-3995000D03*
X31467600Y-3995000D03*
G04 #@! TD*
G04 #@! TO.C,U6*
X-9032400Y-9395000D03*
X-7762400Y-9395000D03*
X-6492400Y-9395000D03*
X-5222400Y-9395000D03*
X-5222400Y-3995000D03*
X-6492400Y-3995000D03*
X-7762400Y-3995000D03*
X-9032400Y-3995000D03*
G04 #@! TD*
D13*
G04 #@! TO.C,R14*
X38009000Y-68549800D03*
X39709000Y-68549800D03*
G04 #@! TD*
G04 #@! TO.C,R14*
X-2491000Y-68549800D03*
X-791000Y-68549800D03*
G04 #@! TD*
G04 #@! TO.C,R14*
X-42991000Y-68549800D03*
X-41291000Y-68549800D03*
G04 #@! TD*
G04 #@! TO.C,R14*
X38009000Y37450200D03*
X39709000Y37450200D03*
G04 #@! TD*
G04 #@! TO.C,R14*
X-2491000Y37450200D03*
X-791000Y37450200D03*
G04 #@! TD*
D18*
G04 #@! TO.C,J1*
X54501400Y-117389400D03*
X54501400Y-118039400D03*
X54501400Y-119339400D03*
X54501400Y-118689400D03*
X54501400Y-119989400D03*
G04 #@! TD*
G04 #@! TO.C,J1*
X14001400Y-117389400D03*
X14001400Y-118039400D03*
X14001400Y-119339400D03*
X14001400Y-118689400D03*
X14001400Y-119989400D03*
G04 #@! TD*
G04 #@! TO.C,J1*
X-26498600Y-117389400D03*
X-26498600Y-118039400D03*
X-26498600Y-119339400D03*
X-26498600Y-118689400D03*
X-26498600Y-119989400D03*
G04 #@! TD*
G04 #@! TO.C,J1*
X54501400Y-11389400D03*
X54501400Y-12039400D03*
X54501400Y-13339400D03*
X54501400Y-12689400D03*
X54501400Y-13989400D03*
G04 #@! TD*
G04 #@! TO.C,J1*
X14001400Y-11389400D03*
X14001400Y-12039400D03*
X14001400Y-13339400D03*
X14001400Y-12689400D03*
X14001400Y-13989400D03*
G04 #@! TD*
D13*
G04 #@! TO.C,C20*
X37854800Y-70327800D03*
X36154800Y-70327800D03*
G04 #@! TD*
G04 #@! TO.C,C20*
X-2645200Y-70327800D03*
X-4345200Y-70327800D03*
G04 #@! TD*
G04 #@! TO.C,C20*
X-43145200Y-70327800D03*
X-44845200Y-70327800D03*
G04 #@! TD*
G04 #@! TO.C,C20*
X37854800Y35672200D03*
X36154800Y35672200D03*
G04 #@! TD*
G04 #@! TO.C,C20*
X-2645200Y35672200D03*
X-4345200Y35672200D03*
G04 #@! TD*
D19*
G04 #@! TO.C,U3*
X27853200Y-65959000D03*
X27853200Y-67229000D03*
X27853200Y-68499000D03*
X27853200Y-69769000D03*
X33253200Y-69769000D03*
X33253200Y-68499000D03*
X33253200Y-67229000D03*
X33253200Y-65959000D03*
G04 #@! TD*
G04 #@! TO.C,U3*
X-12646800Y-65959000D03*
X-12646800Y-67229000D03*
X-12646800Y-68499000D03*
X-12646800Y-69769000D03*
X-7246800Y-69769000D03*
X-7246800Y-68499000D03*
X-7246800Y-67229000D03*
X-7246800Y-65959000D03*
G04 #@! TD*
G04 #@! TO.C,U3*
X-53146800Y-65959000D03*
X-53146800Y-67229000D03*
X-53146800Y-68499000D03*
X-53146800Y-69769000D03*
X-47746800Y-69769000D03*
X-47746800Y-68499000D03*
X-47746800Y-67229000D03*
X-47746800Y-65959000D03*
G04 #@! TD*
G04 #@! TO.C,U3*
X27853200Y40041000D03*
X27853200Y38771000D03*
X27853200Y37501000D03*
X27853200Y36231000D03*
X33253200Y36231000D03*
X33253200Y37501000D03*
X33253200Y38771000D03*
X33253200Y40041000D03*
G04 #@! TD*
G04 #@! TO.C,U3*
X-12646800Y40041000D03*
X-12646800Y38771000D03*
X-12646800Y37501000D03*
X-12646800Y36231000D03*
X-7246800Y36231000D03*
X-7246800Y37501000D03*
X-7246800Y38771000D03*
X-7246800Y40041000D03*
G04 #@! TD*
D11*
G04 #@! TO.C,J3*
X56667400Y-90293400D03*
X56667400Y-84093400D03*
D12*
X53317400Y-88443400D03*
X53317400Y-87193400D03*
X53317400Y-85943400D03*
G04 #@! TD*
D11*
G04 #@! TO.C,J3*
X16167400Y-90293400D03*
X16167400Y-84093400D03*
D12*
X12817400Y-88443400D03*
X12817400Y-87193400D03*
X12817400Y-85943400D03*
G04 #@! TD*
D11*
G04 #@! TO.C,J3*
X-24332600Y-90293400D03*
X-24332600Y-84093400D03*
D12*
X-27682600Y-88443400D03*
X-27682600Y-87193400D03*
X-27682600Y-85943400D03*
G04 #@! TD*
D11*
G04 #@! TO.C,J3*
X56667400Y15706600D03*
X56667400Y21906600D03*
D12*
X53317400Y17556600D03*
X53317400Y18806600D03*
X53317400Y20056600D03*
G04 #@! TD*
D11*
G04 #@! TO.C,J3*
X16167400Y15706600D03*
X16167400Y21906600D03*
D12*
X12817400Y17556600D03*
X12817400Y18806600D03*
X12817400Y20056600D03*
G04 #@! TD*
D20*
G04 #@! TO.C,SW1*
X56045400Y-77835400D03*
X56045400Y-72675400D03*
X58045400Y-72675400D03*
X58045400Y-77835400D03*
G04 #@! TD*
G04 #@! TO.C,SW1*
X15545400Y-77835400D03*
X15545400Y-72675400D03*
X17545400Y-72675400D03*
X17545400Y-77835400D03*
G04 #@! TD*
G04 #@! TO.C,SW1*
X-24954600Y-77835400D03*
X-24954600Y-72675400D03*
X-22954600Y-72675400D03*
X-22954600Y-77835400D03*
G04 #@! TD*
G04 #@! TO.C,SW1*
X56045400Y28164600D03*
X56045400Y33324600D03*
X58045400Y33324600D03*
X58045400Y28164600D03*
G04 #@! TD*
G04 #@! TO.C,SW1*
X15545400Y28164600D03*
X15545400Y33324600D03*
X17545400Y33324600D03*
X17545400Y28164600D03*
G04 #@! TD*
D21*
G04 #@! TO.C,U2*
X40575315Y-121118061D03*
D22*
X39075315Y-118268061D03*
D23*
X40575315Y-118768061D03*
D22*
X42075315Y-118268061D03*
G04 #@! TD*
D21*
G04 #@! TO.C,U2*
X75315Y-121118061D03*
D22*
X-1424685Y-118268061D03*
D23*
X75315Y-118768061D03*
D22*
X1575315Y-118268061D03*
G04 #@! TD*
D21*
G04 #@! TO.C,U2*
X-40424685Y-121118061D03*
D22*
X-41924685Y-118268061D03*
D23*
X-40424685Y-118768061D03*
D22*
X-38924685Y-118268061D03*
G04 #@! TD*
D21*
G04 #@! TO.C,U2*
X40575315Y-15118061D03*
D22*
X39075315Y-12268061D03*
D23*
X40575315Y-12768061D03*
D22*
X42075315Y-12268061D03*
G04 #@! TD*
D21*
G04 #@! TO.C,U2*
X75315Y-15118061D03*
D22*
X-1424685Y-12268061D03*
D23*
X75315Y-12768061D03*
D22*
X1575315Y-12268061D03*
G04 #@! TD*
D13*
G04 #@! TO.C,R31*
X42781628Y-38691668D03*
X44481628Y-38691668D03*
G04 #@! TD*
G04 #@! TO.C,R31*
X2281628Y-38691668D03*
X3981628Y-38691668D03*
G04 #@! TD*
G04 #@! TO.C,R31*
X-38218372Y-38691668D03*
X-36518372Y-38691668D03*
G04 #@! TD*
G04 #@! TO.C,R31*
X42781628Y67308332D03*
X44481628Y67308332D03*
G04 #@! TD*
G04 #@! TO.C,R31*
X2281628Y67308332D03*
X3981628Y67308332D03*
G04 #@! TD*
D24*
G04 #@! TO.C,U1*
X37120171Y-86414742D03*
D25*
G36*
X36786063Y-86907949D02*
X36626964Y-86748850D01*
X37454279Y-85921535D01*
X37613378Y-86080634D01*
X36786063Y-86907949D01*
X36786063Y-86907949D01*
G37*
D24*
X37473724Y-86768295D03*
D25*
G36*
X37139616Y-87261502D02*
X36980517Y-87102403D01*
X37807832Y-86275088D01*
X37966931Y-86434187D01*
X37139616Y-87261502D01*
X37139616Y-87261502D01*
G37*
D24*
X37827278Y-87121849D03*
D25*
G36*
X37493170Y-87615056D02*
X37334071Y-87455957D01*
X38161386Y-86628642D01*
X38320485Y-86787741D01*
X37493170Y-87615056D01*
X37493170Y-87615056D01*
G37*
D24*
X38180831Y-87475402D03*
D25*
G36*
X37846723Y-87968609D02*
X37687624Y-87809510D01*
X38514939Y-86982195D01*
X38674038Y-87141294D01*
X37846723Y-87968609D01*
X37846723Y-87968609D01*
G37*
D24*
X38534384Y-87828955D03*
D25*
G36*
X38200276Y-88322162D02*
X38041177Y-88163063D01*
X38868492Y-87335748D01*
X39027591Y-87494847D01*
X38200276Y-88322162D01*
X38200276Y-88322162D01*
G37*
D24*
X38887938Y-88182509D03*
D25*
G36*
X38553830Y-88675716D02*
X38394731Y-88516617D01*
X39222046Y-87689302D01*
X39381145Y-87848401D01*
X38553830Y-88675716D01*
X38553830Y-88675716D01*
G37*
D24*
X39241491Y-88536062D03*
D25*
G36*
X38907383Y-89029269D02*
X38748284Y-88870170D01*
X39575599Y-88042855D01*
X39734698Y-88201954D01*
X38907383Y-89029269D01*
X38907383Y-89029269D01*
G37*
D24*
X39595045Y-88889616D03*
D25*
G36*
X39260937Y-89382823D02*
X39101838Y-89223724D01*
X39929153Y-88396409D01*
X40088252Y-88555508D01*
X39260937Y-89382823D01*
X39260937Y-89382823D01*
G37*
D24*
X39948598Y-89243169D03*
D25*
G36*
X39614490Y-89736376D02*
X39455391Y-89577277D01*
X40282706Y-88749962D01*
X40441805Y-88909061D01*
X39614490Y-89736376D01*
X39614490Y-89736376D01*
G37*
D24*
X40302151Y-89596722D03*
D25*
G36*
X39968043Y-90089929D02*
X39808944Y-89930830D01*
X40636259Y-89103515D01*
X40795358Y-89262614D01*
X39968043Y-90089929D01*
X39968043Y-90089929D01*
G37*
D24*
X40655705Y-89950276D03*
D25*
G36*
X40321597Y-90443483D02*
X40162498Y-90284384D01*
X40989813Y-89457069D01*
X41148912Y-89616168D01*
X40321597Y-90443483D01*
X40321597Y-90443483D01*
G37*
D24*
X41009258Y-90303829D03*
D25*
G36*
X40675150Y-90797036D02*
X40516051Y-90637937D01*
X41343366Y-89810622D01*
X41502465Y-89969721D01*
X40675150Y-90797036D01*
X40675150Y-90797036D01*
G37*
D24*
X41009258Y-92566571D03*
D25*
G36*
X40516051Y-92232463D02*
X40675150Y-92073364D01*
X41502465Y-92900679D01*
X41343366Y-93059778D01*
X40516051Y-92232463D01*
X40516051Y-92232463D01*
G37*
D24*
X40655705Y-92920124D03*
D25*
G36*
X40162498Y-92586016D02*
X40321597Y-92426917D01*
X41148912Y-93254232D01*
X40989813Y-93413331D01*
X40162498Y-92586016D01*
X40162498Y-92586016D01*
G37*
D24*
X40302151Y-93273678D03*
D25*
G36*
X39808944Y-92939570D02*
X39968043Y-92780471D01*
X40795358Y-93607786D01*
X40636259Y-93766885D01*
X39808944Y-92939570D01*
X39808944Y-92939570D01*
G37*
D24*
X39948598Y-93627231D03*
D25*
G36*
X39455391Y-93293123D02*
X39614490Y-93134024D01*
X40441805Y-93961339D01*
X40282706Y-94120438D01*
X39455391Y-93293123D01*
X39455391Y-93293123D01*
G37*
D24*
X39595045Y-93980784D03*
D25*
G36*
X39101838Y-93646676D02*
X39260937Y-93487577D01*
X40088252Y-94314892D01*
X39929153Y-94473991D01*
X39101838Y-93646676D01*
X39101838Y-93646676D01*
G37*
D24*
X39241491Y-94334338D03*
D25*
G36*
X38748284Y-94000230D02*
X38907383Y-93841131D01*
X39734698Y-94668446D01*
X39575599Y-94827545D01*
X38748284Y-94000230D01*
X38748284Y-94000230D01*
G37*
D24*
X38887938Y-94687891D03*
D25*
G36*
X38394731Y-94353783D02*
X38553830Y-94194684D01*
X39381145Y-95021999D01*
X39222046Y-95181098D01*
X38394731Y-94353783D01*
X38394731Y-94353783D01*
G37*
D24*
X38534384Y-95041445D03*
D25*
G36*
X38041177Y-94707337D02*
X38200276Y-94548238D01*
X39027591Y-95375553D01*
X38868492Y-95534652D01*
X38041177Y-94707337D01*
X38041177Y-94707337D01*
G37*
D24*
X38180831Y-95394998D03*
D25*
G36*
X37687624Y-95060890D02*
X37846723Y-94901791D01*
X38674038Y-95729106D01*
X38514939Y-95888205D01*
X37687624Y-95060890D01*
X37687624Y-95060890D01*
G37*
D24*
X37827278Y-95748551D03*
D25*
G36*
X37334071Y-95414443D02*
X37493170Y-95255344D01*
X38320485Y-96082659D01*
X38161386Y-96241758D01*
X37334071Y-95414443D01*
X37334071Y-95414443D01*
G37*
D24*
X37473724Y-96102105D03*
D25*
G36*
X36980517Y-95767997D02*
X37139616Y-95608898D01*
X37966931Y-96436213D01*
X37807832Y-96595312D01*
X36980517Y-95767997D01*
X36980517Y-95767997D01*
G37*
D24*
X37120171Y-96455658D03*
D25*
G36*
X36626964Y-96121550D02*
X36786063Y-95962451D01*
X37613378Y-96789766D01*
X37454279Y-96948865D01*
X36626964Y-96121550D01*
X36626964Y-96121550D01*
G37*
D24*
X34857429Y-96455658D03*
D25*
G36*
X34523321Y-96948865D02*
X34364222Y-96789766D01*
X35191537Y-95962451D01*
X35350636Y-96121550D01*
X34523321Y-96948865D01*
X34523321Y-96948865D01*
G37*
D24*
X34503876Y-96102105D03*
D25*
G36*
X34169768Y-96595312D02*
X34010669Y-96436213D01*
X34837984Y-95608898D01*
X34997083Y-95767997D01*
X34169768Y-96595312D01*
X34169768Y-96595312D01*
G37*
D24*
X34150322Y-95748551D03*
D25*
G36*
X33816214Y-96241758D02*
X33657115Y-96082659D01*
X34484430Y-95255344D01*
X34643529Y-95414443D01*
X33816214Y-96241758D01*
X33816214Y-96241758D01*
G37*
D24*
X33796769Y-95394998D03*
D25*
G36*
X33462661Y-95888205D02*
X33303562Y-95729106D01*
X34130877Y-94901791D01*
X34289976Y-95060890D01*
X33462661Y-95888205D01*
X33462661Y-95888205D01*
G37*
D24*
X33443216Y-95041445D03*
D25*
G36*
X33109108Y-95534652D02*
X32950009Y-95375553D01*
X33777324Y-94548238D01*
X33936423Y-94707337D01*
X33109108Y-95534652D01*
X33109108Y-95534652D01*
G37*
D24*
X33089662Y-94687891D03*
D25*
G36*
X32755554Y-95181098D02*
X32596455Y-95021999D01*
X33423770Y-94194684D01*
X33582869Y-94353783D01*
X32755554Y-95181098D01*
X32755554Y-95181098D01*
G37*
D24*
X32736109Y-94334338D03*
D25*
G36*
X32402001Y-94827545D02*
X32242902Y-94668446D01*
X33070217Y-93841131D01*
X33229316Y-94000230D01*
X32402001Y-94827545D01*
X32402001Y-94827545D01*
G37*
D24*
X32382555Y-93980784D03*
D25*
G36*
X32048447Y-94473991D02*
X31889348Y-94314892D01*
X32716663Y-93487577D01*
X32875762Y-93646676D01*
X32048447Y-94473991D01*
X32048447Y-94473991D01*
G37*
D24*
X32029002Y-93627231D03*
D25*
G36*
X31694894Y-94120438D02*
X31535795Y-93961339D01*
X32363110Y-93134024D01*
X32522209Y-93293123D01*
X31694894Y-94120438D01*
X31694894Y-94120438D01*
G37*
D24*
X31675449Y-93273678D03*
D25*
G36*
X31341341Y-93766885D02*
X31182242Y-93607786D01*
X32009557Y-92780471D01*
X32168656Y-92939570D01*
X31341341Y-93766885D01*
X31341341Y-93766885D01*
G37*
D24*
X31321895Y-92920124D03*
D25*
G36*
X30987787Y-93413331D02*
X30828688Y-93254232D01*
X31656003Y-92426917D01*
X31815102Y-92586016D01*
X30987787Y-93413331D01*
X30987787Y-93413331D01*
G37*
D24*
X30968342Y-92566571D03*
D25*
G36*
X30634234Y-93059778D02*
X30475135Y-92900679D01*
X31302450Y-92073364D01*
X31461549Y-92232463D01*
X30634234Y-93059778D01*
X30634234Y-93059778D01*
G37*
D24*
X30968342Y-90303829D03*
D25*
G36*
X30475135Y-89969721D02*
X30634234Y-89810622D01*
X31461549Y-90637937D01*
X31302450Y-90797036D01*
X30475135Y-89969721D01*
X30475135Y-89969721D01*
G37*
D24*
X31321895Y-89950276D03*
D25*
G36*
X30828688Y-89616168D02*
X30987787Y-89457069D01*
X31815102Y-90284384D01*
X31656003Y-90443483D01*
X30828688Y-89616168D01*
X30828688Y-89616168D01*
G37*
D24*
X31675449Y-89596722D03*
D25*
G36*
X31182242Y-89262614D02*
X31341341Y-89103515D01*
X32168656Y-89930830D01*
X32009557Y-90089929D01*
X31182242Y-89262614D01*
X31182242Y-89262614D01*
G37*
D24*
X32029002Y-89243169D03*
D25*
G36*
X31535795Y-88909061D02*
X31694894Y-88749962D01*
X32522209Y-89577277D01*
X32363110Y-89736376D01*
X31535795Y-88909061D01*
X31535795Y-88909061D01*
G37*
D24*
X32382555Y-88889616D03*
D25*
G36*
X31889348Y-88555508D02*
X32048447Y-88396409D01*
X32875762Y-89223724D01*
X32716663Y-89382823D01*
X31889348Y-88555508D01*
X31889348Y-88555508D01*
G37*
D24*
X32736109Y-88536062D03*
D25*
G36*
X32242902Y-88201954D02*
X32402001Y-88042855D01*
X33229316Y-88870170D01*
X33070217Y-89029269D01*
X32242902Y-88201954D01*
X32242902Y-88201954D01*
G37*
D24*
X33089662Y-88182509D03*
D25*
G36*
X32596455Y-87848401D02*
X32755554Y-87689302D01*
X33582869Y-88516617D01*
X33423770Y-88675716D01*
X32596455Y-87848401D01*
X32596455Y-87848401D01*
G37*
D24*
X33443216Y-87828955D03*
D25*
G36*
X32950009Y-87494847D02*
X33109108Y-87335748D01*
X33936423Y-88163063D01*
X33777324Y-88322162D01*
X32950009Y-87494847D01*
X32950009Y-87494847D01*
G37*
D24*
X33796769Y-87475402D03*
D25*
G36*
X33303562Y-87141294D02*
X33462661Y-86982195D01*
X34289976Y-87809510D01*
X34130877Y-87968609D01*
X33303562Y-87141294D01*
X33303562Y-87141294D01*
G37*
D24*
X34150322Y-87121849D03*
D25*
G36*
X33657115Y-86787741D02*
X33816214Y-86628642D01*
X34643529Y-87455957D01*
X34484430Y-87615056D01*
X33657115Y-86787741D01*
X33657115Y-86787741D01*
G37*
D24*
X34503876Y-86768295D03*
D25*
G36*
X34010669Y-86434187D02*
X34169768Y-86275088D01*
X34997083Y-87102403D01*
X34837984Y-87261502D01*
X34010669Y-86434187D01*
X34010669Y-86434187D01*
G37*
D24*
X34857429Y-86414742D03*
D25*
G36*
X34364222Y-86080634D02*
X34523321Y-85921535D01*
X35350636Y-86748850D01*
X35191537Y-86907949D01*
X34364222Y-86080634D01*
X34364222Y-86080634D01*
G37*
G04 #@! TD*
D24*
G04 #@! TO.C,U1*
X-3379829Y-86414742D03*
D25*
G36*
X-3713937Y-86907949D02*
X-3873036Y-86748850D01*
X-3045721Y-85921535D01*
X-2886622Y-86080634D01*
X-3713937Y-86907949D01*
X-3713937Y-86907949D01*
G37*
D24*
X-3026276Y-86768295D03*
D25*
G36*
X-3360384Y-87261502D02*
X-3519483Y-87102403D01*
X-2692168Y-86275088D01*
X-2533069Y-86434187D01*
X-3360384Y-87261502D01*
X-3360384Y-87261502D01*
G37*
D24*
X-2672722Y-87121849D03*
D25*
G36*
X-3006830Y-87615056D02*
X-3165929Y-87455957D01*
X-2338614Y-86628642D01*
X-2179515Y-86787741D01*
X-3006830Y-87615056D01*
X-3006830Y-87615056D01*
G37*
D24*
X-2319169Y-87475402D03*
D25*
G36*
X-2653277Y-87968609D02*
X-2812376Y-87809510D01*
X-1985061Y-86982195D01*
X-1825962Y-87141294D01*
X-2653277Y-87968609D01*
X-2653277Y-87968609D01*
G37*
D24*
X-1965616Y-87828955D03*
D25*
G36*
X-2299724Y-88322162D02*
X-2458823Y-88163063D01*
X-1631508Y-87335748D01*
X-1472409Y-87494847D01*
X-2299724Y-88322162D01*
X-2299724Y-88322162D01*
G37*
D24*
X-1612062Y-88182509D03*
D25*
G36*
X-1946170Y-88675716D02*
X-2105269Y-88516617D01*
X-1277954Y-87689302D01*
X-1118855Y-87848401D01*
X-1946170Y-88675716D01*
X-1946170Y-88675716D01*
G37*
D24*
X-1258509Y-88536062D03*
D25*
G36*
X-1592617Y-89029269D02*
X-1751716Y-88870170D01*
X-924401Y-88042855D01*
X-765302Y-88201954D01*
X-1592617Y-89029269D01*
X-1592617Y-89029269D01*
G37*
D24*
X-904955Y-88889616D03*
D25*
G36*
X-1239063Y-89382823D02*
X-1398162Y-89223724D01*
X-570847Y-88396409D01*
X-411748Y-88555508D01*
X-1239063Y-89382823D01*
X-1239063Y-89382823D01*
G37*
D24*
X-551402Y-89243169D03*
D25*
G36*
X-885510Y-89736376D02*
X-1044609Y-89577277D01*
X-217294Y-88749962D01*
X-58195Y-88909061D01*
X-885510Y-89736376D01*
X-885510Y-89736376D01*
G37*
D24*
X-197849Y-89596722D03*
D25*
G36*
X-531957Y-90089929D02*
X-691056Y-89930830D01*
X136259Y-89103515D01*
X295358Y-89262614D01*
X-531957Y-90089929D01*
X-531957Y-90089929D01*
G37*
D24*
X155705Y-89950276D03*
D25*
G36*
X-178403Y-90443483D02*
X-337502Y-90284384D01*
X489813Y-89457069D01*
X648912Y-89616168D01*
X-178403Y-90443483D01*
X-178403Y-90443483D01*
G37*
D24*
X509258Y-90303829D03*
D25*
G36*
X175150Y-90797036D02*
X16051Y-90637937D01*
X843366Y-89810622D01*
X1002465Y-89969721D01*
X175150Y-90797036D01*
X175150Y-90797036D01*
G37*
D24*
X509258Y-92566571D03*
D25*
G36*
X16051Y-92232463D02*
X175150Y-92073364D01*
X1002465Y-92900679D01*
X843366Y-93059778D01*
X16051Y-92232463D01*
X16051Y-92232463D01*
G37*
D24*
X155705Y-92920124D03*
D25*
G36*
X-337502Y-92586016D02*
X-178403Y-92426917D01*
X648912Y-93254232D01*
X489813Y-93413331D01*
X-337502Y-92586016D01*
X-337502Y-92586016D01*
G37*
D24*
X-197849Y-93273678D03*
D25*
G36*
X-691056Y-92939570D02*
X-531957Y-92780471D01*
X295358Y-93607786D01*
X136259Y-93766885D01*
X-691056Y-92939570D01*
X-691056Y-92939570D01*
G37*
D24*
X-551402Y-93627231D03*
D25*
G36*
X-1044609Y-93293123D02*
X-885510Y-93134024D01*
X-58195Y-93961339D01*
X-217294Y-94120438D01*
X-1044609Y-93293123D01*
X-1044609Y-93293123D01*
G37*
D24*
X-904955Y-93980784D03*
D25*
G36*
X-1398162Y-93646676D02*
X-1239063Y-93487577D01*
X-411748Y-94314892D01*
X-570847Y-94473991D01*
X-1398162Y-93646676D01*
X-1398162Y-93646676D01*
G37*
D24*
X-1258509Y-94334338D03*
D25*
G36*
X-1751716Y-94000230D02*
X-1592617Y-93841131D01*
X-765302Y-94668446D01*
X-924401Y-94827545D01*
X-1751716Y-94000230D01*
X-1751716Y-94000230D01*
G37*
D24*
X-1612062Y-94687891D03*
D25*
G36*
X-2105269Y-94353783D02*
X-1946170Y-94194684D01*
X-1118855Y-95021999D01*
X-1277954Y-95181098D01*
X-2105269Y-94353783D01*
X-2105269Y-94353783D01*
G37*
D24*
X-1965616Y-95041445D03*
D25*
G36*
X-2458823Y-94707337D02*
X-2299724Y-94548238D01*
X-1472409Y-95375553D01*
X-1631508Y-95534652D01*
X-2458823Y-94707337D01*
X-2458823Y-94707337D01*
G37*
D24*
X-2319169Y-95394998D03*
D25*
G36*
X-2812376Y-95060890D02*
X-2653277Y-94901791D01*
X-1825962Y-95729106D01*
X-1985061Y-95888205D01*
X-2812376Y-95060890D01*
X-2812376Y-95060890D01*
G37*
D24*
X-2672722Y-95748551D03*
D25*
G36*
X-3165929Y-95414443D02*
X-3006830Y-95255344D01*
X-2179515Y-96082659D01*
X-2338614Y-96241758D01*
X-3165929Y-95414443D01*
X-3165929Y-95414443D01*
G37*
D24*
X-3026276Y-96102105D03*
D25*
G36*
X-3519483Y-95767997D02*
X-3360384Y-95608898D01*
X-2533069Y-96436213D01*
X-2692168Y-96595312D01*
X-3519483Y-95767997D01*
X-3519483Y-95767997D01*
G37*
D24*
X-3379829Y-96455658D03*
D25*
G36*
X-3873036Y-96121550D02*
X-3713937Y-95962451D01*
X-2886622Y-96789766D01*
X-3045721Y-96948865D01*
X-3873036Y-96121550D01*
X-3873036Y-96121550D01*
G37*
D24*
X-5642571Y-96455658D03*
D25*
G36*
X-5976679Y-96948865D02*
X-6135778Y-96789766D01*
X-5308463Y-95962451D01*
X-5149364Y-96121550D01*
X-5976679Y-96948865D01*
X-5976679Y-96948865D01*
G37*
D24*
X-5996124Y-96102105D03*
D25*
G36*
X-6330232Y-96595312D02*
X-6489331Y-96436213D01*
X-5662016Y-95608898D01*
X-5502917Y-95767997D01*
X-6330232Y-96595312D01*
X-6330232Y-96595312D01*
G37*
D24*
X-6349678Y-95748551D03*
D25*
G36*
X-6683786Y-96241758D02*
X-6842885Y-96082659D01*
X-6015570Y-95255344D01*
X-5856471Y-95414443D01*
X-6683786Y-96241758D01*
X-6683786Y-96241758D01*
G37*
D24*
X-6703231Y-95394998D03*
D25*
G36*
X-7037339Y-95888205D02*
X-7196438Y-95729106D01*
X-6369123Y-94901791D01*
X-6210024Y-95060890D01*
X-7037339Y-95888205D01*
X-7037339Y-95888205D01*
G37*
D24*
X-7056784Y-95041445D03*
D25*
G36*
X-7390892Y-95534652D02*
X-7549991Y-95375553D01*
X-6722676Y-94548238D01*
X-6563577Y-94707337D01*
X-7390892Y-95534652D01*
X-7390892Y-95534652D01*
G37*
D24*
X-7410338Y-94687891D03*
D25*
G36*
X-7744446Y-95181098D02*
X-7903545Y-95021999D01*
X-7076230Y-94194684D01*
X-6917131Y-94353783D01*
X-7744446Y-95181098D01*
X-7744446Y-95181098D01*
G37*
D24*
X-7763891Y-94334338D03*
D25*
G36*
X-8097999Y-94827545D02*
X-8257098Y-94668446D01*
X-7429783Y-93841131D01*
X-7270684Y-94000230D01*
X-8097999Y-94827545D01*
X-8097999Y-94827545D01*
G37*
D24*
X-8117445Y-93980784D03*
D25*
G36*
X-8451553Y-94473991D02*
X-8610652Y-94314892D01*
X-7783337Y-93487577D01*
X-7624238Y-93646676D01*
X-8451553Y-94473991D01*
X-8451553Y-94473991D01*
G37*
D24*
X-8470998Y-93627231D03*
D25*
G36*
X-8805106Y-94120438D02*
X-8964205Y-93961339D01*
X-8136890Y-93134024D01*
X-7977791Y-93293123D01*
X-8805106Y-94120438D01*
X-8805106Y-94120438D01*
G37*
D24*
X-8824551Y-93273678D03*
D25*
G36*
X-9158659Y-93766885D02*
X-9317758Y-93607786D01*
X-8490443Y-92780471D01*
X-8331344Y-92939570D01*
X-9158659Y-93766885D01*
X-9158659Y-93766885D01*
G37*
D24*
X-9178105Y-92920124D03*
D25*
G36*
X-9512213Y-93413331D02*
X-9671312Y-93254232D01*
X-8843997Y-92426917D01*
X-8684898Y-92586016D01*
X-9512213Y-93413331D01*
X-9512213Y-93413331D01*
G37*
D24*
X-9531658Y-92566571D03*
D25*
G36*
X-9865766Y-93059778D02*
X-10024865Y-92900679D01*
X-9197550Y-92073364D01*
X-9038451Y-92232463D01*
X-9865766Y-93059778D01*
X-9865766Y-93059778D01*
G37*
D24*
X-9531658Y-90303829D03*
D25*
G36*
X-10024865Y-89969721D02*
X-9865766Y-89810622D01*
X-9038451Y-90637937D01*
X-9197550Y-90797036D01*
X-10024865Y-89969721D01*
X-10024865Y-89969721D01*
G37*
D24*
X-9178105Y-89950276D03*
D25*
G36*
X-9671312Y-89616168D02*
X-9512213Y-89457069D01*
X-8684898Y-90284384D01*
X-8843997Y-90443483D01*
X-9671312Y-89616168D01*
X-9671312Y-89616168D01*
G37*
D24*
X-8824551Y-89596722D03*
D25*
G36*
X-9317758Y-89262614D02*
X-9158659Y-89103515D01*
X-8331344Y-89930830D01*
X-8490443Y-90089929D01*
X-9317758Y-89262614D01*
X-9317758Y-89262614D01*
G37*
D24*
X-8470998Y-89243169D03*
D25*
G36*
X-8964205Y-88909061D02*
X-8805106Y-88749962D01*
X-7977791Y-89577277D01*
X-8136890Y-89736376D01*
X-8964205Y-88909061D01*
X-8964205Y-88909061D01*
G37*
D24*
X-8117445Y-88889616D03*
D25*
G36*
X-8610652Y-88555508D02*
X-8451553Y-88396409D01*
X-7624238Y-89223724D01*
X-7783337Y-89382823D01*
X-8610652Y-88555508D01*
X-8610652Y-88555508D01*
G37*
D24*
X-7763891Y-88536062D03*
D25*
G36*
X-8257098Y-88201954D02*
X-8097999Y-88042855D01*
X-7270684Y-88870170D01*
X-7429783Y-89029269D01*
X-8257098Y-88201954D01*
X-8257098Y-88201954D01*
G37*
D24*
X-7410338Y-88182509D03*
D25*
G36*
X-7903545Y-87848401D02*
X-7744446Y-87689302D01*
X-6917131Y-88516617D01*
X-7076230Y-88675716D01*
X-7903545Y-87848401D01*
X-7903545Y-87848401D01*
G37*
D24*
X-7056784Y-87828955D03*
D25*
G36*
X-7549991Y-87494847D02*
X-7390892Y-87335748D01*
X-6563577Y-88163063D01*
X-6722676Y-88322162D01*
X-7549991Y-87494847D01*
X-7549991Y-87494847D01*
G37*
D24*
X-6703231Y-87475402D03*
D25*
G36*
X-7196438Y-87141294D02*
X-7037339Y-86982195D01*
X-6210024Y-87809510D01*
X-6369123Y-87968609D01*
X-7196438Y-87141294D01*
X-7196438Y-87141294D01*
G37*
D24*
X-6349678Y-87121849D03*
D25*
G36*
X-6842885Y-86787741D02*
X-6683786Y-86628642D01*
X-5856471Y-87455957D01*
X-6015570Y-87615056D01*
X-6842885Y-86787741D01*
X-6842885Y-86787741D01*
G37*
D24*
X-5996124Y-86768295D03*
D25*
G36*
X-6489331Y-86434187D02*
X-6330232Y-86275088D01*
X-5502917Y-87102403D01*
X-5662016Y-87261502D01*
X-6489331Y-86434187D01*
X-6489331Y-86434187D01*
G37*
D24*
X-5642571Y-86414742D03*
D25*
G36*
X-6135778Y-86080634D02*
X-5976679Y-85921535D01*
X-5149364Y-86748850D01*
X-5308463Y-86907949D01*
X-6135778Y-86080634D01*
X-6135778Y-86080634D01*
G37*
G04 #@! TD*
D24*
G04 #@! TO.C,U1*
X-43879829Y-86414742D03*
D25*
G36*
X-44213937Y-86907949D02*
X-44373036Y-86748850D01*
X-43545721Y-85921535D01*
X-43386622Y-86080634D01*
X-44213937Y-86907949D01*
X-44213937Y-86907949D01*
G37*
D24*
X-43526276Y-86768295D03*
D25*
G36*
X-43860384Y-87261502D02*
X-44019483Y-87102403D01*
X-43192168Y-86275088D01*
X-43033069Y-86434187D01*
X-43860384Y-87261502D01*
X-43860384Y-87261502D01*
G37*
D24*
X-43172722Y-87121849D03*
D25*
G36*
X-43506830Y-87615056D02*
X-43665929Y-87455957D01*
X-42838614Y-86628642D01*
X-42679515Y-86787741D01*
X-43506830Y-87615056D01*
X-43506830Y-87615056D01*
G37*
D24*
X-42819169Y-87475402D03*
D25*
G36*
X-43153277Y-87968609D02*
X-43312376Y-87809510D01*
X-42485061Y-86982195D01*
X-42325962Y-87141294D01*
X-43153277Y-87968609D01*
X-43153277Y-87968609D01*
G37*
D24*
X-42465616Y-87828955D03*
D25*
G36*
X-42799724Y-88322162D02*
X-42958823Y-88163063D01*
X-42131508Y-87335748D01*
X-41972409Y-87494847D01*
X-42799724Y-88322162D01*
X-42799724Y-88322162D01*
G37*
D24*
X-42112062Y-88182509D03*
D25*
G36*
X-42446170Y-88675716D02*
X-42605269Y-88516617D01*
X-41777954Y-87689302D01*
X-41618855Y-87848401D01*
X-42446170Y-88675716D01*
X-42446170Y-88675716D01*
G37*
D24*
X-41758509Y-88536062D03*
D25*
G36*
X-42092617Y-89029269D02*
X-42251716Y-88870170D01*
X-41424401Y-88042855D01*
X-41265302Y-88201954D01*
X-42092617Y-89029269D01*
X-42092617Y-89029269D01*
G37*
D24*
X-41404955Y-88889616D03*
D25*
G36*
X-41739063Y-89382823D02*
X-41898162Y-89223724D01*
X-41070847Y-88396409D01*
X-40911748Y-88555508D01*
X-41739063Y-89382823D01*
X-41739063Y-89382823D01*
G37*
D24*
X-41051402Y-89243169D03*
D25*
G36*
X-41385510Y-89736376D02*
X-41544609Y-89577277D01*
X-40717294Y-88749962D01*
X-40558195Y-88909061D01*
X-41385510Y-89736376D01*
X-41385510Y-89736376D01*
G37*
D24*
X-40697849Y-89596722D03*
D25*
G36*
X-41031957Y-90089929D02*
X-41191056Y-89930830D01*
X-40363741Y-89103515D01*
X-40204642Y-89262614D01*
X-41031957Y-90089929D01*
X-41031957Y-90089929D01*
G37*
D24*
X-40344295Y-89950276D03*
D25*
G36*
X-40678403Y-90443483D02*
X-40837502Y-90284384D01*
X-40010187Y-89457069D01*
X-39851088Y-89616168D01*
X-40678403Y-90443483D01*
X-40678403Y-90443483D01*
G37*
D24*
X-39990742Y-90303829D03*
D25*
G36*
X-40324850Y-90797036D02*
X-40483949Y-90637937D01*
X-39656634Y-89810622D01*
X-39497535Y-89969721D01*
X-40324850Y-90797036D01*
X-40324850Y-90797036D01*
G37*
D24*
X-39990742Y-92566571D03*
D25*
G36*
X-40483949Y-92232463D02*
X-40324850Y-92073364D01*
X-39497535Y-92900679D01*
X-39656634Y-93059778D01*
X-40483949Y-92232463D01*
X-40483949Y-92232463D01*
G37*
D24*
X-40344295Y-92920124D03*
D25*
G36*
X-40837502Y-92586016D02*
X-40678403Y-92426917D01*
X-39851088Y-93254232D01*
X-40010187Y-93413331D01*
X-40837502Y-92586016D01*
X-40837502Y-92586016D01*
G37*
D24*
X-40697849Y-93273678D03*
D25*
G36*
X-41191056Y-92939570D02*
X-41031957Y-92780471D01*
X-40204642Y-93607786D01*
X-40363741Y-93766885D01*
X-41191056Y-92939570D01*
X-41191056Y-92939570D01*
G37*
D24*
X-41051402Y-93627231D03*
D25*
G36*
X-41544609Y-93293123D02*
X-41385510Y-93134024D01*
X-40558195Y-93961339D01*
X-40717294Y-94120438D01*
X-41544609Y-93293123D01*
X-41544609Y-93293123D01*
G37*
D24*
X-41404955Y-93980784D03*
D25*
G36*
X-41898162Y-93646676D02*
X-41739063Y-93487577D01*
X-40911748Y-94314892D01*
X-41070847Y-94473991D01*
X-41898162Y-93646676D01*
X-41898162Y-93646676D01*
G37*
D24*
X-41758509Y-94334338D03*
D25*
G36*
X-42251716Y-94000230D02*
X-42092617Y-93841131D01*
X-41265302Y-94668446D01*
X-41424401Y-94827545D01*
X-42251716Y-94000230D01*
X-42251716Y-94000230D01*
G37*
D24*
X-42112062Y-94687891D03*
D25*
G36*
X-42605269Y-94353783D02*
X-42446170Y-94194684D01*
X-41618855Y-95021999D01*
X-41777954Y-95181098D01*
X-42605269Y-94353783D01*
X-42605269Y-94353783D01*
G37*
D24*
X-42465616Y-95041445D03*
D25*
G36*
X-42958823Y-94707337D02*
X-42799724Y-94548238D01*
X-41972409Y-95375553D01*
X-42131508Y-95534652D01*
X-42958823Y-94707337D01*
X-42958823Y-94707337D01*
G37*
D24*
X-42819169Y-95394998D03*
D25*
G36*
X-43312376Y-95060890D02*
X-43153277Y-94901791D01*
X-42325962Y-95729106D01*
X-42485061Y-95888205D01*
X-43312376Y-95060890D01*
X-43312376Y-95060890D01*
G37*
D24*
X-43172722Y-95748551D03*
D25*
G36*
X-43665929Y-95414443D02*
X-43506830Y-95255344D01*
X-42679515Y-96082659D01*
X-42838614Y-96241758D01*
X-43665929Y-95414443D01*
X-43665929Y-95414443D01*
G37*
D24*
X-43526276Y-96102105D03*
D25*
G36*
X-44019483Y-95767997D02*
X-43860384Y-95608898D01*
X-43033069Y-96436213D01*
X-43192168Y-96595312D01*
X-44019483Y-95767997D01*
X-44019483Y-95767997D01*
G37*
D24*
X-43879829Y-96455658D03*
D25*
G36*
X-44373036Y-96121550D02*
X-44213937Y-95962451D01*
X-43386622Y-96789766D01*
X-43545721Y-96948865D01*
X-44373036Y-96121550D01*
X-44373036Y-96121550D01*
G37*
D24*
X-46142571Y-96455658D03*
D25*
G36*
X-46476679Y-96948865D02*
X-46635778Y-96789766D01*
X-45808463Y-95962451D01*
X-45649364Y-96121550D01*
X-46476679Y-96948865D01*
X-46476679Y-96948865D01*
G37*
D24*
X-46496124Y-96102105D03*
D25*
G36*
X-46830232Y-96595312D02*
X-46989331Y-96436213D01*
X-46162016Y-95608898D01*
X-46002917Y-95767997D01*
X-46830232Y-96595312D01*
X-46830232Y-96595312D01*
G37*
D24*
X-46849678Y-95748551D03*
D25*
G36*
X-47183786Y-96241758D02*
X-47342885Y-96082659D01*
X-46515570Y-95255344D01*
X-46356471Y-95414443D01*
X-47183786Y-96241758D01*
X-47183786Y-96241758D01*
G37*
D24*
X-47203231Y-95394998D03*
D25*
G36*
X-47537339Y-95888205D02*
X-47696438Y-95729106D01*
X-46869123Y-94901791D01*
X-46710024Y-95060890D01*
X-47537339Y-95888205D01*
X-47537339Y-95888205D01*
G37*
D24*
X-47556784Y-95041445D03*
D25*
G36*
X-47890892Y-95534652D02*
X-48049991Y-95375553D01*
X-47222676Y-94548238D01*
X-47063577Y-94707337D01*
X-47890892Y-95534652D01*
X-47890892Y-95534652D01*
G37*
D24*
X-47910338Y-94687891D03*
D25*
G36*
X-48244446Y-95181098D02*
X-48403545Y-95021999D01*
X-47576230Y-94194684D01*
X-47417131Y-94353783D01*
X-48244446Y-95181098D01*
X-48244446Y-95181098D01*
G37*
D24*
X-48263891Y-94334338D03*
D25*
G36*
X-48597999Y-94827545D02*
X-48757098Y-94668446D01*
X-47929783Y-93841131D01*
X-47770684Y-94000230D01*
X-48597999Y-94827545D01*
X-48597999Y-94827545D01*
G37*
D24*
X-48617445Y-93980784D03*
D25*
G36*
X-48951553Y-94473991D02*
X-49110652Y-94314892D01*
X-48283337Y-93487577D01*
X-48124238Y-93646676D01*
X-48951553Y-94473991D01*
X-48951553Y-94473991D01*
G37*
D24*
X-48970998Y-93627231D03*
D25*
G36*
X-49305106Y-94120438D02*
X-49464205Y-93961339D01*
X-48636890Y-93134024D01*
X-48477791Y-93293123D01*
X-49305106Y-94120438D01*
X-49305106Y-94120438D01*
G37*
D24*
X-49324551Y-93273678D03*
D25*
G36*
X-49658659Y-93766885D02*
X-49817758Y-93607786D01*
X-48990443Y-92780471D01*
X-48831344Y-92939570D01*
X-49658659Y-93766885D01*
X-49658659Y-93766885D01*
G37*
D24*
X-49678105Y-92920124D03*
D25*
G36*
X-50012213Y-93413331D02*
X-50171312Y-93254232D01*
X-49343997Y-92426917D01*
X-49184898Y-92586016D01*
X-50012213Y-93413331D01*
X-50012213Y-93413331D01*
G37*
D24*
X-50031658Y-92566571D03*
D25*
G36*
X-50365766Y-93059778D02*
X-50524865Y-92900679D01*
X-49697550Y-92073364D01*
X-49538451Y-92232463D01*
X-50365766Y-93059778D01*
X-50365766Y-93059778D01*
G37*
D24*
X-50031658Y-90303829D03*
D25*
G36*
X-50524865Y-89969721D02*
X-50365766Y-89810622D01*
X-49538451Y-90637937D01*
X-49697550Y-90797036D01*
X-50524865Y-89969721D01*
X-50524865Y-89969721D01*
G37*
D24*
X-49678105Y-89950276D03*
D25*
G36*
X-50171312Y-89616168D02*
X-50012213Y-89457069D01*
X-49184898Y-90284384D01*
X-49343997Y-90443483D01*
X-50171312Y-89616168D01*
X-50171312Y-89616168D01*
G37*
D24*
X-49324551Y-89596722D03*
D25*
G36*
X-49817758Y-89262614D02*
X-49658659Y-89103515D01*
X-48831344Y-89930830D01*
X-48990443Y-90089929D01*
X-49817758Y-89262614D01*
X-49817758Y-89262614D01*
G37*
D24*
X-48970998Y-89243169D03*
D25*
G36*
X-49464205Y-88909061D02*
X-49305106Y-88749962D01*
X-48477791Y-89577277D01*
X-48636890Y-89736376D01*
X-49464205Y-88909061D01*
X-49464205Y-88909061D01*
G37*
D24*
X-48617445Y-88889616D03*
D25*
G36*
X-49110652Y-88555508D02*
X-48951553Y-88396409D01*
X-48124238Y-89223724D01*
X-48283337Y-89382823D01*
X-49110652Y-88555508D01*
X-49110652Y-88555508D01*
G37*
D24*
X-48263891Y-88536062D03*
D25*
G36*
X-48757098Y-88201954D02*
X-48597999Y-88042855D01*
X-47770684Y-88870170D01*
X-47929783Y-89029269D01*
X-48757098Y-88201954D01*
X-48757098Y-88201954D01*
G37*
D24*
X-47910338Y-88182509D03*
D25*
G36*
X-48403545Y-87848401D02*
X-48244446Y-87689302D01*
X-47417131Y-88516617D01*
X-47576230Y-88675716D01*
X-48403545Y-87848401D01*
X-48403545Y-87848401D01*
G37*
D24*
X-47556784Y-87828955D03*
D25*
G36*
X-48049991Y-87494847D02*
X-47890892Y-87335748D01*
X-47063577Y-88163063D01*
X-47222676Y-88322162D01*
X-48049991Y-87494847D01*
X-48049991Y-87494847D01*
G37*
D24*
X-47203231Y-87475402D03*
D25*
G36*
X-47696438Y-87141294D02*
X-47537339Y-86982195D01*
X-46710024Y-87809510D01*
X-46869123Y-87968609D01*
X-47696438Y-87141294D01*
X-47696438Y-87141294D01*
G37*
D24*
X-46849678Y-87121849D03*
D25*
G36*
X-47342885Y-86787741D02*
X-47183786Y-86628642D01*
X-46356471Y-87455957D01*
X-46515570Y-87615056D01*
X-47342885Y-86787741D01*
X-47342885Y-86787741D01*
G37*
D24*
X-46496124Y-86768295D03*
D25*
G36*
X-46989331Y-86434187D02*
X-46830232Y-86275088D01*
X-46002917Y-87102403D01*
X-46162016Y-87261502D01*
X-46989331Y-86434187D01*
X-46989331Y-86434187D01*
G37*
D24*
X-46142571Y-86414742D03*
D25*
G36*
X-46635778Y-86080634D02*
X-46476679Y-85921535D01*
X-45649364Y-86748850D01*
X-45808463Y-86907949D01*
X-46635778Y-86080634D01*
X-46635778Y-86080634D01*
G37*
G04 #@! TD*
D24*
G04 #@! TO.C,U1*
X37120171Y19585258D03*
D25*
G36*
X36786063Y19092051D02*
X36626964Y19251150D01*
X37454279Y20078465D01*
X37613378Y19919366D01*
X36786063Y19092051D01*
X36786063Y19092051D01*
G37*
D24*
X37473724Y19231705D03*
D25*
G36*
X37139616Y18738498D02*
X36980517Y18897597D01*
X37807832Y19724912D01*
X37966931Y19565813D01*
X37139616Y18738498D01*
X37139616Y18738498D01*
G37*
D24*
X37827278Y18878151D03*
D25*
G36*
X37493170Y18384944D02*
X37334071Y18544043D01*
X38161386Y19371358D01*
X38320485Y19212259D01*
X37493170Y18384944D01*
X37493170Y18384944D01*
G37*
D24*
X38180831Y18524598D03*
D25*
G36*
X37846723Y18031391D02*
X37687624Y18190490D01*
X38514939Y19017805D01*
X38674038Y18858706D01*
X37846723Y18031391D01*
X37846723Y18031391D01*
G37*
D24*
X38534384Y18171045D03*
D25*
G36*
X38200276Y17677838D02*
X38041177Y17836937D01*
X38868492Y18664252D01*
X39027591Y18505153D01*
X38200276Y17677838D01*
X38200276Y17677838D01*
G37*
D24*
X38887938Y17817491D03*
D25*
G36*
X38553830Y17324284D02*
X38394731Y17483383D01*
X39222046Y18310698D01*
X39381145Y18151599D01*
X38553830Y17324284D01*
X38553830Y17324284D01*
G37*
D24*
X39241491Y17463938D03*
D25*
G36*
X38907383Y16970731D02*
X38748284Y17129830D01*
X39575599Y17957145D01*
X39734698Y17798046D01*
X38907383Y16970731D01*
X38907383Y16970731D01*
G37*
D24*
X39595045Y17110384D03*
D25*
G36*
X39260937Y16617177D02*
X39101838Y16776276D01*
X39929153Y17603591D01*
X40088252Y17444492D01*
X39260937Y16617177D01*
X39260937Y16617177D01*
G37*
D24*
X39948598Y16756831D03*
D25*
G36*
X39614490Y16263624D02*
X39455391Y16422723D01*
X40282706Y17250038D01*
X40441805Y17090939D01*
X39614490Y16263624D01*
X39614490Y16263624D01*
G37*
D24*
X40302151Y16403278D03*
D25*
G36*
X39968043Y15910071D02*
X39808944Y16069170D01*
X40636259Y16896485D01*
X40795358Y16737386D01*
X39968043Y15910071D01*
X39968043Y15910071D01*
G37*
D24*
X40655705Y16049724D03*
D25*
G36*
X40321597Y15556517D02*
X40162498Y15715616D01*
X40989813Y16542931D01*
X41148912Y16383832D01*
X40321597Y15556517D01*
X40321597Y15556517D01*
G37*
D24*
X41009258Y15696171D03*
D25*
G36*
X40675150Y15202964D02*
X40516051Y15362063D01*
X41343366Y16189378D01*
X41502465Y16030279D01*
X40675150Y15202964D01*
X40675150Y15202964D01*
G37*
D24*
X41009258Y13433429D03*
D25*
G36*
X40516051Y13767537D02*
X40675150Y13926636D01*
X41502465Y13099321D01*
X41343366Y12940222D01*
X40516051Y13767537D01*
X40516051Y13767537D01*
G37*
D24*
X40655705Y13079876D03*
D25*
G36*
X40162498Y13413984D02*
X40321597Y13573083D01*
X41148912Y12745768D01*
X40989813Y12586669D01*
X40162498Y13413984D01*
X40162498Y13413984D01*
G37*
D24*
X40302151Y12726322D03*
D25*
G36*
X39808944Y13060430D02*
X39968043Y13219529D01*
X40795358Y12392214D01*
X40636259Y12233115D01*
X39808944Y13060430D01*
X39808944Y13060430D01*
G37*
D24*
X39948598Y12372769D03*
D25*
G36*
X39455391Y12706877D02*
X39614490Y12865976D01*
X40441805Y12038661D01*
X40282706Y11879562D01*
X39455391Y12706877D01*
X39455391Y12706877D01*
G37*
D24*
X39595045Y12019216D03*
D25*
G36*
X39101838Y12353324D02*
X39260937Y12512423D01*
X40088252Y11685108D01*
X39929153Y11526009D01*
X39101838Y12353324D01*
X39101838Y12353324D01*
G37*
D24*
X39241491Y11665662D03*
D25*
G36*
X38748284Y11999770D02*
X38907383Y12158869D01*
X39734698Y11331554D01*
X39575599Y11172455D01*
X38748284Y11999770D01*
X38748284Y11999770D01*
G37*
D24*
X38887938Y11312109D03*
D25*
G36*
X38394731Y11646217D02*
X38553830Y11805316D01*
X39381145Y10978001D01*
X39222046Y10818902D01*
X38394731Y11646217D01*
X38394731Y11646217D01*
G37*
D24*
X38534384Y10958555D03*
D25*
G36*
X38041177Y11292663D02*
X38200276Y11451762D01*
X39027591Y10624447D01*
X38868492Y10465348D01*
X38041177Y11292663D01*
X38041177Y11292663D01*
G37*
D24*
X38180831Y10605002D03*
D25*
G36*
X37687624Y10939110D02*
X37846723Y11098209D01*
X38674038Y10270894D01*
X38514939Y10111795D01*
X37687624Y10939110D01*
X37687624Y10939110D01*
G37*
D24*
X37827278Y10251449D03*
D25*
G36*
X37334071Y10585557D02*
X37493170Y10744656D01*
X38320485Y9917341D01*
X38161386Y9758242D01*
X37334071Y10585557D01*
X37334071Y10585557D01*
G37*
D24*
X37473724Y9897895D03*
D25*
G36*
X36980517Y10232003D02*
X37139616Y10391102D01*
X37966931Y9563787D01*
X37807832Y9404688D01*
X36980517Y10232003D01*
X36980517Y10232003D01*
G37*
D24*
X37120171Y9544342D03*
D25*
G36*
X36626964Y9878450D02*
X36786063Y10037549D01*
X37613378Y9210234D01*
X37454279Y9051135D01*
X36626964Y9878450D01*
X36626964Y9878450D01*
G37*
D24*
X34857429Y9544342D03*
D25*
G36*
X34523321Y9051135D02*
X34364222Y9210234D01*
X35191537Y10037549D01*
X35350636Y9878450D01*
X34523321Y9051135D01*
X34523321Y9051135D01*
G37*
D24*
X34503876Y9897895D03*
D25*
G36*
X34169768Y9404688D02*
X34010669Y9563787D01*
X34837984Y10391102D01*
X34997083Y10232003D01*
X34169768Y9404688D01*
X34169768Y9404688D01*
G37*
D24*
X34150322Y10251449D03*
D25*
G36*
X33816214Y9758242D02*
X33657115Y9917341D01*
X34484430Y10744656D01*
X34643529Y10585557D01*
X33816214Y9758242D01*
X33816214Y9758242D01*
G37*
D24*
X33796769Y10605002D03*
D25*
G36*
X33462661Y10111795D02*
X33303562Y10270894D01*
X34130877Y11098209D01*
X34289976Y10939110D01*
X33462661Y10111795D01*
X33462661Y10111795D01*
G37*
D24*
X33443216Y10958555D03*
D25*
G36*
X33109108Y10465348D02*
X32950009Y10624447D01*
X33777324Y11451762D01*
X33936423Y11292663D01*
X33109108Y10465348D01*
X33109108Y10465348D01*
G37*
D24*
X33089662Y11312109D03*
D25*
G36*
X32755554Y10818902D02*
X32596455Y10978001D01*
X33423770Y11805316D01*
X33582869Y11646217D01*
X32755554Y10818902D01*
X32755554Y10818902D01*
G37*
D24*
X32736109Y11665662D03*
D25*
G36*
X32402001Y11172455D02*
X32242902Y11331554D01*
X33070217Y12158869D01*
X33229316Y11999770D01*
X32402001Y11172455D01*
X32402001Y11172455D01*
G37*
D24*
X32382555Y12019216D03*
D25*
G36*
X32048447Y11526009D02*
X31889348Y11685108D01*
X32716663Y12512423D01*
X32875762Y12353324D01*
X32048447Y11526009D01*
X32048447Y11526009D01*
G37*
D24*
X32029002Y12372769D03*
D25*
G36*
X31694894Y11879562D02*
X31535795Y12038661D01*
X32363110Y12865976D01*
X32522209Y12706877D01*
X31694894Y11879562D01*
X31694894Y11879562D01*
G37*
D24*
X31675449Y12726322D03*
D25*
G36*
X31341341Y12233115D02*
X31182242Y12392214D01*
X32009557Y13219529D01*
X32168656Y13060430D01*
X31341341Y12233115D01*
X31341341Y12233115D01*
G37*
D24*
X31321895Y13079876D03*
D25*
G36*
X30987787Y12586669D02*
X30828688Y12745768D01*
X31656003Y13573083D01*
X31815102Y13413984D01*
X30987787Y12586669D01*
X30987787Y12586669D01*
G37*
D24*
X30968342Y13433429D03*
D25*
G36*
X30634234Y12940222D02*
X30475135Y13099321D01*
X31302450Y13926636D01*
X31461549Y13767537D01*
X30634234Y12940222D01*
X30634234Y12940222D01*
G37*
D24*
X30968342Y15696171D03*
D25*
G36*
X30475135Y16030279D02*
X30634234Y16189378D01*
X31461549Y15362063D01*
X31302450Y15202964D01*
X30475135Y16030279D01*
X30475135Y16030279D01*
G37*
D24*
X31321895Y16049724D03*
D25*
G36*
X30828688Y16383832D02*
X30987787Y16542931D01*
X31815102Y15715616D01*
X31656003Y15556517D01*
X30828688Y16383832D01*
X30828688Y16383832D01*
G37*
D24*
X31675449Y16403278D03*
D25*
G36*
X31182242Y16737386D02*
X31341341Y16896485D01*
X32168656Y16069170D01*
X32009557Y15910071D01*
X31182242Y16737386D01*
X31182242Y16737386D01*
G37*
D24*
X32029002Y16756831D03*
D25*
G36*
X31535795Y17090939D02*
X31694894Y17250038D01*
X32522209Y16422723D01*
X32363110Y16263624D01*
X31535795Y17090939D01*
X31535795Y17090939D01*
G37*
D24*
X32382555Y17110384D03*
D25*
G36*
X31889348Y17444492D02*
X32048447Y17603591D01*
X32875762Y16776276D01*
X32716663Y16617177D01*
X31889348Y17444492D01*
X31889348Y17444492D01*
G37*
D24*
X32736109Y17463938D03*
D25*
G36*
X32242902Y17798046D02*
X32402001Y17957145D01*
X33229316Y17129830D01*
X33070217Y16970731D01*
X32242902Y17798046D01*
X32242902Y17798046D01*
G37*
D24*
X33089662Y17817491D03*
D25*
G36*
X32596455Y18151599D02*
X32755554Y18310698D01*
X33582869Y17483383D01*
X33423770Y17324284D01*
X32596455Y18151599D01*
X32596455Y18151599D01*
G37*
D24*
X33443216Y18171045D03*
D25*
G36*
X32950009Y18505153D02*
X33109108Y18664252D01*
X33936423Y17836937D01*
X33777324Y17677838D01*
X32950009Y18505153D01*
X32950009Y18505153D01*
G37*
D24*
X33796769Y18524598D03*
D25*
G36*
X33303562Y18858706D02*
X33462661Y19017805D01*
X34289976Y18190490D01*
X34130877Y18031391D01*
X33303562Y18858706D01*
X33303562Y18858706D01*
G37*
D24*
X34150322Y18878151D03*
D25*
G36*
X33657115Y19212259D02*
X33816214Y19371358D01*
X34643529Y18544043D01*
X34484430Y18384944D01*
X33657115Y19212259D01*
X33657115Y19212259D01*
G37*
D24*
X34503876Y19231705D03*
D25*
G36*
X34010669Y19565813D02*
X34169768Y19724912D01*
X34997083Y18897597D01*
X34837984Y18738498D01*
X34010669Y19565813D01*
X34010669Y19565813D01*
G37*
D24*
X34857429Y19585258D03*
D25*
G36*
X34364222Y19919366D02*
X34523321Y20078465D01*
X35350636Y19251150D01*
X35191537Y19092051D01*
X34364222Y19919366D01*
X34364222Y19919366D01*
G37*
G04 #@! TD*
D24*
G04 #@! TO.C,U1*
X-3379829Y19585258D03*
D25*
G36*
X-3713937Y19092051D02*
X-3873036Y19251150D01*
X-3045721Y20078465D01*
X-2886622Y19919366D01*
X-3713937Y19092051D01*
X-3713937Y19092051D01*
G37*
D24*
X-3026276Y19231705D03*
D25*
G36*
X-3360384Y18738498D02*
X-3519483Y18897597D01*
X-2692168Y19724912D01*
X-2533069Y19565813D01*
X-3360384Y18738498D01*
X-3360384Y18738498D01*
G37*
D24*
X-2672722Y18878151D03*
D25*
G36*
X-3006830Y18384944D02*
X-3165929Y18544043D01*
X-2338614Y19371358D01*
X-2179515Y19212259D01*
X-3006830Y18384944D01*
X-3006830Y18384944D01*
G37*
D24*
X-2319169Y18524598D03*
D25*
G36*
X-2653277Y18031391D02*
X-2812376Y18190490D01*
X-1985061Y19017805D01*
X-1825962Y18858706D01*
X-2653277Y18031391D01*
X-2653277Y18031391D01*
G37*
D24*
X-1965616Y18171045D03*
D25*
G36*
X-2299724Y17677838D02*
X-2458823Y17836937D01*
X-1631508Y18664252D01*
X-1472409Y18505153D01*
X-2299724Y17677838D01*
X-2299724Y17677838D01*
G37*
D24*
X-1612062Y17817491D03*
D25*
G36*
X-1946170Y17324284D02*
X-2105269Y17483383D01*
X-1277954Y18310698D01*
X-1118855Y18151599D01*
X-1946170Y17324284D01*
X-1946170Y17324284D01*
G37*
D24*
X-1258509Y17463938D03*
D25*
G36*
X-1592617Y16970731D02*
X-1751716Y17129830D01*
X-924401Y17957145D01*
X-765302Y17798046D01*
X-1592617Y16970731D01*
X-1592617Y16970731D01*
G37*
D24*
X-904955Y17110384D03*
D25*
G36*
X-1239063Y16617177D02*
X-1398162Y16776276D01*
X-570847Y17603591D01*
X-411748Y17444492D01*
X-1239063Y16617177D01*
X-1239063Y16617177D01*
G37*
D24*
X-551402Y16756831D03*
D25*
G36*
X-885510Y16263624D02*
X-1044609Y16422723D01*
X-217294Y17250038D01*
X-58195Y17090939D01*
X-885510Y16263624D01*
X-885510Y16263624D01*
G37*
D24*
X-197849Y16403278D03*
D25*
G36*
X-531957Y15910071D02*
X-691056Y16069170D01*
X136259Y16896485D01*
X295358Y16737386D01*
X-531957Y15910071D01*
X-531957Y15910071D01*
G37*
D24*
X155705Y16049724D03*
D25*
G36*
X-178403Y15556517D02*
X-337502Y15715616D01*
X489813Y16542931D01*
X648912Y16383832D01*
X-178403Y15556517D01*
X-178403Y15556517D01*
G37*
D24*
X509258Y15696171D03*
D25*
G36*
X175150Y15202964D02*
X16051Y15362063D01*
X843366Y16189378D01*
X1002465Y16030279D01*
X175150Y15202964D01*
X175150Y15202964D01*
G37*
D24*
X509258Y13433429D03*
D25*
G36*
X16051Y13767537D02*
X175150Y13926636D01*
X1002465Y13099321D01*
X843366Y12940222D01*
X16051Y13767537D01*
X16051Y13767537D01*
G37*
D24*
X155705Y13079876D03*
D25*
G36*
X-337502Y13413984D02*
X-178403Y13573083D01*
X648912Y12745768D01*
X489813Y12586669D01*
X-337502Y13413984D01*
X-337502Y13413984D01*
G37*
D24*
X-197849Y12726322D03*
D25*
G36*
X-691056Y13060430D02*
X-531957Y13219529D01*
X295358Y12392214D01*
X136259Y12233115D01*
X-691056Y13060430D01*
X-691056Y13060430D01*
G37*
D24*
X-551402Y12372769D03*
D25*
G36*
X-1044609Y12706877D02*
X-885510Y12865976D01*
X-58195Y12038661D01*
X-217294Y11879562D01*
X-1044609Y12706877D01*
X-1044609Y12706877D01*
G37*
D24*
X-904955Y12019216D03*
D25*
G36*
X-1398162Y12353324D02*
X-1239063Y12512423D01*
X-411748Y11685108D01*
X-570847Y11526009D01*
X-1398162Y12353324D01*
X-1398162Y12353324D01*
G37*
D24*
X-1258509Y11665662D03*
D25*
G36*
X-1751716Y11999770D02*
X-1592617Y12158869D01*
X-765302Y11331554D01*
X-924401Y11172455D01*
X-1751716Y11999770D01*
X-1751716Y11999770D01*
G37*
D24*
X-1612062Y11312109D03*
D25*
G36*
X-2105269Y11646217D02*
X-1946170Y11805316D01*
X-1118855Y10978001D01*
X-1277954Y10818902D01*
X-2105269Y11646217D01*
X-2105269Y11646217D01*
G37*
D24*
X-1965616Y10958555D03*
D25*
G36*
X-2458823Y11292663D02*
X-2299724Y11451762D01*
X-1472409Y10624447D01*
X-1631508Y10465348D01*
X-2458823Y11292663D01*
X-2458823Y11292663D01*
G37*
D24*
X-2319169Y10605002D03*
D25*
G36*
X-2812376Y10939110D02*
X-2653277Y11098209D01*
X-1825962Y10270894D01*
X-1985061Y10111795D01*
X-2812376Y10939110D01*
X-2812376Y10939110D01*
G37*
D24*
X-2672722Y10251449D03*
D25*
G36*
X-3165929Y10585557D02*
X-3006830Y10744656D01*
X-2179515Y9917341D01*
X-2338614Y9758242D01*
X-3165929Y10585557D01*
X-3165929Y10585557D01*
G37*
D24*
X-3026276Y9897895D03*
D25*
G36*
X-3519483Y10232003D02*
X-3360384Y10391102D01*
X-2533069Y9563787D01*
X-2692168Y9404688D01*
X-3519483Y10232003D01*
X-3519483Y10232003D01*
G37*
D24*
X-3379829Y9544342D03*
D25*
G36*
X-3873036Y9878450D02*
X-3713937Y10037549D01*
X-2886622Y9210234D01*
X-3045721Y9051135D01*
X-3873036Y9878450D01*
X-3873036Y9878450D01*
G37*
D24*
X-5642571Y9544342D03*
D25*
G36*
X-5976679Y9051135D02*
X-6135778Y9210234D01*
X-5308463Y10037549D01*
X-5149364Y9878450D01*
X-5976679Y9051135D01*
X-5976679Y9051135D01*
G37*
D24*
X-5996124Y9897895D03*
D25*
G36*
X-6330232Y9404688D02*
X-6489331Y9563787D01*
X-5662016Y10391102D01*
X-5502917Y10232003D01*
X-6330232Y9404688D01*
X-6330232Y9404688D01*
G37*
D24*
X-6349678Y10251449D03*
D25*
G36*
X-6683786Y9758242D02*
X-6842885Y9917341D01*
X-6015570Y10744656D01*
X-5856471Y10585557D01*
X-6683786Y9758242D01*
X-6683786Y9758242D01*
G37*
D24*
X-6703231Y10605002D03*
D25*
G36*
X-7037339Y10111795D02*
X-7196438Y10270894D01*
X-6369123Y11098209D01*
X-6210024Y10939110D01*
X-7037339Y10111795D01*
X-7037339Y10111795D01*
G37*
D24*
X-7056784Y10958555D03*
D25*
G36*
X-7390892Y10465348D02*
X-7549991Y10624447D01*
X-6722676Y11451762D01*
X-6563577Y11292663D01*
X-7390892Y10465348D01*
X-7390892Y10465348D01*
G37*
D24*
X-7410338Y11312109D03*
D25*
G36*
X-7744446Y10818902D02*
X-7903545Y10978001D01*
X-7076230Y11805316D01*
X-6917131Y11646217D01*
X-7744446Y10818902D01*
X-7744446Y10818902D01*
G37*
D24*
X-7763891Y11665662D03*
D25*
G36*
X-8097999Y11172455D02*
X-8257098Y11331554D01*
X-7429783Y12158869D01*
X-7270684Y11999770D01*
X-8097999Y11172455D01*
X-8097999Y11172455D01*
G37*
D24*
X-8117445Y12019216D03*
D25*
G36*
X-8451553Y11526009D02*
X-8610652Y11685108D01*
X-7783337Y12512423D01*
X-7624238Y12353324D01*
X-8451553Y11526009D01*
X-8451553Y11526009D01*
G37*
D24*
X-8470998Y12372769D03*
D25*
G36*
X-8805106Y11879562D02*
X-8964205Y12038661D01*
X-8136890Y12865976D01*
X-7977791Y12706877D01*
X-8805106Y11879562D01*
X-8805106Y11879562D01*
G37*
D24*
X-8824551Y12726322D03*
D25*
G36*
X-9158659Y12233115D02*
X-9317758Y12392214D01*
X-8490443Y13219529D01*
X-8331344Y13060430D01*
X-9158659Y12233115D01*
X-9158659Y12233115D01*
G37*
D24*
X-9178105Y13079876D03*
D25*
G36*
X-9512213Y12586669D02*
X-9671312Y12745768D01*
X-8843997Y13573083D01*
X-8684898Y13413984D01*
X-9512213Y12586669D01*
X-9512213Y12586669D01*
G37*
D24*
X-9531658Y13433429D03*
D25*
G36*
X-9865766Y12940222D02*
X-10024865Y13099321D01*
X-9197550Y13926636D01*
X-9038451Y13767537D01*
X-9865766Y12940222D01*
X-9865766Y12940222D01*
G37*
D24*
X-9531658Y15696171D03*
D25*
G36*
X-10024865Y16030279D02*
X-9865766Y16189378D01*
X-9038451Y15362063D01*
X-9197550Y15202964D01*
X-10024865Y16030279D01*
X-10024865Y16030279D01*
G37*
D24*
X-9178105Y16049724D03*
D25*
G36*
X-9671312Y16383832D02*
X-9512213Y16542931D01*
X-8684898Y15715616D01*
X-8843997Y15556517D01*
X-9671312Y16383832D01*
X-9671312Y16383832D01*
G37*
D24*
X-8824551Y16403278D03*
D25*
G36*
X-9317758Y16737386D02*
X-9158659Y16896485D01*
X-8331344Y16069170D01*
X-8490443Y15910071D01*
X-9317758Y16737386D01*
X-9317758Y16737386D01*
G37*
D24*
X-8470998Y16756831D03*
D25*
G36*
X-8964205Y17090939D02*
X-8805106Y17250038D01*
X-7977791Y16422723D01*
X-8136890Y16263624D01*
X-8964205Y17090939D01*
X-8964205Y17090939D01*
G37*
D24*
X-8117445Y17110384D03*
D25*
G36*
X-8610652Y17444492D02*
X-8451553Y17603591D01*
X-7624238Y16776276D01*
X-7783337Y16617177D01*
X-8610652Y17444492D01*
X-8610652Y17444492D01*
G37*
D24*
X-7763891Y17463938D03*
D25*
G36*
X-8257098Y17798046D02*
X-8097999Y17957145D01*
X-7270684Y17129830D01*
X-7429783Y16970731D01*
X-8257098Y17798046D01*
X-8257098Y17798046D01*
G37*
D24*
X-7410338Y17817491D03*
D25*
G36*
X-7903545Y18151599D02*
X-7744446Y18310698D01*
X-6917131Y17483383D01*
X-7076230Y17324284D01*
X-7903545Y18151599D01*
X-7903545Y18151599D01*
G37*
D24*
X-7056784Y18171045D03*
D25*
G36*
X-7549991Y18505153D02*
X-7390892Y18664252D01*
X-6563577Y17836937D01*
X-6722676Y17677838D01*
X-7549991Y18505153D01*
X-7549991Y18505153D01*
G37*
D24*
X-6703231Y18524598D03*
D25*
G36*
X-7196438Y18858706D02*
X-7037339Y19017805D01*
X-6210024Y18190490D01*
X-6369123Y18031391D01*
X-7196438Y18858706D01*
X-7196438Y18858706D01*
G37*
D24*
X-6349678Y18878151D03*
D25*
G36*
X-6842885Y19212259D02*
X-6683786Y19371358D01*
X-5856471Y18544043D01*
X-6015570Y18384944D01*
X-6842885Y19212259D01*
X-6842885Y19212259D01*
G37*
D24*
X-5996124Y19231705D03*
D25*
G36*
X-6489331Y19565813D02*
X-6330232Y19724912D01*
X-5502917Y18897597D01*
X-5662016Y18738498D01*
X-6489331Y19565813D01*
X-6489331Y19565813D01*
G37*
D24*
X-5642571Y19585258D03*
D25*
G36*
X-6135778Y19919366D02*
X-5976679Y20078465D01*
X-5149364Y19251150D01*
X-5308463Y19092051D01*
X-6135778Y19919366D01*
X-6135778Y19919366D01*
G37*
G04 #@! TD*
D13*
G04 #@! TO.C,R34*
X42781628Y-33713268D03*
X44481628Y-33713268D03*
G04 #@! TD*
G04 #@! TO.C,R34*
X2281628Y-33713268D03*
X3981628Y-33713268D03*
G04 #@! TD*
G04 #@! TO.C,R34*
X-38218372Y-33713268D03*
X-36518372Y-33713268D03*
G04 #@! TD*
G04 #@! TO.C,R34*
X42781628Y72286732D03*
X44481628Y72286732D03*
G04 #@! TD*
G04 #@! TO.C,R34*
X2281628Y72286732D03*
X3981628Y72286732D03*
G04 #@! TD*
G04 #@! TO.C,R30*
X42781628Y-35440468D03*
X44481628Y-35440468D03*
G04 #@! TD*
G04 #@! TO.C,R30*
X2281628Y-35440468D03*
X3981628Y-35440468D03*
G04 #@! TD*
G04 #@! TO.C,R30*
X-38218372Y-35440468D03*
X-36518372Y-35440468D03*
G04 #@! TD*
G04 #@! TO.C,R30*
X42781628Y70559532D03*
X44481628Y70559532D03*
G04 #@! TD*
G04 #@! TO.C,R30*
X2281628Y70559532D03*
X3981628Y70559532D03*
G04 #@! TD*
D10*
G04 #@! TO.C,R10*
X53286200Y-127249800D03*
X53286200Y-125549800D03*
G04 #@! TD*
G04 #@! TO.C,R10*
X12786200Y-127249800D03*
X12786200Y-125549800D03*
G04 #@! TD*
G04 #@! TO.C,R10*
X-27713800Y-127249800D03*
X-27713800Y-125549800D03*
G04 #@! TD*
G04 #@! TO.C,R10*
X53286200Y-21249800D03*
X53286200Y-19549800D03*
G04 #@! TD*
G04 #@! TO.C,R10*
X12786200Y-21249800D03*
X12786200Y-19549800D03*
G04 #@! TD*
D13*
G04 #@! TO.C,R22*
X42781628Y-40368068D03*
X44481628Y-40368068D03*
G04 #@! TD*
G04 #@! TO.C,R22*
X2281628Y-40368068D03*
X3981628Y-40368068D03*
G04 #@! TD*
G04 #@! TO.C,R22*
X-38218372Y-40368068D03*
X-36518372Y-40368068D03*
G04 #@! TD*
G04 #@! TO.C,R22*
X42781628Y65631932D03*
X44481628Y65631932D03*
G04 #@! TD*
G04 #@! TO.C,R22*
X2281628Y65631932D03*
X3981628Y65631932D03*
G04 #@! TD*
D10*
G04 #@! TO.C,R17*
X39900400Y-103283400D03*
X39900400Y-101583400D03*
G04 #@! TD*
G04 #@! TO.C,R17*
X-599600Y-103283400D03*
X-599600Y-101583400D03*
G04 #@! TD*
G04 #@! TO.C,R17*
X-41099600Y-103283400D03*
X-41099600Y-101583400D03*
G04 #@! TD*
G04 #@! TO.C,R17*
X39900400Y2716600D03*
X39900400Y4416600D03*
G04 #@! TD*
G04 #@! TO.C,R17*
X-599600Y2716600D03*
X-599600Y4416600D03*
G04 #@! TD*
G04 #@! TO.C,R32*
X44952428Y-57220068D03*
X44952428Y-55520068D03*
G04 #@! TD*
G04 #@! TO.C,R32*
X4452428Y-57220068D03*
X4452428Y-55520068D03*
G04 #@! TD*
G04 #@! TO.C,R32*
X-36047572Y-57220068D03*
X-36047572Y-55520068D03*
G04 #@! TD*
G04 #@! TO.C,R32*
X44952428Y48779932D03*
X44952428Y50479932D03*
G04 #@! TD*
G04 #@! TO.C,R32*
X4452428Y48779932D03*
X4452428Y50479932D03*
G04 #@! TD*
D26*
G04 #@! TO.C,Y1*
X35323283Y-83454483D03*
D25*
G36*
X34368689Y-83709041D02*
X35577841Y-82499889D01*
X36277877Y-83199925D01*
X35068725Y-84409077D01*
X34368689Y-83709041D01*
X34368689Y-83709041D01*
G37*
D26*
X33555517Y-81686717D03*
D25*
G36*
X32600923Y-81941275D02*
X33810075Y-80732123D01*
X34510111Y-81432159D01*
X33300959Y-82641311D01*
X32600923Y-81941275D01*
X32600923Y-81941275D01*
G37*
G04 #@! TD*
D26*
G04 #@! TO.C,Y1*
X-5176717Y-83454483D03*
D25*
G36*
X-6131311Y-83709041D02*
X-4922159Y-82499889D01*
X-4222123Y-83199925D01*
X-5431275Y-84409077D01*
X-6131311Y-83709041D01*
X-6131311Y-83709041D01*
G37*
D26*
X-6944483Y-81686717D03*
D25*
G36*
X-7899077Y-81941275D02*
X-6689925Y-80732123D01*
X-5989889Y-81432159D01*
X-7199041Y-82641311D01*
X-7899077Y-81941275D01*
X-7899077Y-81941275D01*
G37*
G04 #@! TD*
D26*
G04 #@! TO.C,Y1*
X-45676717Y-83454483D03*
D25*
G36*
X-46631311Y-83709041D02*
X-45422159Y-82499889D01*
X-44722123Y-83199925D01*
X-45931275Y-84409077D01*
X-46631311Y-83709041D01*
X-46631311Y-83709041D01*
G37*
D26*
X-47444483Y-81686717D03*
D25*
G36*
X-48399077Y-81941275D02*
X-47189925Y-80732123D01*
X-46489889Y-81432159D01*
X-47699041Y-82641311D01*
X-48399077Y-81941275D01*
X-48399077Y-81941275D01*
G37*
G04 #@! TD*
D26*
G04 #@! TO.C,Y1*
X35323283Y22545517D03*
D25*
G36*
X34368689Y22290959D02*
X35577841Y23500111D01*
X36277877Y22800075D01*
X35068725Y21590923D01*
X34368689Y22290959D01*
X34368689Y22290959D01*
G37*
D26*
X33555517Y24313283D03*
D25*
G36*
X32600923Y24058725D02*
X33810075Y25267877D01*
X34510111Y24567841D01*
X33300959Y23358689D01*
X32600923Y24058725D01*
X32600923Y24058725D01*
G37*
G04 #@! TD*
D26*
G04 #@! TO.C,Y1*
X-5176717Y22545517D03*
D25*
G36*
X-6131311Y22290959D02*
X-4922159Y23500111D01*
X-4222123Y22800075D01*
X-5431275Y21590923D01*
X-6131311Y22290959D01*
X-6131311Y22290959D01*
G37*
D26*
X-6944483Y24313283D03*
D25*
G36*
X-7899077Y24058725D02*
X-6689925Y25267877D01*
X-5989889Y24567841D01*
X-7199041Y23358689D01*
X-7899077Y24058725D01*
X-7899077Y24058725D01*
G37*
G04 #@! TD*
D10*
G04 #@! TO.C,R23*
X44952428Y-50440068D03*
X44952428Y-52140068D03*
G04 #@! TD*
G04 #@! TO.C,R23*
X4452428Y-50440068D03*
X4452428Y-52140068D03*
G04 #@! TD*
G04 #@! TO.C,R23*
X-36047572Y-50440068D03*
X-36047572Y-52140068D03*
G04 #@! TD*
G04 #@! TO.C,R23*
X44952428Y55559932D03*
X44952428Y53859932D03*
G04 #@! TD*
G04 #@! TO.C,R23*
X4452428Y55559932D03*
X4452428Y53859932D03*
G04 #@! TD*
D13*
G04 #@! TO.C,R11*
X23861200Y-69007000D03*
X25561200Y-69007000D03*
G04 #@! TD*
G04 #@! TO.C,R11*
X-16638800Y-69007000D03*
X-14938800Y-69007000D03*
G04 #@! TD*
G04 #@! TO.C,R11*
X-57138800Y-69007000D03*
X-55438800Y-69007000D03*
G04 #@! TD*
G04 #@! TO.C,R11*
X23861200Y36993000D03*
X25561200Y36993000D03*
G04 #@! TD*
G04 #@! TO.C,R11*
X-16638800Y36993000D03*
X-14938800Y36993000D03*
G04 #@! TD*
G04 #@! TO.C,R33*
X42781628Y-37066068D03*
X44481628Y-37066068D03*
G04 #@! TD*
G04 #@! TO.C,R33*
X2281628Y-37066068D03*
X3981628Y-37066068D03*
G04 #@! TD*
G04 #@! TO.C,R33*
X-38218372Y-37066068D03*
X-36518372Y-37066068D03*
G04 #@! TD*
G04 #@! TO.C,R33*
X42781628Y68933932D03*
X44481628Y68933932D03*
G04 #@! TD*
G04 #@! TO.C,R33*
X2281628Y68933932D03*
X3981628Y68933932D03*
G04 #@! TD*
G04 #@! TO.C,R9*
X44689200Y-89073000D03*
X46389200Y-89073000D03*
G04 #@! TD*
G04 #@! TO.C,R9*
X4189200Y-89073000D03*
X5889200Y-89073000D03*
G04 #@! TD*
G04 #@! TO.C,R9*
X-36310800Y-89073000D03*
X-34610800Y-89073000D03*
G04 #@! TD*
G04 #@! TO.C,R9*
X44689200Y16927000D03*
X46389200Y16927000D03*
G04 #@! TD*
G04 #@! TO.C,R9*
X4189200Y16927000D03*
X5889200Y16927000D03*
G04 #@! TD*
D27*
G04 #@! TO.C,U5*
X58187400Y-70085400D03*
X54887400Y-70085400D03*
X54887400Y-65185400D03*
X58187400Y-65185400D03*
G04 #@! TD*
G04 #@! TO.C,U5*
X17687400Y-70085400D03*
X14387400Y-70085400D03*
X14387400Y-65185400D03*
X17687400Y-65185400D03*
G04 #@! TD*
G04 #@! TO.C,U5*
X-22812600Y-70085400D03*
X-26112600Y-70085400D03*
X-26112600Y-65185400D03*
X-22812600Y-65185400D03*
G04 #@! TD*
G04 #@! TO.C,U5*
X58187400Y35914600D03*
X54887400Y35914600D03*
X54887400Y40814600D03*
X58187400Y40814600D03*
G04 #@! TD*
G04 #@! TO.C,U5*
X17687400Y35914600D03*
X14387400Y35914600D03*
X14387400Y40814600D03*
X17687400Y40814600D03*
G04 #@! TD*
D10*
G04 #@! TO.C,L2*
X27162300Y-84490100D03*
X27162300Y-86190100D03*
G04 #@! TD*
G04 #@! TO.C,L2*
X-13337700Y-84490100D03*
X-13337700Y-86190100D03*
G04 #@! TD*
G04 #@! TO.C,L2*
X-53837700Y-84490100D03*
X-53837700Y-86190100D03*
G04 #@! TD*
G04 #@! TO.C,L2*
X27162300Y21509900D03*
X27162300Y19809900D03*
G04 #@! TD*
G04 #@! TO.C,L2*
X-13337700Y21509900D03*
X-13337700Y19809900D03*
G04 #@! TD*
G04 #@! TO.C,R4*
X45196300Y-83282700D03*
X45196300Y-84982700D03*
G04 #@! TD*
G04 #@! TO.C,R4*
X4696300Y-83282700D03*
X4696300Y-84982700D03*
G04 #@! TD*
G04 #@! TO.C,R4*
X-35803700Y-83282700D03*
X-35803700Y-84982700D03*
G04 #@! TD*
G04 #@! TO.C,R4*
X45196300Y22717300D03*
X45196300Y21017300D03*
G04 #@! TD*
G04 #@! TO.C,R4*
X4696300Y22717300D03*
X4696300Y21017300D03*
G04 #@! TD*
D13*
G04 #@! TO.C,L1*
X40631208Y-125929317D03*
X38931208Y-125929317D03*
G04 #@! TD*
G04 #@! TO.C,L1*
X131208Y-125929317D03*
X-1568792Y-125929317D03*
G04 #@! TD*
G04 #@! TO.C,L1*
X-40368792Y-125929317D03*
X-42068792Y-125929317D03*
G04 #@! TD*
G04 #@! TO.C,L1*
X40631208Y-19929317D03*
X38931208Y-19929317D03*
G04 #@! TD*
G04 #@! TO.C,L1*
X131208Y-19929317D03*
X-1568792Y-19929317D03*
G04 #@! TD*
G04 #@! TO.C,R8*
X46389200Y-90647800D03*
X44689200Y-90647800D03*
G04 #@! TD*
G04 #@! TO.C,R8*
X5889200Y-90647800D03*
X4189200Y-90647800D03*
G04 #@! TD*
G04 #@! TO.C,R8*
X-34610800Y-90647800D03*
X-36310800Y-90647800D03*
G04 #@! TD*
G04 #@! TO.C,R8*
X46389200Y15352200D03*
X44689200Y15352200D03*
G04 #@! TD*
G04 #@! TO.C,R8*
X5889200Y15352200D03*
X4189200Y15352200D03*
G04 #@! TD*
D28*
G04 #@! TO.C,F1*
X43438808Y-124287762D03*
X43438808Y-126487762D03*
G04 #@! TD*
G04 #@! TO.C,F1*
X2938808Y-124287762D03*
X2938808Y-126487762D03*
G04 #@! TD*
G04 #@! TO.C,F1*
X-37561192Y-124287762D03*
X-37561192Y-126487762D03*
G04 #@! TD*
G04 #@! TO.C,F1*
X43438808Y-18287762D03*
X43438808Y-20487762D03*
G04 #@! TD*
G04 #@! TO.C,F1*
X2938808Y-18287762D03*
X2938808Y-20487762D03*
G04 #@! TD*
D29*
G04 #@! TO.C,Q4*
X38051670Y-102400280D03*
X35751670Y-103350280D03*
X35751670Y-101450280D03*
G04 #@! TD*
G04 #@! TO.C,Q4*
X-2448330Y-102400280D03*
X-4748330Y-103350280D03*
X-4748330Y-101450280D03*
G04 #@! TD*
G04 #@! TO.C,Q4*
X-42948330Y-102400280D03*
X-45248330Y-103350280D03*
X-45248330Y-101450280D03*
G04 #@! TD*
G04 #@! TO.C,Q4*
X38051670Y3599720D03*
X35751670Y2649720D03*
X35751670Y4549720D03*
G04 #@! TD*
G04 #@! TO.C,Q4*
X-2448330Y3599720D03*
X-4748330Y2649720D03*
X-4748330Y4549720D03*
G04 #@! TD*
D10*
G04 #@! TO.C,R2*
X43608800Y-83282700D03*
X43608800Y-84982700D03*
G04 #@! TD*
G04 #@! TO.C,R2*
X3108800Y-83282700D03*
X3108800Y-84982700D03*
G04 #@! TD*
G04 #@! TO.C,R2*
X-37391200Y-83282700D03*
X-37391200Y-84982700D03*
G04 #@! TD*
G04 #@! TO.C,R2*
X43608800Y22717300D03*
X43608800Y21017300D03*
G04 #@! TD*
G04 #@! TO.C,R2*
X3108800Y22717300D03*
X3108800Y21017300D03*
G04 #@! TD*
G04 #@! TO.C,R7*
X45209000Y-100387800D03*
X45209000Y-98687800D03*
G04 #@! TD*
G04 #@! TO.C,R7*
X4709000Y-100387800D03*
X4709000Y-98687800D03*
G04 #@! TD*
G04 #@! TO.C,R7*
X-35791000Y-100387800D03*
X-35791000Y-98687800D03*
G04 #@! TD*
G04 #@! TO.C,R7*
X45209000Y5612200D03*
X45209000Y7312200D03*
G04 #@! TD*
G04 #@! TO.C,R7*
X4709000Y5612200D03*
X4709000Y7312200D03*
G04 #@! TD*
G04 #@! TO.C,R6*
X43583400Y-100362400D03*
X43583400Y-98662400D03*
G04 #@! TD*
G04 #@! TO.C,R6*
X3083400Y-100362400D03*
X3083400Y-98662400D03*
G04 #@! TD*
G04 #@! TO.C,R6*
X-37416600Y-100362400D03*
X-37416600Y-98662400D03*
G04 #@! TD*
G04 #@! TO.C,R6*
X43583400Y5637600D03*
X43583400Y7337600D03*
G04 #@! TD*
G04 #@! TO.C,R6*
X3083400Y5637600D03*
X3083400Y7337600D03*
G04 #@! TD*
D30*
G04 #@! TO.C,D4*
X49547400Y-119197400D03*
X47647400Y-119197400D03*
X47647400Y-117197400D03*
D31*
X49347400Y-117197400D03*
G04 #@! TD*
D30*
G04 #@! TO.C,D4*
X9047400Y-119197400D03*
X7147400Y-119197400D03*
X7147400Y-117197400D03*
D31*
X8847400Y-117197400D03*
G04 #@! TD*
D30*
G04 #@! TO.C,D4*
X-31452600Y-119197400D03*
X-33352600Y-119197400D03*
X-33352600Y-117197400D03*
D31*
X-31652600Y-117197400D03*
G04 #@! TD*
D30*
G04 #@! TO.C,D4*
X49547400Y-13197400D03*
X47647400Y-13197400D03*
X47647400Y-11197400D03*
D31*
X49347400Y-11197400D03*
G04 #@! TD*
D30*
G04 #@! TO.C,D4*
X9047400Y-13197400D03*
X7147400Y-13197400D03*
X7147400Y-11197400D03*
D31*
X8847400Y-11197400D03*
G04 #@! TD*
D10*
G04 #@! TO.C,C6*
X31924800Y-83981200D03*
X31924800Y-85681200D03*
G04 #@! TD*
G04 #@! TO.C,C6*
X-8575200Y-83981200D03*
X-8575200Y-85681200D03*
G04 #@! TD*
G04 #@! TO.C,C6*
X-49075200Y-83981200D03*
X-49075200Y-85681200D03*
G04 #@! TD*
G04 #@! TO.C,C6*
X31924800Y22018800D03*
X31924800Y20318800D03*
G04 #@! TD*
G04 #@! TO.C,C6*
X-8575200Y22018800D03*
X-8575200Y20318800D03*
G04 #@! TD*
D13*
G04 #@! TO.C,C15*
X35797400Y-63063400D03*
X34097400Y-63063400D03*
G04 #@! TD*
G04 #@! TO.C,C15*
X-4702600Y-63063400D03*
X-6402600Y-63063400D03*
G04 #@! TD*
G04 #@! TO.C,C15*
X-45202600Y-63063400D03*
X-46902600Y-63063400D03*
G04 #@! TD*
G04 #@! TO.C,C15*
X35797400Y42936600D03*
X34097400Y42936600D03*
G04 #@! TD*
G04 #@! TO.C,C15*
X-4702600Y42936600D03*
X-6402600Y42936600D03*
G04 #@! TD*
D10*
G04 #@! TO.C,C9*
X36936408Y-124220262D03*
X36936408Y-125920262D03*
G04 #@! TD*
G04 #@! TO.C,C9*
X-3563592Y-124220262D03*
X-3563592Y-125920262D03*
G04 #@! TD*
G04 #@! TO.C,C9*
X-44063592Y-124220262D03*
X-44063592Y-125920262D03*
G04 #@! TD*
G04 #@! TO.C,C9*
X36936408Y-18220262D03*
X36936408Y-19920262D03*
G04 #@! TD*
G04 #@! TO.C,C9*
X-3563592Y-18220262D03*
X-3563592Y-19920262D03*
G04 #@! TD*
G04 #@! TO.C,C18*
X26857500Y-78073900D03*
X26857500Y-76373900D03*
G04 #@! TD*
G04 #@! TO.C,C18*
X-13642500Y-78073900D03*
X-13642500Y-76373900D03*
G04 #@! TD*
G04 #@! TO.C,C18*
X-54142500Y-78073900D03*
X-54142500Y-76373900D03*
G04 #@! TD*
G04 #@! TO.C,C18*
X26857500Y27926100D03*
X26857500Y29626100D03*
G04 #@! TD*
G04 #@! TO.C,C18*
X-13642500Y27926100D03*
X-13642500Y29626100D03*
G04 #@! TD*
D13*
G04 #@! TO.C,C13*
X29017400Y-63063400D03*
X30717400Y-63063400D03*
G04 #@! TD*
G04 #@! TO.C,C13*
X-11482600Y-63063400D03*
X-9782600Y-63063400D03*
G04 #@! TD*
G04 #@! TO.C,C13*
X-51982600Y-63063400D03*
X-50282600Y-63063400D03*
G04 #@! TD*
G04 #@! TO.C,C13*
X29017400Y42936600D03*
X30717400Y42936600D03*
G04 #@! TD*
G04 #@! TO.C,C13*
X-11482600Y42936600D03*
X-9782600Y42936600D03*
G04 #@! TD*
D10*
G04 #@! TO.C,C3*
X39328900Y-83358900D03*
X39328900Y-85058900D03*
G04 #@! TD*
G04 #@! TO.C,C3*
X-1171100Y-83358900D03*
X-1171100Y-85058900D03*
G04 #@! TD*
G04 #@! TO.C,C3*
X-41671100Y-83358900D03*
X-41671100Y-85058900D03*
G04 #@! TD*
G04 #@! TO.C,C3*
X39328900Y22641100D03*
X39328900Y20941100D03*
G04 #@! TD*
G04 #@! TO.C,C3*
X-1171100Y22641100D03*
X-1171100Y20941100D03*
G04 #@! TD*
G04 #@! TO.C,C8*
X30883400Y-97861400D03*
X30883400Y-96161400D03*
G04 #@! TD*
G04 #@! TO.C,C8*
X-9616600Y-97861400D03*
X-9616600Y-96161400D03*
G04 #@! TD*
G04 #@! TO.C,C8*
X-50116600Y-97861400D03*
X-50116600Y-96161400D03*
G04 #@! TD*
G04 #@! TO.C,C8*
X30883400Y8138600D03*
X30883400Y9838600D03*
G04 #@! TD*
G04 #@! TO.C,C8*
X-9616600Y8138600D03*
X-9616600Y9838600D03*
G04 #@! TD*
G04 #@! TO.C,C14*
X30350000Y-83981200D03*
X30350000Y-85681200D03*
G04 #@! TD*
G04 #@! TO.C,C14*
X-10150000Y-83981200D03*
X-10150000Y-85681200D03*
G04 #@! TD*
G04 #@! TO.C,C14*
X-50650000Y-83981200D03*
X-50650000Y-85681200D03*
G04 #@! TD*
G04 #@! TO.C,C14*
X30350000Y22018800D03*
X30350000Y20318800D03*
G04 #@! TD*
G04 #@! TO.C,C14*
X-10150000Y22018800D03*
X-10150000Y20318800D03*
G04 #@! TD*
D11*
G04 #@! TO.C,J2*
X56667400Y-111609400D03*
X56667400Y-102909400D03*
D12*
X53317400Y-109759400D03*
X53317400Y-108509400D03*
X53317400Y-107259400D03*
X53317400Y-106009400D03*
X53317400Y-104759400D03*
G04 #@! TD*
D11*
G04 #@! TO.C,J2*
X16167400Y-111609400D03*
X16167400Y-102909400D03*
D12*
X12817400Y-109759400D03*
X12817400Y-108509400D03*
X12817400Y-107259400D03*
X12817400Y-106009400D03*
X12817400Y-104759400D03*
G04 #@! TD*
D11*
G04 #@! TO.C,J2*
X-24332600Y-111609400D03*
X-24332600Y-102909400D03*
D12*
X-27682600Y-109759400D03*
X-27682600Y-108509400D03*
X-27682600Y-107259400D03*
X-27682600Y-106009400D03*
X-27682600Y-104759400D03*
G04 #@! TD*
D11*
G04 #@! TO.C,J2*
X56667400Y-5609400D03*
X56667400Y3090600D03*
D12*
X53317400Y-3759400D03*
X53317400Y-2509400D03*
X53317400Y-1259400D03*
X53317400Y-9400D03*
X53317400Y1240600D03*
G04 #@! TD*
D11*
G04 #@! TO.C,J2*
X16167400Y-5609400D03*
X16167400Y3090600D03*
D12*
X12817400Y-3759400D03*
X12817400Y-2509400D03*
X12817400Y-1259400D03*
X12817400Y-9400D03*
X12817400Y1240600D03*
G04 #@! TD*
D10*
G04 #@! TO.C,C12*
X36969915Y-120083261D03*
X36969915Y-118383261D03*
G04 #@! TD*
G04 #@! TO.C,C12*
X-3530085Y-120083261D03*
X-3530085Y-118383261D03*
G04 #@! TD*
G04 #@! TO.C,C12*
X-44030085Y-120083261D03*
X-44030085Y-118383261D03*
G04 #@! TD*
G04 #@! TO.C,C12*
X36969915Y-14083261D03*
X36969915Y-12383261D03*
G04 #@! TD*
G04 #@! TO.C,C12*
X-3530085Y-14083261D03*
X-3530085Y-12383261D03*
G04 #@! TD*
D13*
G04 #@! TO.C,C11*
X38931208Y-124282862D03*
X40631208Y-124282862D03*
G04 #@! TD*
G04 #@! TO.C,C11*
X-1568792Y-124282862D03*
X131208Y-124282862D03*
G04 #@! TD*
G04 #@! TO.C,C11*
X-42068792Y-124282862D03*
X-40368792Y-124282862D03*
G04 #@! TD*
G04 #@! TO.C,C11*
X38931208Y-18282862D03*
X40631208Y-18282862D03*
G04 #@! TD*
G04 #@! TO.C,C11*
X-1568792Y-18282862D03*
X131208Y-18282862D03*
G04 #@! TD*
G04 #@! TO.C,C7*
X44763600Y-93822800D03*
X43063600Y-93822800D03*
G04 #@! TD*
G04 #@! TO.C,C7*
X4263600Y-93822800D03*
X2563600Y-93822800D03*
G04 #@! TD*
G04 #@! TO.C,C7*
X-36236400Y-93822800D03*
X-37936400Y-93822800D03*
G04 #@! TD*
G04 #@! TO.C,C7*
X44763600Y12177200D03*
X43063600Y12177200D03*
G04 #@! TD*
G04 #@! TO.C,C7*
X4263600Y12177200D03*
X2563600Y12177200D03*
G04 #@! TD*
D10*
G04 #@! TO.C,C4*
X28762500Y-84491700D03*
X28762500Y-86191700D03*
G04 #@! TD*
G04 #@! TO.C,C4*
X-11737500Y-84491700D03*
X-11737500Y-86191700D03*
G04 #@! TD*
G04 #@! TO.C,C4*
X-52237500Y-84491700D03*
X-52237500Y-86191700D03*
G04 #@! TD*
G04 #@! TO.C,C4*
X28762500Y21508300D03*
X28762500Y19808300D03*
G04 #@! TD*
G04 #@! TO.C,C4*
X-11737500Y21508300D03*
X-11737500Y19808300D03*
G04 #@! TD*
G04 #@! TO.C,C10*
X51647900Y-127247400D03*
X51647900Y-125547400D03*
G04 #@! TD*
G04 #@! TO.C,C10*
X11147900Y-127247400D03*
X11147900Y-125547400D03*
G04 #@! TD*
G04 #@! TO.C,C10*
X-29352100Y-127247400D03*
X-29352100Y-125547400D03*
G04 #@! TD*
G04 #@! TO.C,C10*
X51647900Y-21247400D03*
X51647900Y-19547400D03*
G04 #@! TD*
G04 #@! TO.C,C10*
X11147900Y-21247400D03*
X11147900Y-19547400D03*
G04 #@! TD*
G04 #@! TO.C,C5*
X40941800Y-83371600D03*
X40941800Y-85071600D03*
G04 #@! TD*
G04 #@! TO.C,C5*
X441800Y-83371600D03*
X441800Y-85071600D03*
G04 #@! TD*
G04 #@! TO.C,C5*
X-40058200Y-83371600D03*
X-40058200Y-85071600D03*
G04 #@! TD*
G04 #@! TO.C,C5*
X40941800Y22628400D03*
X40941800Y20928400D03*
G04 #@! TD*
G04 #@! TO.C,C5*
X441800Y22628400D03*
X441800Y20928400D03*
G04 #@! TD*
D32*
G04 #@! TO.C,C1*
X35921159Y-80657041D03*
D25*
G36*
X35952979Y-79988825D02*
X36589375Y-80625221D01*
X35889339Y-81325257D01*
X35252943Y-80688861D01*
X35952979Y-79988825D01*
X35952979Y-79988825D01*
G37*
D32*
X37123241Y-79454959D03*
D25*
G36*
X37155061Y-78786743D02*
X37791457Y-79423139D01*
X37091421Y-80123175D01*
X36455025Y-79486779D01*
X37155061Y-78786743D01*
X37155061Y-78786743D01*
G37*
G04 #@! TD*
D32*
G04 #@! TO.C,C1*
X-4578841Y-80657041D03*
D25*
G36*
X-4547021Y-79988825D02*
X-3910625Y-80625221D01*
X-4610661Y-81325257D01*
X-5247057Y-80688861D01*
X-4547021Y-79988825D01*
X-4547021Y-79988825D01*
G37*
D32*
X-3376759Y-79454959D03*
D25*
G36*
X-3344939Y-78786743D02*
X-2708543Y-79423139D01*
X-3408579Y-80123175D01*
X-4044975Y-79486779D01*
X-3344939Y-78786743D01*
X-3344939Y-78786743D01*
G37*
G04 #@! TD*
D32*
G04 #@! TO.C,C1*
X-45078841Y-80657041D03*
D25*
G36*
X-45047021Y-79988825D02*
X-44410625Y-80625221D01*
X-45110661Y-81325257D01*
X-45747057Y-80688861D01*
X-45047021Y-79988825D01*
X-45047021Y-79988825D01*
G37*
D32*
X-43876759Y-79454959D03*
D25*
G36*
X-43844939Y-78786743D02*
X-43208543Y-79423139D01*
X-43908579Y-80123175D01*
X-44544975Y-79486779D01*
X-43844939Y-78786743D01*
X-43844939Y-78786743D01*
G37*
G04 #@! TD*
D32*
G04 #@! TO.C,C1*
X35921159Y25342959D03*
D25*
G36*
X35952979Y26011175D02*
X36589375Y25374779D01*
X35889339Y24674743D01*
X35252943Y25311139D01*
X35952979Y26011175D01*
X35952979Y26011175D01*
G37*
D32*
X37123241Y26545041D03*
D25*
G36*
X37155061Y27213257D02*
X37791457Y26576861D01*
X37091421Y25876825D01*
X36455025Y26513221D01*
X37155061Y27213257D01*
X37155061Y27213257D01*
G37*
G04 #@! TD*
D32*
G04 #@! TO.C,C1*
X-4578841Y25342959D03*
D25*
G36*
X-4547021Y26011175D02*
X-3910625Y25374779D01*
X-4610661Y24674743D01*
X-5247057Y25311139D01*
X-4547021Y26011175D01*
X-4547021Y26011175D01*
G37*
D32*
X-3376759Y26545041D03*
D25*
G36*
X-3344939Y27213257D02*
X-2708543Y26576861D01*
X-3408579Y25876825D01*
X-4044975Y26513221D01*
X-3344939Y27213257D01*
X-3344939Y27213257D01*
G37*
G04 #@! TD*
D10*
G04 #@! TO.C,D5*
X41631416Y-101583400D03*
X41631416Y-103283400D03*
G04 #@! TD*
G04 #@! TO.C,D5*
X1131416Y-101583400D03*
X1131416Y-103283400D03*
G04 #@! TD*
G04 #@! TO.C,D5*
X-39368584Y-101583400D03*
X-39368584Y-103283400D03*
G04 #@! TD*
G04 #@! TO.C,D5*
X41631416Y4416600D03*
X41631416Y2716600D03*
G04 #@! TD*
G04 #@! TO.C,D5*
X1131416Y4416600D03*
X1131416Y2716600D03*
G04 #@! TD*
D33*
G04 #@! TO.C,D8*
X37484828Y-35288068D03*
X40329628Y-35288068D03*
G04 #@! TD*
G04 #@! TO.C,D8*
X-3015172Y-35288068D03*
X-170372Y-35288068D03*
G04 #@! TD*
G04 #@! TO.C,D8*
X-43515172Y-35288068D03*
X-40670372Y-35288068D03*
G04 #@! TD*
G04 #@! TO.C,D8*
X37484828Y70711932D03*
X40329628Y70711932D03*
G04 #@! TD*
G04 #@! TO.C,D8*
X-3015172Y70711932D03*
X-170372Y70711932D03*
G04 #@! TD*
G04 #@! TO.C,D10*
X40329428Y-40012468D03*
X37484628Y-40012468D03*
G04 #@! TD*
G04 #@! TO.C,D10*
X-170572Y-40012468D03*
X-3015372Y-40012468D03*
G04 #@! TD*
G04 #@! TO.C,D10*
X-40670572Y-40012468D03*
X-43515372Y-40012468D03*
G04 #@! TD*
G04 #@! TO.C,D10*
X40329428Y65987532D03*
X37484628Y65987532D03*
G04 #@! TD*
G04 #@! TO.C,D10*
X-170572Y65987532D03*
X-3015372Y65987532D03*
G04 #@! TD*
D13*
G04 #@! TO.C,R1*
X27493400Y-110815400D03*
X29193400Y-110815400D03*
G04 #@! TD*
G04 #@! TO.C,R1*
X-13006600Y-110815400D03*
X-11306600Y-110815400D03*
G04 #@! TD*
G04 #@! TO.C,R1*
X-53506600Y-110815400D03*
X-51806600Y-110815400D03*
G04 #@! TD*
G04 #@! TO.C,R1*
X27493400Y-4815400D03*
X29193400Y-4815400D03*
G04 #@! TD*
G04 #@! TO.C,R1*
X-13006600Y-4815400D03*
X-11306600Y-4815400D03*
G04 #@! TD*
D34*
G04 #@! TO.C,Y2*
X30904964Y-118205878D03*
X33404964Y-118205878D03*
G04 #@! TD*
G04 #@! TO.C,Y2*
X-9595036Y-118205878D03*
X-7095036Y-118205878D03*
G04 #@! TD*
G04 #@! TO.C,Y2*
X-50095036Y-118205878D03*
X-47595036Y-118205878D03*
G04 #@! TD*
G04 #@! TO.C,Y2*
X30904964Y-12205878D03*
X33404964Y-12205878D03*
G04 #@! TD*
G04 #@! TO.C,Y2*
X-9595036Y-12205878D03*
X-7095036Y-12205878D03*
G04 #@! TD*
D13*
G04 #@! TO.C,C19*
X29193400Y-112593400D03*
X27493400Y-112593400D03*
G04 #@! TD*
G04 #@! TO.C,C19*
X-11306600Y-112593400D03*
X-13006600Y-112593400D03*
G04 #@! TD*
G04 #@! TO.C,C19*
X-51806600Y-112593400D03*
X-53506600Y-112593400D03*
G04 #@! TD*
G04 #@! TO.C,C19*
X29193400Y-6593400D03*
X27493400Y-6593400D03*
G04 #@! TD*
G04 #@! TO.C,C19*
X-11306600Y-6593400D03*
X-13006600Y-6593400D03*
G04 #@! TD*
D33*
G04 #@! TO.C,D9*
X41853628Y-31630468D03*
X44698428Y-31630468D03*
G04 #@! TD*
G04 #@! TO.C,D9*
X1353628Y-31630468D03*
X4198428Y-31630468D03*
G04 #@! TD*
G04 #@! TO.C,D9*
X-39146372Y-31630468D03*
X-36301572Y-31630468D03*
G04 #@! TD*
G04 #@! TO.C,D9*
X41853628Y74369532D03*
X44698428Y74369532D03*
G04 #@! TD*
G04 #@! TO.C,D9*
X1353628Y74369532D03*
X4198428Y74369532D03*
G04 #@! TD*
D13*
G04 #@! TO.C,R5*
X36383400Y-65857400D03*
X38083400Y-65857400D03*
G04 #@! TD*
G04 #@! TO.C,R5*
X-4116600Y-65857400D03*
X-2416600Y-65857400D03*
G04 #@! TD*
G04 #@! TO.C,R5*
X-44616600Y-65857400D03*
X-42916600Y-65857400D03*
G04 #@! TD*
G04 #@! TO.C,R5*
X36383400Y40142600D03*
X38083400Y40142600D03*
G04 #@! TD*
G04 #@! TO.C,R5*
X-4116600Y40142600D03*
X-2416600Y40142600D03*
G04 #@! TD*
G04 #@! TO.C,R3*
X50834200Y-114269800D03*
X49134200Y-114269800D03*
G04 #@! TD*
G04 #@! TO.C,R3*
X10334200Y-114269800D03*
X8634200Y-114269800D03*
G04 #@! TD*
G04 #@! TO.C,R3*
X-30165800Y-114269800D03*
X-31865800Y-114269800D03*
G04 #@! TD*
G04 #@! TO.C,R3*
X50834200Y-8269800D03*
X49134200Y-8269800D03*
G04 #@! TD*
G04 #@! TO.C,R3*
X10334200Y-8269800D03*
X8634200Y-8269800D03*
G04 #@! TD*
D35*
G04 #@! TO.C,U4*
X29740800Y-73845700D03*
X29740800Y-75115700D03*
X29740800Y-76385700D03*
X29740800Y-77655700D03*
X36140800Y-77655700D03*
X36140800Y-76385700D03*
X36140800Y-75115700D03*
X36140800Y-73845700D03*
G04 #@! TD*
G04 #@! TO.C,U4*
X-10759200Y-73845700D03*
X-10759200Y-75115700D03*
X-10759200Y-76385700D03*
X-10759200Y-77655700D03*
X-4359200Y-77655700D03*
X-4359200Y-76385700D03*
X-4359200Y-75115700D03*
X-4359200Y-73845700D03*
G04 #@! TD*
G04 #@! TO.C,U4*
X-51259200Y-73845700D03*
X-51259200Y-75115700D03*
X-51259200Y-76385700D03*
X-51259200Y-77655700D03*
X-44859200Y-77655700D03*
X-44859200Y-76385700D03*
X-44859200Y-75115700D03*
X-44859200Y-73845700D03*
G04 #@! TD*
G04 #@! TO.C,U4*
X29740800Y32154300D03*
X29740800Y30884300D03*
X29740800Y29614300D03*
X29740800Y28344300D03*
X36140800Y28344300D03*
X36140800Y29614300D03*
X36140800Y30884300D03*
X36140800Y32154300D03*
G04 #@! TD*
G04 #@! TO.C,U4*
X-10759200Y32154300D03*
X-10759200Y30884300D03*
X-10759200Y29614300D03*
X-10759200Y28344300D03*
X-4359200Y28344300D03*
X-4359200Y29614300D03*
X-4359200Y30884300D03*
X-4359200Y32154300D03*
G04 #@! TD*
D33*
G04 #@! TO.C,D11*
X37484828Y-37574068D03*
X40329628Y-37574068D03*
G04 #@! TD*
G04 #@! TO.C,D11*
X-3015172Y-37574068D03*
X-170372Y-37574068D03*
G04 #@! TD*
G04 #@! TO.C,D11*
X-43515172Y-37574068D03*
X-40670372Y-37574068D03*
G04 #@! TD*
G04 #@! TO.C,D11*
X37484828Y68425932D03*
X40329628Y68425932D03*
G04 #@! TD*
G04 #@! TO.C,D11*
X-3015172Y68425932D03*
X-170372Y68425932D03*
G04 #@! TD*
D36*
G04 #@! TO.C,D6*
X42666428Y-52712468D03*
X42666428Y-49867668D03*
G04 #@! TD*
G04 #@! TO.C,D6*
X2166428Y-52712468D03*
X2166428Y-49867668D03*
G04 #@! TD*
G04 #@! TO.C,D6*
X-38333572Y-52712468D03*
X-38333572Y-49867668D03*
G04 #@! TD*
G04 #@! TO.C,D6*
X42666428Y53287532D03*
X42666428Y56132332D03*
G04 #@! TD*
G04 #@! TO.C,D6*
X2166428Y53287532D03*
X2166428Y56132332D03*
G04 #@! TD*
G04 #@! TO.C,D7*
X42666428Y-55100068D03*
X42666428Y-57944868D03*
G04 #@! TD*
G04 #@! TO.C,D7*
X2166428Y-55100068D03*
X2166428Y-57944868D03*
G04 #@! TD*
G04 #@! TO.C,D7*
X-38333572Y-55100068D03*
X-38333572Y-57944868D03*
G04 #@! TD*
G04 #@! TO.C,D7*
X42666428Y50899932D03*
X42666428Y48055132D03*
G04 #@! TD*
G04 #@! TO.C,D7*
X2166428Y50899932D03*
X2166428Y48055132D03*
G04 #@! TD*
D13*
G04 #@! TO.C,C17*
X33278964Y-107410878D03*
X31578964Y-107410878D03*
G04 #@! TD*
G04 #@! TO.C,C17*
X-7221036Y-107410878D03*
X-8921036Y-107410878D03*
G04 #@! TD*
G04 #@! TO.C,C17*
X-47721036Y-107410878D03*
X-49421036Y-107410878D03*
G04 #@! TD*
G04 #@! TO.C,C17*
X33278964Y-1410878D03*
X31578964Y-1410878D03*
G04 #@! TD*
G04 #@! TO.C,C17*
X-7221036Y-1410878D03*
X-8921036Y-1410878D03*
G04 #@! TD*
D11*
G04 #@! TO.C,J7*
X48412400Y-111609400D03*
X48412400Y-102909400D03*
D12*
X45062400Y-109759400D03*
X45062400Y-108509400D03*
X45062400Y-107259400D03*
X45062400Y-106009400D03*
X45062400Y-104759400D03*
G04 #@! TD*
D11*
G04 #@! TO.C,J7*
X7912400Y-111609400D03*
X7912400Y-102909400D03*
D12*
X4562400Y-109759400D03*
X4562400Y-108509400D03*
X4562400Y-107259400D03*
X4562400Y-106009400D03*
X4562400Y-104759400D03*
G04 #@! TD*
D11*
G04 #@! TO.C,J7*
X-32587600Y-111609400D03*
X-32587600Y-102909400D03*
D12*
X-35937600Y-109759400D03*
X-35937600Y-108509400D03*
X-35937600Y-107259400D03*
X-35937600Y-106009400D03*
X-35937600Y-104759400D03*
G04 #@! TD*
D11*
G04 #@! TO.C,J7*
X48412400Y-5609400D03*
X48412400Y3090600D03*
D12*
X45062400Y-3759400D03*
X45062400Y-2509400D03*
X45062400Y-1259400D03*
X45062400Y-9400D03*
X45062400Y1240600D03*
G04 #@! TD*
D11*
G04 #@! TO.C,J7*
X7912400Y-5609400D03*
X7912400Y3090600D03*
D12*
X4562400Y-3759400D03*
X4562400Y-2509400D03*
X4562400Y-1259400D03*
X4562400Y-9400D03*
X4562400Y1240600D03*
G04 #@! TD*
D13*
G04 #@! TO.C,R18*
X30135000Y-100096600D03*
X31835000Y-100096600D03*
G04 #@! TD*
G04 #@! TO.C,R18*
X-10365000Y-100096600D03*
X-8665000Y-100096600D03*
G04 #@! TD*
G04 #@! TO.C,R18*
X-50865000Y-100096600D03*
X-49165000Y-100096600D03*
G04 #@! TD*
G04 #@! TO.C,R18*
X30135000Y5903400D03*
X31835000Y5903400D03*
G04 #@! TD*
G04 #@! TO.C,R18*
X-10365000Y5903400D03*
X-8665000Y5903400D03*
G04 #@! TD*
G04 #@! TO.C,R20*
X39023200Y-113177600D03*
X37323200Y-113177600D03*
G04 #@! TD*
G04 #@! TO.C,R20*
X-1476800Y-113177600D03*
X-3176800Y-113177600D03*
G04 #@! TD*
G04 #@! TO.C,R20*
X-41976800Y-113177600D03*
X-43676800Y-113177600D03*
G04 #@! TD*
G04 #@! TO.C,R20*
X39023200Y-7177600D03*
X37323200Y-7177600D03*
G04 #@! TD*
G04 #@! TO.C,R20*
X-1476800Y-7177600D03*
X-3176800Y-7177600D03*
G04 #@! TD*
G04 #@! TO.C,R19*
X37323200Y-111602800D03*
X39023200Y-111602800D03*
G04 #@! TD*
G04 #@! TO.C,R19*
X-3176800Y-111602800D03*
X-1476800Y-111602800D03*
G04 #@! TD*
G04 #@! TO.C,R19*
X-43676800Y-111602800D03*
X-41976800Y-111602800D03*
G04 #@! TD*
G04 #@! TO.C,R19*
X37323200Y-5602800D03*
X39023200Y-5602800D03*
G04 #@! TD*
G04 #@! TO.C,R19*
X-3176800Y-5602800D03*
X-1476800Y-5602800D03*
G04 #@! TD*
D32*
G04 #@! TO.C,C2*
X37140359Y-81774641D03*
D25*
G36*
X37172179Y-81106425D02*
X37808575Y-81742821D01*
X37108539Y-82442857D01*
X36472143Y-81806461D01*
X37172179Y-81106425D01*
X37172179Y-81106425D01*
G37*
D32*
X38342441Y-80572559D03*
D25*
G36*
X38374261Y-79904343D02*
X39010657Y-80540739D01*
X38310621Y-81240775D01*
X37674225Y-80604379D01*
X38374261Y-79904343D01*
X38374261Y-79904343D01*
G37*
G04 #@! TD*
D32*
G04 #@! TO.C,C2*
X-3359641Y-81774641D03*
D25*
G36*
X-3327821Y-81106425D02*
X-2691425Y-81742821D01*
X-3391461Y-82442857D01*
X-4027857Y-81806461D01*
X-3327821Y-81106425D01*
X-3327821Y-81106425D01*
G37*
D32*
X-2157559Y-80572559D03*
D25*
G36*
X-2125739Y-79904343D02*
X-1489343Y-80540739D01*
X-2189379Y-81240775D01*
X-2825775Y-80604379D01*
X-2125739Y-79904343D01*
X-2125739Y-79904343D01*
G37*
G04 #@! TD*
D32*
G04 #@! TO.C,C2*
X-43859641Y-81774641D03*
D25*
G36*
X-43827821Y-81106425D02*
X-43191425Y-81742821D01*
X-43891461Y-82442857D01*
X-44527857Y-81806461D01*
X-43827821Y-81106425D01*
X-43827821Y-81106425D01*
G37*
D32*
X-42657559Y-80572559D03*
D25*
G36*
X-42625739Y-79904343D02*
X-41989343Y-80540739D01*
X-42689379Y-81240775D01*
X-43325775Y-80604379D01*
X-42625739Y-79904343D01*
X-42625739Y-79904343D01*
G37*
G04 #@! TD*
D32*
G04 #@! TO.C,C2*
X37140359Y24225359D03*
D25*
G36*
X37172179Y24893575D02*
X37808575Y24257179D01*
X37108539Y23557143D01*
X36472143Y24193539D01*
X37172179Y24893575D01*
X37172179Y24893575D01*
G37*
D32*
X38342441Y25427441D03*
D25*
G36*
X38374261Y26095657D02*
X39010657Y25459261D01*
X38310621Y24759225D01*
X37674225Y25395621D01*
X38374261Y26095657D01*
X38374261Y26095657D01*
G37*
G04 #@! TD*
D32*
G04 #@! TO.C,C2*
X-3359641Y24225359D03*
D25*
G36*
X-3327821Y24893575D02*
X-2691425Y24257179D01*
X-3391461Y23557143D01*
X-4027857Y24193539D01*
X-3327821Y24893575D01*
X-3327821Y24893575D01*
G37*
D32*
X-2157559Y25427441D03*
D25*
G36*
X-2125739Y26095657D02*
X-1489343Y25459261D01*
X-2189379Y24759225D01*
X-2825775Y25395621D01*
X-2125739Y26095657D01*
X-2125739Y26095657D01*
G37*
G04 #@! TD*
D10*
G04 #@! TO.C,C22*
X52117800Y-75243600D03*
X52117800Y-76943600D03*
G04 #@! TD*
G04 #@! TO.C,C22*
X11617800Y-75243600D03*
X11617800Y-76943600D03*
G04 #@! TD*
G04 #@! TO.C,C22*
X-28882200Y-75243600D03*
X-28882200Y-76943600D03*
G04 #@! TD*
G04 #@! TO.C,C22*
X52117800Y30756400D03*
X52117800Y29056400D03*
G04 #@! TD*
G04 #@! TO.C,C22*
X11617800Y30756400D03*
X11617800Y29056400D03*
G04 #@! TD*
D37*
G04 #@! TO.C,REF\002A\002A*
X65511400Y86510600D03*
G04 #@! TD*
G04 #@! TO.C,REF\002A\002A*
X-64988600Y-134489400D03*
G04 #@! TD*
G04 #@! TO.C,REF\002A\002A*
X-64988600Y86510600D03*
G04 #@! TD*
D10*
G04 #@! TO.C,C22*
X-28882200Y29056400D03*
X-28882200Y30756400D03*
G04 #@! TD*
D32*
G04 #@! TO.C,C2*
X-42657559Y25427441D03*
D25*
G36*
X-42625739Y26095657D02*
X-41989343Y25459261D01*
X-42689379Y24759225D01*
X-43325775Y25395621D01*
X-42625739Y26095657D01*
X-42625739Y26095657D01*
G37*
D32*
X-43859641Y24225359D03*
D25*
G36*
X-43827821Y24893575D02*
X-43191425Y24257179D01*
X-43891461Y23557143D01*
X-44527857Y24193539D01*
X-43827821Y24893575D01*
X-43827821Y24893575D01*
G37*
G04 #@! TD*
D13*
G04 #@! TO.C,R19*
X-41976800Y-5602800D03*
X-43676800Y-5602800D03*
G04 #@! TD*
G04 #@! TO.C,R20*
X-43676800Y-7177600D03*
X-41976800Y-7177600D03*
G04 #@! TD*
G04 #@! TO.C,R18*
X-49165000Y5903400D03*
X-50865000Y5903400D03*
G04 #@! TD*
G04 #@! TO.C,R16*
X-52644800Y5954200D03*
X-54344800Y5954200D03*
G04 #@! TD*
D17*
G04 #@! TO.C,U6*
X-49532400Y-3995000D03*
X-48262400Y-3995000D03*
X-46992400Y-3995000D03*
X-45722400Y-3995000D03*
X-45722400Y-9395000D03*
X-46992400Y-9395000D03*
X-48262400Y-9395000D03*
X-49532400Y-9395000D03*
G04 #@! TD*
D12*
G04 #@! TO.C,J4*
X-27682600Y11283600D03*
X-27682600Y10033600D03*
X-27682600Y8783600D03*
X-27682600Y7533600D03*
D11*
X-24332600Y13133600D03*
X-24332600Y5683600D03*
G04 #@! TD*
D10*
G04 #@! TO.C,C16*
X-55857000Y38569600D03*
X-55857000Y40269600D03*
G04 #@! TD*
D15*
G04 #@! TO.C,J8*
X-33585400Y10832400D03*
X-33585400Y9832400D03*
X-33585400Y8832400D03*
X-33585400Y7832400D03*
D14*
X-31060400Y6282400D03*
X-31060400Y12382400D03*
G04 #@! TD*
D13*
G04 #@! TO.C,C21*
X-43170600Y34148200D03*
X-44870600Y34148200D03*
G04 #@! TD*
G04 #@! TO.C,C20*
X-44845200Y35672200D03*
X-43145200Y35672200D03*
G04 #@! TD*
G04 #@! TO.C,D1*
X-35548800Y-8219000D03*
X-33848800Y-8219000D03*
G04 #@! TD*
G04 #@! TO.C,R14*
X-41291000Y37450200D03*
X-42991000Y37450200D03*
G04 #@! TD*
G04 #@! TO.C,R13*
X-55438800Y35494400D03*
X-57138800Y35494400D03*
G04 #@! TD*
D10*
G04 #@! TO.C,R15*
X-48795800Y46199600D03*
X-48795800Y44499600D03*
G04 #@! TD*
D13*
G04 #@! TO.C,R12*
X-47691800Y34148200D03*
X-49391800Y34148200D03*
G04 #@! TD*
D19*
G04 #@! TO.C,U3*
X-47746800Y40041000D03*
X-47746800Y38771000D03*
X-47746800Y37501000D03*
X-47746800Y36231000D03*
X-53146800Y36231000D03*
X-53146800Y37501000D03*
X-53146800Y38771000D03*
X-53146800Y40041000D03*
G04 #@! TD*
D18*
G04 #@! TO.C,J1*
X-26498600Y-13989400D03*
X-26498600Y-12689400D03*
X-26498600Y-13339400D03*
X-26498600Y-12039400D03*
X-26498600Y-11389400D03*
G04 #@! TD*
D16*
G04 #@! TO.C,J6*
X-38153200Y26302800D03*
X-38153200Y30302800D03*
X-36883200Y26302800D03*
X-36883200Y30302800D03*
X-35613200Y26302800D03*
X-35613200Y30302800D03*
X-34343200Y26302800D03*
X-34343200Y30302800D03*
X-33073200Y26302800D03*
X-33073200Y30302800D03*
G04 #@! TD*
D12*
G04 #@! TO.C,J2*
X-27682600Y1240600D03*
X-27682600Y-9400D03*
X-27682600Y-1259400D03*
X-27682600Y-2509400D03*
X-27682600Y-3759400D03*
D11*
X-24332600Y3090600D03*
X-24332600Y-5609400D03*
G04 #@! TD*
D32*
G04 #@! TO.C,C1*
X-43876759Y26545041D03*
D25*
G36*
X-43844939Y27213257D02*
X-43208543Y26576861D01*
X-43908579Y25876825D01*
X-44544975Y26513221D01*
X-43844939Y27213257D01*
X-43844939Y27213257D01*
G37*
D32*
X-45078841Y25342959D03*
D25*
G36*
X-45047021Y26011175D02*
X-44410625Y25374779D01*
X-45110661Y24674743D01*
X-45747057Y25311139D01*
X-45047021Y26011175D01*
X-45047021Y26011175D01*
G37*
G04 #@! TD*
D10*
G04 #@! TO.C,C3*
X-41671100Y20941100D03*
X-41671100Y22641100D03*
G04 #@! TD*
G04 #@! TO.C,C4*
X-52237500Y19808300D03*
X-52237500Y21508300D03*
G04 #@! TD*
G04 #@! TO.C,C5*
X-40058200Y20928400D03*
X-40058200Y22628400D03*
G04 #@! TD*
G04 #@! TO.C,C6*
X-49075200Y20318800D03*
X-49075200Y22018800D03*
G04 #@! TD*
D13*
G04 #@! TO.C,C7*
X-37936400Y12177200D03*
X-36236400Y12177200D03*
G04 #@! TD*
D10*
G04 #@! TO.C,C8*
X-50116600Y9838600D03*
X-50116600Y8138600D03*
G04 #@! TD*
G04 #@! TO.C,C9*
X-44063592Y-19920262D03*
X-44063592Y-18220262D03*
G04 #@! TD*
G04 #@! TO.C,C10*
X-29352100Y-19547400D03*
X-29352100Y-21247400D03*
G04 #@! TD*
D13*
G04 #@! TO.C,C11*
X-40368792Y-18282862D03*
X-42068792Y-18282862D03*
G04 #@! TD*
D10*
G04 #@! TO.C,C12*
X-44030085Y-12383261D03*
X-44030085Y-14083261D03*
G04 #@! TD*
D13*
G04 #@! TO.C,C13*
X-50282600Y42936600D03*
X-51982600Y42936600D03*
G04 #@! TD*
D10*
G04 #@! TO.C,C14*
X-50650000Y20318800D03*
X-50650000Y22018800D03*
G04 #@! TD*
D13*
G04 #@! TO.C,C15*
X-46902600Y42936600D03*
X-45202600Y42936600D03*
G04 #@! TD*
D10*
G04 #@! TO.C,C18*
X-54142500Y29626100D03*
X-54142500Y27926100D03*
G04 #@! TD*
D31*
G04 #@! TO.C,D4*
X-31652600Y-11197400D03*
D30*
X-33352600Y-11197400D03*
X-33352600Y-13197400D03*
X-31452600Y-13197400D03*
G04 #@! TD*
D10*
G04 #@! TO.C,D5*
X-39368584Y2716600D03*
X-39368584Y4416600D03*
G04 #@! TD*
D28*
G04 #@! TO.C,F1*
X-37561192Y-20487762D03*
X-37561192Y-18287762D03*
G04 #@! TD*
D13*
G04 #@! TO.C,L1*
X-42068792Y-19929317D03*
X-40368792Y-19929317D03*
G04 #@! TD*
D10*
G04 #@! TO.C,L2*
X-53837700Y19809900D03*
X-53837700Y21509900D03*
G04 #@! TD*
D29*
G04 #@! TO.C,Q4*
X-45248330Y4549720D03*
X-45248330Y2649720D03*
X-42948330Y3599720D03*
G04 #@! TD*
D10*
G04 #@! TO.C,R2*
X-37391200Y21017300D03*
X-37391200Y22717300D03*
G04 #@! TD*
G04 #@! TO.C,R4*
X-35803700Y21017300D03*
X-35803700Y22717300D03*
G04 #@! TD*
G04 #@! TO.C,R6*
X-37416600Y7337600D03*
X-37416600Y5637600D03*
G04 #@! TD*
G04 #@! TO.C,R7*
X-35791000Y7312200D03*
X-35791000Y5612200D03*
G04 #@! TD*
D13*
G04 #@! TO.C,R8*
X-36310800Y15352200D03*
X-34610800Y15352200D03*
G04 #@! TD*
G04 #@! TO.C,R9*
X-34610800Y16927000D03*
X-36310800Y16927000D03*
G04 #@! TD*
D10*
G04 #@! TO.C,R10*
X-27713800Y-19549800D03*
X-27713800Y-21249800D03*
G04 #@! TD*
D13*
G04 #@! TO.C,R11*
X-55438800Y36993000D03*
X-57138800Y36993000D03*
G04 #@! TD*
D10*
G04 #@! TO.C,R17*
X-41099600Y4416600D03*
X-41099600Y2716600D03*
G04 #@! TD*
D13*
G04 #@! TO.C,R22*
X-36518372Y65631932D03*
X-38218372Y65631932D03*
G04 #@! TD*
D10*
G04 #@! TO.C,R23*
X-36047572Y53859932D03*
X-36047572Y55559932D03*
G04 #@! TD*
D13*
G04 #@! TO.C,R30*
X-36518372Y70559532D03*
X-38218372Y70559532D03*
G04 #@! TD*
G04 #@! TO.C,R31*
X-36518372Y67308332D03*
X-38218372Y67308332D03*
G04 #@! TD*
D10*
G04 #@! TO.C,R32*
X-36047572Y50479932D03*
X-36047572Y48779932D03*
G04 #@! TD*
D13*
G04 #@! TO.C,R33*
X-36518372Y68933932D03*
X-38218372Y68933932D03*
G04 #@! TD*
G04 #@! TO.C,R34*
X-36518372Y72286732D03*
X-38218372Y72286732D03*
G04 #@! TD*
D24*
G04 #@! TO.C,U1*
X-46142571Y19585258D03*
D25*
G36*
X-46635778Y19919366D02*
X-46476679Y20078465D01*
X-45649364Y19251150D01*
X-45808463Y19092051D01*
X-46635778Y19919366D01*
X-46635778Y19919366D01*
G37*
D24*
X-46496124Y19231705D03*
D25*
G36*
X-46989331Y19565813D02*
X-46830232Y19724912D01*
X-46002917Y18897597D01*
X-46162016Y18738498D01*
X-46989331Y19565813D01*
X-46989331Y19565813D01*
G37*
D24*
X-46849678Y18878151D03*
D25*
G36*
X-47342885Y19212259D02*
X-47183786Y19371358D01*
X-46356471Y18544043D01*
X-46515570Y18384944D01*
X-47342885Y19212259D01*
X-47342885Y19212259D01*
G37*
D24*
X-47203231Y18524598D03*
D25*
G36*
X-47696438Y18858706D02*
X-47537339Y19017805D01*
X-46710024Y18190490D01*
X-46869123Y18031391D01*
X-47696438Y18858706D01*
X-47696438Y18858706D01*
G37*
D24*
X-47556784Y18171045D03*
D25*
G36*
X-48049991Y18505153D02*
X-47890892Y18664252D01*
X-47063577Y17836937D01*
X-47222676Y17677838D01*
X-48049991Y18505153D01*
X-48049991Y18505153D01*
G37*
D24*
X-47910338Y17817491D03*
D25*
G36*
X-48403545Y18151599D02*
X-48244446Y18310698D01*
X-47417131Y17483383D01*
X-47576230Y17324284D01*
X-48403545Y18151599D01*
X-48403545Y18151599D01*
G37*
D24*
X-48263891Y17463938D03*
D25*
G36*
X-48757098Y17798046D02*
X-48597999Y17957145D01*
X-47770684Y17129830D01*
X-47929783Y16970731D01*
X-48757098Y17798046D01*
X-48757098Y17798046D01*
G37*
D24*
X-48617445Y17110384D03*
D25*
G36*
X-49110652Y17444492D02*
X-48951553Y17603591D01*
X-48124238Y16776276D01*
X-48283337Y16617177D01*
X-49110652Y17444492D01*
X-49110652Y17444492D01*
G37*
D24*
X-48970998Y16756831D03*
D25*
G36*
X-49464205Y17090939D02*
X-49305106Y17250038D01*
X-48477791Y16422723D01*
X-48636890Y16263624D01*
X-49464205Y17090939D01*
X-49464205Y17090939D01*
G37*
D24*
X-49324551Y16403278D03*
D25*
G36*
X-49817758Y16737386D02*
X-49658659Y16896485D01*
X-48831344Y16069170D01*
X-48990443Y15910071D01*
X-49817758Y16737386D01*
X-49817758Y16737386D01*
G37*
D24*
X-49678105Y16049724D03*
D25*
G36*
X-50171312Y16383832D02*
X-50012213Y16542931D01*
X-49184898Y15715616D01*
X-49343997Y15556517D01*
X-50171312Y16383832D01*
X-50171312Y16383832D01*
G37*
D24*
X-50031658Y15696171D03*
D25*
G36*
X-50524865Y16030279D02*
X-50365766Y16189378D01*
X-49538451Y15362063D01*
X-49697550Y15202964D01*
X-50524865Y16030279D01*
X-50524865Y16030279D01*
G37*
D24*
X-50031658Y13433429D03*
D25*
G36*
X-50365766Y12940222D02*
X-50524865Y13099321D01*
X-49697550Y13926636D01*
X-49538451Y13767537D01*
X-50365766Y12940222D01*
X-50365766Y12940222D01*
G37*
D24*
X-49678105Y13079876D03*
D25*
G36*
X-50012213Y12586669D02*
X-50171312Y12745768D01*
X-49343997Y13573083D01*
X-49184898Y13413984D01*
X-50012213Y12586669D01*
X-50012213Y12586669D01*
G37*
D24*
X-49324551Y12726322D03*
D25*
G36*
X-49658659Y12233115D02*
X-49817758Y12392214D01*
X-48990443Y13219529D01*
X-48831344Y13060430D01*
X-49658659Y12233115D01*
X-49658659Y12233115D01*
G37*
D24*
X-48970998Y12372769D03*
D25*
G36*
X-49305106Y11879562D02*
X-49464205Y12038661D01*
X-48636890Y12865976D01*
X-48477791Y12706877D01*
X-49305106Y11879562D01*
X-49305106Y11879562D01*
G37*
D24*
X-48617445Y12019216D03*
D25*
G36*
X-48951553Y11526009D02*
X-49110652Y11685108D01*
X-48283337Y12512423D01*
X-48124238Y12353324D01*
X-48951553Y11526009D01*
X-48951553Y11526009D01*
G37*
D24*
X-48263891Y11665662D03*
D25*
G36*
X-48597999Y11172455D02*
X-48757098Y11331554D01*
X-47929783Y12158869D01*
X-47770684Y11999770D01*
X-48597999Y11172455D01*
X-48597999Y11172455D01*
G37*
D24*
X-47910338Y11312109D03*
D25*
G36*
X-48244446Y10818902D02*
X-48403545Y10978001D01*
X-47576230Y11805316D01*
X-47417131Y11646217D01*
X-48244446Y10818902D01*
X-48244446Y10818902D01*
G37*
D24*
X-47556784Y10958555D03*
D25*
G36*
X-47890892Y10465348D02*
X-48049991Y10624447D01*
X-47222676Y11451762D01*
X-47063577Y11292663D01*
X-47890892Y10465348D01*
X-47890892Y10465348D01*
G37*
D24*
X-47203231Y10605002D03*
D25*
G36*
X-47537339Y10111795D02*
X-47696438Y10270894D01*
X-46869123Y11098209D01*
X-46710024Y10939110D01*
X-47537339Y10111795D01*
X-47537339Y10111795D01*
G37*
D24*
X-46849678Y10251449D03*
D25*
G36*
X-47183786Y9758242D02*
X-47342885Y9917341D01*
X-46515570Y10744656D01*
X-46356471Y10585557D01*
X-47183786Y9758242D01*
X-47183786Y9758242D01*
G37*
D24*
X-46496124Y9897895D03*
D25*
G36*
X-46830232Y9404688D02*
X-46989331Y9563787D01*
X-46162016Y10391102D01*
X-46002917Y10232003D01*
X-46830232Y9404688D01*
X-46830232Y9404688D01*
G37*
D24*
X-46142571Y9544342D03*
D25*
G36*
X-46476679Y9051135D02*
X-46635778Y9210234D01*
X-45808463Y10037549D01*
X-45649364Y9878450D01*
X-46476679Y9051135D01*
X-46476679Y9051135D01*
G37*
D24*
X-43879829Y9544342D03*
D25*
G36*
X-44373036Y9878450D02*
X-44213937Y10037549D01*
X-43386622Y9210234D01*
X-43545721Y9051135D01*
X-44373036Y9878450D01*
X-44373036Y9878450D01*
G37*
D24*
X-43526276Y9897895D03*
D25*
G36*
X-44019483Y10232003D02*
X-43860384Y10391102D01*
X-43033069Y9563787D01*
X-43192168Y9404688D01*
X-44019483Y10232003D01*
X-44019483Y10232003D01*
G37*
D24*
X-43172722Y10251449D03*
D25*
G36*
X-43665929Y10585557D02*
X-43506830Y10744656D01*
X-42679515Y9917341D01*
X-42838614Y9758242D01*
X-43665929Y10585557D01*
X-43665929Y10585557D01*
G37*
D24*
X-42819169Y10605002D03*
D25*
G36*
X-43312376Y10939110D02*
X-43153277Y11098209D01*
X-42325962Y10270894D01*
X-42485061Y10111795D01*
X-43312376Y10939110D01*
X-43312376Y10939110D01*
G37*
D24*
X-42465616Y10958555D03*
D25*
G36*
X-42958823Y11292663D02*
X-42799724Y11451762D01*
X-41972409Y10624447D01*
X-42131508Y10465348D01*
X-42958823Y11292663D01*
X-42958823Y11292663D01*
G37*
D24*
X-42112062Y11312109D03*
D25*
G36*
X-42605269Y11646217D02*
X-42446170Y11805316D01*
X-41618855Y10978001D01*
X-41777954Y10818902D01*
X-42605269Y11646217D01*
X-42605269Y11646217D01*
G37*
D24*
X-41758509Y11665662D03*
D25*
G36*
X-42251716Y11999770D02*
X-42092617Y12158869D01*
X-41265302Y11331554D01*
X-41424401Y11172455D01*
X-42251716Y11999770D01*
X-42251716Y11999770D01*
G37*
D24*
X-41404955Y12019216D03*
D25*
G36*
X-41898162Y12353324D02*
X-41739063Y12512423D01*
X-40911748Y11685108D01*
X-41070847Y11526009D01*
X-41898162Y12353324D01*
X-41898162Y12353324D01*
G37*
D24*
X-41051402Y12372769D03*
D25*
G36*
X-41544609Y12706877D02*
X-41385510Y12865976D01*
X-40558195Y12038661D01*
X-40717294Y11879562D01*
X-41544609Y12706877D01*
X-41544609Y12706877D01*
G37*
D24*
X-40697849Y12726322D03*
D25*
G36*
X-41191056Y13060430D02*
X-41031957Y13219529D01*
X-40204642Y12392214D01*
X-40363741Y12233115D01*
X-41191056Y13060430D01*
X-41191056Y13060430D01*
G37*
D24*
X-40344295Y13079876D03*
D25*
G36*
X-40837502Y13413984D02*
X-40678403Y13573083D01*
X-39851088Y12745768D01*
X-40010187Y12586669D01*
X-40837502Y13413984D01*
X-40837502Y13413984D01*
G37*
D24*
X-39990742Y13433429D03*
D25*
G36*
X-40483949Y13767537D02*
X-40324850Y13926636D01*
X-39497535Y13099321D01*
X-39656634Y12940222D01*
X-40483949Y13767537D01*
X-40483949Y13767537D01*
G37*
D24*
X-39990742Y15696171D03*
D25*
G36*
X-40324850Y15202964D02*
X-40483949Y15362063D01*
X-39656634Y16189378D01*
X-39497535Y16030279D01*
X-40324850Y15202964D01*
X-40324850Y15202964D01*
G37*
D24*
X-40344295Y16049724D03*
D25*
G36*
X-40678403Y15556517D02*
X-40837502Y15715616D01*
X-40010187Y16542931D01*
X-39851088Y16383832D01*
X-40678403Y15556517D01*
X-40678403Y15556517D01*
G37*
D24*
X-40697849Y16403278D03*
D25*
G36*
X-41031957Y15910071D02*
X-41191056Y16069170D01*
X-40363741Y16896485D01*
X-40204642Y16737386D01*
X-41031957Y15910071D01*
X-41031957Y15910071D01*
G37*
D24*
X-41051402Y16756831D03*
D25*
G36*
X-41385510Y16263624D02*
X-41544609Y16422723D01*
X-40717294Y17250038D01*
X-40558195Y17090939D01*
X-41385510Y16263624D01*
X-41385510Y16263624D01*
G37*
D24*
X-41404955Y17110384D03*
D25*
G36*
X-41739063Y16617177D02*
X-41898162Y16776276D01*
X-41070847Y17603591D01*
X-40911748Y17444492D01*
X-41739063Y16617177D01*
X-41739063Y16617177D01*
G37*
D24*
X-41758509Y17463938D03*
D25*
G36*
X-42092617Y16970731D02*
X-42251716Y17129830D01*
X-41424401Y17957145D01*
X-41265302Y17798046D01*
X-42092617Y16970731D01*
X-42092617Y16970731D01*
G37*
D24*
X-42112062Y17817491D03*
D25*
G36*
X-42446170Y17324284D02*
X-42605269Y17483383D01*
X-41777954Y18310698D01*
X-41618855Y18151599D01*
X-42446170Y17324284D01*
X-42446170Y17324284D01*
G37*
D24*
X-42465616Y18171045D03*
D25*
G36*
X-42799724Y17677838D02*
X-42958823Y17836937D01*
X-42131508Y18664252D01*
X-41972409Y18505153D01*
X-42799724Y17677838D01*
X-42799724Y17677838D01*
G37*
D24*
X-42819169Y18524598D03*
D25*
G36*
X-43153277Y18031391D02*
X-43312376Y18190490D01*
X-42485061Y19017805D01*
X-42325962Y18858706D01*
X-43153277Y18031391D01*
X-43153277Y18031391D01*
G37*
D24*
X-43172722Y18878151D03*
D25*
G36*
X-43506830Y18384944D02*
X-43665929Y18544043D01*
X-42838614Y19371358D01*
X-42679515Y19212259D01*
X-43506830Y18384944D01*
X-43506830Y18384944D01*
G37*
D24*
X-43526276Y19231705D03*
D25*
G36*
X-43860384Y18738498D02*
X-44019483Y18897597D01*
X-43192168Y19724912D01*
X-43033069Y19565813D01*
X-43860384Y18738498D01*
X-43860384Y18738498D01*
G37*
D24*
X-43879829Y19585258D03*
D25*
G36*
X-44213937Y19092051D02*
X-44373036Y19251150D01*
X-43545721Y20078465D01*
X-43386622Y19919366D01*
X-44213937Y19092051D01*
X-44213937Y19092051D01*
G37*
G04 #@! TD*
D22*
G04 #@! TO.C,U2*
X-38924685Y-12268061D03*
D23*
X-40424685Y-12768061D03*
D22*
X-41924685Y-12268061D03*
D21*
X-40424685Y-15118061D03*
G04 #@! TD*
D26*
G04 #@! TO.C,Y1*
X-47444483Y24313283D03*
D25*
G36*
X-48399077Y24058725D02*
X-47189925Y25267877D01*
X-46489889Y24567841D01*
X-47699041Y23358689D01*
X-48399077Y24058725D01*
X-48399077Y24058725D01*
G37*
D26*
X-45676717Y22545517D03*
D25*
G36*
X-46631311Y22290959D02*
X-45422159Y23500111D01*
X-44722123Y22800075D01*
X-45931275Y21590923D01*
X-46631311Y22290959D01*
X-46631311Y22290959D01*
G37*
G04 #@! TD*
D20*
G04 #@! TO.C,SW1*
X-22954600Y28164600D03*
X-22954600Y33324600D03*
X-24954600Y33324600D03*
X-24954600Y28164600D03*
G04 #@! TD*
D12*
G04 #@! TO.C,J3*
X-27682600Y20056600D03*
X-27682600Y18806600D03*
X-27682600Y17556600D03*
D11*
X-24332600Y21906600D03*
X-24332600Y15706600D03*
G04 #@! TD*
D27*
G04 #@! TO.C,U5*
X-22812600Y40814600D03*
X-26112600Y40814600D03*
X-26112600Y35914600D03*
X-22812600Y35914600D03*
G04 #@! TD*
D13*
G04 #@! TO.C,C17*
X-49421036Y-1410878D03*
X-47721036Y-1410878D03*
G04 #@! TD*
G04 #@! TO.C,C19*
X-53506600Y-6593400D03*
X-51806600Y-6593400D03*
G04 #@! TD*
G04 #@! TO.C,R1*
X-51806600Y-4815400D03*
X-53506600Y-4815400D03*
G04 #@! TD*
D34*
G04 #@! TO.C,Y2*
X-47595036Y-12205878D03*
X-50095036Y-12205878D03*
G04 #@! TD*
D33*
G04 #@! TO.C,D11*
X-40670372Y68425932D03*
X-43515172Y68425932D03*
G04 #@! TD*
G04 #@! TO.C,D10*
X-43515372Y65987532D03*
X-40670572Y65987532D03*
G04 #@! TD*
G04 #@! TO.C,D9*
X-36301572Y74369532D03*
X-39146372Y74369532D03*
G04 #@! TD*
G04 #@! TO.C,D8*
X-40670372Y70711932D03*
X-43515172Y70711932D03*
G04 #@! TD*
D36*
G04 #@! TO.C,D7*
X-38333572Y48055132D03*
X-38333572Y50899932D03*
G04 #@! TD*
G04 #@! TO.C,D6*
X-38333572Y56132332D03*
X-38333572Y53287532D03*
G04 #@! TD*
D12*
G04 #@! TO.C,J7*
X-35937600Y1240600D03*
X-35937600Y-9400D03*
X-35937600Y-1259400D03*
X-35937600Y-2509400D03*
X-35937600Y-3759400D03*
D11*
X-32587600Y3090600D03*
X-32587600Y-5609400D03*
G04 #@! TD*
D35*
G04 #@! TO.C,U4*
X-44859200Y32154300D03*
X-44859200Y30884300D03*
X-44859200Y29614300D03*
X-44859200Y28344300D03*
X-51259200Y28344300D03*
X-51259200Y29614300D03*
X-51259200Y30884300D03*
X-51259200Y32154300D03*
G04 #@! TD*
D13*
G04 #@! TO.C,R3*
X-31865800Y-8269800D03*
X-30165800Y-8269800D03*
G04 #@! TD*
G04 #@! TO.C,R5*
X-42916600Y40142600D03*
X-44616600Y40142600D03*
G04 #@! TD*
M02*
