M48
;DRILL file {KiCad (5.0.0)} date 01/02/19 13:47:16
;FORMAT={-:-/ absolute / inch / decimal}
FMAT,2
INCH,TZ
T1C0.0118
T2C0.0197
T3C0.0354
T4C0.0472
T5C0.0197
T6C0.0413
T7C0.0512
T8C0.0929
T9C0.0984
T10C0.1063
%
G90
G05
M72
T1
X-2.2491Y1.3714
X-2.2491Y-2.8018
X-2.2291Y1.5794
X-2.2291Y-2.5938
X-2.1851Y0.2324
X-2.1851Y-3.9408
X-2.1431Y1.5304
X-2.1431Y-2.6428
X-2.1191Y0.8864
X-2.1191Y-3.2868
X-2.0931Y1.1104
X-2.0931Y-3.0628
X-2.0901Y1.4034
X-2.0901Y-2.7698
X-2.0871Y0.6909
X-2.0871Y-3.4823
X-2.0831Y1.6904
X-2.0831Y-2.4828
X-2.0581Y0.8844
X-2.0581Y-3.2888
X-2.0441Y1.5744
X-2.0441Y-2.5988
X-2.0411Y1.4724
X-2.0411Y-2.7008
X-2.0381Y1.5254
X-2.0381Y-2.6478
X-2.0071Y0.3864
X-2.0071Y-3.7868
X-2.0051Y-0.2646
X-2.0051Y-4.4378
X-2.0031Y1.7504
X-2.0031Y1.6304
X-2.0031Y1.5904
X-2.0031Y1.5504
X-2.0031Y-2.4228
X-2.0031Y-2.5428
X-2.0031Y-2.5828
X-2.0031Y-2.6228
X-1.9941Y0.9244
X-1.9941Y-3.2488
X-1.9831Y-0.1596
X-1.9831Y-4.3328
X-1.9751Y1.3454
X-1.9751Y-2.8278
X-1.9731Y0.2904
X-1.9731Y0.0704
X-1.9731Y-3.8828
X-1.9731Y-4.1028
X-1.9646Y0.7459
X-1.9646Y-3.4273
X-1.9631Y1.7504
X-1.9631Y1.6304
X-1.9631Y1.5904
X-1.9631Y1.5504
X-1.9631Y-2.4228
X-1.9631Y-2.5428
X-1.9631Y-2.5828
X-1.9631Y-2.6228
X-1.9371Y0.5784
X-1.9371Y-3.5948
X-1.9321Y0.9244
X-1.9321Y-3.2488
X-1.9307Y0.4271
X-1.9307Y-3.7461
X-1.9271Y1.2034
X-1.9271Y-2.9698
X-1.9246Y0.7459
X-1.9246Y-3.4273
X-1.9231Y1.6304
X-1.9231Y-2.5428
X-1.9196Y1.0009
X-1.9196Y-3.1723
X-1.9096Y1.2234
X-1.9096Y-2.9498
X-1.9076Y0.5784
X-1.9076Y-3.5948
X-1.9049Y1.1106
X-1.9049Y-3.0626
X-1.9021Y0.2304
X-1.9021Y-3.9428
X-1.9001Y1.8124
X-1.9001Y-2.3608
X-1.8831Y1.7504
X-1.8831Y1.6304
X-1.8831Y-2.4228
X-1.8831Y-2.5428
X-1.8701Y0.5704
X-1.8701Y-3.6028
X-1.8531Y-0.2106
X-1.8531Y-4.3838
X-1.8461Y-0.0596
X-1.8461Y-4.2328
X-1.8431Y1.7504
X-1.8431Y1.6304
X-1.8431Y-2.4228
X-1.8431Y-2.5428
X-1.8281Y-0.4346
X-1.8281Y-4.6078
X-1.8121Y0.4684
X-1.8121Y-3.7048
X-1.8101Y-0.2216
X-1.8101Y-4.3948
X-1.7981Y-0.3086
X-1.7981Y-4.4818
X-1.7761Y0.4274
X-1.7761Y-3.7458
X-1.7661Y1.2974
X-1.7661Y-2.8758
X-1.7611Y1.0604
X-1.7611Y-3.1128
X-1.7591Y0.7789
X-1.7591Y-3.3943
X-1.7531Y0.1104
X-1.7531Y-4.0628
X-1.7511Y2.6034
X-1.7511Y-1.5698
X-1.7461Y2.6944
X-1.7461Y-1.4788
X-1.7431Y1.6904
X-1.7431Y0.4404
X-1.7431Y-0.3996
X-1.7431Y-0.4396
X-1.7431Y-2.4828
X-1.7431Y-3.7328
X-1.7431Y-4.5728
X-1.7431Y-4.6128
X-1.7403Y0.7134
X-1.7403Y-3.4598
X-1.7331Y-0.5896
X-1.7331Y-4.7628
X-1.7321Y0.6834
X-1.7321Y-3.4898
X-1.7247Y0.4869
X-1.7247Y-3.6864
X-1.7011Y-0.7198
X-1.7011Y-4.893
X-1.6931Y-0.3996
X-1.6931Y-0.4396
X-1.6931Y-4.5728
X-1.6931Y-4.6128
X-1.6791Y0.3224
X-1.6791Y-3.8508
X-1.6731Y0.6604
X-1.6731Y-3.5128
X-1.6631Y0.5004
X-1.6631Y-3.6728
X-1.6581Y1.3454
X-1.6581Y-2.8278
X-1.6531Y1.2524
X-1.6531Y-2.9208
X-1.6526Y-0.2526
X-1.6526Y-4.4258
X-1.6431Y1.5804
X-1.6431Y-0.3996
X-1.6431Y-0.4396
X-1.6431Y-2.5928
X-1.6431Y-4.5728
X-1.6431Y-4.6128
X-1.6401Y0.7624
X-1.6401Y-3.4108
X-1.6231Y0.5404
X-1.6231Y-3.6328
X-1.6141Y0.3434
X-1.6141Y-3.8298
X-1.6131Y0.4304
X-1.6131Y-3.7428
X-1.5951Y1.4744
X-1.5951Y-2.6988
X-1.5931Y2.8504
X-1.5931Y1.6804
X-1.5931Y1.5304
X-1.5931Y-1.3228
X-1.5931Y-2.4928
X-1.5931Y-2.6428
X-1.5646Y0.3559
X-1.5646Y-3.8173
X-1.5501Y2.6324
X-1.5501Y1.0304
X-1.5501Y-1.5408
X-1.5501Y-3.1428
X-1.5496Y2.6024
X-1.5496Y2.5719
X-1.5496Y-1.5708
X-1.5496Y-1.6013
X-1.5431Y0.8904
X-1.5431Y-3.2828
X-1.5361Y2.0044
X-1.5361Y-2.1688
X-1.5346Y0.3559
X-1.5346Y-3.8173
X-1.5131Y-0.4796
X-1.5131Y-4.6528
X-1.5041Y0.1234
X-1.5041Y-4.0498
X-1.5031Y0.5104
X-1.5031Y-3.6628
X-1.5021Y2.2514
X-1.5021Y-1.9218
X-1.4991Y1.1014
X-1.4991Y-3.0718
X-1.4681Y1.1234
X-1.4681Y-3.0498
X-1.4631Y0.0604
X-1.4631Y0.0004
X-1.4631Y-4.1128
X-1.4631Y-4.1728
X-1.4611Y0.6034
X-1.4611Y-3.5698
X-1.4531Y1.0904
X-1.4531Y-3.0828
X-1.4431Y0.222
X-1.4431Y-3.9513
X-1.4381Y-0.3246
X-1.4381Y-4.4978
X-1.4231Y2.2204
X-1.4231Y-1.9528
X-1.4101Y0.7964
X-1.4101Y-3.3768
X-1.3901Y2.9294
X-1.3901Y0.4824
X-1.3901Y-1.2438
X-1.3901Y-3.6908
X-1.3881Y2.8484
X-1.3881Y-1.3248
X-1.3731Y0.3504
X-1.3731Y0.3104
X-1.3731Y-3.8228
X-1.3731Y-3.8628
X-1.3561Y2.5425
X-1.3561Y-1.6307
X-1.3539Y0.0604
X-1.3539Y0.0004
X-1.3539Y-4.1128
X-1.3539Y-4.1728
X-1.3531Y-0.4596
X-1.3531Y-0.4996
X-1.3531Y-4.6328
X-1.3531Y-4.6728
X-1.3281Y0.5754
X-1.3281Y-3.5978
X-1.3261Y1.9074
X-1.3261Y-2.2658
X-1.3039Y0.4264
X-1.3039Y0.3864
X-1.3039Y-3.7468
X-1.3039Y-3.7868
X-1.3031Y1.1004
X-1.3031Y0.0604
X-1.3031Y0.0004
X-1.3031Y-3.0728
X-1.3031Y-4.1128
X-1.3031Y-4.1728
X-1.2531Y0.0604
X-1.2531Y0.0004
X-1.2531Y-4.1128
X-1.2531Y-4.1728
X-1.2431Y-0.4196
X-1.2431Y-4.5928
X-1.2031Y0.0604
X-1.2031Y0.0004
X-1.2031Y-4.1128
X-1.2031Y-4.1728
X-1.1531Y0.0604
X-1.1531Y0.0004
X-1.1531Y-4.1128
X-1.1531Y-4.1728
X-1.1481Y-0.3256
X-1.1481Y-4.4988
X-1.1441Y-0.5036
X-1.1441Y-4.6768
X-1.1431Y0.3434
X-1.1431Y-3.8298
X-1.1341Y1.2514
X-1.1341Y-2.9218
X-1.1293Y-0.4496
X-1.1293Y-4.6229
X-1.1231Y-0.8366
X-1.1231Y-5.0098
X-1.1131Y-0.5796
X-1.1131Y-4.7528
X-1.0913Y-0.5013
X-1.0913Y-4.6745
X-1.0911Y-0.4756
X-1.0911Y-4.6488
X-1.0838Y-0.4339
X-1.0838Y-4.6071
X-1.0531Y0.7904
X-1.0531Y-0.8396
X-1.0531Y-3.3828
X-1.0531Y-5.0128
X-1.0451Y0.3954
X-1.0451Y-3.7778
X-1.0441Y0.4454
X-1.0441Y-3.7278
X-1.0261Y1.4564
X-1.0261Y-2.7168
X-1.0231Y0.0604
X-1.0231Y0.0004
X-1.0231Y-4.1128
X-1.0231Y-4.1728
X-0.9971Y-0.4456
X-0.9971Y-4.6188
X-0.9271Y1.4074
X-0.9271Y-2.7658
X-0.9037Y1.2754
X-0.9037Y-2.8978
X-0.9001Y1.1534
X-0.9001Y-3.0198
X-0.8971Y1.5634
X-0.8971Y-2.6098
X-0.6546Y1.3714
X-0.6546Y-2.8018
X-0.6346Y1.5794
X-0.6346Y-2.5938
X-0.5906Y0.2324
X-0.5906Y-3.9408
X-0.5486Y1.5304
X-0.5486Y-2.6428
X-0.5246Y0.8864
X-0.5246Y-3.2868
X-0.4986Y1.1104
X-0.4986Y-3.0628
X-0.4956Y1.4034
X-0.4956Y-2.7698
X-0.4926Y0.6909
X-0.4926Y-3.4823
X-0.4886Y1.6904
X-0.4886Y-2.4828
X-0.4636Y0.8844
X-0.4636Y-3.2888
X-0.4496Y1.5744
X-0.4496Y-2.5988
X-0.4466Y1.4724
X-0.4466Y-2.7008
X-0.4436Y1.5254
X-0.4436Y-2.6478
X-0.4126Y0.3864
X-0.4126Y-3.7868
X-0.4106Y-0.2646
X-0.4106Y-4.4378
X-0.4086Y1.7504
X-0.4086Y1.6304
X-0.4086Y1.5904
X-0.4086Y1.5504
X-0.4086Y-2.4228
X-0.4086Y-2.5428
X-0.4086Y-2.5828
X-0.4086Y-2.6228
X-0.3996Y0.9244
X-0.3996Y-3.2488
X-0.3886Y-0.1596
X-0.3886Y-4.3328
X-0.3806Y1.3454
X-0.3806Y-2.8278
X-0.3786Y0.2904
X-0.3786Y0.0704
X-0.3786Y-3.8828
X-0.3786Y-4.1028
X-0.3701Y0.7459
X-0.3701Y-3.4273
X-0.3686Y1.7504
X-0.3686Y1.6304
X-0.3686Y1.5904
X-0.3686Y1.5504
X-0.3686Y-2.4228
X-0.3686Y-2.5428
X-0.3686Y-2.5828
X-0.3686Y-2.6228
X-0.3426Y0.5784
X-0.3426Y-3.5948
X-0.3376Y0.9244
X-0.3376Y-3.2488
X-0.3362Y0.4271
X-0.3362Y-3.7461
X-0.3326Y1.2034
X-0.3326Y-2.9698
X-0.3301Y0.7459
X-0.3301Y-3.4273
X-0.3286Y1.6304
X-0.3286Y-2.5428
X-0.3251Y1.0009
X-0.3251Y-3.1723
X-0.3151Y1.2234
X-0.3151Y-2.9498
X-0.3131Y0.5784
X-0.3131Y-3.5948
X-0.3104Y1.1106
X-0.3104Y-3.0626
X-0.3076Y0.2304
X-0.3076Y-3.9428
X-0.3056Y1.8124
X-0.3056Y-2.3608
X-0.2886Y1.7504
X-0.2886Y1.6304
X-0.2886Y-2.4228
X-0.2886Y-2.5428
X-0.2756Y0.5704
X-0.2756Y-3.6028
X-0.2586Y-0.2106
X-0.2586Y-4.3838
X-0.2516Y-0.0596
X-0.2516Y-4.2328
X-0.2486Y1.7504
X-0.2486Y1.6304
X-0.2486Y-2.4228
X-0.2486Y-2.5428
X-0.2336Y-0.4346
X-0.2336Y-4.6078
X-0.2176Y0.4684
X-0.2176Y-3.7048
X-0.2156Y-0.2216
X-0.2156Y-4.3948
X-0.2036Y-0.3086
X-0.2036Y-4.4818
X-0.1816Y0.4274
X-0.1816Y-3.7458
X-0.1716Y1.2974
X-0.1716Y-2.8758
X-0.1666Y1.0604
X-0.1666Y-3.1128
X-0.1646Y0.7789
X-0.1646Y-3.3943
X-0.1586Y0.1104
X-0.1586Y-4.0628
X-0.1566Y2.6034
X-0.1566Y-1.5698
X-0.1516Y2.6944
X-0.1516Y-1.4788
X-0.1486Y1.6904
X-0.1486Y0.4404
X-0.1486Y-0.3996
X-0.1486Y-0.4396
X-0.1486Y-2.4828
X-0.1486Y-3.7328
X-0.1486Y-4.5728
X-0.1486Y-4.6128
X-0.1458Y0.7134
X-0.1458Y-3.4598
X-0.1386Y-0.5896
X-0.1386Y-4.7628
X-0.1376Y0.6834
X-0.1376Y-3.4898
X-0.1302Y0.4869
X-0.1302Y-3.6864
X-0.1066Y-0.7198
X-0.1066Y-4.893
X-0.0986Y-0.3996
X-0.0986Y-0.4396
X-0.0986Y-4.5728
X-0.0986Y-4.6128
X-0.0846Y0.3224
X-0.0846Y-3.8508
X-0.0786Y0.6604
X-0.0786Y-3.5128
X-0.0686Y0.5004
X-0.0686Y-3.6728
X-0.0636Y1.3454
X-0.0636Y-2.8278
X-0.0586Y1.2524
X-0.0586Y-2.9208
X-0.0581Y-0.2526
X-0.0581Y-4.4258
X-0.0486Y1.5804
X-0.0486Y-0.3996
X-0.0486Y-0.4396
X-0.0486Y-2.5928
X-0.0486Y-4.5728
X-0.0486Y-4.6128
X-0.0456Y0.7624
X-0.0456Y-3.4108
X-0.0286Y0.5404
X-0.0286Y-3.6328
X-0.0196Y0.3434
X-0.0196Y-3.8298
X-0.0186Y0.4304
X-0.0186Y-3.7428
X-0.0006Y1.4744
X-0.0006Y-2.6988
X0.0014Y2.8504
X0.0014Y1.6804
X0.0014Y1.5304
X0.0014Y-1.3228
X0.0014Y-2.4928
X0.0014Y-2.6428
X0.0299Y0.3559
X0.0299Y-3.8173
X0.0444Y2.6324
X0.0444Y1.0304
X0.0444Y-1.5408
X0.0444Y-3.1428
X0.0449Y2.6024
X0.0449Y2.5719
X0.0449Y-1.5708
X0.0449Y-1.6013
X0.0514Y0.8904
X0.0514Y-3.2828
X0.0584Y2.0044
X0.0584Y-2.1688
X0.0599Y0.3559
X0.0599Y-3.8173
X0.0814Y-0.4796
X0.0814Y-4.6528
X0.0904Y0.1234
X0.0904Y-4.0498
X0.0914Y0.5104
X0.0914Y-3.6628
X0.0924Y2.2514
X0.0924Y-1.9218
X0.0954Y1.1014
X0.0954Y-3.0718
X0.1264Y1.1234
X0.1264Y-3.0498
X0.1314Y0.0604
X0.1314Y0.0004
X0.1314Y-4.1128
X0.1314Y-4.1728
X0.1334Y0.6034
X0.1334Y-3.5698
X0.1414Y1.0904
X0.1414Y-3.0828
X0.1514Y0.222
X0.1514Y-3.9513
X0.1564Y-0.3246
X0.1564Y-4.4978
X0.1714Y2.2204
X0.1714Y-1.9528
X0.1844Y0.7964
X0.1844Y-3.3768
X0.2044Y2.9294
X0.2044Y0.4824
X0.2044Y-1.2438
X0.2044Y-3.6908
X0.2064Y2.8484
X0.2064Y-1.3248
X0.2214Y0.3504
X0.2214Y0.3104
X0.2214Y-3.8228
X0.2214Y-3.8628
X0.2384Y2.5425
X0.2384Y-1.6307
X0.2406Y0.0604
X0.2406Y0.0004
X0.2406Y-4.1128
X0.2406Y-4.1728
X0.2414Y-0.4596
X0.2414Y-0.4996
X0.2414Y-4.6328
X0.2414Y-4.6728
X0.2664Y0.5754
X0.2664Y-3.5978
X0.2684Y1.9074
X0.2684Y-2.2658
X0.2906Y0.4264
X0.2906Y0.3864
X0.2906Y-3.7468
X0.2906Y-3.7868
X0.2914Y1.1004
X0.2914Y0.0604
X0.2914Y0.0004
X0.2914Y-3.0728
X0.2914Y-4.1128
X0.2914Y-4.1728
X0.3414Y0.0604
X0.3414Y0.0004
X0.3414Y-4.1128
X0.3414Y-4.1728
X0.3514Y-0.4196
X0.3514Y-4.5928
X0.3914Y0.0604
X0.3914Y0.0004
X0.3914Y-4.1128
X0.3914Y-4.1728
X0.4414Y0.0604
X0.4414Y0.0004
X0.4414Y-4.1128
X0.4414Y-4.1728
X0.4464Y-0.3256
X0.4464Y-4.4988
X0.4504Y-0.5036
X0.4504Y-4.6768
X0.4514Y0.3434
X0.4514Y-3.8298
X0.4604Y1.2514
X0.4604Y-2.9218
X0.4652Y-0.4496
X0.4652Y-4.6229
X0.4714Y-0.8366
X0.4714Y-5.0098
X0.4814Y-0.5796
X0.4814Y-4.7528
X0.5032Y-0.5013
X0.5032Y-4.6745
X0.5034Y-0.4756
X0.5034Y-4.6488
X0.5107Y-0.4339
X0.5107Y-4.6071
X0.5414Y0.7904
X0.5414Y-0.8396
X0.5414Y-3.3828
X0.5414Y-5.0128
X0.5494Y0.3954
X0.5494Y-3.7778
X0.5504Y0.4454
X0.5504Y-3.7278
X0.5684Y1.4564
X0.5684Y-2.7168
X0.5714Y0.0604
X0.5714Y0.0004
X0.5714Y-4.1128
X0.5714Y-4.1728
X0.5974Y-0.4456
X0.5974Y-4.6188
X0.6674Y1.4074
X0.6674Y-2.7658
X0.6908Y1.2754
X0.6908Y-2.8978
X0.6944Y1.1534
X0.6944Y-3.0198
X0.6974Y1.5634
X0.6974Y-2.6098
X0.9399Y1.3714
X0.9399Y-2.8018
X0.9599Y1.5794
X0.9599Y-2.5938
X1.0039Y0.2324
X1.0039Y-3.9408
X1.0459Y1.5304
X1.0459Y-2.6428
X1.0699Y0.8864
X1.0699Y-3.2868
X1.0959Y1.1104
X1.0959Y-3.0628
X1.0989Y1.4034
X1.0989Y-2.7698
X1.1019Y0.6909
X1.1019Y-3.4823
X1.1059Y1.6904
X1.1059Y-2.4828
X1.1309Y0.8844
X1.1309Y-3.2888
X1.1449Y1.5744
X1.1449Y-2.5988
X1.1479Y1.4724
X1.1479Y-2.7008
X1.1509Y1.5254
X1.1509Y-2.6478
X1.1819Y0.3864
X1.1819Y-3.7868
X1.1839Y-0.2646
X1.1839Y-4.4378
X1.1859Y1.7504
X1.1859Y1.6304
X1.1859Y1.5904
X1.1859Y1.5504
X1.1859Y-2.4228
X1.1859Y-2.5428
X1.1859Y-2.5828
X1.1859Y-2.6228
X1.1949Y0.9244
X1.1949Y-3.2488
X1.2059Y-0.1596
X1.2059Y-4.3328
X1.2139Y1.3454
X1.2139Y-2.8278
X1.2159Y0.2904
X1.2159Y0.0704
X1.2159Y-3.8828
X1.2159Y-4.1028
X1.2244Y0.7459
X1.2244Y-3.4273
X1.2259Y1.7504
X1.2259Y1.6304
X1.2259Y1.5904
X1.2259Y1.5504
X1.2259Y-2.4228
X1.2259Y-2.5428
X1.2259Y-2.5828
X1.2259Y-2.6228
X1.2519Y0.5784
X1.2519Y-3.5948
X1.2569Y0.9244
X1.2569Y-3.2488
X1.2583Y0.4271
X1.2583Y-3.7461
X1.2619Y1.2034
X1.2619Y-2.9698
X1.2644Y0.7459
X1.2644Y-3.4273
X1.2659Y1.6304
X1.2659Y-2.5428
X1.2694Y1.0009
X1.2694Y-3.1723
X1.2794Y1.2234
X1.2794Y-2.9498
X1.2814Y0.5784
X1.2814Y-3.5948
X1.2841Y1.1106
X1.2841Y-3.0626
X1.2869Y0.2304
X1.2869Y-3.9428
X1.2889Y1.8124
X1.2889Y-2.3608
X1.3059Y1.7504
X1.3059Y1.6304
X1.3059Y-2.4228
X1.3059Y-2.5428
X1.3189Y0.5704
X1.3189Y-3.6028
X1.3359Y-0.2106
X1.3359Y-4.3838
X1.3429Y-0.0596
X1.3429Y-4.2328
X1.3459Y1.7504
X1.3459Y1.6304
X1.3459Y-2.4228
X1.3459Y-2.5428
X1.3609Y-0.4346
X1.3609Y-4.6078
X1.3769Y0.4684
X1.3769Y-3.7048
X1.3789Y-0.2216
X1.3789Y-4.3948
X1.3909Y-0.3086
X1.3909Y-4.4818
X1.4129Y0.4274
X1.4129Y-3.7458
X1.4229Y1.2974
X1.4229Y-2.8758
X1.4279Y1.0604
X1.4279Y-3.1128
X1.4299Y0.7789
X1.4299Y-3.3943
X1.4359Y0.1104
X1.4359Y-4.0628
X1.4379Y2.6034
X1.4379Y-1.5698
X1.4429Y2.6944
X1.4429Y-1.4788
X1.4459Y1.6904
X1.4459Y0.4404
X1.4459Y-0.3996
X1.4459Y-0.4396
X1.4459Y-2.4828
X1.4459Y-3.7328
X1.4459Y-4.5728
X1.4459Y-4.6128
X1.4487Y0.7134
X1.4487Y-3.4598
X1.4559Y-0.5896
X1.4559Y-4.7628
X1.4569Y0.6834
X1.4569Y-3.4898
X1.4643Y0.4869
X1.4643Y-3.6864
X1.4879Y-0.7198
X1.4879Y-4.893
X1.4959Y-0.3996
X1.4959Y-0.4396
X1.4959Y-4.5728
X1.4959Y-4.6128
X1.5099Y0.3224
X1.5099Y-3.8508
X1.5159Y0.6604
X1.5159Y-3.5128
X1.5259Y0.5004
X1.5259Y-3.6728
X1.5309Y1.3454
X1.5309Y-2.8278
X1.5359Y1.2524
X1.5359Y-2.9208
X1.5363Y-0.2526
X1.5363Y-4.4258
X1.5459Y1.5804
X1.5459Y-0.3996
X1.5459Y-0.4396
X1.5459Y-2.5928
X1.5459Y-4.5728
X1.5459Y-4.6128
X1.5489Y0.7624
X1.5489Y-3.4108
X1.5659Y0.5404
X1.5659Y-3.6328
X1.5749Y0.3434
X1.5749Y-3.8298
X1.5759Y0.4304
X1.5759Y-3.7428
X1.5939Y1.4744
X1.5939Y-2.6988
X1.5959Y2.8504
X1.5959Y1.6804
X1.5959Y1.5304
X1.5959Y-1.3228
X1.5959Y-2.4928
X1.5959Y-2.6428
X1.6244Y0.3559
X1.6244Y-3.8173
X1.6389Y2.6324
X1.6389Y1.0304
X1.6389Y-1.5408
X1.6389Y-3.1428
X1.6394Y2.6024
X1.6394Y2.5719
X1.6394Y-1.5708
X1.6394Y-1.6013
X1.6459Y0.8904
X1.6459Y-3.2828
X1.6529Y2.0044
X1.6529Y-2.1688
X1.6544Y0.3559
X1.6544Y-3.8173
X1.6759Y-0.4796
X1.6759Y-4.6528
X1.6849Y0.1234
X1.6849Y-4.0498
X1.6859Y0.5104
X1.6859Y-3.6628
X1.6869Y2.2514
X1.6869Y-1.9218
X1.6899Y1.1014
X1.6899Y-3.0718
X1.7209Y1.1234
X1.7209Y-3.0498
X1.7259Y0.0604
X1.7259Y0.0004
X1.7259Y-4.1128
X1.7259Y-4.1728
X1.7279Y0.6034
X1.7279Y-3.5698
X1.7359Y1.0904
X1.7359Y-3.0828
X1.7459Y0.222
X1.7459Y-3.9513
X1.7509Y-0.3246
X1.7509Y-4.4978
X1.7659Y2.2204
X1.7659Y-1.9528
X1.7789Y0.7964
X1.7789Y-3.3768
X1.7989Y2.9294
X1.7989Y0.4824
X1.7989Y-1.2438
X1.7989Y-3.6908
X1.8009Y2.8484
X1.8009Y-1.3248
X1.8159Y0.3504
X1.8159Y0.3104
X1.8159Y-3.8228
X1.8159Y-3.8628
X1.8329Y2.5425
X1.8329Y-1.6307
X1.835Y0.0604
X1.835Y0.0004
X1.835Y-4.1128
X1.835Y-4.1728
X1.8359Y-0.4596
X1.8359Y-0.4996
X1.8359Y-4.6328
X1.8359Y-4.6728
X1.8609Y0.5754
X1.8609Y-3.5978
X1.8629Y1.9074
X1.8629Y-2.2658
X1.885Y0.4264
X1.885Y0.3864
X1.885Y-3.7468
X1.885Y-3.7868
X1.8859Y1.1004
X1.8859Y0.0604
X1.8859Y0.0004
X1.8859Y-3.0728
X1.8859Y-4.1128
X1.8859Y-4.1728
X1.9359Y0.0604
X1.9359Y0.0004
X1.9359Y-4.1128
X1.9359Y-4.1728
X1.9459Y-0.4196
X1.9459Y-4.5928
X1.9859Y0.0604
X1.9859Y0.0004
X1.9859Y-4.1128
X1.9859Y-4.1728
X2.0359Y0.0604
X2.0359Y0.0004
X2.0359Y-4.1128
X2.0359Y-4.1728
X2.0409Y-0.3256
X2.0409Y-4.4988
X2.0449Y-0.5036
X2.0449Y-4.6768
X2.0459Y0.3434
X2.0459Y-3.8298
X2.0549Y1.2514
X2.0549Y-2.9218
X2.0597Y-0.4496
X2.0597Y-4.6229
X2.0659Y-0.8366
X2.0659Y-5.0098
X2.0759Y-0.5796
X2.0759Y-4.7528
X2.0977Y-0.5013
X2.0977Y-4.6745
X2.0979Y-0.4756
X2.0979Y-4.6488
X2.1052Y-0.4339
X2.1052Y-4.6071
X2.1359Y0.7904
X2.1359Y-0.8396
X2.1359Y-3.3828
X2.1359Y-5.0128
X2.1439Y0.3954
X2.1439Y-3.7778
X2.1449Y0.4454
X2.1449Y-3.7278
X2.1629Y1.4564
X2.1629Y-2.7168
X2.1659Y0.0604
X2.1659Y0.0004
X2.1659Y-4.1128
X2.1659Y-4.1728
X2.1919Y-0.4456
X2.1919Y-4.6188
X2.2619Y1.4074
X2.2619Y-2.7658
X2.2853Y1.2754
X2.2853Y-2.8978
X2.2889Y1.1534
X2.2889Y-3.0198
X2.2919Y1.5634
X2.2919Y-2.6098
T3
X1.9098Y-1.3887
X1.9098Y-1.469
X1.9098Y-1.5493
X2.0098Y-1.4288
X2.0098Y-1.5091
X2.0098Y-1.5895
X-1.2797Y2.1743
X-1.2797Y2.094
X-1.2797Y2.0137
X-1.1797Y2.1342
X-1.1797Y2.0539
X-1.1797Y1.9735
X-1.2797Y-1.9989
X-1.2797Y-2.0792
X-1.2797Y-2.1595
X-1.1797Y-2.0391
X-1.1797Y-2.1194
X-1.1797Y-2.1997
X0.3147Y-1.9989
X0.3147Y-2.0792
X0.3147Y-2.1595
X0.4147Y-2.0391
X0.4147Y-2.1194
X0.4147Y-2.1997
X1.9092Y-1.9989
X1.9092Y-2.0792
X1.9092Y-2.1595
X2.0092Y-2.0391
X2.0092Y-2.1194
X2.0092Y-2.1997
X-1.2792Y-1.3887
X-1.2792Y-1.469
X-1.2792Y-1.5493
X-1.1792Y-1.4288
X-1.1792Y-1.5091
X-1.1792Y-1.5895
X0.3153Y2.7846
X0.3153Y2.7042
X0.3153Y2.6239
X0.4153Y2.7444
X0.4153Y2.6641
X0.4153Y2.5838
X1.9092Y2.1743
X1.9092Y2.094
X1.9092Y2.0137
X2.0092Y2.1342
X2.0092Y2.0539
X2.0092Y1.9735
X-1.2792Y2.7846
X-1.2792Y2.7042
X-1.2792Y2.6239
X-1.1792Y2.7444
X-1.1792Y2.6641
X-1.1792Y2.5838
X1.9098Y2.7846
X1.9098Y2.7042
X1.9098Y2.6239
X2.0098Y2.7444
X2.0098Y2.6641
X2.0098Y2.5838
X0.3153Y-1.3887
X0.3153Y-1.469
X0.3153Y-1.5493
X0.4153Y-1.4288
X0.4153Y-1.5091
X0.4153Y-1.5895
X0.3147Y2.1743
X0.3147Y2.094
X0.3147Y2.0137
X0.4147Y2.1342
X0.4147Y2.0539
X0.4147Y1.9735
T5
X-2.4405Y-4.1649
X-2.4405Y-4.2122
X-2.4405Y-4.2594
X-2.3224Y-4.1649
X-2.3224Y-4.2122
X-2.3224Y-4.2594
X-2.4405Y-1.7437
X-2.4405Y-1.7909
X-2.4405Y-1.8382
X-2.3224Y-1.7437
X-2.3224Y-1.7909
X-2.3224Y-1.8382
X-0.0074Y3.2878
X-0.0074Y3.1697
X0.0398Y3.2878
X0.0398Y3.1697
X0.0871Y3.2878
X0.0871Y3.1697
X0.7485Y-4.1649
X0.7485Y-4.2122
X0.7485Y-4.2594
X0.8666Y-4.1649
X0.8666Y-4.2122
X0.8666Y-4.2594
X0.7485Y-1.7437
X0.7485Y-1.7909
X0.7485Y-1.8382
X0.8666Y-1.7437
X0.8666Y-1.7909
X0.8666Y-1.8382
X1.5871Y3.2878
X1.5871Y3.1697
X1.6343Y3.2878
X1.6343Y3.1697
X1.6816Y3.2878
X1.6816Y3.1697
X-1.6019Y-5.0586
X-1.6019Y-5.1767
X-1.5547Y-5.0586
X-1.5547Y-5.1767
X-1.5074Y-5.0586
X-1.5074Y-5.1767
X-1.6019Y3.2878
X-1.6019Y3.1697
X-1.5547Y3.2878
X-1.5547Y3.1697
X-1.5074Y3.2878
X-1.5074Y3.1697
X-0.846Y-4.1649
X-0.846Y-4.2122
X-0.846Y-4.2594
X-0.7279Y-4.1649
X-0.7279Y-4.2122
X-0.7279Y-4.2594
X-0.0074Y-5.0586
X-0.0074Y-5.1767
X0.0398Y-5.0586
X0.0398Y-5.1767
X0.0871Y-5.0586
X0.0871Y-5.1767
X1.5871Y-0.8854
X1.5871Y-1.0035
X1.6343Y-0.8854
X1.6343Y-1.0035
X1.6816Y-0.8854
X1.6816Y-1.0035
X2.343Y-1.7437
X2.343Y-1.7909
X2.343Y-1.8382
X2.4611Y-1.7437
X2.4611Y-1.7909
X2.4611Y-1.8382
X0.7485Y0.0083
X0.7485Y-0.039
X0.7485Y-0.0862
X0.8666Y0.0083
X0.8666Y-0.039
X0.8666Y-0.0862
X-0.846Y-1.7437
X-0.846Y-1.7909
X-0.846Y-1.8382
X-0.7279Y-1.7437
X-0.7279Y-1.7909
X-0.7279Y-1.8382
X1.5871Y-5.0586
X1.5871Y-5.1767
X1.6343Y-5.0586
X1.6343Y-5.1767
X1.6816Y-5.0586
X1.6816Y-5.1767
X-0.0074Y-0.8854
X-0.0074Y-1.0035
X0.0398Y-0.8854
X0.0398Y-1.0035
X0.0871Y-0.8854
X0.0871Y-1.0035
X2.343Y-4.1649
X2.343Y-4.2122
X2.343Y-4.2594
X2.4611Y-4.1649
X2.4611Y-4.2122
X2.4611Y-4.2594
X-1.6019Y-0.8854
X-1.6019Y-1.0035
X-1.5547Y-0.8854
X-1.5547Y-1.0035
X-1.5074Y-0.8854
X-1.5074Y-1.0035
X-0.846Y2.4296
X-0.846Y2.3823
X-0.846Y2.3351
X-0.7279Y2.4296
X-0.7279Y2.3823
X-0.7279Y2.3351
X2.343Y2.4296
X2.343Y2.3823
X2.343Y2.3351
X2.4611Y2.4296
X2.4611Y2.3823
X2.4611Y2.3351
X-0.846Y0.0083
X-0.846Y-0.039
X-0.846Y-0.0862
X-0.7279Y0.0083
X-0.7279Y-0.039
X-0.7279Y-0.0862
X0.7485Y2.4296
X0.7485Y2.3823
X0.7485Y2.3351
X0.8666Y2.4296
X0.8666Y2.3823
X0.8666Y2.3351
X2.343Y0.0083
X2.343Y-0.039
X2.343Y-0.0862
X2.4611Y0.0083
X2.4611Y-0.039
X2.4611Y-0.0862
X-2.4405Y0.0083
X-2.4405Y-0.039
X-2.4405Y-0.0862
X-2.3224Y0.0083
X-2.3224Y-0.039
X-2.3224Y-0.0862
X-2.4405Y2.4296
X-2.4405Y2.3823
X-2.4405Y2.3351
X-2.3224Y2.4296
X-2.3224Y2.3823
X-2.3224Y2.3351
T6
X-0.4436Y-4.285
X-2.0381Y-4.285
X1.1509Y-4.285
X-2.0381Y-0.1118
X1.1509Y-0.1118
X-0.4436Y-0.1118
T7
X-2.0381Y-4.5783
X1.1509Y-0.4051
X-0.4436Y-0.4051
X-0.4436Y-4.5783
X1.1509Y-4.5783
X-2.0381Y-0.4051
T8
X2.1003Y-1.2528
X2.1003Y-1.7253
X-1.0892Y2.3102
X-1.0892Y1.8377
X-1.0892Y-1.8631
X-1.0892Y-2.3355
X0.5053Y-1.8631
X0.5053Y-2.3355
X2.0998Y-1.8631
X2.0998Y-2.3355
X-1.0886Y-1.2528
X-1.0886Y-1.7253
X0.5058Y2.9204
X0.5058Y2.448
X2.0998Y2.3102
X2.0998Y1.8377
X-1.0886Y2.9204
X-1.0886Y2.448
X2.1003Y2.9204
X2.1003Y2.448
X0.5058Y-1.2528
X0.5058Y-1.7253
X0.5053Y2.3102
X0.5053Y1.8377
T9
X-2.5586Y-5.2949
X2.5792Y3.4059
X-2.5586Y3.4059
T10
X0.9508Y3.0856
X0.6646Y-4.9747
X-2.2382Y-4.9747
X2.259Y-4.9747
X-2.2382Y-1.0877
X0.6646Y3.0856
X-2.2382Y-0.8014
X-0.6437Y-1.0877
X0.9508Y-1.0877
X2.259Y3.0856
X-0.9299Y3.0856
X-0.6437Y-4.9747
X-0.6437Y-0.8014
X2.259Y-1.0877
X-0.9299Y-0.8014
X0.6646Y-1.0877
X-0.9299Y-1.0877
X0.9508Y-0.8014
X0.6646Y-0.8014
X-2.2382Y3.0856
X-0.6437Y3.0856
X0.9508Y-4.9747
X-0.9299Y-4.9747
X2.259Y-0.8014
T2
X0.5414Y-0.4031G85X0.5414Y-0.3756
G05
X0.5414Y-0.6236G85X0.5414Y-0.596
G05
X0.626Y-0.5212G85X0.626Y-0.4779
G05
X2.1359Y-0.4031G85X2.1359Y-0.3756
G05
X2.1359Y-0.6236G85X2.1359Y-0.596
G05
X2.2205Y-0.5212G85X2.2205Y-0.4779
G05
X-1.0531Y-4.5764G85X-1.0531Y-4.5488
G05
X-1.0531Y-4.7968G85X-1.0531Y-4.7693
G05
X-0.9684Y-4.6945G85X-0.9684Y-4.6512
G05
X2.1359Y-4.5764G85X2.1359Y-4.5488
G05
X2.1359Y-4.7968G85X2.1359Y-4.7693
G05
X2.2205Y-4.6945G85X2.2205Y-4.6512
G05
X-1.0531Y-0.4031G85X-1.0531Y-0.3756
G05
X-1.0531Y-0.6236G85X-1.0531Y-0.596
G05
X-0.9684Y-0.5212G85X-0.9684Y-0.4779
G05
X0.5414Y-4.5764G85X0.5414Y-4.5488
G05
X0.5414Y-4.7968G85X0.5414Y-4.7693
G05
X0.626Y-4.6945G85X0.626Y-4.6512
G05
T4
X2.269Y-0.3639G85X2.269Y-0.3666
G05
X2.269Y-0.6237G85X2.269Y-0.6265
G05
X2.269Y-4.5371G85X2.269Y-4.5399
G05
X2.269Y-4.7969G85X2.269Y-4.7997
G05
X0.6746Y-0.3639G85X0.6746Y-0.3666
G05
X0.6746Y-0.6237G85X0.6746Y-0.6265
G05
X-0.9199Y-4.5371G85X-0.9199Y-4.5399
G05
X-0.9199Y-4.7969G85X-0.9199Y-4.7997
G05
X-0.9199Y-0.3639G85X-0.9199Y-0.3666
G05
X-0.9199Y-0.6237G85X-0.9199Y-0.6265
G05
X0.6746Y-4.5371G85X0.6746Y-4.5399
G05
X0.6746Y-4.7969G85X0.6746Y-4.7997
G05
T0
M30
